<svg width="180" height="48" viewBox="0 0 180 48" fill="none" xmlns="http://www.w3.org/2000/svg">
<g clip-path="url(#clip0_1965_8742)">
<path d="M13.1945 3.16775C13.5499 4.74969 14.0889 9.01899 11.6672 13.382C10.3899 15.6788 7.90178 18.5185 6.35498 20.6785C3.23406 25.0377 0.538895 32.5412 2.71846 39.0916C-1.17586 28.5492 -0.55089 17.1631 2.4841 8.5034C4.40197 3.03104 7.24947 -0.898436 10.6907 0.179631C11.2922 0.445241 11.8742 0.632731 12.5578 1.55065C12.9328 2.05453 13.0421 2.48029 13.1945 3.16775Z" fill="white"/>
<path d="M10.8002 41.2513C10.8979 39.2397 11.1674 37.1578 12.5814 34.4939C15.8429 28.3497 23.034 27.7325 21.7098 11.2803C22.3777 12.5185 25.8971 25.6428 22.8152 38.2202C22.366 40.0561 21.827 41.4661 20.6786 43.3215C19.9794 44.4543 18.3116 46.2667 17.214 46.9971C16.2609 47.6299 15.007 47.9345 13.6048 47.3838C13.2337 47.2275 12.4212 46.7237 11.8783 45.8214C11.4096 45.048 10.7065 43.1809 10.8002 41.2513Z" fill="white"/>
<path d="M3.96861 27.4629C3.67566 30.0174 3.97252 36.0523 9.73783 40.5012C9.70658 40.6926 9.16755 44.7627 12.2416 47.868C12.2416 47.868 10.7495 47.6337 8.60117 46.4853C-0.23819 41.7512 3.47645 29.6932 3.96861 27.4629Z" fill="white"/>
<path d="M19.1201 25.5027C19.5888 22.7724 19.7841 16.1516 13.55 11.3589C13.6594 11.0347 15.132 7.48803 14.0852 2.89453C14.3703 3.70699 15.0695 6.16388 18.0615 8.10128C22.2136 10.7886 20.8778 19.3194 19.124 25.5066L19.1201 25.5027Z" fill="white"/>
<path d="M51.0597 37.1733V11.0654H46.6928C46.31 12.163 45.7983 12.9911 45.146 13.5535C43.8453 14.6746 42.3454 15.2331 40.6423 15.2331C40.6658 14.9441 40.6853 14.6668 40.7087 14.409C40.7322 14.1512 40.8533 13.7488 41.0798 13.1981C41.3025 12.6512 41.5876 12.1864 41.9352 11.8036C42.2829 11.4247 42.8297 11.0771 43.5836 10.7607C44.3335 10.4482 45.2124 10.292 46.2202 10.292H63.0903C64.0747 10.292 64.934 10.4365 65.6605 10.7295C66.387 11.0224 66.9378 11.3505 67.3089 11.7216C67.6799 12.0927 67.9768 12.5458 68.1994 13.0809C68.4221 13.6199 68.5588 14.0262 68.6018 14.3074C68.6447 14.5886 68.6799 14.8972 68.7033 15.2331C67.0003 15.2331 65.4886 14.6746 64.1645 13.5535C63.8715 13.3075 63.5981 12.9754 63.3403 12.5614C63.0825 12.1474 62.8989 11.7958 62.7857 11.5029L62.6177 11.0654H58.282V37.1733H51.0558H51.0597Z" fill="white"/>
<path d="M90.0223 15.0576C90.0223 15.0576 87.8154 16.3622 88.8232 18.12C89.6903 19.6277 87.7295 20.7722 87.7295 20.7722C88.3701 20.7839 93.53 19.0847 90.0223 15.0615V15.0576Z" fill="white"/>
<path d="M65.7424 18.7061H72.2968V31.3616C72.2968 34.7677 73.6287 36.4707 76.2965 36.4707C77.2379 36.4707 78.3902 36.0215 79.7573 35.127V18.71H86.3116V37.1777H79.7573V35.9668C77.9644 37.1972 76.07 37.8144 74.0779 37.8144C71.457 37.8144 69.4102 37.2324 67.9454 36.0684C66.4768 34.9044 65.7424 32.9084 65.7424 30.0882V18.71V18.7061Z" fill="white"/>
<path d="M132.739 18.5967C133.836 18.5967 134.672 19.0381 135.243 19.9247C135.813 20.8114 136.098 21.8348 136.098 22.9988C136.098 23.8972 136.008 24.5573 135.829 24.9831C134.797 24.6706 133.856 24.0651 133.004 23.1667C132.153 22.2723 131.536 21.0848 131.157 19.6044C130.528 19.8271 129.868 20.2255 129.173 20.7958C128.477 21.3661 127.931 21.8895 127.524 22.3582L126.954 23.0652V37.7206H120.4V19.167H126.954V21.8231C128.837 19.6708 130.762 18.5967 132.735 18.5967H132.739Z" fill="white"/>
<path d="M137.274 19.186H143.828V31.908C143.828 35.3141 145.16 37.0171 147.828 37.0171C148.769 37.0171 149.921 36.5679 151.289 35.6734V19.1899H157.843V37.6655H151.289V36.5171C149.496 37.7475 147.601 38.3647 145.609 38.3647C142.988 38.3647 140.941 37.7827 139.477 36.6187C138.008 35.4547 137.274 33.4587 137.274 30.6385V19.1939V19.186ZM144.633 17.3815C144.676 15.6355 145.316 14.1199 146.547 12.8426C147.777 11.5654 149.324 10.7138 151.183 10.2881V14.0184C148.269 14.3308 146.086 15.4519 144.629 17.3775L144.633 17.3815Z" fill="white"/>
<path d="M178.721 21.6902C178.607 21.534 178.436 21.3504 178.201 21.1356C177.967 20.9246 177.439 20.6317 176.623 20.2606C175.807 19.8895 174.916 19.706 173.951 19.706C172.717 19.706 171.619 19.9599 170.659 20.4637C169.694 20.9676 168.932 21.6277 168.374 22.448C167.815 23.2644 167.393 24.1432 167.112 25.0846C166.831 26.0259 166.69 26.979 166.69 27.9399C166.69 29.307 166.96 30.6272 167.499 31.9045C168.038 33.1818 168.909 34.2794 170.12 35.1973C171.33 36.1152 172.741 36.5761 174.354 36.5761C175.139 36.5761 175.912 36.4082 176.674 36.0723C177.436 35.7363 177.986 35.4356 178.322 35.1661C178.658 34.8965 178.928 34.6505 179.131 34.4278C177.225 37.0488 174.615 38.3612 171.299 38.3612C168.409 38.3612 165.803 37.3691 163.487 35.3887C161.167 33.4044 160.007 30.9241 160.007 27.9438C160.007 26.0845 160.573 24.3815 161.706 22.8347C162.839 21.2879 164.261 20.1083 165.975 19.288C167.69 18.4717 169.456 18.0615 171.268 18.0615C174.428 18.0615 176.912 19.2724 178.728 21.6902H178.721Z" fill="white"/>
<path d="M105.518 37.6577V11.5498H101.151C100.768 12.6474 100.256 13.4754 99.604 14.0379C98.3033 15.1589 96.8034 15.7175 95.1003 15.7175C95.1238 15.4285 95.1433 15.1511 95.1667 14.8933C95.1902 14.6355 95.3113 14.2332 95.5378 13.6825C95.7605 13.1356 96.0456 12.6708 96.3932 12.288C96.7409 11.9091 97.2877 11.5615 98.0416 11.2451C98.7915 10.9326 99.6704 10.7764 100.678 10.7764H117.548C118.533 10.7764 119.392 10.9209 120.119 11.2138C120.845 11.5068 121.396 11.8349 121.767 12.206C122.138 12.5771 122.435 13.0302 122.657 13.5653C122.88 14.1043 123.017 14.5105 123.06 14.7918C123.103 15.073 123.138 15.3816 123.161 15.7175C121.458 15.7175 119.947 15.1589 118.622 14.0379C118.33 13.7918 118.056 13.4598 117.798 13.0458C117.541 12.6317 117.357 12.2802 117.244 11.9872L117.076 11.5498H112.74V37.6577H105.514H105.518Z" fill="white"/>
</g>
<defs>
<clipPath id="clip0_1965_8742">
<rect width="179.127" height="47.8685" fill="white"/>
</clipPath>
</defs>
</svg>
