<svg width="375" height="83" viewBox="0 0 375 83" fill="none" xmlns="http://www.w3.org/2000/svg">
<g clip-path="url(#clip0_1965_8652)">
<path d="M519.492 81.5423C447.781 81.5423 402.4 63.771 349.617 57.0143C273.23 47.2399 199.824 55.8624 157.5 76.9348L303.484 113H414.438L459.967 90.474L519.5 81.5423H519.492Z" fill="#526D1D"/>
<path d="M487.012 85.9782C419.4 85.9782 411.378 74.1205 373.227 71.0412C325.554 67.192 307.807 80.9511 266.873 81.3836C217.825 81.9032 165.81 67.0479 90.8313 67.0479C27.9066 67.0479 -2.02603 79.1802 -2.02603 79.1802V135.035H487.012V85.9782Z" fill="#6D9127"/>
<g clip-path="url(#clip1_1965_8652)">
<path d="M131.539 34.0026C130.943 33.05 128.812 32.9342 127.853 32.6653C125.268 31.9422 111.874 28.9584 107.532 28.3734C97.9319 27.0738 87.9017 26.4476 78.5084 27.2298C72.9291 27.6944 67.5081 28.8542 62.1458 30.0473C56.4725 31.3097 45.1999 35.8541 40.7972 37.976C29.1859 43.5674 18.2865 50.6842 9.52327 60.0814C5.53645 64.3572 2.01705 69.0912 -0.895476 74.24C-1.1159 74.6262 -1.60553 75.3906 -2.29064 76.4208C-4.20772 79.309 -7.62528 84.2779 -10.6473 88.7705C-6.44482 85.7069 -2.23926 81.9589 1.2599 77.4713C1.26807 77.4622 1.27771 77.4479 1.28588 77.4388C2.46211 75.7409 3.65338 74.1009 4.86307 72.517C4.86789 72.5099 4.87461 72.5061 4.87942 72.4989C55.8127 5.77514 133.506 37.1277 131.539 34.0026Z" fill="#5BBF13"/>
<path d="M129.841 27.0769C132.15 26.5512 134.34 25.6273 136.603 24.9416C137.128 24.7817 137.478 25.5724 136.947 25.7308C134.611 26.4358 132.354 27.3838 129.97 27.9255C129.429 28.0499 129.297 27.1979 129.839 27.0735L129.841 27.0769Z" fill="url(#paint0_linear_1965_8652)"/>
<path d="M124.515 38.5993C126.692 40.608 128.699 42.7929 130.877 44.8016C131.283 45.1748 130.767 45.8697 130.359 45.4932C128.182 43.4845 126.175 41.2996 123.997 39.2909C123.591 38.9177 124.107 38.2228 124.515 38.5993Z" fill="url(#paint1_linear_1965_8652)"/>
<path d="M112.626 21.8744C115.127 21.6966 117.622 22.0322 119.942 20.8667C120.439 20.6167 120.722 21.4315 120.232 21.6777C117.841 22.8744 115.273 22.5495 112.696 22.7347C112.142 22.7734 112.068 21.915 112.623 21.8763L112.626 21.8744Z" fill="url(#paint2_linear_1965_8652)"/>
<path d="M108.847 35.4574C111.457 37.2038 113.917 39.1635 116.33 41.1723C116.756 41.5254 116.24 42.2204 115.812 41.8639C113.4 39.8551 110.943 37.8935 108.33 36.149C107.866 35.8392 108.386 35.151 108.847 35.4574Z" fill="url(#paint3_linear_1965_8652)"/>
<path d="M136.318 37.4437C138.837 38.8648 141.743 39.5664 144.027 41.3951C144.457 41.7411 143.945 42.4342 143.509 42.0867C141.234 40.2662 138.312 39.5516 135.801 38.1353C135.319 37.8628 135.838 37.1745 136.318 37.4437Z" fill="url(#paint4_linear_1965_8652)"/>
<path d="M5.74791 79.7059C7.77946 77.9764 9.48309 75.9491 11.0347 73.7863C11.3607 73.3359 12.0504 73.8501 11.7263 74.3038C10.1309 76.5225 8.3696 78.6045 6.28519 80.3816C5.85958 80.742 5.33092 80.0658 5.75127 79.704L5.74791 79.7059Z" fill="url(#paint5_linear_1965_8652)"/>
<path d="M22.6995 57.5546C24.9755 56.3827 27.1223 54.9825 29.3185 53.6695C29.7965 53.386 30.1341 54.179 29.6629 54.4588C27.4667 55.7717 25.3232 57.1701 23.0439 58.3439C22.5489 58.5972 22.2078 57.8061 22.6995 57.5546Z" fill="url(#paint6_linear_1965_8652)"/>
<path d="M34.3875 46.0994C37.0392 45.4508 39.6617 44.7035 42.4139 44.8048C42.9713 44.8264 42.8751 45.6831 42.323 45.6629C39.6487 45.5663 37.0889 46.3225 34.5191 46.9513C33.9782 47.0843 33.8499 46.2305 34.3875 46.0994Z" fill="url(#paint7_linear_1965_8652)"/>
<path d="M20.7414 39.6276C22.0546 38.0073 23.4675 36.477 24.8078 34.8812C26.0111 33.4428 27.3499 31.8834 27.9471 30.0785C28.1222 29.5495 28.9229 29.868 28.7492 30.3917C28.1579 32.1755 26.88 33.7094 25.7059 35.1446C24.3172 36.843 22.8146 38.4419 21.4296 40.147C21.0803 40.5795 20.3887 40.062 20.738 39.6295L20.7414 39.6276Z" fill="url(#paint8_linear_1965_8652)"/>
<path d="M10.6072 40.6342C10.8124 40.1192 11.6145 40.4325 11.4093 40.9474C10.288 43.7535 8.83846 46.426 8.10269 49.373C7.96773 49.9103 7.16708 49.5919 7.30058 49.0598C8.03636 46.1128 9.48588 43.4403 10.6072 40.6342Z" fill="url(#paint9_linear_1965_8652)"/>
<path d="M40.2323 29.2977C41.9759 27.208 43.7286 25.1264 45.6734 23.2199C46.0699 22.8316 46.6005 23.5111 46.2073 23.8975C44.3168 25.7511 42.617 27.7851 40.9205 29.8171C40.5674 30.2429 39.8724 29.7273 40.2289 29.2996L40.2323 29.2977Z" fill="url(#paint10_linear_1965_8652)"/>
<path d="M58.2092 26.6739C60.3429 25.2191 62.1278 23.3276 64.2615 21.8728C64.7189 21.5609 65.2562 22.2366 64.7954 22.5504C62.6617 24.0053 60.8768 25.8967 58.7431 27.3516C58.2857 27.6635 57.7484 26.9877 58.2092 26.6739Z" fill="url(#paint11_linear_1965_8652)"/>
<path d="M132.534 25.797C133.982 26.2328 134.901 26.635 134.71 26.8936C132.567 29.7898 126.084 32.3083 121.478 31.0612C116.501 29.7138 116.833 25.0666 121.032 24.1904C124.68 23.4304 128.877 24.7001 132.534 25.797Z" fill="#F9BD29"/>
<path d="M126.113 38.4061C127.091 39.626 127.704 40.8438 127.719 41.8727C124.622 41.3588 118.685 39.9914 115.714 37.9127C111.507 34.9642 111.758 31.2229 116.841 32.3248C120.022 33.0123 123.954 35.7175 126.115 38.4094L126.113 38.4061Z" fill="#F9BD29"/>
<path d="M94.3075 30.6384C94.3398 28.3285 99.216 27.765 102.766 29.5912C106.83 31.6815 109.936 34.9247 112.539 38.1642C108.266 38.6036 100.162 36.8217 96.4517 33.7873C94.9121 32.5305 94.2947 31.4701 94.3075 30.6384Z" fill="#F9BD29"/>
<path d="M115.818 23.7712C112.045 26.4501 104.111 29.9843 102.684 24.8205C100.805 18.0022 113.034 19.7341 117.489 22.3521C117.151 22.7425 116.567 23.2371 115.818 23.7712Z" fill="#F9BD29"/>
<path d="M136.824 36.2518C138.968 37.8234 140.917 39.4515 142.072 40.2874C138.986 40.6541 134.554 41.0067 131.022 39.7859C127.707 38.6422 125.268 34.6583 126.968 32.9076C128.838 30.9859 133.127 33.5381 136.826 36.2465L136.824 36.2518Z" fill="#F9BD29"/>
<path d="M36.6223 46.7194C31.8232 49.6373 22.5617 53.5761 23.2155 48.211C24.0769 41.1284 35.4812 42.5776 38.8401 45.1859C38.3501 45.6049 37.5724 46.1422 36.6223 46.7194Z" fill="#F9BD29"/>
<path d="M33.2043 31.9029C35.7158 29.2194 39.6733 27.7525 42.9242 26.9956C41.8808 31.0917 39.2138 36.7843 35.9264 39.3969C32.3316 42.2498 28.9121 38.2175 31.1811 34.5408C31.773 33.5811 32.4541 32.7084 33.2076 31.901L33.2043 31.9029Z" fill="#F9BD29"/>
<path d="M55.0824 25.5538C57.5979 25.1817 60.0341 25.0141 61.3831 24.8052C59.7874 27.6269 57.3638 31.524 54.2719 33.3301C51.3729 35.0228 46.8241 33.5395 46.5102 30.6409C46.1679 27.457 50.7423 26.1953 55.0771 25.5523L55.0824 25.5538Z" fill="#F9BD29"/>
<path d="M21.8057 36.8005C23.0609 35.8691 24.3 35.3013 25.3293 35.3265C24.7001 38.3993 23.1071 44.2824 20.9172 47.1741C17.8108 51.2668 14.0831 50.8749 15.3738 45.8367C16.1837 42.6837 19.0324 38.8564 21.8057 36.8005Z" fill="#F9BD29"/>
<path d="M9.81944 66.5176C7.93365 65.1817 10.231 60.8418 13.7453 58.9519C17.7692 56.7871 22.2 56.0632 26.3462 55.7529C24.2893 59.5225 18.2298 65.1965 13.6282 66.5356C11.7216 67.0908 10.4973 67.003 9.81608 66.5195L9.81944 66.5176Z" fill="#F9BD29"/>
<path d="M-1.37679 66.8617C0.501827 64.9792 2.54653 63.3043 3.92514 62.1524C4.34588 64.7069 3.27046 70.306 2.1411 73.192C0.984155 76.1467 -3.099 79.3822 -5.09384 76.9599C-7.44043 74.1116 -4.67206 70.1658 -1.37343 66.8598L-1.37679 66.8617Z" fill="#F9BD29"/>
<path d="M9.08583 47.8421C10.1947 52.3345 10.569 61.0144 5.24275 60.445C-1.79113 59.6934 4.31011 48.9516 8.37868 45.7687C8.61639 46.2282 8.86584 46.9514 9.08583 47.8421Z" fill="#F9BD29"/>
<path d="M6.50671 77.4901C7.80886 77.2767 8.66449 77.2848 8.56659 77.6682C7.45056 81.965 2.63976 87.9346 -1.47288 88.7667C-5.91889 89.6676 -6.70889 84.2812 -3.41822 81.2589C-0.563381 78.6339 3.22043 78.0277 6.50671 77.4901Z" fill="#F9BD29"/>
<path d="M95.2386 22.0905C97.5235 22.4783 99.7472 22.0762 101.984 21.6182C102.527 21.5057 102.644 22.3619 102.1 22.4743C99.7883 22.9483 97.4851 23.351 95.1339 22.9477C94.5849 22.8548 94.6897 21.9976 95.2386 22.0905Z" fill="url(#paint12_linear_1965_8652)"/>
<path d="M73.0452 26.0545C75.5098 25.0906 78.2897 24.2454 80.0335 22.1246C80.3847 21.6955 81.0061 22.2926 80.6548 22.7217C78.8182 24.9527 75.893 25.8623 73.2947 26.8796C72.7765 27.0841 72.5303 26.257 73.0452 26.0545Z" fill="url(#paint13_linear_1965_8652)"/>
<path d="M88.4594 32.5974C91.8242 33.5624 95.3603 34.5324 98.1509 36.7395C98.583 37.0803 98.137 37.82 97.7031 37.4759C94.9648 35.3145 91.52 34.3726 88.2236 33.4267C87.6888 33.2726 87.9265 32.4467 88.4594 32.5974Z" fill="url(#paint14_linear_1965_8652)"/>
<path d="M68.8802 37.2744C71.813 38.4082 74.8869 39.2274 77.4508 41.1195C77.8977 41.4474 77.3802 42.139 76.9332 41.8111C74.4324 39.9676 71.4224 39.1832 68.5636 38.0784C68.0472 37.8784 68.3604 37.0763 68.8768 37.2763L68.8802 37.2744Z" fill="url(#paint15_linear_1965_8652)"/>
<path d="M87.8656 30.5662C90.1596 31.9107 92.297 33.4722 93.7582 34.5119C91.3914 35.5624 85.7035 35.9289 82.6232 35.561C79.4716 35.1847 75.3135 32.0488 77.1568 29.5082C79.3193 26.5211 83.8371 28.2081 87.8656 30.5662Z" fill="#F9BD29"/>
<path d="M87.0452 20.0798C90.9332 19.8224 95.6659 21.2859 99.3263 22.7973C96.2057 24.9211 90.6408 27.1196 86.0052 26.8468C80.9381 26.5475 79.5256 21.6905 83.6704 20.6098C84.7513 20.3265 85.8796 20.1583 87.0471 20.0831L87.0452 20.0798Z" fill="#F9BD29"/>
<path d="M76.3445 23.6264C77.6505 23.8275 78.4609 24.1006 78.2465 24.4346C75.8528 28.1729 69.4305 32.359 65.2611 31.8757C60.7544 31.3526 61.6742 25.9877 65.7382 24.1371C69.2686 22.5262 73.0499 23.1226 76.3464 23.6298L76.3445 23.6264Z" fill="#F9BD29"/>
<path d="M70.944 36.139C72.2636 37.1791 73.2315 38.4047 73.5684 39.6902C70.4541 40.6181 64.3625 41.9088 60.8725 40.7931C55.9284 39.2142 54.9847 34.3713 60.1796 33.1799C63.4275 32.4335 68.0346 33.8395 70.944 36.139Z" fill="#F9BD29"/>
<path d="M51.9578 37.0901C54.9013 35.9307 57.439 33.9283 60.4962 33.0326C61.0204 32.878 61.3734 33.6668 60.8406 33.8219C57.7833 34.7175 55.2438 36.7166 52.3022 37.8793C51.7873 38.0818 51.4395 37.2945 51.9578 37.0901Z" fill="url(#paint16_linear_1965_8652)"/>
<path d="M49.0908 35.2481C51.7834 35.2989 54.3679 35.566 55.8131 35.582C53.7643 38.394 50.7058 42.2423 47.2175 43.661C43.9459 44.9926 39.3589 42.5248 39.4107 39.2775C39.4702 35.7067 44.4439 35.159 49.0874 35.25L49.0908 35.2481Z" fill="#F9BD29"/>
<path d="M130.837 35.88C134.086 36.3032 136.891 37.9169 139.889 39.1114C140.233 39.2493 140.024 39.7887 139.678 39.6474C136.731 38.4728 133.971 36.8688 130.774 36.4516C130.406 36.403 130.466 35.8281 130.835 35.8766L130.837 35.88Z" fill="#D26E28"/>
<path d="M124.312 27.6563C126.795 26.2786 129.722 26.352 132.467 26.5901C132.84 26.6229 132.775 27.1964 132.407 27.1651C129.75 26.9345 126.943 26.855 124.541 28.1871C124.215 28.3713 123.987 27.8353 124.308 27.6582L124.312 27.6563Z" fill="#D26E28"/>
<path d="M120.359 36.1096C122.15 37.1135 124.109 37.9119 125.448 39.5349C125.685 39.8217 125.232 40.18 124.994 39.8932C123.696 38.3182 121.752 37.5468 120.013 36.5713C119.689 36.3909 120.039 35.9273 120.359 36.1096Z" fill="#D26E28"/>
<path d="M108.366 23.956C109.55 23.9335 110.752 23.613 111.893 23.318C113.109 23.0071 114.404 22.6559 115.504 22.0296C115.829 21.8453 116.053 22.3747 115.736 22.5585C114.645 23.1843 113.375 23.517 112.17 23.8394C110.921 24.1779 109.611 24.5023 108.309 24.529C107.936 24.536 108.002 23.9625 108.37 23.9541L108.366 23.956Z" fill="#D26E28"/>
<path d="M84.6895 32.4998C86.629 32.6219 88.6937 32.2521 90.3617 33.4851C90.6598 33.7066 90.3137 34.1683 90.0156 33.9468C88.4606 32.7961 86.4384 33.1862 84.629 33.0748C84.2563 33.0506 84.3187 32.479 84.6895 32.4998Z" fill="#D26E28"/>
<path d="M88.852 24.0824C91.3641 23.6102 93.8593 23.0768 96.4303 23.1476C96.804 23.1579 96.7383 23.7314 96.3699 23.7225C93.8491 23.6543 91.4041 24.1904 88.9399 24.6532C88.572 24.7238 88.4875 24.1511 88.852 24.0824Z" fill="#D26E28"/>
<path d="M98.9636 30.3363C102.311 32.1176 106.166 33.2666 108.935 35.969C109.199 36.2233 108.856 36.6917 108.589 36.4307C105.852 33.7629 102.058 32.6333 98.7526 30.8723C98.4293 30.7005 98.6332 30.1597 98.9636 30.3363Z" fill="#D26E28"/>
<path d="M62.6679 35.6464C65.5585 36.0551 68.4154 36.5139 71.149 37.5698C71.4963 37.7058 71.2852 38.2418 70.9379 38.1058C68.2502 37.0683 65.444 36.6207 62.6074 36.2214C62.2401 36.1676 62.2972 35.5945 62.6679 35.6464Z" fill="#D26E28"/>
<path d="M68.0302 28.9884C70.7954 26.8085 74.435 25.9159 76.9648 23.4215C77.2297 23.1609 77.5846 23.6162 77.3232 23.8748C74.7919 26.3746 71.1571 27.2599 68.3885 29.4418C68.0979 29.6726 67.7396 29.2192 68.0302 28.9884Z" fill="#D26E28"/>
<path d="M52.4717 30.0927C54.5862 28.2276 57.1972 27.1543 59.5622 25.6617C59.8718 25.4645 60.2335 25.916 59.9206 26.1151C57.5589 27.6058 54.9393 28.6795 52.8301 30.546C52.5524 30.7917 52.194 30.3384 52.4717 30.0927Z" fill="#D26E28"/>
<path d="M47.3203 39.1792C49.4567 38.0818 51.6571 37.1211 53.8575 36.1604C54.1989 36.0117 54.4315 36.5406 54.0901 36.6893C51.8897 37.65 49.6893 38.6107 47.5529 39.7081C47.2196 39.8789 46.9903 39.3481 47.3203 39.1792Z" fill="#D26E28"/>
<path d="M2.24833 82.7439C3.92364 81.3798 5.94027 80.2039 6.99464 78.2513C7.16981 77.9261 7.70917 78.1353 7.53064 78.4623C6.41643 80.5285 4.37468 81.7541 2.60331 83.1991C2.31465 83.4333 1.95631 82.9799 2.24497 82.7458L2.24833 82.7439Z" fill="#D26E28"/>
<path d="M-0.999326 73.1638C0.402205 70.7356 1.62278 68.2147 2.65567 65.6049C2.79169 65.2576 3.32959 65.472 3.19167 65.816C2.14039 68.4716 0.890911 71.0354 -0.537626 73.5099C-0.723309 73.8321 -1.18355 73.4807 -0.999326 73.1638Z" fill="#D26E28"/>
<path d="M8.87695 46.562C8.50358 49.2642 7.52456 51.8125 6.53561 54.3354C6.39958 54.6827 5.86358 54.4716 5.9996 54.1243C6.97017 51.6473 7.93985 49.1531 8.30725 46.503C8.35915 46.1324 8.93075 46.1947 8.88221 46.5635L8.87695 46.562Z" fill="#D26E28"/>
<path d="M16.4582 61.5003C19.2101 60.2765 21.5781 58.4365 23.9246 56.582C24.2152 56.3512 24.5735 56.8045 24.2829 57.0353C21.8999 58.9193 19.4849 60.7859 16.6908 62.0292C16.3513 62.1813 16.1187 61.6524 16.4582 61.5003Z" fill="#D26E28"/>
<path d="M23.5898 37.7599C23.7311 37.4141 24.2671 37.6251 24.1258 37.971C22.9703 40.8185 20.7549 43.1086 19.7938 46.0412C19.6788 46.3944 19.1428 46.1833 19.2578 45.8302C20.2204 42.8923 22.4324 40.6041 23.5898 37.7599Z" fill="#D26E28"/>
<path d="M31.3947 46.1393C33.2608 45.6691 35.1259 45.2127 37.0168 44.857C37.3847 44.7864 37.4692 45.3591 37.1047 45.4278C35.2157 45.7869 33.3454 46.2418 31.4826 46.7102C31.1209 46.7995 31.0349 46.232 31.3947 46.1393Z" fill="#D26E28"/>
<path d="M36.1533 35.0287C37.3517 34.3731 38.2225 33.2247 39.0103 32.1409C39.8028 31.0499 40.5076 29.8978 41.3074 28.8117C41.5288 28.5136 41.9905 28.8598 41.7691 29.1579C40.1662 31.332 38.8483 34.2138 36.3859 35.5576C36.0582 35.7384 35.8323 35.2058 36.1533 35.0287Z" fill="#D26E28"/>
<path d="M-4.14157 83.1669C-2.11506 80.5272 1.88221 80.3454 4.77143 79.239C5.11707 79.1056 5.34968 79.6345 5.00404 79.7679C3.56206 80.3218 2.03781 80.6519 0.565141 81.1124C-0.965503 81.588 -2.66902 82.1968 -3.67987 83.5131C-3.9066 83.8097 -4.3683 83.4636 -4.14157 83.1669Z" fill="#E8F5F7"/>
<path d="M11.231 63.0643C13.8363 60.7975 16.3758 58.3907 19.5684 56.9664C19.9079 56.8143 20.1405 57.3431 19.801 57.4952C16.6539 58.8982 14.1567 61.2856 11.5893 63.5177C11.3063 63.7619 10.9514 63.3066 11.231 63.0643Z" fill="#E8F5F7"/>
<path d="M15.2953 64.2895C16.3474 63.9161 17.2008 63.2385 17.9834 62.459C18.2463 62.1951 18.6013 62.6504 18.3417 62.9124C17.5298 63.7262 16.6208 64.4308 15.5279 64.8184C15.1766 64.9417 14.944 64.4128 15.2953 64.2895Z" fill="#E8F5F7"/>
<path d="M24.0797 47.3237C26.4603 45.2239 29.4457 44.4442 32.4488 43.6723C32.8086 43.5796 32.8965 44.1505 32.5367 44.2431C29.6256 44.9896 26.7442 45.7415 24.4346 47.779C24.1569 48.0247 23.7986 47.5713 24.0763 47.3256L24.0797 47.3237Z" fill="#E8F5F7"/>
<path d="M29.1039 49.1402C30.1194 48.4906 31.2219 47.9868 32.1756 47.2435C32.4681 47.0161 32.8298 47.4675 32.534 47.6969C31.5802 48.4401 30.4778 48.9439 29.4622 49.5936C29.1527 49.7908 28.791 49.3393 29.1039 49.1402Z" fill="#E8F5F7"/>
<path d="M44.2143 42.5494C47.1068 42.3188 49.5505 40.8792 51.5928 38.8864C51.8577 38.6259 52.2146 39.0845 51.9512 39.3398C49.843 41.3963 47.2842 42.8833 44.3056 43.1184C43.9355 43.1459 43.8443 42.577 44.2177 42.5475L44.2143 42.5494Z" fill="#E8F5F7"/>
<path d="M41.5267 40.1468C43.6753 39.016 46.116 38.4646 48.1207 37.056C48.4261 36.8435 48.7844 37.2968 48.4791 37.5094C46.4292 38.9479 43.953 39.5149 41.7575 40.6724C41.426 40.8465 41.1967 40.3157 41.5248 40.1435L41.5267 40.1468Z" fill="#E8F5F7"/>
<path d="M61.7775 38.7078C63.3962 38.8739 65.014 38.9208 66.6346 38.7845C67.0027 38.7536 67.0959 39.3259 66.7225 39.3553C65.0502 39.4943 63.3793 39.4553 61.7118 39.2813C61.3401 39.2432 61.4006 38.6683 61.7723 38.7063L61.7775 38.7078Z" fill="#E8F5F7"/>
<path d="M63.4547 33.4606C64.8991 33.8671 66.4192 34.0313 67.7816 34.6926C68.113 34.8553 67.9072 35.3928 67.5706 35.2286C66.2082 34.5673 64.6914 34.4012 63.2437 33.9966C62.8862 33.8974 63.1006 33.3595 63.4547 33.4606Z" fill="#E8F5F7"/>
<path d="M64.8421 26.8689C66.9273 25.2421 69.6397 24.4971 72.1711 23.8944C72.5347 23.8084 72.6193 24.3812 72.259 24.4652C69.8301 25.0454 67.1992 25.762 65.2004 27.3223C64.908 27.5497 64.5463 27.0983 64.8421 26.8689Z" fill="#E8F5F7"/>
<path d="M79.9053 29.8779C82.2094 29.6963 85.0595 29.955 87.1025 31.1222C87.4247 31.3079 87.0767 31.7662 86.7564 31.5839C85.7955 31.0369 84.6475 30.8174 83.5691 30.6427C82.3965 30.4504 81.1823 30.3569 79.9951 30.4521C79.625 30.4796 79.5338 29.9107 79.9072 29.8812L79.9053 29.8779Z" fill="#E8F5F7"/>
<path d="M99.8553 33.0244C101.734 34.4886 104.028 35.1281 106.214 35.9753C106.561 36.1114 106.35 36.6474 106.003 36.5114C103.766 35.6443 101.427 34.9811 99.5073 33.4828C99.214 33.2541 99.5601 32.7924 99.8534 33.0211L99.8553 33.0244Z" fill="#E8F5F7"/>
<path d="M102.191 29.4426C103.406 30.2358 104.55 31.1224 105.667 32.0467C105.952 32.2844 105.608 32.7494 105.321 32.5084C104.208 31.5822 103.062 30.6922 101.845 29.9043C101.534 29.6991 101.882 29.2407 102.191 29.4426Z" fill="#E8F5F7"/>
<path d="M117.436 33.258C119.443 33.7187 121.579 34.368 123.119 35.7977C123.389 36.0482 123.045 36.5133 122.773 36.2594C121.309 34.9019 119.285 34.2693 117.374 33.8296C117.017 33.7476 117.072 33.1712 117.434 33.2546L117.436 33.258Z" fill="#E8F5F7"/>
<path d="M117.554 37.3367C118.61 38.0515 119.831 38.447 120.838 39.2474C121.128 39.4779 120.783 39.9429 120.492 39.7091C119.487 38.9121 118.264 38.5132 117.208 37.7984C116.9 37.5912 117.247 37.1295 117.554 37.3367Z" fill="#E8F5F7"/>
<path d="M130.61 36.8763C131.917 37.6665 133.322 38.2375 134.738 38.7975C135.085 38.9335 134.874 39.4695 134.526 39.3335C133.061 38.757 131.614 38.1571 130.264 37.338C129.947 37.1452 130.293 36.6835 130.61 36.8763Z" fill="#E8F5F7"/>
<path d="M128.438 32.922C130.094 33.8741 131.813 34.6968 133.589 35.3991C133.936 35.5351 133.724 36.0764 133.378 35.9351C131.554 35.211 129.79 34.3647 128.092 33.3837C127.77 33.1981 128.121 32.7378 128.438 32.922Z" fill="#E8F5F7"/>
<path d="M0.206014 66.5648C0.404112 66.2489 0.862455 66.5969 0.667716 66.9109C-0.613424 68.9563 -2.45076 70.5982 -3.49427 72.7973C-3.65512 73.1321 -4.19112 72.921 -4.03027 72.5863C-2.96356 70.3342 -1.10213 68.6565 0.206014 66.5648Z" fill="#E8F5F7"/>
<path d="M8.1211 53.8526C7.85332 55.3072 7.45525 56.6803 6.66812 57.9455C6.47002 58.2614 6.01168 57.9133 6.20642 57.5993C6.93764 56.4234 7.29893 55.142 7.54614 53.7921C7.61382 53.4259 8.18878 53.4863 8.1211 53.8526Z" fill="#E8F5F7"/>
<path d="M85.0083 22.4198C87.3473 22.245 89.5052 21.264 91.8087 20.901C92.1789 20.8424 92.2668 21.4132 91.8966 21.4719C89.5931 21.8349 87.4333 22.8125 85.0962 22.9906C84.7261 23.0182 84.6349 22.4492 85.0083 22.4198Z" fill="#E8F5F7"/>
<path d="M37.8602 29.6159C38.1451 29.375 38.5034 29.8284 38.2185 30.0692C36.459 31.543 34.2103 32.6064 33.1641 34.7538C33.0014 35.0852 32.4639 34.8794 32.6281 34.5428C33.7337 32.2731 36.0065 31.1739 37.8635 29.614L37.8602 29.6159Z" fill="#E8F5F7"/>
<path d="M49.0657 29.5185C50.4328 28.4795 51.9006 27.6184 53.5127 27.0125C53.8602 26.8825 54.0928 27.4114 53.7453 27.5414C52.1825 28.1327 50.758 28.9604 49.4274 29.97C49.133 30.1941 48.7714 29.7426 49.0691 29.5166L49.0657 29.5185Z" fill="#E8F5F7"/>
<path d="M103.229 23.2614C105.342 22.1773 107.883 22.7352 109.951 21.5566C110.277 21.3724 110.503 21.9051 110.184 22.0855C108.108 23.2679 105.576 22.7096 103.462 23.7903C103.128 23.9611 102.899 23.4303 103.229 23.2614Z" fill="#E8F5F7"/>
<path d="M119.31 27.6196C120.458 26.7264 121.771 26.1877 123.165 25.8158C123.917 25.6168 124.688 25.4824 125.457 25.3619C126.242 25.2371 127.284 25.4102 127.952 24.9614C128.261 24.7556 128.62 25.209 128.311 25.4148C127.824 25.7385 127.358 25.8073 126.781 25.8143C125.978 25.8207 125.181 25.9789 124.392 26.1281C122.695 26.4497 121.04 26.9956 119.666 28.0696C119.374 28.297 119.012 27.8455 119.308 27.6162L119.31 27.6196Z" fill="#E8F5F7"/>
<path d="M21.0264 39.2984C21.2841 39.033 21.639 39.4883 21.3847 39.7518C19.5588 41.6177 18.4869 44.0722 17.4145 46.4162C17.2589 46.7524 16.7196 46.5433 16.8785 46.2052C17.9958 43.7604 19.1235 41.2477 21.0283 39.3018L21.0264 39.2984Z" fill="#E8F5F7"/>
</g>
</g>
<defs>
<linearGradient id="paint0_linear_1965_8652" x1="135.278" y1="25.5328" x2="140.991" y2="22.4988" gradientUnits="userSpaceOnUse">
<stop stop-color="#F8E283"/>
<stop offset="1" stop-color="#FBB22C"/>
</linearGradient>
<linearGradient id="paint1_linear_1965_8652" x1="127.777" y1="44.265" x2="128.867" y2="53.198" gradientUnits="userSpaceOnUse">
<stop stop-color="#F8E283"/>
<stop offset="1" stop-color="#FBB22C"/>
</linearGradient>
<linearGradient id="paint2_linear_1965_8652" x1="120.124" y1="22.5308" x2="127.902" y2="24.0944" gradientUnits="userSpaceOnUse">
<stop stop-color="#F8E283"/>
<stop offset="1" stop-color="#FBB22C"/>
</linearGradient>
<linearGradient id="paint3_linear_1965_8652" x1="113.544" y1="41.8491" x2="116.988" y2="51.1216" gradientUnits="userSpaceOnUse">
<stop stop-color="#F8E283"/>
<stop offset="1" stop-color="#FBB22C"/>
</linearGradient>
<linearGradient id="paint4_linear_1965_8652" x1="143.138" y1="38.5765" x2="151.886" y2="34.9598" gradientUnits="userSpaceOnUse">
<stop stop-color="#F8E283"/>
<stop offset="1" stop-color="#FBB22C"/>
</linearGradient>
<linearGradient id="paint5_linear_1965_8652" x1="9.2214" y1="76.7476" x2="11.6015" y2="73.968" gradientUnits="userSpaceOnUse">
<stop stop-color="#F8E283"/>
<stop offset="1" stop-color="#FBB22C"/>
</linearGradient>
<linearGradient id="paint6_linear_1965_8652" x1="27.9599" y1="55.2868" x2="32.9732" y2="52.8736" gradientUnits="userSpaceOnUse">
<stop stop-color="#F8E283"/>
<stop offset="1" stop-color="#FBB22C"/>
</linearGradient>
<linearGradient id="paint7_linear_1965_8652" x1="42.0669" y1="45.9414" x2="49.7828" y2="45.8614" gradientUnits="userSpaceOnUse">
<stop stop-color="#F8E283"/>
<stop offset="1" stop-color="#FBB22C"/>
</linearGradient>
<linearGradient id="paint8_linear_1965_8652" x1="26.7089" y1="35.9129" x2="22.8804" y2="34.4101" gradientUnits="userSpaceOnUse">
<stop stop-color="#F8E283"/>
<stop offset="1" stop-color="#FBB22C"/>
</linearGradient>
<linearGradient id="paint9_linear_1965_8652" x1="9.83579" y1="45.2594" x2="8.8625" y2="44.8774" gradientUnits="userSpaceOnUse">
<stop stop-color="#F8E283"/>
<stop offset="1" stop-color="#FBB22C"/>
</linearGradient>
<linearGradient id="paint10_linear_1965_8652" x1="47.4922" y1="24.8261" x2="56.7186" y2="20.7922" gradientUnits="userSpaceOnUse">
<stop stop-color="#F8E283"/>
<stop offset="1" stop-color="#FBB22C"/>
</linearGradient>
<linearGradient id="paint11_linear_1965_8652" x1="63.8009" y1="25.5831" x2="59.3547" y2="23.8379" gradientUnits="userSpaceOnUse">
<stop stop-color="#F8E283"/>
<stop offset="1" stop-color="#FBB22C"/>
</linearGradient>
<linearGradient id="paint12_linear_1965_8652" x1="100.94" y1="24.1135" x2="96.1449" y2="20.4696" gradientUnits="userSpaceOnUse">
<stop stop-color="#F8E283"/>
<stop offset="1" stop-color="#FBB22C"/>
</linearGradient>
<linearGradient id="paint13_linear_1965_8652" x1="80.1008" y1="25.1774" x2="73.4224" y2="23.5764" gradientUnits="userSpaceOnUse">
<stop stop-color="#F8E283"/>
<stop offset="1" stop-color="#FBB22C"/>
</linearGradient>
<linearGradient id="paint14_linear_1965_8652" x1="96.6611" y1="38.5387" x2="104.703" y2="46.2812" gradientUnits="userSpaceOnUse">
<stop stop-color="#F8E283"/>
<stop offset="1" stop-color="#FBB22C"/>
</linearGradient>
<linearGradient id="paint15_linear_1965_8652" x1="77.7552" y1="41.4681" x2="68.3491" y2="37.7761" gradientUnits="userSpaceOnUse">
<stop stop-color="#F8E283"/>
<stop offset="1" stop-color="#FBB22C"/>
</linearGradient>
<linearGradient id="paint16_linear_1965_8652" x1="59.9036" y1="36.9135" x2="53.051" y2="34.2238" gradientUnits="userSpaceOnUse">
<stop stop-color="#F8E283"/>
<stop offset="1" stop-color="#FBB22C"/>
</linearGradient>
<clipPath id="clip0_1965_8652">
<rect width="378" height="83" fill="white" transform="translate(-1.5)"/>
</clipPath>
<clipPath id="clip1_1965_8652">
<rect width="159.959" height="67.7044" fill="white" transform="matrix(0.870448 -0.49226 -0.49226 -0.870448 6.82812 119.675)"/>
</clipPath>
</defs>
</svg>
