<svg width="190" height="138" viewBox="0 0 190 138" fill="none" xmlns="http://www.w3.org/2000/svg">
<g clip-path="url(#clip0_1226_5636)">
<path d="M132.975 48.9495C137.931 48.9495 141.949 44.9314 141.949 39.9747C141.949 35.0181 137.931 31 132.975 31C128.018 31 124 35.0181 124 39.9747C124 44.9314 128.018 48.9495 132.975 48.9495Z" fill="#FACF50"/>
<path d="M55.823 92.7647H47.2333L48.1219 40.4861H54.9344L55.823 92.7647Z" fill="#BAD5E0"/>
<path d="M51.5281 40.4861H48.1219L47.2333 92.7647H51.5281V40.4861Z" fill="#A5C7D3"/>
<path d="M55.3588 39.4893H47.6971V40.4864H55.3588V39.4893Z" fill="#BAD5E0"/>
<path d="M47.9731 49.3127H55.0819L55.0127 45.551H48.0423L47.9731 49.3127Z" fill="#86C552"/>
<path d="M47.8641 55.9773H55.1901L55.1308 52.2156H47.9234L47.8641 55.9773Z" fill="#86C552"/>
<path d="M56.535 92.7651H46.5236V94.256H56.535V92.7651Z" fill="#B7CBD8"/>
<path d="M67.9995 92.7647H59.4098L60.3082 40.4861H67.1109L67.9995 92.7647Z" fill="#BAD5E0"/>
<path d="M63.7046 40.4861H60.3082L59.4098 92.7647H63.7046V40.4861Z" fill="#A5C7D3"/>
<path d="M67.5329 39.4893H59.8713V40.4864H67.5329V39.4893Z" fill="#BAD5E0"/>
<path d="M60.1497 49.3127H67.2584L67.1991 45.551H60.2188L60.1497 49.3127Z" fill="#86C552"/>
<path d="M60.0383 55.9773H67.3741L67.305 52.2156H60.0976L60.0383 55.9773Z" fill="#86C552"/>
<path d="M68.7069 92.7651H58.6954V94.256H68.7069V92.7651Z" fill="#B7CBD8"/>
<path d="M94.5369 66.8674H52.2894V69.3654H94.5369V66.8674Z" fill="#BCDA7F"/>
<path d="M60.5209 67.7163H53.6393V69.3651H60.5209V67.7163Z" fill="#97CB63"/>
<path d="M68.7082 67.7163H61.8265V69.3651H68.7082V67.7163Z" fill="#97CB63"/>
<path d="M76.9047 67.7163H70.0231V69.3651H76.9047V67.7163Z" fill="#97CB63"/>
<path d="M85.0896 67.7163H78.208V69.3651H85.0896V67.7163Z" fill="#97CB63"/>
<path d="M93.2838 67.7163H86.4022V69.3651H93.2838V67.7163Z" fill="#97CB63"/>
<path d="M124.895 56.372C124.935 56.2831 124.974 56.2041 125.004 56.1153C125.024 56.2041 125.053 56.2831 125.073 56.372H179.445C179.257 53.5482 176.917 51.3268 174.044 51.3268C173.106 51.3268 172.227 51.5637 171.457 51.9883C170.499 48.4833 167.301 45.9064 163.49 45.9064C161.979 45.9064 160.577 46.3112 159.363 47.0221C157.753 42.1743 153.182 38.6792 147.801 38.6792C142.42 38.6792 138.155 41.9472 136.407 46.5284C135.4 46.094 134.285 45.8471 133.12 45.8471C132.201 45.8471 131.313 46.0051 130.483 46.2816C129.476 44.3267 127.442 42.9839 125.093 42.9839C124.115 42.9839 123.187 43.2209 122.368 43.6355C120.245 41.5029 117.303 40.1898 114.064 40.1898C109.365 40.1898 105.307 42.9642 103.441 46.9628C102.898 46.8443 102.335 46.7752 101.762 46.7752C98.1486 46.7752 95.1373 49.2731 94.3178 52.6399C93.7353 52.3832 93.0935 52.2351 92.4123 52.2351C89.9934 52.2351 88.0088 54.0419 87.7126 56.3819H124.905L124.895 56.372Z" fill="white"/>
<path d="M211.959 133.739C211.959 133.739 171.686 115.285 77.8315 112.62C74.8597 112.531 71.8286 112.462 68.7383 112.412C49.377 112.087 27.8731 112.432 4.12805 113.716L18.3257 165.975L162.8 164.306L211.959 133.739Z" fill="url(#paint0_linear_1226_5636)"/>
<mask id="mask0_1226_5636" style="mask-type:luminance" maskUnits="userSpaceOnUse" x="4" y="112" width="208" height="54">
<path d="M211.961 133.739C211.961 133.739 171.688 115.286 77.8334 112.62C74.8615 112.531 71.8305 112.462 68.7402 112.413C49.3788 112.087 27.8749 112.433 4.12988 113.716L18.3276 165.975L162.802 164.306L211.961 133.739Z" fill="white"/>
</mask>
<g mask="url(#mask0_1226_5636)">
<g style="mix-blend-mode:multiply" opacity="0.3">
<path d="M195.018 138.36C194.297 137.402 185.234 126.749 157.085 118.742L151.912 118.475C151.912 118.475 176.15 125.663 188.62 140.848L195.028 138.36H195.018Z" fill="#8CB248"/>
</g>
<g style="mix-blend-mode:multiply" opacity="0.3">
<path d="M84.9494 110.754C85.601 110.704 89.7083 113.479 92.0384 117.349C93.1442 119.185 94.092 121.881 93.4502 124.922L84.6532 123.776C84.6532 123.776 86.8253 115.512 81.0791 111.316L84.9494 110.763V110.754Z" fill="#8CB248"/>
</g>
<g style="mix-blend-mode:multiply" opacity="0.3">
<path d="M104.194 113.232C110.088 114.93 117.592 125.366 117.68 131.122L128.334 133.176C128.334 133.176 119.576 117.635 109.871 113.735L104.203 113.232H104.194Z" fill="#8CB248"/>
</g>
<g style="mix-blend-mode:multiply" opacity="0.3">
<path d="M115.097 113.637C119.392 114.634 132.651 125.88 136.67 135.634L145.684 138.616C145.684 138.616 137.608 122.434 120.517 114.052L115.107 113.637H115.097Z" fill="#8CB248"/>
</g>
<g style="mix-blend-mode:multiply" opacity="0.3">
<path d="M128.338 115.434C135.644 117.339 150.809 131.596 155.193 140.522H163.171C163.171 140.522 151.658 124.942 134.844 116.135L128.338 115.434Z" fill="#8CB248"/>
</g>
<g style="mix-blend-mode:multiply" opacity="0.3">
<path d="M139.522 116.836C145.327 118.741 162.546 129.75 168.144 138.952L174.651 137.649C174.651 137.649 160.236 121.634 144.024 116.826H139.522V116.836Z" fill="#8CB248"/>
</g>
<g style="mix-blend-mode:multiply" opacity="0.3">
<path d="M168.145 121.338C180.358 124.744 197.182 131.004 200.549 134.331L209.158 132.198C209.158 132.198 187.467 122.039 184.455 122.236C181.444 122.434 168.145 121.338 168.145 121.338Z" fill="#8CB248"/>
</g>
<g style="mix-blend-mode:multiply" opacity="0.3">
<path d="M76.5293 110.467C80.3502 116.549 76.1541 123.589 76.1541 123.589L70.0228 121.061C70.0228 121.061 73.1625 116.648 73.439 112.067C73.6957 107.92 76.5293 110.477 76.5293 110.477V110.467Z" fill="#8CB248"/>
</g>
<g style="mix-blend-mode:multiply" opacity="0.3">
<path d="M70.0327 110.941C66.0044 115.256 63.7731 120.173 63.7731 120.173L57.8788 119.334C57.8788 119.334 63.1906 112.067 65.0665 110.843C66.9424 109.628 70.0327 110.931 70.0327 110.931V110.941Z" fill="#8CB248"/>
</g>
<g style="mix-blend-mode:multiply" opacity="0.3">
<path d="M51.6308 118.583C55.1951 113.232 58.8876 110.705 58.8876 110.705L54.5237 110.408C54.5237 110.408 48.8466 113.459 44.6801 118.327C43.5151 119.689 51.6407 118.583 51.6407 118.583H51.6308Z" fill="#8CB248"/>
</g>
<g style="mix-blend-mode:multiply" opacity="0.3">
<path d="M23.1963 118.129C26.7605 112.778 35.0738 111.85 35.0738 111.85H28.2514C28.2514 111.85 21.3401 112.294 16.3739 116.925C15.0608 118.149 23.1963 118.139 23.1963 118.139V118.129Z" fill="#8CB248"/>
</g>
<g style="mix-blend-mode:multiply" opacity="0.3">
<path d="M46.211 111.948C42.864 112.629 36.5056 118.405 36.5056 118.405L30.3645 117.783C30.3645 117.783 37.335 112.511 40.6326 111.583C42.4493 111.069 46.211 111.958 46.211 111.958V111.948Z" fill="#8CB248"/>
</g>
<g style="mix-blend-mode:multiply" opacity="0.3">
<path d="M92.692 112.294C97.441 114.525 101.292 119.462 101.538 126.62L110.01 128.476C110.01 128.476 108.045 117.29 97.9248 113.074L92.692 112.304V112.294Z" fill="#8CB248"/>
</g>
</g>
<path d="M37.669 51.9688H30.2739V67.9041H37.669V51.9688Z" fill="#B8D2DE"/>
<path d="M40.2432 51.9688H34.3884V67.9041H40.2432V51.9688Z" fill="#D2E8F2"/>
<path d="M70.6136 65.9392H22.0078V120.992H70.6136V65.9392Z" fill="#B8D2DE"/>
<path d="M152.762 65.9392H97.7086V120.992H152.762V65.9392Z" fill="#D2E8F2"/>
<path d="M139.153 92.0242H114.204V120.992H139.153V92.0242Z" fill="#378A46"/>
<path d="M83.9439 54.368L97.7071 65.9394H155.495L139.816 51.8997H81.4756L83.9439 54.368Z" fill="#90B83E"/>
<path d="M89.3149 53.7859L100.699 63.5307L103.157 63.5604L91.7734 53.8155L89.3149 53.7859Z" fill="#378A46"/>
<path d="M95.7395 53.855L107.123 63.5998L109.592 63.6295L98.1979 53.8846L95.7395 53.855Z" fill="#378A46"/>
<path d="M102.169 53.9238L113.553 63.6786L116.021 63.6983L104.627 53.9535L102.169 53.9238Z" fill="#378A46"/>
<path d="M108.596 54.0027L119.979 63.7475L122.448 63.7772L111.054 54.0224L108.596 54.0027Z" fill="#378A46"/>
<path d="M115.036 54.0718L126.42 63.8166L128.879 63.8463L117.485 54.1014L115.036 54.0718Z" fill="#378A46"/>
<path d="M121.461 54.1406L132.845 63.8855L135.303 63.9151L123.91 54.1702L121.461 54.1406Z" fill="#378A46"/>
<path d="M127.89 54.2102L139.274 63.9649L141.732 63.9847L130.339 54.2398L127.89 54.2102Z" fill="#378A46"/>
<path d="M134.315 54.2891L145.699 64.0339L148.157 64.0635L136.763 54.3088L134.315 54.2891Z" fill="#378A46"/>
<path d="M70.5645 67.6375H67.1978L94.3886 65.89H97.706L81.4448 51.8997L67.1978 67.6375H70.5645Z" fill="#004D6B"/>
<path d="M138.897 92.0242H114.204V93.8902H138.897V92.0242Z" fill="#195F30"/>
<path d="M139.037 120.992V92.0242H135.295V120.992H139.037Z" fill="#195F30"/>
<path d="M89.3149 120.992V98.116H87.8438V120.992H89.3149Z" fill="#195F30"/>
<path d="M111.233 74.9434H103.157V83.0196H111.233V74.9434Z" fill="#386E89"/>
<path d="M120.601 74.9434H112.525V83.0196H120.601V74.9434Z" fill="#386E89"/>
<path d="M129.973 74.9434H121.897V83.0196H129.973V74.9434Z" fill="#386E89"/>
<path d="M139.341 74.9434H131.265V83.0196H139.341V74.9434Z" fill="#386E89"/>
<path d="M148.713 74.9434H140.637V83.0196H148.713V74.9434Z" fill="#386E89"/>
<path d="M70.6142 70.5894H34.8732V120.982H70.6142V70.5894Z" fill="#D2E8F2"/>
<path d="M46.7306 78.8335H39.3356V94.7689H46.7306V78.8335Z" fill="#386E89"/>
<path d="M55.3121 78.8335H47.9171V94.7689H55.3121V78.8335Z" fill="#386E89"/>
<path d="M63.8891 78.8335H56.494V94.7689H63.8891V78.8335Z" fill="#386E89"/>
<path d="M72.4303 65.9292H22.0078V67.7952H72.4303V65.9292Z" fill="#195F30"/>
<path d="M70.6141 120.992V67.6967L83.943 54.3679L97.7062 65.9393V120.992H70.6141Z" fill="#B8D2DE"/>
<path d="M89.314 98.116H79.5297V120.992H89.314V98.116Z" fill="#378A46"/>
<path d="M84.929 74.9736H77.8597V88.3913H84.929V74.9736Z" fill="#386E89"/>
<path d="M90.9821 74.9736H85.9171V88.3913H90.9821V74.9736Z" fill="#386E89"/>
<path d="M89.2646 98.116H79.5297V98.8861H89.2646V98.116Z" fill="#195F30"/>
<path d="M-13.2969 111.701C-13.2969 111.701 111.066 113.133 166.879 141.153C166.879 141.153 82.7102 165.491 81.6241 165.293C80.5381 165.096 -13.4548 165.372 -13.4548 165.372L-13.2969 111.701Z" fill="url(#paint1_linear_1226_5636)"/>
<g style="mix-blend-mode:multiply" opacity="0.3">
<path d="M-12.7054 146.633L-12.9028 135.121C12.6984 130.599 40.3829 129.572 63.9305 129.049C106.691 128.091 140.201 131.221 153.747 135.486C158.437 137.244 162.83 139.139 166.878 141.163C166.878 141.163 166.869 141.647 166.839 142.467C165.368 142.18 160.757 139.07 159.197 138.754C123.239 131.596 92.6812 132.021 65.6681 134.074C27.4292 136.977 -1.80535 143.711 -12.7054 146.633Z" fill="#87AF3F"/>
</g>
<g style="mix-blend-mode:multiply" opacity="0.3">
<path d="M-13.4471 165.382L-13.5754 155.627C35.3364 142.111 72.5091 139.771 108.773 137.984C136.389 136.621 154.94 139.87 154.94 139.87C154.94 139.87 111.173 156.98 81.6319 165.303C35.2476 165.323 -13.4471 165.382 -13.4471 165.382Z" fill="#87AF3F"/>
</g>
<g style="mix-blend-mode:multiply" opacity="0.3">
<path d="M128.423 128.209C128.423 128.209 55.0653 117.734 -13.0499 127.202L-13.1487 121.426C9.74729 119.392 67.8412 117.556 121.729 126.165C125.461 127.015 129.144 127.913 132.728 128.871L128.413 128.209H128.423Z" fill="#87AF3F"/>
</g>
<g style="mix-blend-mode:multiply" opacity="0.3">
<path d="M96.748 121.298C64.7292 117.221 12.5098 114.703 -13.7332 115.967L-13.2987 111.701C-13.2987 111.701 42.9489 112.353 96.7579 121.298C96.7579 121.298 96.7579 121.298 96.7382 121.298H96.748Z" fill="#87AF3F"/>
</g>
</g>
<defs>
<linearGradient id="paint0_linear_1226_5636" x1="107.955" y1="114.555" x2="108.241" y2="143.562" gradientUnits="userSpaceOnUse">
<stop offset="0.03" stop-color="#AABE4F"/>
<stop offset="0.87" stop-color="#86AF42"/>
</linearGradient>
<linearGradient id="paint1_linear_1226_5636" x1="82.878" y1="109.253" x2="60.9694" y2="171.187" gradientUnits="userSpaceOnUse">
<stop offset="0.03" stop-color="#B1C342"/>
<stop offset="0.73" stop-color="#7AAE42"/>
<stop offset="1" stop-color="#6B9D41"/>
</linearGradient>
<clipPath id="clip0_1226_5636">
<rect width="190" height="138" fill="white"/>
</clipPath>
</defs>
</svg>
