<svg width="190" height="138" viewBox="0 0 190 138" fill="none" xmlns="http://www.w3.org/2000/svg">
<g clip-path="url(#clip0_1226_1210)">
<path d="M72.1514 76.8985C72.3383 76.4442 71.4627 75.6533 70.1957 75.1318C68.9286 74.6103 67.7499 74.5558 67.563 75.0101C67.376 75.4643 68.2516 76.2553 69.5187 76.7767C70.7858 77.2982 71.9645 77.3527 72.1514 76.8985Z" fill="#F5C14E"/>
<path d="M70.2737 76.136C69.911 75.9838 69.6535 75.7966 69.6886 75.7147C69.7237 75.6328 70.0514 75.6796 70.4025 75.8317C70.7652 75.9839 71.0227 76.1711 70.9876 76.253C70.9525 76.3349 70.6248 76.2881 70.2737 76.136Z" fill="#F5C14E"/>
<path d="M71.2568 76.4873C71.2568 76.4873 71.1749 76.417 71.1866 76.3819C71.1983 76.3468 71.2568 76.3234 71.3153 76.3468C71.3621 76.3702 71.3972 76.417 71.3855 76.4522C71.3738 76.4873 71.3153 76.5107 71.2568 76.4873Z" fill="#F5C14E"/>
<path d="M87.1357 80.7633C87.5545 80.1415 86.4816 78.6862 84.7394 77.5128C82.9972 76.3395 81.2453 75.8924 80.8265 76.5142C80.4077 77.136 81.4806 78.5913 83.2228 79.7647C84.965 80.9381 86.7169 81.3852 87.1357 80.7633Z" fill="#F5C14E"/>
<path d="M84.5739 79.0264C84.0707 78.687 83.743 78.3242 83.8249 78.2072C83.9068 78.0902 84.3749 78.2657 84.8664 78.5934C85.3696 78.9328 85.6973 79.2955 85.6154 79.4126C85.5335 79.5296 85.0654 79.3541 84.5739 79.0264Z" fill="#F5C14E"/>
<path d="M85.9432 79.8459C85.873 79.7991 85.8379 79.7171 85.873 79.6586C85.9081 79.6001 86.0018 79.6001 86.072 79.6586C86.1422 79.7054 86.1773 79.7874 86.1422 79.8459C86.1071 79.9044 86.0135 79.9044 85.9432 79.8459Z" fill="#F5C14E"/>
<path d="M75.0303 74.7964C75.2173 74.3422 74.3416 73.5512 73.0746 73.0298C71.8075 72.5083 70.6288 72.4538 70.4419 72.908C70.2549 73.3622 71.1305 74.1532 72.3976 74.6747C73.6647 75.1961 74.8434 75.2506 75.0303 74.7964Z" fill="#F5C14E"/>
<path d="M73.1527 74.0295C72.7899 73.8774 72.5324 73.6902 72.5675 73.6082C72.6026 73.5263 72.9303 73.5731 73.2814 73.7253C73.6442 73.8774 73.9016 74.0646 73.8665 74.1466C73.8314 74.2285 73.5037 74.1817 73.1527 74.0295Z" fill="#F5C14E"/>
<path d="M74.1357 74.3808C74.1357 74.3808 74.0538 74.3106 74.0655 74.2755C74.0772 74.2404 74.1357 74.217 74.1942 74.2404C74.241 74.2638 74.2761 74.3106 74.2644 74.3457C74.2527 74.3808 74.1942 74.4042 74.1357 74.3808Z" fill="#F5C14E"/>
<path d="M89.6593 87.9943C90.0781 87.3725 89.0053 85.9172 87.2631 84.7438C85.5209 83.5704 83.769 83.1233 83.3502 83.7452C82.9314 84.367 84.0043 85.8223 85.7465 86.9957C87.4887 88.169 89.2405 88.6161 89.6593 87.9943Z" fill="#F5C14E"/>
<path d="M87.0894 86.2468C86.5862 85.9075 86.2585 85.5447 86.3404 85.4277C86.4223 85.3107 86.8904 85.4862 87.3819 85.8139C87.8851 86.1532 88.2128 86.516 88.1309 86.633C88.049 86.7501 87.5809 86.5745 87.0894 86.2468Z" fill="#F5C14E"/>
<path d="M88.4589 87.0778C88.3886 87.031 88.3535 86.9491 88.3887 86.8906C88.4238 86.8321 88.5174 86.8321 88.5876 86.8906C88.6578 86.9374 88.6929 87.0193 88.6578 87.0778C88.6227 87.1363 88.5291 87.1363 88.4589 87.0778Z" fill="#F5C14E"/>
<path d="M83.1786 90.0768C83.5974 89.455 82.5246 87.9997 80.7824 86.8263C79.0402 85.6529 77.2883 85.2058 76.8695 85.8277C76.4507 86.4495 77.5235 87.9048 79.2658 89.0782C81.008 90.2516 82.7598 90.6987 83.1786 90.0768Z" fill="#F5C14E"/>
<path d="M80.6071 88.3301C80.1039 87.9907 79.7762 87.628 79.8581 87.5109C79.94 87.3939 80.4081 87.5694 80.8996 87.8971C81.4028 88.2365 81.7305 88.5993 81.6486 88.7163C81.5667 88.8333 81.0986 88.6578 80.6071 88.3301Z" fill="#F5C14E"/>
<path d="M81.9745 89.1608C81.9043 89.114 81.8692 89.0321 81.9043 88.9736C81.9394 88.9151 82.033 88.9151 82.1032 88.9736C82.1734 89.0204 82.2085 89.1023 82.1734 89.1608C82.1383 89.2193 82.0447 89.2193 81.9745 89.1608Z" fill="#F5C14E"/>
<path d="M75.7493 81.9467C76.0008 81.4583 75.0961 80.4915 73.7286 79.7872C72.3611 79.0828 71.0487 78.9078 70.7971 79.3962C70.5456 79.8846 71.4502 80.8515 72.8177 81.5558C74.1852 82.2601 75.4977 82.4351 75.7493 81.9467Z" fill="#F5C14E"/>
<path d="M73.7365 80.899C73.3504 80.7001 73.0695 80.4543 73.1163 80.3607C73.1631 80.2671 73.5259 80.3607 73.9121 80.5597C74.2982 80.7586 74.5791 81.0044 74.5323 81.098C74.4855 81.1916 74.1227 81.098 73.7365 80.899Z" fill="#F5C14E"/>
<path d="M74.8009 81.3903C74.8009 81.3903 74.719 81.3084 74.7424 81.2616C74.7658 81.2148 74.8243 81.2031 74.8828 81.2382C74.9413 81.2733 74.9647 81.3201 74.9413 81.3669C74.9179 81.4137 74.8594 81.4254 74.8009 81.3903Z" fill="#F5C14E"/>
<path d="M81.9535 81.3164C82.2731 80.6958 81.1209 79.4659 79.3799 78.5692C77.6389 77.6726 75.9685 77.4487 75.6489 78.0693C75.3293 78.6898 76.4815 79.9198 78.2225 80.8164C79.9635 81.7131 81.6339 81.9369 81.9535 81.3164Z" fill="#F5C14E"/>
<path d="M79.3769 79.9861C78.8737 79.7287 78.5226 79.4244 78.5928 79.3074C78.6513 79.1904 79.1077 79.3074 79.6109 79.5532C80.1141 79.8106 80.4652 80.1149 80.395 80.2319C80.3365 80.3489 79.8801 80.2319 79.3769 79.9861Z" fill="#F5C14E"/>
<path d="M80.7472 80.6064C80.677 80.5713 80.6419 80.4894 80.6653 80.4425C80.6887 80.384 80.7706 80.3723 80.8525 80.4074C80.9228 80.4426 80.9579 80.5245 80.9345 80.5713C80.9111 80.6298 80.8291 80.6415 80.7472 80.6064Z" fill="#F5C14E"/>
<path d="M51.8074 44.1063C51.8074 44.1063 51.8074 44.0829 51.784 44.036C51.7723 43.9892 51.7489 43.9073 51.7255 43.8137C51.6787 43.6148 51.6085 43.3222 51.5148 42.9594C51.4212 42.5966 51.3159 42.152 51.1872 41.6487C51.0584 41.1455 50.9414 40.5955 50.7893 39.9987C50.6372 39.4019 50.485 38.77 50.3212 38.1029C50.1574 37.4476 49.9818 36.7688 49.8297 36.0784C49.6776 35.3879 49.5254 34.6858 49.385 33.9954C49.2446 33.3049 49.1158 32.6262 49.0105 31.9591C48.9169 31.3038 48.7765 30.6251 48.5775 29.9346C48.3786 29.2442 48.1445 28.542 47.8637 27.8516C47.7935 27.676 47.7233 27.5005 47.653 27.325C47.5828 27.1494 47.5126 26.9739 47.4424 26.7984C47.2903 26.4473 47.1381 26.0962 46.9743 25.7568C46.6466 25.0664 46.3073 24.376 45.9445 23.7089C45.5817 23.0419 45.2423 22.3748 44.8913 21.7429C44.5519 21.111 44.2125 20.4907 43.8966 19.9056C43.7444 19.6131 43.5923 19.3322 43.4636 19.0513C43.3348 18.7705 43.2061 18.5013 43.1008 18.2439C43.0423 18.1151 42.9955 17.9864 42.9604 17.8694C42.9136 17.7407 42.8784 17.6236 42.8433 17.5183C42.8082 17.4013 42.7848 17.296 42.7614 17.2024C42.7614 17.1555 42.7614 17.1087 42.7497 17.0736C42.7497 17.0502 42.7497 17.0385 42.7497 17.0268C42.7497 17.0268 42.7497 17.0151 42.7497 17.0034C42.7497 17.0034 42.7497 17.0034 42.7731 17.0151C42.7731 17.0151 42.7848 17.0268 42.7965 17.0385C42.7965 17.0385 42.7731 17.0385 42.7497 17.0151C42.7497 17.0151 42.738 17.0151 42.7263 17.0034C42.7263 17.0034 42.7146 17.0034 42.7029 17.0034C42.7029 17.0034 42.6912 17.0034 42.6795 17.0151C42.6327 17.0268 42.6093 17.0853 42.5625 17.1673C42.504 17.3428 42.4455 17.6236 42.4455 18.0098C42.4338 18.396 42.4689 18.8875 42.5391 19.4492C42.621 20.0109 42.738 20.6312 42.8901 21.3099C43.0423 21.977 43.2178 22.7025 43.4168 23.4281C43.5104 23.7908 43.6274 24.1536 43.7327 24.5047C43.838 24.8675 43.9551 25.2185 44.0604 25.5696C44.1774 25.9207 44.2827 26.26 44.3881 26.5877C44.4934 26.9154 44.6104 27.2196 44.7157 27.5122C44.821 27.8048 44.9147 28.0739 45.02 28.3197C45.1253 28.5654 45.2189 28.7761 45.3243 28.9633C45.4647 29.2676 45.6285 29.6069 45.8158 30.0165C46.0147 30.4144 46.2253 30.8708 46.4711 31.3857C46.5881 31.6432 46.7168 31.9123 46.8456 32.1932C46.9743 32.474 47.1264 32.7783 47.2669 33.0943C47.4073 33.4102 47.5594 33.7379 47.6998 34.089C47.852 34.44 48.0041 34.8028 48.1562 35.1773C48.7648 36.6986 49.4552 38.4891 50.0871 40.5955C50.3914 41.6487 50.7308 42.7839 51.0116 44.0009C51.3042 45.218 51.5617 46.5287 51.8074 47.9213C51.8074 46.6223 51.8308 45.3584 51.8074 44.1297V44.1063Z" fill="#8FC03E"/>
<path d="M52.5554 29.654C52.5554 29.4668 52.532 29.2678 52.5203 29.0806C52.4969 28.8583 52.4618 28.6359 52.4033 28.4136C52.3565 28.2497 52.2863 28.0976 52.2161 27.9455C52.0639 27.6178 51.9001 27.3018 51.6895 27.0093C51.5958 26.8805 51.4905 26.7635 51.3852 26.6465C51.3384 26.5997 51.3033 26.5295 51.2565 26.4944C51.1863 26.471 51.1629 26.5412 51.1629 26.5997C51.1629 26.8103 51.1863 26.8688 51.1629 27.1029C51.1512 27.3603 51.0926 27.6763 51.0458 27.8636C50.999 28.0859 50.8703 28.5306 50.8118 28.8349C50.7299 29.303 50.7416 29.771 50.7884 30.2391C50.8235 30.5785 50.8937 30.9179 50.9873 31.2339C51.0575 31.4211 51.1395 31.6083 51.2214 31.7956C51.3618 32.1232 51.4554 32.4392 51.5256 32.6498C51.5373 32.685 51.549 32.7318 51.5958 32.7552C51.6427 32.7669 51.6895 32.7435 51.6895 32.6967C51.7129 32.6967 51.7246 32.685 51.7246 32.6615C51.7714 32.1817 51.9703 31.7137 52.1693 31.2456C52.2395 31.0817 52.2863 30.9296 52.3448 30.7658C52.3916 30.6253 52.4384 30.4849 52.4735 30.3445C52.5203 30.1104 52.532 29.8764 52.5437 29.6423L52.5554 29.654Z" fill="#FACF50"/>
<path d="M56.1841 28.4489C56.1841 28.4489 56.1841 28.4372 56.1841 28.3435C56.1841 28.3084 56.1841 28.2733 56.149 28.2382C56.1256 28.1914 56.0554 28.1797 56.0086 28.2031C55.915 28.2616 55.9267 28.2616 55.8331 28.3084C55.5873 28.4372 55.3416 28.5425 55.0958 28.6595C54.8032 28.7999 54.499 28.917 54.2181 29.0808C53.8085 29.3148 53.4341 29.6074 53.1532 29.9819C52.8489 30.3681 52.6149 30.8128 52.3925 31.2574C52.2638 31.5266 52.1468 31.7958 52.0415 32.0766C51.983 32.2053 51.9361 32.3341 51.8893 32.4628C51.8659 32.533 51.8542 32.5915 51.8425 32.6617C51.8425 32.6617 51.8425 32.6734 51.8425 32.6851C51.8191 32.7202 51.7957 32.7554 51.7723 32.8022C51.7723 32.8139 51.7606 32.8256 51.7606 32.8373C51.7489 32.8607 51.7489 32.8841 51.7606 32.9075C51.784 32.9543 51.8542 32.9426 51.8776 32.9075C51.8776 32.9075 51.8776 32.9075 51.8893 32.8958C51.983 32.8139 51.9947 32.8022 52.1 32.7085C52.2638 32.5915 52.4862 32.4745 52.7085 32.4277C52.884 32.3809 53.0596 32.3224 53.2234 32.2639C53.4341 32.1936 53.633 32.1234 53.8319 32.0298C54.1245 31.9011 54.3937 31.7138 54.6394 31.5032C54.8852 31.2808 55.0841 31.0234 55.2713 30.7542C55.5171 30.4149 55.7043 30.0404 55.8565 29.6425C55.9969 29.2914 56.1256 28.9287 56.1841 28.5542C56.1841 28.5191 56.1841 28.484 56.1841 28.4372V28.4489Z" fill="#FACF50"/>
<path d="M53.6563 25.8742C53.6446 25.7455 53.6329 25.605 53.6095 25.4763C53.5861 25.3359 53.5276 25.1955 53.4925 25.0667C53.4339 24.8912 53.352 24.6922 53.235 24.4699C53.1297 24.271 52.9892 24.0954 52.8722 23.9199C52.7552 23.7326 52.6265 23.5571 52.4743 23.3816C52.4275 23.3348 52.3924 23.288 52.3456 23.2411C52.3456 23.2411 52.3456 23.2411 52.3573 23.2528C52.3339 23.2294 52.3105 23.1943 52.2754 23.1943C52.1935 23.1943 52.1818 23.288 52.1935 23.3465C52.1935 23.4167 52.1935 23.4752 52.1935 23.5454C52.1584 23.8731 52.1116 24.0369 52.0531 24.2944C51.9711 24.6103 51.9009 24.9263 51.8775 25.254C51.8658 25.4412 51.8775 25.6401 51.9009 25.8274C51.936 26.1785 52.0296 26.5295 52.1233 26.8689C52.1935 27.1381 52.2637 27.4072 52.3456 27.6764C52.4275 27.9455 52.486 28.1094 52.568 28.3668C52.6265 28.5658 52.685 28.753 52.7201 28.9519C52.7669 29.1626 52.802 29.3732 52.8488 29.5839C52.8488 29.5956 52.8488 29.6073 52.8722 29.619C52.8839 29.6658 52.9775 29.6775 53.0009 29.619C53.0712 29.3849 53.1999 29.1626 53.2818 28.9285C53.469 28.4136 53.5978 27.8753 53.668 27.3253C53.7382 26.8338 53.7499 26.3423 53.6914 25.8508L53.6563 25.8742Z" fill="#FACF50"/>
<path d="M57.0957 24.8795C57.0957 24.8795 57.0957 24.7859 57.0723 24.7391C57.0489 24.6923 56.9904 24.6689 56.9319 24.6923C56.85 24.7625 56.7681 24.8327 56.6745 24.8795C56.534 24.9731 56.2649 25.1253 56.0542 25.254C55.7617 25.4412 55.4574 25.6051 55.1765 25.8157C54.7787 26.1317 54.451 26.5296 54.1935 26.9626C54.0765 27.1615 53.9829 27.3604 53.8893 27.5594C53.7606 27.7934 53.5616 28.203 53.4329 28.5307C53.3042 28.8232 53.1871 29.1275 53.1169 29.4435C53.0935 29.4786 53.0818 29.5137 53.0584 29.5488C53.035 29.5956 53.0233 29.6424 53.0116 29.6892C53.0116 29.6892 53.0116 29.7009 53.0116 29.7126C53.0116 29.7594 53.0701 29.7594 53.0935 29.7243C53.1754 29.6307 53.2339 29.5137 53.3159 29.4318C53.3393 29.4084 53.468 29.2796 53.5382 29.2094C53.6201 29.1392 53.7137 29.0807 53.8074 29.0222C54.0882 28.8467 54.5212 28.6126 54.8606 28.3903C55.1297 28.203 55.3638 27.9807 55.5861 27.7583C55.8202 27.5243 56.0308 27.2668 56.2181 26.9977C56.3819 26.7636 56.534 26.5062 56.6628 26.2487C56.7798 26.003 56.8968 25.7572 56.967 25.4998C57.0255 25.3008 57.0723 25.0902 57.0723 24.8912L57.0957 24.8795Z" fill="#FACF50"/>
<path d="M54.825 23.5804C54.825 23.3347 54.825 23.0889 54.7899 22.8315C54.7665 22.5389 54.7079 22.2346 54.5675 21.9772C54.5207 21.8836 54.4505 21.7899 54.3803 21.708C54.3101 21.6144 54.2515 21.5325 54.1813 21.4506C53.9473 21.1814 53.6898 20.9357 53.4441 20.6899C53.2217 20.4676 53.0345 20.3388 52.8356 20.0697C52.8004 20.0112 52.7068 20.0229 52.6834 20.0931C52.6717 20.1282 52.6834 20.175 52.6834 20.2101C52.6834 20.2686 52.6834 20.3271 52.6951 20.3857C52.6951 20.5027 52.7068 20.7367 52.6951 20.924C52.6834 21.1931 52.6483 21.4506 52.6483 21.7197C52.6483 21.8836 52.6483 22.0474 52.6717 22.2112C52.6834 22.34 52.7185 22.4687 52.7419 22.6091C52.8707 23.1123 53.1281 23.5804 53.3739 24.0485C53.5143 24.3177 53.6547 24.5985 53.7835 24.8794C53.8771 25.0666 53.959 25.2773 54.0058 25.4294C54.0526 25.6049 54.076 25.7805 54.1228 25.956C54.1228 25.9677 54.1228 25.9794 54.1462 25.9911C54.1228 26.073 54.0994 26.155 54.076 26.2369C54.0526 26.3188 54.1579 26.3656 54.193 26.2837C54.2867 25.9209 54.4622 25.5464 54.5558 25.1485C54.6728 24.6336 54.8367 24.107 54.825 23.5687V23.5804Z" fill="#FACF50"/>
<path d="M57.178 19.2622C57.1897 18.9579 57.1545 18.6536 57.0843 18.3494C57.0375 18.1504 56.9673 17.9515 56.8971 17.7525C56.8386 17.577 56.7684 17.4015 56.6982 17.2376C56.5811 16.9451 56.4641 16.6525 56.3003 16.3951C56.2301 16.2897 56.0896 16.1025 55.9726 16.2429C55.9375 16.3131 55.879 16.4185 55.8088 16.5355C55.6098 16.8515 55.4226 17.1674 55.2353 17.4951C54.8609 18.127 54.4981 18.8058 54.4279 19.5547C54.3928 19.9058 54.4513 20.2569 54.58 20.5845C54.6502 20.7718 54.7555 20.9473 54.8492 21.1345C54.9311 21.2984 55.0013 21.4856 55.0364 21.6026C55.0715 21.7197 55.13 21.8835 55.1417 22.059C55.1534 22.2229 55.1534 22.4569 55.1066 22.6676C55.1066 22.7027 55.0832 22.7495 55.1066 22.7846C55.13 22.8197 55.2002 22.808 55.2119 22.7612C55.2119 22.7378 55.2236 22.7144 55.2236 22.691C55.2471 22.7144 55.2939 22.7261 55.3173 22.7027C55.3173 22.7027 55.329 22.691 55.3407 22.6793L55.3641 22.6442C55.4343 22.5271 55.5747 22.3048 55.7151 22.1058C55.8556 21.9186 55.9609 21.8133 56.0779 21.6729C56.3471 21.3686 56.5928 21.0526 56.7918 20.6899C56.9205 20.4558 57.0492 20.1984 57.1194 19.9409C57.178 19.7303 57.2014 19.4962 57.2014 19.2739L57.178 19.2622Z" fill="#FACF50"/>
<path d="M58.1602 20.8653C58.1017 20.9472 58.0197 21.0174 57.9027 21.1111C57.5751 21.3568 57.3059 21.5441 57.0016 21.7313C56.674 21.9185 56.358 22.1175 56.0771 22.3749C55.7846 22.6207 55.5271 22.9249 55.3633 23.2643C55.1995 23.5686 55.0707 23.8845 54.9537 24.2005C54.8601 24.458 54.7899 24.7154 54.708 24.9729C54.626 25.2771 54.509 25.5697 54.4388 25.874C54.4154 25.9325 54.4739 25.9676 54.5207 25.9559C54.5441 25.9793 54.5792 25.991 54.6143 25.9559C54.6611 25.9208 54.7197 25.8506 54.8016 25.7803C54.7665 25.8154 54.8484 25.7452 54.8484 25.7335C54.8601 25.7218 54.8718 25.7101 54.8835 25.6984C54.9186 25.675 54.942 25.6399 54.9771 25.6165C55.0941 25.5112 55.2112 25.4293 55.2931 25.3825C55.5388 25.2303 55.808 25.1133 56.0654 24.9729C56.3931 24.7739 56.7208 24.575 56.9899 24.3058C57.107 24.1771 57.2357 24.0601 57.341 23.9196C57.4814 23.7324 57.6102 23.5218 57.7038 23.2994C57.8325 23.042 57.9495 22.7962 58.0314 22.5271C58.1134 22.2696 58.1719 22.0122 58.2304 21.7547C58.2889 21.4972 58.3591 21.2398 58.3825 20.9823C58.3942 20.8536 58.2538 20.7834 58.1719 20.9004L58.1602 20.8653Z" fill="#FACF50"/>
<path d="M54.0993 24.5516C54.0642 24.2824 54.0525 24.0132 53.9939 23.7558C53.8886 23.2292 53.7131 22.7143 53.5258 22.1994C53.4439 21.9536 53.362 21.6728 53.2567 21.4036C53.2099 21.2632 53.1397 21.1344 53.0812 20.994C53.0109 20.8068 52.9407 20.6195 52.8705 20.4323C52.8237 20.3036 52.7769 20.1397 52.7418 19.9642C52.7184 19.7653 52.7184 19.6365 52.7184 19.4259C52.7184 19.0397 52.7769 18.6652 52.8354 18.2908C52.8588 18.1386 52.8822 17.9865 52.9173 17.8344C52.9173 17.8227 52.9173 17.811 52.9173 17.7875C52.9173 17.7875 52.9173 17.7641 52.9173 17.7524C52.9173 17.7524 52.8939 17.7524 52.8822 17.7524C52.8705 17.7524 52.8705 17.7758 52.8588 17.7875C52.8588 17.8227 52.8354 17.8695 52.8237 17.9046C52.8003 18.0216 52.7652 18.1503 52.7418 18.2322C52.6833 18.4897 52.6482 18.7589 52.6131 19.028C52.5896 19.3089 52.5662 19.5897 52.5897 19.8823C52.6131 20.1514 52.7067 20.4089 52.7886 20.6663C52.8822 20.9472 53.0109 21.2164 53.1163 21.4972C53.2216 21.8015 53.3152 22.1175 53.4439 22.4568C53.6195 22.9366 53.7716 23.3696 53.8769 23.8845C53.912 24.0601 53.9354 24.2473 53.9588 24.4228C53.9588 24.4696 53.9705 24.5282 53.9822 24.575C53.9822 24.575 53.9822 24.5867 53.9939 24.5984C54.0173 24.6101 54.0525 24.5984 54.0408 24.5633L54.0993 24.5516Z" fill="#FACF50"/>
<path d="M59.0745 19.0166C59.0745 19.0166 59.0511 19.0166 59.0511 19.04C59.0277 19.0868 59.0043 19.1219 58.9809 19.1687C58.899 19.3326 58.8405 19.4379 58.7702 19.59C58.466 20.2571 58.2319 20.7837 57.8458 21.3688C57.6351 21.6965 57.3894 21.989 57.1436 22.2465C56.8627 22.539 56.5585 22.8316 56.301 23.1476C56.0319 23.4752 55.7978 23.838 55.5755 24.1891C55.4351 24.3997 55.318 24.6221 55.2127 24.8561C55.201 24.8912 55.1776 24.9146 55.1659 24.9497C55.1659 24.9497 55.1659 24.9614 55.1659 24.9731C55.1659 24.9965 55.2127 24.9965 55.2127 24.9731C55.3765 24.6221 55.5872 24.2827 55.8212 23.9667C56.0202 23.6859 56.2191 23.405 56.4532 23.1476C56.7925 22.7614 57.2723 22.3401 57.6351 21.9071C57.9511 21.5326 58.1968 21.0996 58.4192 20.6666C58.5947 20.3156 58.7468 19.9528 58.899 19.59C58.9692 19.4379 59.0277 19.2741 59.0862 19.1102C59.0862 19.0868 59.1096 19.0751 59.1096 19.0517C59.1096 19.0517 59.1096 19.0283 59.0862 19.0283L59.0745 19.0166Z" fill="#FACF50"/>
<path d="M56.323 15.0491C56.323 15.0491 56.323 15.0257 56.323 15.014C56.323 15.0023 56.2995 14.9906 56.2878 15.014C56.2761 15.0257 56.2878 15.0491 56.2761 15.0608C56.2761 15.0725 56.2761 15.1076 56.2761 15.0842C56.2527 15.1427 56.2527 15.2129 56.241 15.2832C56.124 16.0789 56.0421 16.8747 55.9485 17.6705C55.9134 18.1034 55.8783 18.5481 55.8197 18.9811C55.7495 19.496 55.6793 20.0109 55.5974 20.5141C55.5623 20.7131 55.5272 20.9003 55.5038 21.0993C55.5038 21.111 55.5038 21.1227 55.5272 21.1227C55.5389 21.1227 55.5506 21.1227 55.5506 21.0993C55.6091 20.7248 55.691 20.3503 55.7495 19.9875C55.8432 19.4375 55.9485 18.8992 56.007 18.3375C56.0304 18.08 56.0538 17.8226 56.0772 17.5651C56.124 17.1321 56.1708 16.7109 56.2176 16.2779C56.2644 15.88 56.323 15.4002 56.323 15.0608V15.0491Z" fill="#FACF50"/>
<path d="M52.8945 27.6062C52.8828 27.3019 52.836 27.0093 52.7892 26.7051C52.7541 26.4593 52.719 26.2136 52.6722 25.9678C52.6137 25.6753 52.5552 25.3827 52.5084 25.0901C52.4147 24.4699 52.3094 23.8614 52.2392 23.2412C52.1924 22.6677 52.1807 22.1528 52.1573 21.6496C52.1573 21.5677 52.1456 21.3922 52.1339 21.322C52.1339 21.2986 52.0871 21.2869 52.0637 21.322C52.052 21.3454 52.0637 21.3805 52.0637 21.4039C52.052 21.8135 52.0637 22.2113 52.0637 22.6209C52.0637 22.9954 52.0988 23.3699 52.1456 23.7327C52.2158 24.3061 52.3211 24.8795 52.4147 25.4529C52.4967 25.8625 52.5903 26.2604 52.6488 26.67C52.7073 27.0093 52.7658 27.3604 52.7892 27.7115C52.7892 27.8987 52.7892 28.1211 52.7892 28.3317C52.7892 28.3551 52.7892 28.3785 52.7892 28.4019V28.4253C52.8126 28.4487 52.8477 28.4253 52.8594 28.4019C52.8828 28.1328 52.8945 27.8636 52.8711 27.5945L52.8945 27.6062Z" fill="#FACF50"/>
<path d="M58.5247 23.0189C58.5247 23.0189 58.4896 23.0072 58.4779 23.0189C58.4428 23.054 58.4077 23.1008 58.3843 23.1359C58.2672 23.2646 58.1619 23.4051 58.0449 23.5572C57.7757 23.8849 57.5066 24.2242 57.2257 24.5402C56.98 24.7976 56.6406 25.1487 56.348 25.4413C56.0555 25.7338 55.7512 26.0147 55.4821 26.3307C55.1895 26.67 54.9203 27.0445 54.6629 27.419C54.4639 27.7115 54.2767 28.0041 54.1012 28.2967C54.0309 28.4371 53.949 28.5658 53.9022 28.718C53.9022 28.7297 53.9139 28.7414 53.9256 28.7414C53.9373 28.7414 53.949 28.7414 53.9607 28.718C54.0309 28.5307 54.1246 28.3786 54.2299 28.2031C54.3703 27.9807 54.5107 27.7584 54.6629 27.536C54.9788 27.103 55.2948 26.67 55.6576 26.2722C55.8565 26.0498 56.1959 25.7455 56.4417 25.4998C56.6523 25.3008 56.8512 25.0785 57.0502 24.8796C57.413 24.5051 57.7406 24.0955 58.0566 23.6859C58.1736 23.5338 58.2906 23.3699 58.3843 23.2412C58.4194 23.1827 58.4545 23.1359 58.5013 23.0774C58.5013 23.0657 58.5247 23.0423 58.513 23.0306L58.5247 23.0189Z" fill="#FACF50"/>
<path d="M57.8909 25.9443C57.8909 25.9443 57.8558 25.9326 57.8558 25.9443C57.809 26.0028 57.7739 26.0496 57.7271 26.1081C57.5983 26.272 57.4813 26.4475 57.3526 26.6113C56.9196 27.1965 56.51 27.7348 55.96 28.2029C55.4334 28.671 54.8834 29.1157 54.3568 29.5838C53.9589 29.9348 53.5727 30.2976 53.2684 30.7306C53.0695 30.9998 52.894 31.2806 52.7184 31.5615C52.6599 31.6434 52.6131 31.737 52.5663 31.8189V31.8423C52.5663 31.8774 52.6131 31.8774 52.6365 31.854C52.7184 31.7136 52.8003 31.5732 52.894 31.4327C52.9993 31.2689 53.1046 31.1051 53.2333 30.9412C53.4908 30.5668 53.7599 30.2625 54.0876 29.9699C54.5323 29.5604 55.0004 29.1742 55.4568 28.7763C55.761 28.5188 56.077 28.2614 56.3579 27.9805C56.7441 27.5943 57.0717 27.138 57.3994 26.6933C57.5281 26.506 57.6451 26.3305 57.7739 26.1432C57.8207 26.073 57.8675 26.0145 57.9026 25.9443V25.9209L57.8909 25.9443Z" fill="#FACF50"/>
<path d="M51.503 28.9751C51.503 28.2846 51.4211 27.6059 51.3275 26.9271C51.2573 26.4707 51.152 26.0261 51.07 25.5697C51.0466 25.4643 51.0349 25.3473 51.0115 25.242C51.0115 25.2069 51.0115 25.1601 50.9998 25.125V25.1016C50.9998 25.1016 50.9881 25.1016 50.9764 25.1016C50.9764 25.1016 50.9647 25.1133 50.9647 25.125C50.9647 25.1601 50.9647 25.2069 50.9647 25.242C50.9647 25.3707 50.9764 25.5111 50.9998 25.6399C51.0817 26.1197 51.1754 26.5995 51.2339 27.091C51.2924 27.5357 51.3392 27.9804 51.3743 28.4251C51.4094 28.8463 51.4094 29.2559 51.3743 29.7006C51.3392 30.1453 51.3041 30.59 51.269 31.0464C51.269 31.1517 51.2456 31.2687 51.2456 31.3741C51.2456 31.3858 51.269 31.3975 51.2807 31.3975C51.2924 31.3975 51.3041 31.3858 51.3041 31.3624C51.3392 30.9411 51.3743 30.5315 51.4094 30.1102C51.4445 29.724 51.4796 29.3378 51.4913 28.9517L51.503 28.9751Z" fill="#FACF50"/>
<path d="M56.0896 18.244C56.0896 18.0685 56.113 17.893 56.1248 17.7174C56.1248 17.6589 56.1248 17.6004 56.1248 17.5419C56.1248 17.5302 56.1248 17.5068 56.113 17.4951C56.1013 17.4834 56.0779 17.4717 56.0545 17.4717C56.0311 17.4717 56.0077 17.4951 56.0077 17.5302C55.996 17.7642 55.9726 17.9866 55.9492 18.2206C55.9258 18.4664 55.9141 18.7121 55.8673 18.9462C55.7854 19.4143 55.6215 20.0111 55.5045 20.5962C55.3758 21.2867 55.2471 21.9303 55.1066 22.5622C55.0364 22.8782 54.9194 23.4048 54.8141 23.8144C54.7322 24.1421 54.6268 24.4697 54.5332 24.7857C54.3226 25.4878 54.0885 26.1783 53.8428 26.8687C53.6672 27.3836 53.48 27.8985 53.2811 28.3901C53.1289 28.7645 52.9768 29.139 52.813 29.5135C52.6257 29.9582 52.4268 30.3912 52.2512 30.8476C52.0055 31.4912 51.7597 32.1348 51.5725 32.7902C51.4672 33.1763 51.3853 33.5625 51.2916 33.9604C51.1863 34.4168 51.1044 34.8732 51.0693 35.3413C51.0342 35.7392 51.0342 36.1371 51.0693 36.5349C51.081 36.7105 51.1161 36.886 51.1395 37.0616C51.1395 37.1084 51.1512 37.1552 51.1629 37.202C51.1629 37.202 51.1746 37.2254 51.1863 37.2254C51.2097 37.2254 51.2331 37.2137 51.2214 37.1903C51.2214 37.1552 51.2214 37.1318 51.2214 37.0967C51.2214 37.003 51.2097 36.7573 51.198 36.6988C51.1863 36.3828 51.1746 36.0551 51.198 35.7392C51.2448 35.2126 51.315 34.686 51.4321 34.1711C51.514 33.8317 51.6427 33.2232 51.7714 32.7902C51.9587 32.1582 52.1927 31.5263 52.4385 30.9061C52.6257 30.4263 52.8364 29.9582 53.0353 29.4901C53.2928 28.8581 53.5736 28.2379 53.796 27.5943C53.9949 27.056 54.1821 26.506 54.3694 25.9676C54.5683 25.3591 54.7556 24.7506 54.9311 24.1304C55.0715 23.6155 55.1886 23.0888 55.3056 22.5622C55.3641 22.3165 55.4343 21.9654 55.5045 21.6377C55.5981 21.1696 55.6684 20.7016 55.762 20.2335C55.8439 19.8005 55.9609 19.3675 56.0194 18.9228C56.0545 18.7004 56.0545 18.4781 56.0662 18.2557L56.0896 18.244Z" fill="#FACF50"/>
<path d="M57.412 22.1059C57.412 22.1059 57.412 22.0825 57.4354 22.0474C57.4471 22.0123 57.4822 21.9538 57.5056 21.8836C57.5759 21.7432 57.6695 21.5442 57.7982 21.2985C57.9269 21.0527 58.0791 20.7601 58.2663 20.4442C58.4535 20.1282 58.6525 19.8005 58.8982 19.4612C59.378 18.7707 59.9514 18.1037 60.56 17.542C60.7121 17.4015 60.8759 17.2728 61.0281 17.1558C61.1919 17.0388 61.344 16.9217 61.5079 16.8281C61.8355 16.6292 62.1515 16.4888 62.4675 16.3834C62.7834 16.2781 63.0994 16.1611 63.4154 16.0324C63.743 15.9036 64.0707 15.7632 64.3984 15.6228C65.0537 15.3536 65.7325 15.0962 66.3761 14.9206C67.0314 14.7568 67.6634 14.6866 68.2251 14.7334C68.5059 14.7685 68.7634 14.8153 68.9974 14.9206C69.0559 14.944 69.1145 14.9674 69.1613 15.0025C69.2198 15.026 69.2666 15.0611 69.3134 15.0962C69.3602 15.1313 69.407 15.1664 69.4421 15.2015C69.4655 15.2249 69.4772 15.2366 69.4889 15.26C69.4889 15.26 69.4889 15.2834 69.5006 15.2834C69.5006 15.2834 69.5006 15.2834 69.5006 15.2951C69.5006 15.2951 69.5006 15.2951 69.4889 15.2951C69.4889 15.2951 69.4889 15.2951 69.5006 15.2834C69.5006 15.2834 69.5006 15.2717 69.5006 15.26C69.5006 15.2249 69.4889 15.1781 69.4655 15.1079C69.407 14.9908 69.3134 14.8153 69.173 14.6164C68.8804 14.2302 68.4006 13.7738 67.7921 13.4227C67.1836 13.0716 66.4463 12.8376 65.7442 12.8025C65.5686 12.8025 65.3931 12.8025 65.2292 12.8025C65.0654 12.8142 64.9016 12.8376 64.7495 12.8727C64.5973 12.9078 64.4569 12.9429 64.3282 12.9897C64.1994 13.0365 64.0824 13.0951 63.9771 13.1419C63.8133 13.2238 63.626 13.3174 63.4154 13.4578C63.2047 13.5983 62.959 13.7621 62.6898 13.9727C62.5611 14.0781 62.4207 14.1834 62.2685 14.3121C62.1164 14.4408 61.976 14.5696 61.8121 14.7217C61.66 14.8738 61.4962 15.026 61.3206 15.2015C61.1568 15.377 60.9813 15.5643 60.794 15.7632C60.443 16.1611 60.0451 16.6292 59.6472 17.1558C59.2493 17.6941 58.8397 18.2909 58.4184 18.9814C57.9971 19.6718 57.5759 20.4442 57.1663 21.3219C56.9556 21.7549 56.745 22.223 56.546 22.7028C56.3471 23.1943 56.1482 23.6975 55.9492 24.2475C56.1833 23.8496 56.4173 23.4634 56.6514 23.1006C56.7684 22.9251 56.8854 22.7496 57.0024 22.574C57.1195 22.4102 57.2482 22.2464 57.3652 22.0825L57.412 22.1059Z" fill="#8FC03E"/>
<path d="M54.8838 27.1963C54.8838 27.1963 54.9072 27.2197 54.954 27.1963C55.0008 27.1729 55.071 27.091 55.1763 26.9038C55.3987 26.5176 55.738 25.6633 56.4285 23.9196C56.4285 23.9196 56.5221 23.709 56.6508 23.4984C56.7093 23.393 56.7796 23.2877 56.8615 23.2058C56.9317 23.1239 57.0019 23.0771 57.0721 23.0654C57.1774 23.0654 57.4466 22.8196 57.6104 22.5154C57.7158 22.3047 57.8445 22.176 57.9849 22.1058C58.2658 21.9302 58.7573 21.743 59.3307 21.6728C59.9158 21.6026 60.5946 21.6611 61.285 21.9536C61.6244 22.0941 61.9754 22.3047 62.3031 22.5622C62.4669 22.6909 62.6308 22.843 62.7946 22.9952C62.9584 23.159 63.1223 23.3228 63.2744 23.5101C63.5904 23.8845 63.8946 24.3175 64.1755 24.809C64.3159 25.0548 64.4564 25.3005 64.5851 25.5697C64.6553 25.6984 64.7138 25.8388 64.784 25.9793C64.8542 26.1197 64.9128 26.2601 64.983 26.4006C64.983 26.4006 64.983 26.3186 64.9596 26.1899C64.9362 26.0612 64.9127 25.8857 64.8659 25.6516C64.7606 25.1835 64.5851 24.5165 64.2223 23.6973C64.1287 23.4984 64.0234 23.2994 63.9063 23.0888C63.7893 22.8781 63.6606 22.6675 63.5202 22.4568C63.2276 22.0356 62.8648 21.626 62.4084 21.2749C62.1744 21.0994 61.9169 20.9589 61.6361 20.8302C61.4956 20.7717 61.3435 20.7132 61.1797 20.6781C61.0158 20.643 60.852 20.6079 60.6765 20.5845C59.9743 20.5025 59.1317 20.6079 58.1253 21.0643C57.9615 21.1462 57.8094 21.1813 57.6455 21.193C57.5402 21.193 57.3881 21.2398 57.2008 21.4036C57.0136 21.5675 56.803 21.86 56.5923 22.3398C56.5104 22.5154 56.4285 22.7026 56.3466 22.8781C56.2646 23.0537 56.1827 23.2409 56.1008 23.4047C55.937 23.7558 55.7614 24.0835 55.621 24.3643C55.4806 24.6569 55.3519 24.8909 55.2582 25.0665C55.1646 25.242 55.1178 25.3356 55.1178 25.3356C55.1178 25.3356 55.0827 25.4059 55.0359 25.5229C54.9891 25.6399 54.9423 25.8154 54.8955 26.0027C54.8018 26.3772 54.755 26.8453 54.9189 27.1612L54.8838 27.1963Z" fill="#8FC03E"/>
<path d="M53.4456 32.3104C53.4456 32.3104 53.4456 32.2987 53.4456 32.2636C53.4456 32.2285 53.4573 32.1934 53.469 32.1349C53.4924 32.0179 53.5392 31.8657 53.586 31.6668C53.6796 31.2689 53.8317 30.7423 53.9956 30.1689C54.1594 29.5955 54.3467 28.9986 54.5222 28.4486C54.6158 28.1795 54.7094 27.922 54.7913 27.6997C54.8733 27.4773 54.9552 27.2784 55.0254 27.1145C55.0254 27.1145 55.0254 27.1145 55.002 27.0794C55.002 27.0443 54.9786 26.9858 55.002 26.8571C55.002 26.7284 55.0254 26.5294 55.0839 26.2252C55.1073 26.073 55.1424 25.8975 55.1892 25.6985C55.236 25.4996 55.2945 25.2656 55.3648 25.0081C55.435 24.7389 55.5286 24.3528 55.6339 23.873C55.6924 23.6272 55.7509 23.3698 55.8212 23.0772C55.8563 22.9368 55.8914 22.7846 55.9265 22.6208C55.9616 22.4687 55.9967 22.3048 56.0435 22.1293C56.2073 21.4506 56.3946 20.6782 56.5935 19.8122C56.8042 18.9462 57.0616 17.9866 57.3308 16.9334C57.4712 16.4068 57.635 15.8685 57.7989 15.2951C57.8808 15.0142 57.9627 14.7217 58.0563 14.4291C58.1382 14.1365 58.2319 13.8323 58.3372 13.528C58.7351 12.2993 59.1564 10.9769 59.7064 9.57259C59.9755 8.87045 60.2564 8.14489 60.5723 7.39594C60.7362 7.02146 60.9 6.63528 61.0756 6.2491C61.1575 6.06186 61.2511 5.86292 61.3447 5.66398C61.4383 5.46504 61.5202 5.2661 61.6256 5.06715C61.6724 4.96183 61.7192 4.86821 61.766 4.76289C61.8128 4.65757 61.8713 4.56395 61.9181 4.45863C62.0234 4.25969 62.1288 4.04904 62.2224 3.8501C62.3277 3.65116 62.433 3.44052 62.5501 3.22987C62.6671 3.01923 62.7724 2.80858 62.8894 2.59794C63.0065 2.3873 63.1352 2.17665 63.2639 1.96601C63.3926 1.75537 63.5214 1.53302 63.6618 1.32238C63.7905 1.11173 63.9426 0.889385 64.0831 0.667039C64.1884 0.444693 64.3405 0.222346 64.5044 0C64.5044 0 64.4576 0.0702146 64.3405 0.198941C64.2235 0.327668 64.0714 0.52661 63.8724 0.772361C63.6735 1.01811 63.4394 1.33408 63.182 1.68515C62.9245 2.04793 62.632 2.44581 62.3394 2.9022C62.0469 3.3586 61.7426 3.8501 61.4266 4.38841C61.2745 4.65757 61.1107 4.93843 60.9468 5.21929C60.7947 5.51185 60.6309 5.80441 60.4787 6.10867C60.1628 6.7172 59.8585 7.36083 59.5425 8.01617C59.25 8.68321 58.9574 9.37365 58.6765 10.0758C58.6063 10.2513 58.5361 10.4269 58.4659 10.6024C58.4308 10.696 58.3957 10.7779 58.3606 10.8716C58.3255 10.9652 58.2904 11.0471 58.2553 11.1407C58.1265 11.5035 57.9861 11.8663 57.8574 12.229C57.5999 12.9663 57.3425 13.7036 57.1201 14.4408C56.8978 15.1898 56.6754 15.927 56.4648 16.676C56.3712 17.0504 56.2658 17.4132 56.1722 17.7877C56.0786 18.1505 55.985 18.525 55.8914 18.8877C55.1775 21.8133 54.6275 24.5751 54.0892 26.9507C54.0541 27.1028 54.0307 27.2667 54.019 27.4188C53.9956 27.8401 53.9254 28.2731 53.8083 28.6827C53.6913 29.0571 53.5626 29.5369 53.4222 30.0519C53.2817 30.5785 53.1296 31.1402 53.0009 31.6902C52.8604 32.2402 52.7317 32.7902 52.6147 33.2583C52.4977 33.7264 52.3923 34.1243 52.3104 34.3935C52.3572 34.2998 52.404 34.2062 52.4392 34.1126C52.486 34.019 52.5328 33.9254 52.5796 33.8317C52.6732 33.6445 52.7668 33.469 52.8604 33.2934C53.0477 32.9424 53.2349 32.603 53.4339 32.2753L53.4456 32.3104Z" fill="#8FC03E"/>
<path d="M52.2273 43.3222C52.2156 42.7254 52.2273 42.1169 52.2273 41.4966C52.2273 41.1924 52.2273 40.8764 52.2507 40.5604C52.2507 40.4083 52.2507 40.2445 52.2624 40.0923C52.2624 39.9285 52.2858 39.7764 52.2858 39.6125C52.3209 38.9806 52.3794 38.3019 52.4379 37.7519C52.4965 37.1667 52.5667 36.5816 52.6486 36.0082C52.7422 35.3412 52.906 34.7209 53.1167 34.206C53.1869 34.0422 53.2688 33.8667 53.3507 33.6911C53.4327 33.5156 53.5146 33.34 53.5965 33.1762C53.7603 32.8485 53.9242 32.5677 54.0412 32.4273C54.088 32.3687 54.1582 32.2166 54.2518 32.0177C54.3454 31.8187 54.4625 31.5613 54.6146 31.2804C54.7667 30.9996 54.9423 30.6719 55.1412 30.3559C55.3402 30.04 55.5742 29.7123 55.82 29.408C55.9487 29.2559 56.0774 29.1038 56.2061 28.975C56.3466 28.8346 56.487 28.7059 56.6274 28.5889C56.92 28.3548 57.2359 28.1676 57.5636 28.0505C58.2307 27.8165 58.9445 27.8633 59.7052 28.3431C59.7052 28.3665 59.5881 28.0974 59.3541 27.758C59.12 27.4186 58.769 26.9973 58.3009 26.7633C57.8328 26.5292 57.2594 26.4824 56.5455 26.9388C56.1944 27.1729 55.82 27.5356 55.4104 28.0622C55.1997 28.3314 55.0125 28.6474 54.8018 29.0101C54.5912 29.3729 54.3806 29.7825 54.1816 30.2506C54.0529 30.5549 53.9008 30.824 53.7486 31.0698C53.6667 31.1985 53.5848 31.3155 53.5146 31.4442C53.4444 31.573 53.3624 31.7017 53.2805 31.8304C53.1284 32.0879 52.9763 32.357 52.8241 32.6379C52.7071 32.8602 52.5901 33.1177 52.4965 33.4103C52.4028 33.7028 52.3209 34.0071 52.2624 34.3347C52.2039 34.7092 52.1454 35.0837 52.0869 35.4582C52.0284 35.8327 51.9816 36.2071 51.9347 36.5933C51.9113 36.7806 51.8879 36.9795 51.8645 37.1667C51.8411 37.354 51.8294 37.5529 51.806 37.7402C51.806 37.8338 51.7826 37.9274 51.7709 38.0327C51.7709 38.138 51.7475 38.2434 51.7358 38.3487C51.7124 38.5593 51.7007 38.7817 51.6773 38.9923C51.6422 39.4253 51.6188 39.8466 51.5954 40.2679C51.5837 40.6892 51.572 41.0988 51.5603 41.5083C51.5486 42.3275 51.5369 43.1233 51.5603 43.8839C51.572 44.5159 51.5954 45.1244 51.6188 45.7095C51.6188 45.8499 51.6188 45.9904 51.6305 46.1308C51.6305 46.2712 51.6422 46.4117 51.6539 46.5521C51.6773 46.8329 51.689 47.1138 51.7007 47.4064C51.8294 46.1659 52.005 44.7499 52.1922 43.3339L52.2273 43.3222Z" fill="#8FC03E"/>
<path d="M51.8881 45.312C51.8881 45.312 51.8881 45.1833 51.8647 44.9609C51.8647 44.7386 51.8413 44.4226 51.8179 44.0364C51.7711 43.2524 51.7126 42.1523 51.6072 40.8885C51.5838 40.5725 51.5487 40.2448 51.5253 39.9172C51.5019 39.5895 51.4668 39.2384 51.4434 38.8991C51.4083 38.5597 51.3732 38.1969 51.3381 37.8458C51.303 37.5299 51.2445 37.2256 51.1977 36.9213C51.0923 36.3128 50.9636 35.7277 50.7881 35.1894C50.7062 34.9202 50.6125 34.6628 50.5072 34.417C50.4604 34.3 50.4019 34.1713 50.3434 34.066C50.2849 33.9489 50.2264 33.8436 50.1678 33.7383C50.1678 33.7383 50.1678 33.8202 50.203 33.9489C50.2264 34.0777 50.2615 34.2649 50.3083 34.4989C50.4019 34.9553 50.5306 35.5639 50.6593 36.2075C50.7179 36.5235 50.7881 36.8511 50.8466 37.1671C50.8817 37.3309 50.9051 37.4831 50.9402 37.6352C50.9402 37.6586 50.9402 37.6703 50.9402 37.6937C50.9402 37.7171 50.9402 37.7405 50.9402 37.7639C50.9402 37.8107 50.9519 37.8458 50.9636 37.8926C50.9753 37.9746 50.987 38.0565 50.9987 38.1384C51.0221 38.3022 51.0455 38.4544 51.0572 38.6065C51.0806 38.7469 51.0923 38.8874 51.104 39.0044C51.1274 39.2501 51.1392 39.4608 51.1274 39.6129C51.1157 39.7767 51.0923 40.0108 51.0806 40.3151C51.0806 40.6193 51.0806 40.9704 51.0806 41.3566C51.0806 41.7427 51.0923 42.164 51.1157 42.597C51.1157 42.8194 51.1274 43.03 51.1509 43.2524C51.1626 43.4747 51.186 43.6854 51.1977 43.9077C51.2679 44.7737 51.3498 45.6046 51.4317 46.2716C51.5253 46.9386 51.6072 47.4535 51.6892 47.7344C51.8179 48.2961 51.8764 47.7578 51.8881 47.0205C51.8881 46.8333 51.8881 46.6344 51.8881 46.4471C51.8881 46.3535 51.8881 46.2599 51.8881 46.1663C51.8881 46.0726 51.8881 45.9907 51.8881 45.9088C51.8881 45.745 51.8881 45.6046 51.8881 45.4992C51.8881 45.4524 51.8881 45.4056 51.8881 45.3822C51.8881 45.3588 51.8881 45.3354 51.8881 45.3354V45.312Z" fill="#8FC03E"/>
<path d="M49.0439 32.884C49.6407 33.1765 50.2024 33.5627 50.6354 34.0776C50.8695 34.3585 51.0333 34.6978 51.1152 35.0606C51.1152 35.0723 51.1152 35.0957 51.1152 35.1074C51.1152 34.967 51.1503 34.8149 51.1854 34.6744C51.2322 34.4755 51.3727 34.1127 51.3844 34.0893C51.5599 33.5978 51.8174 33.1531 52.1216 32.7435C52.4376 32.3222 52.6014 32.1116 52.9642 31.7605C53.0461 31.6786 53.2099 31.5616 53.3621 31.7488C53.4908 32.0531 53.4908 32.2988 53.5493 32.5212C53.6546 33.1648 53.6897 33.8436 53.444 34.4638C53.3036 34.8383 53.0695 35.1542 52.7536 35.3766C52.578 35.5053 52.1684 35.7393 51.8174 35.8213C51.8174 35.8213 51.8057 35.8213 51.794 35.8213C51.794 35.8213 51.7705 35.8213 51.7471 35.8213C51.6769 35.833 51.6067 35.8447 51.5365 35.8564C51.5248 35.8564 51.5014 35.8564 51.4897 35.8564C51.3961 35.8564 51.279 35.8564 51.1854 35.8213C51.1854 35.8447 51.1737 35.8798 51.1503 35.9032C51.1152 35.95 51.0567 35.9617 51.0099 35.9617C50.9046 35.9617 50.9631 35.9617 50.8226 35.9617C50.7524 35.9617 50.6588 35.9617 50.5886 35.9383C50.5886 35.9617 50.1439 35.8213 50.0854 35.7862C49.8982 35.7159 49.6641 35.5287 49.6056 35.4819C49.3832 35.3064 49.1843 35.0957 49.0205 34.8617C48.8566 34.6042 48.7162 34.3116 48.6226 34.0191C48.529 33.6914 48.4822 33.3989 48.4471 33.1414C48.33 32.451 48.6343 32.6616 49.0439 32.8722V32.884Z" fill="#FBB428"/>
<path d="M47.6053 29.7009C47.6053 29.6307 47.6873 29.5722 47.7575 29.5956C48.249 30.0052 49.0447 30.1807 49.5948 30.6488C49.9107 30.9179 50.1799 31.2456 50.3671 31.6201C50.4958 31.819 50.5895 32.0414 50.6597 32.2754C50.7884 32.7201 50.3203 32.7084 50.0395 32.685C49.9107 32.6733 49.7937 32.6148 49.665 32.5797C49.2203 32.4627 48.8341 32.1584 48.5064 31.8307C48.3777 31.702 48.0617 31.3392 47.9915 31.1286C47.8628 30.8711 47.7224 30.3094 47.6873 30.1807C47.6639 30.0754 47.6405 29.9818 47.617 29.8764C47.617 29.853 47.617 29.8413 47.617 29.8179C47.617 29.8179 47.617 29.7477 47.617 29.7126L47.6053 29.7009Z" fill="#FBB428"/>
<path d="M46.177 25.4998C46.177 25.4413 46.2238 25.3945 46.2823 25.3828C46.4578 25.4179 46.411 25.4296 46.5397 25.4647C47.6398 25.8392 48.7047 26.1786 49.2547 27.4775C49.3717 27.7233 49.4654 27.9456 49.5239 28.1563C49.559 28.2499 49.5941 28.3435 49.6175 28.4488C49.6175 28.4488 49.6175 28.4723 49.6175 28.484C49.6175 28.5074 49.6175 28.5425 49.6292 28.5659C49.6409 28.6244 49.6292 28.6829 49.6058 28.7297C49.5707 28.7765 49.5005 28.8116 49.4419 28.8233H49.4302C49.4302 28.8233 49.4302 28.8233 49.4536 28.8116C49.2898 28.8818 49.1026 28.8935 48.927 28.8818C48.6813 28.8584 48.3887 28.835 48.0728 28.6712C47.9791 28.6478 47.6164 28.3318 47.4525 28.1446C47.2419 27.9222 46.9493 27.618 46.7504 27.2435C46.5983 26.9626 46.5046 26.6584 46.3993 26.3658C46.3642 26.2605 46.3291 26.1552 46.294 26.0499C46.2823 26.0264 46.2706 25.9913 46.2706 25.9679C46.2706 25.9679 46.2472 25.9328 46.2355 25.8743C46.2121 25.7924 46.177 25.6988 46.177 25.6169C46.177 25.6871 46.1536 25.5232 46.1653 25.4881L46.177 25.4998Z" fill="#FBB428"/>
<path d="M44.7144 21.9185C44.7144 21.9185 44.7729 21.9302 44.7963 21.9419C44.808 21.9419 44.8432 21.9536 44.8783 21.9653C45.0772 22.0238 45.2761 22.0706 45.4868 22.1057C45.873 22.1408 46.2592 22.2812 46.6102 22.4919C46.8443 22.6206 47.0783 22.7727 47.289 22.9483C47.6634 23.2876 47.956 23.744 48.1315 24.2355C48.1549 24.3292 48.1901 24.4462 48.1666 24.5398C48.1666 24.5398 48.1666 24.5398 48.1666 24.5749C48.1432 24.6451 48.1081 24.7153 48.0496 24.7621C47.8858 24.8909 47.6634 24.8909 47.4762 24.9143C46.1304 24.8324 45.1474 23.6504 44.6793 22.5738C44.6208 22.4217 44.5272 22.2695 44.5038 22.1057C44.5038 21.9887 44.6091 21.8833 44.7144 21.9302V21.9185Z" fill="#FBB428"/>
<path d="M42.9823 19.4262C42.9823 19.3208 43.0759 19.2389 43.1812 19.2506C43.2515 19.2506 43.31 19.2857 43.3802 19.2857C43.8249 19.3325 44.2813 19.3794 44.7143 19.5198C45.1238 19.6485 45.4983 19.8943 45.8143 20.1985C45.8845 20.257 45.943 20.3272 46.0132 20.3858C46.2122 20.5496 46.3877 20.7251 46.5515 20.9241C46.6569 21.0645 46.7505 21.2166 46.8324 21.3805C46.8909 21.4975 46.9962 21.6496 46.8909 21.7784C46.7271 21.9188 46.493 21.9071 46.2941 21.9071C45.8377 21.9071 45.4047 21.7432 44.9951 21.556C44.2696 21.24 43.6376 20.7719 43.2163 20.0581C43.111 19.8709 43.0525 19.7772 43.0174 19.6485C42.9823 19.5432 42.9823 19.5315 42.9823 19.4847C42.9823 19.4613 42.9823 19.4379 42.9823 19.4145V19.4262Z" fill="#FBB428"/>
<path d="M43.1823 15.7282C43.1823 15.7282 43.194 15.6814 43.2057 15.658C43.2057 15.658 43.2057 15.658 43.2057 15.6463C43.2408 15.5409 43.3461 15.4473 43.4631 15.5058C43.7674 15.6697 44.0716 15.8452 44.3642 16.0441C44.9727 16.4537 45.5344 17.0271 45.6866 17.7995C45.8036 18.3144 45.8504 18.841 45.827 19.3676C45.827 19.3793 45.827 19.4027 45.827 19.4144C45.827 19.4613 45.827 19.5081 45.8387 19.5666V19.59C45.8387 19.6134 45.8387 19.6368 45.8387 19.6602C45.8387 19.6836 45.8387 19.6953 45.8387 19.7187C45.8153 19.7889 45.7217 19.7889 45.6866 19.7187C45.6281 19.6836 45.5696 19.6134 45.511 19.5783C45.4525 19.5315 45.1834 19.4027 45.0429 19.3091C44.5514 18.9932 44.0482 18.6655 43.6855 18.1974C43.3461 17.7644 43.2174 17.191 43.1589 16.641C43.1354 16.3367 43.1003 15.9154 43.1589 15.7165L43.1823 15.7282Z" fill="#FBB428"/>
<path d="M46.4937 20.6899C46.4586 20.5729 46.365 20.1165 46.3533 19.8473C46.3533 19.6367 46.3767 19.426 46.4001 19.2271C46.4469 18.9345 46.5288 18.6537 46.6341 18.3728C46.7395 18.1271 46.8682 17.9047 46.9852 17.6707C47.032 17.5888 47.0671 17.4951 47.1139 17.4132C47.149 17.3547 47.2076 17.2962 47.2778 17.3079C47.348 17.3196 47.3831 17.3898 47.4065 17.4483C47.4533 17.5654 47.4533 17.5654 47.4884 17.6356C47.5937 17.8696 47.6991 18.0452 47.8161 18.3377C47.9565 18.6771 48.1554 19.3207 48.1672 19.5431C48.2257 19.8824 48.1437 20.2452 48.0384 20.5729C47.9448 20.8186 47.8278 20.9708 47.7342 21.1463C47.582 21.3803 47.3831 21.591 47.149 21.7314C47.1022 21.7548 47.0437 21.8016 46.9852 21.8016C46.8916 21.8016 46.8214 21.6963 46.8448 21.6027C46.7277 21.2984 46.5756 21.0059 46.482 20.6899H46.4937Z" fill="#FBB428"/>
<path d="M48.0622 23.9315C48.0856 24.0251 48.0856 24.1304 48.1558 24.2123C48.1909 24.2474 48.2494 24.2591 48.2962 24.2357C48.2962 24.2357 48.3079 24.2357 48.3197 24.2357C48.4367 24.2006 48.5654 24.1772 48.6707 24.1187C48.9867 23.9666 49.291 23.7793 49.525 23.4985C49.6654 23.3229 49.7825 23.124 49.841 22.9953C49.9112 22.8314 49.9814 22.6676 50.0165 22.4921C50.0633 22.2346 50.075 22.1176 50.0516 21.8367C49.9697 21.3686 49.841 20.959 49.7591 20.6665C49.7122 20.526 49.6303 20.3037 49.4548 20.3973C49.3846 20.4324 49.3378 20.5026 49.2676 20.5495C49.0101 20.7484 48.7643 20.9356 48.542 21.1697C48.2728 21.4622 48.1675 21.7197 48.0622 22.0825C47.9803 22.3516 47.9335 22.6442 47.9335 22.925C47.9335 23.2059 47.9803 23.4517 48.0505 23.6974C48.0505 23.7793 48.0505 23.8729 48.0739 23.9549L48.0622 23.9315Z" fill="#FBB428"/>
<path d="M49.6189 27.9104C49.5955 27.7465 49.5721 27.571 49.5604 27.4072C49.537 26.9157 49.5838 26.4242 49.7008 25.9444C49.8179 25.4646 50.0987 25.0667 50.403 24.7039C50.5434 24.5401 50.6839 24.3645 50.8126 24.189C50.9647 23.9666 51.1051 23.8496 51.2339 24.1773C51.386 24.6103 51.5381 25.0433 51.5849 25.5114C51.6786 26.4124 51.4679 27.2082 50.953 27.9221C50.7775 28.1561 50.5317 28.3199 50.286 28.4721C50.1923 28.5306 50.0987 28.5774 50.0051 28.6359C49.9466 28.671 49.8764 28.7061 49.8062 28.671C49.7594 28.6476 49.736 28.6008 49.7125 28.554C49.7125 28.554 49.7008 28.5306 49.7008 28.5072C49.7008 28.5072 49.7008 28.5072 49.7008 28.4955C49.7008 28.4721 49.7008 28.4604 49.6891 28.4487C49.6891 28.4253 49.6774 28.3902 49.6657 28.3551C49.6423 28.2263 49.6189 28.0859 49.6072 27.9455L49.6189 27.9104Z" fill="#FBB428"/>
<path d="M50.6364 30.9178C50.6129 30.4146 50.6949 29.8646 51.081 29.4199C51.4555 28.9986 51.8066 28.6476 52.2513 28.472C52.3683 28.4252 52.5087 28.4837 52.4853 28.6359C52.4853 28.7646 52.5087 28.905 52.5204 29.0337C52.6024 29.6189 52.6609 30.2274 52.5087 30.8125C52.3098 31.6317 51.9119 32.287 51.3268 32.6498C51.3502 32.6381 51.28 32.6732 51.2566 32.6849C51.1981 32.7083 51.1513 32.7434 51.0927 32.7668C51.0459 32.7785 50.9991 32.8253 50.9523 32.8019C50.9055 32.7785 50.9055 32.72 50.9406 32.6849C50.8821 32.5913 50.847 32.4275 50.8236 32.3104C50.73 31.8423 50.6598 31.3742 50.6364 30.9061V30.9178Z" fill="#FBB428"/>
<path d="M44.6681 18.0334C44.6681 18.0334 44.7266 17.9749 44.75 18.01C45.0192 18.3611 45.2649 18.7355 45.499 19.1217C45.7096 19.426 45.9203 19.7186 46.1192 20.0345C46.6224 20.8537 47.0788 21.7197 47.582 22.5505C48.0735 23.4516 48.3895 24.1889 48.799 25.1719C48.9629 25.5698 49.1501 25.9677 49.2906 26.3772C49.5948 27.3134 49.9225 28.2379 50.1916 29.1858C50.4023 29.9816 50.5544 30.8008 50.7182 31.6082C50.8821 32.4391 51.0693 33.27 51.198 34.1125C51.3268 34.9551 51.4204 35.8094 51.4789 36.652C51.514 37.2605 51.5491 38.0563 51.5023 38.5478C51.5023 38.618 51.4906 38.6999 51.4789 38.7701C51.4672 38.8169 51.4204 38.8403 51.3736 38.8403C51.28 38.8169 51.3034 38.7116 51.2917 38.6297C51.28 38.4424 51.2683 38.2435 51.2449 38.0563C51.198 37.436 51.1278 36.8158 51.0693 36.1956C50.8938 34.4285 50.5544 32.9891 50.1682 31.2455C50.0278 30.6252 49.8991 29.9933 49.7235 29.3848C49.5948 28.905 49.431 28.4369 49.2906 27.9571C49.1267 27.4188 48.9863 26.8804 48.799 26.3421C48.6235 25.8272 48.4012 25.3357 48.2139 24.8442C47.7809 23.7676 47.4182 22.9835 46.9618 22.1058C46.6107 21.392 46.2479 20.6899 45.8617 19.9994C45.7096 19.7303 45.5458 19.4728 45.3819 19.2153C45.2181 18.9228 45.0543 18.6185 44.867 18.3377C44.8085 18.244 44.75 18.1504 44.6798 18.0685C44.6798 18.0685 44.6798 18.0451 44.6798 18.0334H44.6681Z" fill="#D58940"/>
<path d="M46.4822 30.4498C46.9152 30.8594 47.3482 31.2573 47.7461 31.702C48.2376 32.2403 48.694 32.8371 49.1387 33.4105C49.3961 33.7499 49.6068 34.1244 49.8759 34.4637C50.1568 34.7914 50.4142 35.1425 50.7536 35.4584C50.777 35.4935 50.8238 35.5052 50.8355 35.5404C50.8355 35.5755 50.8004 35.5989 50.777 35.5755C50.5664 35.3999 50.3908 35.1776 50.2153 34.9669C50.0397 34.7563 49.8642 34.5691 49.7004 34.3467C49.4546 34.019 49.2557 33.668 48.9865 33.352C48.5769 32.8488 48.2259 32.3924 47.7929 31.9243C47.3716 31.4562 46.9152 31.0232 46.4822 30.5785C46.4588 30.5551 46.4237 30.5317 46.412 30.4849C46.412 30.4381 46.4705 30.403 46.4939 30.4381L46.4822 30.4498Z" fill="#FBB428"/>
<path d="M45.2766 26.9155C45.3468 26.9272 45.417 27.0208 45.4755 27.0677C45.8617 27.407 46.2479 27.7581 46.6107 28.1443C46.95 28.5188 47.2426 28.9166 47.5585 29.3145C47.9681 29.8645 48.3426 30.4614 48.7873 30.988C48.9979 31.2454 49.3724 31.5614 49.6533 31.8071C49.7703 31.9125 49.8873 31.9827 50.0044 32.0763C50.0395 32.1114 50.0044 32.1699 49.9575 32.1465C49.5363 31.854 49.1384 31.5146 48.7756 31.1518C48.2841 30.6252 47.8745 30.0284 47.4415 29.455C47.1958 29.1507 46.8447 28.6943 46.6458 28.4602C46.2362 27.9804 45.7681 27.5475 45.3117 27.1028C45.2883 27.0794 45.2532 27.056 45.2298 27.0208C45.2064 26.9857 45.2298 26.9389 45.2766 26.9389V26.9155Z" fill="#FBB428"/>
<path d="M43.8488 23.0889C43.9308 23.1123 44.0244 23.2059 44.118 23.2527C44.8435 23.7793 45.5457 24.3644 46.1659 25.0432C46.6691 25.5815 47.0904 26.1666 47.5585 26.6932C47.7223 26.8921 47.9213 27.0794 48.1085 27.2549C48.3543 27.489 48.5883 27.7347 48.8926 27.8986C49.0213 27.9688 49.15 28.0624 49.3022 28.0975C49.3256 28.0975 49.3607 28.0975 49.3841 28.1326C49.4075 28.156 49.3841 28.2028 49.3373 28.2028C48.8341 28.0624 48.4362 27.6996 48.0617 27.3368C47.4766 26.8336 46.9851 26.1549 46.5053 25.6049C45.7563 24.7038 44.8435 23.9899 43.9425 23.2761C43.8956 23.241 43.8371 23.2059 43.802 23.1591C43.7786 23.124 43.802 23.0771 43.8488 23.0771V23.0889Z" fill="#FBB428"/>
<path d="M42.6783 20.5377C42.7485 20.4909 42.7953 20.5846 42.8772 20.6197C43.6145 21.1229 44.3049 21.6963 44.9602 22.3048C45.4986 22.7846 46.1188 23.2644 46.6571 23.6389C46.8443 23.7676 47.1135 23.9314 47.289 23.99C47.3943 24.0368 47.5231 24.0368 47.6401 24.0602C47.6869 24.0953 47.6518 24.1772 47.605 24.1655C47.2773 24.1538 46.9848 23.99 46.7156 23.8144C46.3645 23.5921 46.0369 23.3346 45.6975 23.0772C45.2294 22.7144 44.7847 22.3165 44.3283 21.9303C43.8017 21.509 43.2634 21.0995 42.7251 20.6899C42.7017 20.6665 42.6666 20.6548 42.6549 20.6314C42.6432 20.5963 42.6549 20.5611 42.6783 20.5377Z" fill="#FBB428"/>
<path d="M40.3615 17.4015C40.4084 17.3196 40.502 17.425 40.5605 17.4367C40.7945 17.5537 41.0286 17.6707 41.2626 17.7994C41.8595 18.1505 42.4212 18.5601 42.9127 19.0399C43.5212 19.6952 44.1999 20.292 44.9021 20.7484C45.2064 20.9357 45.4755 21.0761 45.8149 21.1112C45.8851 21.1112 45.9436 21.1112 46.0372 21.1112H46.0606C46.084 21.1346 46.0606 21.1814 46.0372 21.1814C45.4404 21.2282 44.9138 20.8772 44.434 20.5612C43.9308 20.2218 43.4042 19.7888 42.9595 19.3207C42.351 18.7239 41.7073 18.2792 41.0286 17.8462C40.8531 17.7409 40.6775 17.6356 40.502 17.5303C40.4435 17.4835 40.3264 17.4718 40.3615 17.3781V17.4015Z" fill="#FBB428"/>
<path d="M42.3741 13.6799C42.4443 13.7384 42.4677 13.8321 42.5262 13.9023C42.9826 14.6629 43.4156 15.447 43.8369 16.2194C44.0475 16.5821 44.2581 16.9449 44.4337 17.3194C44.4337 17.3545 44.4922 17.4013 44.4688 17.4364C44.4688 17.4481 44.4337 17.4364 44.4337 17.4364C44.1996 16.9449 43.872 16.5119 43.5677 16.0672C43.3571 15.7396 43.1698 15.3885 42.9592 15.0608C42.7251 14.6512 42.4209 14.148 42.257 13.7735C42.2453 13.7033 42.3155 13.6448 42.3741 13.6799Z" fill="#FBB428"/>
<path d="M47.2664 17.296C47.3132 16.5588 47.2196 15.8683 47.044 15.2013C47.0089 15.1194 47.1142 15.0492 47.161 15.1428C47.2781 15.5758 47.3834 16.0088 47.4068 16.4652C47.4653 17.3077 47.3366 18.162 47.2781 19.0046C47.243 19.4142 47.2079 19.7653 47.2079 20.1514C47.2079 20.3621 47.2079 20.5844 47.2079 20.7951C47.1962 20.8536 47.1142 20.8419 47.1142 20.7834C47.044 19.6248 47.2079 18.3961 47.2781 17.3077L47.2664 17.296Z" fill="#FBB428"/>
<path d="M48.7514 23.6274C48.7982 23.5455 48.8684 23.4051 48.9269 23.2998C49.0323 23.0891 49.161 22.8083 49.1961 22.6444C49.3365 22.188 49.3833 21.6965 49.4067 21.2167C49.4652 20.6082 49.4887 19.9997 49.6291 19.4029C49.6642 19.2507 49.7227 19.0986 49.7812 18.9582C49.8163 18.8997 49.8163 18.8177 49.8748 18.7826C49.9216 18.7592 49.9802 18.8177 49.945 18.8762C49.5472 19.8241 49.6408 20.8423 49.5355 21.8019C49.5004 22.1763 49.4184 22.5391 49.2897 22.8902C49.161 23.1827 49.0206 23.4285 48.8333 23.6742C48.7982 23.7094 48.7397 23.6742 48.7514 23.6274Z" fill="#FBB428"/>
<path d="M50.4841 27.0795C51.1863 25.6518 50.8586 24.0485 51.0342 22.4336C51.0342 22.34 51.198 20.9942 51.2799 21.275C51.0693 22.1878 51.0927 23.0889 51.1512 24.0368C51.198 24.6922 51.1746 25.3475 51.0576 25.9911C50.9873 26.4475 50.8001 26.8805 50.5544 27.2667C50.5192 27.3135 50.5309 27.3369 50.4841 27.3603C50.449 27.372 50.4139 27.3603 50.4022 27.3135C50.4022 27.2433 50.449 27.1731 50.4841 27.0795Z" fill="#FBB428"/>
<path d="M51.3964 31.9124C51.4198 31.0464 51.6304 29.9815 51.9698 29.1038C52.1219 28.6825 52.2857 28.2729 52.4847 27.875C52.6134 27.6176 52.7304 27.442 52.8592 27.1729C52.9294 27.0325 52.9879 26.9037 53.0347 26.7165C53.0464 26.6697 53.0347 26.5995 53.0815 26.5644C53.1049 26.541 53.1517 26.5644 53.14 26.6112C53.0698 27.0676 52.8709 27.442 52.6602 27.8633C52.5432 28.0974 52.4613 28.3548 52.3677 28.6006C52.1687 29.1155 51.9581 29.6655 51.8176 30.2623C51.6889 30.7772 51.6421 31.3038 51.5485 31.8188C51.5251 31.889 51.5485 31.9475 51.5017 31.9826C51.4549 32.0177 51.3964 31.9826 51.4081 31.9124H51.3964Z" fill="#FBB428"/>
<path d="M52.1698 34.8149C52.1698 34.8149 52.2166 34.733 52.2517 34.6862C52.5794 34.1362 52.8251 33.5042 52.9656 32.9542C53.1996 31.9829 53.3634 30.9531 53.6677 29.9584C53.7379 29.7244 53.8081 29.4903 53.8784 29.2563C53.9018 29.1978 53.8784 29.1275 53.9252 29.0924C53.9486 29.069 53.9954 29.0924 53.9837 29.1275C53.9252 29.4669 53.8198 29.8063 53.7379 30.1456C53.6326 30.5903 53.5507 31.035 53.4688 31.4914C53.3634 32.1117 53.2932 32.5915 53.1177 33.1883C52.9188 33.7851 52.6496 34.3702 52.2517 34.8617C52.2283 34.8968 52.1815 34.8617 52.1815 34.8266L52.1698 34.8149Z" fill="#FBB428"/>
<path d="M54.3806 35.0723C53.9827 35.2128 53.6083 35.4117 53.2923 35.6926C53.1285 35.8447 52.9997 36.0436 52.9295 36.2543V36.2777C52.9295 36.1841 52.9295 36.1021 52.9178 36.0085C52.9061 35.8915 52.8359 35.6575 52.8242 35.6458C52.7423 35.3415 52.6018 35.0489 52.438 34.7915C52.2625 34.5106 52.1689 34.3819 51.9582 34.1478C51.9114 34.101 51.8178 34.0191 51.7008 34.1127C51.5954 34.2883 51.5837 34.4404 51.5369 34.5691C51.4316 34.9553 51.3731 35.3649 51.4901 35.7511C51.5486 35.9851 51.6891 36.1958 51.8763 36.3479C51.9816 36.4298 52.2274 36.6054 52.438 36.6756C52.438 36.6756 52.438 36.6756 52.4497 36.6756C52.4497 36.6756 52.4614 36.6756 52.4731 36.6756C52.5199 36.6873 52.5667 36.699 52.6018 36.7107C52.6018 36.7107 52.6253 36.7107 52.637 36.7107C52.6955 36.7107 52.7657 36.7341 52.8242 36.7107C52.8242 36.7341 52.8242 36.7458 52.8476 36.7575C52.871 36.7926 52.9061 36.7926 52.9295 36.8043C52.9997 36.816 52.9646 36.8043 53.0465 36.816C53.0934 36.816 53.1519 36.816 53.1987 36.816C53.1987 36.8277 53.4912 36.7692 53.5263 36.7575C53.6434 36.7224 53.8072 36.6288 53.854 36.6054C54.0061 36.5117 54.1466 36.3947 54.2636 36.266C54.3806 36.1138 54.4859 35.95 54.5679 35.7862C54.6498 35.5989 54.6966 35.4117 54.7317 35.2713C54.8487 34.8617 54.6381 34.967 54.3689 35.0723H54.3806Z" fill="#FBB428"/>
<path d="M55.4801 33.2349C55.4801 33.2349 55.4333 33.153 55.3865 33.1647C55.0472 33.3754 54.5323 33.4339 54.1578 33.6913C53.9471 33.8318 53.7482 34.019 53.6078 34.2296C53.5141 34.3467 53.4439 34.4754 53.3854 34.6041C53.2801 34.8616 53.5727 34.885 53.7599 34.885C53.8418 34.885 53.9237 34.8616 54.0056 34.8499C54.2982 34.8031 54.5557 34.6392 54.7897 34.4637C54.8716 34.3935 55.094 34.1945 55.1642 34.0658C55.2578 33.9254 55.3865 33.586 55.4099 33.5158C55.4333 33.4573 55.4567 33.3988 55.4684 33.3403C55.4684 33.3403 55.4684 33.3168 55.4684 33.3051C55.4684 33.3051 55.4684 33.2583 55.4684 33.2349H55.4801Z" fill="#FBB428"/>
<path d="M56.6391 30.789C56.6391 30.789 56.6157 30.7188 56.5806 30.7188C56.4636 30.7305 56.4987 30.7422 56.4051 30.7539C55.6912 30.9177 54.9891 31.0581 54.5678 31.8071C54.4859 31.9475 54.404 32.0762 54.3572 32.205C54.3221 32.2635 54.2987 32.3103 54.2753 32.3688C54.2753 32.3688 54.2753 32.3688 54.2753 32.3805C54.2753 32.3922 54.2753 32.4156 54.2635 32.4273C54.2635 32.4624 54.2635 32.4975 54.2635 32.5209C54.287 32.556 54.3221 32.5794 54.3689 32.5911C54.3689 32.5911 54.3689 32.5911 54.3572 32.5911C54.4508 32.6379 54.5795 32.6614 54.6848 32.6614C54.8487 32.6614 55.0359 32.6614 55.2349 32.5911C55.2934 32.5911 55.5508 32.4156 55.6561 32.3103C55.8083 32.1933 56.0072 32.0177 56.1593 31.8071C56.2764 31.6549 56.3466 31.4677 56.4285 31.2922C56.4519 31.2337 56.487 31.1751 56.5104 31.1166C56.5104 31.1049 56.5221 31.0815 56.5338 31.0698C56.5338 31.0698 56.5455 31.0464 56.5572 31.0113C56.5806 30.9645 56.604 30.9177 56.604 30.8592C56.604 30.906 56.6274 30.8007 56.6157 30.7773L56.6391 30.789Z" fill="#FBB428"/>
<path d="M57.7868 28.718C57.7868 28.718 57.7517 28.718 57.74 28.718C57.74 28.718 57.7049 28.718 57.6815 28.7297C57.5528 28.7531 57.4241 28.7648 57.2836 28.7765C57.0379 28.7765 56.7804 28.835 56.5464 28.9403C56.3825 28.9988 56.2304 29.0807 56.09 29.1744C55.8325 29.3616 55.6219 29.6191 55.4815 29.8999C55.4581 29.9584 55.4346 30.0169 55.4463 30.0755C55.4463 30.0755 55.4463 30.0755 55.4463 30.0989C55.4463 30.1457 55.4698 30.1808 55.5049 30.2159C55.5985 30.2978 55.7389 30.3212 55.8676 30.3446C56.7336 30.3797 57.4241 29.7244 57.7868 29.1042C57.8336 29.0105 57.9039 28.9286 57.9273 28.835C57.939 28.7648 57.8805 28.6946 57.7985 28.718H57.7868Z" fill="#FBB428"/>
<path d="M59.0263 27.3133C59.0263 27.2548 58.9795 27.1963 58.9092 27.1963C58.8624 27.1963 58.8273 27.208 58.7805 27.208C58.488 27.208 58.1954 27.208 57.9145 27.2665C57.6454 27.3133 57.3996 27.442 57.1773 27.6059C57.1305 27.641 57.0837 27.6761 57.0486 27.7112C56.9198 27.7931 56.7911 27.8867 56.6741 28.0038C56.5922 28.0857 56.5337 28.1676 56.4634 28.2612C56.4166 28.3314 56.3464 28.4133 56.4049 28.4953C56.4985 28.5889 56.6507 28.6006 56.7794 28.6006C57.072 28.624 57.3528 28.5538 57.622 28.4602C58.1018 28.308 58.5348 28.0623 58.839 27.6644C58.921 27.5591 58.9561 27.5006 58.9912 27.4303C59.0146 27.3601 59.0146 27.3601 59.0263 27.3367C59.0263 27.325 59.0263 27.3133 59.0263 27.3016V27.3133Z" fill="#FBB428"/>
<path d="M59.1203 25.0668C59.1203 25.0668 59.1203 25.0434 59.1203 25.02C59.0969 24.9615 59.0383 24.8913 58.9681 24.9264C58.7575 25.0083 58.5585 25.1019 58.3596 25.1956C57.95 25.4062 57.5521 25.7222 57.4234 26.1786C57.3181 26.4828 57.2596 26.7988 57.2362 27.1148C57.2362 27.1148 57.2362 27.1382 57.2362 27.1499C57.2362 27.185 57.2245 27.2084 57.2128 27.2435C57.2128 27.2435 57.2128 27.2435 57.2128 27.2552C57.2128 27.2669 57.2128 27.2786 57.2128 27.2903C57.2128 27.2903 57.2128 27.3137 57.2128 27.3254C57.2128 27.3722 57.283 27.3839 57.3064 27.3371C57.3532 27.3137 57.3883 27.2786 57.4234 27.2552C57.4702 27.2318 57.6458 27.1616 57.7394 27.1265C58.067 26.9743 58.4064 26.7988 58.6756 26.5296C58.9213 26.2839 59.0383 25.9562 59.0969 25.6286C59.132 25.4413 59.1788 25.1956 59.1554 25.0668H59.1203Z" fill="#FBB428"/>
<path d="M56.7225 27.8637C56.7459 27.7935 56.8395 27.5243 56.8629 27.3605C56.8746 27.2317 56.8629 27.103 56.8629 26.986C56.8629 26.8105 56.8161 26.6349 56.7693 26.4594C56.7108 26.3073 56.6406 26.1668 56.5821 26.0147C56.5587 25.9562 56.5352 25.9094 56.5118 25.8509C56.5001 25.8157 56.465 25.7689 56.4182 25.7806C56.3714 25.7806 56.348 25.8157 56.3246 25.8509C56.2895 25.9211 56.2895 25.9211 56.2661 25.9562C56.1842 26.0849 56.1023 26.1902 56.0086 26.3541C55.8916 26.553 55.7395 26.9275 55.7161 27.0679C55.6576 27.2668 55.6927 27.4892 55.7395 27.6998C55.7863 27.852 55.8448 27.9573 55.9033 28.0626C55.9852 28.2147 56.1023 28.3552 56.2427 28.4488C56.2778 28.4722 56.3129 28.4956 56.3363 28.5073C56.3948 28.5073 56.4533 28.4605 56.4299 28.402C56.5235 28.2264 56.6406 28.0626 56.7225 27.8754V27.8637Z" fill="#FBB428"/>
<path d="M55.5287 29.7241C55.5404 29.6772 55.5521 29.6187 55.5521 29.5719C55.6106 29.4315 55.6574 29.2794 55.6691 29.1155C55.6808 28.94 55.6691 28.7645 55.634 28.6006C55.5872 28.3783 55.5404 28.2144 55.3765 28.0272C55.2478 27.8634 55.0957 27.7346 54.9435 27.6059C54.9084 27.5708 54.8733 27.5357 54.8382 27.5006C54.7329 27.4304 54.6627 27.5591 54.6276 27.6527C54.5574 27.8166 54.452 28.0623 54.3701 28.3432C54.335 28.5187 54.335 28.5772 54.3467 28.7411C54.3467 28.8464 54.3935 28.9517 54.4286 29.057C54.452 29.1389 54.5223 29.2677 54.5925 29.3847C54.7212 29.5719 54.9084 29.7007 55.0957 29.806C55.1659 29.8528 55.2361 29.8762 55.318 29.8996C55.318 29.8996 55.318 29.8996 55.3297 29.8996C55.3648 29.9113 55.3999 29.9113 55.4233 29.8996C55.4702 29.8645 55.4819 29.7943 55.4936 29.7358L55.5287 29.7241Z" fill="#FBB428"/>
<path d="M54.3101 32.0414C54.3335 31.936 54.3569 31.8424 54.3803 31.7371C54.4271 31.4445 54.4271 31.1403 54.3803 30.8477C54.3335 30.5551 54.1814 30.286 54.0058 30.0519C53.9239 29.9466 53.8537 29.8296 53.7718 29.7126C53.6899 29.5721 53.6079 29.4902 53.5026 29.6775C53.3739 29.9232 53.2569 30.1807 53.1984 30.4615C53.093 30.9998 53.1749 31.4913 53.4558 31.9594C53.5494 32.1116 53.7016 32.2286 53.842 32.3339C53.9005 32.369 53.9473 32.4158 54.0058 32.4509C54.0409 32.4743 54.0877 32.4977 54.1228 32.486C54.158 32.4743 54.1697 32.4509 54.1814 32.4158C54.1814 32.4158 54.1931 32.4041 54.1931 32.3924C54.1931 32.3924 54.1931 32.369 54.1931 32.3573C54.1931 32.3456 54.2048 32.3222 54.2165 32.2988C54.2399 32.2169 54.2633 32.135 54.275 32.0531L54.3101 32.0414Z" fill="#FBB428"/>
<path d="M53.4806 33.7965C53.5274 33.4922 53.504 33.1646 53.2817 32.8603C53.071 32.5795 52.8721 32.3571 52.5912 32.2167C52.521 32.1816 52.4274 32.2167 52.4274 32.2986C52.4157 32.3805 52.404 32.4624 52.3806 32.5326C52.287 32.8837 52.2285 33.2465 52.287 33.6093C52.3689 34.1125 52.5795 34.5338 52.9306 34.7912C52.9189 34.7912 52.954 34.8146 52.9657 34.8146C53.0008 34.838 53.0359 34.8497 53.0593 34.8731C53.0827 34.8731 53.1178 34.9082 53.153 34.9082C53.1764 34.9082 53.1881 34.8614 53.1647 34.838C53.2115 34.7795 53.2349 34.6859 53.2583 34.6157C53.3402 34.3465 53.4221 34.0657 53.4572 33.7731L53.4806 33.7965Z" fill="#FBB428"/>
<path d="M58.0449 26.3772C58.0449 26.3772 58.0098 26.3421 57.9981 26.3655C57.8108 26.5644 57.6236 26.7751 57.4598 26.9857C57.3076 27.1495 57.1555 27.3251 57.0151 27.5006C56.6406 27.9687 56.3012 28.4602 55.9384 28.9283C55.5757 29.4432 55.3299 29.8645 55.014 30.4379C54.8852 30.672 54.7448 30.8943 54.6278 31.1284C54.3703 31.6784 54.1129 32.2167 53.8905 32.7667C53.715 33.2348 53.5628 33.7146 53.4107 34.1944C53.2586 34.6859 53.0948 35.1774 52.9543 35.6806C52.8256 36.1838 52.7203 36.687 52.6267 37.2019C52.5681 37.5647 52.4979 38.0445 52.4979 38.3488C52.4979 38.3956 52.4979 38.4424 52.4979 38.4892C52.4979 38.5126 52.533 38.536 52.5564 38.536C52.615 38.536 52.6149 38.4658 52.6267 38.419C52.6501 38.302 52.6618 38.1849 52.6852 38.0796C52.7554 37.7051 52.8256 37.3424 52.9075 36.9679C53.1299 35.9147 53.4224 35.0721 53.7735 34.0423C53.9022 33.6795 54.0192 33.305 54.1597 32.9422C54.265 32.6614 54.4054 32.3922 54.5107 32.1114C54.6512 31.7954 54.7682 31.4794 54.9203 31.1635C55.0608 30.8709 55.2246 30.5783 55.3884 30.2975C55.7278 29.6773 56.0087 29.2209 56.348 28.7177C56.6172 28.3081 56.8863 27.9102 57.1789 27.5123C57.2959 27.3602 57.4129 27.2197 57.53 27.0676C57.647 26.9038 57.7757 26.7282 57.9045 26.5761C57.9513 26.5293 57.9864 26.4708 58.0332 26.424C58.0332 26.424 58.0332 26.4123 58.0332 26.4006L58.0449 26.3772Z" fill="#D58940"/>
<path d="M56.1482 33.7498C55.8556 33.9721 55.5514 34.1827 55.2705 34.4285C54.9194 34.7211 54.6035 35.0487 54.2758 35.3764C54.0886 35.5636 53.9364 35.786 53.7492 35.9615C53.5503 36.1371 53.363 36.336 53.1407 36.5115C53.1173 36.5232 53.0939 36.5349 53.0822 36.5583C53.0822 36.5817 53.1056 36.5934 53.1173 36.5817C53.2577 36.4881 53.3864 36.3711 53.5151 36.2541C53.6322 36.1371 53.7609 36.0317 53.8779 35.9147C54.0535 35.7275 54.2056 35.5285 54.3928 35.3647C54.6854 35.0838 54.9311 34.8264 55.2354 34.5806C55.528 34.3232 55.8439 34.0891 56.1482 33.8434C56.1599 33.8317 56.195 33.82 56.195 33.7966C56.195 33.7732 56.1599 33.7498 56.1365 33.7615L56.1482 33.7498Z" fill="#FBB428"/>
<path d="M57.1319 31.7017C57.1319 31.7017 57.0383 31.7602 56.9915 31.7836C56.7223 31.9591 56.4532 32.1464 56.2074 32.3687C55.9734 32.5676 55.7627 32.8017 55.5404 33.0123C55.2478 33.3166 54.9787 33.656 54.6627 33.9485C54.5106 34.089 54.2531 34.2528 54.0659 34.3932C53.984 34.4517 53.9021 34.4868 53.8318 34.5336C53.8084 34.5454 53.8318 34.5922 53.8552 34.5805C54.1361 34.4283 54.4053 34.2528 54.6627 34.0538C55.0021 33.7613 55.3063 33.4336 55.6106 33.106C55.7861 32.9421 56.0319 32.6847 56.1723 32.5559C56.4649 32.2868 56.7809 32.0527 57.1085 31.8187C57.1319 31.807 57.1553 31.7953 57.167 31.7719C57.1787 31.7485 57.167 31.7251 57.1436 31.7134L57.1319 31.7017Z" fill="#FBB428"/>
<path d="M58.255 29.4785C58.255 29.4785 58.138 29.537 58.0795 29.5604C57.588 29.8413 57.1082 30.1455 56.6752 30.52C56.3241 30.8126 56.0199 31.1402 55.6922 31.4328C55.5752 31.5498 55.4347 31.6435 55.306 31.7371C55.1305 31.8658 54.9666 31.9945 54.7677 32.0764C54.6741 32.1115 54.5922 32.1584 54.4985 32.1701C54.4868 32.1701 54.4634 32.1701 54.4517 32.1818C54.44 32.1935 54.4517 32.2286 54.4751 32.2286C54.8028 32.1701 55.0837 31.9828 55.3411 31.7839C55.739 31.5147 56.1018 31.1402 56.4294 30.836C56.9561 30.3445 57.5763 29.9583 58.1965 29.5838C58.2316 29.5604 58.2667 29.5487 58.2901 29.5253C58.3018 29.5019 58.2901 29.4785 58.2667 29.4668L58.255 29.4785Z" fill="#FBB428"/>
<path d="M59.1669 28.0039C59.1669 28.0039 59.0849 28.0273 59.0381 28.039C58.5466 28.2964 58.0668 28.6007 57.6104 28.9284C57.236 29.1858 56.8147 29.4316 56.4519 29.6305C56.3232 29.7007 56.1359 29.7827 56.0306 29.8061C55.9604 29.8295 55.8785 29.8178 55.8083 29.8295C55.7732 29.8412 55.7966 29.8997 55.8317 29.888C56.0423 29.888 56.2412 29.8178 56.4168 29.7359C56.6508 29.6188 56.8849 29.4901 57.1072 29.3497C57.4349 29.1624 57.7392 28.9401 58.0434 28.7411C58.4062 28.5188 58.769 28.2965 59.1318 28.0858C59.1435 28.0858 59.1669 28.0741 59.1786 28.0507C59.1903 28.039 59.1786 28.0039 59.1786 27.9922L59.1669 28.0039Z" fill="#FBB428"/>
<path d="M60.8181 26.2485C60.8181 26.2485 60.7245 26.2485 60.6894 26.2485C60.5372 26.307 60.3734 26.3539 60.2213 26.4241C59.8234 26.5996 59.4372 26.8103 59.0978 27.0794C58.6765 27.4422 58.2084 27.7581 57.7286 27.9922C57.5297 28.0858 57.3425 28.156 57.1318 28.156C57.085 28.156 57.0499 28.156 56.9914 28.156H56.9797C56.968 28.156 56.9797 28.1911 56.9797 28.2028C57.3542 28.2731 57.7169 28.0858 58.0446 27.922C58.384 27.7464 58.7468 27.5124 59.051 27.2666C59.4723 26.939 59.9053 26.7166 60.3617 26.4943C60.4787 26.4358 60.5957 26.389 60.7128 26.3305C60.7479 26.307 60.8298 26.307 60.8181 26.2485Z" fill="#FBB428"/>
<path d="M59.7516 23.8848C59.7516 23.8848 59.6814 23.9667 59.6463 24.0135C59.3069 24.4465 58.991 24.8912 58.675 25.3359C58.5229 25.5465 58.3707 25.7455 58.2303 25.9678C58.2303 25.9912 58.1952 26.0146 58.1952 26.038H58.2186C58.3941 25.7572 58.6282 25.5114 58.8505 25.2657C59.0027 25.0784 59.1431 24.8795 59.2952 24.6922C59.4708 24.4582 59.6931 24.1773 59.8218 23.955C59.8335 23.9199 59.7984 23.8731 59.7516 23.8965V23.8848Z" fill="#FBB428"/>
<path d="M56.4293 25.7686C56.441 25.3239 56.5464 24.9143 56.6985 24.5164C56.7219 24.4696 56.6634 24.4228 56.6283 24.4696C56.523 24.727 56.441 24.9845 56.3942 25.2536C56.3123 25.7569 56.3357 26.2835 56.324 26.7867C56.324 27.0324 56.324 27.2548 56.3006 27.4771C56.3006 27.6058 56.2655 27.7346 56.2655 27.8633C56.2655 27.8984 56.324 27.8984 56.324 27.8633C56.441 27.1728 56.4059 26.4122 56.4293 25.7569V25.7686Z" fill="#FBB428"/>
<path d="M55.107 29.5021C55.107 29.5021 55.0485 29.3616 55.0134 29.2914C54.9548 29.1627 54.8963 28.9754 54.8846 28.8818C54.8261 28.601 54.8261 28.2967 54.8378 28.0041C54.8378 27.6297 54.8612 27.2669 54.8027 26.8924C54.791 26.7988 54.7676 26.7052 54.7325 26.6116C54.7208 26.5764 54.7208 26.5296 54.6857 26.5062C54.6506 26.4945 54.6155 26.5296 54.6272 26.553C54.8261 27.1499 54.6974 27.7584 54.7208 28.3435C54.7208 28.5659 54.7559 28.7999 54.8144 29.0106C54.8729 29.1978 54.9548 29.3499 55.0602 29.5138C55.0719 29.5372 55.1187 29.5138 55.1187 29.4904L55.107 29.5021Z" fill="#FBB428"/>
<path d="M53.8086 31.4796C53.4458 30.5785 53.75 29.6306 53.7383 28.6359C53.7383 28.5773 53.7266 27.7582 53.6447 27.922C53.7266 28.4837 53.6447 29.0337 53.5628 29.5955C53.4926 29.9816 53.4692 30.3912 53.5043 30.7774C53.516 31.0583 53.6213 31.3274 53.75 31.5732C53.7734 31.5966 53.7617 31.62 53.7851 31.6317C53.8086 31.6317 53.832 31.6317 53.8437 31.6083C53.8437 31.5732 53.8203 31.5147 53.8086 31.4678V31.4796Z" fill="#FBB428"/>
<path d="M52.9421 34.3466C52.9772 33.82 52.907 33.1647 52.7432 32.6147C52.673 32.3572 52.5911 32.0881 52.4857 31.8423C52.4155 31.6785 52.357 31.5615 52.2868 31.3976C52.2517 31.304 52.2283 31.2221 52.2049 31.1168C52.2049 31.0817 52.2049 31.0466 52.1932 31.0231C52.1815 31.0114 52.1464 31.0231 52.1464 31.0466C52.1698 31.3274 52.2751 31.5615 52.3804 31.8306C52.4389 31.9827 52.474 32.1349 52.5208 32.2987C52.6145 32.6264 52.7198 32.9657 52.7783 33.3402C52.8251 33.6562 52.8251 33.9722 52.8602 34.2998C52.8602 34.3466 52.8602 34.3817 52.8836 34.4051C52.907 34.4286 52.9538 34.4051 52.9421 34.37V34.3466Z" fill="#FBB428"/>
<path d="M52.2747 36.0553C52.2747 36.0553 52.2513 35.9968 52.2396 35.9734C52.064 35.6223 51.947 35.2244 51.8885 34.8851C51.7949 34.2882 51.7481 33.6563 51.6193 33.0361C51.5842 32.8956 51.5608 32.7435 51.5257 32.6031C51.5257 32.568 51.5257 32.5329 51.5023 32.4978C51.4906 32.4861 51.4555 32.4978 51.4672 32.5212C51.4789 32.7318 51.5374 32.9424 51.5608 33.1531C51.6076 33.4222 51.631 33.7031 51.6544 33.984C51.6895 34.3584 51.7012 34.651 51.7715 35.0255C51.8651 35.4 51.9938 35.7744 52.2279 36.0904C52.2396 36.1138 52.2747 36.0904 52.2747 36.0787V36.0553Z" fill="#FBB428"/>
<path d="M52.1109 33.8435V62.2336H46.0256V48.9748L32.5327 35.4467L30.9412 33.8435H52.1109Z" fill="#ABAAAA"/>
<path d="M52.1109 33.8435V35.4467H32.5327L30.9412 33.8435H52.1109Z" fill="#5F5B5B"/>
<path d="M52.1105 48.9746H46.0253V50.4257H52.1105V48.9746Z" fill="#5F5B5B"/>
<path d="M52.1105 60.7939H46.0253V62.245H52.1105V60.7939Z" fill="#5F5B5B"/>
<g style="mix-blend-mode:multiply" opacity="0.25">
<path d="M48.3655 49.2554V60.7121C48.3655 60.7121 48.3655 60.7706 48.3655 60.794C48.3304 61.1919 47.9676 61.5195 47.5229 61.5195C47.0782 61.5195 46.7271 61.1919 46.6803 60.794C46.6803 60.7706 46.6803 60.7355 46.6803 60.7121V49.2905C46.6803 49.1735 46.6569 49.0681 46.6101 48.9628C46.575 48.8809 46.5165 48.799 46.4463 48.7405L33.1172 35.4465L32.0406 34.3699C31.9001 34.2294 31.8182 34.0422 31.8065 33.8433H35.9024V34.1592C35.9024 34.3348 35.9726 34.5103 36.0896 34.6624L36.7684 35.4582L48.1782 48.7639C48.2367 48.8341 48.2718 48.9043 48.3187 48.9862C48.3538 49.0798 48.3772 49.1735 48.3772 49.2788L48.3655 49.2554Z" fill="#5F5B5B"/>
</g>
<path d="M73.2692 33.8433L71.666 35.4465L58.1848 48.9745V62.2334H52.1112V33.8433H73.2692Z" fill="#ABAAAA"/>
<path d="M73.2692 33.8433L71.666 35.4465H52.1112V33.8433H73.2692Z" fill="#5F5B5B"/>
<path d="M58.1848 48.9746H52.0995V50.4257H58.1848V48.9746Z" fill="#5F5B5B"/>
<path d="M58.1848 60.7939H52.0995V62.245H58.1848V60.7939Z" fill="#5F5B5B"/>
<path opacity="0.34" d="M68.3184 33.8432H72.4026C72.4026 34.0422 72.309 34.2411 72.1685 34.3698L71.0919 35.4465L57.7628 48.7404C57.6926 48.8106 57.6458 48.8809 57.6107 48.9628C57.5522 49.0681 57.5288 49.1734 57.5288 49.2904V60.712C57.5288 60.712 57.5288 60.7705 57.5288 60.7939C57.4937 61.1918 57.1309 61.5195 56.6979 61.5195C56.2649 61.5195 55.9022 61.1918 55.8553 60.7939C55.8553 60.7705 55.8553 60.7354 55.8553 60.712V49.2553C55.8553 49.15 55.867 49.0564 55.9256 48.9628C55.949 48.8809 55.9958 48.8106 56.0543 48.7404L67.4642 35.4348L68.1429 34.639C68.2716 34.4986 68.3418 34.3113 68.3418 34.1358V33.8198L68.3184 33.8432Z" fill="white"/>
<path d="M69.5468 109.944H76.814V108.446L69.5468 108.177V109.944Z" fill="#648D3D"/>
<path d="M69.5468 106.621H76.814V105.123L69.5468 104.866V106.621Z" fill="#648D3D"/>
<path d="M69.5468 103.297H76.814V101.811L69.5468 101.542V103.297Z" fill="#648D3D"/>
<path d="M65.9323 57.7866H36.4538C34.4527 57.7866 32.8378 58.9452 32.8378 60.3729V112.8C32.8378 114.227 34.4527 115.386 36.4538 115.386H65.9323C67.9334 115.386 69.5483 114.227 69.5483 112.8V60.3729C69.5483 58.9452 67.9334 57.7866 65.9323 57.7866Z" fill="#9DBC5C"/>
<path d="M161.88 99.6228H77.4817C74.1015 99.6228 71.3613 102.363 71.3613 105.743C71.3613 109.123 74.1015 111.864 77.4817 111.864H161.88C165.26 111.864 168 109.123 168 105.743C168 102.363 165.26 99.6228 161.88 99.6228Z" fill="#648D3D"/>
<path d="M78.7112 109.652C80.8699 109.652 82.6198 107.902 82.6198 105.743C82.6198 103.584 80.8699 101.834 78.7112 101.834C76.5526 101.834 74.8026 103.584 74.8026 105.743C74.8026 107.902 76.5526 109.652 78.7112 109.652Z" fill="#90B83E"/>
<path d="M160.451 109.652C162.61 109.652 164.36 107.902 164.36 105.743C164.36 103.584 162.61 101.834 160.451 101.834C158.293 101.834 156.543 103.584 156.543 105.743C156.543 107.902 158.293 109.652 160.451 109.652Z" fill="#90B83E"/>
<path d="M129.042 111.864V113.42H122.957L117.492 118.885H69.5468V117.071H116.45L120.23 113.291H116.883L114.718 111.864H129.042Z" fill="#462820"/>
<path d="M69.5468 96.627C70.0383 96.7089 83.8705 99.0143 83.8705 99.0143L83.695 99.6228H81.53L69.5468 97.6685V96.627Z" fill="#648D3D"/>
<path d="M24.8792 109.067H22.41V107.908C22.41 104.69 25.0314 102.069 28.2495 102.069H32.8369V104.538H28.2495C26.3889 104.538 24.8792 106.047 24.8792 107.908V109.067Z" fill="#9DBC5C"/>
<path d="M63.0988 55.3408H58.1837C57.505 55.3408 56.9667 55.8908 56.9667 56.5579V57.7749H64.3158V56.5579C64.3158 55.8791 63.7658 55.3408 63.0988 55.3408Z" fill="#386E89"/>
<path d="M46.3058 55.3408H41.3908C40.712 55.3408 40.1737 55.8908 40.1737 56.5579V57.7749H47.5228V56.5579C47.5228 55.8791 46.9728 55.3408 46.3058 55.3408Z" fill="#386E89"/>
<path d="M30.3905 101.46V106.375C30.3905 107.054 30.9405 107.592 31.6076 107.592H32.8246V100.243H31.6076C30.9288 100.243 30.3905 100.793 30.3905 101.46Z" fill="#386E89"/>
<path d="M28.787 71.1272V87.2766C28.787 87.9553 29.337 88.4936 30.004 88.4936H32.836V69.9102H30.004C29.3253 69.9102 28.787 70.4602 28.787 71.1272Z" fill="#386E89"/>
<path d="M26.7633 73.9829V84.4098C26.7633 85.0885 27.3133 85.6268 27.9804 85.6268H28.7878V72.7542H27.9804C27.3016 72.7542 26.7633 73.3042 26.7633 73.9712V73.9829Z" fill="#648D3D"/>
<path d="M62.0354 88.4939H40.0231C38.3848 88.4939 37.0624 87.1715 37.0624 85.5332V71.6775C37.0624 70.0392 38.3848 68.7168 40.0231 68.7168H62.0237C63.662 68.7168 64.9844 70.0392 64.9844 71.6775V85.5332C64.9844 87.1715 63.662 88.4939 62.0237 88.4939H62.0354Z" fill="#386E89"/>
<mask id="mask0_1226_1210" style="mask-type:luminance" maskUnits="userSpaceOnUse" x="39" y="70" width="24" height="17">
<path d="M60.1624 86.8087H41.9066C40.5491 86.8087 39.4491 85.7086 39.4491 84.3511V72.8476C39.4491 71.4902 40.5491 70.3901 41.9066 70.3901H60.1624C61.5199 70.3901 62.6199 71.4902 62.6199 72.8476V84.3511C62.6199 85.7086 61.5199 86.8087 60.1624 86.8087Z" fill="white"/>
</mask>
<g mask="url(#mask0_1226_1210)">
<path d="M60.1624 86.8087H41.9066C40.5491 86.8087 39.4491 85.7086 39.4491 84.3511V72.8476C39.4491 71.4902 40.5491 70.3901 41.9066 70.3901H60.1624C61.5199 70.3901 62.6199 71.4902 62.6199 72.8476V84.3511C62.6199 85.7086 61.5199 86.8087 60.1624 86.8087Z" fill="#D2E8F2"/>
<path opacity="0.39" d="M50.1837 63.671L48.0858 62.8345L34.159 97.7601L36.2569 98.5966L50.1837 63.671Z" fill="white"/>
<path opacity="0.39" d="M56.769 64.7746L54.0624 63.6953L40.1355 98.6209L42.8422 99.7002L56.769 64.7746Z" fill="white"/>
</g>
<path d="M167.181 114.532C166.303 112.917 164.782 111.852 163.062 111.852H27.3485C25.6282 111.852 24.1186 112.917 23.2292 114.532C22.7143 115.48 22.41 116.615 22.41 117.832C22.41 121.132 24.6218 123.8 27.3485 123.8H163.073C165.8 123.8 168.012 121.12 168.012 117.832C168.012 116.615 167.707 115.48 167.193 114.532H167.181Z" fill="#386E89"/>
<path d="M153.559 99.6579H82.7712C83.8011 98.1951 83.3915 96.5333 84.3394 95.0705C84.8309 94.3099 85.7554 93.4673 87.7565 93.2684C87.8384 92.7652 88.3416 89.664 90.6353 87.9789C91.8406 87.1012 93.0226 86.9959 93.6428 86.9607C94.0992 86.0011 95.3631 83.6139 97.8323 82.1393C99.5291 81.1563 101.097 81.0159 101.975 81.0393C102.923 79.5999 104.596 77.4116 107.194 75.6913C108.247 74.9892 114.356 70.9635 119.423 73.9125C122.372 75.5977 123.203 78.6169 126.082 78.5935C127.592 78.5701 127.603 77.7743 129.324 77.4701C133.595 76.7328 137.363 80.8755 138.498 82.1393C139.423 83.1575 140.757 84.866 141.939 87.4874C142.711 87.5693 143.87 87.8501 145.157 88.5874C145.871 89.0087 147.884 90.2257 149.3 93.0343C150.329 95.0939 150.587 97.0951 150.657 98.2419C150.868 98.2185 152.354 98.0781 153.454 99.5058C153.501 99.5643 153.524 99.5877 153.536 99.6462L153.559 99.6579Z" fill="#F5C14E"/>
<path d="M114.742 95.9875C116.472 95.9113 117.856 95.4256 117.833 94.9026C117.81 94.3796 116.389 94.0174 114.658 94.0936C112.928 94.1697 111.544 94.6554 111.567 95.1784C111.59 95.7014 113.011 96.0637 114.742 95.9875Z" fill="#F5EFD7"/>
<path d="M114.146 95.4273C114.643 95.4054 115.043 95.3092 115.038 95.2123C115.034 95.1155 114.628 95.0547 114.131 95.0766C113.633 95.0985 113.234 95.1947 113.238 95.2916C113.242 95.3884 113.649 95.4492 114.146 95.4273Z" fill="white"/>
<path d="M112.8 95.1875C112.871 95.1875 112.929 95.2226 112.929 95.2694C112.929 95.3162 112.871 95.3513 112.8 95.363C112.73 95.363 112.672 95.3279 112.672 95.2811C112.672 95.2343 112.73 95.1992 112.8 95.1875Z" fill="white"/>
<path d="M132.767 88.5381C133.687 87.3294 134.112 86.1053 133.716 85.804C133.32 85.5026 132.253 86.2381 131.333 87.4468C130.413 88.6554 129.989 89.8796 130.385 90.1809C130.781 90.4823 131.848 89.7468 132.767 88.5381Z" fill="#FFE4B0"/>
<path d="M132.355 87.5928C132.097 87.9439 131.817 88.1663 131.746 88.1194C131.676 88.0609 131.817 87.7333 132.086 87.3939C132.355 87.0545 132.624 86.8205 132.694 86.8673C132.764 86.9141 132.624 87.2535 132.355 87.5928Z" fill="white"/>
<path d="M133.022 86.6447C133.022 86.6447 132.929 86.7149 132.893 86.6915C132.858 86.6681 132.858 86.5979 132.893 86.5511C132.929 86.5043 132.987 86.4809 133.022 86.5043C133.057 86.5277 133.057 86.5979 133.022 86.6447Z" fill="white"/>
<path d="M114.533 97.8671C116.263 97.791 117.647 97.3053 117.624 96.7823C117.601 96.2593 116.18 95.897 114.449 95.9732C112.719 96.0493 111.335 96.5351 111.358 97.0581C111.381 97.5811 112.802 97.9433 114.533 97.8671Z" fill="#FFE4B0"/>
<path d="M113.911 96.943C114.402 96.9196 114.812 96.9898 114.812 97.0834C114.812 97.1888 114.414 97.2824 113.922 97.3058C113.431 97.3292 113.021 97.259 113.021 97.1654C113.021 97.06 113.419 96.9664 113.911 96.943Z" fill="white"/>
<path d="M112.59 97.0601C112.66 97.0601 112.718 97.0952 112.718 97.142C112.718 97.1888 112.66 97.2239 112.59 97.2356C112.519 97.2356 112.461 97.2005 112.461 97.1537C112.461 97.1069 112.519 97.0718 112.59 97.0601Z" fill="white"/>
<path d="M122.228 93.1213C123.959 93.0451 125.343 92.5594 125.32 92.0364C125.297 91.5134 123.875 91.1512 122.145 91.2273C120.414 91.3035 119.03 91.7892 119.053 92.3122C119.076 92.8352 120.498 93.1975 122.228 93.1213Z" fill="#F5EFD7"/>
<path d="M121.612 92.215C122.103 92.1916 122.513 92.2618 122.513 92.3554C122.513 92.4607 122.115 92.5544 121.624 92.5778C121.132 92.6012 120.723 92.5309 120.723 92.4373C120.723 92.332 121.12 92.2384 121.612 92.215Z" fill="white"/>
<path d="M120.3 92.3203C120.371 92.3203 120.429 92.3554 120.429 92.4022C120.429 92.449 120.371 92.4841 120.3 92.4959C120.23 92.4959 120.172 92.4607 120.172 92.4139C120.172 92.3671 120.23 92.332 120.3 92.3203Z" fill="white"/>
<path d="M126.431 89.3958C127.542 88.4091 128.204 87.3388 127.908 87.0052C127.612 86.6717 126.47 87.2012 125.359 88.188C124.247 89.1747 123.586 90.245 123.882 90.5785C124.178 90.9121 125.319 90.3825 126.431 89.3958Z" fill="#FFE4B0"/>
<path d="M125.532 89.1142C125.848 88.8333 126.153 88.6578 126.211 88.7163C126.27 88.7748 126.059 89.0557 125.743 89.3482C125.427 89.6291 125.123 89.8046 125.064 89.7461C125.006 89.6876 125.216 89.4068 125.532 89.1142Z" fill="white"/>
<path d="M124.712 89.8981C124.712 89.8981 124.818 89.8513 124.841 89.8747C124.865 89.9098 124.841 89.9566 124.806 90.0034C124.759 90.0503 124.701 90.0503 124.677 90.0268C124.654 89.9917 124.677 89.9449 124.712 89.8981Z" fill="white"/>
<path d="M137.06 98.1701C137.139 97.6198 135.693 96.9586 133.831 96.6933C131.969 96.428 130.396 96.659 130.318 97.2092C130.239 97.7595 131.685 98.4207 133.547 98.686C135.409 98.9513 136.982 98.7203 137.06 98.1701Z" fill="#FFE4B0"/>
<path d="M133.069 97.5982C133.596 97.6685 134.017 97.8206 134.005 97.9259C133.994 98.0312 133.549 98.0546 133.011 97.9844C132.484 97.9142 132.063 97.7621 132.074 97.6567C132.086 97.5514 132.531 97.528 133.069 97.5982Z" fill="white"/>
<path d="M131.64 97.4578C131.722 97.4578 131.78 97.5164 131.769 97.5632C131.769 97.61 131.698 97.6451 131.616 97.6334C131.535 97.6334 131.476 97.5749 131.488 97.528C131.499 97.4812 131.558 97.4461 131.64 97.4578Z" fill="white"/>
<path d="M131.305 87.2754C132.047 85.4982 132.137 83.8435 131.505 83.5794C130.872 83.3154 129.758 84.542 129.016 86.3192C128.274 88.0964 128.184 89.7512 128.816 90.0152C129.449 90.2793 130.563 89.0526 131.305 87.2754Z" fill="#FFE4B0"/>
<path d="M130.399 86.2003C130.189 86.7035 129.919 87.078 129.791 87.0312C129.674 86.9844 129.744 86.528 129.954 86.0248C130.165 85.5216 130.434 85.1471 130.563 85.1939C130.692 85.2407 130.61 85.6971 130.399 86.2003Z" fill="white"/>
<path d="M130.903 84.8193C130.868 84.8895 130.798 84.9363 130.751 84.9129C130.704 84.8895 130.681 84.8076 130.704 84.7374C130.739 84.6672 130.81 84.6204 130.857 84.6438C130.915 84.6672 130.927 84.7491 130.903 84.8193Z" fill="white"/>
<path d="M96.7093 94.7022C98.4956 93.5972 99.7067 92.3182 99.4143 91.8455C99.1219 91.3728 97.4367 91.8854 95.6504 92.9904C93.864 94.0954 92.6529 95.3744 92.9453 95.8471C93.2377 96.3198 94.9229 95.8072 96.7093 94.7022Z" fill="#FFE4B0"/>
<path d="M96.7799 93.4675C96.265 93.7834 95.8086 93.9707 95.75 93.8771C95.6915 93.7834 96.066 93.4558 96.5692 93.1398C97.0841 92.8238 97.5405 92.6366 97.599 92.7302C97.6575 92.8238 97.2831 93.1515 96.7799 93.4675Z" fill="white"/>
<path d="M98.1005 92.5778C98.0303 92.6247 97.9484 92.6247 97.925 92.5778C97.9016 92.531 97.9367 92.4608 98.0186 92.414C98.0888 92.3672 98.1707 92.3672 98.1941 92.414C98.2175 92.4608 98.1824 92.531 98.1005 92.5778Z" fill="white"/>
<path d="M125.454 87.5523C127.24 86.4473 128.368 85.0346 127.974 84.397C127.58 83.7595 125.812 84.1384 124.025 85.2434C122.239 86.3484 121.111 87.761 121.505 88.3986C121.899 89.0362 123.667 88.6573 125.454 87.5523Z" fill="#FFE4B0"/>
<path d="M125.322 86.0245C124.807 86.3405 124.339 86.4926 124.257 86.3756C124.187 86.2586 124.538 85.8958 125.041 85.5798C125.556 85.2639 126.024 85.1117 126.106 85.2288C126.176 85.3458 125.825 85.7086 125.322 86.0245Z" fill="white"/>
<path d="M126.644 85.1116C126.574 85.1584 126.48 85.1467 126.445 85.0882C126.41 85.0297 126.445 84.9478 126.516 84.901C126.586 84.8541 126.679 84.8658 126.714 84.9244C126.75 84.9829 126.714 85.0648 126.644 85.1116Z" fill="white"/>
<path d="M131.133 82.1526C131.81 80.5305 131.944 79.0418 131.431 78.8276C130.918 78.6134 129.953 79.7547 129.276 81.3768C128.598 82.999 128.464 84.4876 128.977 84.7019C129.49 84.9161 130.455 83.7747 131.133 82.1526Z" fill="#FFE4B0"/>
<path d="M130.423 81.2384C130.224 81.7065 129.99 82.0459 129.896 81.9991C129.803 81.9522 129.873 81.5427 130.072 81.0863C130.271 80.6182 130.505 80.2788 130.598 80.3256C130.692 80.3724 130.622 80.782 130.423 81.2384Z" fill="white"/>
<path d="M130.88 79.9747C130.857 80.0449 130.799 80.08 130.752 80.0683C130.705 80.0449 130.693 79.9747 130.717 79.9162C130.74 79.8459 130.799 79.8108 130.845 79.8225C130.892 79.8459 130.904 79.9161 130.88 79.9747Z" fill="white"/>
<path d="M96.7024 92.5613C97.3747 91.2792 97.5671 90.0549 97.1321 89.8268C96.697 89.5987 95.7994 90.4532 95.1271 91.7353C94.4548 93.0175 94.2624 94.2418 94.6975 94.4699C95.1325 94.698 96.0301 93.8435 96.7024 92.5613Z" fill="#F9FBFC"/>
<path d="M96.1361 91.7235C95.9489 92.0863 95.7148 92.3554 95.6329 92.3086C95.551 92.2618 95.6329 91.9341 95.8319 91.5714C96.0191 91.2086 96.2532 90.9394 96.3351 90.9863C96.417 91.0331 96.3351 91.3607 96.1361 91.7235Z" fill="white"/>
<path d="M96.6034 90.729C96.6034 90.729 96.5215 90.8109 96.4864 90.7875C96.4513 90.7641 96.4396 90.7056 96.463 90.6588C96.4864 90.6003 96.5449 90.5769 96.58 90.6003C96.6151 90.6237 96.6268 90.6822 96.6034 90.729Z" fill="white"/>
<path d="M91.4123 95.0601C92.0801 93.7756 92.2682 92.5507 91.8324 92.3241C91.3965 92.0975 90.5019 92.9551 89.8341 94.2396C89.1662 95.5241 88.9782 96.7491 89.414 96.9757C89.8498 97.2023 90.7445 96.3447 91.4123 95.0601Z" fill="#FFE4B0"/>
<path d="M90.8451 94.2279C90.6579 94.5907 90.4355 94.8598 90.3419 94.813C90.26 94.7662 90.3419 94.4385 90.5409 94.064C90.7281 93.7013 90.9504 93.4321 91.0441 93.4789C91.126 93.5257 91.0441 93.8534 90.8451 94.2279Z" fill="white"/>
<path d="M91.3146 93.2216C91.3146 93.2216 91.2327 93.3035 91.1976 93.2801C91.1625 93.2567 91.1508 93.1982 91.1742 93.1514C91.1976 93.1046 91.2561 93.0695 91.2912 93.0929C91.3263 93.1163 91.338 93.1748 91.3146 93.2216Z" fill="white"/>
<path d="M106.564 84.926C108.354 83.8272 109.487 82.4185 109.095 81.7796C108.703 81.1406 106.934 81.5133 105.144 82.6121C103.353 83.7108 102.22 85.1195 102.612 85.7585C103.004 86.3975 104.774 86.0247 106.564 84.926Z" fill="#FFE4B0"/>
<path d="M106.445 83.4148C105.93 83.7307 105.462 83.8829 105.38 83.7541C105.31 83.6254 105.661 83.2743 106.164 82.9584C106.679 82.6424 107.147 82.4903 107.229 82.619C107.299 82.7477 106.948 83.0988 106.445 83.4148Z" fill="white"/>
<path d="M107.767 82.5139C107.697 82.5608 107.603 82.549 107.568 82.4905C107.533 82.432 107.568 82.3501 107.639 82.3033C107.709 82.2565 107.802 82.2682 107.837 82.3267C107.873 82.3852 107.837 82.4671 107.767 82.5139Z" fill="white"/>
</g>
<defs>
<clipPath id="clip0_1226_1210">
<rect width="145.59" height="123.812" fill="white" transform="translate(22.41)"/>
</clipPath>
</defs>
</svg>
