<svg width="46" height="71" viewBox="0 0 46 71" fill="none" xmlns="http://www.w3.org/2000/svg">
<path d="M34.0625 64.2679C34.0625 64.2679 34.0625 64.2157 34.0625 64.1375C34.0625 64.0592 34.0625 63.9288 34.0886 63.7723C34.1147 63.4593 34.1407 62.9898 34.1929 62.416C34.2451 61.8422 34.2972 61.1379 34.3755 60.3554C34.4537 59.5729 34.5059 58.6861 34.5842 57.7471C34.6624 56.8081 34.7406 55.7909 34.845 54.7476C34.9232 53.7043 35.0276 52.6088 35.1058 51.5394C35.158 50.4439 35.2362 49.3484 35.2884 48.2529C35.3406 47.1574 35.3667 46.088 35.3667 45.0447C35.3667 44.0275 35.3927 42.9581 35.5492 41.8365C35.6796 40.741 35.8622 39.6194 36.1231 38.4718C36.1752 38.1849 36.2535 37.8979 36.3056 37.611C36.3578 37.3241 36.436 37.0372 36.5143 36.7503C36.6447 36.1765 36.8012 35.6026 36.9577 35.0288C37.2968 33.8812 37.6359 32.7596 38.0271 31.638C38.4184 30.5425 38.7835 29.447 39.1487 28.3776C39.5138 27.3082 39.879 26.291 40.2181 25.3259C40.3746 24.8304 40.5311 24.3609 40.6876 23.9174C40.818 23.448 40.9484 23.0045 41.0267 22.5872C41.0788 22.3785 41.131 22.1699 41.1571 21.9612C41.2093 21.7526 41.2353 21.57 41.2614 21.3874C41.2875 21.2048 41.2875 21.0483 41.3136 20.8657C41.3136 20.7875 41.3136 20.7353 41.3136 20.6571C41.3136 20.631 41.3136 20.6049 41.3136 20.5788C41.3136 20.5788 41.3136 20.5788 41.3136 20.5527C41.3136 20.5527 41.3136 20.5788 41.2875 20.6049C41.2875 20.6049 41.2875 20.6049 41.3397 20.5527C41.3397 20.5527 41.3397 20.5527 41.3657 20.5527C41.3657 20.5527 41.3657 20.5527 41.3918 20.5527C41.3918 20.5527 41.4179 20.5527 41.444 20.5527C41.5223 20.5527 41.5744 20.6571 41.6527 20.7614C41.7831 20.9961 41.9396 21.4135 42.0439 22.0134C42.1482 22.5872 42.2265 23.3436 42.2526 24.2304C42.2526 25.0912 42.2526 26.0823 42.1743 27.1517C42.1222 28.2211 42.0178 29.3427 41.8874 30.5165C41.8352 31.0903 41.757 31.6641 41.6787 32.2379C41.6005 32.8118 41.5223 33.3856 41.444 33.9333C41.3658 34.4811 41.2614 35.0288 41.1832 35.5505C41.1049 36.0721 41.0006 36.5677 40.9223 37.0372C40.8441 37.5067 40.7398 37.9501 40.6615 38.3414C40.5572 38.7326 40.4528 39.0978 40.3746 39.4108C40.2442 39.9063 40.0616 40.4802 39.879 41.1322C39.6703 41.7843 39.4617 42.5407 39.2269 43.3754C39.1226 43.7927 38.9922 44.2361 38.8618 44.7056C38.7314 45.1751 38.5749 45.6707 38.4444 46.1924C38.314 46.714 38.1575 47.2357 38.0271 47.8095C37.8706 48.3833 37.7402 48.9572 37.5837 49.5831C37.036 52.061 36.41 54.9563 35.9666 58.321C35.7579 60.0164 35.5231 61.8161 35.3667 63.7462C35.2102 65.6764 35.158 67.7369 35.1058 69.9279C34.7667 67.9456 34.4537 66.0155 34.1929 64.1375L34.0625 64.2679Z" fill="#8FC03E"/>
<path d="M29.6543 43.4279C29.7325 43.6366 29.8369 43.8453 29.9412 44.0539C30.0716 44.2887 30.176 44.5234 30.3324 44.7582C30.7498 45.4102 31.1671 46.0884 31.3497 46.7926C31.3497 46.8187 31.3758 46.8448 31.4018 46.8448C31.4018 46.9231 31.5062 46.9491 31.5584 46.9231C31.6105 46.897 31.6105 46.8187 31.6366 46.7405C31.6888 46.4014 31.767 45.8797 31.8974 45.3581C31.9757 45.0451 32.0539 44.7582 32.1061 44.4452C32.1843 43.9235 32.2104 43.4018 32.1843 42.8802C32.1322 42.1499 32.0278 41.4456 31.7931 40.7414C31.6366 40.298 31.3236 39.6459 31.1932 39.3068C31.0889 39.0199 30.9324 38.5765 30.828 38.1852C30.7498 37.8462 30.7498 37.7158 30.7237 37.4028C30.7237 37.3245 30.6715 37.2202 30.5672 37.2723C30.4889 37.3245 30.4629 37.4549 30.4107 37.5332C30.2803 37.7418 30.1499 37.9505 30.0455 38.1592C29.8108 38.6547 29.6282 39.1764 29.4717 39.7241C29.3935 39.985 29.3413 40.2197 29.2891 40.4806C29.237 40.8196 29.237 41.1848 29.2891 41.5239C29.2891 41.8108 29.3152 42.1238 29.3674 42.4107C29.4456 42.7759 29.5239 43.1149 29.6282 43.454L29.6543 43.4279Z" fill="#FACF50"/>
<path d="M23.6055 41.6019C23.788 42.1497 24.075 42.6713 24.388 43.193C24.701 43.7668 25.0922 44.2885 25.5617 44.758C25.9269 45.1231 26.292 45.4622 26.7094 45.7491C27.1267 46.01 27.5701 46.2186 28.0657 46.3491C28.3787 46.4534 28.7178 46.5055 29.0568 46.5577C29.3437 46.6099 29.6046 46.662 29.8915 46.6881C30.2567 46.7142 30.5957 46.8185 30.8826 46.975C31.0652 47.0794 31.0913 47.1055 31.2478 47.2098C31.3 47.262 31.4043 47.262 31.4304 47.1837C31.4304 47.1576 31.4304 47.1055 31.4304 47.0794C31.4304 47.0794 31.4304 47.0533 31.4043 47.0272C31.3782 46.975 31.3261 46.9229 31.2739 46.8707C31.2739 46.8707 31.2739 46.8707 31.2739 46.8446C31.2478 46.7403 31.1956 46.662 31.1435 46.5577C31.0391 46.3751 30.9348 46.1925 30.8044 46.01C30.5696 45.6187 30.3349 45.2275 30.0741 44.8362C29.6307 44.2102 29.1611 43.6103 28.6134 43.0887C28.0917 42.5931 27.4397 42.2279 26.7615 41.9671C26.292 41.7845 25.7965 41.6802 25.327 41.5498C24.9096 41.4194 24.5184 41.315 24.1011 41.1846C23.9446 41.1324 23.9446 41.1324 23.8141 41.0542C23.7359 41.0542 23.6576 41.0542 23.6055 41.1324C23.6055 41.1846 23.6055 41.2368 23.6055 41.2889C23.6055 41.4194 23.6055 41.3672 23.6055 41.4454C23.6055 41.4976 23.6055 41.5498 23.6576 41.628L23.6055 41.6019Z" fill="#FACF50"/>
<path d="M27.1752 39.1501C27.4099 39.9586 27.749 40.7411 28.1663 41.4975C28.3489 41.8366 28.5836 42.1235 28.7662 42.4887C28.8184 42.567 28.9488 42.5409 28.9488 42.4626C28.9488 42.4626 28.9488 42.4365 28.9488 42.4105C28.9488 42.0714 28.9488 41.7584 28.9749 41.4193C28.9749 41.1063 29.027 40.7933 29.0792 40.4803C29.1314 40.063 29.1835 39.8022 29.2357 39.3587C29.2879 38.9153 29.34 38.498 29.3922 38.0546C29.4444 37.5068 29.4965 36.9591 29.4705 36.4114C29.4705 36.1244 29.4444 35.8114 29.3661 35.5245C29.2618 35.029 29.0531 34.5595 28.8706 34.09C28.7141 33.6987 28.5836 33.464 28.4793 32.9684C28.4793 32.8641 28.4271 32.7597 28.4271 32.6554C28.4271 32.5511 28.375 32.4207 28.2445 32.4467C28.1924 32.4467 28.1663 32.525 28.1402 32.5511C28.088 32.6293 28.0359 32.7076 27.9837 32.7858C27.8011 33.0727 27.6446 33.3857 27.5142 33.6987C27.3838 34.0117 27.2012 34.3247 27.0969 34.6377C26.9665 35.0029 26.8882 35.3159 26.8361 35.6028C26.81 35.8115 26.7578 36.0462 26.7578 36.2549C26.7578 36.4635 26.7578 36.6722 26.7578 36.8809C26.7578 37.6373 26.9404 38.3937 27.1491 39.124L27.1752 39.1501Z" fill="#FACF50"/>
<path d="M21.5969 37.1155C21.7795 37.5067 22.0142 37.8458 22.249 38.1849C22.5098 38.55 22.7967 38.8891 23.1097 39.2282C23.4749 39.5934 23.8661 39.9324 24.2574 40.2454C24.6486 40.5323 25.0659 40.8193 25.5094 41.0279C26.0832 41.2887 26.8135 41.5496 27.283 41.7322C27.4395 41.8104 27.596 41.8626 27.7264 41.9408C27.8568 42.0191 28.0916 42.2017 28.1177 42.2277C28.2742 42.3582 28.3785 42.5147 28.535 42.619C28.5871 42.6712 28.6654 42.6451 28.6654 42.5668C28.6654 42.5668 28.6654 42.5668 28.6654 42.5407C28.6393 42.4625 28.6132 42.4103 28.5611 42.3321C28.535 42.2799 28.4828 42.2277 28.4567 42.1756C28.2742 41.7061 28.0133 41.2888 27.7525 40.8453C27.4656 40.4019 27.0743 39.802 26.8135 39.489C26.6048 39.2021 26.4223 38.9152 26.1875 38.6544C25.6919 38.0545 25.092 37.5328 24.4139 37.1416C23.9444 36.8807 23.4227 36.6981 22.9532 36.4895C22.6141 36.333 22.1446 36.1765 21.9099 36.0721C21.7534 36.02 21.623 35.9157 21.4665 35.8374C21.3882 35.8374 21.2839 35.8635 21.2578 35.9417C21.2578 36.02 21.2578 36.0982 21.2578 36.1504C21.31 36.4634 21.4404 36.7764 21.5708 37.0633L21.5969 37.1155Z" fill="#FACF50"/>
<path d="M25.2209 36.0199C25.4556 36.6198 25.8208 37.1415 26.0555 37.6631C26.1338 37.7936 26.2903 37.6631 26.2381 37.5588C26.1859 37.4284 26.1337 37.3241 26.0816 37.1936C26.0816 37.1936 26.1077 37.1676 26.1077 37.1415C26.1598 36.8546 26.1338 36.5937 26.1598 36.3068C26.1859 36.0721 26.2642 35.733 26.3685 35.42C26.4989 34.9505 26.6293 34.5071 26.7858 34.0376C27.0467 33.2812 27.3075 32.4987 27.3857 31.6901C27.3857 31.4815 27.3857 31.2728 27.3857 31.0641C27.3857 30.8033 27.3336 30.5425 27.3075 30.3077C27.2553 29.8904 27.1249 29.4992 27.0467 29.1079C26.9945 28.821 26.9423 28.4819 26.9163 28.2993C26.9163 28.2211 26.9163 28.1168 26.9163 28.0385C26.9163 27.9863 26.9162 27.9081 26.8902 27.8559C26.838 27.7516 26.6815 27.7777 26.6554 27.8559C26.3946 28.3254 26.1598 28.5602 25.8729 28.9514C25.5338 29.3948 25.2209 29.8382 24.9339 30.3077C24.8557 30.4642 24.7774 30.5946 24.6992 30.7511C24.6209 30.9076 24.5427 31.038 24.4905 31.1945C24.334 31.638 24.3079 32.1075 24.3601 32.5509C24.3601 32.9421 24.4384 33.3073 24.4905 33.6985C24.6209 34.5332 24.9861 35.2635 25.2991 36.046L25.2209 36.0199Z" fill="#FACF50"/>
<path d="M20.0815 28.6391C20.2641 29.0304 20.4988 29.3694 20.7596 29.7085C21.1509 30.2041 21.5943 30.6475 22.0899 31.0388C22.2985 31.2213 22.5072 31.3778 22.768 31.6126C23.0289 31.8734 23.2897 32.1864 23.4462 32.3429L23.4983 32.3951C23.4983 32.3951 23.4983 32.4212 23.5244 32.4212C23.5766 32.4472 23.6288 32.4212 23.6549 32.369C23.6549 32.3951 23.6809 32.4472 23.707 32.4733C23.7331 32.5255 23.8374 32.5255 23.8635 32.4733C23.8896 32.4212 23.8635 32.369 23.8374 32.2907C23.707 31.9778 23.6548 31.6126 23.6288 31.3518C23.6288 31.0648 23.6288 30.804 23.6809 30.6214C23.707 30.4388 23.7592 30.1259 23.8374 29.865C23.9418 29.552 24.0461 29.2651 24.0983 28.9521C24.2026 28.4305 24.2287 27.8566 24.0983 27.335C23.8113 26.2134 23.081 25.2744 22.3507 24.3876C21.9855 23.9442 21.6204 23.5008 21.2552 23.0834C21.1248 22.9269 20.9944 22.7704 20.9161 22.6661C20.7075 22.4835 20.5249 22.7965 20.4466 22.9791C20.2641 23.4225 20.1597 23.892 20.0293 24.3615C19.9771 24.6484 19.8989 24.9092 19.8467 25.1962C19.7945 25.5092 19.7424 25.8482 19.7163 26.1612C19.6641 26.6307 19.7163 27.1002 19.7946 27.5697C19.8467 27.9088 19.925 28.2479 20.0815 28.5609V28.6391Z" fill="#FACF50"/>
<path d="M18.3906 30.5171C18.495 30.9083 18.6515 31.2735 18.808 31.6647C18.9645 32.056 19.0949 32.4472 19.3035 32.8124C19.4861 33.2036 19.7469 33.5688 19.9817 33.9079C20.1904 34.2209 20.4251 34.5078 20.6859 34.7686C20.8685 34.9512 21.1033 35.1077 21.3119 35.2642C21.7814 35.6293 22.3553 35.838 22.903 36.0728C23.3203 36.2293 23.7637 36.3336 24.1811 36.5162C24.3115 36.5683 24.5201 36.6727 24.7288 36.8031C24.781 36.8292 24.8331 36.8813 24.8853 36.9074C24.8853 36.9074 24.9375 36.9335 24.9636 36.9596C24.9636 36.9596 25.1201 37.0639 25.0418 37.0117C25.1722 37.09 25.2765 37.1943 25.3548 37.2465C25.407 37.2987 25.4591 37.2726 25.4852 37.2465C25.5635 37.2465 25.6417 37.1943 25.5895 37.09C25.407 36.6466 25.1722 36.2032 24.9636 35.7858C24.781 35.4207 24.5984 35.0294 24.4158 34.6643C24.155 34.1948 23.8681 33.7514 23.5551 33.334C23.216 32.8385 22.7465 32.4472 22.2509 32.1603C21.7553 31.8473 21.2076 31.6126 20.6859 31.4039C20.1643 31.1952 19.7209 30.9866 19.1731 30.6736C18.9645 30.5692 18.834 30.491 18.7297 30.3606C18.5732 30.2041 18.3906 30.3606 18.4428 30.5432L18.3906 30.5171Z" fill="#FACF50"/>
<path d="M25.7678 34.9774C25.7678 34.56 25.7156 34.1427 25.7417 33.7515C25.7678 32.9168 25.8982 32.0821 26.0807 31.2736C26.159 30.8823 26.2112 30.4389 26.2894 29.9955C26.3416 29.7608 26.3938 29.5521 26.4459 29.3173C26.5242 29.0044 26.5763 28.7174 26.6285 28.4044C26.6546 28.1958 26.7068 27.9349 26.7068 27.6741C26.7068 27.3611 26.6546 27.1525 26.6024 26.8655C26.4981 26.2917 26.3416 25.7179 26.1329 25.1441C26.0547 24.9093 25.9764 24.7006 25.8982 24.4659V24.4137C25.8982 24.4137 25.8982 24.3877 25.8982 24.3616C25.8982 24.3616 25.9243 24.3616 25.9503 24.3616C25.9503 24.3616 25.9764 24.3616 25.9764 24.4137C25.9764 24.4659 26.0286 24.5181 26.0547 24.5963C26.1329 24.7789 26.2112 24.9615 26.2634 25.0919C26.4198 25.4831 26.5502 25.8744 26.6546 26.2656C26.7589 26.683 26.8633 27.1264 26.8893 27.5437C26.9154 27.961 26.8372 28.3784 26.7589 28.7957C26.6807 29.2652 26.5503 29.7086 26.4459 30.152C26.3416 30.6476 26.2894 31.1432 26.1851 31.6909C26.0286 32.4734 25.8982 33.1776 25.8721 33.9862C25.8721 34.2731 25.8721 34.56 25.8721 34.8209C25.8721 34.8991 25.8721 34.9774 25.8721 35.0556C25.8721 35.0556 25.8721 35.0556 25.8721 35.0817C25.846 35.1078 25.7939 35.0817 25.7939 35.0556L25.7678 34.9774Z" fill="#FACF50"/>
<path d="M16.8479 27.752C16.8479 27.752 16.874 27.752 16.9001 27.752C16.9522 27.8041 16.9783 27.8824 17.0305 27.9345C17.187 28.1693 17.2913 28.2997 17.4478 28.5344C18.0738 29.4734 18.5694 30.2298 19.2997 31.0384C19.691 31.4818 20.1605 31.8731 20.5778 32.1861C21.0734 32.5773 21.595 32.9425 22.0906 33.3598C22.5862 33.8032 23.0296 34.2727 23.4469 34.7683C23.7078 35.0552 23.9425 35.3682 24.1772 35.6812C24.2033 35.7334 24.2294 35.7594 24.2555 35.8116C24.2555 35.8116 24.2555 35.8116 24.2555 35.8377C24.2555 35.8638 24.2033 35.8899 24.1772 35.8377C23.8382 35.3421 23.4469 34.8726 23.0035 34.4553C22.6384 34.064 22.2471 33.6989 21.8298 33.3598C21.2038 32.8642 20.3691 32.3426 19.717 31.7687C19.1432 31.2732 18.6737 30.6733 18.2303 30.0733C17.8652 29.5778 17.5521 29.0561 17.2391 28.5344C17.1087 28.2997 16.9522 28.091 16.8218 27.8563C16.8218 27.8302 16.7697 27.8041 16.7697 27.778V27.752H16.8479Z" fill="#FACF50"/>
<path d="M20.0547 21.0226V20.9705C20.0547 20.9444 20.0808 20.9183 20.1069 20.9444C20.1069 20.9444 20.1069 20.9966 20.1329 21.0226C20.1329 21.0226 20.159 21.1009 20.1329 21.0487C20.1851 21.127 20.2112 21.2313 20.2373 21.3356C20.6024 22.5094 20.9415 23.7092 21.2545 24.909C21.411 25.5611 21.5675 26.2132 21.7762 26.8652C22.0109 27.6216 22.2457 28.4041 22.5065 29.1606C22.6108 29.4475 22.6891 29.7344 22.7934 30.0213C22.7934 30.0213 22.7934 30.0735 22.7673 30.0735C22.7673 30.0735 22.7152 30.0735 22.7152 30.0474C22.5326 29.4996 22.3239 28.9519 22.1413 28.4041C21.8544 27.5956 21.5675 26.787 21.3588 25.9523C21.2545 25.5611 21.1763 25.1698 21.0719 24.8047C20.8893 24.1526 20.7068 23.5266 20.5503 22.8745C20.3938 22.2746 20.1851 21.5704 20.0808 21.0487L20.0547 21.0226Z" fill="#FACF50"/>
<path d="M28.3756 39.3325C28.3235 38.863 28.3234 38.3935 28.3234 37.9501C28.3234 37.5589 28.3234 37.1676 28.3234 36.8025C28.3234 36.333 28.3495 35.8896 28.3495 35.4201C28.3495 34.455 28.3495 33.4899 28.2974 32.5249C28.2191 31.638 28.1148 30.8555 28.0365 30.073C28.0365 29.9426 27.9844 29.6818 27.9844 29.5775C27.9844 29.5253 28.0626 29.4992 28.0887 29.5514C28.0887 29.5775 28.0887 29.6296 28.1148 29.6818C28.2452 30.3078 28.3235 30.9077 28.4017 31.5337C28.48 32.1075 28.5321 32.6813 28.5582 33.2552C28.5843 34.142 28.5582 35.0549 28.5582 35.9417C28.5321 36.5938 28.48 37.2198 28.48 37.8719C28.48 38.4196 28.48 38.9413 28.5321 39.489C28.5582 39.7759 28.6104 40.115 28.6886 40.428C28.6886 40.4541 28.6886 40.5063 28.6886 40.5323C28.6886 40.5323 28.6886 40.5584 28.6886 40.5845C28.6886 40.6367 28.5843 40.6106 28.5843 40.5845C28.48 40.1933 28.4017 39.7759 28.3756 39.3586V39.3325Z" fill="#FACF50"/>
<path d="M18.6482 33.7252C18.6482 33.7252 18.7004 33.6991 18.7264 33.7252C18.7786 33.7774 18.8569 33.8296 18.909 33.8817C19.1177 34.0643 19.3003 34.2469 19.535 34.4555C20.0306 34.8989 20.5001 35.3424 21.0218 35.7597C21.4652 36.0988 22.0651 36.5422 22.5867 36.9334C23.1084 37.2986 23.63 37.6637 24.1256 38.0811C24.6734 38.5245 25.1429 39.0462 25.6384 39.5417C26.0036 39.933 26.3688 40.3242 26.7079 40.7415C26.8644 40.9241 26.9948 41.1328 27.1252 41.3415C27.1252 41.3415 27.1252 41.3936 27.0991 41.3936H27.0469C26.8904 41.1328 26.7079 40.9241 26.4992 40.6633C26.2384 40.3503 25.9514 40.0373 25.6645 39.7504C25.0907 39.1505 24.4908 38.5767 23.8387 38.055C23.4736 37.7681 22.8997 37.3768 22.4563 37.0638C22.0912 36.803 21.726 36.5161 21.3608 36.2553C20.7088 35.7858 20.1089 35.238 19.535 34.6642C19.3264 34.4555 19.0916 34.2469 18.9351 34.0643C18.8569 33.986 18.8047 33.9078 18.7264 33.8295C18.7264 33.8295 18.6743 33.7774 18.7004 33.7513L18.6482 33.7252Z" fill="#FACF50"/>
<path d="M20.3438 38.0285H20.3959C20.4742 38.1068 20.5524 38.185 20.6307 38.2633C20.8654 38.498 21.1002 38.7067 21.3349 38.9414C22.1435 39.7239 22.8999 40.4542 23.8389 41.0281C24.7518 41.6019 25.7169 42.1496 26.6298 42.7496C27.334 43.193 28.0122 43.6364 28.586 44.2363C28.9512 44.6014 29.2902 44.9666 29.6293 45.3579C29.7336 45.4622 29.838 45.5926 29.9162 45.723C29.9162 45.723 29.9162 45.723 29.9162 45.7752C29.9162 45.8273 29.864 45.8534 29.8119 45.8013C29.6554 45.5926 29.4989 45.41 29.3163 45.2274C29.1077 44.9927 28.899 44.784 28.6903 44.5493C28.1947 44.0276 27.7252 43.6364 27.1514 43.2712C26.3689 42.7496 25.5603 42.2801 24.7779 41.7845C24.2562 41.4715 23.7085 41.1585 23.2129 40.7933C22.5086 40.2977 21.9087 39.6978 21.3088 39.0718C21.0741 38.8371 20.8393 38.5763 20.6046 38.3154C20.5263 38.2372 20.4481 38.1329 20.3438 38.0546C20.3438 38.0546 20.3438 38.0285 20.3438 38.0024V38.0285Z" fill="#FACF50"/>
<path d="M30.8285 41.1059C30.672 40.0626 30.6198 38.9932 30.5938 37.9499C30.5938 37.2457 30.6459 36.5414 30.672 35.8111C30.672 35.6285 30.672 35.472 30.672 35.2894C30.672 35.2373 30.672 35.159 30.672 35.1069C30.672 35.1069 30.672 35.0808 30.672 35.0547C30.672 35.0547 30.672 35.0547 30.6981 35.0547C30.6981 35.0547 30.6981 35.0547 30.6981 35.0808C30.6981 35.1329 30.6981 35.2112 30.6981 35.2634C30.6981 35.472 30.7502 35.6807 30.7502 35.8893C30.7502 36.6458 30.7502 37.4022 30.7502 38.1586C30.7502 38.8367 30.8024 39.541 30.8546 40.2191C30.9067 40.8712 31.0111 41.4972 31.1676 42.1754C31.3241 42.8535 31.5067 43.5317 31.6632 44.2098C31.6892 44.3663 31.7414 44.5489 31.7675 44.7054C31.7675 44.7054 31.7414 44.7576 31.7153 44.7576C31.7153 44.7576 31.6632 44.7576 31.6632 44.7054C31.5067 44.0794 31.3502 43.4534 31.1937 42.8274C31.0372 42.2536 30.8807 41.6537 30.8024 41.0799L30.8285 41.1059Z" fill="#FACF50"/>
<path d="M21.2035 25.8217C21.1513 25.5609 21.0731 25.3 21.0209 25.0392C21.0209 24.9609 20.9948 24.8566 20.9688 24.7784C20.9688 24.7784 20.9688 24.7262 20.9688 24.7001C20.9688 24.674 21.0209 24.6479 21.047 24.6479C21.0992 24.6479 21.1253 24.674 21.1253 24.7262C21.2035 25.0653 21.3078 25.4304 21.3861 25.7695C21.4643 26.1347 21.5687 26.4998 21.673 26.865C21.9078 27.5432 22.299 28.43 22.6381 29.2907C23.0032 30.308 23.3423 31.273 23.7336 32.1859C23.9161 32.6554 24.2291 33.4379 24.49 34.0118C24.6986 34.4813 24.9334 34.9507 25.1421 35.4202C25.6376 36.4375 26.1593 37.4286 26.707 38.4198C27.0983 39.1501 27.5156 39.9065 27.959 40.6108C28.2981 41.1324 28.6111 41.6802 28.9502 42.2018C29.3414 42.8278 29.7587 43.4538 30.1239 44.1059C30.6716 45.0188 31.1933 45.9578 31.6367 46.8968C31.8976 47.4445 32.1323 48.0444 32.367 48.6183C32.6279 49.2964 32.8626 49.9746 33.0452 50.6788C33.2017 51.2787 33.306 51.8786 33.3321 52.5046C33.3321 52.7655 33.3321 53.0524 33.3321 53.3132C33.3321 53.3914 33.3321 53.4436 33.3321 53.5219C33.3321 53.5219 33.3321 53.5479 33.306 53.574C33.2799 53.574 33.2278 53.574 33.2539 53.5219C33.2539 53.4697 33.2539 53.4175 33.2539 53.3654C33.2539 53.2089 33.2017 52.8437 33.1756 52.7394C33.1234 52.2438 33.0452 51.7482 32.9409 51.2787C32.7322 50.4962 32.4975 49.7137 32.1845 48.9312C31.9758 48.4357 31.6367 47.5228 31.3237 46.8968C30.8803 45.9578 30.3847 45.071 29.8631 44.1841C29.4718 43.506 29.0284 42.8539 28.6111 42.1757C28.0633 41.2889 27.4895 40.4021 26.9939 39.4631C26.5766 38.6806 26.1332 37.8981 25.7159 37.1156C25.2724 36.2288 24.829 35.342 24.4117 34.4291C24.0726 33.6727 23.7596 32.8902 23.4466 32.1338C23.3162 31.7686 23.1076 31.247 22.925 30.7775C22.6641 30.0993 22.4555 29.3951 22.1947 28.6908C21.9599 28.0387 21.673 27.4127 21.4904 26.7607C21.3861 26.4216 21.3339 26.1086 21.2557 25.7695L21.2035 25.8217Z" fill="#FACF50"/>
<path d="M20.11 32.0559C20.11 32.0559 20.11 32.0559 20.0579 31.9776C20.0318 31.9254 19.9796 31.8472 19.9014 31.7429C19.771 31.5342 19.5623 31.2734 19.3275 30.9082C19.0667 30.5691 18.7537 30.1518 18.4146 29.7084C18.0495 29.265 17.6582 28.8216 17.2148 28.3521C16.328 27.4131 15.2847 26.5263 14.2153 25.822C13.9544 25.6394 13.6675 25.4829 13.4067 25.3525C13.1459 25.2221 12.8589 25.0917 12.5981 24.9613C12.0504 24.7265 11.5287 24.5961 11.007 24.5179C10.5115 24.4396 9.98981 24.3353 9.46815 24.2049C8.94649 24.0745 8.39875 23.944 7.87709 23.8136C6.80768 23.5528 5.71219 23.318 4.69495 23.2398C3.65163 23.1615 2.68656 23.1876 1.82582 23.4224C1.4085 23.5267 1.01724 23.6832 0.678164 23.8919C0.599915 23.944 0.521676 23.9962 0.443427 24.0484C0.365178 24.1005 0.286924 24.1527 0.234758 24.231C0.156509 24.2831 0.104343 24.3614 0.0521772 24.4135C0.0260942 24.4396 0 24.4657 0 24.5179C0 24.5179 0 24.5439 0 24.57C0 24.57 0 24.57 0 24.5439C0 24.4918 0 24.4135 0 24.3092C0.0521661 24.1005 0.156511 23.8136 0.339092 23.5006C0.678172 22.8486 1.30416 22.0139 2.1649 21.3357C2.99955 20.6576 4.06896 20.1098 5.13836 19.9012C5.39919 19.849 5.66003 19.7968 5.92086 19.7708C6.18169 19.7708 6.44252 19.7708 6.67727 19.7708C6.91202 19.7708 7.14677 19.7968 7.35543 19.849C7.5641 19.9012 7.74666 19.9533 7.92924 20.0055C8.19007 20.0837 8.50307 20.1881 8.86824 20.3446C9.2334 20.5011 9.62465 20.7097 10.0941 20.9445C10.3289 21.0749 10.5636 21.2053 10.8245 21.3618C11.0853 21.5183 11.3461 21.7009 11.607 21.8835C11.8939 22.0661 12.1808 22.2747 12.4677 22.4834C12.7807 22.7181 13.0676 22.9529 13.4067 23.2137C14.0588 23.7354 14.763 24.3614 15.4933 25.0656C16.2237 25.7959 17.0061 26.6045 17.8147 27.5696C18.6233 28.5086 19.458 29.6041 20.2926 30.83C20.7099 31.4559 21.1534 32.108 21.5707 32.7862C21.988 33.4904 22.4314 34.2207 22.8487 35.0032C22.4053 34.4555 21.9358 33.9338 21.4924 33.4383C21.2577 33.2035 21.049 32.9688 20.8143 32.734C20.5795 32.4993 20.3709 32.2906 20.1361 32.0819L20.11 32.0559Z" fill="#8FC03E"/>
<path d="M25.2199 39.202C25.2199 39.202 25.1938 39.2541 25.1156 39.202C25.0373 39.1759 24.9069 39.0716 24.6982 38.8107C24.2548 38.2891 23.5245 37.0632 22.0378 34.5592C22.0378 34.5592 21.8291 34.2723 21.5943 33.9854C21.4639 33.8289 21.3335 33.6985 21.2031 33.5941C21.0727 33.4898 20.9423 33.4376 20.864 33.4376C20.7075 33.4376 20.2119 33.1507 19.925 32.7334C19.7164 32.4465 19.4816 32.2639 19.273 32.2117C18.8035 32.0031 18.021 31.8466 17.1081 31.8987C16.1952 31.9509 15.1779 32.1856 14.2128 32.8116C13.7173 33.1246 13.2478 33.5159 12.8044 33.9854C12.5696 34.2201 12.3609 34.481 12.1523 34.7679C11.9436 35.0548 11.7349 35.3678 11.5524 35.6808C11.1611 36.3328 10.796 37.0632 10.483 37.8717C10.3265 38.263 10.17 38.7064 10.0396 39.1237C9.96132 39.3324 9.90914 39.5671 9.8309 39.8019C9.75265 40.0366 9.70048 40.2714 9.64832 40.5061C9.64832 40.5061 9.64832 40.3757 9.64832 40.1931C9.64832 39.9845 9.64832 39.6976 9.64832 39.3324C9.70048 38.6021 9.80481 37.5327 10.17 36.2024C10.2743 35.8894 10.3786 35.5504 10.5091 35.1852C10.6395 34.8461 10.7699 34.481 10.9525 34.1158C11.2915 33.4115 11.761 32.6812 12.361 32.0291C12.6739 31.7161 13.013 31.4292 13.4303 31.1684C13.639 31.038 13.8477 30.9076 14.0824 30.8293C14.3172 30.725 14.5519 30.6467 14.8127 30.5685C15.8561 30.2816 17.1602 30.2294 18.8295 30.6728C19.0904 30.7511 19.3512 30.7772 19.5859 30.7511C19.7424 30.7511 20.0033 30.7511 20.3163 30.9597C20.6293 31.1684 21.0205 31.5596 21.49 32.2378C21.6726 32.4986 21.8291 32.7595 22.0117 32.9942C22.1942 33.255 22.3508 33.4898 22.5333 33.7506C22.8724 34.2462 23.2115 34.6896 23.4984 35.1069C23.7853 35.4982 24.0461 35.8633 24.2287 36.0981C24.4113 36.3328 24.5156 36.4893 24.5156 36.4893C24.5156 36.4893 24.5939 36.5937 24.6721 36.7502C24.7765 36.9328 24.9069 37.1675 25.0112 37.4544C25.246 38.0022 25.4285 38.7064 25.272 39.2281L25.2199 39.202Z" fill="#8FC03E"/>
<path d="M28.6643 46.6625C28.6643 46.6625 28.6643 46.6625 28.6643 46.5843C28.6643 46.5321 28.6122 46.48 28.5861 46.4017C28.5079 46.2452 28.4296 46.0105 28.2992 45.6975C28.0644 45.1236 27.6993 44.3412 27.308 43.5065C26.9168 42.6718 26.4734 41.785 26.0821 41.0286C25.8734 40.6374 25.6648 40.2722 25.4822 39.9592C25.2996 39.6462 25.117 39.3593 24.9866 39.1245C24.9866 39.1245 24.9866 39.1245 24.9866 39.0724C24.9866 39.0202 24.9866 38.9159 24.9606 38.7333C24.9084 38.5246 24.8301 38.2377 24.6736 37.7943C24.5954 37.5857 24.5171 37.3248 24.3867 37.0118C24.2824 36.7249 24.1259 36.3858 23.9694 35.9946C23.7868 35.6033 23.5521 35.0295 23.2652 34.3253C23.1347 33.9601 22.9522 33.5689 22.7957 33.1515C22.7174 32.9429 22.6131 32.7081 22.5348 32.4734C22.4566 32.2386 22.3523 32.0039 22.2479 31.743C21.8306 30.7519 21.3611 29.6303 20.8394 28.3262C20.2917 27.0481 19.6918 25.6657 19.0136 24.1268C18.6745 23.3704 18.2833 22.5618 17.892 21.7272C17.6834 21.3098 17.5008 20.8925 17.2921 20.4491C17.0835 20.0318 16.8748 19.5884 16.6401 19.1449C15.7272 17.3713 14.7621 15.4672 13.5884 13.4328C13.0145 12.4155 12.4146 11.3722 11.7364 10.3028C11.3974 9.78114 11.0583 9.23339 10.6931 8.68565C10.5106 8.42482 10.328 8.13791 10.1454 7.85099C9.96281 7.56408 9.78023 7.30325 9.57157 7.01634C9.46723 6.88592 9.3629 6.72942 9.28465 6.59901C9.18032 6.46859 9.07598 6.3121 8.97165 6.18168C8.76298 5.89477 8.55432 5.60785 8.34566 5.32094C8.137 5.03403 7.92833 4.74711 7.69358 4.4602C7.48492 4.17328 7.25017 3.88637 7.01542 3.57338C6.78067 3.28646 6.54593 2.99955 6.2851 2.68655C6.02427 2.39964 5.78952 2.08664 5.52869 1.79973C5.26786 1.51282 5.00703 1.19982 4.72012 0.912907C4.45929 0.625994 4.14629 0.312996 3.85938 0C3.85938 0 3.96371 0.104333 4.14629 0.260831C4.35495 0.443413 4.64187 0.70424 5.00703 1.01724C5.3722 1.35632 5.8156 1.77365 6.2851 2.24314C6.78068 2.71264 7.30233 3.28646 7.85008 3.88637C8.39782 4.51236 8.99772 5.19053 9.59763 5.94693C9.91063 6.3121 10.2236 6.70334 10.5366 7.09458C10.8496 7.48583 11.1626 7.90316 11.4756 8.34657C12.1016 9.20731 12.7276 10.0941 13.3536 11.0331C13.9535 11.9721 14.5795 12.9633 15.1794 13.9544C15.3359 14.2153 15.4924 14.45 15.6489 14.7108C15.7271 14.8412 15.8054 14.9717 15.8837 15.1021C15.9619 15.2325 16.0402 15.3629 16.0923 15.4933C16.3792 16.015 16.6661 16.5366 16.953 17.0583C17.5269 18.1016 18.1007 19.171 18.6224 20.2665C19.144 21.362 19.6657 22.4314 20.1613 23.5008C20.396 24.0486 20.6308 24.5702 20.8655 25.118C21.1003 25.6657 21.335 26.1874 21.5698 26.7351C23.3695 31.0127 24.8823 35.1078 26.2908 38.6029C26.3951 38.8376 26.4734 39.0724 26.4994 39.3071C26.6299 39.9331 26.8385 40.5852 27.1254 41.1851C27.3863 41.7329 27.6993 42.411 28.0644 43.1935C28.4035 43.9499 28.7687 44.7846 29.1078 45.5931C29.4468 46.4017 29.7859 47.2103 30.0728 47.8884C30.3597 48.5666 30.6206 49.1665 30.8032 49.5578C30.7249 49.4273 30.6206 49.2969 30.5423 49.1665C30.438 49.0361 30.3597 48.9057 30.2554 48.7753C30.0728 48.5144 29.8903 48.2797 29.7077 48.0189C29.3425 47.5233 28.9513 47.0538 28.5861 46.5843L28.6643 46.6625Z" fill="#8FC03E"/>
<path d="M33.2257 63.1722C33.0953 62.2593 32.9388 61.3203 32.7823 60.3813C32.704 59.9118 32.6258 59.4423 32.5214 58.9467C32.4693 58.712 32.4171 58.4773 32.391 58.2425C32.3389 58.0078 32.2867 57.773 32.2345 57.5122C32.0259 56.5732 31.765 55.5299 31.5303 54.6952C31.2956 53.8084 31.0347 52.9477 30.7739 52.0869C30.4609 51.0958 30.0696 50.1829 29.6262 49.4525C29.4697 49.2178 29.3132 48.957 29.1567 48.7222C29.0002 48.4614 28.8177 48.2266 28.6612 47.9919C28.3221 47.5224 28.0091 47.1572 27.8004 46.9486C27.7222 46.8703 27.5657 46.6616 27.3831 46.3747C27.2005 46.0878 26.9397 45.7227 26.6528 45.3314C26.3398 44.9402 26.0007 44.4968 25.6355 44.0533C25.2443 43.6099 24.827 43.1665 24.3575 42.7753C24.1227 42.5666 23.888 42.384 23.6532 42.2014C23.4185 42.0189 23.1576 41.8624 22.9229 41.732C22.4273 41.445 21.8796 41.2364 21.3579 41.132C20.2885 40.9495 19.193 41.1842 18.1758 42.0971C18.1758 42.1493 18.3062 41.7059 18.567 41.106C18.8539 40.5321 19.2713 39.8018 19.9234 39.3323C20.5754 38.8628 21.4622 38.6542 22.636 39.1758C23.2359 39.4366 23.888 39.9061 24.6444 40.6104C25.0095 40.9755 25.4008 41.3929 25.792 41.8885C26.1833 42.384 26.6267 42.9579 27.044 43.636C27.3048 44.0794 27.6178 44.4446 27.9048 44.7837C28.0613 44.9662 28.2178 45.1227 28.3482 45.3053C28.5047 45.4879 28.6351 45.6705 28.7916 45.8531C29.0785 46.2182 29.3915 46.5834 29.6784 46.9746C29.9132 47.2876 30.1479 47.6528 30.3566 48.0701C30.5652 48.4875 30.7739 48.957 30.9304 49.4264C31.113 49.9742 31.2956 50.548 31.4781 51.0958C31.6607 51.6696 31.8172 52.2173 31.9998 52.7912C32.078 53.0781 32.1563 53.365 32.2606 53.6519C32.3389 53.9388 32.4171 54.2257 32.4954 54.5126C32.5215 54.6691 32.5736 54.7995 32.5997 54.956C32.6519 55.1125 32.678 55.269 32.7301 55.4255C32.8084 55.7385 32.8866 56.0776 32.9649 56.3906C33.1214 57.0427 33.2779 57.6687 33.4083 58.3208C33.5387 58.9468 33.643 59.5988 33.7734 60.1987C33.9821 61.4507 34.1908 62.6505 34.3473 63.8243C34.4777 64.7894 34.582 65.7283 34.7124 66.6412C34.7124 66.8499 34.7646 67.0847 34.7907 67.2933C34.7907 67.502 34.8428 67.7367 34.8689 67.9454C34.9211 68.3888 34.9472 68.8061 34.9993 69.2495C34.5038 67.3716 33.9038 65.2849 33.2518 63.1461L33.2257 63.1722Z" fill="#8FC03E"/>
<path d="M34.2192 66.1459C34.2192 66.1459 34.2192 65.9372 34.1671 65.6242C34.1149 65.2851 34.0627 64.7895 34.0106 64.1896C33.9062 62.9637 33.6976 61.2944 33.5672 59.3382C33.515 58.8426 33.4889 58.347 33.4628 57.8254C33.4107 57.3037 33.3846 56.782 33.3585 56.2604C33.3324 55.7387 33.2802 55.1649 33.2542 54.6432C33.2542 54.1477 33.2542 53.6782 33.2542 53.1826C33.2542 52.2175 33.3063 51.3046 33.4368 50.4439C33.515 50.0005 33.5932 49.5831 33.6715 49.1919C33.7237 48.9832 33.7758 48.8006 33.828 48.6181C33.8801 48.4355 33.9584 48.2529 34.0106 48.0703C34.0106 48.0703 34.0106 48.2007 34.0106 48.4094C34.0106 48.6181 34.0106 48.905 33.9845 49.2701C33.9584 49.9744 33.9062 50.9655 33.8541 51.9567C33.8541 52.4523 33.828 52.9739 33.8019 53.4695C33.8019 53.7303 33.8019 53.9651 33.7758 54.1998C33.7758 54.2259 33.7758 54.252 33.7758 54.2781C33.7758 54.3042 33.7758 54.3563 33.7758 54.3824C33.7758 54.4607 33.7758 54.5128 33.7758 54.5911C33.7758 54.7215 33.7758 54.8519 33.7758 54.9823C33.7758 55.2431 33.7758 55.4779 33.7758 55.7126C33.7758 55.9474 33.7758 56.156 33.8019 56.3386C33.8019 56.7299 33.8541 57.0429 33.9323 57.2776C33.9845 57.5124 34.0888 57.8775 34.1671 58.3209C34.2453 58.7644 34.3496 59.3121 34.4279 59.912C34.5061 60.5119 34.6105 61.164 34.6887 61.8161C34.7409 62.1552 34.767 62.4942 34.7931 62.8333C34.8191 63.1724 34.8452 63.5115 34.8713 63.8505C34.9756 65.1808 35.0539 66.4589 35.1061 67.5022C35.1061 68.5455 35.1061 69.3541 35.08 69.7975C35.0017 70.6843 34.7931 69.8757 34.6105 68.7542C34.5583 68.4672 34.5062 68.1803 34.454 67.8673C34.454 67.7108 34.4018 67.5804 34.3757 67.4239C34.3757 67.2935 34.3236 67.137 34.2975 67.0327C34.2453 66.7718 34.2192 66.5632 34.1931 66.4067C34.1931 66.3284 34.1932 66.2763 34.1671 66.2241C34.1671 66.1719 34.1671 66.1719 34.1671 66.1719L34.2192 66.1459Z" fill="#8FC03E"/>
<path d="M35.5528 46.454C34.7181 47.0278 33.9617 47.7581 33.4139 48.671C33.127 49.1666 32.9444 49.7143 32.9184 50.2882C32.9184 50.3143 32.9184 50.3403 32.9184 50.3664C32.8662 50.1578 32.7879 49.923 32.7097 49.7144C32.5793 49.4274 32.2924 48.9058 32.2663 48.8536C31.875 48.1494 31.3795 47.5234 30.8056 46.9756C30.2057 46.4018 29.9188 46.141 29.2928 45.6976C29.1363 45.5932 28.8755 45.4628 28.6668 45.7758C28.5364 46.2714 28.5886 46.6366 28.5625 47.0017C28.5625 48.019 28.6668 49.0623 29.1885 49.9491C29.4754 50.4708 29.9188 50.9142 30.4666 51.175C30.7795 51.3315 31.4577 51.5923 32.0055 51.6184C32.0055 51.6184 32.0315 51.6184 32.0576 51.6184C32.0576 51.6184 32.1098 51.6184 32.1359 51.6184C32.2402 51.6184 32.3445 51.6184 32.475 51.6184C32.475 51.6184 32.5271 51.6184 32.5532 51.6184C32.7097 51.6184 32.8662 51.5923 32.9966 51.488C32.9966 51.5402 33.0488 51.5662 33.0749 51.5923C33.127 51.6445 33.2314 51.6445 33.3096 51.6445C33.4661 51.6445 33.3879 51.6445 33.5965 51.5923C33.7009 51.5662 33.8313 51.5662 33.9356 51.488C33.9356 51.5402 34.5877 51.2011 34.6659 51.1228C34.9267 50.9663 35.2397 50.6273 35.318 50.549C35.6049 50.236 35.8658 49.8448 36.0483 49.4535C36.2309 49.0101 36.3874 48.5406 36.4657 48.0711C36.5439 47.5495 36.5178 47.08 36.5178 46.6887C36.5178 45.5932 36.1266 46.0106 35.5528 46.4279V46.454Z" fill="#FBB428"/>
<path d="M36.933 41.2628C36.933 41.2628 36.7765 41.0803 36.6721 41.1324C36.0201 41.8627 34.8463 42.3322 34.1421 43.193C33.7247 43.6625 33.4117 44.2363 33.2031 44.8623C33.0466 45.2014 32.9683 45.5665 32.9162 45.9317C32.8379 46.6359 33.5422 46.5055 33.9595 46.4012C34.1421 46.349 34.3247 46.2447 34.5072 46.1664C35.1593 45.8795 35.6549 45.3318 36.0983 44.7319C36.2548 44.5232 36.646 43.8711 36.7243 43.5321C36.8547 43.1147 36.933 42.2279 36.959 42.0192C36.959 41.8627 36.9851 41.7062 36.9851 41.5497C36.9851 41.5237 36.9851 41.4976 36.9851 41.4454C36.9851 41.4454 36.9851 41.3411 36.959 41.2889L36.933 41.2628Z" fill="#FBB428"/>
<path d="M38.1076 34.4815C38.1076 34.4815 38.0033 34.325 37.899 34.325C37.6381 34.4293 37.7164 34.4293 37.5338 34.5336C35.9427 35.3683 34.4038 36.1508 33.8822 38.2635C33.7779 38.6808 33.6735 39.0199 33.6214 39.359C33.5953 39.5155 33.5431 39.672 33.5431 39.8285C33.5431 39.8285 33.5431 39.8546 33.5431 39.8806C33.5431 39.9328 33.5431 39.9589 33.5431 40.0111C33.5431 40.1154 33.5692 40.1936 33.6214 40.2458C33.6996 40.324 33.8039 40.3501 33.9083 40.3501C33.9083 40.3501 33.9083 40.3501 33.8561 40.3501C34.1169 40.4284 34.4038 40.3762 34.6647 40.3501C35.0298 40.2719 35.4732 40.1415 35.9167 39.8285C36.0471 39.7763 36.5426 39.2025 36.7252 38.8634C37.0121 38.4722 37.3773 37.9244 37.5599 37.3245C37.7164 36.855 37.7946 36.3855 37.8729 35.8899C37.899 35.7334 37.925 35.5509 37.9511 35.3944C37.9511 35.3422 37.9511 35.3161 37.9511 35.2639C37.9511 35.2639 37.9511 35.2118 37.9772 35.1074C37.9772 34.977 38.0294 34.8205 37.9772 34.6901C38.0033 34.7944 37.9772 34.5336 37.9772 34.4815H38.1076Z" fill="#FBB428"/>
<path d="M39.4602 28.6653C39.4602 28.6653 39.382 28.6914 39.3559 28.7175C39.3559 28.7175 39.3037 28.7436 39.2254 28.7957C38.9385 28.9261 38.6255 29.0566 38.3386 29.1609C37.7648 29.3174 37.2171 29.6043 36.7215 30.0216C36.3824 30.2825 36.0694 30.5694 35.8086 30.8824C35.313 31.5084 35 32.2648 34.8435 33.0473C34.8435 33.2038 34.7913 33.3863 34.8435 33.5168C34.8435 33.5168 34.8435 33.5168 34.8435 33.5689C34.8957 33.6732 34.9739 33.7776 35.0783 33.8298C35.3652 33.9863 35.7042 33.9341 35.9912 33.908C38.0256 33.4646 39.2254 31.404 39.6949 29.6565C39.7471 29.3956 39.8515 29.1609 39.8515 28.9001C39.8515 28.7175 39.6428 28.5871 39.4863 28.6914L39.4602 28.6653Z" fill="#FBB428"/>
<path d="M41.4984 24.4393C41.4462 24.2828 41.3158 24.1784 41.1593 24.2306C41.055 24.2567 40.9767 24.3089 40.8724 24.3349C40.1942 24.5175 39.5161 24.7001 38.8901 25.0131C38.2902 25.3 37.7946 25.7695 37.3773 26.3173C37.299 26.4216 37.2208 26.552 37.1164 26.6563C36.8556 26.9432 36.6208 27.2562 36.4383 27.6214C36.3078 27.8562 36.2035 28.117 36.1253 28.3778C36.0731 28.5604 35.9427 28.8473 36.1253 29.0038C36.4122 29.1864 36.7774 29.1081 37.0643 29.056C37.7424 28.9256 38.3684 28.5865 38.9683 28.1952C39.9856 27.5432 40.8463 26.6563 41.3158 25.4826C41.4462 25.1696 41.4984 25.0131 41.5245 24.8044C41.5245 24.6219 41.5245 24.6219 41.5245 24.5436C41.5245 24.5175 41.5245 24.4654 41.5245 24.4393H41.4984Z" fill="#FBB428"/>
<path d="M40.297 18.8316C40.297 18.8316 40.2709 18.7534 40.2448 18.7273C40.1665 18.5708 39.984 18.4665 39.8275 18.5708C39.4101 18.9099 38.9667 19.249 38.5755 19.6141C37.7408 20.3966 37.0366 21.4139 36.9844 22.6137C36.9322 23.4222 36.9844 24.2569 37.1409 25.0394C37.1409 25.0394 37.1409 25.0916 37.1409 25.1176C37.1409 25.1959 37.1409 25.2741 37.1409 25.3524C37.1409 25.3524 37.1409 25.3785 37.1409 25.4046C37.1409 25.4306 37.1409 25.4828 37.1409 25.5089C37.1409 25.535 37.1409 25.5611 37.1409 25.5871C37.1931 25.6915 37.3496 25.6654 37.3757 25.5871C37.4539 25.5089 37.5322 25.4046 37.6104 25.3263C37.6887 25.2481 38.0538 24.9611 38.2625 24.8046C38.9406 24.2047 39.6188 23.5787 40.0622 22.7702C40.4795 22.0138 40.5317 21.1269 40.4795 20.2662C40.4274 19.7967 40.4013 19.1446 40.2709 18.8577L40.297 18.8316Z" fill="#FBB428"/>
<path d="M36.4615 27.2307C36.4615 27.0481 36.5136 26.3178 36.4615 25.9005C36.4093 25.5875 36.3311 25.2745 36.2267 24.9615C36.0963 24.5181 35.8876 24.1008 35.6529 23.7356C35.4181 23.3965 35.1834 23.0835 34.9486 22.7444C34.8704 22.614 34.7661 22.5097 34.6878 22.3793C34.6356 22.301 34.5313 22.2228 34.4009 22.2749C34.2966 22.301 34.2705 22.4054 34.2444 22.5097C34.1922 22.7184 34.1922 22.6923 34.1662 22.8227C34.0618 23.1879 33.9314 23.5008 33.8271 23.9703C33.6967 24.5181 33.5402 25.5614 33.5923 25.9005C33.5923 26.4482 33.801 26.9699 34.0357 27.4394C34.2444 27.8045 34.4531 28.0132 34.6357 28.2219C34.9226 28.5349 35.2616 28.8218 35.679 28.9522C35.7572 28.9783 35.8616 29.0304 35.9398 29.0304C36.0963 29.0304 36.1745 28.8479 36.0963 28.6914C36.2006 28.1958 36.3571 27.7263 36.4354 27.2046L36.4615 27.2307Z" fill="#FBB428"/>
<path d="M34.8442 32.5518C34.8442 32.4214 34.8442 32.2909 34.8181 32.1605C34.8442 31.7693 34.8703 31.378 34.8181 30.9607C34.7399 30.5173 34.6094 30.1 34.4008 29.7087C34.1399 29.1871 33.9313 28.8219 33.4357 28.4306C33.0184 28.1177 32.601 27.8829 32.1576 27.6482C32.0533 27.596 31.949 27.5177 31.8446 27.4656C31.5577 27.3612 31.4795 27.7264 31.4534 27.9612C31.4012 28.4046 31.2969 29.0827 31.2969 29.8131C31.323 30.2565 31.3751 30.413 31.5055 30.8042C31.6099 31.065 31.7403 31.2998 31.8968 31.5345C32.0011 31.7171 32.2359 32.004 32.4967 32.2388C32.914 32.6039 33.4357 32.8387 33.9313 32.9691C34.1138 33.0213 34.2964 33.0473 34.5051 33.0734C34.5051 33.0734 34.5312 33.0734 34.5573 33.0734C34.6355 33.0734 34.7138 33.0734 34.7659 32.9952C34.8442 32.8648 34.8442 32.7083 34.8442 32.5518Z" fill="#FBB428"/>
<path d="M33.4394 39.0199C33.4394 38.7591 33.4394 38.4983 33.4133 38.2374C33.3351 37.481 33.1525 36.7246 32.8395 36.0465C32.5526 35.3422 32.0309 34.7945 31.4571 34.325C31.1963 34.0902 30.9615 33.8816 30.7007 33.6208C30.4138 33.3338 30.179 33.1773 30.0486 33.699C29.9182 34.4032 29.8139 35.1075 29.84 35.8117C29.9182 37.2202 30.4138 38.3679 31.4049 39.3329C31.744 39.6459 32.1353 39.8546 32.5526 40.0111C32.7091 40.0633 32.8656 40.1415 33.0221 40.1937C33.1264 40.2198 33.2308 40.2719 33.3351 40.1937C33.3873 40.1415 33.4133 40.0633 33.4394 39.985C33.4394 39.985 33.4394 39.9328 33.4394 39.9068C33.4394 39.9068 33.4394 39.9068 33.4394 39.8807C33.4394 39.8546 33.4394 39.8285 33.4394 39.8024C33.4394 39.7503 33.4394 39.6981 33.4394 39.6459C33.4394 39.4373 33.4394 39.2286 33.4394 39.0199Z" fill="#FBB428"/>
<path d="M32.6254 43.8452C32.5471 43.0627 32.2863 42.2541 31.5821 41.6542C30.9039 41.1065 30.304 40.663 29.5737 40.5065C29.365 40.4544 29.1824 40.5848 29.2607 40.8195C29.2607 41.0282 29.2868 41.2369 29.3129 41.4455C29.3129 42.3584 29.3911 43.2974 29.7563 44.1582C30.2518 45.358 31.0343 46.2448 32.0255 46.6882C31.9733 46.6882 32.1037 46.7143 32.1298 46.7404C32.2081 46.7665 32.3124 46.7925 32.3907 46.8186C32.4689 46.8186 32.5471 46.8708 32.6254 46.8186C32.6776 46.7665 32.6776 46.6882 32.6254 46.6361C32.7036 46.4796 32.7036 46.2187 32.7297 46.0361C32.7297 45.3058 32.7297 44.5755 32.6515 43.8452H32.6254Z" fill="#FBB428"/>
<path d="M38.5994 22.7179C38.5994 22.7179 38.4951 22.6396 38.469 22.7179C38.156 23.3178 37.8691 23.9438 37.6082 24.5959C37.3735 25.1175 37.1127 25.6131 36.904 26.1348C36.3302 27.5172 35.8346 28.9256 35.2869 30.3341C34.7652 31.8209 34.4522 33.0468 34.061 34.6378C33.9045 35.2899 33.7219 35.942 33.5915 36.5941C33.3567 38.1069 33.0959 39.5936 32.9133 41.1064C32.7829 42.3845 32.7568 43.6626 32.7046 44.9406C32.6525 46.2448 32.5742 47.575 32.5742 48.8792C32.5742 50.2094 32.6525 51.5136 32.7829 52.8177C32.8611 53.7567 33.0176 54.9826 33.2263 55.7129C33.2524 55.8173 33.2785 55.9477 33.3306 56.052C33.3567 56.1303 33.435 56.1563 33.5132 56.1302C33.6436 56.0781 33.5915 55.9216 33.5915 55.7912C33.5915 55.5043 33.5393 55.1913 33.5132 54.9043C33.435 53.9393 33.3828 52.9742 33.3306 52.0352C33.1741 49.2965 33.3306 47.0273 33.5132 44.2625C33.5654 43.2713 33.6175 42.2802 33.7219 41.3151C33.8001 40.5587 33.9305 39.8023 34.0349 39.0459C34.1653 38.1851 34.2435 37.3244 34.3739 36.4636C34.5043 35.6551 34.7391 34.8465 34.9217 34.0118C35.339 32.2643 35.6781 30.9862 36.1737 29.5256C36.5388 28.3518 36.9301 27.1781 37.3474 26.0304C37.53 25.587 37.7126 25.1436 37.8952 24.7263C38.0777 24.2307 38.2342 23.7351 38.469 23.2656C38.5472 23.1091 38.5994 22.9526 38.6776 22.7961C38.6776 22.7961 38.6776 22.77 38.6776 22.744L38.5994 22.7179Z" fill="#D58940"/>
<path d="M38.8367 42.1238C38.2889 42.8541 37.7151 43.5844 37.2195 44.3408C36.5935 45.2798 36.0458 46.2971 35.498 47.2882C35.185 47.8621 34.9503 48.488 34.6373 49.0619C34.2982 49.6357 33.9852 50.2356 33.5418 50.7833C33.5157 50.8355 33.4375 50.8616 33.4375 50.9398C33.4375 50.992 33.5157 51.0181 33.5418 50.9659C33.8287 50.6529 34.0374 50.2617 34.2461 49.8965C34.4547 49.5314 34.6895 49.1923 34.8721 48.8271C35.159 48.2794 35.3937 47.6795 35.7328 47.1317C36.2284 46.271 36.6718 45.4885 37.1934 44.6799C37.7151 43.8713 38.315 43.0889 38.8628 42.3064C38.8888 42.2542 38.941 42.2281 38.941 42.1499C38.941 42.0716 38.8367 42.0455 38.7845 42.0977L38.8367 42.1238Z" fill="#FBB428"/>
<path d="M39.8262 36.4377C39.8262 36.4377 39.6437 36.6464 39.5654 36.7246C39.0437 37.3506 38.5482 37.9505 38.1047 38.6287C37.6874 39.2808 37.3223 39.9589 36.9571 40.6371C36.4615 41.5761 36.0442 42.5672 35.4964 43.5062C35.2356 43.9496 34.74 44.5234 34.3749 44.9669C34.2184 45.1494 34.0619 45.3059 33.9054 45.4624C33.8793 45.5146 33.9315 45.5928 33.9836 45.5407C34.5575 44.9929 35.0791 44.393 35.5486 43.741C36.1746 42.802 36.6441 41.8108 37.1658 40.8197C37.4787 40.298 37.8961 39.5155 38.1308 39.0982C38.6525 38.2635 39.2524 37.481 39.8523 36.6985C39.8784 36.6464 39.9306 36.6203 39.9567 36.542C39.9567 36.4899 39.9306 36.4116 39.8784 36.4116L39.8262 36.4377Z" fill="#FBB428"/>
<path d="M41.0556 30.2299C41.0556 30.2299 40.8209 30.4386 40.6905 30.5429C39.6993 31.5341 38.7864 32.6035 38.0039 33.7772C37.3779 34.7423 36.8563 35.7073 36.2824 36.6463C36.0738 37.0115 35.813 37.3245 35.5782 37.6375C35.2652 38.0548 34.9522 38.4982 34.561 38.8112C34.3784 38.9416 34.1958 39.1242 33.9871 39.2025C33.9611 39.2025 33.9089 39.2285 33.8828 39.2807C33.8828 39.3329 33.9089 39.385 33.9611 39.359C34.6914 39.0199 35.213 38.3678 35.7086 37.7157C36.465 36.8028 37.0649 35.6552 37.6648 34.6901C38.6038 33.1251 39.8036 31.821 41.0035 30.5168C41.0556 30.4386 41.1339 30.3864 41.186 30.3082C41.186 30.256 41.16 30.1777 41.1078 30.1777L41.0556 30.2299Z" fill="#FBB428"/>
<path d="M42.2514 26.0566C42.2514 26.0566 42.0688 26.161 41.9645 26.2392C40.9733 27.1782 40.0343 28.2215 39.1997 29.317C38.4954 30.1778 37.6608 31.0646 36.9304 31.7688C36.6696 32.0036 36.3044 32.3426 36.0697 32.447C35.9132 32.5513 35.7306 32.5774 35.548 32.6556C35.4698 32.7078 35.548 32.8382 35.6263 32.8122C36.1219 32.7078 36.5392 32.3948 36.9043 32.0557C37.3738 31.6384 37.8433 31.1689 38.2867 30.6994C38.9127 30.0473 39.4866 29.317 40.0865 28.6128C40.7907 27.8303 41.521 27.0739 42.2253 26.3175C42.2514 26.2914 42.3035 26.2653 42.3035 26.2131C42.3035 26.161 42.3035 26.1088 42.2514 26.0827V26.0566Z" fill="#FBB428"/>
<path d="M45.0161 20.7092C45.0161 20.7092 44.8074 20.7614 44.7031 20.8135C44.364 21.0483 44.0249 21.283 43.738 21.5438C42.9294 22.222 42.173 22.9784 41.521 23.8391C40.7646 24.9868 39.8777 26.0823 38.8866 26.9169C38.4692 27.256 38.1041 27.5429 37.5824 27.6994C37.4781 27.7255 37.3738 27.7255 37.2434 27.7516H37.2173C37.1912 27.7777 37.2173 27.8559 37.2694 27.8559C38.1823 27.7777 38.9127 27.1256 39.5647 26.4996C40.269 25.8475 40.9471 25.0651 41.521 24.2565C42.3035 23.1871 43.1642 22.3524 44.1032 21.5438C44.3379 21.3352 44.5988 21.1265 44.8335 20.9439C44.9118 20.8657 45.0943 20.8135 45.0161 20.6831V20.7092Z" fill="#FBB428"/>
<path d="M41.0293 15.5196C41.0293 15.5196 40.925 15.7804 40.8468 15.8847C40.3251 17.1628 39.8817 18.4409 39.4122 19.745C39.1774 20.3449 38.9427 20.9449 38.7862 21.5708C38.7862 21.623 38.708 21.7013 38.7601 21.7534H38.8123C39.047 20.9449 39.4383 20.2145 39.8034 19.4581C40.0643 18.9104 40.2469 18.3365 40.4816 17.7627C40.7424 17.0846 41.0815 16.2238 41.238 15.6239C41.238 15.5196 41.1076 15.4413 41.0293 15.5196Z" fill="#FBB428"/>
<path d="M34.43 22.2226C34.1691 21.101 34.143 20.0316 34.2735 18.9622C34.2995 18.8318 34.117 18.7536 34.0909 18.9101C34.0126 19.5882 33.9605 20.2925 34.0387 20.9706C34.1691 22.2748 34.5604 23.5268 34.8473 24.8048C35.0038 25.4308 35.1342 25.9525 35.2385 26.5263C35.2907 26.8654 35.3429 27.1784 35.395 27.5175C35.4211 27.5957 35.5515 27.5696 35.5515 27.4653C35.395 25.6917 34.8212 23.8398 34.456 22.1965L34.43 22.2226Z" fill="#FBB428"/>
<path d="M33.7274 32.2383C33.7274 32.2383 33.4926 31.9253 33.3883 31.7689C33.1796 31.4819 32.9188 31.0646 32.8145 30.8299C32.4754 30.1517 32.2928 29.4475 32.1363 28.7171C31.9016 27.8042 31.719 26.8652 31.3538 26.0045C31.2495 25.7698 31.1452 25.5611 31.0147 25.3524C30.9626 25.2742 30.9365 25.1438 30.8322 25.1177C30.7539 25.1177 30.6757 25.1959 30.7278 25.2742C31.5625 26.6044 31.6668 28.1955 32.0841 29.6561C32.2406 30.2039 32.4493 30.7516 32.7101 31.2472C32.971 31.6645 33.2579 32.0036 33.597 32.3166C33.6491 32.3688 33.7534 32.3166 33.7274 32.2383Z" fill="#FBB428"/>
<path d="M31.9222 37.9507C30.5137 35.9423 30.618 33.4123 29.9399 30.9865C29.9138 30.8561 29.34 28.8216 29.2617 29.2911C29.8095 30.6214 29.992 32.0299 30.1225 33.4644C30.2268 34.4817 30.4094 35.4728 30.7485 36.4379C30.9571 37.1161 31.3484 37.742 31.8179 38.2637C31.87 38.3159 31.87 38.368 31.9483 38.3941C32.0004 38.3941 32.0526 38.368 32.0526 38.3159C32.0526 38.2115 31.9483 38.1072 31.87 37.9768L31.9222 37.9507Z" fill="#FBB428"/>
<path d="M31.6901 45.5665C31.4553 44.2623 30.8554 42.6713 30.1251 41.4193C29.786 40.8194 29.4208 40.2195 29.0296 39.6717C28.7688 39.3066 28.534 39.0718 28.2732 38.6806C28.1428 38.4719 28.0124 38.2893 27.908 38.0285C27.8819 37.9502 27.8559 37.872 27.8037 37.8198C27.7515 37.8198 27.6994 37.8459 27.7254 37.8981C27.9341 38.5762 28.3514 39.0979 28.7688 39.6978C29.0035 40.0369 29.1861 40.402 29.3948 40.7411C29.8121 41.4714 30.2816 42.2539 30.6467 43.1408C30.9597 43.8972 31.1684 44.6797 31.4292 45.4361C31.4814 45.5404 31.4814 45.6186 31.5597 45.6708C31.6379 45.6969 31.7161 45.6186 31.6901 45.5404V45.5665Z" fill="#FBB428"/>
<path d="M31.2479 50.1579C31.2479 50.1579 31.1436 50.0536 31.0914 49.9753C30.4654 49.2189 29.9176 48.306 29.5786 47.4974C28.9787 46.0628 28.4831 44.524 27.7788 43.0894C27.6223 42.7503 27.4398 42.4112 27.2833 42.0722C27.2311 41.9939 27.2311 41.8896 27.1789 41.8374C27.1268 41.8374 27.0746 41.8374 27.1007 41.9156C27.2572 42.4373 27.518 42.9068 27.7267 43.4024C27.9875 44.0545 28.2223 44.7326 28.4831 45.3847C28.7961 46.2976 29.0047 47.0279 29.4221 47.8887C29.8655 48.7494 30.4132 49.5841 31.1435 50.2361C31.1957 50.2622 31.2479 50.2361 31.2218 50.1579H31.2479Z" fill="#FBB428"/>
<path d="M27.9077 51.0964C28.5598 51.2007 29.1858 51.4094 29.7075 51.7746C29.9944 51.9832 30.2291 52.2441 30.3856 52.5571V52.5831C30.3856 52.4527 30.3595 52.3223 30.3595 52.1658C30.3595 51.9832 30.4117 51.6181 30.4117 51.592C30.4639 51.0964 30.5943 50.6269 30.8029 50.1835C31.0116 49.714 31.1159 49.5053 31.3768 49.088C31.4289 49.0098 31.5593 48.8533 31.768 48.9837C31.9767 49.2184 32.0289 49.4532 32.1332 49.6358C32.394 50.1835 32.5766 50.8095 32.4983 51.4094C32.4462 51.7746 32.3158 52.1397 32.0549 52.4006C31.9245 52.5571 31.5854 52.8701 31.2724 53.0266C31.2724 53.0266 31.2724 53.0266 31.2203 53.0266C31.1681 53.0526 31.0899 53.0787 31.0377 53.1048C31.0377 53.1048 31.0116 53.1048 30.9855 53.1048C30.8812 53.1309 30.8029 53.157 30.6986 53.157C30.6986 53.1831 30.6986 53.2091 30.6986 53.2352C30.6986 53.2874 30.6204 53.3135 30.5682 53.3135C30.4639 53.3396 30.516 53.3135 30.3856 53.3656C30.3074 53.3656 30.2291 53.4178 30.1509 53.3917C30.1509 53.3917 29.7074 53.3917 29.6292 53.3917C29.4466 53.3917 29.1597 53.2613 29.0815 53.2352C28.8206 53.1309 28.5859 52.9744 28.3772 52.8179C28.1686 52.6092 27.9599 52.4006 27.8034 52.1658C27.6208 51.905 27.5165 51.6442 27.4382 51.4094C27.1513 50.8095 27.5165 50.9399 27.9338 51.0182L27.9077 51.0964Z" fill="#FBB428"/>
<path d="M25.7969 48.5664C25.7969 48.5664 25.849 48.436 25.9273 48.436C26.5011 48.6708 27.2836 48.6447 27.9357 48.9316C28.3008 49.0881 28.6399 49.3229 28.9007 49.6098C29.0572 49.7663 29.2137 49.9228 29.3181 50.1314C29.5528 50.4966 29.1094 50.6009 28.8225 50.6531C28.6921 50.6531 28.5617 50.6531 28.4312 50.6531C27.9618 50.6531 27.5444 50.4705 27.1532 50.2618C26.9967 50.1836 26.6054 49.9228 26.5011 49.7402C26.3185 49.5315 26.0577 49.062 25.9795 48.9577C25.9273 48.8794 25.8751 48.7751 25.849 48.6969C25.849 48.6969 25.849 48.6708 25.849 48.6447C25.849 48.6447 25.849 48.5925 25.849 48.5404L25.7969 48.5664Z" fill="#FBB428"/>
<path d="M23.4193 45.1236C23.4193 45.1236 23.4193 45.0192 23.4976 44.9932C23.6802 44.9932 23.628 44.9932 23.7584 44.9932C24.9061 45.0714 26.0016 45.0975 26.8362 46.1408C26.9927 46.3495 27.1492 46.506 27.2536 46.6886C27.3057 46.7668 27.3579 46.8451 27.41 46.9233C27.41 46.9233 27.4101 46.9755 27.4361 47.0016C27.4622 47.0537 27.4622 47.1059 27.4361 47.1581C27.4361 47.2102 27.3579 47.2624 27.3057 47.2885C27.1753 47.3928 26.9927 47.445 26.8362 47.4971C26.6015 47.5493 26.3146 47.5754 25.9755 47.4971C25.8712 47.4971 25.4538 47.2885 25.2451 47.1581C24.9843 47.0016 24.6452 46.7929 24.3583 46.506C24.1497 46.2973 23.9932 46.0365 23.8106 45.8017C23.7584 45.7235 23.7063 45.6192 23.628 45.5409C23.628 45.5409 23.6019 45.4887 23.5758 45.4627C23.5758 45.4627 23.5498 45.4366 23.5237 45.3844C23.4715 45.3062 23.4193 45.254 23.4193 45.1757C23.4193 45.254 23.3672 45.0975 23.3672 45.0453L23.4193 45.1236Z" fill="#FBB428"/>
<path d="M21.1798 42.2282C21.1798 42.2282 21.232 42.2282 21.2581 42.2282C21.2581 42.2282 21.3102 42.2282 21.3363 42.2282C21.545 42.2282 21.7537 42.2282 21.9623 42.2282C22.3536 42.1761 22.7448 42.2022 23.1361 42.3065C23.3969 42.3587 23.6577 42.4369 23.8925 42.5412C24.3359 42.7499 24.7271 43.089 25.014 43.5063C25.0662 43.5846 25.1184 43.6889 25.1184 43.7671C25.1184 43.7671 25.1184 43.7671 25.1184 43.7932C25.1184 43.8715 25.1184 43.9236 25.0401 44.0019C24.9097 44.1584 24.701 44.2105 24.5184 44.2888C23.2143 44.5496 21.9884 43.715 21.2842 42.8542C21.1798 42.7238 21.0755 42.6195 20.9972 42.463C20.9712 42.3586 21.0494 42.2282 21.1537 42.2543L21.1798 42.2282Z" fill="#FBB428"/>
<path d="M18.9375 40.4026C18.9375 40.4026 18.9897 40.22 19.094 40.1939C19.1723 40.1939 19.2244 40.1939 19.3027 40.1939C19.7461 40.1156 20.1895 40.0635 20.6329 40.0635C21.0502 40.0635 21.4676 40.22 21.8588 40.4026C21.9371 40.4547 22.0153 40.4808 22.0935 40.533C22.3283 40.6373 22.537 40.7416 22.7456 40.8981C22.876 41.0025 23.0065 41.1068 23.1369 41.2372C23.2151 41.3415 23.3455 41.4459 23.2934 41.5763C23.1629 41.7328 22.9543 41.785 22.7456 41.8371C22.3022 41.9415 21.8588 41.9154 21.4154 41.8371C20.659 41.7328 19.9287 41.472 19.3548 40.9242C19.1983 40.7938 19.1462 40.7155 19.0679 40.6112C19.0158 40.5069 19.0158 40.5069 18.9897 40.4808V40.4286L18.9375 40.4026Z" fill="#FBB428"/>
<path d="M18.2287 36.9851C18.2287 36.9851 18.2287 36.9329 18.2287 36.9068C18.2287 36.8025 18.333 36.6982 18.4374 36.7243C18.7764 36.8025 19.1155 36.8808 19.4285 36.9851C20.1067 37.1938 20.7848 37.585 21.0978 38.2632C21.3326 38.7066 21.489 39.1761 21.6195 39.6456C21.6195 39.6456 21.6195 39.6716 21.6195 39.6977C21.6195 39.7499 21.6456 39.776 21.6716 39.8281V39.8803C21.6716 39.8803 21.6716 39.9064 21.6716 39.9325C21.6716 40.0107 21.5673 40.0368 21.5412 39.9846C21.463 39.9846 21.4108 39.9064 21.3325 39.9064C21.2543 39.9064 20.9674 39.8281 20.837 39.776C20.2892 39.6195 19.7415 39.4369 19.272 39.0978C18.8547 38.7848 18.5938 38.3153 18.4113 37.8198C18.3069 37.5328 18.1765 37.1677 18.2026 36.9851H18.2287Z" fill="#FBB428"/>
<path d="M22.5878 40.6891C22.5878 40.6891 22.327 40.1935 22.2487 39.9588C22.1966 39.7762 22.1705 39.5675 22.1444 39.3849C22.1183 39.098 22.1444 38.8372 22.1444 38.5503C22.1966 38.3155 22.2748 38.0547 22.327 37.82C22.327 37.7417 22.3531 37.6374 22.4052 37.5591C22.4052 37.4809 22.4574 37.4287 22.5357 37.4287C22.6139 37.4287 22.64 37.4809 22.6921 37.533C22.7704 37.6374 22.7704 37.6374 22.8225 37.6895C22.979 37.8721 23.1356 38.0025 23.3181 38.2373C23.5268 38.4981 23.8659 39.0459 23.9441 39.2545C24.0745 39.5414 24.0745 39.9066 24.0485 40.2196C24.0224 40.4804 23.9441 40.6369 23.892 40.8195C23.8137 41.0803 23.6572 41.3151 23.4746 41.4977C23.4225 41.5238 23.3964 41.5759 23.3442 41.602C23.2399 41.6281 23.1616 41.5498 23.1616 41.4716C22.9791 41.2368 22.7704 41.0021 22.5878 40.7413V40.6891Z" fill="#FBB428"/>
<path d="M24.8575 43.2196C24.9097 43.2978 24.9357 43.4021 25.014 43.4543C25.0661 43.4543 25.1183 43.4543 25.1705 43.4543C25.2748 43.4021 25.3791 43.35 25.4835 43.2457C25.7443 43.037 26.0051 42.7762 26.1356 42.4632C26.2399 42.2806 26.292 42.0458 26.3181 41.9415C26.3442 41.785 26.3703 41.6024 26.3703 41.4459C26.3703 41.1851 26.3442 41.1068 26.2399 40.846C26.0573 40.4287 25.8226 40.0896 25.6921 39.8549C25.6139 39.7244 25.4835 39.5679 25.327 39.6723C25.2748 39.7244 25.2487 39.8027 25.1966 39.8549C24.9879 40.0896 24.8053 40.3243 24.6488 40.6113C24.4662 40.9503 24.4141 41.2112 24.4141 41.5503C24.4141 41.8111 24.4141 42.098 24.4923 42.3588C24.5706 42.6197 24.6749 42.8283 24.7792 43.037C24.7792 43.1152 24.8314 43.1935 24.8575 43.2717V43.2196Z" fill="#FBB428"/>
<path d="M27.2819 46.4532C27.2297 46.2967 27.1515 46.1663 27.0993 46.0098C26.9689 45.5664 26.8906 45.123 26.8906 44.6535C26.8906 44.184 27.0471 43.7666 27.2558 43.3493C27.3601 43.1667 27.4384 42.9842 27.5166 42.7755C27.5949 42.5407 27.7253 42.3842 27.9079 42.6451C28.1687 43.0102 28.4034 43.3493 28.5599 43.7666C28.8729 44.5752 28.8468 45.3316 28.5338 46.1141C28.4295 46.3749 28.2208 46.5836 28.0383 46.7923C27.96 46.8705 27.8818 46.9488 27.8035 47.0009C27.7514 47.0531 27.6992 47.1053 27.6209 47.0792C27.5688 47.0792 27.5427 47.027 27.5166 47.0009C27.5166 47.0009 27.5166 47.0009 27.4905 46.9749C27.4905 46.9749 27.4905 46.9488 27.4905 46.9227C27.4905 46.9227 27.4644 46.8705 27.4384 46.8444C27.3862 46.7401 27.334 46.6097 27.2819 46.4793V46.4532Z" fill="#FBB428"/>
<path d="M28.9774 48.932C28.8209 48.4886 28.7948 47.9669 29.0556 47.4453C29.3165 46.9758 29.5512 46.5584 29.9424 46.2976C30.0468 46.2194 30.1772 46.2454 30.2033 46.4019C30.2554 46.5324 30.2815 46.6367 30.3337 46.7671C30.5684 47.2888 30.751 47.8104 30.751 48.3843C30.751 49.1667 30.5163 49.871 30.0468 50.3405C30.0468 50.3405 30.0207 50.3666 29.9946 50.3926C29.9424 50.4187 29.9164 50.4709 29.8642 50.497C29.812 50.497 29.7859 50.5752 29.7338 50.5752C29.6816 50.5752 29.6816 50.5231 29.6816 50.4709C29.6034 50.3926 29.5251 50.2622 29.4729 50.1579C29.2904 49.7667 29.0817 49.3493 28.9774 48.932Z" fill="#FBB428"/>
<path d="M20.2109 38.7331C20.2109 38.7331 20.2631 38.6809 20.2892 38.707C20.6283 38.9678 20.9413 39.2287 21.2804 39.5156C21.5412 39.7503 21.8281 39.959 22.0889 40.1937C22.7671 40.8197 23.4192 41.4718 24.0712 42.1239C24.7494 42.8281 25.245 43.402 25.871 44.2105C26.1318 44.5235 26.3926 44.8365 26.6274 45.1756C27.149 45.9581 27.6707 46.7145 28.1663 47.497C28.5575 48.1751 28.8966 48.8794 29.2618 49.5576C29.6269 50.2618 29.9921 50.966 30.3312 51.6964C30.6442 52.4267 30.9311 53.1831 31.1919 53.9395C31.3745 54.4872 31.6092 55.1915 31.6614 55.661C31.6614 55.7392 31.6614 55.8175 31.6614 55.8696C31.6614 55.9218 31.6092 55.9479 31.5831 55.9479C31.4788 55.9479 31.4788 55.8436 31.4527 55.7914C31.4006 55.6349 31.3484 55.4523 31.2702 55.2958C31.0876 54.7481 30.8789 54.2003 30.6702 53.6526C30.0703 52.0876 29.4183 50.8878 28.6358 49.401C28.3489 48.8794 28.088 48.3317 27.775 47.81C27.5403 47.4187 27.2794 47.0275 27.0186 46.6102C26.7317 46.1668 26.4709 45.6973 26.1579 45.2799C25.871 44.8626 25.5319 44.4714 25.245 44.054C24.5668 43.1933 24.0451 42.5673 23.3931 41.8891C22.8975 41.3414 22.3758 40.7676 21.8281 40.2459C21.6194 40.0372 21.3847 39.8547 21.176 39.646C20.9413 39.4113 20.7326 39.1765 20.4718 38.9678C20.3935 38.8896 20.3153 38.8374 20.237 38.7592C20.237 38.7592 20.237 38.7592 20.237 38.7331H20.2109Z" fill="#D58940"/>
<path d="M24.8776 49.5314C25.3732 49.7923 25.8949 50.0531 26.3905 50.3661C26.9904 50.7313 27.5642 51.1486 28.138 51.5659C28.4771 51.8007 28.764 52.0876 29.1031 52.3223C29.4422 52.5571 29.7813 52.7918 30.1725 53.0005C30.1986 53.0005 30.2507 53.0005 30.2768 53.0526C30.2768 53.0787 30.2768 53.1048 30.2247 53.1048C29.9899 53.0005 29.7552 52.844 29.5465 52.6875C29.3378 52.5571 29.1031 52.4006 28.8944 52.2441C28.5814 52.0093 28.2945 51.7224 27.9815 51.5137C27.4859 51.1486 27.0164 50.8356 26.4948 50.5226C25.9731 50.2096 25.4515 49.9227 24.9298 49.6097C24.9037 49.6097 24.8516 49.5836 24.8516 49.5575C24.8516 49.5054 24.8776 49.4793 24.9298 49.5053L24.8776 49.5314Z" fill="#FBB428"/>
<path d="M22.8971 46.6362C22.8971 46.6362 23.0535 46.6884 23.1318 46.7145C23.5752 46.9231 24.0447 47.1579 24.462 47.4187C24.8794 47.6795 25.2445 47.9665 25.6358 48.2534C26.1574 48.6446 26.653 49.088 27.2007 49.4793C27.4616 49.6619 27.905 49.8444 28.218 50.0009C28.3484 50.0531 28.4788 50.1053 28.6092 50.1574C28.6353 50.1574 28.6092 50.2357 28.5832 50.2357C28.1137 50.0792 27.6442 49.8705 27.2268 49.6358C26.6269 49.2706 26.1053 48.8533 25.5575 48.4099C25.2445 48.2012 24.8011 47.8621 24.5664 47.7056C24.0447 47.3666 23.497 47.0796 22.9753 46.8188C22.9492 46.8188 22.8971 46.7927 22.871 46.7666C22.8449 46.7406 22.871 46.6884 22.871 46.6884L22.8971 46.6362Z" fill="#FBB428"/>
<path d="M20.6341 43.5066C20.6341 43.5066 20.8166 43.5587 20.921 43.5848C21.7556 43.8978 22.5642 44.2369 23.2945 44.7064C23.8944 45.0715 24.4422 45.4889 25.016 45.854C25.2247 45.9844 25.4594 46.1149 25.6681 46.2192C25.955 46.3757 26.2419 46.5322 26.5549 46.6104C26.7114 46.6365 26.8418 46.6887 26.9983 46.6887C27.0244 46.6887 27.0505 46.6887 27.0766 46.6887V46.7669C26.5549 46.7669 26.0854 46.5322 25.642 46.2974C24.9638 45.9844 24.3379 45.4889 23.7379 45.1237C22.799 44.4977 21.7556 44.0804 20.7384 43.637C20.6862 43.637 20.6341 43.6109 20.5819 43.5587C20.5558 43.5326 20.5819 43.4805 20.5819 43.4805L20.6341 43.5066Z" fill="#FBB428"/>
<path d="M18.8828 41.4712C18.8828 41.4712 19.0132 41.4712 19.0915 41.4973C19.9261 41.7842 20.7086 42.1233 21.4911 42.5145C22.1171 42.8014 22.8214 43.0883 23.4473 43.297C23.656 43.3752 23.969 43.4535 24.1255 43.4535C24.2559 43.4535 24.3602 43.4535 24.4646 43.4535C24.5167 43.4535 24.5167 43.5578 24.4646 43.5578C24.1516 43.6361 23.8386 43.5578 23.5256 43.4535C23.1343 43.3492 22.7692 43.1927 22.3779 43.0362C21.8302 42.8275 21.3085 42.5667 20.7869 42.3319C20.187 42.0711 19.561 41.8364 18.9611 41.6016C18.9611 41.6016 18.9089 41.6016 18.8828 41.5755C18.8828 41.5755 18.8828 41.5234 18.8828 41.4973V41.4712Z" fill="#FBB428"/>
<path d="M15.9375 39.2026C15.9375 39.2026 16.0679 39.2026 16.1462 39.2026C16.407 39.2548 16.6417 39.307 16.9026 39.3591C17.5547 39.5417 18.1807 39.7504 18.7806 40.0895C19.5109 40.5329 20.3195 40.9241 21.1019 41.1328C21.441 41.2371 21.7279 41.2893 22.067 41.2371C22.1453 41.2371 22.1974 41.211 22.2757 41.185C22.2757 41.185 22.2757 41.185 22.3018 41.185C22.3278 41.185 22.3018 41.2371 22.3018 41.2632C21.754 41.4458 21.1541 41.2632 20.6064 41.0806C20.0325 40.898 19.4326 40.6372 18.911 40.3242C18.1806 39.933 17.4764 39.6982 16.72 39.4635C16.5374 39.4113 16.3288 39.3591 16.1462 39.307C16.094 39.2809 15.9636 39.307 15.9636 39.2026H15.9375Z" fill="#FBB428"/>
<path d="M16.9798 35.342C16.9798 35.342 17.1102 35.4464 17.1885 35.4985C17.8144 36.0724 18.3883 36.6723 18.9882 37.2722C19.2751 37.5591 19.562 37.8199 19.8228 38.1329C19.8228 38.159 19.9011 38.1851 19.9011 38.2373H19.875C19.5359 37.846 19.1186 37.533 18.7273 37.22C18.4404 36.9853 18.1796 36.6984 17.8927 36.4636C17.5797 36.1506 17.1624 35.7594 16.9276 35.4725C16.9015 35.4203 16.9276 35.342 17.0059 35.3681L16.9798 35.342Z" fill="#FBB428"/>
<path d="M22.5336 37.4027C22.4032 36.7246 22.1424 36.1247 21.8294 35.5509C21.7772 35.4726 21.8555 35.3943 21.9337 35.4726C22.1424 35.8378 22.3511 36.2029 22.4815 36.5942C22.7423 37.3506 22.8206 38.1331 22.9771 38.9156C23.0553 39.3068 23.1075 39.6198 23.1857 39.9589C23.2379 40.1675 23.29 40.3501 23.3422 40.5327C23.3422 40.5849 23.264 40.5849 23.2379 40.5327C22.8988 39.5155 22.7684 38.3417 22.5597 37.3506L22.5336 37.4027Z" fill="#FBB428"/>
<path d="M25.4573 42.7758C25.4573 42.7758 25.5094 42.541 25.5355 42.4367C25.5877 42.228 25.6399 41.9411 25.6399 41.7846C25.6399 41.3412 25.5877 40.8717 25.5095 40.4283C25.4312 39.8545 25.3008 39.3067 25.3008 38.7329C25.3008 38.5764 25.3008 38.446 25.3269 38.2895C25.3269 38.2373 25.3269 38.1591 25.379 38.1069C25.4312 38.0808 25.4834 38.1069 25.4834 38.1591C25.3269 39.1242 25.6659 40.011 25.7703 40.9239C25.8224 41.263 25.8224 41.6281 25.7703 41.9672C25.7181 42.2541 25.6399 42.5149 25.5355 42.7758C25.5355 42.8279 25.4573 42.8019 25.4312 42.7758H25.4573Z" fill="#FBB428"/>
<path d="M27.9094 45.4888C28.2485 44.0282 27.5442 42.6458 27.3356 41.133C27.3356 41.0547 27.153 39.7767 27.3095 40.0114C27.3095 40.8982 27.5703 41.7068 27.8311 42.5415C28.0137 43.1153 28.1702 43.7152 28.1963 44.3412C28.2485 44.7846 28.1702 45.2019 28.0137 45.6193C28.0137 45.6714 28.0137 45.6975 27.9615 45.7236C27.9355 45.7236 27.8833 45.7236 27.8833 45.7236C27.8572 45.6714 27.8833 45.5671 27.8833 45.4888H27.9094Z" fill="#FBB428"/>
<path d="M29.9414 49.6355C29.7588 48.853 29.7067 47.8357 29.811 46.9489C29.8632 46.5316 29.9153 46.1143 30.0197 45.6969C30.0718 45.4361 30.1501 45.2535 30.2022 44.9666C30.2283 44.8101 30.2544 44.6797 30.2544 44.5232C30.2544 44.471 30.2544 44.4189 30.2544 44.3667H30.3327C30.3848 44.8101 30.2805 45.1753 30.1762 45.6187C30.124 45.8534 30.0979 46.1143 30.0718 46.3751C29.9936 46.8968 29.9414 47.4445 29.9414 48.0183C29.9414 48.5139 30.0197 49.0095 30.0457 49.5051C30.0457 49.5833 30.0457 49.6355 30.0457 49.6616C30.0197 49.7137 29.9414 49.6616 29.9414 49.6355Z" fill="#FBB428"/>
<path d="M31.3764 52.0878C31.3764 52.0878 31.4025 52.0096 31.4286 51.9574C31.6111 51.3836 31.6894 50.7315 31.6894 50.2099C31.6894 49.2709 31.5851 48.2797 31.6372 47.3146C31.6372 47.0799 31.6372 46.8451 31.6633 46.6365C31.6633 46.5843 31.6633 46.5321 31.6633 46.48H31.7155C31.7416 46.8191 31.7155 47.1321 31.7155 47.4711C31.7155 47.8885 31.7415 48.3319 31.7676 48.7492C31.8198 49.323 31.872 49.7925 31.8459 50.3664C31.7937 50.9663 31.6894 51.5662 31.4025 52.0878C31.4025 52.1139 31.3242 52.0878 31.3242 52.0878H31.3764Z" fill="#FBB428"/>
</svg>
