<svg width="190" height="138" viewBox="0 0 190 138" fill="none" xmlns="http://www.w3.org/2000/svg">
<mask id="mask0_1575_3115" style="mask-type:alpha" maskUnits="userSpaceOnUse" x="1" y="0" width="189" height="138">
<path d="M99.4993 137.5C41.4993 137.5 1 105.5 1 71C1 44 18 0 99.4993 0C177.5 0 190 51.5 190 71C190 105.5 157.499 137.5 99.4993 137.5Z" fill="#D2DDBC"/>
</mask>
<g mask="url(#mask0_1575_3115)">
<path d="M128.786 35.729C133.13 35.729 136.651 32.208 136.651 27.8645C136.651 23.5211 133.13 20 128.786 20C124.443 20 120.922 23.5211 120.922 27.8645C120.922 32.208 124.443 35.729 128.786 35.729Z" fill="#FACF50"/>
<path d="M61.1755 74.1259H53.6484L54.4271 28.3145H60.3969L61.1755 74.1259Z" fill="#BAD5E0"/>
<path d="M57.412 28.3145H54.4271L53.6484 74.1259H57.412V28.3145Z" fill="#A5C7D3"/>
<path d="M60.7685 27.4414H54.0547V28.3152H60.7685V27.4414Z" fill="#BAD5E0"/>
<path d="M54.3008 36.0483H60.5301L60.4695 32.752H54.3613L54.3008 36.0483Z" fill="#86C552"/>
<path d="M54.2031 41.8881H60.6228L60.5709 38.5918H54.255L54.2031 41.8881Z" fill="#86C552"/>
<path d="M61.8003 74.125H53.0273V75.4314H61.8003V74.125Z" fill="#B7CBD8"/>
<path d="M71.8435 74.1259H64.3164L65.1037 28.3145H71.0648L71.8435 74.1259Z" fill="#BAD5E0"/>
<path d="M68.0799 28.3145H65.1037L64.3164 74.1259H68.0799V28.3145Z" fill="#A5C7D3"/>
<path d="M71.4404 27.4414H64.7266V28.3152H71.4404V27.4414Z" fill="#BAD5E0"/>
<path d="M64.9688 36.0483H71.1981L71.1462 32.752H65.0293L64.9688 36.0483Z" fill="#86C552"/>
<path d="M64.8711 41.8881H71.2994L71.2388 38.5918H64.923L64.8711 41.8881Z" fill="#86C552"/>
<path d="M72.4683 74.125H63.6953V75.4314H72.4683V74.125Z" fill="#B7CBD8"/>
<path d="M95.1032 51.4316H58.082V53.6206H95.1032V51.4316Z" fill="#BCDA7F"/>
<path d="M65.292 52.1758H59.2617V53.6206H65.292V52.1758Z" fill="#97CB63"/>
<path d="M72.4678 52.1758H66.4375V53.6206H72.4678V52.1758Z" fill="#97CB63"/>
<path d="M79.6475 52.1758H73.6172V53.6206H79.6475V52.1758Z" fill="#97CB63"/>
<path d="M86.8233 52.1758H80.793V53.6206H86.8233V52.1758Z" fill="#97CB63"/>
<path d="M94.003 52.1758H87.9727V53.6206H94.003V52.1758Z" fill="#97CB63"/>
<path d="M121.704 42.2345C121.738 42.1567 121.773 42.0875 121.799 42.0096C121.816 42.0875 121.842 42.1567 121.86 42.2345H169.505C169.341 39.7601 167.29 37.8135 164.773 37.8135C163.951 37.8135 163.181 38.0211 162.506 38.3931C161.667 35.3217 158.863 33.0636 155.524 33.0636C154.2 33.0636 152.972 33.4183 151.907 34.0413C150.497 29.7932 146.491 26.7305 141.776 26.7305C137.061 26.7305 133.323 29.5942 131.792 33.6087C130.909 33.228 129.932 33.0117 128.911 33.0117C128.106 33.0117 127.328 33.1501 126.601 33.3924C125.718 31.6793 123.936 30.5027 121.877 30.5027C121.02 30.5027 120.207 30.7103 119.489 31.0737C117.629 29.2049 115.051 28.0542 112.213 28.0542C108.095 28.0542 104.539 30.4854 102.903 33.9894C102.428 33.8855 101.934 33.825 101.433 33.825C98.2661 33.825 95.6273 36.0139 94.9092 38.9642C94.3987 38.7392 93.8363 38.6094 93.2394 38.6094C91.1197 38.6094 89.3806 40.1927 89.1211 42.2432H121.713L121.704 42.2345Z" fill="white"/>
<path d="M197.996 110.029C197.996 110.029 162.705 93.8587 80.4609 91.5227C77.8567 91.4449 75.2006 91.3843 72.4926 91.341C55.5263 91.0555 36.6826 91.3583 15.875 92.4831L28.3163 138.277L154.919 136.815L197.996 110.029Z" fill="url(#paint0_linear_1575_3115)"/>
<mask id="mask1_1575_3115" style="mask-type:luminance" maskUnits="userSpaceOnUse" x="15" y="91" width="184" height="48">
<path d="M198 110.03C198 110.03 162.709 93.8599 80.465 91.5239C77.8608 91.4461 75.2047 91.3855 72.4967 91.3423C55.5305 91.0567 36.6868 91.3596 15.8792 92.4843L28.3205 138.278L154.923 136.816L198 110.03Z" fill="white"/>
</mask>
<g mask="url(#mask1_1575_3115)">
<g style="mix-blend-mode:multiply" opacity="0.3">
<path d="M183.152 114.079C182.52 113.24 174.578 103.905 149.911 96.8879L145.378 96.6543C145.378 96.6543 166.618 102.953 177.545 116.259L183.16 114.079H183.152Z" fill="#8CB248"/>
</g>
<g style="mix-blend-mode:multiply" opacity="0.3">
<path d="M86.6999 89.8875C87.2709 89.8443 90.87 92.2754 92.9119 95.667C93.8809 97.2762 94.7115 99.6381 94.1491 102.303L86.4403 101.299C86.4403 101.299 88.3437 94.0577 83.3083 90.3807L86.6999 89.8962V89.8875Z" fill="#8CB248"/>
</g>
<g style="mix-blend-mode:multiply" opacity="0.3">
<path d="M103.566 92.0605C108.731 93.5487 115.306 102.694 115.384 107.738L124.72 109.537C124.72 109.537 117.045 95.9193 108.541 92.5018L103.574 92.0605H103.566Z" fill="#8CB248"/>
</g>
<g style="mix-blend-mode:multiply" opacity="0.3">
<path d="M113.119 92.415C116.883 93.2889 128.502 103.143 132.024 111.691L139.923 114.304C139.923 114.304 132.846 100.124 117.869 92.7784L113.128 92.415H113.119Z" fill="#8CB248"/>
</g>
<g style="mix-blend-mode:multiply" opacity="0.3">
<path d="M124.724 93.9895C131.126 95.6593 144.415 108.153 148.256 115.974H155.247C155.247 115.974 145.159 102.321 130.425 94.6038L124.724 93.9895Z" fill="#8CB248"/>
</g>
<g style="mix-blend-mode:multiply" opacity="0.3">
<path d="M134.524 95.2186C139.611 96.8884 154.7 106.535 159.605 114.599L165.307 113.457C165.307 113.457 152.675 99.4234 138.469 95.21H134.524V95.2186Z" fill="#8CB248"/>
</g>
<g style="mix-blend-mode:multiply" opacity="0.3">
<path d="M159.604 99.1633C170.306 102.148 185.049 107.633 187.999 110.549L195.544 108.68C195.544 108.68 176.536 99.7776 173.897 99.9506C171.258 100.124 159.604 99.1633 159.604 99.1633Z" fill="#8CB248"/>
</g>
<g style="mix-blend-mode:multiply" opacity="0.3">
<path d="M79.3228 89.6376C82.671 94.9671 78.994 101.136 78.994 101.136L73.6212 98.921C73.6212 98.921 76.3725 95.0537 76.6147 91.0392C76.8397 87.4054 79.3228 89.6463 79.3228 89.6463V89.6376Z" fill="#8CB248"/>
</g>
<g style="mix-blend-mode:multiply" opacity="0.3">
<path d="M73.6294 90.0523C70.0995 93.8332 68.1441 98.1418 68.1441 98.1418L62.979 97.4064C62.979 97.4064 67.6337 91.0386 69.2775 89.9658C70.9214 88.9016 73.6294 90.0437 73.6294 90.0437V90.0523Z" fill="#8CB248"/>
</g>
<g style="mix-blend-mode:multiply" opacity="0.3">
<path d="M57.5044 96.7496C60.6277 92.0604 63.8635 89.8455 63.8635 89.8455L60.0394 89.5859C60.0394 89.5859 55.0646 92.2593 51.4135 96.5247C50.3926 97.7186 57.513 96.7496 57.513 96.7496H57.5044Z" fill="#8CB248"/>
</g>
<g style="mix-blend-mode:multiply" opacity="0.3">
<path d="M32.5869 96.3514C35.7102 91.6621 42.995 90.8489 42.995 90.8489H37.0166C37.0166 90.8489 30.9603 91.2382 26.6085 95.2959C25.4578 96.3687 32.5869 96.3601 32.5869 96.3601V96.3514Z" fill="#8CB248"/>
</g>
<g style="mix-blend-mode:multiply" opacity="0.3">
<path d="M52.7535 90.9359C49.8205 91.5329 44.2487 96.5942 44.2487 96.5942L38.8673 96.0491C38.8673 96.0491 44.9755 91.4291 47.8652 90.6158C49.4571 90.1659 52.7535 90.9445 52.7535 90.9445V90.9359Z" fill="#8CB248"/>
</g>
<g style="mix-blend-mode:multiply" opacity="0.3">
<path d="M93.485 91.2375C97.6465 93.1929 101.021 97.5188 101.237 103.791L108.66 105.418C108.66 105.418 106.939 95.6154 98.0704 91.921L93.485 91.2462V91.2375Z" fill="#8CB248"/>
</g>
</g>
<path d="M45.2693 38.373H38.7891V52.3371H45.2693V38.373Z" fill="#B8D2DE"/>
<path d="M47.5251 38.373H42.3945V52.3371H47.5251V38.373Z" fill="#D2E8F2"/>
<path d="M74.1398 50.6172H31.5469V98.8598H74.1398V50.6172Z" fill="#B8D2DE"/>
<path d="M146.125 50.6172H97.8828V98.8598H146.125V50.6172Z" fill="#D2E8F2"/>
<path d="M134.199 73.4746H112.336V98.8591H134.199V73.4746Z" fill="#378A46"/>
<path d="M85.8192 40.4774L97.8799 50.6174H148.519L134.78 38.3145H83.6562L85.8192 40.4774Z" fill="#90B83E"/>
<path d="M90.5234 39.9668L100.499 48.5062L102.653 48.5321L92.6777 39.9928L90.5234 39.9668Z" fill="#378A46"/>
<path d="M96.1562 40.0273L106.132 48.5667L108.295 48.5927L98.3106 40.0533L96.1562 40.0273Z" fill="#378A46"/>
<path d="M101.789 40.0879L111.765 48.6359L113.928 48.6532L103.943 40.1139L101.789 40.0879Z" fill="#378A46"/>
<path d="M107.422 40.1582L117.397 48.6976L119.56 48.7235L109.576 40.1755L107.422 40.1582Z" fill="#378A46"/>
<path d="M113.066 40.2168L123.042 48.7562L125.196 48.7821L115.212 40.2428L113.066 40.2168Z" fill="#378A46"/>
<path d="M118.695 40.2773L128.671 48.8167L130.825 48.8427L120.841 40.3033L118.695 40.2773Z" fill="#378A46"/>
<path d="M124.328 40.3379L134.304 48.8859L136.458 48.9032L126.474 40.3638L124.328 40.3379Z" fill="#378A46"/>
<path d="M129.957 40.4082L139.933 48.9476L142.087 48.9735L132.103 40.4255L129.957 40.4082Z" fill="#378A46"/>
<path d="M74.0948 52.1055H71.1445L94.9717 50.5741H97.8787L83.6291 38.3145L71.1445 52.1055H74.0948Z" fill="#004D6B"/>
<path d="M133.974 73.4746H112.336V75.1098H133.974V73.4746Z" fill="#195F30"/>
<path d="M134.098 98.8591V73.4746H130.819V98.8591H134.098Z" fill="#195F30"/>
<path d="M90.5234 98.8607V78.8145H89.2343V98.8607H90.5234Z" fill="#195F30"/>
<path d="M109.733 58.5059H102.656V65.5831H109.733V58.5059Z" fill="#386E89"/>
<path d="M117.94 58.5059H110.863V65.5831H117.94V58.5059Z" fill="#386E89"/>
<path d="M126.155 58.5059H119.078V65.5831H126.155V58.5059Z" fill="#386E89"/>
<path d="M134.362 58.5059H127.285V65.5831H134.362V58.5059Z" fill="#386E89"/>
<path d="M142.577 58.5059H135.5V65.5831H142.577V58.5059Z" fill="#386E89"/>
<path d="M74.136 54.6914H42.8164V98.8503H74.136V54.6914Z" fill="#D2E8F2"/>
<path d="M53.2107 61.916H46.7305V75.8801H53.2107V61.916Z" fill="#386E89"/>
<path d="M60.7263 61.916H54.2461V75.8801H60.7263V61.916Z" fill="#386E89"/>
<path d="M68.2458 61.916H61.7656V75.8801H68.2458V61.916Z" fill="#386E89"/>
<path d="M75.7318 50.6074H31.5469V52.2426H75.7318V50.6074Z" fill="#195F30"/>
<path d="M74.1406 98.8591V52.1565L85.8206 40.4766L97.8812 50.6165V98.8591H74.1406Z" fill="#B8D2DE"/>
<path d="M90.5232 78.8145H81.9492V98.8607H90.5232V78.8145Z" fill="#378A46"/>
<path d="M86.683 58.5332H80.4883V70.291H86.683V58.5332Z" fill="#386E89"/>
<path d="M91.9853 58.5332H87.5469V70.291H91.9853V58.5332Z" fill="#386E89"/>
<path d="M90.4799 78.8145H81.9492V79.4893H90.4799V78.8145Z" fill="#195F30"/>
<path d="M0.607179 90.7188C0.607179 90.7188 109.586 91.9733 158.494 116.527C158.494 116.527 84.7375 137.854 83.7858 137.681C82.8341 137.508 0.46875 137.75 0.46875 137.75L0.607179 90.7188Z" fill="url(#paint1_linear_1575_3115)"/>
<g style="mix-blend-mode:multiply" opacity="0.3">
<path d="M1.12616 121.328L0.953125 111.24C23.3873 107.278 47.647 106.378 68.2816 105.919C105.753 105.08 135.117 107.823 146.987 111.56C151.097 113.101 154.947 114.762 158.494 116.535C158.494 116.535 158.486 116.959 158.46 117.677C157.171 117.426 153.13 114.701 151.763 114.424C120.253 108.152 93.4758 108.524 69.8044 110.323C36.2958 112.867 10.6778 118.767 1.12616 121.328Z" fill="#87AF3F"/>
</g>
<g style="mix-blend-mode:multiply" opacity="0.3">
<path d="M0.475755 137.758L0.363281 129.21C43.2244 117.366 75.7986 115.316 107.577 113.75C131.776 112.556 148.033 115.402 148.033 115.402C148.033 115.402 109.679 130.396 83.7928 137.689C43.1466 137.706 0.475755 137.758 0.475755 137.758Z" fill="#87AF3F"/>
</g>
<g style="mix-blend-mode:multiply" opacity="0.3">
<path d="M124.797 105.185C124.797 105.185 60.5138 96.0054 0.8248 104.303L0.738281 99.2412C20.8019 97.459 71.7092 95.8497 118.931 103.394C122.201 104.138 125.428 104.925 128.569 105.765L124.788 105.185H124.797Z" fill="#87AF3F"/>
</g>
<g style="mix-blend-mode:multiply" opacity="0.3">
<path d="M97.0405 99.1283C68.9826 95.5551 23.2231 93.3489 0.226562 94.4563L0.607243 90.7188C0.607243 90.7188 49.8967 91.2898 97.0492 99.1283C97.0492 99.1283 97.0492 99.1283 97.0319 99.1283H97.0405Z" fill="#87AF3F"/>
</g>
</g>
<defs>
<linearGradient id="paint0_linear_1575_3115" x1="106.858" y1="93.2185" x2="107.109" y2="118.638" gradientUnits="userSpaceOnUse">
<stop offset="0.03" stop-color="#AABE4F"/>
<stop offset="0.87" stop-color="#86AF42"/>
</linearGradient>
<linearGradient id="paint1_linear_1575_3115" x1="84.8846" y1="88.5731" x2="65.6862" y2="142.846" gradientUnits="userSpaceOnUse">
<stop offset="0.03" stop-color="#B1C342"/>
<stop offset="0.73" stop-color="#7AAE42"/>
<stop offset="1" stop-color="#6B9D41"/>
</linearGradient>
</defs>
</svg>
