<svg width="16" height="16" viewBox="0 0 16 16" fill="none" xmlns="http://www.w3.org/2000/svg">
<g clip-path="url(#clip0_2227_24298)">
<path d="M4.65572 4.38412C5.32122 3.72687 6.17506 3.44022 7.19606 3.529C9.32344 3.71678 10.6098 6.35215 11.125 7.67462C11.0832 8.02212 11.047 8.37053 11.0173 8.71915C10.9563 8.68778 10.9073 8.63337 10.8864 8.56228C10.8784 8.53541 10.3732 6.86053 9.39934 5.5565C9.09916 5.1545 8.63506 4.90487 8.13337 4.90769C7.75097 4.90984 7.32862 4.99709 6.96622 5.22759C4.79953 6.6055 3.60375 10.5789 3.59194 10.6188C3.55897 10.7302 3.45687 10.805 3.34297 10.805C3.33384 10.805 3.32456 10.8045 3.31531 10.8034C3.19062 10.7902 3.09322 10.6898 3.08384 10.5647C3.07056 10.3889 2.77922 6.23741 4.65572 4.38412Z" fill="#F9BD29"/>
<path d="M11.1575 10.2854C11.2967 10.2854 11.4121 10.1751 11.417 10.0348C11.42 9.94779 11.4862 7.88092 11.0202 5.63064C10.3908 2.59067 9.074 0.711761 7.21234 0.196823C5.69934 -0.221739 4.301 0.0321984 3.27468 0.911667C2.06228 1.95042 1.53415 3.72179 1.78743 5.89951C1.80165 6.02204 1.90006 6.11767 2.02284 6.12832C2.14728 6.14051 2.25912 6.06185 2.2944 5.94367C3.13456 3.12317 6.218 1.21801 8.27368 1.50045C8.44647 1.5242 8.60971 1.6016 8.72862 1.7292C11.0672 4.23785 10.9002 9.94792 10.8977 10.0165C10.8928 10.1599 11.0049 10.2804 11.1482 10.2852C11.1514 10.2854 11.1545 10.2854 11.1575 10.2854Z" fill="#F9BD29"/>
<path d="M12.6312 0.466232C12.9659 1.58814 13.5604 4.31426 12.9764 8.20736L11.9374 13.1427L10.8983 10.5452C12.1612 6.75667 12.3873 2.11548 12.4277 0.490732C12.4306 0.372014 12.5972 0.35242 12.6312 0.466232Z" fill="#D1DDBC"/>
<path d="M9.60972 8.15866C11.4092 8.52653 11.6758 12.6232 11.6758 12.6232L10.6368 15.7402C10.6368 15.7402 9.91156 9.77241 9.14431 9.636C8.39006 9.50191 5.16988 11.9895 3.75484 13.1191C3.65844 13.1961 3.53181 13.0712 3.608 12.9742C4.82728 11.4211 7.87956 7.80497 9.60972 8.15866Z" fill="#628423"/>
<path d="M14.2731 3.57124C14.283 5.48995 14.097 10.5062 12.1525 15.664C12.0763 15.8662 11.8804 16 11.6644 16H10.4844C10.2996 16 10.1752 15.8132 10.2456 15.6424C12.2526 10.7655 13.5991 5.50599 14.0685 3.54674C14.0971 3.42714 14.2724 3.44827 14.2731 3.57124Z" fill="#89A751"/>
<path d="M1.85678 6.04545C1.94678 3.35007 2.88847 1.09654 4.89075 0.609508C6.51303 0.214914 7.99697 0.977508 8.625 1.63888C8.52212 1.56482 8.40066 1.51785 8.27362 1.50038C6.21797 1.21795 3.1345 3.1231 2.29434 5.9436C2.25909 6.06182 2.14722 6.14045 2.02278 6.12826C1.95688 6.12257 1.89937 6.09117 1.85678 6.04545Z" fill="#FFD468"/>
<path d="M6.66022 4.03502C7.80006 4.0122 8.57591 4.5383 9.22266 5.3577C8.93137 5.07508 8.54647 4.90527 8.13456 4.90758C7.75216 4.90973 7.32981 4.99698 6.96741 5.22748C4.80072 6.60539 3.60494 10.5788 3.59312 10.6187C3.56016 10.73 3.45806 10.8049 3.34416 10.8049C3.33503 10.8049 3.32575 10.8044 3.3165 10.8033C3.22881 10.794 3.15656 10.7403 3.11697 10.6665C3.23469 4.68439 5.84847 4.05123 6.66022 4.03502Z" fill="#FFD468"/>
</g>
<defs>
<clipPath id="clip0_2227_24298">
<rect width="16" height="16" fill="white"/>
</clipPath>
</defs>
</svg>
