<svg width="150" height="40" viewBox="0 0 150 40" fill="none" xmlns="http://www.w3.org/2000/svg">
<g clip-path="url(#clip0_2227_18110)">
<path d="M11.0522 2.64527C11.3486 3.97212 11.8059 7.53857 9.77341 11.1811C8.70633 13.0995 6.623 15.4743 5.32727 17.2745C2.7104 20.917 0.457688 27.1878 2.27849 32.6643C-0.982014 23.858 -0.456946 14.3419 2.0837 7.10755C3.68431 2.5354 6.07253 -0.752157 8.95193 0.152132C9.45159 0.371866 9.94278 0.53244 10.5187 1.30151C10.832 1.72407 10.9252 2.07903 11.0522 2.65372V2.64527Z" fill="#FBFFF2"/>
<path d="M9.04528 34.4728C9.12997 32.791 9.35016 31.0501 10.5358 28.8274C13.2628 23.6974 19.2926 23.1735 18.1832 9.43164C18.7421 10.4627 21.6892 21.4325 19.1063 31.9459C18.7336 33.4756 18.2763 34.6588 17.3193 36.2054C16.735 37.1519 15.3376 38.6647 14.4145 39.2732C13.6184 39.8056 12.5683 40.0591 11.3911 39.5943C11.0778 39.4591 10.4003 39.045 9.94297 38.2928C9.55341 37.6421 8.96059 36.087 9.04528 34.4728Z" fill="#FBFFF2"/>
<path d="M3.32014 22.9536C3.07454 25.0918 3.32014 30.1288 8.14737 33.8473C8.12196 34.0079 7.67312 37.4053 10.2476 39.9999C10.2476 39.9999 8.99425 39.8055 7.19886 38.8421C-0.202899 34.8868 2.91363 24.8129 3.32014 22.9536Z" fill="#FBFFF2"/>
<path d="M16.014 21.3141C16.4036 19.0322 16.5729 13.4966 11.3477 9.49073C11.4408 9.22029 12.6773 6.25388 11.7965 2.41699C12.0336 3.0931 12.618 5.14676 15.1248 6.76941C18.597 9.01746 17.4876 16.1419 16.014 21.3141Z" fill="#FBFFF2"/>
<path d="M42.76 31.067V9.24572H39.1015C38.7797 10.1669 38.3477 10.8599 37.8057 11.3247C36.7133 12.2628 35.4599 12.7277 34.0371 12.7277C34.054 12.4826 34.071 12.2544 34.0964 12.0431C34.1133 11.8318 34.215 11.4938 34.4097 11.0289C34.5961 10.5726 34.8332 10.1838 35.1296 9.86267C35.4175 9.54152 35.8833 9.25417 36.51 8.99218C37.1367 8.73019 37.8735 8.59497 38.7204 8.59497H52.8464C53.6679 8.59497 54.3877 8.71329 54.9975 8.95838C55.6072 9.20346 56.0646 9.47391 56.3779 9.7866C56.6912 10.0993 56.9368 10.4712 57.1232 10.9275C57.3095 11.3754 57.4196 11.722 57.4619 11.9501C57.4958 12.1868 57.5297 12.4403 57.5466 12.7192C56.1238 12.7192 54.8535 12.2544 53.7441 11.3163C53.4985 11.1135 53.2698 10.8346 53.0581 10.4881C52.8379 10.1416 52.6855 9.84576 52.5923 9.60067L52.4484 9.23727H48.8152V31.0501H42.7685L42.76 31.067Z" fill="white"/>
<path d="M75.3808 12.584C75.3808 12.584 73.5345 13.6742 74.3814 15.1447C75.1098 16.404 73.4668 17.359 73.4668 17.359C74.0003 17.3674 78.3194 15.9476 75.3892 12.584H75.3808Z" fill="white"/>
<path d="M55.0553 15.635H60.5431V26.2076C60.5431 29.0557 61.661 30.4755 63.8883 30.4755C64.6759 30.4755 65.6414 30.1036 66.7847 29.3515V15.635H72.2725V31.0671H66.7847V30.0529C65.2857 31.084 63.702 31.5995 62.0252 31.5995C59.8318 31.5995 58.1211 31.1093 56.8931 30.1374C55.6651 29.1655 55.0469 27.5006 55.0469 25.1427V15.635H55.0553Z" fill="white"/>
<path d="M111.154 15.5419C112.077 15.5419 112.771 15.9138 113.254 16.6491C113.728 17.3928 113.974 18.2463 113.974 19.2182C113.974 19.9704 113.897 20.5197 113.745 20.8747C112.881 20.6127 112.094 20.1056 111.382 19.3619C110.671 18.6098 110.154 17.621 109.832 16.3871C109.307 16.573 108.757 16.9026 108.173 17.3843C107.588 17.866 107.131 18.2971 106.792 18.6943L106.318 19.2859V31.5318H100.83V16.0321H106.318V18.2548C107.893 16.4547 109.511 15.5588 111.162 15.5588L111.154 15.5419Z" fill="white"/>
<path d="M114.948 16.0321H120.436V26.6638C120.436 29.5119 121.554 30.9318 123.781 30.9318C124.569 30.9318 125.534 30.5599 126.677 29.8077V16.0321H132.165V31.4726H126.677V30.5092C125.178 31.5402 123.595 32.0558 121.918 32.0558C119.724 32.0558 118.014 31.5656 116.786 30.5937C115.558 29.6218 114.939 27.9569 114.939 25.599V16.0321H114.948ZM121.113 14.5278C121.147 13.0657 121.689 11.8065 122.714 10.7331C123.747 9.66829 125.043 8.95838 126.601 8.59497V11.7135C124.162 11.9755 122.333 12.9136 121.113 14.5193V14.5278Z" fill="white"/>
<path d="M149.661 18.128C149.568 18.0012 149.424 17.8407 149.22 17.6632C149.026 17.4857 148.585 17.2406 147.899 16.9364C147.213 16.6237 146.468 16.4716 145.664 16.4716C144.63 16.4716 143.716 16.6828 142.903 17.1054C142.098 17.528 141.455 18.0773 140.989 18.7619C140.523 19.4464 140.167 20.1817 139.93 20.9676C139.693 21.7536 139.574 22.548 139.574 23.3509C139.574 24.4918 139.803 25.599 140.252 26.6638C140.701 27.7287 141.438 28.6499 142.445 29.4189C143.462 30.188 144.639 30.5683 145.994 30.5683C146.654 30.5683 147.298 30.4246 147.933 30.1458C148.568 29.8669 149.034 29.6133 149.314 29.3851C149.593 29.157 149.822 28.9541 149.991 28.7682C148.399 30.9571 146.214 32.0558 143.436 32.0558C141.014 32.0558 138.838 31.2275 136.89 29.5711C134.95 27.9146 133.977 25.844 133.977 23.3509C133.977 21.7959 134.451 20.3761 135.399 19.083C136.348 17.79 137.542 16.8012 138.973 16.1166C140.404 15.432 141.886 15.094 143.402 15.094C146.045 15.094 148.128 16.1082 149.652 18.128H149.661Z" fill="white"/>
<path d="M88.3557 31.4643V9.65148H84.6972C84.3754 10.5727 83.9435 11.2657 83.4014 11.7305C82.309 12.6686 81.0556 13.1334 79.6328 13.1334C79.6498 12.8883 79.6667 12.6601 79.6921 12.4489C79.709 12.2376 79.8107 11.8995 80.0054 11.4347C80.1918 10.9783 80.4289 10.5896 80.7253 10.2684C81.0132 9.94728 81.479 9.65993 82.1057 9.39794C82.7324 9.13595 83.4692 9.00073 84.3161 9.00073H98.4421C99.2636 9.00073 99.9834 9.11905 100.593 9.36414C101.203 9.60923 101.66 9.87967 101.974 10.1924C102.287 10.5051 102.533 10.8769 102.719 11.3333C102.905 11.7812 103.015 12.1277 103.058 12.3559C103.091 12.5925 103.125 12.8461 103.142 13.125C101.72 13.125 100.449 12.6601 99.3398 11.7221C99.0942 11.5192 98.8655 11.2403 98.6538 10.8938C98.4336 10.5473 98.2812 10.2515 98.188 10.0064L98.0441 9.64303H94.4109V31.4558H88.3642L88.3557 31.4643Z" fill="white"/>
</g>
<defs>
<clipPath id="clip0_2227_18110">
<rect width="150" height="40" fill="white"/>
</clipPath>
</defs>
</svg>
