<svg width="18" height="10" viewBox="0 0 18 10" fill="none" xmlns="http://www.w3.org/2000/svg">
<path d="M0.968956 8.46944L8.46896 0.969445C8.53861 0.899713 8.62133 0.844393 8.71238 0.80665C8.80343 0.768907 8.90102 0.749481 8.99958 0.749481C9.09815 0.749481 9.19574 0.768907 9.28679 0.80665C9.37784 0.844393 9.46055 0.899713 9.53021 0.969446L17.0302 8.46945C17.1709 8.61018 17.25 8.80105 17.25 9.00007C17.25 9.19909 17.1709 9.38997 17.0302 9.5307C16.8895 9.67143 16.6986 9.75049 16.4996 9.75049C16.3006 9.75049 16.1097 9.67143 15.969 9.5307L8.99958 2.56038L2.03021 9.5307C1.96052 9.60038 1.8778 9.65565 1.78675 9.69337C1.69571 9.73108 1.59813 9.75049 1.49958 9.75049C1.40104 9.75049 1.30345 9.73108 1.21241 9.69337C1.12136 9.65565 1.03864 9.60038 0.968956 9.5307C0.899275 9.46101 0.844 9.37829 0.806288 9.28724C0.768576 9.1962 0.749165 9.09862 0.749165 9.00007C0.749165 8.90152 0.768576 8.80394 0.806288 8.7129C0.844 8.62185 0.899275 8.53913 0.968956 8.46944Z" fill="#526D1D"/>
</svg>
