<svg width="8" height="20" viewBox="0 0 8 20" fill="none" xmlns="http://www.w3.org/2000/svg">
<path d="M3.62374 5.24364C3.71685 5.3536 3.85377 5.41722 3.99785 5.41722C4.14236 5.41722 4.27928 5.35445 4.37281 5.24407C4.79157 4.74904 5.41299 3.83989 5.41299 2.79971C5.41299 1.76037 4.792 0.851635 4.37323 0.356191C4.2797 0.246233 4.1432 0.182617 3.9987 0.182617C3.85461 0.182617 3.71727 0.24539 3.62416 0.35577C3.20497 0.850792 2.58441 1.75995 2.58398 2.79971C2.58441 3.83947 3.20455 4.74862 3.62374 5.24364Z" fill="white"/>
<path d="M4.0006 8.65062C4.07728 8.65399 5.91918 8.7273 7.00571 7.6412C7.74045 6.90604 7.94477 5.82415 7.9987 5.17788C8.0105 5.03422 7.95868 4.89224 7.85672 4.79029C7.75477 4.68834 7.61279 4.63652 7.46871 4.64873C6.82244 4.70266 5.73971 4.90657 5.00413 5.64131C4.19271 6.45356 4.02925 7.6888 3.99976 8.29252C3.97069 7.6888 3.80681 6.45356 2.99497 5.64131C2.25939 4.90614 1.1775 4.70224 0.530809 4.64873C0.387147 4.63652 0.245171 4.68876 0.143217 4.79071C0.0412635 4.89308 -0.0101344 5.03464 0.00166191 5.1783C0.0555878 5.82457 0.259495 6.90646 0.994235 7.6412C2.08202 8.7273 3.92351 8.65399 4.0006 8.65062Z" fill="white"/>
<path d="M5.00413 9.53926C4.19271 10.3515 4.02925 11.5863 3.99976 12.1905C3.97069 11.5863 3.80681 10.3515 2.99497 9.53926C2.25939 8.80409 1.1775 8.60019 0.530809 8.54668C0.387147 8.53489 0.245171 8.58671 0.143217 8.68866C0.0412635 8.79061 -0.0101344 8.93259 0.00166191 9.07625C0.0555878 9.72252 0.259495 10.8048 0.994235 11.5391C2.08076 12.6257 3.92182 12.5519 3.99934 12.5486C4.07601 12.5524 5.91792 12.6261 7.00444 11.5391C7.7396 10.804 7.94351 9.7221 7.99744 9.07541C8.00923 8.93175 7.95741 8.78977 7.85546 8.68824C7.75351 8.58628 7.61153 8.53446 7.46745 8.54668C6.8216 8.60019 5.73971 8.80409 5.00413 9.53926Z" fill="white"/>
<path d="M5.00411 13.4377C4.19269 14.25 4.02923 15.4843 3.99974 16.0889C3.97067 15.4843 3.80679 14.25 2.99495 13.4377C2.25979 12.7021 1.1779 12.4986 0.531631 12.4451C0.387548 12.4333 0.245993 12.4851 0.144039 12.5867C0.0420857 12.6882 -0.0101552 12.8306 0.00164112 12.9738C0.055567 13.6197 0.259053 14.7028 0.994214 15.4372C1.73738 16.1808 2.83444 16.3809 3.47775 16.4323V19.2415C3.47775 19.56 3.69851 19.8182 4.01743 19.8182C4.33593 19.8182 4.55711 19.56 4.55711 19.2415V16.4293C5.20465 16.3737 6.27432 16.1673 7.00442 15.4376C7.73916 14.7028 7.94349 13.621 7.99742 12.9743C8.00921 12.8306 7.95739 12.6882 7.85544 12.5867C7.75349 12.4847 7.61151 12.4329 7.46743 12.4451C6.82158 12.4982 5.73969 12.7021 5.00411 13.4377Z" fill="white"/>
</svg>
