<svg width="185" height="71" viewBox="0 0 185 71" fill="none" xmlns="http://www.w3.org/2000/svg">
<path d="M49.6027 58.2563C47.6549 62.0909 42.1838 63.4781 38.1848 61.2239C33.7188 58.7056 33.1614 53.2532 36.5233 49.7516C36.646 49.6235 36.8999 49.7969 36.7837 49.9348C33.9534 53.3162 34.1966 58.3706 38.5378 60.6682C42.5712 62.8022 46.6153 61.3027 49.1163 58.2208C48.9936 58.1735 49.0022 57.9922 49.1594 57.9883C49.2089 57.9863 49.2584 57.9863 49.3079 57.9843C49.493 57.742 49.6716 57.4917 49.8373 57.2336C49.889 57.1528 50.0353 57.206 50.0052 57.2986C49.9299 57.5331 49.8352 57.7558 49.7362 57.9765C68.6225 57.4582 87.6056 58.14 106.496 58.3351C125.609 58.5321 144.725 58.6858 163.833 59.1469C163.915 59.1489 163.915 59.2612 163.833 59.2632C144.721 59.3617 125.609 59.1509 106.496 58.9854C87.5604 58.8159 68.5192 59.1391 49.6027 58.2563Z" fill="#9DBED0"/>
<path d="M151.707 23.9563C143.295 16.027 129.262 21.4616 130.498 32.7171C130.519 32.9181 130.235 33.0501 130.061 32.9477C123.171 28.8746 115.806 33.0284 114.25 39.8188C114.207 40.004 113.88 39.9626 113.891 39.7735C114.11 35.6197 117.412 31.9979 121.867 31.0619C124.183 30.5752 126.202 30.9732 128.412 31.5545C130.343 32.0609 129.392 32.1693 129.738 30.8964C130.027 29.8402 129.955 28.7643 130.326 27.6825C133.251 19.1699 145.626 16.7561 151.747 23.9188C151.769 23.9444 151.732 23.9799 151.707 23.9563Z" fill="#9DBED0"/>
<path d="M109.388 38.4901C107.231 37.5147 105.654 38.0409 104.655 40.0725C104.532 40.2577 104.235 40.2143 104.164 40.0133C101.543 32.5136 95.2387 25.6346 86.0269 25.4395C76.3803 25.2346 69.7082 33.6467 73.7373 41.8301C73.8342 42.0252 73.5587 42.1789 73.4209 41.9996C72.9324 41.3631 72.56 40.6873 72.2716 39.9897C70.0956 39.633 68.5202 40.7306 67.3988 42.307C67.2525 42.5119 66.9124 42.3819 66.9705 42.1415C67.4505 40.0961 70.3023 39.2409 72.2415 39.9207C70.7801 36.2871 71.9143 32.0348 74.6736 29.0278C78.6166 24.7302 85.4823 23.8691 91.074 25.5676C96.8895 27.3332 101.205 31.9008 103.542 36.9551C104.177 38.3266 103.932 38.9729 105.124 38.6379C106.11 38.3601 106.706 37.4813 107.913 37.3157C110.036 37.0241 111.643 38.0074 112.81 39.5483C112.821 39.5621 112.795 39.5818 112.782 39.568C112.1 38.4764 110.968 38.1177 109.388 38.4901Z" fill="#9DBED0"/>
<path d="M66.8691 43.4753C63.546 41.9856 59.7579 40.628 56.0474 41.7098C51.5082 43.032 50.6581 47.1286 53.4173 50.3484C53.5055 50.4509 53.4302 50.646 53.2623 50.5928C51.6029 50.0805 50.8174 48.8587 50.6581 47.4755C49.4636 45.0104 46.375 43.6172 43.5964 44.632C43.6309 44.703 43.6007 44.8015 43.4888 44.8035C43.3855 44.8054 43.28 44.8035 43.1767 44.8054C43.0519 44.8626 42.9249 44.9158 42.8001 44.9847C39.464 46.8291 39.817 50.5593 42.0748 52.9968C42.1888 53.119 42.0403 53.3397 41.8746 53.2352C38.6634 51.2155 38.8786 46.8804 41.8789 44.8153C37.1718 44.8921 32.4282 44.8606 27.7341 44.6911C27.6523 44.6872 27.6523 44.5788 27.7341 44.5749C32.5703 44.4291 37.4559 44.4271 42.2986 44.5453C45.5206 42.7068 49.2935 44.1217 50.6344 47.0912C50.5763 45.369 51.42 43.4813 52.7415 42.4231C56.9664 39.0437 62.7733 41.095 66.966 43.3197C67.0779 43.3788 66.981 43.5246 66.8691 43.4753Z" fill="#9DBED0"/>
<path d="M112.542 53.9357C112.387 53.9317 112.387 53.7127 112.542 53.7106C136.351 53.3892 160.176 53.9698 183.981 54.2531C184.069 54.2531 184.069 54.3817 183.981 54.3817C160.174 54.3355 136.342 54.5847 112.542 53.9357Z" fill="#9DBED0"/>
<path d="M78.0879 70.2954C78.1675 70.2994 78.1697 70.414 78.0879 70.412C60.6393 69.8528 43.1132 69.6039 25.6991 68.4342C25.5678 68.4263 25.5656 68.2445 25.6991 68.2445C43.1606 68.4125 60.6479 69.513 78.0879 70.2954Z" fill="#9DBED0"/>
<path d="M4.09443 53.255C2.81382 52.5733 1.68386 51.5841 1.1544 50.3328C0.200935 48.0805 1.32013 46.7682 3.05272 45.373C3.72854 44.8272 4.33333 45.9997 3.5542 46.1612C2.95372 47.0145 2.35107 47.8657 1.75059 48.719C1.97873 49.3672 2.20687 50.0155 2.43286 50.6619C2.93865 51.4323 3.91149 52.1161 4.75518 52.5476C5.19425 52.7723 5.65268 52.9457 6.12188 53.0876C7.18296 53.0876 8.24619 53.2235 9.26637 53.4718C9.52895 53.4639 9.78938 53.4679 10.052 53.4442C12.9812 53.1683 15.3315 51.8205 17.2643 49.8737C17.1244 49.8382 17.1287 49.6411 17.2923 49.6333C17.3654 49.6293 17.4386 49.6313 17.5118 49.6274C17.5247 49.6136 17.5398 49.6017 17.5527 49.5879C17.5871 49.5525 17.6259 49.586 17.628 49.6234C23.125 49.3712 28.6456 49.5958 34.1447 49.7022C34.2695 49.7042 34.2695 49.8776 34.1447 49.8796C28.6004 49.9663 23.0324 50.1732 17.4924 49.8894C16.2699 52.1338 13.9261 53.5999 11.3175 54.1556C8.79933 54.4886 6.41029 54.2797 4.09443 53.255Z" fill="#9DBED0"/>
<path d="M165.362 33.2046C165.302 33.378 165.05 33.4608 164.904 33.315C159.321 27.8232 151.407 30.8814 149.295 37.4392C149.231 37.6402 148.858 37.6126 148.88 37.388C149.16 34.316 151.284 31.7149 154.409 30.5011C157.788 29.1868 160.672 30.1543 163.711 31.5928C165.498 32.4401 164.947 32.1169 166.047 30.574C166.959 29.2952 168.263 28.2429 169.772 27.5867C172.927 26.2133 176.35 26.7532 179.182 28.4518C179.249 28.4912 179.188 28.5897 179.117 28.5523C173.735 25.5591 167.28 27.7207 165.362 33.2046Z" fill="#9DBED0"/>
<path d="M92.1747 2.3428C87.5774 4.89066 86.4604 9.71444 89.5683 13.6949C89.6673 13.821 89.4585 13.949 89.3444 13.8545C85.6576 10.7588 87.0049 5.44634 90.6638 2.85513C95.7001 -0.713445 102.301 0.801869 107.404 3.34776C107.417 3.35367 107.406 3.3714 107.394 3.36549C102.798 1.18021 96.9614 -0.311463 92.1747 2.3428Z" fill="#9DBED0"/>
<path d="M90.9411 15.3399C88.6296 13.9251 85.5927 13.7418 83.2359 15.2118C80.834 16.7094 80.4143 19.275 80.4272 21.7263C80.4272 21.8741 80.1818 21.9509 80.1065 21.8051C78.8431 19.3242 80.2399 16.2897 82.6161 14.7882C85.201 13.1566 88.6382 13.4857 91.0358 15.2256C91.109 15.2768 91.0164 15.3872 90.9411 15.3399Z" fill="#9DBED0"/>
<path d="M54.0874 32.0365C49.7182 28.9527 44.2901 30.2808 42.0625 34.8602C41.9614 35.0652 41.6256 35.075 41.4706 34.9292C36.2341 30.0503 30.1884 33.0868 27.7434 38.3618C28.3137 38.553 28.8733 38.7953 29.3963 39.1283C29.4329 39.152 29.4006 39.2013 29.3619 39.1835C28.7614 38.9136 28.1824 38.7303 27.625 38.616C27.5949 38.687 27.5561 38.752 27.5281 38.8229C27.4313 39.0574 27.0396 39.0357 27.0331 38.7618C27.031 38.6771 27.046 38.6003 27.0482 38.5175C23.7724 38.1273 21.3618 40.3323 20.3481 43.4437C20.2814 43.6467 19.9693 43.692 19.8509 43.5029C18.1463 40.7855 13.8374 39.8614 11.1557 41.889C8.86351 43.6231 8.6246 46.2596 9.22939 48.7799C9.28966 49.0321 8.93669 49.1661 8.77957 48.9533C5.2326 44.1709 11.4161 38.5904 16.8722 40.551C16.8549 40.5451 19.711 42.1866 19.81 42.5353C19.9284 42.2476 20.7377 40.2653 21.0196 39.952C22.6016 38.1845 24.898 37.6603 27.0675 38.1608C27.4507 32.8917 34.5446 30.2887 39.4346 32.5961C41.1715 33.4159 41.0251 34.145 42.4973 32.7144C43.5648 31.6759 44.5635 30.8247 46.0421 30.2946C48.9778 29.2423 51.9609 30.0108 54.3284 31.7488C54.5049 31.8769 54.2681 32.1626 54.0874 32.0365Z" fill="#9DBED0"/>
<path d="M131.59 48.8231C131.678 48.8252 131.678 48.9523 131.59 48.9523C119.871 49.0087 108.134 49.2387 96.4195 48.8352C96.3012 48.8312 96.3012 48.6658 96.4195 48.6638C108.139 48.3531 119.873 48.6759 131.59 48.8231Z" fill="#9DBED0"/>
<path d="M67.6658 63.2103C85.7342 63.0527 103.831 63.5955 121.886 64.1423C121.908 64.1423 121.908 64.1742 121.886 64.1742C103.82 64.1383 85.7149 64.0984 67.6658 63.36C67.5646 63.354 67.5625 63.2103 67.6658 63.2103Z" fill="#9DBED0"/>
<path d="M29.1925 60.5623C29.3087 60.5703 29.313 60.7328 29.1925 60.7328C22.5634 60.779 15.8332 60.6787 9.23215 60.0827C9.08795 60.0707 9.08149 59.872 9.23215 59.87C15.8612 59.7155 22.5828 60.0727 29.1925 60.5623Z" fill="#9DBED0"/>
</svg>
