<svg width="1438" height="143" viewBox="0 0 1438 143" fill="none" xmlns="http://www.w3.org/2000/svg">
<g clip-path="url(#clip0_795_8060)">
<path d="M1984.98 104.773C1775.99 104.773 1643.73 53.2358 1489.9 33.6414C1267.28 5.29557 1053.35 30.3009 930 91.4109L1355.45 196H1678.81L1811.5 130.674L1985 104.773H1984.98Z" fill="#526D1D"/>
<path d="M1861 94.1154C1603.43 94.1154 1572.87 48.9435 1427.54 37.2127C1245.92 22.5492 1178.32 74.9648 1022.38 76.6125C835.527 78.5918 637.373 22 351.742 22C112.029 22 -1.99988 68.2185 -1.99988 68.2185V281H1861V94.1154Z" fill="#6D9127"/>
<g clip-path="url(#clip1_795_8060)">
<path d="M204.707 26.2435C203.832 24.8468 200.708 24.6771 199.302 24.2828C195.512 23.2226 175.875 18.8479 169.508 17.9902C155.434 16.0848 140.728 15.1667 126.956 16.3135C118.776 16.9948 110.827 18.6952 102.965 20.4444C94.6477 22.2954 78.1202 28.9581 71.6652 32.0692C54.6411 40.267 38.6609 50.7014 25.8127 64.4791C19.9674 70.7482 14.8074 77.689 10.5372 85.2378C10.214 85.804 9.49612 86.9249 8.49164 88.4352C5.6809 92.6697 0.67023 99.955 -3.76057 106.542C2.40096 102.05 8.56697 96.555 13.6973 89.9754C13.7093 89.9621 13.7234 89.9411 13.7354 89.9279C15.4599 87.4384 17.2065 85.0339 18.9801 82.7117C18.9872 82.7012 18.997 82.6956 19.0041 82.6851C93.6801 -15.1423 207.59 30.8255 204.707 26.2435Z" fill="#5BBF13"/>
<path d="M202.22 16.0889C205.605 15.3182 208.816 13.9636 212.134 12.9582C212.905 12.7238 213.417 13.8831 212.639 14.1154C209.214 15.1491 205.906 16.539 202.41 17.3331C201.616 17.5155 201.423 16.2664 202.217 16.084L202.22 16.0889Z" fill="url(#paint0_linear_795_8060)"/>
<path d="M194.408 32.983C197.601 35.9281 200.543 39.1316 203.736 42.0766C204.331 42.6237 203.575 43.6426 202.977 43.0906C199.784 40.1456 196.842 36.9421 193.649 33.997C193.054 33.4499 193.81 32.431 194.408 32.983Z" fill="url(#paint1_linear_795_8060)"/>
<path d="M176.981 8.46164C180.648 8.20085 184.306 8.69289 187.707 6.98413C188.435 6.61761 188.851 7.81226 188.132 8.17321C184.627 9.92782 180.862 9.45144 177.084 9.72295C176.271 9.77967 176.163 8.52114 176.976 8.46443L176.981 8.46164Z" fill="url(#paint2_linear_795_8060)"/>
<path d="M171.438 28.3763C175.264 30.9368 178.871 33.81 182.408 36.7551C183.033 37.2729 182.277 38.2919 181.649 37.7691C178.112 34.824 174.51 31.948 170.679 29.3903C170 28.9361 170.761 27.927 171.438 28.3763Z" fill="url(#paint3_linear_795_8060)"/>
<path d="M211.714 31.289C215.407 33.3725 219.667 34.4012 223.016 37.0824C223.647 37.5897 222.896 38.6058 222.257 38.0964C218.921 35.4272 214.638 34.3794 210.955 32.303C210.248 31.9034 211.01 30.8943 211.714 31.289Z" fill="url(#paint4_linear_795_8060)"/>
<path d="M20.2804 93.2516C23.259 90.7158 25.7568 87.7436 28.0316 84.5725C28.5096 83.9123 29.5208 84.6661 29.0456 85.3313C26.7065 88.5842 24.1242 91.6367 21.0681 94.2423C20.4441 94.7707 19.669 93.7793 20.2853 93.2488L20.2804 93.2516Z" fill="url(#paint5_linear_795_8060)"/>
<path d="M45.1325 60.7745C48.4694 59.0564 51.6171 57.0034 54.8371 55.0784C55.5378 54.6626 56.0329 55.8253 55.342 56.2355C52.122 58.1605 48.9793 60.2107 45.6374 61.9317C44.9117 62.3031 44.4116 61.1432 45.1325 60.7745Z" fill="url(#paint6_linear_795_8060)"/>
<path d="M62.2685 43.9786C66.1563 43.0277 70.0013 41.932 74.0365 42.0805C74.8538 42.1122 74.7127 43.3682 73.9032 43.3387C69.9823 43.197 66.2292 44.3057 62.4614 45.2277C61.6684 45.4227 61.4804 44.1708 62.2685 43.9786Z" fill="url(#paint7_linear_795_8060)"/>
<path d="M42.2628 34.4905C44.1882 32.1149 46.2596 29.8712 48.2248 27.5316C49.9891 25.4226 51.952 23.1362 52.8275 20.49C53.0842 19.7145 54.2581 20.1814 54.0035 20.9493C53.1365 23.5646 51.2629 25.8135 49.5415 27.9177C47.5055 30.4079 45.3024 32.7521 43.2719 35.2521C42.7597 35.8862 41.7457 35.1274 42.2579 34.4933L42.2628 34.4905Z" fill="url(#paint8_linear_795_8060)"/>
<path d="M27.4021 35.9665C27.703 35.2115 28.879 35.6707 28.5781 36.4257C26.9341 40.5398 24.8089 44.4582 23.7301 48.779C23.5322 49.5668 22.3583 49.0998 22.5541 48.3198C23.6328 43.9989 25.7581 40.0806 27.4021 35.9665Z" fill="url(#paint9_linear_795_8060)"/>
<path d="M70.8369 19.3447C73.3934 16.2808 75.9631 13.2289 78.8144 10.4337C79.3958 9.86442 80.1737 10.8607 79.5972 11.4272C76.8255 14.1449 74.3333 17.127 71.846 20.1063C71.3282 20.7306 70.3093 19.9746 70.832 19.3475L70.8369 19.3447Z" fill="url(#paint10_linear_795_8060)"/>
<path d="M97.1965 15.4981C100.325 13.365 102.942 10.5918 106.07 8.45877C106.741 8.00149 107.529 8.99221 106.853 9.45228C103.725 11.5854 101.108 14.3585 97.9794 16.4916C97.3086 16.9489 96.5209 15.9581 97.1965 15.4981Z" fill="url(#paint11_linear_795_8060)"/>
<path d="M206.168 14.2125C208.291 14.8514 209.638 15.4411 209.359 15.8202C206.217 20.0665 196.711 23.759 189.958 21.9305C182.661 19.9551 183.149 13.1415 189.304 11.8569C194.653 10.7427 200.807 12.6043 206.168 14.2125Z" fill="#F9BD29"/>
<path d="M196.751 32.699C198.185 34.4876 199.084 36.2731 199.106 37.7817C194.566 37.0283 185.861 35.0234 181.506 31.9757C175.337 27.6527 175.705 22.1675 183.157 23.7829C187.821 24.7909 193.586 28.7571 196.754 32.704L196.751 32.699Z" fill="#F9BD29"/>
<path d="M150.124 21.3107C150.171 17.9241 157.32 17.0979 162.526 19.7754C168.483 22.8401 173.037 27.5952 176.854 32.3448C170.59 32.989 158.708 30.3764 153.268 25.9276C151.01 24.0848 150.105 22.5301 150.124 21.3107Z" fill="#F9BD29"/>
<path d="M181.659 11.2418C176.127 15.1695 164.494 20.3512 162.402 12.7802C159.647 2.78353 177.577 5.3228 184.108 9.16117C183.613 9.7336 182.756 10.4588 181.659 11.2418Z" fill="#F9BD29"/>
<path d="M212.46 29.5411C215.602 31.8452 218.459 34.2324 220.153 35.458C215.629 35.9956 209.13 36.5125 203.952 34.7226C199.092 33.0458 195.515 27.2047 198.009 24.638C200.75 21.8205 207.038 25.5624 212.462 29.5333L212.46 29.5411Z" fill="#F9BD29"/>
<path d="M65.5481 44.8879C58.5119 49.166 44.9332 54.941 45.8916 47.0749C47.1546 36.6906 63.8751 38.8154 68.7997 42.6396C68.0813 43.2538 66.9412 44.0416 65.5481 44.8879Z" fill="#F9BD29"/>
<path d="M60.5334 23.1642C64.2156 19.2297 70.018 17.0791 74.7843 15.9693C73.2546 21.9748 69.3443 30.321 64.5244 34.1515C59.2539 38.3343 54.2404 32.4224 57.5671 27.0317C58.435 25.6246 59.4335 24.3451 60.5383 23.1614L60.5334 23.1642Z" fill="#F9BD29"/>
<path d="M92.6088 13.8553C96.297 13.3098 99.8688 13.064 101.847 12.7578C99.5072 16.8948 95.9538 22.6085 91.4206 25.2567C87.1702 27.7384 80.5009 25.5637 80.0407 21.3139C79.5388 16.6457 86.2456 14.7959 92.6011 13.8532L92.6088 13.8553Z" fill="#F9BD29"/>
<path d="M43.823 30.3453C45.6632 28.9797 47.48 28.1472 48.989 28.1842C48.0666 32.6895 45.731 41.3149 42.5203 45.5547C37.9658 51.5551 32.5004 50.9807 34.3927 43.5938C35.5802 38.971 39.7569 33.3597 43.823 30.3453Z" fill="#F9BD29"/>
<path d="M26.248 73.9156C23.4831 71.9569 26.8513 65.594 32.0039 62.823C37.9035 59.6492 44.3998 58.5878 50.4788 58.1329C47.463 63.6596 38.5789 71.9787 31.8322 73.9419C29.0368 74.756 27.2418 74.6273 26.243 73.9184L26.248 73.9156Z" fill="#F9BD29"/>
<path d="M9.83171 74.4195C12.5861 71.6596 15.5839 69.2039 17.6052 67.5149C18.222 71.2602 16.6453 79.4695 14.9895 83.7007C13.2932 88.0328 7.30667 92.7766 4.38193 89.2251C0.941459 85.049 5.00033 79.2638 9.83664 74.4167L9.83171 74.4195Z" fill="#F9BD29"/>
<path d="M25.1726 46.5345C26.7984 53.1211 27.3472 65.8471 19.5381 65.0124C9.22533 63.9104 18.1707 48.1612 24.1359 43.4946C24.4844 44.1683 24.8501 45.2287 25.1726 46.5345Z" fill="#F9BD29"/>
<path d="M21.3931 90.0029C23.3023 89.6901 24.5568 89.702 24.4132 90.2641C22.777 96.5638 15.7236 105.316 9.6938 106.536C3.17525 107.857 2.01699 99.9598 6.84162 95.5287C11.0273 91.6799 16.5749 90.7911 21.3931 90.0029Z" fill="#F9BD29"/>
<path d="M151.484 8.7786C154.834 9.34715 158.095 8.75758 161.374 8.086C162.171 7.92117 162.341 9.17646 161.544 9.3413C158.155 10.0362 154.778 10.6267 151.331 10.0353C150.526 9.89906 150.679 8.6424 151.484 8.7786Z" fill="url(#paint12_linear_795_8060)"/>
<path d="M118.949 14.5897C122.563 13.1766 126.638 11.9374 129.195 8.82794C129.71 8.19876 130.621 9.07426 130.106 9.70345C127.413 12.9744 123.124 14.3081 119.315 15.7996C118.555 16.0993 118.194 14.8867 118.949 14.5897Z" fill="url(#paint13_linear_795_8060)"/>
<path d="M141.55 24.1832C146.484 25.598 151.668 27.0202 155.76 30.2562C156.393 30.7558 155.739 31.8404 155.103 31.3359C151.088 28.1669 146.038 26.786 141.205 25.399C140.421 25.1731 140.769 23.9622 141.55 24.1832Z" fill="url(#paint14_linear_795_8060)"/>
<path d="M112.844 31.0398C117.144 32.7022 121.651 33.9032 125.409 36.6774C126.065 37.1582 125.306 38.1722 124.651 37.6914C120.984 34.9885 116.571 33.8384 112.38 32.2186C111.622 31.9254 112.082 30.7494 112.839 31.0425L112.844 31.0398Z" fill="url(#paint15_linear_795_8060)"/>
<path d="M140.678 21.2056C144.042 23.1768 147.176 25.4662 149.318 26.9906C145.848 28.5306 137.508 29.0681 132.992 28.5287C128.372 27.9769 122.275 23.3792 124.978 19.6543C128.148 15.2748 134.772 17.7482 140.678 21.2056Z" fill="#F9BD29"/>
<path d="M139.472 5.8308C145.172 5.45349 152.111 7.59921 157.478 9.81509C152.903 12.9289 144.744 16.1524 137.947 15.7523C130.518 15.3136 128.447 8.19245 134.524 6.60789C136.109 6.19257 137.763 5.94596 139.475 5.83572L139.472 5.8308Z" fill="#F9BD29"/>
<path d="M123.786 11.0296C125.701 11.3244 126.889 11.7247 126.575 12.2145C123.065 17.6955 113.649 23.8329 107.536 23.1243C100.929 22.3574 102.277 14.4917 108.236 11.7783C113.412 9.41654 118.956 10.291 123.789 11.0345L123.786 11.0296Z" fill="#F9BD29"/>
<path d="M115.865 29.3758C117.8 30.9007 119.219 32.6976 119.713 34.5824C115.147 35.9428 106.216 37.8353 101.099 36.1994C93.8499 33.8846 92.4663 26.7841 100.083 25.0373C104.845 23.9429 111.599 26.0043 115.865 29.3758Z" fill="#F9BD29"/>
<path d="M88.0289 30.7697C92.3446 29.0699 96.0652 26.134 100.548 24.8209C101.316 24.5942 101.834 25.7507 101.052 25.978C96.5701 27.2911 92.8468 30.2221 88.5339 31.9268C87.779 32.2238 87.2691 31.0694 88.0289 30.7697Z" fill="url(#paint16_linear_795_8060)"/>
<path d="M83.8295 28.0688C87.7773 28.1433 91.5665 28.5348 93.6854 28.5583C90.6815 32.6811 86.1974 38.3234 81.0829 40.4034C76.2862 42.3557 69.561 38.7375 69.6369 33.9765C69.7241 28.7412 77.0164 27.9381 83.8246 28.0716L83.8295 28.0688Z" fill="#F9BD29"/>
<path d="M203.678 28.9964C208.441 29.6169 212.554 31.9829 216.95 33.7342C217.454 33.9364 217.147 34.7272 216.64 34.52C212.32 32.7979 208.273 30.4461 203.586 29.8344C203.045 29.7633 203.134 28.9203 203.675 28.9915L203.678 28.9964Z" fill="#D26E28"/>
<path d="M194.11 16.9388C197.751 14.9189 202.042 15.0264 206.067 15.3756C206.615 15.4236 206.518 16.2645 205.979 16.2185C202.083 15.8805 197.969 15.7639 194.446 17.717C193.969 17.9871 193.635 17.2012 194.105 16.9416L194.11 16.9388Z" fill="#D26E28"/>
<path d="M188.316 29.3329C190.942 30.8047 193.813 31.9753 195.777 34.3549C196.125 34.7753 195.46 35.3007 195.112 34.8803C193.208 32.5711 190.359 31.4399 187.808 30.0098C187.334 29.7453 187.846 29.0656 188.316 29.3329Z" fill="#D26E28"/>
<path d="M170.732 11.5137C172.468 11.4808 174.23 11.0108 175.903 10.5784C177.686 10.1225 179.584 9.60758 181.197 8.6893C181.674 8.4192 182.003 9.19528 181.538 9.46475C179.938 10.3824 178.076 10.8701 176.309 11.3429C174.478 11.8392 172.557 12.3147 170.649 12.3539C170.102 12.3641 170.198 11.5233 170.737 11.511L170.732 11.5137Z" fill="#D26E28"/>
<path d="M136.022 24.0397C138.865 24.2187 141.893 23.6765 144.338 25.4844C144.775 25.8091 144.268 26.486 143.831 26.1613C141.551 24.4742 138.586 25.0461 135.933 24.8827C135.387 24.8473 135.478 24.0093 136.022 24.0397Z" fill="#D26E28"/>
<path d="M142.125 11.6984C145.808 11.0062 149.466 10.224 153.236 10.3279C153.783 10.3429 153.687 11.1838 153.147 11.1708C149.451 11.0708 145.866 11.8568 142.253 12.5353C141.714 12.6389 141.59 11.7992 142.125 11.6984Z" fill="#D26E28"/>
<path d="M156.949 20.8685C161.857 23.4802 167.508 25.1648 171.569 29.1269C171.955 29.4998 171.453 30.1865 171.061 29.8038C167.049 25.8925 161.485 24.2363 156.639 21.6544C156.165 21.4025 156.464 20.6096 156.949 20.8685Z" fill="#D26E28"/>
<path d="M103.733 28.653C107.971 29.2522 112.159 29.9248 116.167 31.473C116.676 31.6724 116.367 32.4583 115.858 32.2588C111.917 30.7376 107.803 30.0815 103.644 29.496C103.105 29.4171 103.189 28.5769 103.733 28.653Z" fill="#D26E28"/>
<path d="M111.595 18.8917C115.65 15.6955 120.986 14.3869 124.695 10.7297C125.083 10.3476 125.604 11.0151 125.22 11.3944C121.509 15.0593 116.18 16.3574 112.121 19.5564C111.695 19.8948 111.169 19.2301 111.595 18.8917Z" fill="#D26E28"/>
<path d="M88.7847 20.5105C91.8848 17.776 95.713 16.2024 99.1805 14.014C99.6343 13.7249 100.165 14.3868 99.7058 14.6787C96.2433 16.8643 92.4025 18.4385 89.3101 21.1752C88.9029 21.5354 88.3775 20.8707 88.7847 20.5105Z" fill="#D26E28"/>
<path d="M81.233 33.8323C84.3653 32.2234 87.5915 30.8148 90.8176 29.4063C91.3182 29.1882 91.6592 29.9636 91.1587 30.1817C87.9325 31.5903 84.7064 32.9988 81.5741 34.6077C81.0853 34.8581 80.7492 34.0799 81.233 33.8323Z" fill="#D26E28"/>
<path d="M15.1505 97.7056C17.6068 95.7056 20.5635 93.9815 22.1093 91.1187C22.3662 90.642 23.157 90.9487 22.8952 91.4281C21.2616 94.4576 18.2681 96.2545 15.671 98.3731C15.2477 98.7164 14.7224 98.0517 15.1456 97.7084L15.1505 97.7056Z" fill="#D26E28"/>
<path d="M10.385 83.6599C12.4398 80.0999 14.2294 76.4039 15.7438 72.5775C15.9432 72.0683 16.7319 72.3827 16.5296 72.887C14.9883 76.7805 13.1564 80.5395 11.0619 84.1675C10.7897 84.6398 10.1149 84.1246 10.385 83.6599Z" fill="#D26E28"/>
<path d="M24.87 44.6579C24.3226 48.6198 22.8872 52.3559 21.4372 56.0548C21.2378 56.564 20.4519 56.2546 20.6514 55.7454C22.0744 52.1137 23.4961 48.4568 24.0348 44.5714C24.1109 44.028 24.9489 44.1194 24.8777 44.66L24.87 44.6579Z" fill="#D26E28"/>
<path d="M35.9843 66.5586C40.0191 64.7642 43.4909 62.0665 46.9313 59.3475C47.3573 59.0091 47.8827 59.6738 47.4566 60.0122C43.9628 62.7744 40.422 65.5112 36.3254 67.334C35.8276 67.557 35.4866 66.7816 35.9843 66.5586Z" fill="#D26E28"/>
<path d="M46.4393 31.7518C46.6465 31.2447 47.4323 31.5541 47.2252 32.0612C45.531 36.2361 42.2829 39.5937 40.8737 43.8934C40.7051 44.4112 39.9193 44.1018 40.0879 43.584C41.4992 39.2766 44.7424 35.9218 46.4393 31.7518Z" fill="#D26E28"/>
<path d="M57.8791 44.0379C60.6151 43.3485 63.3496 42.6794 66.122 42.1578C66.6613 42.0543 66.7853 42.894 66.2509 42.9947C63.4813 43.5212 60.7391 44.1882 58.008 44.8748C57.4777 45.0058 57.3516 44.1738 57.8791 44.0379Z" fill="#D26E28"/>
<path d="M64.8614 27.7482C66.6184 26.7871 67.8951 25.1032 69.0501 23.5143C70.2122 21.9148 71.2455 20.2256 72.418 18.6332C72.7427 18.1961 73.4197 18.7036 73.095 19.1407C70.745 22.3283 68.8127 26.5534 65.2024 28.5237C64.722 28.7888 64.3908 28.0078 64.8614 27.7482Z" fill="#D26E28"/>
<path d="M5.77919 98.3261C8.75038 94.4558 14.611 94.1894 18.8471 92.5671C19.3538 92.3715 19.6949 93.147 19.1881 93.3426C17.0739 94.1548 14.8391 94.6387 12.68 95.3139C10.4358 96.0112 7.93818 96.9037 6.45612 98.8337C6.1237 99.2686 5.44678 98.7611 5.77919 98.3261Z" fill="#E8F5F7"/>
<path d="M9.61647 102.695C11.9741 102.681 13.8501 100.977 15.3813 99.3633C15.7514 98.972 16.4333 99.4767 16.0582 99.8708C14.2916 101.734 12.2299 103.524 9.5278 103.538C8.98332 103.54 9.07969 102.7 9.61647 102.695Z" fill="#E8F5F7"/>
<path d="M28.318 68.8527C32.1379 65.5292 35.8611 62.0004 40.542 59.9122C41.0397 59.6892 41.3808 60.4646 40.883 60.6876C36.2689 62.7446 32.6076 66.2449 28.8434 69.5174C28.4285 69.8755 27.9081 69.208 28.318 68.8527Z" fill="#E8F5F7"/>
<path d="M34.2793 70.6478C35.8218 70.1004 37.0731 69.1069 38.2205 67.9641C38.606 67.5771 39.1264 68.2446 38.7458 68.6288C37.5554 69.8219 36.2226 70.8551 34.6203 71.4233C34.1052 71.6041 33.7642 70.8287 34.2793 70.6478Z" fill="#E8F5F7"/>
<path d="M47.1567 45.7737C50.647 42.695 55.0241 41.5519 59.427 40.4202C59.9546 40.2843 60.0835 41.1212 59.5559 41.2571C55.2879 42.3516 51.0632 43.4539 47.6771 46.4412C47.2699 46.8014 46.7446 46.1367 47.1517 45.7765L47.1567 45.7737Z" fill="#E8F5F7"/>
<path d="M54.5256 48.4371C56.0146 47.4846 57.631 46.746 59.0293 45.6563C59.4581 45.3228 59.9884 45.9847 59.5547 46.321C58.1563 47.4107 56.5399 48.1493 55.051 49.1018C54.5972 49.391 54.0669 48.7291 54.5256 48.4371Z" fill="#E8F5F7"/>
<path d="M76.68 38.7742C80.9208 38.436 84.5037 36.3253 87.498 33.4037C87.8863 33.0217 88.4096 33.6941 88.0234 34.0684C84.9325 37.0836 81.1809 39.2637 76.8138 39.6084C76.2712 39.6488 76.1374 38.8146 76.6849 38.7715L76.68 38.7742Z" fill="#E8F5F7"/>
<path d="M72.7381 35.2518C75.8882 33.5938 79.4667 32.7853 82.406 30.7202C82.8536 30.4085 83.379 31.0732 82.9313 31.3849C79.9259 33.4939 76.2954 34.3253 73.0764 36.0223C72.5904 36.2776 72.2543 35.4994 72.7354 35.2468L72.7381 35.2518Z" fill="#E8F5F7"/>
<path d="M102.426 33.1424C104.799 33.3859 107.171 33.4547 109.547 33.2548C110.087 33.2095 110.223 34.0486 109.676 34.0918C107.224 34.2955 104.774 34.2383 102.33 33.9832C101.785 33.9274 101.873 33.0845 102.418 33.1402L102.426 33.1424Z" fill="#E8F5F7"/>
<path d="M104.886 25.4483C107.004 26.0443 109.233 26.2851 111.23 27.2545C111.716 27.4932 111.414 28.2812 110.921 28.0404C108.923 27.0709 106.699 26.8274 104.577 26.2341C104.053 26.0887 104.367 25.3 104.886 25.4483Z" fill="#E8F5F7"/>
<path d="M106.921 15.7843C109.978 13.399 113.955 12.3068 117.666 11.4231C118.199 11.2971 118.323 12.1368 117.795 12.2601C114.234 13.1107 110.377 14.1614 107.446 16.449C107.017 16.7825 106.487 16.1206 106.921 15.7843Z" fill="#E8F5F7"/>
<path d="M129.007 20.1958C132.385 19.9295 136.563 20.3088 139.559 22.0201C140.031 22.2924 139.521 22.9644 139.051 22.6971C137.642 21.8951 135.959 21.5733 134.378 21.3171C132.659 21.0351 130.879 20.8981 129.138 21.0376C128.596 21.078 128.462 20.2439 129.009 20.2007L129.007 20.1958Z" fill="#E8F5F7"/>
<path d="M158.254 24.8091C161.008 26.9558 164.372 27.8934 167.577 29.1356C168.086 29.335 167.776 30.1209 167.267 29.9215C163.988 28.6502 160.559 27.6778 157.744 25.4811C157.314 25.1459 157.821 24.4689 158.251 24.8041L158.254 24.8091Z" fill="#E8F5F7"/>
<path d="M161.679 19.5578C163.461 20.7207 165.138 22.0206 166.775 23.3757C167.193 23.7242 166.689 24.4061 166.268 24.0526C164.636 22.6947 162.955 21.3899 161.171 20.2347C160.715 19.9338 161.225 19.2618 161.679 19.5578Z" fill="#E8F5F7"/>
<path d="M184.034 25.1514C186.977 25.8269 190.108 26.779 192.366 28.875C192.762 29.2423 192.257 29.9242 191.858 29.5519C189.713 27.5616 186.745 26.6341 183.943 25.9895C183.42 25.8692 183.501 25.0241 184.032 25.1465L184.034 25.1514Z" fill="#E8F5F7"/>
<path d="M184.206 31.1311C185.754 32.1792 187.545 32.7591 189.021 33.9325C189.446 34.2705 188.941 34.9523 188.513 34.6094C187.04 33.4409 185.247 32.8562 183.699 31.808C183.248 31.5043 183.755 30.8274 184.206 31.1311Z" fill="#E8F5F7"/>
<path d="M203.347 30.4571C205.263 31.6156 207.322 32.4528 209.398 33.2738C209.908 33.4733 209.598 34.2591 209.089 34.0597C206.941 33.2144 204.819 32.3349 202.84 31.134C202.375 30.8513 202.882 30.1744 203.347 30.4571Z" fill="#E8F5F7"/>
<path d="M200.164 24.6593C202.591 26.0552 205.112 27.2614 207.716 28.2911C208.225 28.4905 207.913 29.2841 207.406 29.0769C204.733 28.0153 202.147 26.7745 199.657 25.3363C199.184 25.064 199.699 24.3892 200.164 24.6593Z" fill="#E8F5F7"/>
<path d="M12.1551 73.9842C12.4455 73.521 13.1175 74.0313 12.832 74.4917C10.9537 77.4906 8.25982 79.8979 6.72989 83.1221C6.49405 83.6129 5.70819 83.3035 5.94402 82.8127C7.50799 79.5107 10.2371 77.051 12.1551 73.9842Z" fill="#E8F5F7"/>
<path d="M23.7604 55.3458C23.3678 57.4785 22.7842 59.4917 21.6301 61.3466C21.3397 61.8098 20.6677 61.2995 20.9532 60.8391C22.0253 59.1151 22.555 57.2363 22.9174 55.2572C23.0167 54.7202 23.8597 54.8088 23.7604 55.3458Z" fill="#E8F5F7"/>
<path d="M136.486 9.26096C139.915 9.00472 143.079 7.56644 146.456 7.03423C146.999 6.94824 147.128 7.78518 146.585 7.87116C143.208 8.40337 140.041 9.83674 136.615 10.0979C136.072 10.1383 135.938 9.30412 136.486 9.26096Z" fill="#E8F5F7"/>
<path d="M67.3604 19.8114C67.778 19.4582 68.3034 20.1229 67.8858 20.4761C65.306 22.6369 62.009 24.1959 60.4752 27.3444C60.2366 27.8303 59.4486 27.5286 59.6894 27.035C61.3103 23.7073 64.6425 22.0957 67.3653 19.8086L67.3604 19.8114Z" fill="#E8F5F7"/>
<path d="M83.7909 19.6686C85.7953 18.1452 87.9472 16.8827 90.3108 15.9944C90.8204 15.8037 91.1614 16.5792 90.6519 16.7699C88.3606 17.6367 86.272 18.8503 84.3212 20.3305C83.8896 20.6591 83.3593 19.9972 83.7958 19.6658L83.7909 19.6686Z" fill="#E8F5F7"/>
<path d="M163.203 10.4953C166.301 8.90587 170.025 9.72377 173.058 7.99582C173.536 7.72572 173.867 8.50672 173.399 8.77126C170.357 10.5048 166.644 9.68623 163.544 11.2707C163.055 11.5212 162.719 10.7429 163.203 10.4953Z" fill="#E8F5F7"/>
<path d="M186.781 16.8849C188.464 15.5754 190.39 14.7855 192.434 14.2404C193.536 13.9485 194.666 13.7514 195.794 13.5748C196.945 13.3919 198.473 13.6457 199.452 12.9877C199.906 12.6859 200.431 13.3506 199.978 13.6524C199.265 14.127 198.581 14.2278 197.735 14.2381C196.558 14.2475 195.389 14.4795 194.233 14.6981C191.744 15.1698 189.318 15.97 187.303 17.5447C186.875 17.8781 186.344 17.2162 186.778 16.88L186.781 16.8849Z" fill="#E8F5F7"/>
<path d="M42.6797 34.0083C43.0575 33.6191 43.5779 34.2866 43.205 34.673C40.528 37.4087 38.9564 41.0074 37.3841 44.444C37.156 44.937 36.3652 44.6303 36.5982 44.1346C38.2364 40.5502 39.8898 36.8662 42.6825 34.0132L42.6797 34.0083Z" fill="#E8F5F7"/>
</g>
</g>
<defs>
<linearGradient id="paint0_linear_795_8060" x1="210.192" y1="13.8251" x2="218.568" y2="9.3768" gradientUnits="userSpaceOnUse">
<stop stop-color="#F8E283"/>
<stop offset="1" stop-color="#FBB22C"/>
</linearGradient>
<linearGradient id="paint1_linear_795_8060" x1="199.191" y1="41.2898" x2="200.79" y2="54.3871" gradientUnits="userSpaceOnUse">
<stop stop-color="#F8E283"/>
<stop offset="1" stop-color="#FBB22C"/>
</linearGradient>
<linearGradient id="paint2_linear_795_8060" x1="187.975" y1="9.42406" x2="199.378" y2="11.7165" gradientUnits="userSpaceOnUse">
<stop stop-color="#F8E283"/>
<stop offset="1" stop-color="#FBB22C"/>
</linearGradient>
<linearGradient id="paint3_linear_795_8060" x1="178.324" y1="37.7474" x2="183.373" y2="51.3424" gradientUnits="userSpaceOnUse">
<stop stop-color="#F8E283"/>
<stop offset="1" stop-color="#FBB22C"/>
</linearGradient>
<linearGradient id="paint4_linear_795_8060" x1="221.713" y1="32.9499" x2="234.539" y2="27.6472" gradientUnits="userSpaceOnUse">
<stop stop-color="#F8E283"/>
<stop offset="1" stop-color="#FBB22C"/>
</linearGradient>
<linearGradient id="paint5_linear_795_8060" x1="25.3731" y1="88.9142" x2="28.8626" y2="84.839" gradientUnits="userSpaceOnUse">
<stop stop-color="#F8E283"/>
<stop offset="1" stop-color="#FBB22C"/>
</linearGradient>
<linearGradient id="paint6_linear_795_8060" x1="52.8451" y1="57.4495" x2="60.1954" y2="53.9113" gradientUnits="userSpaceOnUse">
<stop stop-color="#F8E283"/>
<stop offset="1" stop-color="#FBB22C"/>
</linearGradient>
<linearGradient id="paint7_linear_795_8060" x1="73.5278" y1="43.747" x2="84.8404" y2="43.6297" gradientUnits="userSpaceOnUse">
<stop stop-color="#F8E283"/>
<stop offset="1" stop-color="#FBB22C"/>
</linearGradient>
<linearGradient id="paint8_linear_795_8060" x1="51.0121" y1="29.0441" x2="45.3989" y2="26.8408" gradientUnits="userSpaceOnUse">
<stop stop-color="#F8E283"/>
<stop offset="1" stop-color="#FBB22C"/>
</linearGradient>
<linearGradient id="paint9_linear_795_8060" x1="26.2711" y1="42.7478" x2="24.8441" y2="42.1877" gradientUnits="userSpaceOnUse">
<stop stop-color="#F8E283"/>
<stop offset="1" stop-color="#FBB22C"/>
</linearGradient>
<linearGradient id="paint10_linear_795_8060" x1="81.4811" y1="12.7887" x2="95.0084" y2="6.87434" gradientUnits="userSpaceOnUse">
<stop stop-color="#F8E283"/>
<stop offset="1" stop-color="#FBB22C"/>
</linearGradient>
<linearGradient id="paint11_linear_795_8060" x1="105.395" y1="13.8988" x2="98.876" y2="11.34" gradientUnits="userSpaceOnUse">
<stop stop-color="#F8E283"/>
<stop offset="1" stop-color="#FBB22C"/>
</linearGradient>
<linearGradient id="paint12_linear_795_8060" x1="159.844" y1="11.7446" x2="152.813" y2="6.4021" gradientUnits="userSpaceOnUse">
<stop stop-color="#F8E283"/>
<stop offset="1" stop-color="#FBB22C"/>
</linearGradient>
<linearGradient id="paint13_linear_795_8060" x1="129.294" y1="13.3038" x2="119.502" y2="10.9565" gradientUnits="userSpaceOnUse">
<stop stop-color="#F8E283"/>
<stop offset="1" stop-color="#FBB22C"/>
</linearGradient>
<linearGradient id="paint14_linear_795_8060" x1="153.575" y1="32.894" x2="165.366" y2="44.2457" gradientUnits="userSpaceOnUse">
<stop stop-color="#F8E283"/>
<stop offset="1" stop-color="#FBB22C"/>
</linearGradient>
<linearGradient id="paint15_linear_795_8060" x1="125.856" y1="37.1885" x2="112.065" y2="31.7754" gradientUnits="userSpaceOnUse">
<stop stop-color="#F8E283"/>
<stop offset="1" stop-color="#FBB22C"/>
</linearGradient>
<linearGradient id="paint16_linear_795_8060" x1="99.6787" y1="30.5108" x2="89.6318" y2="26.5673" gradientUnits="userSpaceOnUse">
<stop stop-color="#F8E283"/>
<stop offset="1" stop-color="#FBB22C"/>
</linearGradient>
<clipPath id="clip0_795_8060">
<rect width="1440" height="143" fill="white"/>
</clipPath>
<clipPath id="clip1_795_8060">
<rect width="234.524" height="99.2652" fill="white" transform="matrix(0.870448 -0.49226 -0.49226 -0.870448 21.8633 151.852)"/>
</clipPath>
</defs>
</svg>
