<svg width="171" height="95" viewBox="0 0 171 95" fill="none" xmlns="http://www.w3.org/2000/svg">
<g clip-path="url(#clip0_1216_5218)">
<path d="M31.3404 10.1401C31.3404 10.1401 39.3571 12.1161 43.2341 14.3047C47.1112 16.4934 51.4259 18.3318 51.4259 18.3318C51.4259 18.3318 55.1654 19.2073 55.2654 19.8827C55.353 20.5455 52.4264 22.3339 52.4264 22.3339C52.4264 22.3339 49.5124 34.5403 48.9496 38.8426C48.3743 43.1573 43.3842 55.5388 43.3842 55.5388C43.3842 55.5388 44.7224 58.4153 44.6224 58.6529C44.5223 58.8906 41.058 57.1897 41.058 57.1897C41.058 57.1897 18.7713 51.0239 13.0809 45.6586C13.0809 45.6586 8.1658 45.1459 8.44094 44.6706C8.71609 44.1954 12.1304 41.9567 12.1304 41.9567C12.1304 41.9567 18.7088 27.4241 19.7093 25.6857C20.7224 23.9473 27.9637 12.0285 27.9637 12.0285C27.9637 12.0285 27.3258 8.81437 27.4509 8.50171C27.576 8.18904 31.3404 10.1401 31.3404 10.1401Z" fill="#F5C14E"/>
<path d="M46.0974 26.9115C46.3976 27.8245 44.8593 34.0277 43.8838 38.4926C42.9208 42.9574 40.4445 47.8975 39.8942 48.1726C39.3439 48.4478 30.7269 45.9965 29.2886 45.3962C27.8504 44.7959 18.7706 40.1934 18.6956 39.4305C18.608 38.6676 21.447 31.2388 22.8102 29.4503C24.1609 27.6619 28.7383 19.5576 29.101 19.3951C29.4512 19.2325 37.7681 22.2215 38.6685 22.6343C39.569 23.047 45.7973 25.9735 46.0974 26.899V26.9115Z" fill="#F6DFB0"/>
<path d="M32.7149 35.6661C33.753 36.0914 34.9536 35.6911 35.6039 34.1403C36.2543 32.5895 35.5039 28.9126 35.5039 28.9126C35.5039 28.9126 32.5649 30.576 31.7519 32.5395C31.1141 34.0778 31.6769 35.2284 32.7274 35.6536L32.7149 35.6661Z" fill="#F8BD27"/>
<path d="M29.5269 39.2305C30.5525 38.7553 31.0777 37.6047 30.3649 36.0664C29.652 34.5281 26.4628 32.6021 26.4628 32.6021C26.4628 32.6021 25.6874 35.8913 26.5879 37.8173C27.2883 39.3181 28.5139 39.6933 29.5394 39.218L29.5269 39.2305Z" fill="#F8BD27"/>
<path d="M32.4648 40.4436C32.0771 39.3805 32.5148 38.2049 34.1031 37.6171C35.6915 37.0293 39.3184 37.9048 39.3184 37.9048C39.3184 37.9048 37.5549 40.7813 35.5539 41.5191C34.0031 42.0944 32.865 41.4941 32.4648 40.4311V40.4436Z" fill="#F8BD27"/>
<path d="M164.785 59.6284H41.9707C38.821 59.6284 36.2677 62.1817 36.2677 65.3314V68.0828C36.2677 71.2325 38.821 73.7858 41.9707 73.7858H164.785C167.935 73.7858 170.488 71.2325 170.488 68.0828V65.3314C170.488 62.1817 167.935 59.6284 164.785 59.6284Z" fill="#648D3D"/>
<path d="M162.433 71.5349C165.099 71.5349 167.261 69.3736 167.261 66.7074C167.261 64.0412 165.099 61.8799 162.433 61.8799C159.767 61.8799 157.606 64.0412 157.606 66.7074C157.606 69.3736 159.767 71.5349 162.433 71.5349Z" fill="#90B83E"/>
<path d="M158.944 73.7861V78.4261H145.112L132.668 94.647H23.4355V89.2442H130.291L138.883 78.0384H131.279L126.339 73.7861H158.944Z" fill="#386E89"/>
<path d="M116.609 19.7955C116.609 19.7955 124.776 18.5698 129.191 19.1076C133.606 19.6454 138.296 19.7079 138.296 19.7079C138.296 19.7079 142.098 19.0951 142.435 19.6829C142.773 20.2707 140.747 23.0347 140.747 23.0347C140.747 23.0347 142.711 35.4287 143.824 39.6309C144.937 43.8331 145.037 57.19 145.037 57.19C145.037 57.19 147.363 59.3412 147.363 59.5913C147.363 59.8414 143.511 59.5913 143.511 59.5913C143.511 59.5913 120.549 62.3803 113.258 59.5913C113.258 59.5913 108.518 60.992 108.593 60.4543C108.668 59.9165 110.956 56.5397 110.956 56.5397C110.956 56.5397 111.494 40.5939 111.769 38.6053C112.044 36.6168 114.196 22.8346 114.196 22.8346C114.196 22.8346 112.382 20.0956 112.382 19.758C112.382 19.4203 116.597 19.7955 116.597 19.7955H116.609Z" fill="#F5C14E"/>
<path d="M136.646 29.6753C137.271 30.4132 138.209 36.729 139.009 41.2189C139.81 45.7212 139.409 51.2241 139.009 51.6869C138.609 52.1621 129.704 53.1626 128.154 53.1626C126.603 53.1626 116.447 52.3622 116.085 51.6869C115.722 51.0115 115.509 43.0698 116.085 40.8937C116.66 38.7301 117.798 29.4877 118.073 29.2001C118.336 28.9249 127.166 28.5122 128.154 28.5498C129.142 28.5873 136.02 28.9249 136.646 29.6628V29.6753Z" fill="#F6DFB0"/>
<path d="M50.7749 65.7693V87.6558C50.7749 91.5203 47.6357 94.6595 43.7712 94.6595H7.46472C3.6002 94.6595 0.46106 91.5203 0.46106 87.6558V51.1242C0.46106 46.1591 5.47618 42.7698 10.0786 44.6333L15.5064 46.8219L17.3949 47.5848L36.4299 55.2638L38.3184 56.0267L46.3726 59.2784C49.024 60.3415 50.7499 62.9178 50.7499 65.7693H50.7749Z" fill="#648D3D"/>
<path d="M45.7105 71.5349C48.3766 71.5349 50.538 69.3736 50.538 66.7074C50.538 64.0412 48.3766 61.8799 45.7105 61.8799C43.0443 61.8799 40.8829 64.0412 40.8829 66.7074C40.8829 69.3736 43.0443 71.5349 45.7105 71.5349Z" fill="#90B83E"/>
<path d="M10.3042 57.6902C12.9704 57.6902 15.1317 55.5289 15.1317 52.8627C15.1317 50.1965 12.9704 48.0352 10.3042 48.0352C7.63804 48.0352 5.47668 50.1965 5.47668 52.8627C5.47668 55.5289 7.63804 57.6902 10.3042 57.6902Z" fill="#90B83E"/>
<g opacity="0.42">
<path d="M46.3476 1.36084H0.46106V60.029H46.3476V1.36084Z" fill="#A4D9ED"/>
</g>
<path d="M33.9544 1.33545L1.22473 49.2605V33.1896L22.9861 1.33545H33.9544Z" fill="#EAF7FE"/>
<path d="M46.3475 1.33545V2.72368L7.20207 60.0036H4.46313L44.5466 1.33545H46.3475Z" fill="#EAF7FE"/>
<path d="M46.3483 13.7173V26.0737L27.6135 59.8164H20.7599L46.3483 13.7173Z" fill="#EAF7FE"/>
<path d="M47.1971 60.8293H0.660278V0.572754H47.1971V60.8293ZM1.61078 59.291H46.2591V2.11106H1.61078V59.291Z" fill="#648D3D"/>
<path d="M46.26 1.36084H1.61169V9.85278H46.26V1.36084Z" fill="#6D9943"/>
<path d="M127.614 42.8824C128.74 42.8824 129.703 42.057 129.703 40.3686C129.703 38.6802 127.614 35.5786 127.614 35.5786C127.614 35.5786 125.526 38.2425 125.526 40.3686C125.526 42.032 126.489 42.8824 127.614 42.8824Z" fill="#F8BD27"/>
<path d="M126.028 47.3847C126.79 46.5593 126.84 45.2961 125.59 44.1455C124.339 42.9949 120.662 42.4321 120.662 42.4321C120.662 42.4321 121.2 45.7714 122.763 47.2096C123.976 48.3352 125.265 48.2102 126.028 47.3847Z" fill="#F8BD27"/>
<path d="M129.192 47.3847C128.429 46.5593 128.379 45.2961 129.63 44.1455C130.88 42.9949 134.557 42.4321 134.557 42.4321C134.557 42.4321 134.019 45.7714 132.456 47.2096C131.243 48.3352 129.955 48.2102 129.192 47.3847Z" fill="#F8BD27"/>
<path d="M70.4357 19.7955C70.4357 19.7955 78.6024 18.5698 83.0173 19.1076C87.4321 19.6454 92.122 19.7079 92.122 19.7079C92.122 19.7079 95.924 19.0951 96.2617 19.6829C96.5993 20.2707 94.5733 23.0347 94.5733 23.0347C94.5733 23.0347 96.5368 35.4287 97.6499 39.6309C98.763 43.8331 98.863 57.19 98.863 57.19C98.863 57.19 101.189 59.3412 101.189 59.5913C101.189 59.8414 97.3372 59.5913 97.3372 59.5913C97.3372 59.5913 74.3752 62.3803 67.0839 59.5913C67.0839 59.5913 62.3439 60.992 62.419 60.4543C62.494 59.9165 64.7827 56.5397 64.7827 56.5397C64.7827 56.5397 65.3205 40.5939 65.5956 38.6053C65.8708 36.6168 68.0219 22.8346 68.0219 22.8346C68.0219 22.8346 66.2085 20.0956 66.2085 19.758C66.2085 19.4203 70.4232 19.7955 70.4232 19.7955H70.4357Z" fill="#F5C14E"/>
<path d="M90.4834 29.6753C91.1088 30.4132 92.0468 36.729 92.8472 41.2189C93.6476 45.7212 93.2474 51.2241 92.8472 51.6869C92.447 52.1621 83.5423 53.1626 81.9915 53.1626C80.4407 53.1626 70.2854 52.3622 69.9227 51.6869C69.56 51.0115 69.3474 43.0698 69.9227 40.8937C70.498 38.7301 71.6361 29.4877 71.9112 29.2001C72.1739 28.9249 81.0035 28.5122 81.9915 28.5498C82.9795 28.5873 89.8581 28.9249 90.4834 29.6628V29.6753Z" fill="#F6DFB0"/>
<path d="M81.4403 42.8824C82.5659 42.8824 83.5289 42.057 83.5289 40.3686C83.5289 38.6802 81.4403 35.5786 81.4403 35.5786C81.4403 35.5786 79.3517 38.2425 79.3517 40.3686C79.3517 42.032 80.3147 42.8824 81.4403 42.8824Z" fill="#F8BD27"/>
<path d="M79.8518 47.3847C80.6147 46.5593 80.6647 45.2961 79.414 44.1455C78.1634 42.9949 74.4865 42.4321 74.4865 42.4321C74.4865 42.4321 75.0242 45.7714 76.5875 47.2096C77.8007 48.3352 79.0889 48.2102 79.8518 47.3847Z" fill="#F8BD27"/>
<path d="M83.0297 47.3847C82.2668 46.5593 82.2168 45.2961 83.4675 44.1455C84.7181 42.9949 88.395 42.4321 88.395 42.4321C88.395 42.4321 87.8573 45.7714 86.2939 47.2096C85.0808 48.3352 83.7926 48.2102 83.0297 47.3847Z" fill="#F8BD27"/>
<path d="M37.2806 70.3716H9.96631C9.37229 70.3716 8.89075 70.8531 8.89075 71.4471V87.5431C8.89075 88.1371 9.37229 88.6186 9.96631 88.6186H37.2806C37.8746 88.6186 38.3562 88.1371 38.3562 87.5431V71.4471C38.3562 70.8531 37.8746 70.3716 37.2806 70.3716Z" fill="#90B83E"/>
<path d="M36.7041 89.119H10.5279C9.22724 89.119 8.16418 88.3561 8.16418 87.4306V71.5473C8.16418 70.6093 9.22724 69.8589 10.5279 69.8589H36.6916C37.9923 69.8589 39.0553 70.6218 39.0553 71.5473V87.4306C39.0553 88.3686 37.9923 89.119 36.6916 89.119H36.7041ZM10.5279 70.8719C10.0152 70.8719 9.58993 71.1721 9.58993 71.5348V87.4181C9.58993 87.7808 10.0152 88.0809 10.5279 88.0809H36.6916C37.2044 88.0809 37.6296 87.7808 37.6296 87.4181V71.5348C37.6296 71.1721 37.2044 70.8719 36.6916 70.8719H10.5279Z" fill="#90B83E"/>
<path d="M14.5802 73.6611H12.6292C12.0628 73.6611 11.6036 74.1203 11.6036 74.6867V75.4996C11.6036 76.066 12.0628 76.5251 12.6292 76.5251H14.5802C15.1466 76.5251 15.6057 76.066 15.6057 75.4996V74.6867C15.6057 74.1203 15.1466 73.6611 14.5802 73.6611Z" fill="white"/>
<path d="M19.5841 73.6611H17.6331C17.0667 73.6611 16.6075 74.1203 16.6075 74.6867V75.4996C16.6075 76.066 17.0667 76.5251 17.6331 76.5251H19.5841C20.1505 76.5251 20.6096 76.066 20.6096 75.4996V74.6867C20.6096 74.1203 20.1505 73.6611 19.5841 73.6611Z" fill="white"/>
<path d="M24.5862 73.6611H22.6352C22.0688 73.6611 21.6096 74.1203 21.6096 74.6867V75.4996C21.6096 76.066 22.0688 76.5251 22.6352 76.5251H24.5862C25.1526 76.5251 25.6117 76.066 25.6117 75.4996V74.6867C25.6117 74.1203 25.1526 73.6611 24.5862 73.6611Z" fill="white"/>
<path d="M29.6017 73.6611H27.6507C27.0843 73.6611 26.6251 74.1203 26.6251 74.6867V75.4996C26.6251 76.066 27.0843 76.5251 27.6507 76.5251H29.6017C30.1681 76.5251 30.6272 76.066 30.6272 75.4996V74.6867C30.6272 74.1203 30.1681 73.6611 29.6017 73.6611Z" fill="white"/>
<path d="M34.6036 73.6611H32.6526C32.0862 73.6611 31.6271 74.1203 31.6271 74.6867V75.4996C31.6271 76.066 32.0862 76.5251 32.6526 76.5251H34.6036C35.17 76.5251 35.6292 76.066 35.6292 75.4996V74.6867C35.6292 74.1203 35.17 73.6611 34.6036 73.6611Z" fill="white"/>
<path d="M14.5802 78.0508H12.6292C12.0628 78.0508 11.6036 78.5099 11.6036 79.0763V79.8892C11.6036 80.4556 12.0628 80.9148 12.6292 80.9148H14.5802C15.1466 80.9148 15.6057 80.4556 15.6057 79.8892V79.0763C15.6057 78.5099 15.1466 78.0508 14.5802 78.0508Z" fill="white"/>
<path d="M19.5841 78.0508H17.6331C17.0667 78.0508 16.6075 78.5099 16.6075 79.0763V79.8892C16.6075 80.4556 17.0667 80.9148 17.6331 80.9148H19.5841C20.1505 80.9148 20.6096 80.4556 20.6096 79.8892V79.0763C20.6096 78.5099 20.1505 78.0508 19.5841 78.0508Z" fill="white"/>
<path d="M24.5862 78.0508H22.6352C22.0688 78.0508 21.6096 78.5099 21.6096 79.0763V79.8892C21.6096 80.4556 22.0688 80.9148 22.6352 80.9148H24.5862C25.1526 80.9148 25.6117 80.4556 25.6117 79.8892V79.0763C25.6117 78.5099 25.1526 78.0508 24.5862 78.0508Z" fill="white"/>
<path d="M29.6017 78.0508H27.6507C27.0843 78.0508 26.6251 78.5099 26.6251 79.0763V79.8892C26.6251 80.4556 27.0843 80.9148 27.6507 80.9148H29.6017C30.1681 80.9148 30.6272 80.4556 30.6272 79.8892V79.0763C30.6272 78.5099 30.1681 78.0508 29.6017 78.0508Z" fill="white"/>
<path d="M14.5802 82.4531H12.6292C12.0628 82.4531 11.6036 82.9123 11.6036 83.4787V84.2916C11.6036 84.858 12.0628 85.3171 12.6292 85.3171H14.5802C15.1466 85.3171 15.6057 84.858 15.6057 84.2916V83.4787C15.6057 82.9123 15.1466 82.4531 14.5802 82.4531Z" fill="white"/>
<path d="M19.5841 82.4531H17.6331C17.0667 82.4531 16.6075 82.9123 16.6075 83.4787V84.2916C16.6075 84.858 17.0667 85.3171 17.6331 85.3171H19.5841C20.1505 85.3171 20.6096 84.858 20.6096 84.2916V83.4787C20.6096 82.9123 20.1505 82.4531 19.5841 82.4531Z" fill="white"/>
<path d="M24.5862 82.4531H22.6352C22.0688 82.4531 21.6096 82.9123 21.6096 83.4787V84.2916C21.6096 84.858 22.0688 85.3171 22.6352 85.3171H24.5862C25.1526 85.3171 25.6117 84.858 25.6117 84.2916V83.4787C25.6117 82.9123 25.1526 82.4531 24.5862 82.4531Z" fill="white"/>
<path d="M29.6017 82.4531H27.6507C27.0843 82.4531 26.6251 82.9123 26.6251 83.4787V84.2916C26.6251 84.858 27.0843 85.3171 27.6507 85.3171H29.6017C30.1681 85.3171 30.6272 84.858 30.6272 84.2916V83.4787C30.6272 82.9123 30.1681 82.4531 29.6017 82.4531Z" fill="white"/>
<path d="M34.6036 78.0508H32.6526C32.0862 78.0508 31.6271 78.5099 31.6271 79.0763V84.2915C31.6271 84.8579 32.0862 85.3171 32.6526 85.3171H34.6036C35.17 85.3171 35.6292 84.8579 35.6292 84.2915V79.0763C35.6292 78.5099 35.17 78.0508 34.6036 78.0508Z" fill="#90B83E"/>
</g>
<defs>
<clipPath id="clip0_1216_5218">
<rect width="170.039" height="94.0742" fill="white" transform="translate(0.46106 0.572754)"/>
</clipPath>
</defs>
</svg>
