<svg width="147" height="124" viewBox="0 0 147 124" fill="none" xmlns="http://www.w3.org/2000/svg">
<path d="M50.6514 76.8985C50.8383 76.4442 49.9627 75.6533 48.6957 75.1318C47.4286 74.6103 46.2499 74.5558 46.063 75.0101C45.876 75.4643 46.7516 76.2553 48.0187 76.7767C49.2858 77.2982 50.4645 77.3527 50.6514 76.8985Z" fill="#F5C14E"/>
<path d="M48.7737 76.136C48.411 75.9838 48.1535 75.7966 48.1886 75.7147C48.2237 75.6328 48.5514 75.6796 48.9025 75.8317C49.2652 75.9839 49.5227 76.1711 49.4876 76.253C49.4525 76.3349 49.1248 76.2881 48.7737 76.136Z" fill="#F5C14E"/>
<path d="M49.7568 76.4873C49.7568 76.4873 49.6749 76.417 49.6866 76.3819C49.6983 76.3468 49.7568 76.3234 49.8153 76.3468C49.8621 76.3702 49.8972 76.417 49.8855 76.4522C49.8738 76.4873 49.8153 76.5107 49.7568 76.4873Z" fill="#F5C14E"/>
<path d="M65.6357 80.7633C66.0545 80.1415 64.9816 78.6862 63.2394 77.5128C61.4972 76.3395 59.7453 75.8924 59.3265 76.5142C58.9077 77.136 59.9806 78.5913 61.7228 79.7647C63.465 80.9381 65.2169 81.3852 65.6357 80.7633Z" fill="#F5C14E"/>
<path d="M63.0739 79.0264C62.5707 78.687 62.243 78.3242 62.3249 78.2072C62.4068 78.0902 62.8749 78.2657 63.3664 78.5934C63.8696 78.9328 64.1973 79.2955 64.1154 79.4126C64.0335 79.5296 63.5654 79.3541 63.0739 79.0264Z" fill="#F5C14E"/>
<path d="M64.4432 79.8459C64.373 79.7991 64.3379 79.7171 64.373 79.6586C64.4081 79.6001 64.5018 79.6001 64.572 79.6586C64.6422 79.7054 64.6773 79.7874 64.6422 79.8459C64.6071 79.9044 64.5135 79.9044 64.4432 79.8459Z" fill="#F5C14E"/>
<path d="M53.5303 74.7964C53.7173 74.3422 52.8416 73.5512 51.5746 73.0298C50.3075 72.5083 49.1288 72.4538 48.9419 72.908C48.7549 73.3622 49.6305 74.1532 50.8976 74.6747C52.1647 75.1961 53.3434 75.2506 53.5303 74.7964Z" fill="#F5C14E"/>
<path d="M51.6527 74.0295C51.2899 73.8774 51.0324 73.6902 51.0675 73.6082C51.1026 73.5263 51.4303 73.5731 51.7814 73.7253C52.1442 73.8774 52.4016 74.0646 52.3665 74.1466C52.3314 74.2285 52.0037 74.1817 51.6527 74.0295Z" fill="#F5C14E"/>
<path d="M52.6357 74.3808C52.6357 74.3808 52.5538 74.3106 52.5655 74.2755C52.5772 74.2404 52.6357 74.217 52.6942 74.2404C52.741 74.2638 52.7761 74.3106 52.7644 74.3457C52.7527 74.3808 52.6942 74.4042 52.6357 74.3808Z" fill="#F5C14E"/>
<path d="M68.1593 87.9943C68.5781 87.3725 67.5053 85.9172 65.7631 84.7438C64.0209 83.5704 62.269 83.1233 61.8502 83.7452C61.4314 84.367 62.5043 85.8223 64.2465 86.9957C65.9887 88.169 67.7405 88.6161 68.1593 87.9943Z" fill="#F5C14E"/>
<path d="M65.5894 86.2471C65.0862 85.9077 64.7585 85.5449 64.8404 85.4279C64.9223 85.3109 65.3904 85.4864 65.8819 85.8141C66.3851 86.1535 66.7128 86.5162 66.6309 86.6333C66.549 86.7503 66.0809 86.5748 65.5894 86.2471Z" fill="#F5C14E"/>
<path d="M66.9589 87.0778C66.8886 87.031 66.8535 86.9491 66.8887 86.8906C66.9238 86.8321 67.0174 86.8321 67.0876 86.8906C67.1578 86.9374 67.1929 87.0193 67.1578 87.0778C67.1227 87.1363 67.0291 87.1363 66.9589 87.0778Z" fill="#F5C14E"/>
<path d="M61.6786 90.0768C62.0974 89.455 61.0246 87.9997 59.2824 86.8263C57.5402 85.6529 55.7883 85.2058 55.3695 85.8277C54.9507 86.4495 56.0235 87.9048 57.7658 89.0782C59.508 90.2516 61.2598 90.6987 61.6786 90.0768Z" fill="#F5C14E"/>
<path d="M59.1071 88.3301C58.6039 87.9907 58.2762 87.628 58.3581 87.5109C58.44 87.3939 58.9081 87.5694 59.3996 87.8971C59.9028 88.2365 60.2305 88.5993 60.1486 88.7163C60.0667 88.8333 59.5986 88.6578 59.1071 88.3301Z" fill="#F5C14E"/>
<path d="M60.4745 89.1608C60.4043 89.114 60.3692 89.0321 60.4043 88.9736C60.4394 88.9151 60.533 88.9151 60.6032 88.9736C60.6734 89.0204 60.7085 89.1023 60.6734 89.1608C60.6383 89.2193 60.5447 89.2193 60.4745 89.1608Z" fill="#F5C14E"/>
<path d="M54.2493 81.947C54.5008 81.4586 53.5961 80.4917 52.2286 79.7874C50.8611 79.0831 49.5487 78.9081 49.2971 79.3964C49.0456 79.8848 49.9502 80.8517 51.3177 81.556C52.6852 82.2603 53.9977 82.4354 54.2493 81.947Z" fill="#F5C14E"/>
<path d="M52.2365 80.899C51.8504 80.7001 51.5695 80.4543 51.6163 80.3607C51.6631 80.2671 52.0259 80.3607 52.4121 80.5597C52.7982 80.7586 53.0791 81.0044 53.0323 81.098C52.9855 81.1916 52.6227 81.098 52.2365 80.899Z" fill="#F5C14E"/>
<path d="M53.3009 81.3903C53.3009 81.3903 53.219 81.3084 53.2424 81.2616C53.2658 81.2148 53.3243 81.2031 53.3828 81.2382C53.4413 81.2733 53.4647 81.3201 53.4413 81.3669C53.4179 81.4137 53.3594 81.4254 53.3009 81.3903Z" fill="#F5C14E"/>
<path d="M60.4535 81.3164C60.7731 80.6958 59.6209 79.4659 57.8799 78.5692C56.1389 77.6726 54.4685 77.4487 54.1489 78.0693C53.8293 78.6898 54.9815 79.9198 56.7225 80.8164C58.4635 81.7131 60.1339 81.9369 60.4535 81.3164Z" fill="#F5C14E"/>
<path d="M57.8769 79.9861C57.3737 79.7287 57.0226 79.4244 57.0928 79.3074C57.1513 79.1904 57.6077 79.3074 58.1109 79.5532C58.6141 79.8106 58.9652 80.1149 58.895 80.2319C58.8365 80.3489 58.3801 80.2319 57.8769 79.9861Z" fill="#F5C14E"/>
<path d="M59.2472 80.6064C59.177 80.5713 59.1419 80.4894 59.1653 80.4425C59.1887 80.384 59.2706 80.3723 59.3525 80.4074C59.4228 80.4426 59.4579 80.5245 59.4345 80.5713C59.4111 80.6298 59.3291 80.6415 59.2472 80.6064Z" fill="#F5C14E"/>
<path d="M30.3074 44.1063C30.3074 44.1063 30.3074 44.0829 30.284 44.036C30.2723 43.9892 30.2489 43.9073 30.2255 43.8137C30.1787 43.6148 30.1085 43.3222 30.0148 42.9594C29.9212 42.5966 29.8159 42.152 29.6872 41.6487C29.5584 41.1455 29.4414 40.5955 29.2893 39.9987C29.1372 39.4019 28.985 38.77 28.8212 38.1029C28.6574 37.4476 28.4818 36.7688 28.3297 36.0784C28.1776 35.3879 28.0254 34.6858 27.885 33.9954C27.7446 33.3049 27.6158 32.6262 27.5105 31.9591C27.4169 31.3038 27.2765 30.6251 27.0775 29.9346C26.8786 29.2442 26.6445 28.542 26.3637 27.8516C26.2935 27.676 26.2233 27.5005 26.153 27.325C26.0828 27.1494 26.0126 26.9739 25.9424 26.7984C25.7903 26.4473 25.6381 26.0962 25.4743 25.7568C25.1466 25.0664 24.8073 24.376 24.4445 23.7089C24.0817 23.0419 23.7423 22.3748 23.3913 21.7429C23.0519 21.111 22.7125 20.4907 22.3966 19.9056C22.2444 19.6131 22.0923 19.3322 21.9636 19.0513C21.8348 18.7705 21.7061 18.5013 21.6008 18.2439C21.5423 18.1151 21.4955 17.9864 21.4604 17.8694C21.4136 17.7407 21.3784 17.6236 21.3433 17.5183C21.3082 17.4013 21.2848 17.296 21.2614 17.2024C21.2614 17.1555 21.2614 17.1087 21.2497 17.0736C21.2497 17.0502 21.2497 17.0385 21.2497 17.0268C21.2497 17.0268 21.2497 17.0151 21.2497 17.0034C21.2497 17.0034 21.2497 17.0034 21.2731 17.0151C21.2731 17.0151 21.2848 17.0268 21.2965 17.0385C21.2965 17.0385 21.2731 17.0385 21.2497 17.0151C21.2497 17.0151 21.238 17.0151 21.2263 17.0034C21.2263 17.0034 21.2146 17.0034 21.2029 17.0034C21.2029 17.0034 21.1912 17.0034 21.1795 17.0151C21.1327 17.0268 21.1093 17.0853 21.0625 17.1673C21.004 17.3428 20.9455 17.6236 20.9455 18.0098C20.9338 18.396 20.9689 18.8875 21.0391 19.4492C21.121 20.0109 21.238 20.6312 21.3901 21.3099C21.5423 21.977 21.7178 22.7025 21.9168 23.4281C22.0104 23.7908 22.1274 24.1536 22.2327 24.5047C22.338 24.8675 22.4551 25.2185 22.5604 25.5696C22.6774 25.9207 22.7827 26.26 22.8881 26.5877C22.9934 26.9154 23.1104 27.2196 23.2157 27.5122C23.321 27.8048 23.4147 28.0739 23.52 28.3197C23.6253 28.5654 23.7189 28.7761 23.8243 28.9633C23.9647 29.2676 24.1285 29.6069 24.3158 30.0165C24.5147 30.4144 24.7253 30.8708 24.9711 31.3857C25.0881 31.6432 25.2168 31.9123 25.3456 32.1932C25.4743 32.474 25.6264 32.7783 25.7669 33.0943C25.9073 33.4102 26.0594 33.7379 26.1998 34.089C26.352 34.44 26.5041 34.8028 26.6562 35.1773C27.2648 36.6986 27.9552 38.4891 28.5871 40.5955C28.8914 41.6487 29.2308 42.7839 29.5116 44.0009C29.8042 45.218 30.0617 46.5287 30.3074 47.9213C30.3074 46.6223 30.3308 45.3584 30.3074 44.1297V44.1063Z" fill="#8FC03E"/>
<path d="M31.0554 29.654C31.0554 29.4668 31.032 29.2678 31.0203 29.0806C30.9969 28.8583 30.9618 28.6359 30.9033 28.4136C30.8565 28.2497 30.7863 28.0976 30.7161 27.9455C30.5639 27.6178 30.4001 27.3018 30.1895 27.0093C30.0958 26.8805 29.9905 26.7635 29.8852 26.6465C29.8384 26.5997 29.8033 26.5295 29.7565 26.4944C29.6863 26.471 29.6629 26.5412 29.6629 26.5997C29.6629 26.8103 29.6863 26.8688 29.6629 27.1029C29.6512 27.3603 29.5926 27.6763 29.5458 27.8636C29.499 28.0859 29.3703 28.5306 29.3118 28.8349C29.2299 29.303 29.2416 29.771 29.2884 30.2391C29.3235 30.5785 29.3937 30.9179 29.4873 31.2339C29.5575 31.4211 29.6395 31.6083 29.7214 31.7956C29.8618 32.1232 29.9554 32.4392 30.0256 32.6498C30.0373 32.685 30.049 32.7318 30.0958 32.7552C30.1427 32.7669 30.1895 32.7435 30.1895 32.6967C30.2129 32.6967 30.2246 32.685 30.2246 32.6615C30.2714 32.1817 30.4703 31.7137 30.6693 31.2456C30.7395 31.0817 30.7863 30.9296 30.8448 30.7658C30.8916 30.6253 30.9384 30.4849 30.9735 30.3445C31.0203 30.1104 31.032 29.8764 31.0437 29.6423L31.0554 29.654Z" fill="#FACF50"/>
<path d="M34.6841 28.4489C34.6841 28.4489 34.6841 28.4372 34.6841 28.3435C34.6841 28.3084 34.6841 28.2733 34.649 28.2382C34.6256 28.1914 34.5554 28.1797 34.5086 28.2031C34.415 28.2616 34.4267 28.2616 34.3331 28.3084C34.0873 28.4372 33.8416 28.5425 33.5958 28.6595C33.3032 28.7999 32.999 28.917 32.7181 29.0808C32.3085 29.3148 31.9341 29.6074 31.6532 29.9819C31.3489 30.3681 31.1149 30.8128 30.8925 31.2574C30.7638 31.5266 30.6468 31.7958 30.5415 32.0766C30.483 32.2053 30.4361 32.3341 30.3893 32.4628C30.3659 32.533 30.3542 32.5915 30.3425 32.6617C30.3425 32.6617 30.3425 32.6734 30.3425 32.6851C30.3191 32.7202 30.2957 32.7554 30.2723 32.8022C30.2723 32.8139 30.2606 32.8256 30.2606 32.8373C30.2489 32.8607 30.2489 32.8841 30.2606 32.9075C30.284 32.9543 30.3542 32.9426 30.3776 32.9075C30.3776 32.9075 30.3776 32.9075 30.3893 32.8958C30.483 32.8139 30.4947 32.8022 30.6 32.7085C30.7638 32.5915 30.9862 32.4745 31.2085 32.4277C31.384 32.3809 31.5596 32.3224 31.7234 32.2639C31.9341 32.1936 32.133 32.1234 32.3319 32.0298C32.6245 31.9011 32.8937 31.7138 33.1394 31.5032C33.3852 31.2808 33.5841 31.0234 33.7713 30.7542C34.0171 30.4149 34.2043 30.0404 34.3565 29.6425C34.4969 29.2914 34.6256 28.9287 34.6841 28.5542C34.6841 28.5191 34.6841 28.484 34.6841 28.4372V28.4489Z" fill="#FACF50"/>
<path d="M32.1563 25.8742C32.1446 25.7455 32.1329 25.605 32.1095 25.4763C32.0861 25.3359 32.0276 25.1955 31.9925 25.0667C31.9339 24.8912 31.852 24.6922 31.735 24.4699C31.6297 24.271 31.4892 24.0954 31.3722 23.9199C31.2552 23.7326 31.1265 23.5571 30.9743 23.3816C30.9275 23.3348 30.8924 23.288 30.8456 23.2411C30.8456 23.2411 30.8456 23.2411 30.8573 23.2528C30.8339 23.2294 30.8105 23.1943 30.7754 23.1943C30.6935 23.1943 30.6818 23.288 30.6935 23.3465C30.6935 23.4167 30.6935 23.4752 30.6935 23.5454C30.6584 23.8731 30.6116 24.0369 30.5531 24.2944C30.4711 24.6103 30.4009 24.9263 30.3775 25.254C30.3658 25.4412 30.3775 25.6401 30.4009 25.8274C30.436 26.1785 30.5296 26.5295 30.6233 26.8689C30.6935 27.1381 30.7637 27.4072 30.8456 27.6764C30.9275 27.9455 30.986 28.1094 31.068 28.3668C31.1265 28.5658 31.185 28.753 31.2201 28.9519C31.2669 29.1626 31.302 29.3732 31.3488 29.5839C31.3488 29.5956 31.3488 29.6073 31.3722 29.619C31.3839 29.6658 31.4775 29.6775 31.5009 29.619C31.5712 29.3849 31.6999 29.1626 31.7818 28.9285C31.969 28.4136 32.0978 27.8753 32.168 27.3253C32.2382 26.8338 32.2499 26.3423 32.1914 25.8508L32.1563 25.8742Z" fill="#FACF50"/>
<path d="M35.5957 24.8795C35.5957 24.8795 35.5957 24.7859 35.5723 24.7391C35.5489 24.6923 35.4904 24.6689 35.4319 24.6923C35.35 24.7625 35.2681 24.8327 35.1745 24.8795C35.034 24.9731 34.7649 25.1253 34.5542 25.254C34.2617 25.4412 33.9574 25.6051 33.6765 25.8157C33.2787 26.1317 32.951 26.5296 32.6935 26.9626C32.5765 27.1615 32.4829 27.3604 32.3893 27.5594C32.2606 27.7934 32.0616 28.203 31.9329 28.5307C31.8042 28.8232 31.6871 29.1275 31.6169 29.4435C31.5935 29.4786 31.5818 29.5137 31.5584 29.5488C31.535 29.5956 31.5233 29.6424 31.5116 29.6892C31.5116 29.6892 31.5116 29.7009 31.5116 29.7126C31.5116 29.7594 31.5701 29.7594 31.5935 29.7243C31.6754 29.6307 31.7339 29.5137 31.8159 29.4318C31.8393 29.4084 31.968 29.2796 32.0382 29.2094C32.1201 29.1392 32.2137 29.0807 32.3074 29.0222C32.5882 28.8467 33.0212 28.6126 33.3606 28.3903C33.6297 28.203 33.8638 27.9807 34.0861 27.7583C34.3202 27.5243 34.5308 27.2668 34.7181 26.9977C34.8819 26.7636 35.034 26.5062 35.1628 26.2487C35.2798 26.003 35.3968 25.7572 35.467 25.4998C35.5255 25.3008 35.5723 25.0902 35.5723 24.8912L35.5957 24.8795Z" fill="#FACF50"/>
<path d="M33.325 23.5804C33.325 23.3347 33.325 23.0889 33.2899 22.8315C33.2665 22.5389 33.2079 22.2346 33.0675 21.9772C33.0207 21.8836 32.9505 21.7899 32.8803 21.708C32.8101 21.6144 32.7515 21.5325 32.6813 21.4506C32.4473 21.1814 32.1898 20.9357 31.9441 20.6899C31.7217 20.4676 31.5345 20.3388 31.3356 20.0697C31.3004 20.0112 31.2068 20.0229 31.1834 20.0931C31.1717 20.1282 31.1834 20.175 31.1834 20.2101C31.1834 20.2686 31.1834 20.3271 31.1951 20.3857C31.1951 20.5027 31.2068 20.7367 31.1951 20.924C31.1834 21.1931 31.1483 21.4506 31.1483 21.7197C31.1483 21.8836 31.1483 22.0474 31.1717 22.2112C31.1834 22.34 31.2185 22.4687 31.2419 22.6091C31.3707 23.1123 31.6281 23.5804 31.8739 24.0485C32.0143 24.3177 32.1547 24.5985 32.2835 24.8794C32.3771 25.0666 32.459 25.2773 32.5058 25.4294C32.5526 25.6049 32.576 25.7805 32.6228 25.956C32.6228 25.9677 32.6228 25.9794 32.6462 25.9911C32.6228 26.073 32.5994 26.155 32.576 26.2369C32.5526 26.3188 32.6579 26.3656 32.693 26.2837C32.7867 25.9209 32.9622 25.5464 33.0558 25.1485C33.1728 24.6336 33.3367 24.107 33.325 23.5687V23.5804Z" fill="#FACF50"/>
<path d="M35.678 19.2624C35.6897 18.9581 35.6545 18.6539 35.5843 18.3496C35.5375 18.1507 35.4673 17.9517 35.3971 17.7528C35.3386 17.5772 35.2684 17.4017 35.1982 17.2379C35.0811 16.9453 34.9641 16.6528 34.8003 16.3953C34.7301 16.29 34.5896 16.1027 34.4726 16.2432C34.4375 16.3134 34.379 16.4187 34.3088 16.5357C34.1098 16.8517 33.9226 17.1677 33.7353 17.4953C33.3609 18.1273 32.9981 18.806 32.9279 19.555C32.8928 19.906 32.9513 20.2571 33.08 20.5848C33.1502 20.772 33.2555 20.9475 33.3492 21.1348C33.4311 21.2986 33.5013 21.4859 33.5364 21.6029C33.5715 21.7199 33.63 21.8837 33.6417 22.0593C33.6534 22.2231 33.6534 22.4572 33.6066 22.6678C33.6066 22.7029 33.5832 22.7497 33.6066 22.7848C33.63 22.8199 33.7002 22.8082 33.7119 22.7614C33.7119 22.738 33.7236 22.7146 33.7236 22.6912C33.7471 22.7146 33.7939 22.7263 33.8173 22.7029C33.8173 22.7029 33.829 22.6912 33.8407 22.6795L33.8641 22.6444C33.9343 22.5274 34.0747 22.305 34.2151 22.1061C34.3556 21.9189 34.4609 21.8135 34.5779 21.6731C34.8471 21.3688 35.0928 21.0529 35.2918 20.6901C35.4205 20.456 35.5492 20.1986 35.6194 19.9411C35.678 19.7305 35.7014 19.4964 35.7014 19.2741L35.678 19.2624Z" fill="#FACF50"/>
<path d="M36.6602 20.8653C36.6017 20.9472 36.5197 21.0174 36.4027 21.1111C36.0751 21.3568 35.8059 21.5441 35.5016 21.7313C35.174 21.9185 34.858 22.1175 34.5771 22.3749C34.2846 22.6207 34.0271 22.9249 33.8633 23.2643C33.6995 23.5686 33.5707 23.8845 33.4537 24.2005C33.3601 24.458 33.2899 24.7154 33.208 24.9729C33.126 25.2771 33.009 25.5697 32.9388 25.874C32.9154 25.9325 32.9739 25.9676 33.0207 25.9559C33.0441 25.9793 33.0792 25.991 33.1143 25.9559C33.1611 25.9208 33.2197 25.8506 33.3016 25.7803C33.2665 25.8154 33.3484 25.7452 33.3484 25.7335C33.3601 25.7218 33.3718 25.7101 33.3835 25.6984C33.4186 25.675 33.442 25.6399 33.4771 25.6165C33.5941 25.5112 33.7112 25.4293 33.7931 25.3825C34.0388 25.2303 34.308 25.1133 34.5654 24.9729C34.8931 24.7739 35.2208 24.575 35.4899 24.3058C35.607 24.1771 35.7357 24.0601 35.841 23.9196C35.9814 23.7324 36.1102 23.5218 36.2038 23.2994C36.3325 23.042 36.4495 22.7962 36.5314 22.5271C36.6134 22.2696 36.6719 22.0122 36.7304 21.7547C36.7889 21.4972 36.8591 21.2398 36.8825 20.9823C36.8942 20.8536 36.7538 20.7834 36.6719 20.9004L36.6602 20.8653Z" fill="#FACF50"/>
<path d="M32.5993 24.5516C32.5642 24.2824 32.5525 24.0132 32.4939 23.7558C32.3886 23.2292 32.2131 22.7143 32.0258 22.1994C31.9439 21.9536 31.862 21.6728 31.7567 21.4036C31.7099 21.2632 31.6397 21.1344 31.5812 20.994C31.5109 20.8068 31.4407 20.6195 31.3705 20.4323C31.3237 20.3036 31.2769 20.1397 31.2418 19.9642C31.2184 19.7653 31.2184 19.6365 31.2184 19.4259C31.2184 19.0397 31.2769 18.6652 31.3354 18.2908C31.3588 18.1386 31.3822 17.9865 31.4173 17.8344C31.4173 17.8227 31.4173 17.811 31.4173 17.7875C31.4173 17.7875 31.4173 17.7641 31.4173 17.7524C31.4173 17.7524 31.3939 17.7524 31.3822 17.7524C31.3705 17.7524 31.3705 17.7758 31.3588 17.7875C31.3588 17.8227 31.3354 17.8695 31.3237 17.9046C31.3003 18.0216 31.2652 18.1503 31.2418 18.2322C31.1833 18.4897 31.1482 18.7589 31.1131 19.028C31.0896 19.3089 31.0662 19.5897 31.0897 19.8823C31.1131 20.1514 31.2067 20.4089 31.2886 20.6663C31.3822 20.9472 31.5109 21.2164 31.6163 21.4972C31.7216 21.8015 31.8152 22.1175 31.9439 22.4568C32.1195 22.9366 32.2716 23.3696 32.3769 23.8845C32.412 24.0601 32.4354 24.2473 32.4588 24.4228C32.4588 24.4696 32.4705 24.5282 32.4822 24.575C32.4822 24.575 32.4822 24.5867 32.4939 24.5984C32.5173 24.6101 32.5525 24.5984 32.5408 24.5633L32.5993 24.5516Z" fill="#FACF50"/>
<path d="M37.5745 19.0166C37.5745 19.0166 37.5511 19.0166 37.5511 19.04C37.5277 19.0868 37.5043 19.1219 37.4809 19.1687C37.399 19.3326 37.3405 19.4379 37.2702 19.59C36.966 20.2571 36.7319 20.7837 36.3458 21.3688C36.1351 21.6965 35.8894 21.989 35.6436 22.2465C35.3627 22.539 35.0585 22.8316 34.801 23.1476C34.5319 23.4752 34.2978 23.838 34.0755 24.1891C33.9351 24.3997 33.818 24.6221 33.7127 24.8561C33.701 24.8912 33.6776 24.9146 33.6659 24.9497C33.6659 24.9497 33.6659 24.9614 33.6659 24.9731C33.6659 24.9965 33.7127 24.9965 33.7127 24.9731C33.8765 24.6221 34.0872 24.2827 34.3212 23.9667C34.5202 23.6859 34.7191 23.405 34.9532 23.1476C35.2925 22.7614 35.7723 22.3401 36.1351 21.9071C36.4511 21.5326 36.6968 21.0996 36.9192 20.6666C37.0947 20.3156 37.2468 19.9528 37.399 19.59C37.4692 19.4379 37.5277 19.2741 37.5862 19.1102C37.5862 19.0868 37.6096 19.0751 37.6096 19.0517C37.6096 19.0517 37.6096 19.0283 37.5862 19.0283L37.5745 19.0166Z" fill="#FACF50"/>
<path d="M34.823 15.0491C34.823 15.0491 34.823 15.0257 34.823 15.014C34.823 15.0023 34.7995 14.9906 34.7878 15.014C34.7761 15.0257 34.7878 15.0491 34.7761 15.0608C34.7761 15.0725 34.7761 15.1076 34.7761 15.0842C34.7527 15.1427 34.7527 15.2129 34.741 15.2832C34.624 16.0789 34.5421 16.8747 34.4485 17.6705C34.4134 18.1034 34.3783 18.5481 34.3197 18.9811C34.2495 19.496 34.1793 20.0109 34.0974 20.5141C34.0623 20.7131 34.0272 20.9003 34.0038 21.0993C34.0038 21.111 34.0038 21.1227 34.0272 21.1227C34.0389 21.1227 34.0506 21.1227 34.0506 21.0993C34.1091 20.7248 34.191 20.3503 34.2495 19.9875C34.3432 19.4375 34.4485 18.8992 34.507 18.3375C34.5304 18.08 34.5538 17.8226 34.5772 17.5651C34.624 17.1321 34.6708 16.7109 34.7176 16.2779C34.7644 15.88 34.823 15.4002 34.823 15.0608V15.0491Z" fill="#FACF50"/>
<path d="M31.3945 27.6062C31.3828 27.3019 31.336 27.0093 31.2892 26.7051C31.2541 26.4593 31.219 26.2136 31.1722 25.9678C31.1137 25.6753 31.0552 25.3827 31.0084 25.0901C30.9147 24.4699 30.8094 23.8614 30.7392 23.2412C30.6924 22.6677 30.6807 22.1528 30.6573 21.6496C30.6573 21.5677 30.6456 21.3922 30.6339 21.322C30.6339 21.2986 30.5871 21.2869 30.5637 21.322C30.552 21.3454 30.5637 21.3805 30.5637 21.4039C30.552 21.8135 30.5637 22.2113 30.5637 22.6209C30.5637 22.9954 30.5988 23.3699 30.6456 23.7327C30.7158 24.3061 30.8211 24.8795 30.9147 25.4529C30.9967 25.8625 31.0903 26.2604 31.1488 26.67C31.2073 27.0093 31.2658 27.3604 31.2892 27.7115C31.2892 27.8987 31.2892 28.1211 31.2892 28.3317C31.2892 28.3551 31.2892 28.3785 31.2892 28.4019V28.4253C31.3126 28.4487 31.3477 28.4253 31.3594 28.4019C31.3828 28.1328 31.3945 27.8636 31.3711 27.5945L31.3945 27.6062Z" fill="#FACF50"/>
<path d="M37.0247 23.0189C37.0247 23.0189 36.9896 23.0072 36.9779 23.0189C36.9428 23.054 36.9077 23.1008 36.8843 23.1359C36.7672 23.2646 36.6619 23.4051 36.5449 23.5572C36.2757 23.8849 36.0066 24.2242 35.7257 24.5402C35.48 24.7976 35.1406 25.1487 34.848 25.4413C34.5555 25.7338 34.2512 26.0147 33.9821 26.3307C33.6895 26.67 33.4203 27.0445 33.1629 27.419C32.9639 27.7115 32.7767 28.0041 32.6012 28.2967C32.5309 28.4371 32.449 28.5658 32.4022 28.718C32.4022 28.7297 32.4139 28.7414 32.4256 28.7414C32.4373 28.7414 32.449 28.7414 32.4607 28.718C32.5309 28.5307 32.6246 28.3786 32.7299 28.2031C32.8703 27.9807 33.0107 27.7584 33.1629 27.536C33.4788 27.103 33.7948 26.67 34.1576 26.2722C34.3565 26.0498 34.6959 25.7455 34.9417 25.4998C35.1523 25.3008 35.3512 25.0785 35.5502 24.8796C35.913 24.5051 36.2406 24.0955 36.5566 23.6859C36.6736 23.5338 36.7906 23.3699 36.8843 23.2412C36.9194 23.1827 36.9545 23.1359 37.0013 23.0774C37.0013 23.0657 37.0247 23.0423 37.013 23.0306L37.0247 23.0189Z" fill="#FACF50"/>
<path d="M36.3909 25.9443C36.3909 25.9443 36.3558 25.9326 36.3558 25.9443C36.309 26.0028 36.2739 26.0496 36.2271 26.1081C36.0983 26.272 35.9813 26.4475 35.8526 26.6113C35.4196 27.1965 35.01 27.7348 34.46 28.2029C33.9334 28.671 33.3834 29.1157 32.8568 29.5838C32.4589 29.9348 32.0727 30.2976 31.7684 30.7306C31.5695 30.9998 31.394 31.2806 31.2184 31.5615C31.1599 31.6434 31.1131 31.737 31.0663 31.8189V31.8423C31.0663 31.8774 31.1131 31.8774 31.1365 31.854C31.2184 31.7136 31.3003 31.5732 31.394 31.4327C31.4993 31.2689 31.6046 31.1051 31.7333 30.9412C31.9908 30.5668 32.2599 30.2625 32.5876 29.9699C33.0323 29.5604 33.5004 29.1742 33.9568 28.7763C34.261 28.5188 34.577 28.2614 34.8579 27.9805C35.2441 27.5943 35.5717 27.138 35.8994 26.6933C36.0281 26.506 36.1451 26.3305 36.2739 26.1432C36.3207 26.073 36.3675 26.0145 36.4026 25.9443V25.9209L36.3909 25.9443Z" fill="#FACF50"/>
<path d="M30.003 28.9751C30.003 28.2846 29.9211 27.6059 29.8275 26.9271C29.7573 26.4707 29.652 26.0261 29.57 25.5697C29.5466 25.4643 29.5349 25.3473 29.5115 25.242C29.5115 25.2069 29.5115 25.1601 29.4998 25.125V25.1016C29.4998 25.1016 29.4881 25.1016 29.4764 25.1016C29.4764 25.1016 29.4647 25.1133 29.4647 25.125C29.4647 25.1601 29.4647 25.2069 29.4647 25.242C29.4647 25.3707 29.4764 25.5111 29.4998 25.6399C29.5817 26.1197 29.6754 26.5995 29.7339 27.091C29.7924 27.5357 29.8392 27.9804 29.8743 28.4251C29.9094 28.8463 29.9094 29.2559 29.8743 29.7006C29.8392 30.1453 29.8041 30.59 29.769 31.0464C29.769 31.1517 29.7456 31.2687 29.7456 31.3741C29.7456 31.3858 29.769 31.3975 29.7807 31.3975C29.7924 31.3975 29.8041 31.3858 29.8041 31.3624C29.8392 30.9411 29.8743 30.5315 29.9094 30.1102C29.9445 29.724 29.9796 29.3378 29.9913 28.9517L30.003 28.9751Z" fill="#FACF50"/>
<path d="M34.5896 18.244C34.5896 18.0685 34.613 17.893 34.6248 17.7174C34.6248 17.6589 34.6248 17.6004 34.6248 17.5419C34.6248 17.5302 34.6248 17.5068 34.613 17.4951C34.6013 17.4834 34.5779 17.4717 34.5545 17.4717C34.5311 17.4717 34.5077 17.4951 34.5077 17.5302C34.496 17.7642 34.4726 17.9866 34.4492 18.2206C34.4258 18.4664 34.4141 18.7121 34.3673 18.9462C34.2854 19.4143 34.1215 20.0111 34.0045 20.5962C33.8758 21.2867 33.7471 21.9303 33.6066 22.5622C33.5364 22.8782 33.4194 23.4048 33.3141 23.8144C33.2322 24.1421 33.1268 24.4697 33.0332 24.7857C32.8226 25.4878 32.5885 26.1783 32.3428 26.8687C32.1672 27.3836 31.98 27.8985 31.7811 28.3901C31.6289 28.7645 31.4768 29.139 31.313 29.5135C31.1257 29.9582 30.9268 30.3912 30.7512 30.8476C30.5055 31.4912 30.2597 32.1348 30.0725 32.7902C29.9672 33.1763 29.8853 33.5625 29.7916 33.9604C29.6863 34.4168 29.6044 34.8732 29.5693 35.3413C29.5342 35.7392 29.5342 36.1371 29.5693 36.5349C29.581 36.7105 29.6161 36.886 29.6395 37.0616C29.6395 37.1084 29.6512 37.1552 29.6629 37.202C29.6629 37.202 29.6746 37.2254 29.6863 37.2254C29.7097 37.2254 29.7331 37.2137 29.7214 37.1903C29.7214 37.1552 29.7214 37.1318 29.7214 37.0967C29.7214 37.003 29.7097 36.7573 29.698 36.6988C29.6863 36.3828 29.6746 36.0551 29.698 35.7392C29.7448 35.2126 29.815 34.686 29.9321 34.1711C30.014 33.8317 30.1427 33.2232 30.2714 32.7902C30.4587 32.1582 30.6927 31.5263 30.9385 30.9061C31.1257 30.4263 31.3364 29.9582 31.5353 29.4901C31.7928 28.8581 32.0736 28.2379 32.296 27.5943C32.4949 27.056 32.6821 26.506 32.8694 25.9676C33.0683 25.3591 33.2556 24.7506 33.4311 24.1304C33.5715 23.6155 33.6886 23.0888 33.8056 22.5622C33.8641 22.3165 33.9343 21.9654 34.0045 21.6377C34.0981 21.1696 34.1684 20.7016 34.262 20.2335C34.3439 19.8005 34.4609 19.3675 34.5194 18.9228C34.5545 18.7004 34.5545 18.4781 34.5662 18.2557L34.5896 18.244Z" fill="#FACF50"/>
<path d="M35.912 22.1057C35.912 22.1057 35.912 22.0823 35.9354 22.0472C35.9471 22.0121 35.9822 21.9536 36.0056 21.8833C36.0759 21.7429 36.1695 21.544 36.2982 21.2982C36.4269 21.0525 36.5791 20.7599 36.7663 20.4439C36.9535 20.128 37.1525 19.8003 37.3982 19.4609C37.878 18.7705 38.4514 18.1034 39.06 17.5417C39.2121 17.4013 39.3759 17.2726 39.5281 17.1556C39.6919 17.0385 39.844 16.9215 40.0079 16.8279C40.3355 16.6289 40.6515 16.4885 40.9675 16.3832C41.2834 16.2779 41.5994 16.1608 41.9154 16.0321C42.243 15.9034 42.5707 15.763 42.8984 15.6225C43.5537 15.3534 44.2325 15.0959 44.8761 14.9204C45.5314 14.7566 46.1634 14.6863 46.7251 14.7331C47.0059 14.7683 47.2634 14.8151 47.4974 14.9204C47.5559 14.9438 47.6145 14.9672 47.6613 15.0023C47.7198 15.0257 47.7666 15.0608 47.8134 15.0959C47.8602 15.131 47.907 15.1661 47.9421 15.2012C47.9655 15.2247 47.9772 15.2364 47.9889 15.2598C47.9889 15.2598 47.9889 15.2832 48.0006 15.2832C48.0006 15.2832 48.0006 15.2832 48.0006 15.2949C48.0006 15.2949 48.0006 15.2949 47.9889 15.2949C47.9889 15.2949 47.9889 15.2949 48.0006 15.2832C48.0006 15.2832 48.0006 15.2715 48.0006 15.2598C48.0006 15.2247 47.9889 15.1778 47.9655 15.1076C47.907 14.9906 47.8134 14.8151 47.673 14.6161C47.3804 14.2299 46.9006 13.7735 46.2921 13.4225C45.6836 13.0714 44.9463 12.8374 44.2442 12.8022C44.0686 12.8022 43.8931 12.8022 43.7292 12.8022C43.5654 12.8139 43.4016 12.8374 43.2495 12.8725C43.0973 12.9076 42.9569 12.9427 42.8282 12.9895C42.6994 13.0363 42.5824 13.0948 42.4771 13.1416C42.3133 13.2235 42.126 13.3172 41.9154 13.4576C41.7047 13.598 41.459 13.7618 41.1898 13.9725C41.0611 14.0778 40.9207 14.1831 40.7685 14.3119C40.6164 14.4406 40.476 14.5693 40.3121 14.7214C40.16 14.8736 39.9962 15.0257 39.8206 15.2012C39.6568 15.3768 39.4813 15.564 39.294 15.763C38.943 16.1608 38.5451 16.6289 38.1472 17.1556C37.7493 17.6939 37.3397 18.2907 36.9184 18.9811C36.4971 19.6716 36.0759 20.4439 35.6663 21.3216C35.4556 21.7546 35.245 22.2227 35.046 22.7025C34.8471 23.194 34.6482 23.6972 34.4492 24.2472C34.6833 23.8493 34.9173 23.4632 35.1514 23.1004C35.2684 22.9249 35.3854 22.7493 35.5024 22.5738C35.6195 22.4099 35.7482 22.2461 35.8652 22.0823L35.912 22.1057Z" fill="#8FC03E"/>
<path d="M33.3838 27.1963C33.3838 27.1963 33.4072 27.2197 33.454 27.1963C33.5008 27.1729 33.571 27.091 33.6763 26.9038C33.8987 26.5176 34.238 25.6633 34.9285 23.9196C34.9285 23.9196 35.0221 23.709 35.1508 23.4984C35.2093 23.393 35.2796 23.2877 35.3615 23.2058C35.4317 23.1239 35.5019 23.0771 35.5721 23.0654C35.6774 23.0654 35.9466 22.8196 36.1104 22.5154C36.2158 22.3047 36.3445 22.176 36.4849 22.1058C36.7658 21.9302 37.2573 21.743 37.8307 21.6728C38.4158 21.6026 39.0946 21.6611 39.785 21.9536C40.1244 22.0941 40.4754 22.3047 40.8031 22.5622C40.9669 22.6909 41.1308 22.843 41.2946 22.9952C41.4584 23.159 41.6223 23.3228 41.7744 23.5101C42.0904 23.8845 42.3946 24.3175 42.6755 24.809C42.8159 25.0548 42.9564 25.3005 43.0851 25.5697C43.1553 25.6984 43.2138 25.8388 43.284 25.9793C43.3542 26.1197 43.4128 26.2601 43.483 26.4006C43.483 26.4006 43.483 26.3186 43.4596 26.1899C43.4362 26.0612 43.4127 25.8857 43.3659 25.6516C43.2606 25.1835 43.0851 24.5165 42.7223 23.6973C42.6287 23.4984 42.5234 23.2994 42.4063 23.0888C42.2893 22.8781 42.1606 22.6675 42.0202 22.4568C41.7276 22.0356 41.3648 21.626 40.9084 21.2749C40.6744 21.0994 40.4169 20.9589 40.1361 20.8302C39.9956 20.7717 39.8435 20.7132 39.6797 20.6781C39.5158 20.643 39.352 20.6079 39.1765 20.5845C38.4743 20.5025 37.6317 20.6079 36.6253 21.0643C36.4615 21.1462 36.3094 21.1813 36.1455 21.193C36.0402 21.193 35.8881 21.2398 35.7008 21.4036C35.5136 21.5675 35.303 21.86 35.0923 22.3398C35.0104 22.5154 34.9285 22.7026 34.8466 22.8781C34.7646 23.0537 34.6827 23.2409 34.6008 23.4047C34.437 23.7558 34.2614 24.0835 34.121 24.3643C33.9806 24.6569 33.8519 24.8909 33.7582 25.0665C33.6646 25.242 33.6178 25.3356 33.6178 25.3356C33.6178 25.3356 33.5827 25.4059 33.5359 25.5229C33.4891 25.6399 33.4423 25.8154 33.3955 26.0027C33.3018 26.3772 33.255 26.8453 33.4189 27.1612L33.3838 27.1963Z" fill="#8FC03E"/>
<path d="M31.9456 32.3104C31.9456 32.3104 31.9456 32.2987 31.9456 32.2636C31.9456 32.2285 31.9573 32.1934 31.969 32.1349C31.9924 32.0179 32.0392 31.8657 32.086 31.6668C32.1796 31.2689 32.3317 30.7423 32.4956 30.1689C32.6594 29.5955 32.8467 28.9986 33.0222 28.4486C33.1158 28.1795 33.2094 27.922 33.2913 27.6997C33.3733 27.4773 33.4552 27.2784 33.5254 27.1145C33.5254 27.1145 33.5254 27.1145 33.502 27.0794C33.502 27.0443 33.4786 26.9858 33.502 26.8571C33.502 26.7284 33.5254 26.5294 33.5839 26.2252C33.6073 26.073 33.6424 25.8975 33.6892 25.6985C33.736 25.4996 33.7945 25.2656 33.8648 25.0081C33.935 24.7389 34.0286 24.3528 34.1339 23.873C34.1924 23.6272 34.2509 23.3698 34.3212 23.0772C34.3563 22.9368 34.3914 22.7846 34.4265 22.6208C34.4616 22.4687 34.4967 22.3048 34.5435 22.1293C34.7073 21.4506 34.8946 20.6782 35.0935 19.8122C35.3042 18.9462 35.5616 17.9866 35.8308 16.9334C35.9712 16.4068 36.135 15.8685 36.2989 15.2951C36.3808 15.0142 36.4627 14.7217 36.5563 14.4291C36.6382 14.1365 36.7319 13.8323 36.8372 13.528C37.2351 12.2993 37.6564 10.9769 38.2064 9.57259C38.4755 8.87045 38.7564 8.14489 39.0723 7.39594C39.2362 7.02146 39.4 6.63528 39.5756 6.2491C39.6575 6.06186 39.7511 5.86292 39.8447 5.66398C39.9383 5.46504 40.0202 5.2661 40.1256 5.06715C40.1724 4.96183 40.2192 4.86821 40.266 4.76289C40.3128 4.65757 40.3713 4.56395 40.4181 4.45863C40.5234 4.25969 40.6288 4.04904 40.7224 3.8501C40.8277 3.65116 40.933 3.44052 41.0501 3.22987C41.1671 3.01923 41.2724 2.80858 41.3894 2.59794C41.5065 2.3873 41.6352 2.17665 41.7639 1.96601C41.8926 1.75537 42.0214 1.53302 42.1618 1.32238C42.2905 1.11173 42.4426 0.889385 42.5831 0.667039C42.6884 0.444693 42.8405 0.222346 43.0044 0C43.0044 0 42.9576 0.0702146 42.8405 0.198941C42.7235 0.327668 42.5714 0.52661 42.3724 0.772361C42.1735 1.01811 41.9394 1.33408 41.682 1.68515C41.4245 2.04793 41.132 2.44581 40.8394 2.9022C40.5469 3.3586 40.2426 3.8501 39.9266 4.38841C39.7745 4.65757 39.6107 4.93843 39.4468 5.21929C39.2947 5.51185 39.1309 5.80441 38.9787 6.10867C38.6628 6.7172 38.3585 7.36083 38.0425 8.01617C37.75 8.68321 37.4574 9.37365 37.1765 10.0758C37.1063 10.2513 37.0361 10.4269 36.9659 10.6024C36.9308 10.696 36.8957 10.7779 36.8606 10.8716C36.8255 10.9652 36.7904 11.0471 36.7553 11.1407C36.6265 11.5035 36.4861 11.8663 36.3574 12.229C36.0999 12.9663 35.8425 13.7036 35.6201 14.4408C35.3978 15.1898 35.1754 15.927 34.9648 16.676C34.8712 17.0504 34.7658 17.4132 34.6722 17.7877C34.5786 18.1505 34.485 18.525 34.3914 18.8877C33.6775 21.8133 33.1275 24.5751 32.5892 26.9507C32.5541 27.1028 32.5307 27.2667 32.519 27.4188C32.4956 27.8401 32.4254 28.2731 32.3083 28.6827C32.1913 29.0571 32.0626 29.5369 31.9222 30.0519C31.7817 30.5785 31.6296 31.1402 31.5009 31.6902C31.3604 32.2402 31.2317 32.7902 31.1147 33.2583C30.9977 33.7264 30.8923 34.1243 30.8104 34.3935C30.8572 34.2998 30.904 34.2062 30.9392 34.1126C30.986 34.019 31.0328 33.9254 31.0796 33.8317C31.1732 33.6445 31.2668 33.469 31.3604 33.2934C31.5477 32.9424 31.7349 32.603 31.9339 32.2753L31.9456 32.3104Z" fill="#8FC03E"/>
<path d="M30.7273 43.3222C30.7156 42.7254 30.7273 42.1169 30.7273 41.4966C30.7273 41.1924 30.7273 40.8764 30.7507 40.5604C30.7507 40.4083 30.7507 40.2445 30.7624 40.0923C30.7624 39.9285 30.7858 39.7764 30.7858 39.6125C30.8209 38.9806 30.8794 38.3019 30.9379 37.7519C30.9965 37.1667 31.0667 36.5816 31.1486 36.0082C31.2422 35.3412 31.406 34.7209 31.6167 34.206C31.6869 34.0422 31.7688 33.8667 31.8507 33.6911C31.9327 33.5156 32.0146 33.34 32.0965 33.1762C32.2603 32.8485 32.4242 32.5677 32.5412 32.4273C32.588 32.3687 32.6582 32.2166 32.7518 32.0177C32.8454 31.8187 32.9625 31.5613 33.1146 31.2804C33.2667 30.9996 33.4423 30.6719 33.6412 30.3559C33.8402 30.04 34.0742 29.7123 34.32 29.408C34.4487 29.2559 34.5774 29.1038 34.7061 28.975C34.8466 28.8346 34.987 28.7059 35.1274 28.5889C35.42 28.3548 35.7359 28.1676 36.0636 28.0505C36.7307 27.8165 37.4445 27.8633 38.2052 28.3431C38.2052 28.3665 38.0881 28.0974 37.8541 27.758C37.62 27.4186 37.269 26.9973 36.8009 26.7633C36.3328 26.5292 35.7594 26.4824 35.0455 26.9388C34.6944 27.1729 34.32 27.5356 33.9104 28.0622C33.6997 28.3314 33.5125 28.6474 33.3018 29.0101C33.0912 29.3729 32.8806 29.7825 32.6816 30.2506C32.5529 30.5549 32.4008 30.824 32.2486 31.0698C32.1667 31.1985 32.0848 31.3155 32.0146 31.4442C31.9444 31.573 31.8624 31.7017 31.7805 31.8304C31.6284 32.0879 31.4763 32.357 31.3241 32.6379C31.2071 32.8602 31.0901 33.1177 30.9965 33.4103C30.9028 33.7028 30.8209 34.0071 30.7624 34.3347C30.7039 34.7092 30.6454 35.0837 30.5869 35.4582C30.5284 35.8327 30.4816 36.2071 30.4347 36.5933C30.4113 36.7806 30.3879 36.9795 30.3645 37.1667C30.3411 37.354 30.3294 37.5529 30.306 37.7402C30.306 37.8338 30.2826 37.9274 30.2709 38.0327C30.2709 38.138 30.2475 38.2434 30.2358 38.3487C30.2124 38.5593 30.2007 38.7817 30.1773 38.9923C30.1422 39.4253 30.1188 39.8466 30.0954 40.2679C30.0837 40.6892 30.072 41.0988 30.0603 41.5083C30.0486 42.3275 30.0369 43.1233 30.0603 43.8839C30.072 44.5159 30.0954 45.1244 30.1188 45.7095C30.1188 45.8499 30.1188 45.9904 30.1305 46.1308C30.1305 46.2712 30.1422 46.4117 30.1539 46.5521C30.1773 46.8329 30.189 47.1138 30.2007 47.4064C30.3294 46.1659 30.505 44.7499 30.6922 43.3339L30.7273 43.3222Z" fill="#8FC03E"/>
<path d="M30.3881 45.312C30.3881 45.312 30.3881 45.1833 30.3647 44.9609C30.3647 44.7386 30.3413 44.4226 30.3179 44.0364C30.2711 43.2524 30.2126 42.1523 30.1072 40.8885C30.0838 40.5725 30.0487 40.2448 30.0253 39.9172C30.0019 39.5895 29.9668 39.2384 29.9434 38.8991C29.9083 38.5597 29.8732 38.1969 29.8381 37.8458C29.803 37.5299 29.7445 37.2256 29.6977 36.9213C29.5923 36.3128 29.4636 35.7277 29.2881 35.1894C29.2062 34.9202 29.1125 34.6628 29.0072 34.417C28.9604 34.3 28.9019 34.1713 28.8434 34.066C28.7849 33.9489 28.7264 33.8436 28.6678 33.7383C28.6678 33.7383 28.6678 33.8202 28.703 33.9489C28.7264 34.0777 28.7615 34.2649 28.8083 34.4989C28.9019 34.9553 29.0306 35.5639 29.1593 36.2075C29.2179 36.5235 29.2881 36.8511 29.3466 37.1671C29.3817 37.3309 29.4051 37.4831 29.4402 37.6352C29.4402 37.6586 29.4402 37.6703 29.4402 37.6937C29.4402 37.7171 29.4402 37.7405 29.4402 37.7639C29.4402 37.8107 29.4519 37.8458 29.4636 37.8926C29.4753 37.9746 29.487 38.0565 29.4987 38.1384C29.5221 38.3022 29.5455 38.4544 29.5572 38.6065C29.5806 38.7469 29.5923 38.8874 29.604 39.0044C29.6274 39.2501 29.6392 39.4608 29.6274 39.6129C29.6157 39.7767 29.5923 40.0108 29.5806 40.3151C29.5806 40.6193 29.5806 40.9704 29.5806 41.3566C29.5806 41.7427 29.5923 42.164 29.6157 42.597C29.6157 42.8194 29.6274 43.03 29.6509 43.2524C29.6626 43.4747 29.686 43.6854 29.6977 43.9077C29.7679 44.7737 29.8498 45.6046 29.9317 46.2716C30.0253 46.9386 30.1072 47.4535 30.1892 47.7344C30.3179 48.2961 30.3764 47.7578 30.3881 47.0205C30.3881 46.8333 30.3881 46.6344 30.3881 46.4471C30.3881 46.3535 30.3881 46.2599 30.3881 46.1663C30.3881 46.0726 30.3881 45.9907 30.3881 45.9088C30.3881 45.745 30.3881 45.6046 30.3881 45.4992C30.3881 45.4524 30.3881 45.4056 30.3881 45.3822C30.3881 45.3588 30.3881 45.3354 30.3881 45.3354V45.312Z" fill="#8FC03E"/>
<path d="M27.5439 32.884C28.1407 33.1765 28.7024 33.5627 29.1354 34.0776C29.3695 34.3585 29.5333 34.6978 29.6152 35.0606C29.6152 35.0723 29.6152 35.0957 29.6152 35.1074C29.6152 34.967 29.6503 34.8149 29.6854 34.6744C29.7322 34.4755 29.8727 34.1127 29.8844 34.0893C30.0599 33.5978 30.3174 33.1531 30.6216 32.7435C30.9376 32.3222 31.1014 32.1116 31.4642 31.7605C31.5461 31.6786 31.7099 31.5616 31.8621 31.7488C31.9908 32.0531 31.9908 32.2988 32.0493 32.5212C32.1546 33.1648 32.1897 33.8436 31.944 34.4638C31.8036 34.8383 31.5695 35.1542 31.2536 35.3766C31.078 35.5053 30.6684 35.7393 30.3174 35.8213C30.3174 35.8213 30.3057 35.8213 30.294 35.8213C30.294 35.8213 30.2705 35.8213 30.2471 35.8213C30.1769 35.833 30.1067 35.8447 30.0365 35.8564C30.0248 35.8564 30.0014 35.8564 29.9897 35.8564C29.8961 35.8564 29.779 35.8564 29.6854 35.8213C29.6854 35.8447 29.6737 35.8798 29.6503 35.9032C29.6152 35.95 29.5567 35.9617 29.5099 35.9617C29.4046 35.9617 29.4631 35.9617 29.3226 35.9617C29.2524 35.9617 29.1588 35.9617 29.0886 35.9383C29.0886 35.9617 28.6439 35.8213 28.5854 35.7862C28.3982 35.7159 28.1641 35.5287 28.1056 35.4819C27.8832 35.3064 27.6843 35.0957 27.5205 34.8617C27.3566 34.6042 27.2162 34.3116 27.1226 34.0191C27.029 33.6914 26.9822 33.3989 26.9471 33.1414C26.83 32.451 27.1343 32.6616 27.5439 32.8722V32.884Z" fill="#FBB428"/>
<path d="M26.1053 29.7009C26.1053 29.6307 26.1873 29.5722 26.2575 29.5956C26.749 30.0052 27.5447 30.1807 28.0948 30.6488C28.4107 30.9179 28.6799 31.2456 28.8671 31.6201C28.9958 31.819 29.0895 32.0414 29.1597 32.2754C29.2884 32.7201 28.8203 32.7084 28.5395 32.685C28.4107 32.6733 28.2937 32.6148 28.165 32.5797C27.7203 32.4627 27.3341 32.1584 27.0064 31.8307C26.8777 31.702 26.5617 31.3392 26.4915 31.1286C26.3628 30.8711 26.2224 30.3094 26.1873 30.1807C26.1639 30.0754 26.1405 29.9818 26.117 29.8764C26.117 29.853 26.117 29.8413 26.117 29.8179C26.117 29.8179 26.117 29.7477 26.117 29.7126L26.1053 29.7009Z" fill="#FBB428"/>
<path d="M24.677 25.4998C24.677 25.4413 24.7238 25.3945 24.7823 25.3828C24.9578 25.4179 24.911 25.4296 25.0397 25.4647C26.1398 25.8392 27.2047 26.1786 27.7547 27.4775C27.8717 27.7233 27.9654 27.9456 28.0239 28.1563C28.059 28.2499 28.0941 28.3435 28.1175 28.4488C28.1175 28.4488 28.1175 28.4723 28.1175 28.484C28.1175 28.5074 28.1175 28.5425 28.1292 28.5659C28.1409 28.6244 28.1292 28.6829 28.1058 28.7297C28.0707 28.7765 28.0005 28.8116 27.9419 28.8233H27.9302C27.9302 28.8233 27.9302 28.8233 27.9536 28.8116C27.7898 28.8818 27.6026 28.8935 27.427 28.8818C27.1813 28.8584 26.8887 28.835 26.5728 28.6712C26.4791 28.6478 26.1164 28.3318 25.9525 28.1446C25.7419 27.9222 25.4493 27.618 25.2504 27.2435C25.0983 26.9626 25.0046 26.6584 24.8993 26.3658C24.8642 26.2605 24.8291 26.1552 24.794 26.0499C24.7823 26.0264 24.7706 25.9913 24.7706 25.9679C24.7706 25.9679 24.7472 25.9328 24.7355 25.8743C24.7121 25.7924 24.677 25.6988 24.677 25.6169C24.677 25.6871 24.6536 25.5232 24.6653 25.4881L24.677 25.4998Z" fill="#FBB428"/>
<path d="M23.2144 21.9185C23.2144 21.9185 23.2729 21.9302 23.2963 21.9419C23.308 21.9419 23.3432 21.9536 23.3783 21.9653C23.5772 22.0238 23.7761 22.0706 23.9868 22.1057C24.373 22.1408 24.7592 22.2812 25.1102 22.4919C25.3443 22.6206 25.5783 22.7727 25.789 22.9483C26.1634 23.2876 26.456 23.744 26.6315 24.2355C26.6549 24.3292 26.6901 24.4462 26.6666 24.5398C26.6666 24.5398 26.6666 24.5398 26.6666 24.5749C26.6432 24.6451 26.6081 24.7153 26.5496 24.7621C26.3858 24.8909 26.1634 24.8909 25.9762 24.9143C24.6304 24.8324 23.6474 23.6504 23.1793 22.5738C23.1208 22.4217 23.0272 22.2695 23.0038 22.1057C23.0038 21.9887 23.1091 21.8833 23.2144 21.9302V21.9185Z" fill="#FBB428"/>
<path d="M21.4823 19.4262C21.4823 19.3208 21.5759 19.2389 21.6812 19.2506C21.7515 19.2506 21.81 19.2857 21.8802 19.2857C22.3249 19.3325 22.7813 19.3794 23.2143 19.5198C23.6238 19.6485 23.9983 19.8943 24.3143 20.1985C24.3845 20.257 24.443 20.3272 24.5132 20.3858C24.7122 20.5496 24.8877 20.7251 25.0515 20.9241C25.1569 21.0645 25.2505 21.2166 25.3324 21.3805C25.3909 21.4975 25.4962 21.6496 25.3909 21.7784C25.2271 21.9188 24.993 21.9071 24.7941 21.9071C24.3377 21.9071 23.9047 21.7432 23.4951 21.556C22.7696 21.24 22.1376 20.7719 21.7163 20.0581C21.611 19.8709 21.5525 19.7772 21.5174 19.6485C21.4823 19.5432 21.4823 19.5315 21.4823 19.4847C21.4823 19.4613 21.4823 19.4379 21.4823 19.4145V19.4262Z" fill="#FBB428"/>
<path d="M21.6823 15.7282C21.6823 15.7282 21.694 15.6814 21.7057 15.658C21.7057 15.658 21.7057 15.658 21.7057 15.6463C21.7408 15.5409 21.8461 15.4473 21.9631 15.5058C22.2674 15.6697 22.5716 15.8452 22.8642 16.0441C23.4727 16.4537 24.0344 17.0271 24.1866 17.7995C24.3036 18.3144 24.3504 18.841 24.327 19.3676C24.327 19.3793 24.327 19.4027 24.327 19.4144C24.327 19.4613 24.327 19.5081 24.3387 19.5666V19.59C24.3387 19.6134 24.3387 19.6368 24.3387 19.6602C24.3387 19.6836 24.3387 19.6953 24.3387 19.7187C24.3153 19.7889 24.2217 19.7889 24.1866 19.7187C24.1281 19.6836 24.0696 19.6134 24.011 19.5783C23.9525 19.5315 23.6834 19.4027 23.5429 19.3091C23.0514 18.9932 22.5482 18.6655 22.1855 18.1974C21.8461 17.7644 21.7174 17.191 21.6589 16.641C21.6354 16.3367 21.6003 15.9154 21.6589 15.7165L21.6823 15.7282Z" fill="#FBB428"/>
<path d="M24.9937 20.6897C24.9586 20.5726 24.865 20.1162 24.8533 19.8471C24.8533 19.6364 24.8767 19.4258 24.9001 19.2269C24.9469 18.9343 25.0288 18.6534 25.1341 18.3726C25.2395 18.1268 25.3682 17.9045 25.4852 17.6704C25.532 17.5885 25.5671 17.4949 25.6139 17.413C25.649 17.3545 25.7076 17.296 25.7778 17.3077C25.848 17.3194 25.8831 17.3896 25.9065 17.4481C25.9533 17.5651 25.9533 17.5651 25.9884 17.6353C26.0937 17.8694 26.1991 18.0449 26.3161 18.3375C26.4565 18.6768 26.6554 19.3205 26.6672 19.5428C26.7257 19.8822 26.6437 20.245 26.5384 20.5726C26.4448 20.8184 26.3278 20.9705 26.2342 21.1461C26.082 21.3801 25.8831 21.5907 25.649 21.7312C25.6022 21.7546 25.5437 21.8014 25.4852 21.8014C25.3916 21.8014 25.3214 21.6961 25.3448 21.6025C25.2277 21.2982 25.0756 21.0056 24.982 20.6897H24.9937Z" fill="#FBB428"/>
<path d="M26.5622 23.9315C26.5856 24.0251 26.5856 24.1304 26.6558 24.2123C26.6909 24.2474 26.7494 24.2591 26.7962 24.2357C26.7962 24.2357 26.8079 24.2357 26.8197 24.2357C26.9367 24.2006 27.0654 24.1772 27.1707 24.1187C27.4867 23.9666 27.791 23.7793 28.025 23.4985C28.1654 23.3229 28.2825 23.124 28.341 22.9953C28.4112 22.8314 28.4814 22.6676 28.5165 22.4921C28.5633 22.2346 28.575 22.1176 28.5516 21.8367C28.4697 21.3686 28.341 20.959 28.2591 20.6665C28.2122 20.526 28.1303 20.3037 27.9548 20.3973C27.8846 20.4324 27.8378 20.5026 27.7676 20.5495C27.5101 20.7484 27.2643 20.9356 27.042 21.1697C26.7728 21.4622 26.6675 21.7197 26.5622 22.0825C26.4803 22.3516 26.4335 22.6442 26.4335 22.925C26.4335 23.2059 26.4803 23.4517 26.5505 23.6974C26.5505 23.7793 26.5505 23.8729 26.5739 23.9549L26.5622 23.9315Z" fill="#FBB428"/>
<path d="M28.1189 27.9104C28.0955 27.7465 28.0721 27.571 28.0604 27.4072C28.037 26.9157 28.0838 26.4242 28.2008 25.9444C28.3179 25.4646 28.5987 25.0667 28.903 24.7039C29.0434 24.5401 29.1839 24.3645 29.3126 24.189C29.4647 23.9666 29.6051 23.8496 29.7339 24.1773C29.886 24.6103 30.0381 25.0433 30.0849 25.5114C30.1786 26.4124 29.9679 27.2082 29.453 27.9221C29.2775 28.1561 29.0317 28.3199 28.786 28.4721C28.6923 28.5306 28.5987 28.5774 28.5051 28.6359C28.4466 28.671 28.3764 28.7061 28.3062 28.671C28.2594 28.6476 28.236 28.6008 28.2125 28.554C28.2125 28.554 28.2008 28.5306 28.2008 28.5072C28.2008 28.5072 28.2008 28.5072 28.2008 28.4955C28.2008 28.4721 28.2008 28.4604 28.1891 28.4487C28.1891 28.4253 28.1774 28.3902 28.1657 28.3551C28.1423 28.2263 28.1189 28.0859 28.1072 27.9455L28.1189 27.9104Z" fill="#FBB428"/>
<path d="M29.1364 30.9176C29.1129 30.4144 29.1949 29.8644 29.581 29.4197C29.9555 28.9984 30.3066 28.6473 30.7513 28.4718C30.8683 28.425 31.0087 28.4835 30.9853 28.6356C30.9853 28.7643 31.0087 28.9048 31.0204 29.0335C31.1024 29.6186 31.1609 30.2272 31.0087 30.8123C30.8098 31.6314 30.4119 32.2868 29.8268 32.6496C29.8502 32.6379 29.78 32.673 29.7566 32.6847C29.6981 32.7081 29.6513 32.7432 29.5927 32.7666C29.5459 32.7783 29.4991 32.8251 29.4523 32.8017C29.4055 32.7783 29.4055 32.7198 29.4406 32.6847C29.3821 32.591 29.347 32.4272 29.3236 32.3102C29.23 31.8421 29.1598 31.374 29.1364 30.9059V30.9176Z" fill="#FBB428"/>
<path d="M23.1681 18.0336C23.1681 18.0336 23.2266 17.9751 23.25 18.0102C23.5192 18.3613 23.7649 18.7358 23.999 19.122C24.2096 19.4262 24.4203 19.7188 24.6192 20.0348C25.1224 20.8539 25.5788 21.7199 26.082 22.5508C26.5735 23.4519 26.8895 24.1891 27.299 25.1721C27.4629 25.57 27.6501 25.9679 27.7906 26.3775C28.0948 27.3137 28.4225 28.2382 28.6916 29.1861C28.9023 29.9818 29.0544 30.801 29.2182 31.6085C29.3821 32.4393 29.5693 33.2702 29.698 34.1128C29.8268 34.9554 29.9204 35.8096 29.9789 36.6522C30.014 37.2607 30.0491 38.0565 30.0023 38.548C30.0023 38.6182 29.9906 38.7001 29.9789 38.7704C29.9672 38.8172 29.9204 38.8406 29.8736 38.8406C29.78 38.8172 29.8034 38.7118 29.7917 38.6299C29.78 38.4427 29.7683 38.2438 29.7449 38.0565C29.698 37.4363 29.6278 36.8161 29.5693 36.1958C29.3938 34.4288 29.0544 32.9894 28.6682 31.2457C28.5278 30.6255 28.3991 29.9935 28.2235 29.385C28.0948 28.9052 27.931 28.4371 27.7906 27.9573C27.6267 27.419 27.4863 26.8807 27.299 26.3424C27.1235 25.8275 26.9012 25.336 26.7139 24.8445C26.2809 23.7678 25.9182 22.9838 25.4618 22.1061C25.1107 21.3922 24.7479 20.6901 24.3617 19.9997C24.2096 19.7305 24.0458 19.473 23.8819 19.2156C23.7181 18.923 23.5543 18.6188 23.367 18.3379C23.3085 18.2443 23.25 18.1507 23.1798 18.0688C23.1798 18.0688 23.1798 18.0453 23.1798 18.0336H23.1681Z" fill="#D58940"/>
<path d="M24.9822 30.4498C25.4152 30.8594 25.8482 31.2573 26.2461 31.702C26.7376 32.2403 27.194 32.8371 27.6387 33.4105C27.8961 33.7499 28.1068 34.1244 28.3759 34.4637C28.6568 34.7914 28.9142 35.1425 29.2536 35.4584C29.277 35.4935 29.3238 35.5052 29.3355 35.5404C29.3355 35.5755 29.3004 35.5989 29.277 35.5755C29.0664 35.3999 28.8908 35.1776 28.7153 34.9669C28.5397 34.7563 28.3642 34.5691 28.2004 34.3467C27.9546 34.019 27.7557 33.668 27.4865 33.352C27.0769 32.8488 26.7259 32.3924 26.2929 31.9243C25.8716 31.4562 25.4152 31.0232 24.9822 30.5785C24.9588 30.5551 24.9237 30.5317 24.912 30.4849C24.912 30.4381 24.9705 30.403 24.9939 30.4381L24.9822 30.4498Z" fill="#FBB428"/>
<path d="M23.7766 26.9155C23.8468 26.9272 23.917 27.0208 23.9755 27.0677C24.3617 27.407 24.7479 27.7581 25.1107 28.1443C25.45 28.5188 25.7426 28.9166 26.0585 29.3145C26.4681 29.8645 26.8426 30.4614 27.2873 30.988C27.4979 31.2454 27.8724 31.5614 28.1533 31.8071C28.2703 31.9125 28.3873 31.9827 28.5044 32.0763C28.5395 32.1114 28.5044 32.1699 28.4575 32.1465C28.0363 31.854 27.6384 31.5146 27.2756 31.1518C26.7841 30.6252 26.3745 30.0284 25.9415 29.455C25.6958 29.1507 25.3447 28.6943 25.1458 28.4602C24.7362 27.9804 24.2681 27.5475 23.8117 27.1028C23.7883 27.0794 23.7532 27.056 23.7298 27.0208C23.7064 26.9857 23.7298 26.9389 23.7766 26.9389V26.9155Z" fill="#FBB428"/>
<path d="M22.3488 23.0889C22.4308 23.1123 22.5244 23.2059 22.618 23.2527C23.3435 23.7793 24.0457 24.3644 24.6659 25.0432C25.1691 25.5815 25.5904 26.1666 26.0585 26.6932C26.2223 26.8921 26.4213 27.0794 26.6085 27.2549C26.8543 27.489 27.0883 27.7347 27.3926 27.8986C27.5213 27.9688 27.65 28.0624 27.8022 28.0975C27.8256 28.0975 27.8607 28.0975 27.8841 28.1326C27.9075 28.156 27.8841 28.2028 27.8373 28.2028C27.3341 28.0624 26.9362 27.6996 26.5617 27.3368C25.9766 26.8336 25.4851 26.1549 25.0053 25.6049C24.2563 24.7038 23.3435 23.9899 22.4425 23.2761C22.3956 23.241 22.3371 23.2059 22.302 23.1591C22.2786 23.124 22.302 23.0771 22.3488 23.0771V23.0889Z" fill="#FBB428"/>
<path d="M21.1783 20.5377C21.2485 20.4909 21.2953 20.5846 21.3772 20.6197C22.1145 21.1229 22.8049 21.6963 23.4602 22.3048C23.9986 22.7846 24.6188 23.2644 25.1571 23.6389C25.3443 23.7676 25.6135 23.9314 25.789 23.99C25.8943 24.0368 26.0231 24.0368 26.1401 24.0602C26.1869 24.0953 26.1518 24.1772 26.105 24.1655C25.7773 24.1538 25.4848 23.99 25.2156 23.8144C24.8645 23.5921 24.5369 23.3346 24.1975 23.0772C23.7294 22.7144 23.2847 22.3165 22.8283 21.9303C22.3017 21.509 21.7634 21.0995 21.2251 20.6899C21.2017 20.6665 21.1666 20.6548 21.1549 20.6314C21.1432 20.5963 21.1549 20.5611 21.1783 20.5377Z" fill="#FBB428"/>
<path d="M18.8615 17.4015C18.9084 17.3196 19.002 17.425 19.0605 17.4367C19.2945 17.5537 19.5286 17.6707 19.7626 17.7994C20.3595 18.1505 20.9212 18.5601 21.4127 19.0399C22.0212 19.6952 22.6999 20.292 23.4021 20.7484C23.7064 20.9357 23.9755 21.0761 24.3149 21.1112C24.3851 21.1112 24.4436 21.1112 24.5372 21.1112H24.5606C24.584 21.1346 24.5606 21.1814 24.5372 21.1814C23.9404 21.2282 23.4138 20.8772 22.934 20.5612C22.4308 20.2218 21.9042 19.7888 21.4595 19.3207C20.851 18.7239 20.2073 18.2792 19.5286 17.8462C19.3531 17.7409 19.1775 17.6356 19.002 17.5303C18.9435 17.4835 18.8264 17.4718 18.8615 17.3781V17.4015Z" fill="#FBB428"/>
<path d="M20.8741 13.6799C20.9443 13.7384 20.9677 13.8321 21.0262 13.9023C21.4826 14.6629 21.9156 15.447 22.3369 16.2194C22.5475 16.5821 22.7581 16.9449 22.9337 17.3194C22.9337 17.3545 22.9922 17.4013 22.9688 17.4364C22.9688 17.4481 22.9337 17.4364 22.9337 17.4364C22.6996 16.9449 22.372 16.5119 22.0677 16.0672C21.8571 15.7396 21.6698 15.3885 21.4592 15.0608C21.2251 14.6512 20.9209 14.148 20.757 13.7735C20.7453 13.7033 20.8155 13.6448 20.8741 13.6799Z" fill="#FBB428"/>
<path d="M25.7664 17.296C25.8132 16.5588 25.7196 15.8683 25.544 15.2013C25.5089 15.1194 25.6142 15.0492 25.661 15.1428C25.7781 15.5758 25.8834 16.0088 25.9068 16.4652C25.9653 17.3077 25.8366 18.162 25.7781 19.0046C25.743 19.4142 25.7079 19.7653 25.7079 20.1514C25.7079 20.3621 25.7079 20.5844 25.7079 20.7951C25.6962 20.8536 25.6142 20.8419 25.6142 20.7834C25.544 19.6248 25.7079 18.3961 25.7781 17.3077L25.7664 17.296Z" fill="#FBB428"/>
<path d="M27.2514 23.6274C27.2982 23.5455 27.3684 23.4051 27.4269 23.2998C27.5323 23.0891 27.661 22.8083 27.6961 22.6444C27.8365 22.188 27.8833 21.6965 27.9067 21.2167C27.9652 20.6082 27.9887 19.9997 28.1291 19.4029C28.1642 19.2507 28.2227 19.0986 28.2812 18.9582C28.3163 18.8997 28.3163 18.8177 28.3748 18.7826C28.4216 18.7592 28.4802 18.8177 28.445 18.8762C28.0472 19.8241 28.1408 20.8423 28.0355 21.8019C28.0004 22.1763 27.9184 22.5391 27.7897 22.8902C27.661 23.1827 27.5206 23.4285 27.3333 23.6742C27.2982 23.7094 27.2397 23.6742 27.2514 23.6274Z" fill="#FBB428"/>
<path d="M28.9841 27.0792C29.6863 25.6515 29.3586 24.0483 29.5342 22.4333C29.5342 22.3397 29.698 20.9939 29.7799 21.2748C29.5693 22.1876 29.5927 23.0887 29.6512 24.0366C29.698 24.6919 29.6746 25.3472 29.5576 25.9909C29.4873 26.4473 29.3001 26.8803 29.0544 27.2664C29.0192 27.3133 29.0309 27.3367 28.9841 27.3601C28.949 27.3718 28.9139 27.3601 28.9022 27.3133C28.9022 27.243 28.949 27.1728 28.9841 27.0792Z" fill="#FBB428"/>
<path d="M29.8964 31.9124C29.9198 31.0464 30.1304 29.9815 30.4698 29.1038C30.6219 28.6825 30.7857 28.2729 30.9847 27.875C31.1134 27.6176 31.2304 27.442 31.3592 27.1729C31.4294 27.0325 31.4879 26.9037 31.5347 26.7165C31.5464 26.6697 31.5347 26.5995 31.5815 26.5644C31.6049 26.541 31.6517 26.5644 31.64 26.6112C31.5698 27.0676 31.3709 27.442 31.1602 27.8633C31.0432 28.0974 30.9613 28.3548 30.8677 28.6006C30.6687 29.1155 30.4581 29.6655 30.3176 30.2623C30.1889 30.7772 30.1421 31.3038 30.0485 31.8188C30.0251 31.889 30.0485 31.9475 30.0017 31.9826C29.9549 32.0177 29.8964 31.9826 29.9081 31.9124H29.8964Z" fill="#FBB428"/>
<path d="M30.6698 34.8149C30.6698 34.8149 30.7166 34.733 30.7517 34.6862C31.0794 34.1362 31.3251 33.5042 31.4656 32.9542C31.6996 31.9829 31.8634 30.9531 32.1677 29.9584C32.2379 29.7244 32.3081 29.4903 32.3784 29.2563C32.4018 29.1978 32.3784 29.1275 32.4252 29.0924C32.4486 29.069 32.4954 29.0924 32.4837 29.1275C32.4252 29.4669 32.3198 29.8063 32.2379 30.1456C32.1326 30.5903 32.0507 31.035 31.9688 31.4914C31.8634 32.1117 31.7932 32.5915 31.6177 33.1883C31.4188 33.7851 31.1496 34.3702 30.7517 34.8617C30.7283 34.8968 30.6815 34.8617 30.6815 34.8266L30.6698 34.8149Z" fill="#FBB428"/>
<path d="M32.8806 35.0723C32.4827 35.2128 32.1083 35.4117 31.7923 35.6926C31.6285 35.8447 31.4997 36.0436 31.4295 36.2543V36.2777C31.4295 36.1841 31.4295 36.1021 31.4178 36.0085C31.4061 35.8915 31.3359 35.6575 31.3242 35.6458C31.2423 35.3415 31.1018 35.0489 30.938 34.7915C30.7625 34.5106 30.6689 34.3819 30.4582 34.1478C30.4114 34.101 30.3178 34.0191 30.2008 34.1127C30.0954 34.2883 30.0837 34.4404 30.0369 34.5691C29.9316 34.9553 29.8731 35.3649 29.9901 35.7511C30.0486 35.9851 30.1891 36.1958 30.3763 36.3479C30.4816 36.4298 30.7274 36.6054 30.938 36.6756C30.938 36.6756 30.938 36.6756 30.9497 36.6756C30.9497 36.6756 30.9614 36.6756 30.9731 36.6756C31.0199 36.6873 31.0667 36.699 31.1018 36.7107C31.1018 36.7107 31.1253 36.7107 31.137 36.7107C31.1955 36.7107 31.2657 36.7341 31.3242 36.7107C31.3242 36.7341 31.3242 36.7458 31.3476 36.7575C31.371 36.7926 31.4061 36.7926 31.4295 36.8043C31.4997 36.816 31.4646 36.8043 31.5465 36.816C31.5934 36.816 31.6519 36.816 31.6987 36.816C31.6987 36.8277 31.9912 36.7692 32.0263 36.7575C32.1434 36.7224 32.3072 36.6288 32.354 36.6054C32.5061 36.5117 32.6466 36.3947 32.7636 36.266C32.8806 36.1138 32.9859 35.95 33.0679 35.7862C33.1498 35.5989 33.1966 35.4117 33.2317 35.2713C33.3487 34.8617 33.1381 34.967 32.8689 35.0723H32.8806Z" fill="#FBB428"/>
<path d="M33.9801 33.2349C33.9801 33.2349 33.9333 33.153 33.8865 33.1647C33.5472 33.3754 33.0323 33.4339 32.6578 33.6913C32.4471 33.8318 32.2482 34.019 32.1078 34.2296C32.0141 34.3467 31.9439 34.4754 31.8854 34.6041C31.7801 34.8616 32.0727 34.885 32.2599 34.885C32.3418 34.885 32.4237 34.8616 32.5056 34.8499C32.7982 34.8031 33.0557 34.6392 33.2897 34.4637C33.3716 34.3935 33.594 34.1945 33.6642 34.0658C33.7578 33.9254 33.8865 33.586 33.9099 33.5158C33.9333 33.4573 33.9567 33.3988 33.9684 33.3403C33.9684 33.3403 33.9684 33.3168 33.9684 33.3051C33.9684 33.3051 33.9684 33.2583 33.9684 33.2349H33.9801Z" fill="#FBB428"/>
<path d="M35.1391 30.789C35.1391 30.789 35.1157 30.7188 35.0806 30.7188C34.9636 30.7305 34.9987 30.7422 34.9051 30.7539C34.1912 30.9177 33.4891 31.0581 33.0678 31.8071C32.9859 31.9475 32.904 32.0762 32.8572 32.205C32.8221 32.2635 32.7987 32.3103 32.7753 32.3688C32.7753 32.3688 32.7753 32.3688 32.7753 32.3805C32.7753 32.3922 32.7753 32.4156 32.7635 32.4273C32.7635 32.4624 32.7635 32.4975 32.7635 32.5209C32.787 32.556 32.8221 32.5794 32.8689 32.5911C32.8689 32.5911 32.8689 32.5911 32.8572 32.5911C32.9508 32.6379 33.0795 32.6614 33.1848 32.6614C33.3487 32.6614 33.5359 32.6614 33.7349 32.5911C33.7934 32.5911 34.0508 32.4156 34.1561 32.3103C34.3083 32.1933 34.5072 32.0177 34.6593 31.8071C34.7764 31.6549 34.8466 31.4677 34.9285 31.2922C34.9519 31.2337 34.987 31.1751 35.0104 31.1166C35.0104 31.1049 35.0221 31.0815 35.0338 31.0698C35.0338 31.0698 35.0455 31.0464 35.0572 31.0113C35.0806 30.9645 35.104 30.9177 35.104 30.8592C35.104 30.906 35.1274 30.8007 35.1157 30.7773L35.1391 30.789Z" fill="#FBB428"/>
<path d="M36.2868 28.718C36.2868 28.718 36.2517 28.718 36.24 28.718C36.24 28.718 36.2049 28.718 36.1815 28.7297C36.0528 28.7531 35.9241 28.7648 35.7836 28.7765C35.5379 28.7765 35.2804 28.835 35.0464 28.9403C34.8825 28.9988 34.7304 29.0807 34.59 29.1744C34.3325 29.3616 34.1219 29.6191 33.9815 29.8999C33.9581 29.9584 33.9346 30.0169 33.9463 30.0755C33.9463 30.0755 33.9463 30.0755 33.9463 30.0989C33.9463 30.1457 33.9698 30.1808 34.0049 30.2159C34.0985 30.2978 34.2389 30.3212 34.3676 30.3446C35.2336 30.3797 35.9241 29.7244 36.2868 29.1042C36.3336 29.0105 36.4039 28.9286 36.4273 28.835C36.439 28.7648 36.3805 28.6946 36.2985 28.718H36.2868Z" fill="#FBB428"/>
<path d="M37.5263 27.3133C37.5263 27.2548 37.4795 27.1963 37.4092 27.1963C37.3624 27.1963 37.3273 27.208 37.2805 27.208C36.988 27.208 36.6954 27.208 36.4145 27.2665C36.1454 27.3133 35.8996 27.442 35.6773 27.6059C35.6305 27.641 35.5837 27.6761 35.5486 27.7112C35.4198 27.7931 35.2911 27.8867 35.1741 28.0038C35.0922 28.0857 35.0337 28.1676 34.9634 28.2612C34.9166 28.3314 34.8464 28.4133 34.9049 28.4953C34.9985 28.5889 35.1507 28.6006 35.2794 28.6006C35.572 28.624 35.8528 28.5538 36.122 28.4602C36.6018 28.308 37.0348 28.0623 37.339 27.6644C37.421 27.5591 37.4561 27.5006 37.4912 27.4303C37.5146 27.3601 37.5146 27.3601 37.5263 27.3367C37.5263 27.325 37.5263 27.3133 37.5263 27.3016V27.3133Z" fill="#FBB428"/>
<path d="M37.6203 25.0668C37.6203 25.0668 37.6203 25.0434 37.6203 25.02C37.5969 24.9615 37.5383 24.8913 37.4681 24.9264C37.2575 25.0083 37.0585 25.1019 36.8596 25.1956C36.45 25.4062 36.0521 25.7222 35.9234 26.1786C35.8181 26.4828 35.7596 26.7988 35.7362 27.1148C35.7362 27.1148 35.7362 27.1382 35.7362 27.1499C35.7362 27.185 35.7245 27.2084 35.7128 27.2435C35.7128 27.2435 35.7128 27.2435 35.7128 27.2552C35.7128 27.2669 35.7128 27.2786 35.7128 27.2903C35.7128 27.2903 35.7128 27.3137 35.7128 27.3254C35.7128 27.3722 35.783 27.3839 35.8064 27.3371C35.8532 27.3137 35.8883 27.2786 35.9234 27.2552C35.9702 27.2318 36.1458 27.1616 36.2394 27.1265C36.567 26.9743 36.9064 26.7988 37.1756 26.5296C37.4213 26.2839 37.5383 25.9562 37.5969 25.6286C37.632 25.4413 37.6788 25.1956 37.6554 25.0668H37.6203Z" fill="#FBB428"/>
<path d="M35.2225 27.8637C35.2459 27.7935 35.3395 27.5243 35.3629 27.3605C35.3746 27.2317 35.3629 27.103 35.3629 26.986C35.3629 26.8105 35.3161 26.6349 35.2693 26.4594C35.2108 26.3073 35.1406 26.1668 35.0821 26.0147C35.0587 25.9562 35.0352 25.9094 35.0118 25.8509C35.0001 25.8157 34.965 25.7689 34.9182 25.7806C34.8714 25.7806 34.848 25.8157 34.8246 25.8509C34.7895 25.9211 34.7895 25.9211 34.7661 25.9562C34.6842 26.0849 34.6023 26.1902 34.5086 26.3541C34.3916 26.553 34.2395 26.9275 34.2161 27.0679C34.1576 27.2668 34.1927 27.4892 34.2395 27.6998C34.2863 27.852 34.3448 27.9573 34.4033 28.0626C34.4852 28.2147 34.6023 28.3552 34.7427 28.4488C34.7778 28.4722 34.8129 28.4956 34.8363 28.5073C34.8948 28.5073 34.9533 28.4605 34.9299 28.402C35.0235 28.2264 35.1406 28.0626 35.2225 27.8754V27.8637Z" fill="#FBB428"/>
<path d="M34.0287 29.7241C34.0404 29.6772 34.0521 29.6187 34.0521 29.5719C34.1106 29.4315 34.1574 29.2794 34.1691 29.1155C34.1808 28.94 34.1691 28.7645 34.134 28.6006C34.0872 28.3783 34.0404 28.2144 33.8765 28.0272C33.7478 27.8634 33.5957 27.7346 33.4435 27.6059C33.4084 27.5708 33.3733 27.5357 33.3382 27.5006C33.2329 27.4304 33.1627 27.5591 33.1276 27.6527C33.0574 27.8166 32.952 28.0623 32.8701 28.3432C32.835 28.5187 32.835 28.5772 32.8467 28.7411C32.8467 28.8464 32.8935 28.9517 32.9286 29.057C32.952 29.1389 33.0223 29.2677 33.0925 29.3847C33.2212 29.5719 33.4084 29.7007 33.5957 29.806C33.6659 29.8528 33.7361 29.8762 33.818 29.8996C33.818 29.8996 33.818 29.8996 33.8297 29.8996C33.8648 29.9113 33.8999 29.9113 33.9233 29.8996C33.9702 29.8645 33.9819 29.7943 33.9936 29.7358L34.0287 29.7241Z" fill="#FBB428"/>
<path d="M32.8101 32.0414C32.8335 31.936 32.8569 31.8424 32.8803 31.7371C32.9271 31.4445 32.9271 31.1403 32.8803 30.8477C32.8335 30.5551 32.6814 30.286 32.5058 30.0519C32.4239 29.9466 32.3537 29.8296 32.2718 29.7126C32.1899 29.5721 32.1079 29.4902 32.0026 29.6775C31.8739 29.9232 31.7569 30.1807 31.6984 30.4615C31.593 30.9998 31.6749 31.4913 31.9558 31.9594C32.0494 32.1116 32.2016 32.2286 32.342 32.3339C32.4005 32.369 32.4473 32.4158 32.5058 32.4509C32.5409 32.4743 32.5877 32.4977 32.6228 32.486C32.658 32.4743 32.6697 32.4509 32.6814 32.4158C32.6814 32.4158 32.6931 32.4041 32.6931 32.3924C32.6931 32.3924 32.6931 32.369 32.6931 32.3573C32.6931 32.3456 32.7048 32.3222 32.7165 32.2988C32.7399 32.2169 32.7633 32.135 32.775 32.0531L32.8101 32.0414Z" fill="#FBB428"/>
<path d="M31.9806 33.7965C32.0274 33.4922 32.004 33.1646 31.7817 32.8603C31.571 32.5795 31.3721 32.3571 31.0912 32.2167C31.021 32.1816 30.9274 32.2167 30.9274 32.2986C30.9157 32.3805 30.904 32.4624 30.8806 32.5326C30.787 32.8837 30.7285 33.2465 30.787 33.6093C30.8689 34.1125 31.0795 34.5338 31.4306 34.7912C31.4189 34.7912 31.454 34.8146 31.4657 34.8146C31.5008 34.838 31.5359 34.8497 31.5593 34.8731C31.5827 34.8731 31.6178 34.9082 31.653 34.9082C31.6764 34.9082 31.6881 34.8614 31.6647 34.838C31.7115 34.7795 31.7349 34.6859 31.7583 34.6157C31.8402 34.3465 31.9221 34.0657 31.9572 33.7731L31.9806 33.7965Z" fill="#FBB428"/>
<path d="M36.5449 26.3772C36.5449 26.3772 36.5098 26.3421 36.4981 26.3655C36.3108 26.5644 36.1236 26.7751 35.9598 26.9857C35.8076 27.1495 35.6555 27.3251 35.5151 27.5006C35.1406 27.9687 34.8012 28.4602 34.4384 28.9283C34.0757 29.4432 33.8299 29.8645 33.514 30.4379C33.3852 30.672 33.2448 30.8943 33.1278 31.1284C32.8703 31.6784 32.6129 32.2167 32.3905 32.7667C32.215 33.2348 32.0628 33.7146 31.9107 34.1944C31.7586 34.6859 31.5948 35.1774 31.4543 35.6806C31.3256 36.1838 31.2203 36.687 31.1267 37.2019C31.0681 37.5647 30.9979 38.0445 30.9979 38.3488C30.9979 38.3956 30.9979 38.4424 30.9979 38.4892C30.9979 38.5126 31.033 38.536 31.0564 38.536C31.115 38.536 31.1149 38.4658 31.1267 38.419C31.1501 38.302 31.1618 38.1849 31.1852 38.0796C31.2554 37.7051 31.3256 37.3424 31.4075 36.9679C31.6299 35.9147 31.9224 35.0721 32.2735 34.0423C32.4022 33.6795 32.5192 33.305 32.6597 32.9422C32.765 32.6614 32.9054 32.3922 33.0107 32.1114C33.1512 31.7954 33.2682 31.4794 33.4203 31.1635C33.5608 30.8709 33.7246 30.5783 33.8884 30.2975C34.2278 29.6773 34.5087 29.2209 34.848 28.7177C35.1172 28.3081 35.3863 27.9102 35.6789 27.5123C35.7959 27.3602 35.9129 27.2197 36.03 27.0676C36.147 26.9038 36.2757 26.7282 36.4045 26.5761C36.4513 26.5293 36.4864 26.4708 36.5332 26.424C36.5332 26.424 36.5332 26.4123 36.5332 26.4006L36.5449 26.3772Z" fill="#D58940"/>
<path d="M34.6482 33.75C34.3556 33.9723 34.0514 34.183 33.7705 34.4287C33.4194 34.7213 33.1035 35.049 32.7758 35.3766C32.5886 35.5639 32.4364 35.7862 32.2492 35.9618C32.0503 36.1373 31.863 36.3362 31.6407 36.5118C31.6173 36.5235 31.5939 36.5352 31.5822 36.5586C31.5822 36.582 31.6056 36.5937 31.6173 36.582C31.7577 36.4884 31.8864 36.3713 32.0151 36.2543C32.1322 36.1373 32.2609 36.032 32.3779 35.915C32.5535 35.7277 32.7056 35.5288 32.8928 35.3649C33.1854 35.0841 33.4311 34.8266 33.7354 34.5809C34.028 34.3234 34.3439 34.0894 34.6482 33.8436C34.6599 33.8319 34.695 33.8202 34.695 33.7968C34.695 33.7734 34.6599 33.75 34.6365 33.7617L34.6482 33.75Z" fill="#FBB428"/>
<path d="M35.6319 31.7017C35.6319 31.7017 35.5383 31.7602 35.4915 31.7836C35.2223 31.9591 34.9532 32.1464 34.7074 32.3687C34.4734 32.5676 34.2627 32.8017 34.0404 33.0123C33.7478 33.3166 33.4787 33.656 33.1627 33.9485C33.0106 34.089 32.7531 34.2528 32.5659 34.3932C32.484 34.4517 32.4021 34.4868 32.3318 34.5336C32.3084 34.5454 32.3318 34.5922 32.3552 34.5805C32.6361 34.4283 32.9053 34.2528 33.1627 34.0538C33.5021 33.7613 33.8063 33.4336 34.1106 33.106C34.2861 32.9421 34.5319 32.6847 34.6723 32.5559C34.9649 32.2868 35.2809 32.0527 35.6085 31.8187C35.6319 31.807 35.6553 31.7953 35.667 31.7719C35.6787 31.7485 35.667 31.7251 35.6436 31.7134L35.6319 31.7017Z" fill="#FBB428"/>
<path d="M36.755 29.4785C36.755 29.4785 36.638 29.537 36.5795 29.5604C36.088 29.8413 35.6082 30.1455 35.1752 30.52C34.8241 30.8126 34.5199 31.1402 34.1922 31.4328C34.0752 31.5498 33.9347 31.6435 33.806 31.7371C33.6305 31.8658 33.4666 31.9945 33.2677 32.0764C33.1741 32.1115 33.0922 32.1584 32.9985 32.1701C32.9868 32.1701 32.9634 32.1701 32.9517 32.1818C32.94 32.1935 32.9517 32.2286 32.9751 32.2286C33.3028 32.1701 33.5837 31.9828 33.8411 31.7839C34.239 31.5147 34.6018 31.1402 34.9294 30.836C35.4561 30.3445 36.0763 29.9583 36.6965 29.5838C36.7316 29.5604 36.7667 29.5487 36.7901 29.5253C36.8018 29.5019 36.7901 29.4785 36.7667 29.4668L36.755 29.4785Z" fill="#FBB428"/>
<path d="M37.6669 28.0039C37.6669 28.0039 37.5849 28.0273 37.5381 28.039C37.0466 28.2964 36.5668 28.6007 36.1104 28.9284C35.736 29.1858 35.3147 29.4316 34.9519 29.6305C34.8232 29.7007 34.6359 29.7827 34.5306 29.8061C34.4604 29.8295 34.3785 29.8178 34.3083 29.8295C34.2732 29.8412 34.2966 29.8997 34.3317 29.888C34.5423 29.888 34.7412 29.8178 34.9168 29.7359C35.1508 29.6188 35.3849 29.4901 35.6072 29.3497C35.9349 29.1624 36.2392 28.9401 36.5434 28.7411C36.9062 28.5188 37.269 28.2965 37.6318 28.0858C37.6435 28.0858 37.6669 28.0741 37.6786 28.0507C37.6903 28.039 37.6786 28.0039 37.6786 27.9922L37.6669 28.0039Z" fill="#FBB428"/>
<path d="M39.3181 26.2485C39.3181 26.2485 39.2245 26.2485 39.1894 26.2485C39.0372 26.307 38.8734 26.3539 38.7213 26.4241C38.3234 26.5996 37.9372 26.8103 37.5978 27.0794C37.1765 27.4422 36.7084 27.7581 36.2286 27.9922C36.0297 28.0858 35.8425 28.156 35.6318 28.156C35.585 28.156 35.5499 28.156 35.4914 28.156H35.4797C35.468 28.156 35.4797 28.1911 35.4797 28.2028C35.8542 28.2731 36.2169 28.0858 36.5446 27.922C36.884 27.7464 37.2468 27.5124 37.551 27.2666C37.9723 26.939 38.4053 26.7166 38.8617 26.4943C38.9787 26.4358 39.0957 26.389 39.2128 26.3305C39.2479 26.307 39.3298 26.307 39.3181 26.2485Z" fill="#FBB428"/>
<path d="M38.2516 23.8848C38.2516 23.8848 38.1814 23.9667 38.1463 24.0135C37.8069 24.4465 37.491 24.8912 37.175 25.3359C37.0229 25.5465 36.8707 25.7455 36.7303 25.9678C36.7303 25.9912 36.6952 26.0146 36.6952 26.038H36.7186C36.8941 25.7572 37.1282 25.5114 37.3505 25.2657C37.5027 25.0784 37.6431 24.8795 37.7952 24.6922C37.9708 24.4582 38.1931 24.1773 38.3218 23.955C38.3335 23.9199 38.2984 23.8731 38.2516 23.8965V23.8848Z" fill="#FBB428"/>
<path d="M34.9293 25.7686C34.941 25.3239 35.0464 24.9143 35.1985 24.5164C35.2219 24.4696 35.1634 24.4228 35.1283 24.4696C35.023 24.727 34.941 24.9845 34.8942 25.2536C34.8123 25.7569 34.8357 26.2835 34.824 26.7867C34.824 27.0324 34.824 27.2548 34.8006 27.4771C34.8006 27.6058 34.7655 27.7346 34.7655 27.8633C34.7655 27.8984 34.824 27.8984 34.824 27.8633C34.941 27.1728 34.9059 26.4122 34.9293 25.7569V25.7686Z" fill="#FBB428"/>
<path d="M33.607 29.5021C33.607 29.5021 33.5485 29.3616 33.5134 29.2914C33.4548 29.1627 33.3963 28.9754 33.3846 28.8818C33.3261 28.601 33.3261 28.2967 33.3378 28.0041C33.3378 27.6297 33.3612 27.2669 33.3027 26.8924C33.291 26.7988 33.2676 26.7052 33.2325 26.6116C33.2208 26.5764 33.2208 26.5296 33.1857 26.5062C33.1506 26.4945 33.1155 26.5296 33.1272 26.553C33.3261 27.1499 33.1974 27.7584 33.2208 28.3435C33.2208 28.5659 33.2559 28.7999 33.3144 29.0106C33.3729 29.1978 33.4548 29.3499 33.5602 29.5138C33.5719 29.5372 33.6187 29.5138 33.6187 29.4904L33.607 29.5021Z" fill="#FBB428"/>
<path d="M32.3086 31.4796C31.9458 30.5785 32.25 29.6306 32.2383 28.6359C32.2383 28.5773 32.2266 27.7582 32.1447 27.922C32.2266 28.4837 32.1447 29.0337 32.0628 29.5955C31.9926 29.9816 31.9692 30.3912 32.0043 30.7774C32.016 31.0583 32.1213 31.3274 32.25 31.5732C32.2734 31.5966 32.2617 31.62 32.2851 31.6317C32.3086 31.6317 32.332 31.6317 32.3437 31.6083C32.3437 31.5732 32.3203 31.5147 32.3086 31.4678V31.4796Z" fill="#FBB428"/>
<path d="M31.4421 34.3466C31.4772 33.82 31.407 33.1647 31.2432 32.6147C31.173 32.3572 31.0911 32.0881 30.9857 31.8423C30.9155 31.6785 30.857 31.5615 30.7868 31.3976C30.7517 31.304 30.7283 31.2221 30.7049 31.1168C30.7049 31.0817 30.7049 31.0466 30.6932 31.0231C30.6815 31.0114 30.6464 31.0231 30.6464 31.0466C30.6698 31.3274 30.7751 31.5615 30.8804 31.8306C30.9389 31.9827 30.974 32.1349 31.0208 32.2987C31.1145 32.6264 31.2198 32.9657 31.2783 33.3402C31.3251 33.6562 31.3251 33.9722 31.3602 34.2998C31.3602 34.3466 31.3602 34.3817 31.3836 34.4051C31.407 34.4286 31.4538 34.4051 31.4421 34.37V34.3466Z" fill="#FBB428"/>
<path d="M30.7747 36.0553C30.7747 36.0553 30.7513 35.9968 30.7396 35.9734C30.564 35.6223 30.447 35.2244 30.3885 34.8851C30.2949 34.2882 30.2481 33.6563 30.1193 33.0361C30.0842 32.8956 30.0608 32.7435 30.0257 32.6031C30.0257 32.568 30.0257 32.5329 30.0023 32.4978C29.9906 32.4861 29.9555 32.4978 29.9672 32.5212C29.9789 32.7318 30.0374 32.9424 30.0608 33.1531C30.1076 33.4222 30.131 33.7031 30.1544 33.984C30.1895 34.3584 30.2012 34.651 30.2715 35.0255C30.3651 35.4 30.4938 35.7744 30.7279 36.0904C30.7396 36.1138 30.7747 36.0904 30.7747 36.0787V36.0553Z" fill="#FBB428"/>
<path d="M30.6109 33.8433V62.2334H24.5256V48.9745L11.0327 35.4465L9.44116 33.8433H30.6109Z" fill="#ABAAAA"/>
<path d="M30.6109 33.8433V35.4465H11.0327L9.44116 33.8433H30.6109Z" fill="#5F5B5B"/>
<path d="M30.6105 48.9746H24.5253V50.4257H30.6105V48.9746Z" fill="#5F5B5B"/>
<path d="M30.6105 60.7939H24.5253V62.245H30.6105V60.7939Z" fill="#5F5B5B"/>
<g style="mix-blend-mode:multiply" opacity="0.25">
<path d="M26.8655 49.2554V60.7121C26.8655 60.7121 26.8655 60.7706 26.8655 60.794C26.8304 61.1919 26.4676 61.5195 26.0229 61.5195C25.5782 61.5195 25.2271 61.1919 25.1803 60.794C25.1803 60.7706 25.1803 60.7355 25.1803 60.7121V49.2905C25.1803 49.1735 25.1569 49.0681 25.1101 48.9628C25.075 48.8809 25.0165 48.799 24.9463 48.7405L11.6172 35.4465L10.5406 34.3699C10.4001 34.2294 10.3182 34.0422 10.3065 33.8433H14.4024V34.1592C14.4024 34.3348 14.4726 34.5103 14.5896 34.6624L15.2684 35.4582L26.6782 48.7639C26.7367 48.8341 26.7718 48.9043 26.8187 48.9862C26.8538 49.0798 26.8772 49.1735 26.8772 49.2788L26.8655 49.2554Z" fill="#5F5B5B"/>
</g>
<path d="M51.7692 33.8433L50.166 35.4465L36.6848 48.9745V62.2334H30.6112V33.8433H51.7692Z" fill="#ABAAAA"/>
<path d="M51.7692 33.8433L50.166 35.4465H30.6112V33.8433H51.7692Z" fill="#5F5B5B"/>
<path d="M36.6848 48.9746H30.5995V50.4257H36.6848V48.9746Z" fill="#5F5B5B"/>
<path d="M36.6848 60.7939H30.5995V62.245H36.6848V60.7939Z" fill="#5F5B5B"/>
<path opacity="0.34" d="M46.8184 33.8432H50.9026C50.9026 34.0422 50.809 34.2411 50.6685 34.3698L49.5919 35.4465L36.2628 48.7404C36.1926 48.8106 36.1458 48.8809 36.1107 48.9628C36.0522 49.0681 36.0288 49.1734 36.0288 49.2904V60.712C36.0288 60.712 36.0288 60.7705 36.0288 60.7939C35.9937 61.1918 35.6309 61.5195 35.1979 61.5195C34.7649 61.5195 34.4022 61.1918 34.3553 60.7939C34.3553 60.7705 34.3553 60.7354 34.3553 60.712V49.2553C34.3553 49.15 34.367 49.0564 34.4256 48.9628C34.449 48.8809 34.4958 48.8106 34.5543 48.7404L45.9642 35.4348L46.6429 34.639C46.7716 34.4986 46.8418 34.3113 46.8418 34.1358V33.8198L46.8184 33.8432Z" fill="white"/>
<path d="M48.0468 109.944H55.314V108.446L48.0468 108.177V109.944Z" fill="#648D3D"/>
<path d="M48.0468 106.621H55.314V105.123L48.0468 104.866V106.621Z" fill="#648D3D"/>
<path d="M48.0468 103.297H55.314V101.811L48.0468 101.542V103.297Z" fill="#648D3D"/>
<path d="M44.4323 57.7866H14.9538C12.9527 57.7866 11.3378 58.9452 11.3378 60.3729V112.8C11.3378 114.227 12.9527 115.386 14.9538 115.386H44.4323C46.4334 115.386 48.0483 114.227 48.0483 112.8V60.3729C48.0483 58.9452 46.4334 57.7866 44.4323 57.7866Z" fill="#9DBC5C"/>
<path d="M140.38 99.623H55.9817C52.6015 99.623 49.8613 102.363 49.8613 105.743C49.8613 109.124 52.6015 111.864 55.9817 111.864H140.38C143.76 111.864 146.5 109.124 146.5 105.743C146.5 102.363 143.76 99.623 140.38 99.623Z" fill="#648D3D"/>
<path d="M57.2112 109.652C59.3699 109.652 61.1198 107.902 61.1198 105.743C61.1198 103.584 59.3699 101.834 57.2112 101.834C55.0526 101.834 53.3026 103.584 53.3026 105.743C53.3026 107.902 55.0526 109.652 57.2112 109.652Z" fill="#90B83E"/>
<path d="M138.951 109.652C141.11 109.652 142.86 107.902 142.86 105.743C142.86 103.584 141.11 101.834 138.951 101.834C136.793 101.834 135.043 103.584 135.043 105.743C135.043 107.902 136.793 109.652 138.951 109.652Z" fill="#90B83E"/>
<path d="M107.542 111.864V113.42H101.457L95.9916 118.885H48.0468V117.071H94.9501L98.73 113.291H95.3831L93.2182 111.864H107.542Z" fill="#462820"/>
<path d="M48.0468 96.627C48.5383 96.7089 62.3705 99.0143 62.3705 99.0143L62.195 99.6228H60.03L48.0468 97.6685V96.627Z" fill="#648D3D"/>
<path d="M3.37925 109.067H0.910034V107.908C0.910034 104.69 3.53138 102.069 6.74955 102.069H11.3369V104.538H6.74955C4.88886 104.538 3.37925 106.048 3.37925 107.908V109.067Z" fill="#9DBC5C"/>
<path d="M41.5988 55.3408H36.6837C36.005 55.3408 35.4667 55.8908 35.4667 56.5579V57.7749H42.8158V56.5579C42.8158 55.8791 42.2658 55.3408 41.5988 55.3408Z" fill="#386E89"/>
<path d="M24.8058 55.3408H19.8908C19.212 55.3408 18.6737 55.8908 18.6737 56.5579V57.7749H26.0228V56.5579C26.0228 55.8791 25.4728 55.3408 24.8058 55.3408Z" fill="#386E89"/>
<path d="M8.8905 101.46V106.375C8.8905 107.054 9.44052 107.592 10.1076 107.592H11.3246V100.243H10.1076C9.42881 100.243 8.8905 100.793 8.8905 101.46Z" fill="#386E89"/>
<path d="M7.28699 71.1272V87.2766C7.28699 87.9553 7.837 88.4936 8.50404 88.4936H11.336V69.9102H8.50404C7.8253 69.9102 7.28699 70.4602 7.28699 71.1272Z" fill="#386E89"/>
<path d="M5.26331 73.9827V84.4095C5.26331 85.0883 5.81332 85.6266 6.48036 85.6266H7.28783V72.7539H6.48036C5.80162 72.7539 5.26331 73.3039 5.26331 73.971V73.9827Z" fill="#648D3D"/>
<path d="M40.5354 88.4939H18.5231C16.8848 88.4939 15.5624 87.1715 15.5624 85.5332V71.6775C15.5624 70.0392 16.8848 68.7168 18.5231 68.7168H40.5237C42.162 68.7168 43.4844 70.0392 43.4844 71.6775V85.5332C43.4844 87.1715 42.162 88.4939 40.5237 88.4939H40.5354Z" fill="#386E89"/>
<mask id="mask0_1216_5007" style="mask-type:luminance" maskUnits="userSpaceOnUse" x="17" y="70" width="25" height="17">
<path d="M38.6624 86.8087H20.4066C19.0491 86.8087 17.9491 85.7086 17.9491 84.3511V72.8476C17.9491 71.4902 19.0491 70.3901 20.4066 70.3901H38.6624C40.0199 70.3901 41.1199 71.4902 41.1199 72.8476V84.3511C41.1199 85.7086 40.0199 86.8087 38.6624 86.8087Z" fill="white"/>
</mask>
<g mask="url(#mask0_1216_5007)">
<path d="M38.6624 86.8087H20.4066C19.0491 86.8087 17.9491 85.7086 17.9491 84.3511V72.8476C17.9491 71.4902 19.0491 70.3901 20.4066 70.3901H38.6624C40.0199 70.3901 41.1199 71.4902 41.1199 72.8476V84.3511C41.1199 85.7086 40.0199 86.8087 38.6624 86.8087Z" fill="#D2E8F2"/>
<path opacity="0.39" d="M28.6837 63.671L26.5858 62.8345L12.659 97.7601L14.7569 98.5966L28.6837 63.671Z" fill="white"/>
<path opacity="0.39" d="M35.269 64.7746L32.5624 63.6953L18.6355 98.6209L21.3422 99.7002L35.269 64.7746Z" fill="white"/>
</g>
<path d="M145.681 114.532C144.803 112.917 143.282 111.852 141.562 111.852H5.84846C4.1282 111.852 2.61859 112.917 1.7292 114.532C1.2143 115.48 0.910034 116.615 0.910034 117.832C0.910034 121.132 3.12179 123.8 5.84846 123.8H141.573C144.3 123.8 146.512 121.12 146.512 117.832C146.512 116.615 146.207 115.48 145.693 114.532H145.681Z" fill="#386E89"/>
<path d="M132.059 99.6579H61.2712C62.3011 98.1951 61.8915 96.5333 62.8394 95.0705C63.3309 94.3099 64.2554 93.4673 66.2565 93.2684C66.3384 92.7652 66.8416 89.664 69.1353 87.9789C70.3406 87.1012 71.5226 86.9959 72.1428 86.9607C72.5992 86.0011 73.8631 83.6139 76.3323 82.1393C78.0291 81.1563 79.5972 81.0159 80.4749 81.0393C81.4228 79.5999 83.0963 77.4116 85.6942 75.6913C86.7474 74.9892 92.8561 70.9635 97.9233 73.9125C100.872 75.5977 101.703 78.6169 104.582 78.5935C106.092 78.5701 106.103 77.7743 107.824 77.4701C112.095 76.7328 115.863 80.8755 116.998 82.1393C117.923 83.1575 119.257 84.866 120.439 87.4874C121.211 87.5693 122.37 87.8501 123.657 88.5874C124.371 89.0087 126.384 90.2257 127.8 93.0343C128.829 95.0939 129.087 97.0951 129.157 98.2419C129.368 98.2185 130.854 98.0781 131.954 99.5058C132.001 99.5643 132.024 99.5877 132.036 99.6462L132.059 99.6579Z" fill="#F5C14E"/>
<path d="M93.2418 95.9875C94.9723 95.9113 96.3564 95.4256 96.3334 94.9026C96.3104 94.3796 94.8889 94.0174 93.1585 94.0936C91.4281 94.1697 90.0439 94.6554 90.0669 95.1784C90.09 95.7014 91.5114 96.0637 93.2418 95.9875Z" fill="#F5EFD7"/>
<path d="M92.646 95.4273C93.1432 95.4054 93.5428 95.3092 93.5385 95.2123C93.5342 95.1155 93.1277 95.0547 92.6306 95.0766C92.1334 95.0985 91.7338 95.1947 91.7381 95.2916C91.7423 95.3884 92.1488 95.4492 92.646 95.4273Z" fill="white"/>
<path d="M91.3005 95.1875C91.3707 95.1875 91.4292 95.2226 91.4292 95.2694C91.4292 95.3162 91.3707 95.3513 91.3005 95.363C91.2303 95.363 91.1718 95.3279 91.1718 95.2811C91.1718 95.2343 91.2303 95.1992 91.3005 95.1875Z" fill="white"/>
<path d="M111.267 88.5381C112.187 87.3294 112.612 86.1053 112.216 85.804C111.82 85.5026 110.753 86.2381 109.833 87.4468C108.913 88.6554 108.489 89.8796 108.885 90.1809C109.281 90.4823 110.348 89.7468 111.267 88.5381Z" fill="#FFE4B0"/>
<path d="M110.855 87.5928C110.597 87.9439 110.317 88.1663 110.246 88.1194C110.176 88.0609 110.317 87.7333 110.586 87.3939C110.855 87.0545 111.124 86.8205 111.194 86.8673C111.264 86.9141 111.124 87.2535 110.855 87.5928Z" fill="white"/>
<path d="M111.522 86.6447C111.522 86.6447 111.429 86.7149 111.393 86.6915C111.358 86.6681 111.358 86.5979 111.393 86.5511C111.429 86.5043 111.487 86.4809 111.522 86.5043C111.557 86.5277 111.557 86.5979 111.522 86.6447Z" fill="white"/>
<path d="M93.0327 97.8669C94.7632 97.7907 96.1473 97.305 96.1243 96.782C96.1013 96.259 94.6798 95.8968 92.9494 95.9729C91.219 96.0491 89.8348 96.5348 89.8578 97.0578C89.8809 97.5808 91.3023 97.9431 93.0327 97.8669Z" fill="#FFE4B0"/>
<path d="M92.4107 96.943C92.9023 96.9196 93.3118 96.9898 93.3118 97.0834C93.3118 97.1888 92.9139 97.2824 92.4224 97.3058C91.9309 97.3292 91.5214 97.259 91.5214 97.1654C91.5214 97.06 91.9192 96.9664 92.4107 96.943Z" fill="white"/>
<path d="M91.0895 97.0601C91.1598 97.0601 91.2183 97.0952 91.2183 97.142C91.2183 97.1888 91.1598 97.2239 91.0895 97.2356C91.0193 97.2356 90.9608 97.2005 90.9608 97.1537C90.9608 97.1069 91.0193 97.0718 91.0895 97.0601Z" fill="white"/>
<path d="M100.728 93.1213C102.459 93.0451 103.843 92.5594 103.82 92.0364C103.797 91.5134 102.375 91.1512 100.645 91.2273C98.9144 91.3035 97.5303 91.7892 97.5533 92.3122C97.5763 92.8352 98.9977 93.1975 100.728 93.1213Z" fill="#F5EFD7"/>
<path d="M100.112 92.215C100.603 92.1916 101.013 92.2618 101.013 92.3554C101.013 92.4607 100.615 92.5544 100.124 92.5778C99.6321 92.6012 99.2225 92.5309 99.2225 92.4373C99.2225 92.332 99.6204 92.2384 100.112 92.215Z" fill="white"/>
<path d="M98.8005 92.3203C98.8707 92.3203 98.9292 92.3554 98.9292 92.4022C98.9292 92.449 98.8707 92.4841 98.8005 92.4959C98.7303 92.4959 98.6718 92.4607 98.6718 92.4139C98.6718 92.3671 98.7303 92.332 98.8005 92.3203Z" fill="white"/>
<path d="M104.931 89.3958C106.042 88.4091 106.704 87.3388 106.408 87.0052C106.112 86.6717 104.97 87.2012 103.859 88.188C102.747 89.1747 102.086 90.245 102.382 90.5785C102.678 90.9121 103.819 90.3825 104.931 89.3958Z" fill="#FFE4B0"/>
<path d="M104.032 89.1142C104.348 88.8333 104.653 88.6578 104.711 88.7163C104.77 88.7748 104.559 89.0557 104.243 89.3482C103.927 89.6291 103.623 89.8046 103.564 89.7461C103.506 89.6876 103.716 89.4068 104.032 89.1142Z" fill="white"/>
<path d="M103.212 89.8981C103.212 89.8981 103.318 89.8513 103.341 89.8747C103.365 89.9098 103.341 89.9566 103.306 90.0034C103.259 90.0503 103.201 90.0503 103.177 90.0268C103.154 89.9917 103.177 89.9449 103.212 89.8981Z" fill="white"/>
<path d="M115.56 98.1701C115.639 97.6198 114.193 96.9586 112.331 96.6933C110.469 96.428 108.896 96.659 108.818 97.2092C108.739 97.7595 110.185 98.4207 112.047 98.686C113.909 98.9513 115.482 98.7203 115.56 98.1701Z" fill="#FFE4B0"/>
<path d="M111.569 97.5982C112.096 97.6685 112.517 97.8206 112.505 97.9259C112.494 98.0312 112.049 98.0546 111.511 97.9844C110.984 97.9142 110.563 97.7621 110.574 97.6567C110.586 97.5514 111.031 97.528 111.569 97.5982Z" fill="white"/>
<path d="M110.14 97.4578C110.222 97.4578 110.28 97.5164 110.269 97.5632C110.269 97.61 110.198 97.6451 110.116 97.6334C110.035 97.6334 109.976 97.5749 109.988 97.528C109.999 97.4812 110.058 97.4461 110.14 97.4578Z" fill="white"/>
<path d="M109.805 87.2754C110.547 85.4982 110.637 83.8435 110.005 83.5794C109.372 83.3154 108.258 84.542 107.516 86.3192C106.774 88.0964 106.684 89.7512 107.316 90.0152C107.949 90.2793 109.063 89.0526 109.805 87.2754Z" fill="#FFE4B0"/>
<path d="M108.899 86.2003C108.689 86.7035 108.419 87.078 108.291 87.0312C108.174 86.9844 108.244 86.528 108.454 86.0248C108.665 85.5216 108.934 85.1471 109.063 85.1939C109.192 85.2407 109.11 85.6971 108.899 86.2003Z" fill="white"/>
<path d="M109.403 84.8193C109.368 84.8895 109.298 84.9363 109.251 84.9129C109.204 84.8895 109.181 84.8076 109.204 84.7374C109.239 84.6672 109.31 84.6204 109.357 84.6438C109.415 84.6672 109.427 84.7491 109.403 84.8193Z" fill="white"/>
<path d="M75.2093 94.7022C76.9956 93.5972 78.2067 92.3182 77.9143 91.8455C77.6219 91.3728 75.9367 91.8854 74.1504 92.9904C72.364 94.0954 71.1529 95.3744 71.4453 95.8471C71.7377 96.3198 73.4229 95.8072 75.2093 94.7022Z" fill="#FFE4B0"/>
<path d="M75.2799 93.4675C74.765 93.7834 74.3086 93.9707 74.25 93.8771C74.1915 93.7834 74.566 93.4558 75.0692 93.1398C75.5841 92.8238 76.0405 92.6366 76.099 92.7302C76.1575 92.8238 75.7831 93.1515 75.2799 93.4675Z" fill="white"/>
<path d="M76.6005 92.5778C76.5303 92.6247 76.4484 92.6247 76.425 92.5778C76.4016 92.531 76.4367 92.4608 76.5186 92.414C76.5888 92.3672 76.6707 92.3672 76.6941 92.414C76.7175 92.4608 76.6824 92.531 76.6005 92.5778Z" fill="white"/>
<path d="M103.954 87.5523C105.74 86.4473 106.868 85.0346 106.474 84.397C106.08 83.7595 104.312 84.1384 102.525 85.2434C100.739 86.3484 99.6106 87.761 100.005 88.3986C100.399 89.0362 102.167 88.6573 103.954 87.5523Z" fill="#FFE4B0"/>
<path d="M103.822 86.0245C103.307 86.3405 102.839 86.4926 102.757 86.3756C102.687 86.2586 103.038 85.8958 103.541 85.5798C104.056 85.2639 104.524 85.1117 104.606 85.2288C104.676 85.3458 104.325 85.7086 103.822 86.0245Z" fill="white"/>
<path d="M105.144 85.1116C105.074 85.1584 104.98 85.1467 104.945 85.0882C104.91 85.0297 104.945 84.9478 105.016 84.901C105.086 84.8541 105.179 84.8658 105.214 84.9244C105.25 84.9829 105.214 85.0648 105.144 85.1116Z" fill="white"/>
<path d="M109.633 82.1526C110.31 80.5305 110.444 79.0418 109.931 78.8276C109.418 78.6134 108.453 79.7547 107.776 81.3768C107.098 82.999 106.964 84.4876 107.477 84.7019C107.99 84.9161 108.955 83.7747 109.633 82.1526Z" fill="#FFE4B0"/>
<path d="M108.923 81.2384C108.724 81.7065 108.49 82.0459 108.396 81.9991C108.303 81.9522 108.373 81.5427 108.572 81.0863C108.771 80.6182 109.005 80.2788 109.098 80.3256C109.192 80.3724 109.122 80.782 108.923 81.2384Z" fill="white"/>
<path d="M109.38 79.9747C109.357 80.0449 109.299 80.08 109.252 80.0683C109.205 80.0449 109.193 79.9747 109.217 79.9162C109.24 79.8459 109.299 79.8108 109.345 79.8225C109.392 79.8459 109.404 79.9161 109.38 79.9747Z" fill="white"/>
<path d="M75.2024 92.5616C75.8747 91.2794 76.0671 90.0551 75.6321 89.827C75.197 89.5989 74.2994 90.4534 73.6271 91.7356C72.9548 93.0177 72.7624 94.242 73.1975 94.4701C73.6325 94.6982 74.5301 93.8438 75.2024 92.5616Z" fill="#F9FBFC"/>
<path d="M74.6361 91.7235C74.4489 92.0863 74.2148 92.3554 74.1329 92.3086C74.051 92.2618 74.1329 91.9341 74.3319 91.5714C74.5191 91.2086 74.7532 90.9394 74.8351 90.9863C74.917 91.0331 74.8351 91.3607 74.6361 91.7235Z" fill="white"/>
<path d="M75.1034 90.729C75.1034 90.729 75.0215 90.8109 74.9864 90.7875C74.9513 90.7641 74.9396 90.7056 74.963 90.6588C74.9864 90.6003 75.0449 90.5769 75.08 90.6003C75.1151 90.6237 75.1268 90.6822 75.1034 90.729Z" fill="white"/>
<path d="M69.9123 95.0601C70.5801 93.7756 70.7682 92.5507 70.3324 92.3241C69.8965 92.0975 69.0019 92.9551 68.3341 94.2396C67.6662 95.5241 67.4782 96.7491 67.914 96.9757C68.3498 97.2023 69.2445 96.3447 69.9123 95.0601Z" fill="#FFE4B0"/>
<path d="M69.3451 94.2279C69.1579 94.5907 68.9355 94.8598 68.8419 94.813C68.76 94.7662 68.8419 94.4385 69.0409 94.064C69.2281 93.7013 69.4504 93.4321 69.5441 93.4789C69.626 93.5257 69.5441 93.8534 69.3451 94.2279Z" fill="white"/>
<path d="M69.8146 93.2216C69.8146 93.2216 69.7327 93.3035 69.6976 93.2801C69.6625 93.2567 69.6508 93.1982 69.6742 93.1514C69.6976 93.1046 69.7561 93.0695 69.7912 93.0929C69.8263 93.1163 69.838 93.1748 69.8146 93.2216Z" fill="white"/>
<path d="M85.0639 84.926C86.8541 83.8272 87.9874 82.4185 87.5952 81.7796C87.203 81.1406 85.4339 81.5133 83.6437 82.6121C81.8535 83.7108 80.7201 85.1195 81.1123 85.7585C81.5045 86.3975 83.2736 86.0247 85.0639 84.926Z" fill="#FFE4B0"/>
<path d="M84.9448 83.4148C84.4299 83.7307 83.9618 83.8829 83.8799 83.7541C83.8097 83.6254 84.1608 83.2743 84.664 82.9584C85.1789 82.6424 85.647 82.4903 85.7289 82.619C85.7991 82.7477 85.448 83.0988 84.9448 83.4148Z" fill="white"/>
<path d="M86.2673 82.5139C86.1971 82.5608 86.1034 82.549 86.0683 82.4905C86.0332 82.432 86.0683 82.3501 86.1386 82.3033C86.2088 82.2565 86.3024 82.2682 86.3375 82.3267C86.3726 82.3852 86.3375 82.4671 86.2673 82.5139Z" fill="white"/>
</svg>
