<svg width="167" height="105" viewBox="0 0 167 105" fill="none" xmlns="http://www.w3.org/2000/svg">
<g clip-path="url(#clip0_1216_4950)">
<path d="M39.4535 7.54541H24.0369V24.0274H39.4535V7.54541Z" fill="#648D3D"/>
<path d="M32.4017 0.418945H26.7322V13.5825H32.4017V0.418945Z" fill="#648D3D"/>
<path d="M26.719 0.418945H23.8904V21.0888H26.719V0.418945Z" fill="#90B83E"/>
<path d="M156.457 94.9028C156.457 100.438 152.649 104.932 147.959 104.932H9.25767C4.56777 104.932 0.759521 100.438 0.759521 94.9028C0.759521 89.368 4.56777 84.874 9.25767 84.874H147.971C152.661 84.874 156.469 89.368 156.469 94.9028H156.457Z" fill="#386E89"/>
<path d="M167 59.2571V87.7272H124.386V42.0771L137.134 47.2201L138.738 47.8691L154.865 54.3591L156.457 55.0081L167 59.2571Z" fill="#90B83E"/>
<path d="M138.739 49.2651V87.7272H137.135V48.6406L138.739 49.2651Z" fill="#648D3D"/>
<path d="M156.457 56.1592V87.7272H154.865V55.5347L156.457 56.1592Z" fill="#648D3D"/>
<path d="M122.525 42.8975H3.58765V87.2005H122.525V42.8975Z" fill="#D2E8F2"/>
<g opacity="0.5">
<path d="M91.4723 42.8975L2.92749 79.0819V66.947L61.8023 42.8975H91.4723Z" fill="white"/>
<path d="M124.987 79.6821V87.2007H106.57L124.987 79.6821Z" fill="white"/>
<path d="M124.987 42.8975V43.9383L19.1274 87.2005H11.7068L120.113 42.8975H124.987Z" fill="white"/>
<path d="M124.987 58.9141V66.4938L74.3291 87.2004H55.7654L124.987 58.9141Z" fill="white"/>
</g>
<path d="M124.987 64.2407H2.92749V66.004H124.987V64.2407Z" fill="#648D3D"/>
<path d="M2.92749 42.322H124.987L103.766 21.0889H98.6358H20.4381L2.92749 42.322Z" fill="#90B83E"/>
<path d="M166.988 84.2983H2.92749V87.8127H166.988V84.2983Z" fill="#648D3D"/>
<path d="M33.8955 42.8975H2.92749V84.2984H33.8955V42.8975Z" fill="#90B83E"/>
<path d="M9.60132 48.2607L9.60132 79.6818C9.60132 80.2634 10.0728 80.7349 10.6544 80.7349H26.169C26.7506 80.7349 27.2221 80.2634 27.2221 79.6818L27.2221 48.2607C27.2221 47.6791 26.7506 47.2076 26.169 47.2076H10.6544C10.0728 47.2076 9.60132 47.6791 9.60132 48.2607Z" fill="#F5C14E"/>
<path d="M27.7115 49.0811V78.8614C27.7115 80.3431 26.9768 81.5553 26.0829 81.5553H10.7397C9.83355 81.5553 9.11108 80.3431 9.11108 78.8614V49.0811C9.11108 47.5995 9.84579 46.3872 10.7397 46.3872H26.0829C26.989 46.3872 27.7115 47.5995 27.7115 49.0811ZM10.1029 78.8614C10.1029 79.4492 10.3968 79.9267 10.7519 79.9267H26.0951C26.4502 79.9267 26.7441 79.4492 26.7441 78.8614V49.0811C26.7441 48.4934 26.4502 48.0158 26.0951 48.0158H10.7519C10.3968 48.0158 10.1029 48.4934 10.1029 49.0811V78.8614Z" fill="#F5C14E"/>
<path d="M12.7849 74.0861V76.6331C12.7849 77.1877 13.2345 77.6372 13.789 77.6372H14.5482C15.1028 77.6372 15.5523 77.1877 15.5523 76.6331V74.0861C15.5523 73.5316 15.1028 73.082 14.5482 73.082H13.789C13.2345 73.082 12.7849 73.5316 12.7849 74.0861Z" fill="white"/>
<path d="M12.7849 68.3918V70.9388C12.7849 71.4933 13.2345 71.9429 13.789 71.9429H14.5482C15.1028 71.9429 15.5523 71.4933 15.5523 70.9388V68.3918C15.5523 67.8372 15.1028 67.3877 14.5482 67.3877H13.789C13.2345 67.3877 12.7849 67.8372 12.7849 68.3918Z" fill="white"/>
<path d="M12.7849 62.6857V65.2327C12.7849 65.7873 13.2345 66.2368 13.789 66.2368H14.5482C15.1028 66.2368 15.5523 65.7873 15.5523 65.2327V62.6857C15.5523 62.1312 15.1028 61.6816 14.5482 61.6816H13.789C13.2345 61.6816 12.7849 62.1312 12.7849 62.6857Z" fill="white"/>
<path d="M12.7712 56.9919V59.5389C12.7712 60.0934 13.2208 60.543 13.7753 60.543H14.5345C15.0891 60.543 15.5386 60.0934 15.5386 59.5389V56.9919C15.5386 56.4373 15.0891 55.9878 14.5345 55.9878H13.7753C13.2208 55.9878 12.7712 56.4373 12.7712 56.9919Z" fill="white"/>
<path d="M12.7849 51.2975V53.8445C12.7849 54.3991 13.2345 54.8486 13.789 54.8486H14.5482C15.1028 54.8486 15.5523 54.3991 15.5523 53.8445V51.2975C15.5523 50.743 15.1028 50.2934 14.5482 50.2934H13.789C13.2345 50.2934 12.7849 50.743 12.7849 51.2975Z" fill="white"/>
<path d="M17.0211 74.0861V76.6331C17.0211 77.1877 17.4707 77.6372 18.0252 77.6372H18.7844C19.339 77.6372 19.7885 77.1877 19.7885 76.6331V74.0861C19.7885 73.5316 19.339 73.082 18.7844 73.082H18.0252C17.4707 73.082 17.0211 73.5316 17.0211 74.0861Z" fill="white"/>
<path d="M17.033 68.3918V70.9388C17.033 71.4933 17.4825 71.9429 18.0371 71.9429H18.7963C19.3508 71.9429 19.8004 71.4933 19.8004 70.9388V68.3918C19.8004 67.8372 19.3508 67.3877 18.7963 67.3877H18.0371C17.4825 67.3877 17.033 67.8372 17.033 68.3918Z" fill="white"/>
<path d="M17.033 62.6857V65.2327C17.033 65.7873 17.4825 66.2368 18.0371 66.2368H18.7963C19.3508 66.2368 19.8004 65.7873 19.8004 65.2327V62.6857C19.8004 62.1312 19.3508 61.6816 18.7963 61.6816H18.0371C17.4825 61.6816 17.033 62.1312 17.033 62.6857Z" fill="white"/>
<path d="M17.0211 56.9919V59.5389C17.0211 60.0934 17.4707 60.543 18.0252 60.543H18.7844C19.339 60.543 19.7885 60.0934 19.7885 59.5389V56.9919C19.7885 56.4373 19.339 55.9878 18.7844 55.9878H18.0252C17.4707 55.9878 17.0211 56.4373 17.0211 56.9919Z" fill="white"/>
<path d="M21.2693 74.0983V76.6453C21.2693 77.1999 21.7188 77.6494 22.2734 77.6494H23.0326C23.5871 77.6494 24.0367 77.1999 24.0367 76.6453V74.0983C24.0367 73.5438 23.5871 73.0942 23.0326 73.0942H22.2734C21.7188 73.0942 21.2693 73.5438 21.2693 74.0983Z" fill="white"/>
<path d="M21.283 68.3918V70.9388C21.283 71.4933 21.7325 71.9429 22.2871 71.9429H23.0463C23.6008 71.9429 24.0504 71.4933 24.0504 70.9388V68.3918C24.0504 67.8372 23.6008 67.3877 23.0463 67.3877H22.2871C21.7325 67.3877 21.283 67.8372 21.283 68.3918Z" fill="white"/>
<path d="M21.283 62.6979V65.2449C21.283 65.7995 21.7325 66.249 22.2871 66.249H23.0463C23.6008 66.249 24.0504 65.7995 24.0504 65.2449V62.6979C24.0504 62.1434 23.6008 61.6938 23.0463 61.6938H22.2871C21.7325 61.6938 21.283 62.1434 21.283 62.6979Z" fill="white"/>
<path d="M21.2693 57.0041V59.5511C21.2693 60.1056 21.7188 60.5552 22.2734 60.5552H23.0326C23.5871 60.5552 24.0367 60.1056 24.0367 59.5511V57.0041C24.0367 56.4495 23.5871 56 23.0326 56H22.2734C21.7188 56 21.2693 56.4495 21.2693 57.0041Z" fill="white"/>
<path d="M17.033 51.2975V53.8445C17.033 54.3991 17.4825 54.8486 18.0371 54.8486H23.0453C23.5999 54.8486 24.0494 54.3991 24.0494 53.8445V51.2975C24.0494 50.743 23.5999 50.2934 23.0453 50.2934H18.0371C17.4825 50.2934 17.033 50.743 17.033 51.2975Z" fill="#90B83E"/>
<path d="M124.987 87.8248H2.92749V42.3218H124.987V87.8248ZM2.92749 86.6615H122.514V43.4851H2.92749V86.6615Z" fill="#648D3D"/>
<path d="M159.653 78.1637C159.653 88.1435 151.559 96.2376 141.579 96.2376C131.6 96.2376 123.506 88.1435 123.506 78.1637C123.506 68.1839 131.6 60.0898 141.579 60.0898C151.559 60.0898 159.653 68.1839 159.653 78.1637Z" fill="#648D3D"/>
<path d="M159.517 76.4614C159.517 85.9882 151.803 93.7026 142.276 93.7026C132.749 93.7026 125.035 85.9882 125.035 76.4614C125.035 66.9347 132.749 59.2202 142.276 59.2202C151.803 59.2202 159.517 66.9347 159.517 76.4614Z" fill="#9DBC5C"/>
<path d="M155.76 76.5226C155.76 83.9921 149.711 90.0413 142.241 90.0413C134.772 90.0413 128.722 83.9921 128.722 76.5226C128.722 69.053 134.772 63.0039 142.241 63.0039C149.711 63.0039 155.76 69.053 155.76 76.5226Z" fill="#C8D4A5"/>
<path d="M118.656 91.4129C118.656 97.5355 113.696 102.495 107.574 102.495C101.451 102.495 96.4919 97.5355 96.4919 91.4129C96.4919 85.2903 101.451 80.3311 107.574 80.3311C113.696 80.3311 118.656 85.2903 118.656 91.4129Z" fill="#648D3D"/>
<path d="M118.656 90.262C118.656 96.1029 113.917 100.842 108.076 100.842C102.235 100.842 97.4958 96.1029 97.4958 90.262C97.4958 84.421 102.235 79.6821 108.076 79.6821C113.917 79.6821 118.656 84.421 118.656 90.262Z" fill="#9DBC5C"/>
<path d="M117.395 89.6129C117.395 94.3885 113.526 98.258 108.75 98.258C103.975 98.258 100.105 94.3885 100.105 89.6129C100.105 84.8372 103.975 80.9678 108.75 80.9678C113.526 80.9678 117.395 84.8372 117.395 89.6129Z" fill="#C8D4A5"/>
<path d="M103.061 90.6986L103.675 92.2862C104.887 95.4214 108.41 96.9807 111.546 95.769L147.833 81.7451C150.968 80.5335 152.527 77.0097 151.316 73.8746L150.702 72.2869C149.49 69.1518 145.967 67.5925 142.832 68.8041L106.544 82.8281C103.409 84.0397 101.85 87.5634 103.061 90.6986Z" fill="#DC9427"/>
<path d="M103.066 90.6756L103.07 90.687C104.345 93.9862 108.053 95.627 111.352 94.352L147.046 80.5576C150.345 79.2826 151.986 75.5745 150.711 72.2754L150.706 72.2639C149.431 68.9648 145.723 67.3239 142.424 68.5989L106.731 82.3933C103.431 83.6683 101.791 87.3764 103.066 90.6756Z" fill="#F5C14E"/>
<path d="M2.92749 42.322H6.49084L23.7198 21.0889H20.4381L2.92749 42.322Z" fill="#648D3D"/>
<path d="M9.40405 42.322H12.9552L30.1964 21.0889H26.9024L9.40405 42.322Z" fill="#648D3D"/>
<path d="M12.2577 42.322H15.821L33.0622 21.0889H29.7683L12.2577 42.322Z" fill="#648D3D"/>
<path d="M15.5525 42.322H19.1036L36.3448 21.0889H33.0508L15.5525 42.322Z" fill="#648D3D"/>
<path d="M18.4177 42.322H21.9688L39.21 21.0889H35.9161L18.4177 42.322Z" fill="#648D3D"/>
<path d="M98.6345 21.0889L119.513 42.322H124.986L103.765 21.0889H98.6345Z" fill="#90B83E"/>
</g>
<defs>
<clipPath id="clip0_1216_4950">
<rect width="166.24" height="104.513" fill="white" transform="translate(0.759521 0.418945)"/>
</clipPath>
</defs>
</svg>
