<svg width="249" height="249" viewBox="0 0 249 249" fill="none" xmlns="http://www.w3.org/2000/svg">
<path d="M73.1575 155.644H61.9005L63.065 87.1318H71.993L73.1575 155.644Z" fill="#BAD5E0"/>
<path d="M67.529 87.1318H63.065L61.9005 155.644H67.529V87.1318Z" fill="#A5C7D3"/>
<path d="M72.5477 85.825H62.507V87.1318H72.5477V85.825Z" fill="#BAD5E0"/>
<path d="M62.8709 98.6994H72.187L72.0965 93.7697H62.9615L62.8709 98.6994Z" fill="#86C552"/>
<path d="M62.7293 107.433H72.3301L72.2525 102.504H62.807L62.7293 107.433Z" fill="#86C552"/>
<path d="M74.0907 155.644H60.9705V157.598H74.0907V155.644Z" fill="#B7CBD8"/>
<path d="M89.114 155.644H77.857L79.0344 87.1318H87.9495L89.114 155.644Z" fill="#BAD5E0"/>
<path d="M83.4855 87.1318H79.0344L77.857 155.644H83.4855V87.1318Z" fill="#A5C7D3"/>
<path d="M88.5042 85.825H78.4635V87.1318H88.5042V85.825Z" fill="#BAD5E0"/>
<path d="M78.8274 98.6994H88.1435L88.0659 93.7697H78.918L78.8274 98.6994Z" fill="#86C552"/>
<path d="M78.6808 107.433H88.2946L88.204 102.504H78.7585L78.6808 107.433Z" fill="#86C552"/>
<path d="M90.0422 155.644H76.9219V157.598H90.0422V155.644Z" fill="#B7CBD8"/>
<path d="M123.893 121.705H68.5267V124.979H123.893V121.705Z" fill="#BCDA7F"/>
<path d="M79.3142 122.818H70.2957V124.979H79.3142V122.818Z" fill="#97CB63"/>
<path d="M90.0446 122.818H81.0261V124.979H90.0446V122.818Z" fill="#97CB63"/>
<path d="M100.785 122.818H91.7665V124.979H100.785V122.818Z" fill="#97CB63"/>
<path d="M111.51 122.818H102.492V124.979H111.51V122.818Z" fill="#97CB63"/>
<path d="M122.251 122.818H113.232V124.979H122.251V122.818Z" fill="#97CB63"/>
<path d="M163.679 107.951C163.731 107.834 163.783 107.731 163.822 107.614C163.848 107.731 163.886 107.834 163.912 107.951H235.168C234.922 104.25 231.855 101.339 228.09 101.339C226.861 101.339 225.709 101.65 224.7 102.206C223.445 97.6126 219.253 94.2355 214.258 94.2355C212.279 94.2355 210.441 94.766 208.85 95.6976C206.741 89.3445 200.75 84.764 193.698 84.764C186.646 84.764 181.057 89.0469 178.766 95.0506C177.447 94.4813 175.984 94.1578 174.458 94.1578C173.254 94.1578 172.09 94.3648 171.003 94.7271C169.683 92.1652 167.018 90.4055 163.938 90.4055C162.657 90.4055 161.441 90.716 160.367 91.2595C157.585 88.4646 153.729 86.7437 149.485 86.7437C143.326 86.7437 138.008 90.3796 135.563 95.6199C134.851 95.4647 134.114 95.3741 133.363 95.3741C128.627 95.3741 124.681 98.6477 123.607 103.06C122.844 102.724 122.003 102.529 121.11 102.529C117.94 102.529 115.339 104.897 114.951 107.964H163.692L163.679 107.951Z" fill="white"/>
<mask id="mask0_872_387" style="mask-type:luminance" maskUnits="userSpaceOnUse" x="0" y="0" width="249" height="249">
<path d="M124.5 249C193.259 249 249 193.259 249 124.5C249 55.7406 193.259 0 124.5 0C55.7406 0 0 55.7406 0 124.5C0 193.259 55.7406 249 124.5 249Z" fill="white"/>
</mask>
<g mask="url(#mask0_872_387)">
<path d="M277.778 209.342C277.778 209.342 224.999 185.158 102 181.665C98.1054 181.548 94.1331 181.458 90.0831 181.393C64.7096 180.966 36.5282 181.419 5.40967 183.101L24.0161 251.588L213.354 249.401L277.778 209.342Z" fill="url(#paint0_linear_872_387)"/>
<mask id="mask1_872_387" style="mask-type:luminance" maskUnits="userSpaceOnUse" x="5" y="181" width="273" height="71">
<path d="M277.781 209.342C277.781 209.342 225.003 185.158 102.004 181.665C98.1091 181.548 94.1368 181.458 90.0869 181.393C64.7133 180.966 36.532 181.419 5.41345 183.101L24.0199 251.588L213.358 249.401L277.781 209.342Z" fill="white"/>
</mask>
<g mask="url(#mask1_872_387)">
<g style="mix-blend-mode:multiply" opacity="0.3">
<path d="M255.578 215.397C254.633 214.142 242.755 200.181 205.866 189.687L199.085 189.338C199.085 189.338 230.851 198.758 247.193 218.658L255.59 215.397H255.578Z" fill="#8CB248"/>
</g>
<g style="mix-blend-mode:multiply" opacity="0.3">
<path d="M111.33 179.219C112.184 179.155 117.566 182.791 120.62 187.863C122.069 190.269 123.311 193.802 122.47 197.787L110.941 196.286C110.941 196.286 113.788 185.456 106.258 179.957L111.33 179.232V179.219Z" fill="#8CB248"/>
</g>
<g style="mix-blend-mode:multiply" opacity="0.3">
<path d="M136.548 182.467C144.273 184.693 154.107 198.369 154.223 205.913L168.184 208.604C168.184 208.604 156.707 188.238 143.988 183.127L136.561 182.467H136.548Z" fill="#8CB248"/>
</g>
<g style="mix-blend-mode:multiply" opacity="0.3">
<path d="M150.837 182.998C156.465 184.305 173.842 199.042 179.109 211.826L190.922 215.734C190.922 215.734 180.338 194.526 157.94 183.541L150.85 182.998H150.837Z" fill="#8CB248"/>
</g>
<g style="mix-blend-mode:multiply" opacity="0.3">
<path d="M168.188 185.353C177.763 187.85 197.638 206.534 203.383 218.231H213.837C213.837 218.231 198.75 197.813 176.715 186.271L168.188 185.353Z" fill="#8CB248"/>
</g>
<g style="mix-blend-mode:multiply" opacity="0.3">
<path d="M182.846 187.19C190.454 189.687 213.02 204.114 220.356 216.174L228.883 214.466C228.883 214.466 209.992 193.478 188.746 187.177H182.846V187.19Z" fill="#8CB248"/>
</g>
<g style="mix-blend-mode:multiply" opacity="0.3">
<path d="M220.359 193.09C236.365 197.554 258.413 205.758 262.825 210.118L274.108 207.323C274.108 207.323 245.681 194.009 241.735 194.268C237.788 194.527 220.359 193.09 220.359 193.09Z" fill="#8CB248"/>
</g>
<g style="mix-blend-mode:multiply" opacity="0.3">
<path d="M100.294 178.844C105.301 186.815 99.8019 196.04 99.8019 196.04L91.7667 192.728C91.7667 192.728 95.8814 186.944 96.2437 180.94C96.5801 175.506 100.294 178.857 100.294 178.857V178.844Z" fill="#8CB248"/>
</g>
<g style="mix-blend-mode:multiply" opacity="0.3">
<path d="M91.7787 179.465C86.4995 185.12 83.5753 191.563 83.5753 191.563L75.8506 190.464C75.8506 190.464 82.8119 180.94 85.2703 179.336C87.7287 177.744 91.7787 179.452 91.7787 179.452V179.465Z" fill="#8CB248"/>
</g>
<g style="mix-blend-mode:multiply" opacity="0.3">
<path d="M67.662 189.48C72.333 182.467 77.1722 179.155 77.1722 179.155L71.4531 178.767C71.4531 178.767 64.0132 182.765 58.5529 189.144C57.026 190.929 67.6749 189.48 67.6749 189.48H67.662Z" fill="#8CB248"/>
</g>
<g style="mix-blend-mode:multiply" opacity="0.3">
<path d="M30.3977 188.885C35.0688 181.872 45.9635 180.656 45.9635 180.656H37.0226C37.0226 180.656 27.9652 181.238 21.4568 187.307C19.7359 188.911 30.3977 188.898 30.3977 188.898V188.885Z" fill="#8CB248"/>
</g>
<g style="mix-blend-mode:multiply" opacity="0.3">
<path d="M60.5602 180.785C56.1739 181.678 47.8411 189.247 47.8411 189.247L39.793 188.432C39.793 188.432 48.928 181.523 53.2497 180.306C55.6305 179.634 60.5602 180.798 60.5602 180.798V180.785Z" fill="#8CB248"/>
</g>
<g style="mix-blend-mode:multiply" opacity="0.3">
<path d="M121.476 181.238C127.7 184.162 132.746 190.632 133.07 200.013L144.171 202.445C144.171 202.445 141.596 187.785 128.334 182.26L121.476 181.251V181.238Z" fill="#8CB248"/>
</g>
</g>
<path d="M49.3644 102.18H39.673V123.064H49.3644V102.18Z" fill="#B8D2DE"/>
<path d="M52.7389 102.18H45.066V123.064H52.7389V102.18Z" fill="#D2E8F2"/>
<path d="M92.5407 120.489H28.8416V192.637H92.5407V120.489Z" fill="#B8D2DE"/>
<path d="M200.196 120.489H128.048V192.637H200.196V120.489Z" fill="#D2E8F2"/>
<path d="M182.363 154.674H149.665V192.637H182.363V154.674Z" fill="#378A46"/>
<path d="M110.009 105.324L128.046 120.489H203.779L183.231 102.089H106.774L110.009 105.324Z" fill="#90B83E"/>
<path d="M117.05 104.561L131.969 117.332L135.19 117.371L120.272 104.6L117.05 104.561Z" fill="#378A46"/>
<path d="M125.47 104.651L140.389 117.422L143.624 117.461L128.692 104.69L125.47 104.651Z" fill="#378A46"/>
<path d="M133.896 104.742L148.815 117.526L152.049 117.552L137.118 104.781L133.896 104.742Z" fill="#378A46"/>
<path d="M142.316 104.846L157.235 117.616L160.47 117.655L145.538 104.871L142.316 104.846Z" fill="#378A46"/>
<path d="M150.757 104.936L165.676 117.707L168.898 117.746L153.966 104.975L150.757 104.936Z" fill="#378A46"/>
<path d="M159.178 105.027L174.097 117.798L177.318 117.836L162.387 105.066L159.178 105.027Z" fill="#378A46"/>
<path d="M167.603 105.117L182.522 117.901L185.744 117.927L170.812 105.156L167.603 105.117Z" fill="#378A46"/>
<path d="M176.024 105.221L190.943 117.992L194.164 118.031L179.233 105.247L176.024 105.221Z" fill="#378A46"/>
<path d="M92.4754 122.714H88.0632L123.697 120.424H128.045L106.734 102.089L88.0632 122.714H92.4754Z" fill="#004D6B"/>
<path d="M182.026 154.674H149.665V157.12H182.026V154.674Z" fill="#195F30"/>
<path d="M182.21 192.637V154.674H177.306V192.637H182.21Z" fill="#195F30"/>
<path d="M117.05 192.637V162.657H115.122V192.637H117.05Z" fill="#195F30"/>
<path d="M145.774 132.289H135.19V142.873H145.774V132.289Z" fill="#386E89"/>
<path d="M158.051 132.289H147.467V142.873H158.051V132.289Z" fill="#386E89"/>
<path d="M170.333 132.289H159.749V142.873H170.333V132.289Z" fill="#386E89"/>
<path d="M182.61 132.289H172.026V142.873H182.61V132.289Z" fill="#386E89"/>
<path d="M194.892 132.289H184.308V142.873H194.892V132.289Z" fill="#386E89"/>
<path d="M92.5424 126.583H45.7028V192.624H92.5424V126.583Z" fill="#D2E8F2"/>
<path d="M61.2421 137.387H51.5507V158.271H61.2421V137.387Z" fill="#386E89"/>
<path d="M72.488 137.387H62.7966V158.271H72.488V137.387Z" fill="#386E89"/>
<path d="M83.7288 137.387H74.0374V158.271H83.7288V137.387Z" fill="#386E89"/>
<path d="M94.9215 120.476H28.8416V122.921H94.9215V120.476Z" fill="#195F30"/>
<path d="M92.5414 192.637V122.792L110.009 105.324L128.046 120.489V192.637H92.5414Z" fill="#B8D2DE"/>
<path d="M117.05 162.657H104.227V192.637H117.05V162.657Z" fill="#378A46"/>
<path d="M111.303 132.328H102.038V149.912H111.303V132.328Z" fill="#386E89"/>
<path d="M119.235 132.328H112.597V149.912H119.235V132.328Z" fill="#386E89"/>
<path d="M116.985 162.657H104.227V163.667H116.985V162.657Z" fill="#195F30"/>
<path d="M-17.426 180.462C-17.426 180.462 145.555 182.338 218.7 219.059C218.7 219.059 108.394 250.954 106.97 250.695C105.547 250.436 -17.6331 250.798 -17.6331 250.798L-17.426 180.462Z" fill="url(#paint1_linear_872_387)"/>
<g style="mix-blend-mode:multiply" opacity="0.3">
<path d="M-16.6515 226.24L-16.9103 211.153C16.6408 205.227 52.922 203.881 83.7818 203.196C139.821 201.94 183.736 206.042 201.489 211.632C207.635 213.935 213.393 216.419 218.698 219.072C218.698 219.072 218.685 219.706 218.646 220.78C216.718 220.405 210.676 216.329 208.631 215.915C161.507 206.534 121.46 207.09 86.0591 209.782C35.9459 213.586 -2.36673 222.41 -16.6515 226.24Z" fill="#87AF3F"/>
</g>
<g style="mix-blend-mode:multiply" opacity="0.3">
<path d="M-17.6215 250.811L-17.7897 238.028C46.3106 220.314 95.0263 217.247 142.552 214.905C178.742 213.12 203.055 217.377 203.055 217.377C203.055 217.377 145.696 239.8 106.982 250.708C46.1941 250.734 -17.6215 250.811 -17.6215 250.811Z" fill="#87AF3F"/>
</g>
<g style="mix-blend-mode:multiply" opacity="0.3">
<path d="M168.3 202.096C168.3 202.096 72.1625 188.367 -17.1044 200.776L-17.2338 193.207C12.772 190.541 88.9057 188.134 159.527 199.417C164.418 200.53 169.245 201.708 173.941 202.963L168.287 202.096H168.3Z" fill="#87AF3F"/>
</g>
<g style="mix-blend-mode:multiply" opacity="0.3">
<path d="M126.792 193.038C84.8301 187.695 16.3952 184.395 -17.9969 186.051L-17.4276 180.462C-17.4276 180.462 56.2864 181.316 126.805 193.038C126.805 193.038 126.804 193.038 126.779 193.038H126.792Z" fill="#87AF3F"/>
</g>
</g>
<path d="M85.771 75.0597C97.5978 75.0597 107.185 65.4723 107.185 53.6455C107.185 41.8188 97.5978 32.2313 85.771 32.2313C73.9443 32.2313 64.3568 41.8188 64.3568 53.6455C64.3568 65.4723 73.9443 75.0597 85.771 75.0597Z" fill="#F3DD8E"/>
<path d="M85.7723 65.4072C92.268 65.4072 97.5339 60.1413 97.5339 53.6455C97.5339 47.1498 92.268 41.8839 85.7723 41.8839C79.2765 41.8839 74.0106 47.1498 74.0106 53.6455C74.0106 60.1413 79.2765 65.4072 85.7723 65.4072Z" fill="#FACF50"/>
<path d="M73.2234 79.2261C73.2751 79.1097 73.3269 78.9803 73.3787 78.8638C73.4045 78.9932 73.4433 79.1097 73.4822 79.2261H152.074C151.803 75.1503 148.412 71.9285 144.272 71.9285C142.913 71.9285 141.645 72.2778 140.533 72.886C139.148 67.8268 134.516 64.0874 129.017 64.0874C126.843 64.0874 124.799 64.6826 123.052 65.6918C120.723 58.6918 114.124 53.6455 106.335 53.6455C98.5452 53.6455 92.3991 58.3683 89.876 64.9931C88.4139 64.372 86.8094 64.0097 85.1144 64.0097C83.7817 64.0097 82.5007 64.2297 81.3103 64.6308C79.8482 61.8101 76.911 59.8692 73.508 59.8692C72.0847 59.8692 70.752 60.2186 69.5746 60.8138C66.508 57.7343 62.264 55.8322 57.5671 55.8322C50.7611 55.8322 44.8997 59.8433 42.2084 65.6142C41.432 65.433 40.6169 65.3425 39.7758 65.3425C34.5614 65.3425 30.1879 68.9525 29.0234 73.8176C28.1824 73.4423 27.2508 73.2353 26.2674 73.2353C22.7738 73.2353 19.9014 75.849 19.4744 79.2261H73.2363H73.2234Z" fill="white"/>
<defs>
<linearGradient id="paint0_linear_872_387" x1="141.477" y1="184.201" x2="141.852" y2="222.216" gradientUnits="userSpaceOnUse">
<stop offset="0.03" stop-color="#AABE4F"/>
<stop offset="0.87" stop-color="#86AF42"/>
</linearGradient>
<linearGradient id="paint1_linear_872_387" x1="108.614" y1="177.253" x2="79.9019" y2="258.42" gradientUnits="userSpaceOnUse">
<stop offset="0.03" stop-color="#B1C342"/>
<stop offset="0.73" stop-color="#7AAE42"/>
<stop offset="1" stop-color="#6B9D41"/>
</linearGradient>
</defs>
</svg>
