<svg width="21" height="20" viewBox="0 0 21 20" fill="none" xmlns="http://www.w3.org/2000/svg">
<path d="M9.87374 5.2434C9.96685 5.35336 10.1038 5.41697 10.2479 5.41697C10.3924 5.41697 10.5293 5.3542 10.6228 5.24382C11.0416 4.7488 11.663 3.83964 11.663 2.79946C11.663 1.76013 11.042 0.851391 10.6232 0.355947C10.5297 0.245989 10.3932 0.182373 10.2487 0.182373C10.1046 0.182373 9.96727 0.245146 9.87416 0.355526C9.45497 0.850548 8.83441 1.7597 8.83398 2.79946C8.83441 3.83922 9.45455 4.74838 9.87374 5.2434Z" fill="white"/>
<path d="M10.2506 8.6505C10.3273 8.65387 12.1692 8.72718 13.2557 7.64108C13.9904 6.90591 14.1948 5.82403 14.2487 5.17776C14.2605 5.0341 14.2087 4.89212 14.1067 4.79017C14.0048 4.68821 13.8628 4.63639 13.7187 4.64861C13.0724 4.70254 11.9897 4.90644 11.2541 5.64118C10.4427 6.45344 10.2793 7.68868 10.2498 8.2924C10.2207 7.68868 10.0568 6.45344 9.24497 5.64118C8.50939 4.90602 7.4275 4.70212 6.78081 4.64861C6.63715 4.63639 6.49517 4.68863 6.39322 4.79059C6.29126 4.89296 6.23987 5.03452 6.25166 5.17818C6.30559 5.82445 6.50949 6.90634 7.24423 7.64108C8.33202 8.72718 10.1735 8.65387 10.2506 8.6505Z" fill="white"/>
<path d="M11.2541 9.53889C10.4427 10.3511 10.2793 11.586 10.2498 12.1901C10.2207 11.586 10.0568 10.3511 9.24497 9.53889C8.50939 8.80373 7.4275 8.59982 6.78081 8.54632C6.63715 8.53452 6.49517 8.58634 6.39322 8.68829C6.29126 8.79025 6.23987 8.93222 6.25166 9.07589C6.30559 9.72215 6.50949 10.8045 7.24423 11.5388C8.33076 12.6253 10.1718 12.5516 10.2493 12.5482C10.326 12.552 12.1679 12.6257 13.2544 11.5388C13.9896 10.8036 14.1935 9.72173 14.2474 9.07504C14.2592 8.93138 14.2074 8.7894 14.1055 8.68787C14.0035 8.58592 13.8615 8.5341 13.7174 8.54632C13.0716 8.59982 11.9897 8.80373 11.2541 9.53889Z" fill="white"/>
<path d="M11.2541 13.4376C10.4427 14.2498 10.2792 15.4842 10.2497 16.0888C10.2207 15.4842 10.0568 14.2498 9.24495 13.4376C8.50979 12.702 7.4279 12.4985 6.78163 12.445C6.63755 12.4332 6.49599 12.485 6.39404 12.5866C6.29209 12.6881 6.23984 12.8305 6.25164 12.9737C6.30557 13.6196 6.50905 14.7027 7.24421 15.437C7.98738 16.1806 9.08444 16.3807 9.72775 16.4321V19.2413C9.72775 19.5598 9.94851 19.8181 10.2674 19.8181C10.5859 19.8181 10.8071 19.5598 10.8071 19.2413V16.4292C11.4546 16.3736 12.5243 16.1671 13.2544 15.4375C13.9892 14.7027 14.1935 13.6208 14.2474 12.9741C14.2592 12.8305 14.2074 12.6881 14.1054 12.5866C14.0035 12.4846 13.8615 12.4328 13.7174 12.445C13.0716 12.4981 11.9897 12.702 11.2541 13.4376Z" fill="white"/>
</svg>
