<svg width="21" height="20" viewBox="0 0 21 20" fill="none" xmlns="http://www.w3.org/2000/svg">
<path d="M10.1237 5.2434C10.2168 5.35336 10.3538 5.41697 10.4979 5.41697C10.6424 5.41697 10.7793 5.3542 10.8728 5.24382C11.2916 4.7488 11.913 3.83964 11.913 2.79946C11.913 1.76013 11.292 0.851391 10.8732 0.355947C10.7797 0.245989 10.6432 0.182373 10.4987 0.182373C10.3546 0.182373 10.2173 0.245146 10.1242 0.355526C9.70497 0.850548 9.08441 1.7597 9.08398 2.79946C9.08441 3.83922 9.70455 4.74838 10.1237 5.2434Z" fill="white"/>
<path d="M10.5006 8.6505C10.5773 8.65387 12.4192 8.72718 13.5057 7.64108C14.2404 6.90591 14.4448 5.82403 14.4987 5.17776C14.5105 5.0341 14.4587 4.89212 14.3567 4.79017C14.2548 4.68821 14.1128 4.63639 13.9687 4.64861C13.3224 4.70254 12.2397 4.90644 11.5041 5.64118C10.6927 6.45344 10.5293 7.68868 10.4998 8.2924C10.4707 7.68868 10.3068 6.45344 9.49497 5.64118C8.75939 4.90602 7.6775 4.70212 7.03081 4.64861C6.88715 4.63639 6.74517 4.68863 6.64322 4.79059C6.54126 4.89296 6.48987 5.03452 6.50166 5.17818C6.55559 5.82445 6.75949 6.90634 7.49423 7.64108C8.58202 8.72718 10.4235 8.65387 10.5006 8.6505Z" fill="white"/>
<path d="M11.5041 9.53889C10.6927 10.3511 10.5293 11.586 10.4998 12.1901C10.4707 11.586 10.3068 10.3511 9.49497 9.53889C8.75939 8.80373 7.6775 8.59982 7.03081 8.54632C6.88715 8.53452 6.74517 8.58634 6.64322 8.68829C6.54126 8.79025 6.48987 8.93222 6.50166 9.07589C6.55559 9.72215 6.75949 10.8045 7.49423 11.5388C8.58076 12.6253 10.4218 12.5516 10.4993 12.5482C10.576 12.552 12.4179 12.6257 13.5044 11.5388C14.2396 10.8036 14.4435 9.72173 14.4974 9.07504C14.5092 8.93138 14.4574 8.7894 14.3555 8.68787C14.2535 8.58592 14.1115 8.5341 13.9674 8.54632C13.3216 8.59982 12.2397 8.80373 11.5041 9.53889Z" fill="white"/>
<path d="M11.5041 13.4376C10.6927 14.2498 10.5292 15.4842 10.4997 16.0888C10.4707 15.4842 10.3068 14.2498 9.49495 13.4376C8.75979 12.702 7.6779 12.4985 7.03163 12.445C6.88755 12.4332 6.74599 12.485 6.64404 12.5866C6.54209 12.6881 6.48984 12.8305 6.50164 12.9737C6.55557 13.6196 6.75905 14.7027 7.49421 15.437C8.23738 16.1806 9.33444 16.3807 9.97775 16.4321V19.2413C9.97775 19.5598 10.1985 19.8181 10.5174 19.8181C10.8359 19.8181 11.0571 19.5598 11.0571 19.2413V16.4292C11.7046 16.3736 12.7743 16.1671 13.5044 15.4375C14.2392 14.7027 14.4435 13.6208 14.4974 12.9741C14.5092 12.8305 14.4574 12.6881 14.3554 12.5866C14.2535 12.4846 14.1115 12.4328 13.9674 12.445C13.3216 12.4981 12.2397 12.702 11.5041 13.4376Z" fill="white"/>
</svg>
