<svg width="64" height="35" viewBox="0 0 64 35" fill="none" xmlns="http://www.w3.org/2000/svg">
<g clip-path="url(#clip0_1781_18)">
<path d="M9.50237 2.29029C9.75784 3.43556 10.1468 6.52529 8.40116 9.68306C7.48187 11.3456 5.68781 13.4008 4.57498 14.9622C2.32611 18.1161 0.386889 23.545 1.95452 28.2856C-0.847863 20.6595 -0.396927 12.4208 1.78808 6.1539C3.16992 2.19112 5.22139 -0.651657 7.69863 0.128065C8.13021 0.320565 8.55018 0.454731 9.0437 1.11973C9.31271 1.48334 9.39206 1.79251 9.50431 2.29029H9.50237Z" fill="#6D9127"/>
<path d="M7.77812 29.8492C7.84973 28.3928 8.04326 26.8858 9.05932 24.9589C11.4069 20.5139 16.5878 20.0647 15.6337 8.16278C16.1137 9.05722 18.6509 18.5558 16.4291 27.6578C16.1059 28.9858 15.7169 30.0067 14.8925 31.3483C14.3893 32.1669 13.1855 33.4794 12.3978 34.0064C11.7107 34.4633 10.8089 34.685 9.79862 34.2864C9.53348 34.1717 8.94514 33.8081 8.5542 33.1567C8.21745 32.5967 7.71038 31.2472 7.77812 29.8511V29.8492Z" fill="#6D9127"/>
<path d="M2.85663 19.8742C2.64761 21.7214 2.8605 26.0906 7.01182 29.3106C6.99053 29.4486 6.60152 32.3944 8.81556 34.6403C8.81556 34.6403 7.73951 34.4711 6.19316 33.6389C-0.172193 30.2108 2.50246 21.4861 2.85663 19.8742Z" fill="#6D9127"/>
<path d="M13.77 18.4547C14.1068 16.4792 14.2481 11.6881 9.75806 8.21917C9.83741 7.98389 10.898 5.41917 10.1432 2.09417C10.3483 2.68139 10.8515 4.46056 13.0056 5.86055C15.9957 7.80305 15.0338 13.9767 13.772 18.4547H13.77Z" fill="#6D9127"/>
<path d="M27.5283 13.3817V0.385H25.3646C25.1749 0.931389 24.9214 1.34361 24.5982 1.62361C23.9537 2.18167 23.2105 2.45972 22.3667 2.45972C22.3783 2.31583 22.388 2.17778 22.3996 2.04944C22.4112 1.92111 22.4712 1.72083 22.5835 1.44667C22.6938 1.17444 22.8351 0.943056 23.0073 0.7525C23.1795 0.563889 23.4505 0.390833 23.824 0.233333C24.1956 0.0777778 24.6311 0 25.1304 0H33.4891C33.9788 0 34.4026 0.0719444 34.7626 0.217778C35.1226 0.363611 35.3955 0.526944 35.5793 0.711667C35.7632 0.896389 35.9103 1.12194 36.0206 1.38833C36.1309 1.65667 36.1986 1.85889 36.2199 1.99889C36.2412 2.13889 36.2586 2.2925 36.2702 2.45972C35.4264 2.45972 34.6774 2.18167 34.0214 1.62361C33.8762 1.50111 33.7407 1.33583 33.613 1.12972C33.4853 0.923611 33.3943 0.748611 33.3382 0.602778L33.255 0.385H31.1067V13.3817H27.5263H27.5283Z" fill="#095B89"/>
<path d="M46.8336 2.37222C46.8336 2.37222 45.7401 3.02167 46.2394 3.89667C46.6691 4.64722 45.6975 5.21694 45.6975 5.21694C46.0149 5.22278 48.5715 4.37694 46.8336 2.37417V2.37222Z" fill="#095B89"/>
<path d="M34.8035 4.18833H38.051V10.4883C38.051 12.1839 38.7109 13.0317 40.0328 13.0317C40.4992 13.0317 41.0701 12.8081 41.7475 12.3628V4.18833H44.995V13.3817H41.7475V12.7789C40.8592 13.3914 39.9205 13.6986 38.9335 13.6986C37.6349 13.6986 36.6208 13.4089 35.895 12.8294C35.1673 12.25 34.8035 11.2564 34.8035 9.8525V4.18833Z" fill="#095B89"/>
<path d="M41.0159 25.1611C41.5597 25.1611 41.9739 25.3808 42.2564 25.8222C42.539 26.2636 42.6803 26.7731 42.6803 27.3525C42.6803 27.7997 42.6357 28.1283 42.5467 28.3403C42.0358 28.1847 41.5694 27.8833 41.1475 27.4361C40.7256 26.9908 40.4198 26.3997 40.232 25.6628C39.9205 25.7736 39.5934 25.9719 39.2489 26.2558C38.9044 26.5397 38.6334 26.8003 38.4322 27.0336L38.1496 27.3856V34.6811H34.9021V25.445H38.1496V26.7672C39.0824 25.6958 40.0366 25.1611 41.0139 25.1611H41.0159Z" fill="#095B89"/>
<path d="M43.2627 25.4547H46.5102V31.7878C46.5102 33.4833 47.1702 34.3311 48.492 34.3311C48.9584 34.3311 49.5294 34.1075 50.2067 33.6622V25.4567H53.4542V34.6539H50.2067V34.0822C49.3184 34.6947 48.3798 35.0019 47.3927 35.0019C46.0941 35.0019 45.08 34.7122 44.3542 34.1328C43.6265 33.5533 43.2627 32.5597 43.2627 31.1558V25.4586V25.4547ZM46.9089 24.5583C46.9302 23.6892 47.2476 22.9347 47.8572 22.2989C48.4668 21.6631 49.2332 21.2392 50.1545 21.0272V22.8842C48.7107 23.0397 47.6288 23.5978 46.907 24.5564L46.9089 24.5583Z" fill="#095B89"/>
<path d="M63.7986 26.7031C63.7425 26.6253 63.6573 26.5339 63.5412 26.4269C63.4251 26.3219 63.1638 26.1761 62.7593 25.9914C62.3548 25.8067 61.9136 25.7153 61.4356 25.7153C60.824 25.7153 60.2802 25.8417 59.8041 26.0925C59.326 26.3433 58.9486 26.6719 58.6719 27.0803C58.3951 27.4867 58.1861 27.9242 58.0468 28.3928C57.9074 28.8614 57.8377 29.3358 57.8377 29.8142C57.8377 30.4947 57.9713 31.1519 58.2384 31.7878C58.5054 32.4236 58.937 32.97 59.537 33.4269C60.1369 33.8839 60.8356 34.1133 61.6349 34.1133C62.0239 34.1133 62.4071 34.0297 62.7845 33.8625C63.1619 33.6953 63.4348 33.5456 63.6012 33.4114C63.7677 33.2772 63.9012 33.1547 64.0018 33.0439C63.0574 34.3486 61.7646 35.0019 60.1215 35.0019C58.6893 35.0019 57.3984 34.5081 56.2508 33.5222C55.1012 32.5344 54.5264 31.2997 54.5264 29.8161C54.5264 28.8906 54.807 28.0428 55.3682 27.2728C55.9295 26.5028 56.634 25.9156 57.4836 25.5072C58.3332 25.1008 59.208 24.8967 60.106 24.8967C61.6717 24.8967 62.9026 25.4994 63.8025 26.7031H63.7986Z" fill="#095B89"/>
<path d="M27.5283 34.65V21.6533H25.3646C25.1749 22.1997 24.9214 22.6119 24.5982 22.8919C23.9537 23.45 23.2105 23.7281 22.3667 23.7281C22.3783 23.5842 22.388 23.4461 22.3996 23.3178C22.4112 23.1894 22.4712 22.9892 22.5835 22.715C22.6938 22.4428 22.8351 22.2114 23.0073 22.0208C23.1795 21.8322 23.4505 21.6592 23.824 21.5017C24.1956 21.3461 24.6311 21.2683 25.1304 21.2683H33.4891C33.9768 21.2683 34.4026 21.3403 34.7626 21.4861C35.1226 21.6319 35.3955 21.7953 35.5793 21.98C35.7632 22.1647 35.9103 22.3903 36.0206 22.6567C36.1309 22.925 36.1986 23.1272 36.2199 23.2672C36.2412 23.4072 36.2586 23.5608 36.2702 23.7281C35.4264 23.7281 34.6774 23.45 34.0214 22.8919C33.8762 22.7694 33.7407 22.6042 33.613 22.3981C33.4853 22.1919 33.3943 22.0169 33.3382 21.8711L33.255 21.6533H31.1067V34.65H27.5263H27.5283Z" fill="#095B89"/>
</g>
<defs>
<clipPath id="clip0_1781_18">
<rect width="64" height="35" fill="white"/>
</clipPath>
</defs>
</svg>
