<svg width="45" height="45" viewBox="11 6 45 45" fill="none" xmlns="http://www.w3.org/2000/svg">
<g filter="url(#filter0_d_758_8882)">
<rect x="11" y="6" width="45" height="45" rx="22.5" fill="#E9F2DA" shape-rendering="crispEdges"/>
<g clip-path="url(#clip0_758_8882)">
<path d="M42.315 31.7841C41.0293 31.7841 39.7669 31.583 38.5706 31.1877C37.9844 30.9877 37.2638 31.1712 36.906 31.5386L34.5448 33.3211C31.8064 31.8593 30.1196 30.1731 28.6778 27.4553L30.4079 25.1556C30.8573 24.7067 31.0186 24.051 30.8254 23.4358C30.4284 22.2332 30.2267 20.9714 30.2267 19.6851C30.2267 18.7559 29.4708 18 28.5416 18H24.6851C23.7559 18 23 18.7559 23 19.6851C23 30.3355 31.6646 39 42.315 39C43.2441 39 44.0001 38.2441 44.0001 37.3149V33.4691C44 32.54 43.2441 31.7841 42.315 31.7841Z" fill="#6D9127"/>
</g>
</g>
<defs>
<filter id="filter0_d_758_8882" x="0.5" y="0.5" width="66" height="66" filterUnits="userSpaceOnUse" color-interpolation-filters="sRGB">
<feFlood flood-opacity="0" result="BackgroundImageFix"/>
<feColorMatrix in="SourceAlpha" type="matrix" values="0 0 0 0 0 0 0 0 0 0 0 0 0 0 0 0 0 0 127 0" result="hardAlpha"/>
<feOffset dy="5"/>
<feGaussianBlur stdDeviation="5.25"/>
<feComposite in2="hardAlpha" operator="out"/>
<feColorMatrix type="matrix" values="0 0 0 0 0 0 0 0 0 0 0 0 0 0 0 0 0 0 0.12 0"/>
<feBlend mode="normal" in2="BackgroundImageFix" result="effect1_dropShadow_758_8882"/>
<feBlend mode="normal" in="SourceGraphic" in2="effect1_dropShadow_758_8882" result="shape"/>
</filter>
<clipPath id="clip0_758_8882">
<rect width="21" height="21" fill="white" transform="translate(23 18)"/>
</clipPath>
</defs>
</svg>
