<svg width="45" height="45" viewBox="4 0 45 45" fill="none" xmlns="http://www.w3.org/2000/svg">
<g filter="url(#filter0_d_758_8887)">
<rect x="4" width="45" height="45" rx="22.5" fill="#E9F2DA" shape-rendering="crispEdges"/>
<path d="M26.5 10.688C19.8688 10.688 14.7269 15.5633 14.7269 22.1453C14.7269 25.5884 16.1338 28.5649 18.4237 30.6202C18.615 30.7914 18.7327 31.0336 18.7386 31.2934L18.8034 33.3959C18.8081 33.5506 18.8506 33.7018 18.9272 33.8361C19.0038 33.9705 19.1121 34.0839 19.2426 34.1664C19.3731 34.2489 19.5218 34.298 19.6756 34.3094C19.8295 34.3208 19.9838 34.294 20.1249 34.2316L22.4619 33.1981C22.6591 33.1095 22.8828 33.0947 23.0917 33.1508C24.166 33.4461 25.308 33.6056 26.5 33.6056C33.1313 33.6056 38.2732 28.7303 38.2732 22.1483C38.2732 15.5663 33.1313 10.688 26.5 10.688Z" fill="#6D9127"/>
<path d="M19.432 25.4968L22.8904 19.9926C23.0205 19.7854 23.192 19.6075 23.3941 19.4701C23.5962 19.3327 23.8245 19.2389 24.0645 19.1945C24.3046 19.1501 24.5512 19.1561 24.7889 19.2121C25.0265 19.2682 25.2499 19.3731 25.4451 19.5201L28.1971 21.5901C28.32 21.6824 28.4694 21.732 28.6229 21.7315C28.7764 21.731 28.9255 21.6803 29.0477 21.5872L32.7621 18.7583C33.2566 18.3803 33.9041 18.9768 33.5745 19.5054L30.1132 25.0066C29.9831 25.2139 29.8116 25.3918 29.6095 25.5292C29.4074 25.6665 29.1791 25.7604 28.939 25.8048C28.699 25.8492 28.4523 25.8432 28.2147 25.7871C27.9771 25.7311 27.7536 25.6262 27.5584 25.4791L24.8065 23.4091C24.6836 23.3168 24.5341 23.2672 24.3807 23.2677C24.2272 23.2683 24.0781 23.3189 23.9558 23.4121L20.2414 26.241C19.747 26.6189 19.0994 26.0254 19.432 25.4968Z" fill="#E9F2DA"/>
</g>
<defs>
<filter id="filter0_d_758_8887" x="0" y="0" width="53" height="53" filterUnits="userSpaceOnUse" color-interpolation-filters="sRGB">
<feFlood flood-opacity="0" result="BackgroundImageFix"/>
<feColorMatrix in="SourceAlpha" type="matrix" values="0 0 0 0 0 0 0 0 0 0 0 0 0 0 0 0 0 0 127 0" result="hardAlpha"/>
<feOffset dy="4"/>
<feGaussianBlur stdDeviation="2"/>
<feComposite in2="hardAlpha" operator="out"/>
<feColorMatrix type="matrix" values="0 0 0 0 0 0 0 0 0 0 0 0 0 0 0 0 0 0 0.12 0"/>
<feBlend mode="normal" in2="BackgroundImageFix" result="effect1_dropShadow_758_8887"/>
<feBlend mode="normal" in="SourceGraphic" in2="effect1_dropShadow_758_8887" result="shape"/>
</filter>
</defs>
</svg>
