<svg width="20" height="20" viewBox="0 0 20 20" fill="none" xmlns="http://www.w3.org/2000/svg">
<path d="M9.62374 5.2434C9.71685 5.35336 9.85377 5.41697 9.99785 5.41697C10.1424 5.41697 10.2793 5.3542 10.3728 5.24382C10.7916 4.7488 11.413 3.83964 11.413 2.79946C11.413 1.76013 10.792 0.851391 10.3732 0.355947C10.2797 0.245989 10.1432 0.182373 9.9987 0.182373C9.85461 0.182373 9.71727 0.245146 9.62416 0.355526C9.20497 0.850548 8.58441 1.7597 8.58398 2.79946C8.58441 3.83922 9.20455 4.74838 9.62374 5.2434Z" fill="white"/>
<path d="M10.0006 8.6505C10.0773 8.65387 11.9192 8.72718 13.0057 7.64108C13.7404 6.90591 13.9448 5.82403 13.9987 5.17776C14.0105 5.0341 13.9587 4.89212 13.8567 4.79017C13.7548 4.68821 13.6128 4.63639 13.4687 4.64861C12.8224 4.70254 11.7397 4.90644 11.0041 5.64118C10.1927 6.45344 10.0293 7.68868 9.99976 8.2924C9.97069 7.68868 9.80681 6.45344 8.99497 5.64118C8.25939 4.90602 7.1775 4.70212 6.53081 4.64861C6.38715 4.63639 6.24517 4.68863 6.14322 4.79059C6.04126 4.89296 5.98987 5.03452 6.00166 5.17818C6.05559 5.82445 6.25949 6.90634 6.99423 7.64108C8.08202 8.72718 9.92351 8.65387 10.0006 8.6505Z" fill="white"/>
<path d="M11.0041 9.53889C10.1927 10.3511 10.0293 11.586 9.99976 12.1901C9.97069 11.586 9.80681 10.3511 8.99497 9.53889C8.25939 8.80373 7.1775 8.59982 6.53081 8.54632C6.38715 8.53452 6.24517 8.58634 6.14322 8.68829C6.04126 8.79025 5.98987 8.93222 6.00166 9.07589C6.05559 9.72215 6.25949 10.8045 6.99423 11.5388C8.08076 12.6253 9.92182 12.5516 9.99934 12.5482C10.076 12.552 11.9179 12.6257 13.0044 11.5388C13.7396 10.8036 13.9435 9.72173 13.9974 9.07504C14.0092 8.93138 13.9574 8.7894 13.8555 8.68787C13.7535 8.58592 13.6115 8.5341 13.4674 8.54632C12.8216 8.59982 11.7397 8.80373 11.0041 9.53889Z" fill="white"/>
<path d="M11.0041 13.4376C10.1927 14.2498 10.0292 15.4842 9.99974 16.0888C9.97067 15.4842 9.80679 14.2498 8.99495 13.4376C8.25979 12.702 7.1779 12.4985 6.53163 12.445C6.38755 12.4332 6.24599 12.485 6.14404 12.5866C6.04209 12.6881 5.98984 12.8305 6.00164 12.9737C6.05557 13.6196 6.25905 14.7027 6.99421 15.437C7.73738 16.1806 8.83444 16.3807 9.47775 16.4321V19.2413C9.47775 19.5598 9.69851 19.8181 10.0174 19.8181C10.3359 19.8181 10.5571 19.5598 10.5571 19.2413V16.4292C11.2046 16.3736 12.2743 16.1671 13.0044 15.4375C13.7392 14.7027 13.9435 13.6208 13.9974 12.9741C14.0092 12.8305 13.9574 12.6881 13.8554 12.5866C13.7535 12.4846 13.6115 12.4328 13.4674 12.445C12.8216 12.4981 11.7397 12.702 11.0041 13.4376Z" fill="white"/>
</svg>
