<svg width="45" height="45" viewBox="11 6 45 45" fill="none" xmlns="http://www.w3.org/2000/svg">
<g filter="url(#filter0_d_758_8868)">
<rect x="11" y="6" width="45" height="45" rx="22.5" fill="#E9F2DA" shape-rendering="crispEdges"/>
<path d="M36.6072 29.3716L34.8484 31.1364C34.1352 31.8521 32.8803 31.8675 32.1516 31.1364L30.3927 29.3716L24.0757 35.7092C24.3108 35.8179 24.5701 35.8828 24.8457 35.8828H42.1543C42.4299 35.8828 42.6891 35.818 42.9242 35.7093L36.6072 29.3716Z" fill="#6D9127"/>
<path d="M42.1543 21.1172H24.8457C24.5701 21.1172 24.3108 21.1821 24.0757 21.2908L30.826 28.0634C30.8264 28.0639 30.827 28.064 30.8274 28.0644C30.8279 28.0649 30.8279 28.0655 30.8279 28.0655L33.0228 30.2676C33.2559 30.5007 33.7441 30.5007 33.9772 30.2676L36.1717 28.0658C36.1717 28.0658 36.1722 28.0649 36.1726 28.0644C36.1726 28.0644 36.1736 28.0639 36.1741 28.0634L42.9241 21.2908C42.6891 21.182 42.4299 21.1172 42.1543 21.1172Z" fill="#6D9127"/>
<path d="M23.1963 22.1512C23.0746 22.3973 23 22.6703 23 22.9629V34.0371C23 34.3296 23.0746 34.6027 23.1963 34.8487L29.5243 28.5002L23.1963 22.1512Z" fill="#6D9127"/>
<path d="M43.8037 22.1512L37.4758 28.5002L43.8037 34.8488C43.9254 34.6028 44 34.3297 44 34.0371V22.9629C44 22.6703 43.9254 22.3972 43.8037 22.1512Z" fill="#6D9127"/>
</g>
<defs>
<filter id="filter0_d_758_8868" x="0.5" y="0.5" width="66" height="66" filterUnits="userSpaceOnUse" color-interpolation-filters="sRGB">
<feFlood flood-opacity="0" result="BackgroundImageFix"/>
<feColorMatrix in="SourceAlpha" type="matrix" values="0 0 0 0 0 0 0 0 0 0 0 0 0 0 0 0 0 0 127 0" result="hardAlpha"/>
<feOffset dy="5"/>
<feGaussianBlur stdDeviation="5.25"/>
<feComposite in2="hardAlpha" operator="out"/>
<feColorMatrix type="matrix" values="0 0 0 0 0 0 0 0 0 0 0 0 0 0 0 0 0 0 0.12 0"/>
<feBlend mode="normal" in2="BackgroundImageFix" result="effect1_dropShadow_758_8868"/>
<feBlend mode="normal" in="SourceGraphic" in2="effect1_dropShadow_758_8868" result="shape"/>
</filter>
</defs>
</svg>
