<svg width="78" height="18" viewBox="0 0 78 18" fill="none" xmlns="http://www.w3.org/2000/svg">
<path d="M12.0545 13.0417C15.5643 9.50066 17.1337 5.14581 15.5599 3.31493C13.9861 1.48404 9.86495 2.87044 6.35512 6.41153C2.84528 9.95262 1.27584 14.3075 2.84967 16.1384C4.4235 17.9692 8.54462 16.5828 12.0545 13.0417Z" fill="#F9BE29"/>
<path opacity="0.6" d="M32.0545 13.0417C35.5643 9.50066 37.1337 5.14581 35.5599 3.31493C33.9861 1.48404 29.865 2.87044 26.3551 6.41153C22.8453 9.95262 21.2758 14.3075 22.8497 16.1384C24.4235 17.9692 28.5446 16.5828 32.0545 13.0417Z" fill="#CCCCCC"/>
<path opacity="0.6" d="M52.0545 13.0417C55.5643 9.50066 57.1337 5.14581 55.5599 3.31493C53.9861 1.48404 49.865 2.87044 46.3551 6.41153C42.8453 9.95262 41.2758 14.3075 42.8497 16.1384C44.4235 17.9692 48.5446 16.5828 52.0545 13.0417Z" fill="#CCCCCC"/>
<path opacity="0.6" d="M72.0545 13.0417C75.5643 9.50066 77.1337 5.14581 75.5599 3.31493C73.9861 1.48404 69.865 2.87044 66.3551 6.41153C62.8453 9.95262 61.2758 14.3075 62.8497 16.1384C64.4235 17.9692 68.5446 16.5828 72.0545 13.0417Z" fill="#CCCCCC"/>
</svg>
