<svg width="48" height="41" viewBox="0 0 48 41" fill="none" xmlns="http://www.w3.org/2000/svg">
<path d="M6.28767 38.4069C6.28767 38.4069 6.32772 38.3869 6.40782 38.3368C6.48791 38.2967 6.59805 38.2267 6.75825 38.1466C7.05862 37.9764 7.49914 37.7261 8.05983 37.4057C9.1812 36.7849 10.7531 35.8137 12.6154 34.6823C13.5465 34.1116 14.5477 33.5109 15.599 32.8501C16.6403 32.1793 17.7417 31.4684 18.863 30.7475C21.1158 29.3158 23.4386 27.6838 25.7314 26.1119C26.9029 25.3409 28.0342 24.4499 29.1556 23.5187C30.277 22.5876 31.3783 21.6164 32.4396 20.5951C33.5009 19.5539 34.5422 18.4725 35.5434 17.3712C36.044 16.8205 36.5446 16.2599 37.0252 15.6992C37.5058 15.1385 37.9764 14.5478 38.4469 13.967C40.2992 11.6342 42.0313 9.27133 43.5632 6.87841C44.3341 5.69696 45.065 4.52554 45.7559 3.38415C46.1063 2.81345 46.4267 2.23272 46.7571 1.67204C47.0775 1.10134 47.3879 0.54066 47.6882 0C47.6882 0 47.488 0.280351 47.1375 0.790974C46.9573 1.04128 46.7371 1.35166 46.4767 1.7121C46.2164 2.07254 45.9261 2.47303 45.5957 2.90355C44.9349 3.77462 44.1339 4.79587 43.2328 5.91724C42.7822 6.47793 42.3016 7.05862 41.811 7.64934C41.6909 7.79952 41.5607 7.94972 41.4306 8.0999C41.3004 8.25008 41.1702 8.39026 41.0401 8.54044C40.7798 8.84081 40.5095 9.13115 40.2391 9.44153C39.1678 10.653 38.0264 11.8845 36.885 13.096C35.7336 14.2874 34.5722 15.4188 33.4709 16.4801C32.9202 17.0108 32.3895 17.5214 31.8789 18.002C31.7488 18.1221 31.6286 18.2423 31.4984 18.3624C31.3783 18.4726 31.2481 18.5927 31.128 18.7028C30.8877 18.9231 30.6474 19.1333 30.4272 19.3436C29.516 20.1646 28.7551 20.8455 28.2044 21.3361C27.7539 21.7365 27.2433 22.2171 26.6626 22.7578C26.5124 22.8979 26.3622 23.0381 26.212 23.1783C26.0518 23.3185 25.8916 23.4586 25.7314 23.6088C25.401 23.9092 25.0506 24.2196 24.6801 24.55C23.9392 25.2108 23.1082 25.9317 22.1871 26.7026C21.7265 27.0931 21.2459 27.4936 20.7353 27.9141C20.2247 28.3146 19.694 28.7351 19.1333 29.1656C18.012 30.0267 16.7905 30.9378 15.4489 31.8889C15.1184 32.1292 14.768 32.3595 14.4176 32.5998C14.0672 32.8301 13.7067 33.0704 13.3463 33.3207C12.6154 33.8013 11.8545 34.3019 11.0735 34.8025C10.673 35.0528 10.2725 35.3031 9.86204 35.5634C9.45154 35.8237 9.03103 36.0841 8.61052 36.3244C7.75948 36.825 6.86839 37.3356 5.94726 37.8562C5.02614 38.3769 4.07496 38.9075 3.08375 39.4381C2.09254 39.9488 1.0613 40.4694 0 41C1.0613 40.5895 2.1226 40.1891 3.17389 39.7686C4.22517 39.328 5.26644 38.8875 6.2977 38.4369L6.28767 38.4069Z" fill="#9A9B37"/>
</svg>
