<svg width="67" height="50" viewBox="0 0 67 50" fill="none" xmlns="http://www.w3.org/2000/svg">
<path d="M9.40002 48.83C9.40002 48.83 9.64 48.8 10.06 48.71C10.48 48.62 11.07 48.49 11.8 48.33C12.53 48.16 13.39 47.97 14.34 47.75C14.81 47.64 15.31 47.51 15.82 47.38C16.33 47.25 16.86 47.11 17.39 46.98C18.46 46.7 19.57 46.41 20.67 46.12C20.94 46.05 21.22 45.97 21.49 45.9C21.76 45.82 22.03 45.74 22.3 45.67C22.84 45.51 23.37 45.36 23.89 45.21C24.92 44.91 25.9 44.61 26.78 44.34C27.22 44.2 27.63 44.07 28.02 43.95C28.4 43.82 28.76 43.69 29.07 43.58C29.07 43.58 28.89 43.58 29.55 43.19C29.88 43 30.42 42.71 31.28 42.28C31.71 42.06 32.23 41.81 32.84 41.52C33.15 41.37 33.48 41.22 33.83 41.05C34.01 40.97 34.19 40.88 34.38 40.79C34.57 40.7 34.77 40.6 34.97 40.5C35.73 40.11 36.84 39.53 38.19 38.77C38.86 38.39 39.59 37.97 40.37 37.5C41.15 37.03 41.97 36.49 42.82 35.92C43.68 35.35 44.56 34.73 45.47 34.08C45.92 33.75 46.38 33.42 46.84 33.06C47.3 32.7 47.76 32.33 48.23 31.96C49.16 31.2 50.1 30.41 51.03 29.58C51.49 29.16 51.96 28.74 52.42 28.3C52.88 27.85 53.33 27.4 53.78 26.94C54.69 26.02 55.57 25.06 56.43 24.08C56.86 23.59 57.28 23.09 57.69 22.58C58.1 22.07 58.5 21.54 58.89 21.01C59.67 19.95 60.41 18.86 61.11 17.75C61.46 17.2 61.79 16.64 62.11 16.08C62.43 15.52 62.74 14.95 63.03 14.37C65.38 9.72 66.84 4.87 67 0C67 0 66.97 0.0999768 66.91 0.319977C66.86 0.529977 66.78 0.849979 66.66 1.25998C66.43 2.07998 66.08 3.28999 65.53 4.76999C64.98 6.24999 64.24 8.02998 63.24 10.04C62.99 10.54 62.73 11.06 62.44 11.59C62.3 11.85 62.15 12.12 62 12.39C61.85 12.66 61.69 12.93 61.54 13.2C60.9 14.29 60.19 15.42 59.4 16.6C59.02 17.19 58.61 17.78 58.18 18.38C57.75 18.98 57.3 19.6 56.83 20.19C55.88 21.39 54.85 22.61 53.73 23.85C53.17 24.47 52.59 25.08 51.99 25.7C51.39 26.31 50.77 26.91 50.12 27.51C48.84 28.72 47.48 29.93 46.04 31.11C40.3 35.79 33.33 40.02 25.73 42.94C25.24 43.13 24.78 43.33 24.39 43.53C24.39 43.53 24.37 43.53 24.37 43.54C23.85 43.81 23.26 44.09 22.62 44.35C21.98 44.61 21.29 44.86 20.56 45.06C19.22 45.46 17.53 45.92 15.67 46.39C14.74 46.63 13.77 46.84 12.79 47.06C11.8 47.28 10.8 47.49 9.81 47.7C9.31 47.8 8.82002 47.9 8.33002 48C7.84002 48.1 7.36001 48.18 6.89001 48.26C5.94001 48.42 5.03002 48.57 4.18002 48.7C3.33002 48.83 2.54002 48.94 1.83002 49.03C1.65002 49.05 1.48001 49.07 1.32001 49.09C1.16001 49.1 0.999996 49.12 0.839996 49.13C0.529996 49.16 0.25 49.18 0 49.19C0.39 49.19 0.780013 49.19 1.17001 49.19C1.56001 49.19 1.95 49.17 2.34 49.16C3.12 49.13 3.90002 49.11 4.68002 49.08C5.46002 49.05 6.24002 49.02 7.02002 48.99C7.41002 48.97 7.8 48.96 8.19 48.93C8.58 48.9 8.97001 48.88 9.35001 48.85L9.40002 48.83Z" fill="#959636"/>
</svg>
