<svg width="184" height="69" viewBox="0 0 184 69" fill="none" xmlns="http://www.w3.org/2000/svg">
<path d="M48.8142 56.9601C46.8657 60.7582 41.3928 62.1322 37.3925 59.8994C32.925 57.4051 32.3674 52.0046 35.7304 48.5364C35.8531 48.4095 36.1072 48.5813 35.9909 48.7179C33.1597 52.0671 33.403 57.0733 37.7456 59.349C41.7803 61.4628 45.8258 59.9775 48.3276 56.925C48.2049 56.8781 48.2135 56.6986 48.3707 56.6947C48.4202 56.6927 48.4697 56.6927 48.5192 56.6908C48.7044 56.4507 48.8831 56.2028 49.0489 55.9471C49.1005 55.8671 49.2469 55.9198 49.2168 56.0115C49.1414 56.2438 49.0467 56.4643 48.9477 56.6829C67.8402 56.1696 86.8297 56.8449 105.727 57.0382C124.845 57.2333 143.968 57.3856 163.082 57.8423C163.164 57.8442 163.164 57.9555 163.082 57.9574C143.964 58.055 124.845 57.8462 105.727 57.6822C86.7845 57.5144 67.7369 57.8345 48.8142 56.9601Z" fill="#9DBED0"/>
<path d="M150.952 22.9866C142.538 15.1328 128.5 20.5157 129.736 31.6641C129.758 31.8631 129.473 31.9939 129.299 31.8924C122.407 27.8582 115.04 31.9724 113.483 38.6981C113.44 38.8816 113.113 38.8406 113.124 38.6532C113.343 34.539 116.646 30.9517 121.103 30.0246C123.419 29.5425 125.439 29.9368 127.65 30.5125C129.581 31.0141 128.629 31.1215 128.976 29.8607C129.265 28.8145 129.194 27.7489 129.564 26.6774C132.49 18.2458 144.87 15.855 150.993 22.9495C151.014 22.9749 150.978 23.01 150.952 22.9866Z" fill="#9DBED0"/>
<path d="M108.619 37.382C106.462 36.4159 104.884 36.937 103.885 38.9492C103.762 39.1327 103.465 39.0898 103.394 38.8907C100.771 31.4624 94.4652 24.6489 85.2504 24.4556C75.6006 24.2526 68.9264 32.5846 72.9568 40.6902C73.0537 40.8834 72.7781 41.0356 72.6403 40.858C72.1515 40.2276 71.7791 39.5582 71.4906 38.8673C69.3139 38.514 67.7379 39.6011 66.6162 41.1625C66.4698 41.3655 66.1296 41.2367 66.1877 40.9986C66.6679 38.9727 69.5206 38.1256 71.4604 38.799C69.9985 35.1999 71.1332 30.9881 73.8933 28.0097C77.8376 23.753 84.7057 22.9001 90.2992 24.5825C96.1166 26.3312 100.433 30.8554 102.771 35.8616C103.407 37.22 103.161 37.8602 104.354 37.5284C105.34 37.2532 105.936 36.3827 107.144 36.2188C109.267 35.9299 110.875 36.9038 112.042 38.4301C112.053 38.4437 112.027 38.4633 112.014 38.4496C111.332 37.3683 110.199 37.0131 108.619 37.382Z" fill="#9DBED0"/>
<path d="M66.0863 42.3198C62.762 40.8443 58.9728 39.4995 55.261 40.571C50.7203 41.8806 49.8699 45.9383 52.63 49.1274C52.7183 49.2289 52.643 49.4221 52.475 49.3694C50.8151 48.862 50.0292 47.6519 49.8699 46.2818C48.675 43.8402 45.5854 42.4603 42.8059 43.4654C42.8404 43.5357 42.8102 43.6333 42.6983 43.6352C42.5949 43.6372 42.4894 43.6352 42.3861 43.6372C42.2612 43.6938 42.1342 43.7465 42.0093 43.8148C38.6721 45.6416 39.0252 49.3363 41.2837 51.7506C41.3978 51.8716 41.2493 52.0902 41.0835 51.9867C37.8712 49.9862 38.0865 45.6924 41.0878 43.6469C36.3792 43.7231 31.634 43.6918 26.9383 43.524C26.8565 43.5201 26.8565 43.4127 26.9383 43.4088C31.7761 43.2644 36.6634 43.2625 41.5076 43.3796C44.7307 41.5586 48.5049 42.9599 49.8462 45.9012C49.7881 44.1954 50.6321 42.3256 51.954 41.2775C56.1803 37.9303 61.9891 39.9621 66.1832 42.1656C66.2951 42.2241 66.1982 42.3686 66.0863 42.3198Z" fill="#9DBED0"/>
<path d="M111.774 52.6806C111.619 52.6766 111.619 52.4597 111.774 52.4577C135.591 52.1392 159.424 52.7144 183.237 52.995C183.325 52.995 183.325 53.1224 183.237 53.1224C159.422 53.0766 135.582 53.3234 111.774 52.6806Z" fill="#9DBED0"/>
<path d="M77.3088 68.8846C77.3885 68.8885 77.3906 69.002 77.3088 69C59.8544 68.4462 42.3226 68.1996 24.9026 67.041C24.7713 67.0332 24.7692 66.8532 24.9026 66.8532C42.3699 67.0195 59.863 68.1096 77.3088 68.8846Z" fill="#9DBED0"/>
<path d="M3.29083 52.0064C2.0098 51.3311 0.879464 50.3514 0.349828 49.112C-0.603952 46.8812 0.515609 45.5813 2.24877 44.1995C2.92482 43.6589 3.52981 44.8201 2.75043 44.9802C2.14974 45.8253 1.5469 46.6684 0.946213 47.5135C1.17443 48.1557 1.40264 48.7978 1.62871 49.438C2.13467 50.2011 3.10783 50.8783 3.9518 51.3058C4.39102 51.5283 4.8496 51.7 5.31895 51.8405C6.38038 51.8405 7.44396 51.9752 8.46448 52.2211C8.72715 52.2133 8.98766 52.2172 9.25033 52.1938C12.1806 51.9206 14.5316 50.5856 16.465 48.6573C16.3251 48.6221 16.3294 48.427 16.493 48.4191C16.5662 48.4152 16.6394 48.4172 16.7126 48.4133C16.7255 48.3996 16.7406 48.3879 16.7535 48.3743C16.788 48.3391 16.8267 48.3723 16.8289 48.4094C22.3277 48.1596 27.8501 48.3821 33.351 48.4875C33.4759 48.4894 33.4759 48.6612 33.351 48.6631C27.8049 48.749 22.2351 48.9539 16.6933 48.6729C15.4703 50.8959 13.1257 52.348 10.5163 52.8984C7.99729 53.2282 5.60746 53.0214 3.29083 52.0064Z" fill="#9DBED0"/>
<path d="M164.612 32.1469C164.552 32.3187 164.3 32.4006 164.153 32.2562C158.568 26.8167 150.652 29.8458 148.54 36.3412C148.475 36.5403 148.103 36.5129 148.124 36.2904C148.404 33.2477 150.529 30.6714 153.655 29.4691C157.036 28.1673 159.921 29.1256 162.961 30.5504C164.748 31.3896 164.196 31.0695 165.297 29.5413C166.209 28.2747 167.514 27.2324 169.023 26.5825C172.18 25.2221 175.603 25.7569 178.436 27.4393C178.503 27.4783 178.443 27.5759 178.372 27.5388C172.987 24.5742 166.53 26.7152 164.612 32.1469Z" fill="#9DBED0"/>
<path d="M91.4003 1.57885C86.8015 4.10245 85.6841 8.88031 88.793 12.8228C88.8921 12.9477 88.6832 13.0746 88.5691 12.9809C84.881 9.91473 86.2288 4.65284 89.8889 2.0863C94.9269 -1.4483 101.53 0.0525847 106.635 2.57423C106.648 2.58009 106.637 2.59766 106.624 2.5918C102.027 0.42732 96.1886 -1.05015 91.4003 1.57885Z" fill="#9DBED0"/>
<path d="M90.1663 14.4522C87.8539 13.0508 84.816 12.8693 82.4585 14.3253C80.0558 15.8087 79.6359 18.3498 79.6489 20.7778C79.6489 20.9242 79.4034 21.0003 79.3281 20.8559C78.0642 18.3986 79.4615 15.3929 81.8384 13.9057C84.4242 12.2897 87.8625 12.6156 90.261 14.339C90.3342 14.3897 90.2416 14.499 90.1663 14.4522Z" fill="#9DBED0"/>
<path d="M53.3003 30.9899C48.9297 27.9354 43.4998 29.2509 41.2715 33.7867C41.1703 33.9897 40.8344 33.9995 40.6794 33.855C35.4412 29.0225 29.3934 32.0301 26.9476 37.2549C27.5181 37.4443 28.0779 37.6843 28.6011 38.0142C28.6377 38.0376 28.6054 38.0864 28.5666 38.0688C27.966 37.8014 27.3868 37.6199 26.8292 37.5067C26.799 37.577 26.7603 37.6414 26.7323 37.7117C26.6354 37.9439 26.2436 37.9224 26.2371 37.6512C26.235 37.5672 26.25 37.4911 26.2522 37.4091C22.9753 37.0227 20.564 39.2067 19.5499 42.2885C19.4831 42.4895 19.171 42.5344 19.0526 42.347C17.3474 39.6556 13.0371 38.7402 10.3544 40.7486C8.06149 42.4661 7.8225 45.0775 8.42749 47.5738C8.48778 47.8236 8.13469 47.9563 7.97752 47.7456C4.42938 43.0087 10.6149 37.4814 16.0728 39.4233C16.0556 39.4175 18.9126 41.0433 19.0116 41.3887C19.1301 41.1038 19.9396 39.1403 20.2216 38.83C21.8041 37.0793 24.1013 36.5601 26.2716 37.0559C26.6548 31.8369 33.7511 29.2587 38.6427 31.5442C40.3802 32.3561 40.2338 33.0782 41.7064 31.6613C42.7743 30.6327 43.7733 29.7895 45.2524 29.2645C48.1891 28.2223 51.1731 28.9835 53.5414 30.7049C53.718 30.8318 53.4812 31.1148 53.3003 30.9899Z" fill="#9DBED0"/>
<path d="M130.829 47.6167C130.917 47.6187 130.917 47.7446 130.829 47.7446C119.106 47.8005 107.365 48.0283 95.6465 47.6287C95.5281 47.6247 95.5281 47.4608 95.6465 47.4588C107.37 47.1511 119.108 47.4708 130.829 47.6167Z" fill="#9DBED0"/>
<path d="M66.8832 61.8669C84.9577 61.7107 103.06 62.2483 121.122 62.7899C121.143 62.7899 121.143 62.8216 121.122 62.8216C103.049 62.786 84.9383 62.7465 66.8832 62.0151C66.782 62.0092 66.7799 61.8669 66.8832 61.8669Z" fill="#9DBED0"/>
<path d="M28.3972 59.2441C28.5134 59.2521 28.5177 59.4131 28.3972 59.4131C21.7659 59.4588 15.0335 59.3594 8.43025 58.7691C8.286 58.7572 8.27954 58.5605 8.43025 58.5585C15.0615 58.4055 21.7853 58.7592 28.3972 59.2441Z" fill="#9DBED0"/>
</svg>
