<svg width="249" height="217" viewBox="0 0 249 217" fill="none" xmlns="http://www.w3.org/2000/svg">
<path d="M73.1594 123.413H61.9023L63.0669 54.9005H71.9948L73.1594 123.413Z" fill="#BAD5E0"/>
<path d="M67.5308 54.9005H63.0669L61.9023 123.413H67.5308V54.9005Z" fill="#A5C7D3"/>
<path d="M72.5486 53.5936H62.5078V54.9005H72.5486V53.5936Z" fill="#BAD5E0"/>
<path d="M62.8711 66.4681H72.1872L72.0967 61.5383H62.9617L62.8711 66.4681Z" fill="#86C552"/>
<path d="M62.7305 75.202H72.3313L72.2536 70.2722H62.8081L62.7305 75.202Z" fill="#86C552"/>
<path d="M74.089 123.413H60.9688V125.367H74.089V123.413Z" fill="#B7CBD8"/>
<path d="M89.1125 123.413H77.8555L79.0329 54.9005H87.948L89.1125 123.413Z" fill="#BAD5E0"/>
<path d="M83.484 54.9005H79.0329L77.8555 123.413H83.484V54.9005Z" fill="#A5C7D3"/>
<path d="M88.5056 53.5936H78.4648V54.9005H88.5056V53.5936Z" fill="#BAD5E0"/>
<path d="M78.8281 66.4681H88.1443L88.0666 61.5383H78.9187L78.8281 66.4681Z" fill="#86C552"/>
<path d="M78.6797 75.202H88.2934L88.2029 70.2722H78.7573L78.6797 75.202Z" fill="#86C552"/>
<path d="M90.0421 123.413H76.9219V125.367H90.0421V123.413Z" fill="#B7CBD8"/>
<path d="M123.894 89.4739H68.5273V92.7475H123.894V89.4739Z" fill="#BCDA7F"/>
<path d="M79.3154 90.5867H70.2969V92.7475H79.3154V90.5867Z" fill="#97CB63"/>
<path d="M90.0459 90.5867H81.0273V92.7475H90.0459V90.5867Z" fill="#97CB63"/>
<path d="M100.784 90.5867H91.7656V92.7475H100.784V90.5867Z" fill="#97CB63"/>
<path d="M111.511 90.5867H102.492V92.7475H111.511V90.5867Z" fill="#97CB63"/>
<path d="M122.249 90.5867H113.23V92.7475H122.249V90.5867Z" fill="#97CB63"/>
<path d="M163.678 75.7196C163.73 75.6031 163.781 75.4996 163.82 75.3832C163.846 75.4996 163.885 75.6031 163.911 75.7196H235.166C234.921 72.019 231.854 69.1077 228.089 69.1077C226.859 69.1077 225.708 69.4182 224.699 69.9746C223.444 65.3812 219.251 62.0041 214.257 62.0041C212.277 62.0041 210.44 62.5346 208.848 63.4662C206.739 57.1132 200.748 52.5327 193.697 52.5327C186.645 52.5327 181.055 56.8156 178.765 62.8193C177.445 62.25 175.983 61.9265 174.456 61.9265C173.253 61.9265 172.088 62.1335 171.001 62.4958C169.682 59.9339 167.016 58.1742 163.937 58.1742C162.656 58.1742 161.439 58.4847 160.365 59.0281C157.584 56.2333 153.728 54.5124 149.484 54.5124C143.325 54.5124 138.007 58.1483 135.561 63.3886C134.85 63.2333 134.112 63.1428 133.362 63.1428C128.626 63.1428 124.679 66.4164 123.605 70.8286C122.842 70.4922 122.001 70.2981 121.108 70.2981C117.938 70.2981 115.337 72.666 114.949 75.7325H163.691L163.678 75.7196Z" fill="white"/>
<mask id="mask0_390_19028" style="mask-type:luminance" maskUnits="userSpaceOnUse" x="0" y="-33" width="249" height="250">
<path d="M124.5 216.769C193.259 216.769 249 161.028 249 92.2687C249 23.5092 193.259 -32.2313 124.5 -32.2313C55.7406 -32.2313 0 23.5092 0 92.2687C0 161.028 55.7406 216.769 124.5 216.769Z" fill="white"/>
</mask>
<g mask="url(#mask0_390_19028)">
<path d="M277.774 177.11C277.774 177.11 224.996 152.927 101.997 149.434C98.1019 149.317 94.1296 149.227 90.0797 149.162C64.7061 148.735 36.5248 149.188 5.40625 150.87L24.0127 219.356L213.35 217.17L277.774 177.11Z" fill="url(#paint0_linear_390_19028)"/>
<mask id="mask1_390_19028" style="mask-type:luminance" maskUnits="userSpaceOnUse" x="5" y="149" width="273" height="71">
<path d="M277.774 177.11C277.774 177.11 224.996 152.927 101.997 149.434C98.1019 149.317 94.1296 149.227 90.0797 149.162C64.7061 148.735 36.5248 149.188 5.40625 150.87L24.0127 219.356L213.35 217.17L277.774 177.11Z" fill="white"/>
</mask>
<g mask="url(#mask1_390_19028)">
<g style="mix-blend-mode:multiply" opacity="0.3">
<path d="M255.574 183.166C254.63 181.911 242.751 167.95 205.862 157.456L199.082 157.107C199.082 157.107 230.848 166.526 247.19 186.427L255.587 183.166H255.574Z" fill="#8CB248"/>
</g>
<g style="mix-blend-mode:multiply" opacity="0.3">
<path d="M111.326 146.988C112.18 146.923 117.563 150.559 120.616 155.631C122.065 158.038 123.308 161.571 122.467 165.556L110.938 164.055C110.938 164.055 113.784 153.225 106.254 147.726L111.326 147.001V146.988Z" fill="#8CB248"/>
</g>
<g style="mix-blend-mode:multiply" opacity="0.3">
<path d="M136.543 150.236C144.268 152.461 154.101 166.138 154.218 173.681L168.179 176.373C168.179 176.373 156.702 156.007 143.983 150.896L136.556 150.236H136.543Z" fill="#8CB248"/>
</g>
<g style="mix-blend-mode:multiply" opacity="0.3">
<path d="M150.832 150.766C156.461 152.073 173.838 166.811 179.104 179.595L190.917 183.502C190.917 183.502 180.333 162.295 157.936 151.31L150.845 150.766H150.832Z" fill="#8CB248"/>
</g>
<g style="mix-blend-mode:multiply" opacity="0.3">
<path d="M168.184 153.121C177.759 155.618 197.633 174.303 203.378 185.999H213.833C213.833 185.999 198.746 165.582 176.71 154.04L168.184 153.121Z" fill="#8CB248"/>
</g>
<g style="mix-blend-mode:multiply" opacity="0.3">
<path d="M182.84 154.959C190.448 157.456 213.014 171.883 220.35 183.942L228.877 182.234C228.877 182.234 209.986 161.247 188.74 154.946H182.84V154.959Z" fill="#8CB248"/>
</g>
<g style="mix-blend-mode:multiply" opacity="0.3">
<path d="M220.355 160.859C236.361 165.323 258.409 173.526 262.822 177.887L274.104 175.092C274.104 175.092 245.677 161.778 241.731 162.036C237.784 162.295 220.355 160.859 220.355 160.859Z" fill="#8CB248"/>
</g>
<g style="mix-blend-mode:multiply" opacity="0.3">
<path d="M100.289 146.613C105.296 154.583 99.7969 163.809 99.7969 163.809L91.7617 160.497C91.7617 160.497 95.8764 154.713 96.2386 148.709C96.5751 143.275 100.289 146.626 100.289 146.626V146.613Z" fill="#8CB248"/>
</g>
<g style="mix-blend-mode:multiply" opacity="0.3">
<path d="M91.7718 147.234C86.4926 152.888 83.5684 159.332 83.5684 159.332L75.8438 158.232C75.8438 158.232 82.805 148.709 85.2634 147.105C87.7218 145.513 91.7718 147.221 91.7718 147.221V147.234Z" fill="#8CB248"/>
</g>
<g style="mix-blend-mode:multiply" opacity="0.3">
<path d="M67.6573 157.249C72.3284 150.236 77.1676 146.923 77.1676 146.923L71.4485 146.535C71.4485 146.535 64.0085 150.533 58.5482 156.912C57.0214 158.698 67.6703 157.249 67.6703 157.249H67.6573Z" fill="#8CB248"/>
</g>
<g style="mix-blend-mode:multiply" opacity="0.3">
<path d="M30.3906 156.654C35.0616 149.641 45.9563 148.425 45.9563 148.425H37.0154C37.0154 148.425 27.9581 149.007 21.4497 155.075C19.7288 156.68 30.3906 156.667 30.3906 156.667V156.654Z" fill="#8CB248"/>
</g>
<g style="mix-blend-mode:multiply" opacity="0.3">
<path d="M60.5563 148.554C56.17 149.447 47.8372 157.016 47.8372 157.016L39.7891 156.201C39.7891 156.201 48.9241 149.291 53.2457 148.075C55.6265 147.402 60.5563 148.567 60.5563 148.567V148.554Z" fill="#8CB248"/>
</g>
<g style="mix-blend-mode:multiply" opacity="0.3">
<path d="M121.473 149.007C127.696 151.931 132.743 158.4 133.066 167.781L144.168 170.214C144.168 170.214 141.593 155.554 128.33 150.029L121.473 149.02V149.007Z" fill="#8CB248"/>
</g>
</g>
<path d="M49.3633 69.9487H39.6719V90.8324H49.3633V69.9487Z" fill="#B8D2DE"/>
<path d="M52.7354 69.9487H45.0625V90.8324H52.7354V69.9487Z" fill="#D2E8F2"/>
<path d="M92.539 88.2576H28.8398V160.406H92.539V88.2576Z" fill="#B8D2DE"/>
<path d="M200.195 88.2576H128.047V160.406H200.195V88.2576Z" fill="#D2E8F2"/>
<path d="M182.361 122.443H149.664V160.406H182.361V122.443Z" fill="#378A46"/>
<path d="M110.008 73.0929L128.045 88.2576H203.778L183.231 69.8582H106.773L110.008 73.0929Z" fill="#90B83E"/>
<path d="M117.047 72.3296L131.966 85.1005L135.187 85.1393L120.269 72.3684L117.047 72.3296Z" fill="#378A46"/>
<path d="M125.469 72.4202L140.388 85.1911L143.622 85.2299L128.691 72.459L125.469 72.4202Z" fill="#378A46"/>
<path d="M133.895 72.5107L148.813 85.2946L152.048 85.3205L137.116 72.5496L133.895 72.5107Z" fill="#378A46"/>
<path d="M142.316 72.6143L157.235 85.3852L160.47 85.424L145.538 72.6401L142.316 72.6143Z" fill="#378A46"/>
<path d="M150.754 72.7047L165.673 85.4756L168.895 85.5144L153.963 72.7435L150.754 72.7047Z" fill="#378A46"/>
<path d="M159.176 72.7954L174.095 85.5663L177.316 85.6051L162.385 72.8342L159.176 72.7954Z" fill="#378A46"/>
<path d="M167.602 72.8859L182.52 85.6697L185.742 85.6956L170.81 72.9247L167.602 72.8859Z" fill="#378A46"/>
<path d="M176.023 72.9895L190.942 85.7604L194.164 85.7992L179.232 73.0154L176.023 72.9895Z" fill="#378A46"/>
<path d="M92.4747 90.4831H88.0625L123.697 88.1929H128.044L106.734 69.8582L88.0625 90.4831H92.4747Z" fill="#004D6B"/>
<path d="M182.025 122.443H149.664V124.888H182.025V122.443Z" fill="#195F30"/>
<path d="M182.207 160.406V122.443H177.303V160.406H182.207Z" fill="#195F30"/>
<path d="M117.047 160.406V130.426H115.119V160.406H117.047Z" fill="#195F30"/>
<path d="M145.772 100.058H135.188V110.642H145.772V100.058Z" fill="#386E89"/>
<path d="M158.049 100.058H147.465V110.642H158.049V100.058Z" fill="#386E89"/>
<path d="M170.33 100.058H159.746V110.642H170.33V100.058Z" fill="#386E89"/>
<path d="M182.608 100.058H172.023V110.642H182.608V100.058Z" fill="#386E89"/>
<path d="M194.889 100.058H184.305V110.642H194.889V100.058Z" fill="#386E89"/>
<path d="M92.5427 94.3519H45.7031V160.393H92.5427V94.3519Z" fill="#D2E8F2"/>
<path d="M61.2422 105.156H51.5508V126.04H61.2422V105.156Z" fill="#386E89"/>
<path d="M72.4883 105.156H62.7969V126.04H72.4883V105.156Z" fill="#386E89"/>
<path d="M83.7265 105.156H74.0352V126.04H83.7265V105.156Z" fill="#386E89"/>
<path d="M94.9198 88.2446H28.8398V90.6901H94.9198V88.2446Z" fill="#195F30"/>
<path d="M92.5391 160.406V90.5608L110.007 73.093L128.044 88.2576V160.406H92.5391Z" fill="#B8D2DE"/>
<path d="M117.049 130.426H104.227V160.406H117.049V130.426Z" fill="#378A46"/>
<path d="M111.3 100.097H102.035V117.681H111.3V100.097Z" fill="#386E89"/>
<path d="M119.232 100.097H112.594V117.681H119.232V100.097Z" fill="#386E89"/>
<path d="M116.985 130.426H104.227V131.435H116.985V130.426Z" fill="#195F30"/>
<path d="M-17.4258 148.23C-17.4258 148.23 145.555 150.106 218.7 186.828C218.7 186.828 108.394 218.722 106.971 218.464C105.547 218.205 -17.6328 218.567 -17.6328 218.567L-17.4258 148.23Z" fill="url(#paint1_linear_390_19028)"/>
<g style="mix-blend-mode:multiply" opacity="0.3">
<path d="M-16.6514 194.009L-16.9102 178.922C16.6409 172.996 52.9222 171.65 83.7819 170.964C139.821 169.709 183.736 173.811 201.489 179.401C207.635 181.704 213.393 184.188 218.698 186.841C218.698 186.841 218.685 187.475 218.646 188.549C216.718 188.173 210.676 184.097 208.631 183.683C161.507 174.303 121.461 174.859 86.0592 177.55C35.9461 181.354 -2.36661 190.179 -16.6514 194.009Z" fill="#87AF3F"/>
</g>
<g style="mix-blend-mode:multiply" opacity="0.3">
<path d="M-17.6248 218.58L-17.793 205.796C46.3073 188.083 95.023 185.016 142.548 182.674C178.739 180.888 203.052 185.145 203.052 185.145C203.052 185.145 145.693 207.569 106.979 218.477C46.1909 218.502 -17.6248 218.58 -17.6248 218.58Z" fill="#87AF3F"/>
</g>
<g style="mix-blend-mode:multiply" opacity="0.3">
<path d="M168.299 169.864C168.299 169.864 72.1618 156.136 -17.105 168.545L-17.2344 160.975C12.7714 158.31 88.905 155.903 159.527 167.186C164.418 168.299 169.244 169.476 173.941 170.731L168.286 169.864H168.299Z" fill="#87AF3F"/>
</g>
<g style="mix-blend-mode:multiply" opacity="0.3">
<path d="M126.789 160.807C84.827 155.463 16.3921 152.164 -18 153.82L-17.4307 148.23C-17.4307 148.23 56.2834 149.084 126.801 160.807C126.801 160.807 126.801 160.807 126.776 160.807H126.789Z" fill="#87AF3F"/>
</g>
</g>
<path d="M85.7697 42.8284C97.5964 42.8284 107.184 33.2409 107.184 21.4142C107.184 9.58747 97.5964 0 85.7697 0C73.9429 0 64.3555 9.58747 64.3555 21.4142C64.3555 33.2409 73.9429 42.8284 85.7697 42.8284Z" fill="#F3DD8E"/>
<path d="M85.7734 33.1759C92.2691 33.1759 97.535 27.91 97.535 21.4142C97.535 14.9185 92.2691 9.65259 85.7734 9.65259C79.2776 9.65259 74.0117 14.9185 74.0117 21.4142C74.0117 27.91 79.2776 33.1759 85.7734 33.1759Z" fill="#FACF50"/>
<path d="M73.2217 46.9948C73.2734 46.8783 73.3252 46.7489 73.3769 46.6325C73.4028 46.7619 73.4416 46.8783 73.4804 46.9948H152.073C151.801 42.919 148.411 39.6971 144.27 39.6971C142.912 39.6971 141.644 40.0465 140.531 40.6546C139.146 35.5954 134.514 31.856 129.015 31.856C126.841 31.856 124.797 32.4512 123.05 33.4605C120.721 26.4604 114.122 21.4142 106.333 21.4142C98.5435 21.4142 92.3974 26.137 89.8743 32.7618C88.4122 32.1407 86.8077 31.7784 85.1127 31.7784C83.78 31.7784 82.499 31.9984 81.3086 32.3995C79.8465 29.5788 76.9093 27.6379 73.5063 27.6379C72.083 27.6379 70.7503 27.9872 69.5728 28.5824C66.5063 25.5029 62.2623 23.6009 57.5654 23.6009C50.7594 23.6009 44.898 27.612 42.2067 33.3828C41.4303 33.2017 40.6151 33.1111 39.7741 33.1111C34.5596 33.1111 30.1862 36.7211 29.0217 41.5862C28.1807 41.211 27.2491 41.004 26.2657 41.004C22.7721 41.004 19.8996 43.6177 19.4727 46.9948H73.2346H73.2217Z" fill="white"/>
<defs>
<linearGradient id="paint0_linear_390_19028" x1="141.474" y1="151.97" x2="141.849" y2="189.985" gradientUnits="userSpaceOnUse">
<stop offset="0.03" stop-color="#AABE4F"/>
<stop offset="0.87" stop-color="#86AF42"/>
</linearGradient>
<linearGradient id="paint1_linear_390_19028" x1="108.614" y1="145.021" x2="79.9021" y2="226.188" gradientUnits="userSpaceOnUse">
<stop offset="0.03" stop-color="#B1C342"/>
<stop offset="0.73" stop-color="#7AAE42"/>
<stop offset="1" stop-color="#6B9D41"/>
</linearGradient>
</defs>
</svg>
