<svg width="109" height="97" viewBox="0 0 109 97" fill="none" xmlns="http://www.w3.org/2000/svg">
<path fill-rule="evenodd" clip-rule="evenodd" d="M28.8525 37.6854C29.9692 40.7839 30.9149 44.0534 31.609 47.2425C32.2126 49.9085 32.7257 52.4034 33.1583 54.7273C31.9511 62.7352 29.6272 73.9221 26.7902 85.622C24.8084 77.4431 23.0881 70.9946 21.3678 64.878C22.746 54.9788 25.2409 45.6832 28.8525 37.6854ZM47.6952 21.8507C48.3793 20.2109 49.5865 17.9775 50.8843 15.4826C52.6951 20.9855 53.9828 27.7057 54.5864 33.6412C55.4516 42.3332 55.7031 48.7012 55.3611 55.1599C52.9466 47.9266 50.2002 41.8201 47.1822 37.3433C50.1097 45.5222 52.9466 60.0592 53.8923 70.4714V71.075C53.8018 71.4171 53.8017 71.8497 53.7213 72.2823C52.6046 75.9844 51.3974 80.8837 50.2807 86.1351C49.7676 80.3706 49.164 74.2541 47.7858 68.7511C47.8763 55.1498 46.9206 42.0716 44.6873 30.0195C45.5524 27.1826 46.5786 24.4261 47.6952 21.8406V21.8507ZM76.7792 29.426C77.5538 34.3353 78.0669 39.1541 78.4994 43.7114C73.8516 56.8802 71.2662 73.751 70.4111 76.3264C70.3205 62.1316 73.1676 44.5665 76.7792 29.426ZM79.7067 63.7613C78.248 67.725 76.7792 71.7692 75.4009 76.0649C76.1756 66.5077 77.3828 56.6991 78.932 48.5302C79.3646 54.2947 79.5357 59.5461 79.7067 63.7613ZM33.6714 58.0773C34.275 62.1215 34.5365 65.7331 34.617 69.6063C34.275 73.1374 33.9329 76.6584 33.5003 80.1895C32.8967 85.6924 32.2126 91.2054 31.5185 96.9699H41.0756C40.8141 94.0424 40.2105 90.8634 39.4358 87.8453C39.1743 85.612 39.0032 83.4591 38.7517 81.3062C38.4097 78.5497 38.1481 75.7128 37.8866 72.9563C37.9771 62.544 38.5707 54.7977 41.4982 41.5485C41.6692 40.7738 41.8402 39.9087 42.0112 39.134C43.0474 45.5021 43.6511 52.1318 43.9931 59.1034C43.3895 58.1578 42.7859 57.2121 42.1018 56.4375C42.8764 57.8962 43.48 59.4455 44.0836 60.9947C44.2547 67.0208 44.2547 73.2179 43.9931 79.5859C43.309 74.5961 42.0112 70.1193 39.7779 66.9303C43.48 83.6301 41.8402 87.1512 41.3271 96.9699H46.0554C46.659 91.5475 47.0916 86.125 47.4337 80.7026C47.6952 86.2961 47.6952 91.8895 47.9467 96.9699H105.35C104.666 71.9301 102.342 46.2767 108.791 25.3717V25.2812C102.513 36.8101 97.7747 54.8882 94.2436 72.7853C95.3603 57.9868 96.3059 44.2144 95.7929 33.8826C94.5856 44.3854 90.8835 61.7694 86.7588 79.2338C86.2458 74.1534 85.8937 70.4513 85.5516 69.0831C85.3806 68.5701 85.2901 67.7954 85.2096 66.9303C88.9922 57.5542 93.2174 40.4217 96.316 21.579C95.2798 19.9392 94.3341 17.9674 93.3885 16.0761C90.5515 32.6855 87.0204 47.2325 83.5798 53.51C83.0667 48.8622 82.3726 43.5303 81.427 38.1079C82.0306 36.2971 82.6342 34.8383 83.2378 33.5506C82.5537 34.6673 81.9501 35.784 81.2559 37.0818C80.4813 32.2629 79.5356 27.4441 78.3284 22.8869C79.3646 19.0137 80.3908 15.4021 81.427 12.1326C80.0487 14.718 78.761 17.2934 77.5538 19.8789C75.743 13.4203 73.419 7.65578 70.5016 3.61159C72.8255 10.1507 74.4653 17.0419 75.753 23.8325C68.1777 41.478 64.3951 59.8077 61.3771 76.9301C60.2604 71.9402 59.3952 68.3286 58.188 64.0229C58.188 61.699 58.188 59.4656 58.2785 57.2222C59.3147 50.6831 61.4676 39.7477 65.9343 33.0376C62.4937 36.4781 59.9083 42.6752 58.188 48.0071C58.017 36.5586 56.8097 22.7963 52.5945 12.5551C54.1438 10.0602 55.7836 7.64572 57.2423 5.84495C55.2605 7.22319 53.4597 8.94348 51.8199 10.9253C49.667 6.10652 46.7395 2.3239 42.8663 0C45.5323 3.18907 48.5503 9.20504 50.0996 13.1687C47.5141 16.6999 45.4518 20.8245 43.641 25.2208C42.1823 18.5107 40.1099 12.7462 37.4439 7.74632L36.6693 17.726C38.4801 22.3738 39.8584 27.4542 40.975 32.9571C38.5606 41.0455 37.0113 49.4759 36.0657 56.7997C34.949 49.3149 33.2287 41.136 30.3817 34.3353C30.8948 33.2991 31.4179 32.273 32.0215 31.3273C31.3374 31.931 30.6433 32.615 29.9592 33.3092C27.0317 26.6795 22.9875 21.4281 17.3035 19.7079C20.4926 22.2028 24.4462 27.8868 25.9955 30.9853C26.6795 32.444 27.4542 33.9933 28.0578 35.7136C24.3556 40.965 21.3477 48.1882 18.9332 55.9345C16.9514 47.4135 14.7985 27.9672 9.37608 13.3398C8.08838 12.6557 6.88115 11.9615 5.59345 11.1869C12.7362 28.9129 14.1144 54.5562 15.7441 61.3569C16.0057 62.3931 16.2572 63.4193 16.5188 64.546C14.879 70.7431 13.5913 76.8496 12.4746 82.1915C13.6818 68.2481 10.1507 39.6773 4.21521 24.4462C10.3217 56.1156 7.99783 70.401 2.92751 90.0284C3.09853 83.7508 1.72029 69.4554 0 55.9446V97.0001H31.2368C32.444 82.7146 33.6513 69.0328 33.6513 58.0974L33.6714 58.0773Z" fill="#8FBD3F"/>
</svg>
