<svg width="5" height="4" viewBox="0 0 5 4" fill="none" xmlns="http://www.w3.org/2000/svg">
<path d="M2.95316 2.4264C2.23464 2.96016 1.44428 3.40154 0.664168 3.70948C0.479404 3.78133 0.284376 3.84292 0.150936 3.83265C-0.23912 3.79159 0.222776 3.32967 0.458862 3.11412C1.15686 2.49824 1.8959 1.91315 2.66575 1.3486C2.88131 1.20489 3.33295 0.845643 3.78459 0.527439C4.23624 0.2195 4.69814 -0.06791 4.90344 0.0142071C5.12926 0.106589 4.92399 0.486377 4.60578 0.876433C4.45181 1.07146 4.26705 1.27675 4.09255 1.45125C3.91805 1.62575 3.76406 1.76945 3.65115 1.86183C3.43559 2.05686 3.19952 2.2519 2.96344 2.4264H2.95316Z" fill="#EAE65D"/>
</svg>
