<svg width="58" height="17" viewBox="0 0 58 17" fill="none" xmlns="http://www.w3.org/2000/svg">
<path d="M11.121 14.2369C12.7344 14.45 14.3782 14.6123 16.0423 14.7747C16.8744 14.8559 17.7165 14.9269 18.5689 14.9979C18.9951 15.0284 19.4212 15.069 19.8474 15.0994C20.2736 15.1197 20.7099 15.14 21.1361 15.1704C22.8407 15.2618 24.6875 15.3125 26.2197 15.3328C27.8127 15.3733 29.4058 15.3531 30.9786 15.3328C32.805 15.3023 34.5401 15.0791 36.0013 14.7037C36.4681 14.5819 36.9754 14.4398 37.4726 14.2876C37.9698 14.1354 38.467 13.9731 38.9338 13.8107C39.8673 13.4962 40.6689 13.1715 41.0951 12.9279C41.2777 12.8366 41.6836 12.7047 42.2518 12.5322C42.82 12.3597 43.5405 12.1263 44.3624 11.8524C45.1843 11.5581 46.0975 11.2131 47.031 10.8174C47.9544 10.4115 48.9082 9.93459 49.8011 9.40695C50.2476 9.14313 50.6941 8.85903 51.0999 8.56477C51.516 8.26036 51.9015 7.94582 52.2668 7.62112C52.9873 6.96157 53.6062 6.23098 54.0121 5.42938C54.8441 3.83631 54.9456 2.03015 53.9005 0.000762596C53.8295 -0.0195313 54.5194 0.366061 55.3718 1.05605C56.214 1.74604 57.2388 2.74045 57.7259 3.97837C58.2129 5.2163 58.152 6.67743 56.701 8.30094C55.9704 9.1127 54.8746 9.93462 53.3018 10.7971C52.5205 11.2334 51.6073 11.6291 50.5723 12.035C49.5373 12.4409 48.3603 12.8468 47.031 13.2222C46.1685 13.4556 45.3974 13.7397 44.6972 14.0543C44.3319 14.2166 43.9768 14.379 43.6115 14.5312C43.2361 14.6834 42.8606 14.8356 42.4953 14.9878C41.7343 15.2922 40.9632 15.5966 40.1717 15.8909C39.5324 16.1242 38.8019 16.3373 37.9901 16.4794C37.1885 16.6214 36.3159 16.733 35.4128 16.7736C34.388 16.8142 33.3631 16.8447 32.3281 16.8853C31.2931 16.9157 30.2581 16.9258 29.2232 16.936C28.7057 16.936 28.178 16.936 27.6605 16.9461C27.143 16.9461 26.6154 16.936 26.0979 16.9258C25.8341 16.9258 25.5703 16.9259 25.3166 16.9157C25.0223 16.9157 24.7382 16.9055 24.444 16.8954C23.8554 16.8751 23.2568 16.865 22.6885 16.8447C21.5216 16.8041 20.3649 16.7533 19.2284 16.6722C18.092 16.591 16.9758 16.4895 15.8698 16.388C13.6578 16.175 11.5168 15.9619 9.45694 15.6676C7.76241 15.4444 6.1389 15.211 4.54583 14.9776C4.1704 14.9168 3.7848 14.866 3.40937 14.8051C3.03393 14.7442 2.6585 14.6834 2.27292 14.6225C1.52204 14.4906 0.76102 14.3688 0 14.2369C3.39922 14.2775 7.24491 14.2673 11.121 14.2267V14.2369Z" fill="#97AB3B"/>
</svg>
