<svg width="20" height="6" viewBox="0 0 20 6" fill="none" xmlns="http://www.w3.org/2000/svg">
<path d="M19.1598 0C18.7968 0.211766 18.4338 0.433601 18.0708 0.645367C17.7077 0.857134 17.3346 1.05883 16.9615 1.26051C16.8707 1.31094 16.7699 1.36135 16.6791 1.41177C16.5884 1.46219 16.4875 1.5126 16.3968 1.55293L16.1144 1.69412L15.8321 1.83529C15.8321 1.83529 15.7413 1.88571 15.6909 1.90588L15.5497 1.97648L15.2674 2.10758L14.9749 2.23868L14.8338 2.29918L14.6926 2.35968C13.1497 3.02523 11.5463 3.55968 9.92277 3.9933C9.72108 4.05381 9.51942 4.10423 9.30765 4.15465L9.00511 4.23531L8.7026 4.30591C8.28915 4.40675 7.88578 4.4975 7.47233 4.58826L6.85722 4.71936L6.70593 4.74961L6.55468 4.77986L6.24207 4.84036L5.92947 4.90087C5.82862 4.92103 5.7177 4.9412 5.61686 4.96137L5.00174 5.08237L4.3765 5.20341L4.0639 5.26391L3.75129 5.32441L3.12608 5.43532L2.81348 5.48576L2.50087 5.53617L2.18827 5.58658C2.08743 5.60675 1.9765 5.61685 1.87566 5.63702L1.25045 5.74793C1.03868 5.78826 0.836977 5.81853 0.62521 5.85887L0.312605 5.90928L0 5.96978V6.00003L0.322699 5.97987L0.635304 5.94962L0.947909 5.91937H1.10926L1.27061 5.88912C1.69414 5.84878 2.10759 5.80843 2.53112 5.74793C3.3681 5.64709 4.20508 5.51601 5.04206 5.38491C5.87904 5.23365 6.70594 5.0723 7.53284 4.87061C7.94628 4.76977 8.35974 4.66893 8.7631 4.55801L9.06564 4.47735L9.36815 4.39666C9.56983 4.33616 9.7715 4.28575 9.98327 4.22525C11.6068 3.75129 13.2102 3.18658 14.7531 2.49078L14.8943 2.43028L15.0354 2.35968L15.3178 2.22858L15.6001 2.08739L15.7413 2.01682C15.7413 2.01682 15.8321 1.9664 15.8825 1.94623L16.1648 1.80503L16.4472 1.65378C16.5379 1.60336 16.6287 1.55294 16.7295 1.50252C16.8203 1.4521 16.9111 1.40169 17.0119 1.35127C17.385 1.14959 17.7481 0.92772 18.101 0.70587C18.464 0.484019 18.817 0.262186 19.18 0.0302511L19.1598 0Z" fill="#D9692A"/>
</svg>
