<svg width="45" height="6" viewBox="0 0 45 6" fill="none" xmlns="http://www.w3.org/2000/svg">
<path d="M10.2828 5.70472C10.2828 5.70472 10.3031 5.70472 10.3641 5.70472C10.415 5.70472 10.4963 5.71488 10.6082 5.72505C10.8217 5.74539 11.137 5.76573 11.5437 5.79624C11.9505 5.82675 12.4386 5.85725 13.008 5.88775C13.5775 5.91826 14.2283 5.95892 14.9401 5.96909C16.3637 5.9996 18.0416 6.00979 19.8618 5.98945C20.3194 5.98945 20.777 5.97928 21.2549 5.95894C21.7227 5.93861 22.2108 5.91826 22.6887 5.88775C23.6649 5.83691 24.6513 5.76572 25.658 5.68437C26.1563 5.64369 26.6647 5.60301 27.1732 5.55217C27.6816 5.50132 28.1799 5.45051 28.6884 5.38949C29.6951 5.2573 30.7018 5.10476 31.6881 4.94206C32.6745 4.77936 33.6406 4.59632 34.5863 4.40312C35.5218 4.19974 36.437 3.96584 37.3013 3.72179C39.03 3.23369 40.596 2.6744 41.8773 2.06427C43.1586 1.42363 44.1755 0.742324 44.8263 0C44.8364 0 44.6737 0.0813518 44.3585 0.223715C44.0433 0.35591 43.5856 0.549126 43.0264 0.77284C41.8976 1.24061 40.3418 1.78972 38.6538 2.35917C36.9658 2.91846 35.1354 3.51841 33.4779 3.90482C31.8203 4.31158 30.3459 4.57597 29.3595 4.57597C28.4036 4.64715 26.4614 4.68783 24.0005 4.73867C23.3904 4.74884 22.7396 4.75902 22.0684 4.77936C21.7329 4.77936 21.3871 4.7895 21.0414 4.7895C20.6956 4.7895 20.3398 4.7895 19.9838 4.7895C18.5602 4.7895 17.0654 4.76919 15.5604 4.74885C15.1842 4.74885 14.8079 4.74884 14.4317 4.73867C14.0554 4.73867 13.6792 4.71834 13.3029 4.70817C12.5504 4.67766 11.8081 4.65734 11.0861 4.62683C10.354 4.59632 9.64214 4.57597 8.94049 4.54546C8.24901 4.51496 7.56771 4.50479 6.91691 4.45395C4.33403 4.30141 2.19857 4.16924 0.99865 4.08788C-0.201271 4.04721 -0.221616 4.13873 0.41902 4.3116C1.05966 4.4743 2.37144 4.68782 3.82558 4.9217C4.55773 5.03356 5.32041 5.14543 6.06273 5.24711C6.42881 5.29796 6.79486 5.3488 7.15077 5.39964C7.49651 5.45048 7.83209 5.48099 8.14733 5.52166C8.76763 5.59284 9.30658 5.64369 9.68283 5.68437C10.0591 5.72504 10.2828 5.73522 10.2828 5.72505V5.70472Z" fill="#959636"/>
</svg>
