<svg width="37" height="29" viewBox="0 0 37 29" fill="none" xmlns="http://www.w3.org/2000/svg">
<path d="M1.1407 27.646C1.12054 27.394 1.20119 27.0513 1.37252 26.6784C1.54386 26.3055 1.79581 25.8923 2.07802 25.4791C2.64243 24.6425 3.36811 23.7858 4.13409 22.9392C4.51708 22.5159 4.92022 22.0926 5.32337 21.6895C5.71644 21.2863 6.1196 20.9033 6.55298 20.5304C6.97629 20.1575 7.42984 19.7946 7.88338 19.4318C8.33693 19.069 8.79047 18.7162 9.24402 18.3635C10.1511 17.668 11.028 16.9525 11.8947 16.2066C12.318 15.8337 12.7514 15.4608 13.1445 15.0677C13.5376 14.6747 13.9306 14.2917 14.3035 13.8986C15.0594 13.1225 15.7952 12.3666 16.5309 11.641C17.2667 10.9254 18.0125 10.24 18.7886 9.66551C20.3407 8.49637 21.9734 7.68 23.5558 6.77291C24.352 6.31937 25.1483 5.82551 25.8941 5.29134C26.6399 4.75717 27.3454 4.20284 28.051 3.68882C28.7565 3.16473 29.462 2.67089 30.1876 2.25766C30.9133 1.83435 31.6692 1.5219 32.4352 1.26993C33.9571 0.765994 35.4991 0.503937 37.0008 0C35.489 0.473701 33.9571 0.705525 32.4251 1.17923C31.6591 1.42112 30.8831 1.72346 30.1372 2.13669C29.3914 2.54992 28.6658 3.0438 27.9602 3.54774C27.2447 4.06175 26.529 4.60599 25.7933 5.10993C25.0575 5.62394 24.2916 6.08756 23.5054 6.52095C22.7092 6.95433 21.9231 7.36757 21.1067 7.82111C20.3004 8.27466 19.4739 8.76852 18.6475 9.37325C17.821 9.97797 17.0349 10.6835 16.2689 11.4091C15.5029 12.1449 14.747 12.9109 13.9911 13.6668C13.6182 14.0498 13.2352 14.4227 12.8522 14.7855C12.4692 15.1584 12.066 15.5011 11.6528 15.8539C10.8163 16.5594 9.94952 17.2447 9.04243 17.9301C8.13534 18.6255 7.18794 19.3411 6.24054 20.1373C5.77692 20.5405 5.30322 20.9739 4.85976 21.4173C4.42637 21.8507 3.99299 22.2942 3.56968 22.7477C2.72307 23.6548 1.90667 24.5921 1.22132 25.5597C0.878641 26.0435 0.566215 26.5172 0.354562 27.001C0.132829 27.4747 -0.0183579 27.9484 0.0017996 28.3515C0.384792 28.1197 0.777877 27.8879 1.15079 27.6662L1.1407 27.646Z" fill="#F0BB46"/>
</svg>
