<svg width="67" height="14" viewBox="0 0 67 14" fill="none" xmlns="http://www.w3.org/2000/svg">
<path d="M9.33263 8.31352C9.33263 8.31352 9.40289 8.32356 9.53335 8.34363C9.67384 8.3637 9.87453 8.39379 10.1455 8.4239C10.6773 8.49414 11.4601 8.5945 12.4435 8.71492C13.427 8.83534 14.6011 8.98586 15.9157 9.11632C17.2303 9.23674 18.6854 9.34714 20.2207 9.4475C20.9934 9.50771 21.7762 9.55788 22.579 9.59802C23.3818 9.63816 24.1946 9.64817 25.0175 9.66824C26.6633 9.69834 28.3291 9.68832 29.9648 9.64818C30.7776 9.62811 31.5805 9.55786 32.3732 9.48761C33.166 9.41737 33.9387 9.3371 34.7014 9.24678C36.2167 9.04608 37.6116 8.78517 38.896 8.43394C40.1805 8.09275 41.5152 7.77162 42.9402 7.52074C43.6426 7.39029 44.3552 7.26987 45.0877 7.14945C45.449 7.08924 45.8102 7.03905 46.1815 6.97884C46.5528 6.91863 46.9141 6.85844 47.2954 6.80826C48.7605 6.56742 50.2458 6.33661 51.7109 6.11583C52.4435 6.00545 53.166 5.88503 53.8784 5.77465C54.5909 5.65422 55.2934 5.51371 55.9858 5.37322C57.3506 5.09223 58.6552 4.78117 59.8594 4.42994C61.0636 4.07872 62.1474 3.70739 63.1007 3.24578C64.034 2.78416 64.8468 2.28241 65.4289 1.71041C65.5894 1.56992 65.7098 1.42943 65.8303 1.27891C65.9607 1.13842 66.0611 0.987877 66.1413 0.827315C66.2417 0.676789 66.2919 0.526281 66.3421 0.375754C66.3621 0.295473 66.3621 0.225226 66.3722 0.15498C66.3822 0.11484 66.3621 0.0847286 66.3521 0.0546233C66.3521 0.0345531 66.3421 0.0245303 66.332 0.00446005C66.332 -0.00557506 66.312 0.00446005 66.2919 0.00446005C66.2718 0.00446005 66.2518 0.00446005 66.2317 0.00446005C66.2317 0.00446005 66.2718 0.024529 66.332 0.0345641C66.3421 0.0345641 66.3621 0.0345641 66.3822 0.0345641C66.4023 0.0345641 66.4223 0.0345531 66.4223 0.0546233C66.4424 0.0746935 66.4625 0.0947711 66.4826 0.124876C66.593 0.215192 66.6632 0.375736 66.7535 0.576438C66.894 0.987877 67.0244 1.57997 66.9943 2.29246C66.9743 3.71745 66.3722 5.55385 64.9572 7.22972C64.2648 8.07267 63.3516 8.87549 62.308 9.59802C62.047 9.77865 61.7761 9.94923 61.4951 10.1198C61.2141 10.2804 60.9331 10.441 60.6421 10.6015C60.0601 10.9126 59.4479 11.1936 58.8157 11.4445C58.1835 11.6953 57.5413 11.9262 56.9091 12.1369C56.2668 12.3376 55.6246 12.4981 55.0024 12.6487C54.3802 12.7892 53.7882 12.9096 53.2162 12.9899C52.6442 13.0601 52.1123 13.1003 51.6406 13.1103C50.9081 13.1605 50.025 13.2006 48.9813 13.2207C47.9277 13.2307 46.7234 13.2307 45.3486 13.2207C43.9939 13.1906 42.4284 13.1103 40.7224 13.03C39.8594 12.9899 38.9663 12.9497 38.0129 12.8895C37.0596 12.8193 36.0662 12.739 35.0225 12.6587C33.9789 12.5784 32.8951 12.4881 31.7511 12.3878C31.1791 12.3376 30.597 12.2975 30.005 12.2373C29.4129 12.177 28.8007 12.1168 28.1886 12.0466C25.7099 11.7857 23.0305 11.5348 20.1404 11.1635C18.6954 10.9929 17.1901 10.8123 15.6246 10.6216C14.0692 10.4209 12.4536 10.1901 10.7777 9.96931C9.94478 9.85892 9.09178 9.73849 8.21872 9.63814C7.3557 9.51771 6.47263 9.38728 5.56947 9.25683C3.77319 8.99591 1.9167 8.74503 0 8.46405C1.64576 8.46405 3.25135 8.43392 4.80679 8.41385C6.36223 8.38375 7.87753 8.37372 9.35269 8.29343L9.33263 8.31352Z" fill="#97AB3B"/>
</svg>
