<svg width="241" height="185" viewBox="0 0 241 185" fill="none" xmlns="http://www.w3.org/2000/svg">
<path d="M139.455 34.4099C135.934 32.885 131.028 30.3068 125.952 26.0432C123.494 23.9766 120.033 21.0572 116.843 16.3121C112.91 10.4634 111.175 4.54451 110.402 0C108.978 1.23394 106.941 3.01964 104.513 5.21665C103.52 6.11954 102.477 7.06255 101.413 8.05572C99.6076 9.75114 97.1197 12.1889 94.2104 15.3791C92.6755 15.8305 90.4584 16.5127 87.7999 17.3855C78.8212 20.3349 70.2037 23.174 60.6933 28.3806C53.9317 32.0824 47.5113 35.6639 41.2011 42.7264C38.362 45.8965 36.145 49.1068 33.8978 52.9691C23.8958 70.2142 15.7498 96.5984 13.3923 104.454C10.7739 110.653 8.18568 117.716 5.92847 125.581C3.01918 135.673 1.25355 144.993 0.190154 153.139C-0.0104866 155.376 -0.130876 158.506 0.24031 162.208C0.761975 167.485 1.26358 172.581 4.41364 176.935C8.89796 183.125 16.3317 184.519 18.9701 184.87C25.4909 184.71 35.0816 183.476 44.923 178.079C47.441 176.704 49.6681 175.209 51.6344 173.725C64.1243 171.447 76.6142 169.17 89.1041 166.893C139.736 163.021 190.367 159.148 240.999 155.286C237.077 135.362 231.228 113.081 222.43 89.3754C218.457 78.6612 214.244 68.6492 209.94 59.3194C208.957 55.5674 207.011 50.0599 202.847 44.6325C198.604 39.1049 193.979 36.1554 189.344 33.3665C181.82 28.8321 171.327 22.9332 157.954 16.6331C155.576 13.5432 153.199 10.4534 150.821 7.36351C150.781 10.4132 150.38 14.6167 148.795 19.3217C146.287 26.7755 142.063 31.7715 139.445 34.4099H139.455Z" fill="#C3DD8A"/>
</svg>
