<svg width="42" height="42" viewBox="0 0 42 42" fill="none" xmlns="http://www.w3.org/2000/svg">
<path d="M31.9091 12.3666C30.4231 12.3666 28.9501 12.6398 27.5659 13.1723C25.6132 9.18417 21.6682 7.20219 21.4882 7.11356C21.3366 7.03888 21.1695 7 21 7C20.8305 7 20.6634 7.03888 20.5118 7.11356C20.3305 7.20219 16.3868 9.18417 14.4341 13.1723C13.0499 12.6398 11.5769 12.3666 10.0909 12.3666C9.80158 12.3666 9.52411 12.4798 9.31952 12.6813C9.11493 12.8827 9 13.156 9 13.4409V24.1833C9 27.3173 10.2643 30.3229 12.5147 32.539C14.7652 34.755 17.8174 36 21 36C24.1826 36 27.2348 34.755 29.4853 32.539C31.7357 30.3229 33 27.3173 33 24.1833V13.4409C33 13.156 32.8851 12.8827 32.6805 12.6813C32.4759 12.4798 32.1984 12.3666 31.9091 12.3666ZM19.9091 33.7924C17.51 33.5253 15.2946 32.3983 13.6852 30.6262C12.0757 28.8541 11.1846 26.5608 11.1818 24.1833V22.0939C13.5809 22.361 15.7963 23.488 17.4057 25.2601C19.0152 27.0322 19.9063 29.3256 19.9091 31.703V33.7924ZM19.9091 24.9165C18.9087 23.5123 17.6098 22.3395 16.1027 21.4794C14.5956 20.6194 12.9164 20.0927 11.1818 19.936V14.5742C13.5809 14.8413 15.7963 15.9683 17.4057 17.7404C19.0152 19.5125 19.9063 21.8059 19.9091 24.1833V24.9165ZM16.3841 14.127C17.6414 11.5475 19.9855 9.92003 21 9.30637C22.0145 9.92137 24.3586 11.5489 25.6145 14.127C23.5978 15.3561 21.993 17.1423 21 19.2633C20.007 17.142 18.4015 15.3556 16.3841 14.127ZM30.8182 24.1833C30.8154 26.5608 29.9243 28.8541 28.3148 30.6262C26.7054 32.3983 24.49 33.5253 22.0909 33.7924V31.703C22.0937 29.3256 22.9848 27.0322 24.5943 25.2601C26.2037 23.488 28.4191 22.361 30.8182 22.0939V24.1833ZM30.8182 19.936C29.0836 20.0927 27.4044 20.6194 25.8973 21.4794C24.3902 22.3395 23.0913 23.5123 22.0909 24.9165V24.1833C22.0937 21.8059 22.9848 19.5125 24.5943 17.7404C26.2037 15.9683 28.4191 14.8413 30.8182 14.5742V19.936Z" fill="#6D9127"/>
</svg>
