<svg width="44" height="20" viewBox="0 0 44 20" fill="none" xmlns="http://www.w3.org/2000/svg">
<path d="M0 13.4657C0 13.4657 1.23805e-06 13.3847 0.22291 13.3138C0.435687 13.2428 0.851117 13.182 1.67183 13.2124C2.48241 13.2428 3.7084 13.3442 5.48154 13.6887C6.36304 13.8609 7.3864 14.1041 8.5516 14.4283C8.84544 14.5094 9.13927 14.6005 9.45337 14.6917C9.76747 14.7829 10.0816 14.8741 10.4058 14.9754C11.0644 15.1781 11.7534 15.4111 12.4829 15.6746C12.4829 15.6746 13.2226 15.8975 14.0635 16.1001C14.479 16.2015 14.9248 16.2926 15.3199 16.3433C15.7151 16.3838 16.0596 16.3838 16.2825 16.3028C16.6675 16.1609 18.086 16.2217 19.1499 16.6574C19.8693 16.9512 20.5684 17.083 21.1358 17.0627C21.7843 17.0728 22.6253 17.0627 23.5878 16.9918C24.5504 16.931 25.6447 16.7891 26.7896 16.6067C27.9447 16.4142 29.1504 16.171 30.3764 15.8367C30.9844 15.6644 31.6024 15.482 32.2002 15.2591C32.8082 15.0362 33.4161 14.7829 34.0038 14.4992C36.3747 13.3745 38.543 11.7129 40.0831 9.34192C41.6131 6.95071 42.5047 3.82998 42.2311 0C42.2514 0.0506612 42.8087 0.901794 43.295 2.40136C43.7814 3.8908 44.2069 6.08947 43.8928 8.64279C43.7003 9.86879 43.3254 11.1961 42.6263 12.4728C41.9272 13.7494 40.8734 14.9755 39.384 16.0089C38.6342 16.5358 37.773 16.9816 36.7699 17.3869C36.2633 17.5896 35.7364 17.7821 35.1589 17.9543C34.5813 18.1164 33.9734 18.2684 33.3148 18.4103C32.6562 18.5521 31.9672 18.6737 31.2174 18.7852C30.4777 18.8865 29.6976 18.9574 28.8566 19.0283C27.1848 19.1499 25.3002 19.231 23.1724 19.2715C22.4834 19.2715 21.8654 19.3424 21.3081 19.5147C20.9231 19.6261 20.3151 19.7072 19.4336 19.5958C18.9878 19.535 18.4711 19.4235 17.8733 19.2512C17.2755 19.079 16.5865 18.8561 15.8164 18.5217C14.6512 18.0455 13.405 17.5997 12.1688 17.2451C11.5508 17.0627 10.9428 16.9107 10.3551 16.7689C9.76747 16.627 9.20007 16.5054 8.66306 16.3838C7.59918 16.1508 6.67714 15.9988 6.01855 15.8975C5.35995 15.8063 4.9648 15.7556 4.9648 15.7556C4.9648 15.7556 4.70137 15.7151 4.28594 15.6239C3.87052 15.5327 3.31324 15.401 2.72557 15.2186C1.56037 14.864 0.293835 14.3169 0 13.4759V13.4657Z" fill="#97AB3B"/>
</svg>
