<svg width="268" height="124" viewBox="0 0 268 124" fill="none" xmlns="http://www.w3.org/2000/svg">
<g style="mix-blend-mode:soft-light">
<path d="M101.605 124H76.9835C76.0608 118.474 75.0679 113.078 74.0048 107.803C72.0291 98.0045 69.8227 88.6373 67.3756 79.8318C64.9385 71.0462 62.2507 62.8224 59.3022 55.5413C58.3494 53.1944 57.3665 50.968 56.3636 48.8418C63.1634 45.9634 70.0233 43.2456 76.9233 40.6781C81.9379 50.1957 86.4811 61.5688 90.4125 74.3759C93.6619 84.9466 96.5202 96.46 98.9071 108.615C99.89 113.63 100.793 118.765 101.605 123.98V124ZM172.491 114.813C169.522 106.238 166.403 97.9143 163.013 90.4727C156.294 75.3588 148.922 62.4313 141.21 51.3892C134.47 41.7612 127.47 33.5273 120.309 26.5471C113.891 28.3724 107.422 30.3281 100.933 32.4041C106.038 38.1006 111.042 44.78 115.836 52.683C121.964 62.7923 127.771 74.8774 132.936 89.3293C134.27 92.8094 135.433 96.801 136.667 100.622C137.299 102.498 137.83 104.644 138.402 106.67C138.953 108.746 139.555 110.731 140.077 112.898C140.969 116.468 141.802 120.169 142.594 123.98H175.359C174.436 120.861 173.484 117.802 172.511 114.803L172.491 114.813ZM230.85 5.27532L238.352 9.34714L245.804 14.1411C248.281 15.8761 250.738 17.8017 253.205 19.617C258.139 23.5083 263.044 27.8609 267.898 32.6849V0C267.898 0 252.754 0.952768 228.724 4.2022C229.436 4.5131 230.148 4.84406 230.86 5.26529L230.85 5.27532ZM35.8541 77.2443C34.9715 71.1365 33.8182 65.3096 32.4241 59.8939C26.3866 62.9227 20.4393 66.0919 14.6325 69.4216C5.55613 74.6166 0 84.3047 0 94.7551C0 110.902 13.088 124 29.2449 124H37.7596C38.572 108.585 38.0204 92.1676 35.8541 77.2443ZM244.339 83.0812C236.527 68.5992 228.333 55.792 219.778 45.131C211.233 34.5102 202.357 25.7949 193.241 19.6872C188.878 16.7286 184.476 14.2815 180.043 12.2756C169.913 14.2714 159.262 16.5681 148.28 19.2058C149.023 19.6571 149.755 20.1084 150.497 20.5898C159.664 26.4869 168.72 34.0589 177.606 43.2756C186.481 52.5425 195.177 63.5244 203.471 77.1239C207.613 83.9337 211.654 91.4154 215.516 99.8599C218.725 107.021 221.824 114.843 224.592 124H263.946C257.578 109.558 251.109 95.6878 244.339 83.0912V83.0812Z" fill="#9CC24C"/>
</g>
</svg>
