<svg width="66" height="66" viewBox="0 0 66 66" fill="none" xmlns="http://www.w3.org/2000/svg">
<g filter="url(#filter0_d_568_21618)">
<rect x="10.5" y="5.5" width="45" height="45" rx="22.5" fill="#E9F2DA" shape-rendering="crispEdges"/>
<g clip-path="url(#clip0_568_21618)">
<path d="M36.1057 28.8716L34.3469 30.6364C33.6337 31.3521 32.3788 31.3675 31.6502 30.6364L29.8913 28.8716L23.5742 35.2092C23.8094 35.3179 24.0686 35.3828 24.3442 35.3828H41.6528C41.9285 35.3828 42.1876 35.318 42.4227 35.2093L36.1057 28.8716Z" fill="#6D9127"/>
<path d="M41.6528 20.6172H24.3442C24.0685 20.6172 23.8093 20.6821 23.5742 20.7908L30.3244 27.5634C30.3249 27.5639 30.3254 27.564 30.3259 27.5644C30.3263 27.5649 30.3264 27.5655 30.3264 27.5655L32.5213 29.7676C32.7544 30.0007 33.2426 30.0007 33.4757 29.7676L35.6701 27.5658C35.6701 27.5658 35.6707 27.5649 35.6711 27.5644C35.6711 27.5644 35.6721 27.5639 35.6726 27.5634L42.4226 20.7908C42.1876 20.682 41.9284 20.6172 41.6528 20.6172Z" fill="#6D9127"/>
<path d="M22.6963 21.6512C22.5746 21.8973 22.5 22.1703 22.5 22.4629V33.5371C22.5 33.8296 22.5746 34.1027 22.6963 34.3487L29.0243 28.0002L22.6963 21.6512Z" fill="#6D9127"/>
<path d="M43.3045 21.6512L36.9766 28.0002L43.3045 34.3488C43.4261 34.1028 43.5008 33.8297 43.5008 33.5371V22.4629C43.5008 22.1703 43.4261 21.8972 43.3045 21.6512Z" fill="#6D9127"/>
</g>
</g>
<defs>
<filter id="filter0_d_568_21618" x="0" y="0" width="66" height="66" filterUnits="userSpaceOnUse" color-interpolation-filters="sRGB">
<feFlood flood-opacity="0" result="BackgroundImageFix"/>
<feColorMatrix in="SourceAlpha" type="matrix" values="0 0 0 0 0 0 0 0 0 0 0 0 0 0 0 0 0 0 127 0" result="hardAlpha"/>
<feOffset dy="5"/>
<feGaussianBlur stdDeviation="5.25"/>
<feComposite in2="hardAlpha" operator="out"/>
<feColorMatrix type="matrix" values="0 0 0 0 0 0 0 0 0 0 0 0 0 0 0 0 0 0 0.12 0"/>
<feBlend mode="normal" in2="BackgroundImageFix" result="effect1_dropShadow_568_21618"/>
<feBlend mode="normal" in="SourceGraphic" in2="effect1_dropShadow_568_21618" result="shape"/>
</filter>
<clipPath id="clip0_568_21618">
<rect width="21" height="21" fill="white" transform="translate(22.5 17.5)"/>
</clipPath>
</defs>
</svg>
