<svg width="10" height="8" viewBox="0 0 10 8" fill="none" xmlns="http://www.w3.org/2000/svg">
<path d="M4.72009 3.23017C4.05542 3.71356 3.40083 4.20703 2.74622 4.71058C2.09162 5.21412 1.42693 5.71766 0.812615 6.25141C0.520562 6.49311 0.218457 6.75497 0.0774659 6.99667C-0.325367 7.65127 0.943536 7.20816 1.56793 6.90604C2.02111 6.69455 2.46426 6.45285 2.91744 6.21115C3.37063 5.96945 3.8238 5.70761 4.25685 5.42562C5.13301 4.87173 5.97894 4.26748 6.76447 3.63302C7.18744 3.30069 8.13411 2.50509 8.88943 1.7397C9.26205 1.35701 9.59437 0.984396 9.78571 0.672201C9.98713 0.370077 10.0677 0.148493 9.93677 0.0477853C9.39294 -0.334906 6.89539 1.68934 6.03937 2.26338C5.59625 2.57557 5.15314 2.89785 4.72009 3.22012V3.23017Z" fill="#F0BB46"/>
</svg>
