<svg width="30" height="30" viewBox="0 0 30 30" fill="none" xmlns="http://www.w3.org/2000/svg">
<path d="M28.2833 26.6429H26.35V9.72624C26.6064 9.72624 26.8523 9.59893 27.0335 9.37232C27.2148 9.14572 27.3167 8.83837 27.3167 8.5179C27.3167 8.19743 27.2148 7.89009 27.0335 7.66348C26.8523 7.43688 26.6064 7.30957 26.35 7.30957H20.55V2.47624C20.8064 2.47624 21.0523 2.34893 21.2335 2.12232C21.4148 1.89572 21.5167 1.58837 21.5167 1.2679C21.5167 0.947434 21.4148 0.64009 21.2335 0.413483C21.0523 0.186877 20.8064 0.0595703 20.55 0.0595703H3.15C2.89362 0.0595703 2.64775 0.186877 2.46646 0.413483C2.28518 0.64009 2.18333 0.947434 2.18333 1.2679C2.18333 1.58837 2.28518 1.89572 2.46646 2.12232C2.64775 2.34893 2.89362 2.47624 3.15 2.47624V26.6429H1.21667C0.960291 26.6429 0.714415 26.7702 0.53313 26.9968C0.351845 27.2234 0.25 27.5308 0.25 27.8512C0.25 28.1717 0.351845 28.4791 0.53313 28.7057C0.714415 28.9323 0.960291 29.0596 1.21667 29.0596H28.2833C28.5397 29.0596 28.7856 28.9323 28.9669 28.7057C29.1482 28.4791 29.25 28.1717 29.25 27.8512C29.25 27.5308 29.1482 27.2234 28.9669 26.9968C28.7856 26.7702 28.5397 26.6429 28.2833 26.6429ZM24.4167 9.72624V26.6429H20.55V9.72624H24.4167ZM5.08333 2.47624H18.6167V26.6429H15.7167V19.3929C15.7167 19.0724 15.6148 18.7651 15.4335 18.5385C15.2523 18.3119 15.0064 18.1846 14.75 18.1846H8.95C8.69362 18.1846 8.44775 18.3119 8.26646 18.5385C8.08518 18.7651 7.98333 19.0724 7.98333 19.3929V26.6429H5.08333V2.47624ZM13.7833 26.6429H9.91667V20.6012H13.7833V26.6429ZM7.01667 7.30957C7.01667 6.9891 7.11851 6.68176 7.2998 6.45515C7.48108 6.22854 7.72696 6.10124 7.98333 6.10124H9.91667C10.173 6.10124 10.4189 6.22854 10.6002 6.45515C10.7815 6.68176 10.8833 6.9891 10.8833 7.30957C10.8833 7.63004 10.7815 7.93738 10.6002 8.16399C10.4189 8.3906 10.173 8.5179 9.91667 8.5179H7.98333C7.72696 8.5179 7.48108 8.3906 7.2998 8.16399C7.11851 7.93738 7.01667 7.63004 7.01667 7.30957ZM12.8167 7.30957C12.8167 6.9891 12.9185 6.68176 13.0998 6.45515C13.2811 6.22854 13.527 6.10124 13.7833 6.10124H15.7167C15.973 6.10124 16.2189 6.22854 16.4002 6.45515C16.5815 6.68176 16.6833 6.9891 16.6833 7.30957C16.6833 7.63004 16.5815 7.93738 16.4002 8.16399C16.2189 8.3906 15.973 8.5179 15.7167 8.5179H13.7833C13.527 8.5179 13.2811 8.3906 13.0998 8.16399C12.9185 7.93738 12.8167 7.63004 12.8167 7.30957ZM7.01667 13.3512C7.01667 13.0308 7.11851 12.7234 7.2998 12.4968C7.48108 12.2702 7.72696 12.1429 7.98333 12.1429H9.91667C10.173 12.1429 10.4189 12.2702 10.6002 12.4968C10.7815 12.7234 10.8833 13.0308 10.8833 13.3512C10.8833 13.6717 10.7815 13.9791 10.6002 14.2057C10.4189 14.4323 10.173 14.5596 9.91667 14.5596H7.98333C7.72696 14.5596 7.48108 14.4323 7.2998 14.2057C7.11851 13.9791 7.01667 13.6717 7.01667 13.3512ZM12.8167 13.3512C12.8167 13.0308 12.9185 12.7234 13.0998 12.4968C13.2811 12.2702 13.527 12.1429 13.7833 12.1429H15.7167C15.973 12.1429 16.2189 12.2702 16.4002 12.4968C16.5815 12.7234 16.6833 13.0308 16.6833 13.3512C16.6833 13.6717 16.5815 13.9791 16.4002 14.2057C16.2189 14.4323 15.973 14.5596 15.7167 14.5596H13.7833C13.527 14.5596 13.2811 14.4323 13.0998 14.2057C12.9185 13.9791 12.8167 13.6717 12.8167 13.3512Z" fill="#6D9127"/>
</svg>
