<svg width="41" height="31" viewBox="0 0 41 31" fill="none" xmlns="http://www.w3.org/2000/svg">
<mask id="mask0_390_19170" style="mask-type:luminance" maskUnits="userSpaceOnUse" x="-3" y="0" width="44" height="51">
<path d="M0.880674 0C0.850333 3.07457 0.819996 6.13901 0.789655 9.21358C0.486244 10.8419 0.344657 12.1971 0.273861 13.168C0.172724 14.6244 0.203058 15.4537 -0.413878 16.01C-1.01059 16.546 -1.88036 16.5258 -2.47707 16.4449C-2.204 17.7394 -1.73877 19.5801 -0.929672 21.6939C0.0109027 24.1515 2.2258 29.0465 8.7997 35.6407C15.6062 42.4674 23.0398 47.0489 28.9361 50.0122C29.8665 49.1526 31.0903 47.9187 32.3747 46.3106C35.7628 42.0932 37.29 38.159 38.1396 35.8935C40.3039 30.1894 40.9208 24.8898 41.0017 20.8443C37.4518 21.0365 32.1523 20.9252 26.0031 19.2767C23.2421 18.5384 18.5291 17.2439 13.4318 13.8558C6.51401 9.25403 2.71125 3.40832 0.860442 0H0.880674Z" fill="white"/>
</mask>
<g mask="url(#mask0_390_19170)">
<path d="M0.879887 -7.71614e-06C5.42094 8.22243 11.206 12.1162 14.0884 13.7546C19.2969 16.7179 24.3639 17.6282 29.3196 18.5283C34.3259 19.4385 38.5939 19.6408 41.6583 19.6408C41.5976 21.5017 41.5269 23.3728 41.4561 25.2438C41.3853 27.1755 41.3044 29.087 41.2234 30.9985C39.3524 30.9378 36.7127 30.7962 33.5775 30.4119C25.8911 29.4612 21.5928 28.9859 17.3045 26.5383C11.4184 23.1806 8.44494 18.326 4.52083 11.9443C2.37672 8.44492 0.920347 5.35014 0 3.16558C0.283184 2.10364 0.576472 1.05182 0.859655 -0.0101236L0.879887 -7.71614e-06Z" fill="#C0863C"/>
</g>
</svg>
