<svg width="42" height="42" viewBox="0 0 42 42" fill="none" xmlns="http://www.w3.org/2000/svg">
<path d="M20.0536 27.2308C20.0536 27.4858 19.952 27.7304 19.7711 27.9107C19.5903 28.091 19.345 28.1923 19.0893 28.1923H15.7143C15.4585 28.1923 15.2133 28.091 15.0324 27.9107C14.8516 27.7304 14.75 27.4858 14.75 27.2308C14.75 26.9758 14.8516 26.7312 15.0324 26.5509C15.2133 26.3705 15.4585 26.2692 15.7143 26.2692H19.0893C19.345 26.2692 19.5903 26.3705 19.7711 26.5509C19.952 26.7312 20.0536 26.9758 20.0536 27.2308ZM27.2857 26.2692H23.9107C23.655 26.2692 23.4097 26.3705 23.2289 26.5509C23.048 26.7312 22.9464 26.9758 22.9464 27.2308C22.9464 27.4858 23.048 27.7304 23.2289 27.9107C23.4097 28.091 23.655 28.1923 23.9107 28.1923H27.2857C27.5415 28.1923 27.7867 28.091 27.9676 27.9107C28.1484 27.7304 28.25 27.4858 28.25 27.2308C28.25 26.9758 28.1484 26.7312 27.9676 26.5509C27.7867 26.3705 27.5415 26.2692 27.2857 26.2692ZM35 32.0385C35 32.2935 34.8984 32.538 34.7176 32.7184C34.5367 32.8987 34.2915 33 34.0357 33H8.96429C8.70854 33 8.46327 32.8987 8.28243 32.7184C8.10159 32.538 8 32.2935 8 32.0385C8 31.7834 8.10159 31.5389 8.28243 31.3585C8.46327 31.1782 8.70854 31.0769 8.96429 31.0769H9.92857V16.6538C9.92857 16.4753 9.97844 16.3002 10.0726 16.1483C10.1667 15.9964 10.3014 15.8737 10.4616 15.7938C10.6218 15.714 10.8011 15.6802 10.9795 15.6962C11.1578 15.7122 11.3282 15.7775 11.4714 15.8846L17.6429 20.5V16.6538C17.6429 16.4753 17.6927 16.3002 17.7869 16.1483C17.881 15.9964 18.0157 15.8737 18.1759 15.7938C18.3361 15.714 18.5154 15.6802 18.6937 15.6962C18.8721 15.7122 19.0425 15.7775 19.1857 15.8846L23.8553 19.3762L25.2487 9.65144C25.3161 9.19393 25.5459 8.77572 25.8962 8.47271C26.2465 8.1697 26.6942 8.00198 27.1579 8H29.3421C29.8058 8.00198 30.2535 8.1697 30.6038 8.47271C30.9541 8.77572 31.1839 9.19393 31.2513 9.65144L33.0594 22.2873C33.0594 22.2873 33.069 22.381 33.069 22.4231V31.0769H34.0333C34.1601 31.0766 34.2858 31.1012 34.4031 31.1494C34.5203 31.1976 34.6269 31.2684 34.7167 31.3577C34.8065 31.447 34.8778 31.5531 34.9264 31.6699C34.975 31.7868 35 31.912 35 32.0385ZM25.6151 20.6923L26.6433 21.4615H30.9958L29.3421 9.92308H27.1579L25.6151 20.6923ZM11.8571 31.0769H31.1429V23.3846H26.3214C26.1128 23.3846 25.9098 23.3171 25.7429 23.1923L24.0071 21.8942L19.5714 18.5769V22.4231C19.5714 22.6016 19.5216 22.7767 19.4274 22.9286C19.3333 23.0805 19.1986 23.2032 19.0384 23.2831C18.8782 23.363 18.6989 23.3968 18.5205 23.3807C18.3422 23.3647 18.1718 23.2994 18.0286 23.1923L11.8571 18.5769V31.0769Z" fill="#6D9127"/>
</svg>
