<svg width="91" height="26" viewBox="0 0 91 26" fill="none" xmlns="http://www.w3.org/2000/svg">
<path d="M6.77443 0.020092C6.77443 0.020092 6.78446 0.020092 6.80453 0.020092C6.82461 0.020092 6.85471 0.020092 6.89486 0.020092C6.97515 0.020092 7.0956 0.0301171 7.25618 0.0401533C7.5673 0.0602257 8.01892 0.0903416 8.57091 0.110414C9.67489 0.160595 11.1903 0.200734 12.8262 0.260951C13.6392 0.291059 14.4923 0.321164 15.3353 0.351273C16.1783 0.381381 17.0113 0.38139 17.8142 0.391426C18.6071 0.401462 19.3698 0.411487 20.0423 0.411487C20.7247 0.411487 21.3269 0.411498 21.8287 0.391426C21.8287 0.391426 21.8086 0.411506 21.8588 0.461687C21.909 0.511868 22.0395 0.582122 22.3506 0.682484C22.6617 0.782846 23.1535 0.913312 23.9263 1.05382C24.3177 1.12407 24.7693 1.20434 25.3113 1.28463C25.8532 1.36492 26.4755 1.45527 27.1981 1.55563C27.9408 1.66603 28.9745 1.82659 30.2491 2.0775C31.5237 2.30833 33.0592 2.58935 34.8256 2.9908C35.7088 3.18148 36.6522 3.40227 37.6458 3.64314C38.1375 3.77361 38.6494 3.884 39.1813 4.01448C39.7032 4.14495 40.2451 4.27544 40.7971 4.41595C43.0051 4.97797 45.4238 5.69052 48.0432 6.46331C49.358 6.85472 50.7129 7.29633 52.128 7.76803C52.8305 8.0089 53.5531 8.23973 54.2857 8.49064C55.0184 8.74154 55.7611 9.00247 56.5238 9.26341C57.2866 9.53439 58.0493 9.82545 58.8321 10.1165C59.2235 10.267 59.6149 10.4176 60.0164 10.5681C60.4178 10.7287 60.8193 10.8692 61.2207 11.0298C62.8366 11.652 64.5126 12.3245 66.2388 13.0671C66.6704 13.2578 67.112 13.4385 67.5435 13.6292C67.9851 13.8198 68.4267 14.0005 68.8784 14.2012C69.7716 14.5926 70.6849 14.9941 71.6082 15.4156C72.5416 15.8472 73.485 16.2887 74.4484 16.7504C75.4119 17.202 76.3955 17.6737 77.3991 18.1655C77.65 18.2859 77.9009 18.4164 78.1518 18.5368C78.4127 18.6673 78.6637 18.7878 78.9246 18.9182C79.4465 19.1792 79.9583 19.4401 80.4802 19.7111C81.0021 19.9821 81.544 20.2631 82.086 20.5341C82.6279 20.805 83.1598 21.086 83.7319 21.3771C84.2939 21.6681 84.866 21.9692 85.428 22.2703C86.0101 22.5714 86.6023 22.8926 87.1944 23.2037C87.7765 23.5249 88.4188 23.856 89.0411 24.1973C89.6533 24.5285 90.3357 24.8697 90.9981 25.2209C91.0182 25.2209 90.7773 25.1106 90.3156 24.9199C90.0848 24.8195 89.8038 24.6991 89.4726 24.5586C89.1515 24.418 88.7801 24.2675 88.3586 24.0768C86.7026 23.3442 84.3843 22.3506 81.7247 21.2567C80.3999 20.6846 78.9647 20.0824 77.4593 19.4702C75.9539 18.858 74.3782 18.2458 72.7523 17.5834C71.1365 16.9311 69.4605 16.2887 67.7443 15.6464C66.0381 14.9941 64.2918 14.3317 62.5254 13.6994C61.6322 13.3883 60.739 13.0772 59.8357 12.766C58.9425 12.4449 58.0393 12.1237 57.136 11.8126C56.2328 11.5015 55.3295 11.2004 54.4162 10.8993C53.513 10.6083 52.5997 10.3172 51.6864 10.0161C49.8698 9.41396 48.0432 8.86197 46.2367 8.33005C45.3335 8.06911 44.4202 7.79813 43.5169 7.53719C42.6137 7.27625 41.7204 7.02534 40.8172 6.78447C39.924 6.5436 39.0207 6.31277 38.1275 6.09197C37.2342 5.86114 36.3511 5.63033 35.4679 5.41957C33.7015 4.98801 31.9552 4.60663 30.239 4.25536C28.5229 3.88403 26.8267 3.56287 25.1707 3.28185C24.3377 3.14135 23.5248 3.03094 22.7119 2.90047C21.899 2.77 21.0961 2.65961 20.3132 2.55925C19.8917 2.50907 19.4903 2.42875 19.139 2.31836H19.1189C18.1555 2.00724 17.0314 1.81657 15.8773 1.77642C14.8134 1.73628 13.4686 1.666 12.0234 1.59575C11.3008 1.55561 10.548 1.52552 9.77524 1.49541C9.01249 1.4653 8.23972 1.43519 7.47697 1.39504C5.95147 1.31476 4.45606 1.26456 3.16139 1.22442C1.86672 1.18427 0.752714 1.19431 0 1.19431C0.582099 1.11402 1.15417 1.01366 1.73627 0.913297C2.30833 0.812935 2.88038 0.722631 3.44241 0.622269C4.57649 0.411509 5.69051 0.21076 6.79449 0L6.77443 0.020092Z" fill="#97AB3B"/>
</svg>
