<svg width="38" height="47" viewBox="0 0 38 47" fill="none" xmlns="http://www.w3.org/2000/svg">
<path d="M8.46523 46.0875C8.46523 46.0875 9.27627 45.8543 10.4928 45.3981C11.6993 44.9419 13.3416 44.293 15.0854 43.5834C16.8291 42.8433 18.6742 42.012 20.3065 41.2415C21.9488 40.4811 23.3783 39.7005 24.311 39.1328C24.2907 39.1328 24.1285 39.1328 24.534 38.6968C24.9395 38.2609 25.9128 37.3688 28.0925 35.5743C29.1265 34.672 30.9514 32.8776 32.7255 30.4648C33.1716 29.8565 33.6075 29.2178 34.0333 28.5385C34.4591 27.8492 34.8647 27.1192 35.2499 26.3589C36.0103 24.8382 36.6591 23.1958 37.1153 21.452C38.0885 17.9848 38.1798 14.2034 37.2572 10.4928C36.3347 6.78232 34.3983 3.15293 31.3468 0C31.2555 0.010138 32.1071 1.19626 33.0398 3.3658C33.9725 5.53534 35.0167 8.668 35.2093 12.5914C35.3614 14.5075 35.2499 16.6365 34.814 18.8871C34.378 21.1378 33.6177 23.4999 32.4822 25.8216C31.3468 28.1533 29.8261 30.485 27.8897 32.7053C26.9164 33.79 25.8418 34.8545 24.6557 35.8683C24.0677 36.3752 23.4391 36.872 22.7903 37.3586C22.4658 37.6019 22.1313 37.8351 21.7968 38.0784C21.4622 38.3116 21.1175 38.5346 20.7627 38.7577C20.4078 38.9908 20.0935 39.224 19.8401 39.4572C19.8401 39.4572 19.83 39.4572 19.8198 39.4673C19.1507 40.106 18.2079 40.7447 17.0724 41.2922C16.5554 41.5557 15.9674 41.8396 15.3084 42.1438C14.6596 42.4378 13.9398 42.7216 13.1896 43.0258C11.6891 43.6239 10.0265 44.2423 8.37399 44.8101C6.72149 45.3474 5.07914 45.8441 3.6294 46.2294C2.89946 46.422 2.22022 46.5944 1.61194 46.7262C1.00366 46.8478 0.456211 46.939 0 46.9999C0.709662 46.9492 1.4193 46.9188 2.12896 46.8478C2.83862 46.7768 3.53817 46.7059 4.24784 46.6349C5.65702 46.4829 7.06618 46.3105 8.46523 46.1179V46.0875Z" fill="#959636"/>
</svg>
