<svg width="54" height="50" viewBox="0 0 54 50" fill="none" xmlns="http://www.w3.org/2000/svg">
<path d="M20.4027 40.7451C19.8303 40.966 19.248 41.1969 18.6455 41.4278C18.3443 41.5483 18.0531 41.6588 17.7419 41.7792C17.4407 41.8997 17.1294 42.0202 16.8282 42.1407C15.5932 42.6327 14.328 43.1347 13.0228 43.687C11.7175 44.2292 10.3921 44.7914 9.00649 45.3738C7.63091 45.9361 6.19511 46.5185 4.68901 47.1209C3.93596 47.4221 3.17286 47.7334 2.38969 48.0547C1.9981 48.2153 1.60653 48.376 1.21494 48.5366C0.823357 48.6973 0.421707 48.8579 0.0301208 49.0186C0.0200801 49.2093 0.0100407 49.4001 0 49.5909C0.210854 49.5005 0.421703 49.4202 0.622517 49.3399C0.833371 49.2495 1.04423 49.1692 1.25508 49.0788C1.67679 48.9081 2.08848 48.7374 2.50015 48.5668C3.32348 48.2354 4.13676 47.9041 4.92997 47.5828C5.72319 47.2615 6.50638 46.9502 7.26947 46.6389C8.03256 46.3277 8.77555 46.0365 9.50852 45.7252C10.9644 45.1228 12.3299 44.5404 13.6152 44.0083C14.9104 43.4661 16.1253 42.9841 17.3403 42.4921C17.6415 42.3716 17.9427 42.2512 18.2439 42.1307C18.5451 42.0102 18.8363 41.8997 19.1275 41.7792C19.7199 41.5483 20.2922 41.3274 20.8645 41.1065C21.4368 40.8856 21.9991 40.6748 22.5514 40.4639C23.1036 40.2531 23.6458 40.0422 24.188 39.8314C25.2523 39.4197 26.2865 39.0181 27.3006 38.6365C28.3047 38.255 29.2987 37.9035 30.2726 37.512C31.2566 37.1304 32.2105 36.7388 33.1041 36.3171C33.5559 36.1063 33.9877 35.8954 34.4094 35.6845C34.6203 35.5741 34.8311 35.4637 35.0319 35.3532C35.2327 35.2428 35.4336 35.1223 35.6344 35.0118C36.036 34.7809 36.4175 34.55 36.789 34.309C37.1706 34.068 37.522 33.827 37.8734 33.5861C38.1746 33.3852 38.4558 33.1643 38.7369 32.9535C38.7871 32.9133 38.8373 32.8732 38.8875 32.833C39.0582 32.7025 39.2089 32.5719 39.3695 32.4515C39.4298 32.4012 39.49 32.3511 39.5502 32.3109C39.6506 32.2306 39.741 32.1502 39.8414 32.0599C40.1426 31.7988 40.4338 31.5377 40.7049 31.2566C40.976 30.9855 41.2371 30.7044 41.4881 30.4333C41.9801 29.8811 42.4319 29.3188 42.8837 28.7766C43.7774 27.6721 44.7111 26.5676 45.6048 25.4431C46.0566 24.8808 46.4984 24.3085 46.9301 23.7362C47.3719 23.1638 47.8137 22.5915 48.2655 22.0192C48.7174 21.4469 49.1792 20.8645 49.611 20.2721C50.0427 19.6797 50.4544 19.0773 50.7958 18.4748C50.8861 18.3242 50.9665 18.1736 51.0568 18.023C51.1372 17.8724 51.2275 17.7218 51.2978 17.5712C51.4484 17.27 51.6091 16.9687 51.7396 16.6776C51.8701 16.3763 52.0107 16.0852 52.1211 15.784C52.2416 15.4928 52.3621 15.1916 52.4625 14.9004C52.6734 14.318 52.834 13.7457 52.9545 13.1934C52.9947 12.9926 53.0348 12.7918 53.065 12.591C53.065 12.5508 53.075 12.5107 53.085 12.4705C53.1252 12.1693 53.1553 11.8681 53.1754 11.5869C53.2156 11.0648 53.2357 10.5628 53.2859 10.0507C53.326 9.53863 53.3762 9.03662 53.4264 8.53459C53.4264 8.50447 53.4264 8.47433 53.4365 8.45425C53.4365 8.43416 53.4365 8.40404 53.4365 8.38395C53.4566 8.18314 53.4766 7.98233 53.4967 7.79156C53.5168 7.54054 53.5469 7.28953 53.567 7.04856C53.5871 6.79754 53.6172 6.55657 53.6373 6.30556C53.6473 6.18507 53.6574 6.05451 53.6775 5.93403C53.6875 5.81354 53.6975 5.69306 53.7176 5.56253C53.7176 5.55249 53.7176 5.54245 53.7176 5.53241C53.7176 5.50228 53.7176 5.46212 53.7277 5.43199C53.7678 4.9902 53.8281 4.53839 53.8883 4.0966C53.9385 3.68493 53.9887 3.27327 53.9987 2.8616C53.9987 2.79131 53.9987 2.72102 53.9987 2.65074C53.9987 2.44992 53.9988 2.24911 53.9787 2.05834C53.9787 1.9981 53.9787 1.92781 53.9586 1.86757C53.8984 1.21492 53.7477 0.5924 53.5268 0C53.7477 0.652644 53.8984 1.33541 53.9285 2.05834C53.9385 2.25915 53.9385 2.45997 53.9285 2.67082C53.9084 3.14273 53.8481 3.62467 53.7778 4.11667C53.7678 4.20703 53.7578 4.29742 53.7377 4.38778C53.7377 4.42795 53.7276 4.45806 53.7176 4.49822C53.6674 4.85968 53.6072 5.23118 53.567 5.59265C53.557 5.71314 53.5369 5.84366 53.5268 5.96415C53.5168 6.08464 53.4967 6.21519 53.4867 6.33568C53.4566 6.5867 53.4264 6.8377 53.4063 7.07868C53.3762 7.3297 53.3461 7.58071 53.316 7.83173C53.2859 8.08275 53.2557 8.33377 53.2256 8.59483C53.1955 8.7856 53.1754 8.97637 53.1553 9.15711C53.1553 9.19727 53.1553 9.23743 53.1453 9.27759C53.1152 9.55873 53.085 9.83987 53.0549 10.1311C52.9947 10.6431 52.9646 11.1552 52.9144 11.6773C52.8642 12.1994 52.7939 12.7216 52.6633 13.2738C52.5328 13.8059 52.3722 14.3582 52.1613 14.9104C52.1613 14.9204 52.1513 14.9405 52.1412 14.9506C52.1312 14.9807 52.1211 15.0108 52.1111 15.0409C52.0107 15.302 51.9103 15.563 51.7898 15.8241C51.6693 16.1153 51.5288 16.4065 51.3882 16.6976C51.2476 16.9888 51.097 17.28 50.9364 17.5812C50.856 17.7318 50.7757 17.8724 50.6954 18.023C50.6151 18.1736 50.5247 18.3142 50.4343 18.4648C50.0829 19.0472 49.6813 19.6295 49.2395 20.2119C48.8077 20.7942 48.3358 21.3665 47.874 21.9389C46.9502 23.0935 46.0566 24.2482 45.1328 25.3527C44.2191 26.4672 43.2552 27.5817 42.3214 28.6862C41.8495 29.2384 41.3877 29.7907 40.8856 30.3329C40.3836 30.8751 39.8514 31.3771 39.249 31.8792C39.0984 32.0097 38.9478 32.1302 38.7871 32.2507C38.6566 32.3611 38.5261 32.4615 38.3855 32.5719C38.3654 32.592 38.3453 32.6021 38.3152 32.6222C38.0843 32.7928 37.8634 32.9635 37.6224 33.1242C37.522 33.1945 37.4116 33.2648 37.3111 33.3451C36.9597 33.5861 36.6083 33.817 36.2368 34.0479C35.8653 34.2788 35.4938 34.5098 35.1022 34.7307C34.3291 35.1625 33.5057 35.5741 32.6422 35.9757C31.7787 36.3673 30.855 36.7489 29.8911 37.1204C29.4092 37.3112 28.9172 37.4919 28.4151 37.6726C27.9131 37.8533 27.401 38.0441 26.8889 38.2349C25.8447 38.6265 24.7904 39.0281 23.7161 39.4498C23.1739 39.6607 22.6317 39.8615 22.0694 40.0824C21.5172 40.2932 20.9449 40.5041 20.3725 40.725L20.4027 40.7451Z" fill="#EAE65D"/>
</svg>
