<svg width="24" height="24" viewBox="0 0 24 24" fill="none" xmlns="http://www.w3.org/2000/svg">
<g clip-path="url(#clip0_550_1152)">
<path d="M22.8472 14.8554L18.4306 12.8764L18.4184 12.8707C18.1892 12.7727 17.939 12.7333 17.6907 12.7562C17.4424 12.7792 17.2037 12.8636 16.9963 13.002C16.9718 13.0181 16.9484 13.0357 16.9259 13.0545L14.6441 14.9998C13.1984 14.2976 11.7059 12.8164 11.0038 11.3895L12.9519 9.07294C12.9706 9.0495 12.9884 9.02606 13.0053 9.00075C13.1407 8.79384 13.2229 8.55667 13.2445 8.31035C13.2661 8.06402 13.2264 7.81618 13.1291 7.58887V7.57762L11.1444 3.15356C11.0157 2.85662 10.7944 2.60926 10.5136 2.44841C10.2328 2.28756 9.9075 2.22184 9.58626 2.26106C8.31592 2.42822 7.14986 3.05209 6.30588 4.01615C5.4619 4.98021 4.99771 6.21852 5.00001 7.49981C5.00001 14.9436 11.0563 20.9998 18.5 20.9998C19.7813 21.0021 21.0196 20.5379 21.9837 19.6939C22.9477 18.85 23.5716 17.6839 23.7388 16.4136C23.7781 16.0924 23.7125 15.7672 23.5518 15.4864C23.3911 15.2056 23.144 14.9843 22.8472 14.8554ZM18.5 19.4998C15.3185 19.4963 12.2682 18.2309 10.0186 15.9813C7.76888 13.7316 6.50348 10.6813 6.50001 7.49981C6.49648 6.58433 6.82631 5.69887 7.42789 5.00879C8.02947 4.3187 8.86167 3.87118 9.76907 3.74981C9.7687 3.75355 9.7687 3.75732 9.76907 3.76106L11.7378 8.16731L9.80001 10.4867C9.78034 10.5093 9.76247 10.5335 9.74657 10.5589C9.60549 10.7754 9.52273 11.0246 9.5063 11.2825C9.48988 11.5404 9.54035 11.7981 9.65282 12.0307C10.5022 13.7679 12.2525 15.5051 14.0084 16.3536C14.2428 16.465 14.502 16.5137 14.7608 16.495C15.0196 16.4762 15.2692 16.3907 15.485 16.2467C15.5091 16.2305 15.5322 16.2129 15.5544 16.1942L17.8334 14.2498L22.2397 16.2232C22.2397 16.2232 22.2472 16.2232 22.25 16.2232C22.1301 17.1319 21.6833 17.9658 20.9931 18.5689C20.3028 19.172 19.4166 19.5029 18.5 19.4998Z" fill="#FBFFF2"/>
</g>
<defs>
<clipPath id="clip0_550_1152">
<rect width="24" height="24" fill="white"/>
</clipPath>
</defs>
</svg>
