<svg width="95" height="120" viewBox="0 0 95 120" fill="none" xmlns="http://www.w3.org/2000/svg">
<g clip-path="url(#clip0_559_21066)">
<path d="M33.7441 9.86891C33.1352 10.2984 33.1362 11.7133 32.9931 12.3578C32.6085 14.0956 31.1212 23.0709 30.8921 25.9667C30.3815 32.3692 30.3323 39.032 31.1923 45.2218C31.7031 48.8983 32.6684 52.4448 33.6535 55.9512C34.6959 59.6609 38.1149 66.9578 39.68 69.7951C43.8045 77.2781 48.9129 84.2342 55.453 89.6931C58.4288 92.1767 61.6909 94.334 65.2055 96.0746C65.4692 96.2064 65.9931 96.5027 66.7 96.9187C68.6818 98.0826 72.0957 100.164 75.1799 102.001C72.9987 99.3305 70.3644 96.683 67.2661 94.53C67.2598 94.5249 67.25 94.5191 67.2437 94.514C66.0768 93.7972 64.9477 93.0683 63.8551 92.3252C63.8502 92.3223 63.8475 92.3179 63.8425 92.315C17.8161 61.0279 35.7413 8.45304 33.7441 9.86891Z" fill="#5BBF13"/>
<path d="M29.2184 11.2442C28.7862 9.73476 28.0948 8.31852 27.5585 6.84552C27.4335 6.50333 27.9442 6.24306 28.0684 6.58878C28.6202 8.10961 29.33 9.56877 29.7754 11.1274C29.8775 11.4812 29.3183 11.5994 29.2162 11.2456L29.2184 11.2442Z" fill="url(#paint0_linear_559_21066)"/>
<path d="M37.0418 14.3503C38.2922 12.8356 39.6656 11.4274 40.916 9.91267C41.1482 9.63026 41.6271 9.9463 41.3927 10.2301C40.1423 11.7448 38.7689 13.153 37.5185 14.6677C37.2863 14.9501 36.8074 14.6341 37.0418 14.3503Z" fill="url(#paint1_linear_559_21066)"/>
<path d="M26.4027 22.8303C26.1938 21.181 26.3251 19.5173 25.4691 18.0242C25.2855 17.7044 25.8146 17.487 25.9954 17.8025C26.8747 19.3414 26.7532 21.0536 26.9697 22.7527C27.0155 23.1183 26.4499 23.198 26.4041 22.8325L26.4027 22.8303Z" fill="url(#paint2_linear_559_21066)"/>
<path d="M35.5341 24.8383C36.5952 23.047 37.8029 21.3469 39.0448 19.6767C39.2631 19.3819 39.7419 19.698 39.5215 19.9941C38.2796 21.6644 37.0705 23.3622 36.0108 25.1558C35.8226 25.4737 35.3481 25.155 35.5341 24.8383Z" fill="url(#paint3_linear_559_21066)"/>
<path d="M35.849 6.58131C36.698 4.86196 37.0566 2.91292 38.184 1.33421C38.3974 1.03655 38.8749 1.35043 38.6607 1.65162C37.5384 3.22404 37.1718 5.18428 36.3257 6.89873C36.1629 7.22782 35.6883 6.90903 35.849 6.58131Z" fill="url(#paint4_linear_559_21066)"/>
<path d="M68.5805 91.4756C67.3615 90.1937 65.9574 89.1397 64.4691 88.1914C64.1591 87.992 64.4744 87.5167 64.7865 87.7147C66.3134 88.69 67.7558 89.7801 69.0082 91.0953C69.2623 91.3639 68.8339 91.7385 68.5791 91.4734L68.5805 91.4756Z" fill="url(#paint5_linear_559_21066)"/>
<path d="M53.2982 81.0635C52.4395 79.5994 51.4343 78.2292 50.4851 76.8232C50.28 76.5171 50.7927 76.2647 50.9951 76.5664C51.9442 77.9725 52.948 79.3406 53.8081 80.8067C53.9939 81.1252 53.4825 81.3798 53.2982 81.0635Z" fill="url(#paint6_linear_559_21066)"/>
<path d="M45.2935 73.7423C44.7675 72.0105 44.1773 70.3016 44.1441 68.476C44.1381 68.1062 44.7087 68.1386 44.7155 68.5049C44.7489 70.2788 45.3428 71.9458 45.8527 73.6241C45.9605 73.9774 45.3999 74.0934 45.2935 73.7423Z" fill="url(#paint7_linear_559_21066)"/>
<path d="M41.5039 83.0099C40.3834 82.1996 39.3189 81.3201 38.2137 80.4909C37.2176 79.7467 36.1365 78.9172 34.9199 78.5876C34.5633 78.491 34.745 77.9493 35.098 78.0452C36.3005 78.3717 37.3624 79.1618 38.3553 79.8868C39.5302 80.7442 40.6434 81.6807 41.8227 82.5354C42.1217 82.7509 41.8043 83.2276 41.5053 83.0121L41.5039 83.0099Z" fill="url(#paint8_linear_559_21066)"/>
<path d="M42.5398 89.6834C42.1914 89.5663 42.3695 89.0239 42.7179 89.141C44.6163 89.7811 46.4383 90.6434 48.4161 91.0231C48.7767 91.0929 48.595 91.6345 48.238 91.5655C46.2602 91.1858 44.4382 90.3235 42.5398 89.6834Z" fill="url(#paint9_linear_559_21066)"/>
<path d="M33.9524 70.4855C32.5055 69.4073 31.0636 68.3229 29.7307 67.1049C29.4592 66.8565 29.8897 66.4806 30.1598 66.7268C31.4558 67.9107 32.8642 68.9619 34.2712 70.011C34.5659 70.2292 34.2499 70.7081 33.9538 70.4876L33.9524 70.4855Z" fill="url(#paint10_linear_559_21066)"/>
<path d="M31.5628 58.679C30.5219 57.3195 29.2048 56.2068 28.1639 54.8473C27.9408 54.5558 28.3686 54.1755 28.5931 54.4692C29.6339 55.8287 30.9511 56.9413 31.9919 58.3008C32.2151 58.5923 31.7873 58.9726 31.5628 58.679Z" fill="url(#paint11_linear_559_21066)"/>
<path d="M28.2784 9.50807C28.5142 8.53387 28.747 7.91087 28.9251 8.02767C30.9204 9.34083 32.8238 13.541 32.166 16.6355C31.4554 19.9795 28.3668 19.9285 27.6338 17.181C26.9979 14.7937 27.6855 11.9687 28.2784 9.50807Z" fill="#F9BD29"/>
<path d="M36.8556 13.3C37.6275 12.6081 38.4114 12.1577 39.092 12.1106C38.8646 14.1791 38.1757 18.1593 36.9078 20.2016C35.1091 23.0942 32.6233 23.0642 33.1676 19.6597C33.5068 17.5287 35.1544 14.827 36.8577 13.2986L36.8556 13.3Z" fill="#F9BD29"/>
<path d="M32.8707 34.6386C31.3404 34.7014 30.7897 31.4939 31.8693 29.077C33.1051 26.311 35.1389 24.1366 37.1886 22.2952C37.6351 25.1077 36.7507 30.5375 34.8771 33.1044C34.1012 34.1695 33.4217 34.6168 32.8707 34.6386Z" fill="#F9BD29"/>
<path d="M27.5444 20.6489C29.4552 23.049 32.0839 28.1729 28.7174 29.3054C24.2722 30.7977 24.9732 22.639 26.544 19.5946C26.8148 19.8039 27.1635 20.1729 27.5444 20.6489Z" fill="#F9BD29"/>
<path d="M35.0379 6.2866C36.0002 4.81058 37.0071 3.46097 37.5184 2.66569C37.8735 4.69523 38.2684 7.61674 37.5889 9.99912C36.9525 12.2354 34.404 13.9952 33.1832 12.9333C31.8429 11.7656 33.3762 8.83331 35.0344 6.28582L35.0379 6.2866Z" fill="#F9BD29"/>
<path d="M45.6177 72.2379C47.7242 75.3087 50.6691 81.2962 47.0936 81.0589C42.3735 80.7467 42.9174 73.1442 44.5218 70.8256C44.817 71.1348 45.201 71.63 45.6177 72.2379Z" fill="#F9BD29"/>
<path d="M35.9358 75.0431C34.0678 73.4783 32.9526 70.9118 32.333 68.7873C35.0827 69.3288 38.9483 70.887 40.7976 72.9681C42.8172 75.2439 40.2724 77.6545 37.7557 76.2864C37.0988 75.9295 36.4963 75.5104 35.9344 75.041L35.9358 75.0431Z" fill="#F9BD29"/>
<path d="M30.9344 60.7895C30.5965 59.1378 30.3967 57.5312 30.2093 56.6457C32.1354 57.5993 34.8036 59.0617 36.1119 61.0428C37.338 62.9003 36.5218 65.9656 34.6144 66.279C32.5191 66.6216 31.5172 63.6393 30.9336 60.7931L30.9344 60.7895Z" fill="#F9BD29"/>
<path d="M39.5935 82.4091C38.9312 81.6121 38.5101 80.8125 38.4893 80.1302C40.5465 80.4348 44.4991 81.2751 46.4932 82.6194C49.3157 84.5268 49.1921 87.0088 45.8097 86.3379C43.693 85.9166 41.0555 84.1701 39.5935 82.4091Z" fill="#F9BD29"/>
<path d="M59.704 89.2625C58.8883 90.5596 55.9317 89.1968 54.5525 86.9392C52.9729 84.3543 52.3322 81.4474 51.9758 78.7139C54.5461 79.9383 58.5231 83.743 59.5772 86.7404C60.0142 87.9824 60.0007 88.7961 59.7054 89.2647L59.704 89.2625Z" fill="#F9BD29"/>
<path d="M60.3384 96.6605C59.0238 95.4854 57.8405 94.1929 57.0277 93.3222C58.7034 92.9506 62.4492 93.4586 64.4009 94.1011C66.399 94.7593 68.6897 97.3445 67.1588 98.7533C65.3587 100.411 62.6457 98.7216 60.337 96.6583L60.3384 96.6605Z" fill="#F9BD29"/>
<path d="M47.3677 90.4295C50.3013 89.5318 56.0337 88.9678 55.8508 92.5145C55.6095 97.1983 48.2762 93.5506 46.0209 90.9731C46.3164 90.799 46.7861 90.6076 47.3677 90.4295Z" fill="#F9BD29"/>
<path d="M67.0857 91.0531C66.897 90.1988 66.8712 89.6321 67.1286 89.6829C70.0137 90.2652 74.1408 93.2325 74.8414 95.9248C75.5998 98.8352 72.0628 99.5544 69.9422 97.4861C68.1004 95.6918 67.5613 93.209 67.0857 91.0531Z" fill="#F9BD29"/>
<path d="M27.1817 34.3349C27.3551 32.8082 27.0079 31.3508 26.6232 29.8869C26.529 29.5311 27.0915 29.4229 27.1858 29.7787C27.5838 31.2918 27.9343 32.8018 27.7529 34.3731C27.7114 34.7399 27.1402 34.7017 27.1817 34.3349Z" fill="url(#paint12_linear_559_21066)"/>
<path d="M30.6144 48.8808C29.8866 47.2843 29.2258 45.4748 27.7583 44.3977C27.4614 44.1808 27.834 43.7477 28.1309 43.9646C29.6747 45.0992 30.3835 47.0025 31.1516 48.6856C31.3058 49.0212 30.7672 49.2142 30.6144 48.8808Z" fill="url(#paint13_linear_559_21066)"/>
<path d="M34.3829 38.4365C34.8991 36.1739 35.4124 33.7977 36.7719 31.8699C36.9817 31.5714 37.4877 31.8397 37.2757 32.1395C35.9446 34.031 35.4466 36.3457 34.9404 38.5624C34.8579 38.9221 34.3025 38.7948 34.3829 38.4365Z" fill="url(#paint14_linear_559_21066)"/>
<path d="M38.1908 51.229C38.8346 49.2462 39.2648 47.1814 40.4241 45.4152C40.6249 45.1074 41.1015 45.4248 40.9008 45.7326C39.7714 47.4553 39.3618 49.4765 38.7346 51.4093C38.621 51.7584 38.0786 51.5803 38.1922 51.2311L38.1908 51.229Z" fill="url(#paint15_linear_559_21066)"/>
<path d="M33.0588 38.9044C33.8653 37.3369 34.8211 35.865 35.4562 34.8598C36.2378 36.3884 36.6876 40.1404 36.5563 42.193C36.422 44.293 34.4975 47.1599 32.7485 46.0322C30.6922 44.7094 31.6445 41.6572 33.0588 38.9044Z" fill="#F9BD29"/>
<path d="M26.1452 39.8303C25.8332 37.2658 26.6297 34.0795 27.4968 31.6012C29.0165 33.5897 30.6746 37.1935 30.6629 40.2722C30.6494 43.6375 27.4855 44.7496 26.619 42.0451C26.3921 41.3398 26.2397 40.5991 26.1474 39.8289L26.1452 39.8303Z" fill="#F9BD29"/>
<path d="M28.8828 46.7835C28.9683 45.9116 29.1196 45.3652 29.3485 45.495C31.9105 46.9434 34.9156 51.0425 34.7475 53.8202C34.5654 56.8227 30.9804 56.4092 29.6072 53.7862C28.4122 51.5078 28.6693 48.9829 28.885 46.7822L28.8828 46.7835Z" fill="#F9BD29"/>
<path d="M37.3637 49.9033C38.0042 48.9919 38.7803 48.3065 39.619 48.0366C40.3467 50.0645 41.4231 54.0501 40.8116 56.4011C39.9465 59.7316 36.7749 60.5327 35.7969 57.1371C35.1845 55.0142 35.9474 51.9131 37.3637 49.9033Z" fill="#F9BD29"/>
<path d="M38.687 62.4388C37.8122 60.5324 36.3942 58.9254 35.6899 56.9342C35.5685 56.5928 36.0778 56.3303 36.1998 56.6774C36.9041 58.6687 38.32 60.277 39.1969 62.182C39.3497 62.5155 38.8412 62.7744 38.687 62.4388Z" fill="url(#paint16_linear_559_21066)"/>
<path d="M37.5731 64.4027C37.5086 62.6184 37.5913 60.8977 37.5492 59.9404C39.4854 61.1943 42.1444 63.0788 43.2106 65.3364C44.2113 67.4537 42.7447 70.5802 40.5931 70.6642C38.2271 70.7549 37.6833 67.4822 37.5744 64.4049L37.5731 64.4027Z" fill="#F9BD29"/>
<path d="M35.0101 10.2649C35.1719 8.0987 36.1381 6.18281 36.8196 4.15455C36.8984 3.92183 37.263 4.04064 37.1821 4.27474C36.5119 6.26843 35.5506 8.1539 35.3908 10.2854C35.3721 10.5313 34.9893 10.5122 35.008 10.2663L35.0101 10.2649Z" fill="#D26E28"/>
<path d="M29.8055 14.8839C28.803 13.2903 28.7449 11.3499 28.8025 9.5238C28.8106 9.27559 29.1927 9.29821 29.1854 9.54289C29.1295 11.3101 29.1791 13.1709 30.1485 14.7128C30.2823 14.9218 29.9358 15.0921 29.8068 14.8861L29.8055 14.8839Z" fill="#D26E28"/>
<path d="M35.5486 17.1928C36.1479 15.9706 36.6051 14.6449 37.6308 13.6994C37.812 13.5318 38.0657 13.8188 37.8845 13.9865C36.8892 14.9035 36.4492 16.2181 35.8669 17.4052C35.7592 17.626 35.4396 17.4115 35.5486 17.1928Z" fill="#D26E28"/>
<path d="M27.9375 25.5755C27.8795 24.7925 27.6235 24.0087 27.3867 23.2642C27.1366 22.4706 26.8569 21.626 26.4022 20.9209C26.2684 20.7119 26.6106 20.5444 26.7439 20.7476C27.1979 21.4471 27.4644 22.2758 27.7218 23.0618C27.9914 23.8763 28.2538 24.732 28.3189 25.5925C28.3371 25.839 27.9551 25.8164 27.9361 25.5734L27.9375 25.5755Z" fill="#D26E28"/>
<path d="M34.4566 40.9357C34.4668 39.6473 34.1468 38.2939 34.9023 37.1448C35.038 36.9393 35.3563 37.1517 35.2205 37.3571C34.5154 38.4284 34.8473 39.7529 34.8395 40.9548C34.837 41.2024 34.4564 41.1819 34.4566 40.9357Z" fill="#D26E28"/>
<path d="M28.7323 38.4857C28.3282 36.8398 27.8842 35.2074 27.8374 33.5029C27.8306 33.2551 28.2126 33.2777 28.2202 33.5219C28.2669 35.1932 28.7109 36.7922 29.107 38.4067C29.1671 38.6476 28.7911 38.7244 28.7323 38.4857Z" fill="#D26E28"/>
<path d="M32.5023 31.5654C33.5595 29.2843 34.1798 26.6908 35.8678 24.7591C36.0266 24.5754 36.3491 24.7849 36.1861 24.9714C34.5197 26.8801 33.9102 29.4334 32.8648 31.6856C32.7628 31.9058 32.3974 31.7905 32.5023 31.5654Z" fill="#D26E28"/>
<path d="M37.3406 55.3991C37.5058 53.4706 37.7055 51.5627 38.3049 49.7146C38.3823 49.4797 38.7448 49.5999 38.6674 49.8348C38.0785 51.6518 37.8844 53.5258 37.7234 55.4182C37.7012 55.6633 37.3197 55.6464 37.3406 55.3991Z" fill="#D26E28"/>
<path d="M32.7393 52.0947C31.1954 50.3435 30.472 47.9666 28.7285 46.3828C28.5464 46.2169 28.8348 45.9654 29.0156 46.1291C30.7626 47.7137 31.4811 50.0876 33.0264 51.841C33.1898 52.0249 32.9027 52.2787 32.7393 52.0947Z" fill="#D26E28"/>
<path d="M34.0364 62.3529C32.7247 61.021 31.9191 59.3316 30.8448 57.8204C30.703 57.6226 30.9887 57.3668 31.1319 57.5666C32.2048 59.0758 33.011 60.7708 34.3235 62.0991C34.4962 62.274 34.2092 62.5278 34.0364 62.3529Z" fill="#D26E28"/>
<path d="M40.2389 65.4312C39.4346 64.0569 38.7185 62.6352 38.0023 61.2135C37.8914 60.9929 38.2331 60.8197 38.344 61.0403C39.0601 62.4619 39.7763 63.8836 40.5806 65.2579C40.7058 65.4724 40.3627 65.6435 40.2389 65.4312Z" fill="#D26E28"/>
<path d="M70.7173 93.6809C69.7532 92.6216 68.9013 91.3294 67.5703 90.7025C67.3487 90.5984 67.4675 90.2337 67.6905 90.34C69.0989 91.0024 69.9846 92.3093 71.0057 93.4293C71.1713 93.6119 70.8842 93.8656 70.7187 93.6831L70.7173 93.6809Z" fill="#D26E28"/>
<path d="M64.4979 96.1823C62.8393 95.3429 61.1261 94.6268 59.3608 94.0381C59.1259 93.9607 59.2482 93.5968 59.481 93.6755C61.2773 94.2747 63.02 95.0085 64.7102 95.864C64.9302 95.9752 64.7144 96.2927 64.4979 96.1823Z" fill="#D26E28"/>
<path d="M46.5261 90.612C48.3286 90.7608 50.0512 91.3161 51.7573 91.8788C51.9922 91.9562 51.872 92.3188 51.6372 92.2414C49.962 91.6891 48.2755 91.138 46.5078 90.9913C46.2605 90.9705 46.281 90.5898 46.5269 90.6085L46.5261 90.612Z" fill="#D26E28"/>
<path d="M56.1412 85.0499C55.2307 83.2727 53.9264 81.7721 52.6132 80.2863C52.4499 80.1024 52.7369 79.8486 52.9003 80.0326C54.2343 81.5415 55.558 83.0722 56.4828 84.8766C56.5959 85.0958 56.2542 85.2691 56.1412 85.0499Z" fill="#D26E28"/>
<path d="M40.1629 81.1917C39.9288 81.1107 40.049 80.7482 40.2831 80.8291C42.2103 81.4904 43.807 82.8735 45.7834 83.403C46.0214 83.4662 45.9012 83.8288 45.6632 83.7655C43.6833 83.2353 42.0879 81.8543 40.1629 81.1917Z" fill="#D26E28"/>
<path d="M45.425 75.7227C45.0457 74.5045 44.6757 73.2865 44.3713 72.0476C44.3112 71.8067 44.6872 71.7299 44.746 71.9686C45.0525 73.2061 45.4218 74.4277 45.7997 75.6438C45.872 75.88 45.4995 75.9576 45.425 75.7227Z" fill="#D26E28"/>
<path d="M37.8958 72.9739C37.4182 72.2045 36.6262 71.6698 35.8801 71.1878C35.129 70.7028 34.3406 70.2782 33.5925 69.7884C33.3871 69.6526 33.5994 69.3344 33.8048 69.4701C35.3025 70.452 37.2582 71.2195 38.2375 72.8006C38.3692 73.011 38.0248 73.1799 37.8958 72.9739Z" fill="#D26E28"/>
<path d="M71.2318 97.8969C69.4104 96.6515 69.1445 94.012 68.3068 92.1396C68.2059 91.9157 68.5475 91.7424 68.6485 91.9664C69.0677 92.9008 69.3418 93.8978 69.7003 94.8559C70.0708 95.8519 70.5359 96.9574 71.4441 97.5787C71.6488 97.718 71.4364 98.0362 71.2318 97.8969Z" fill="#E8F5F7"/>
<path d="M73.1104 96.0562C73.0455 94.9921 72.2293 94.1873 71.4628 93.5361C71.277 93.3787 71.4879 93.0583 71.6752 93.2178C72.5604 93.9692 73.4198 94.8556 73.4932 96.0753C73.5078 96.3211 73.1258 96.2985 73.1104 96.0562Z" fill="#E8F5F7"/>
<path d="M57.3651 88.4542C55.7696 86.812 54.0838 85.2186 53.0246 83.1569C52.9115 82.9377 53.2532 82.7645 53.3662 82.9837C54.4097 85.0159 56.0811 86.5821 57.6522 88.2004C57.8242 88.3789 57.5358 88.6304 57.3651 88.4542Z" fill="#E8F5F7"/>
<path d="M58.0266 85.717C57.7411 85.0341 57.2614 84.4938 56.7169 84.0042C56.5326 83.8397 56.821 83.5881 57.004 83.7504C57.5723 84.2583 58.0719 84.8344 58.3682 85.5438C58.4627 85.7718 58.121 85.9451 58.0266 85.717Z" fill="#E8F5F7"/>
<path d="M46.4747 80.5204C44.9979 79.0209 44.373 77.073 43.7526 75.1131C43.6782 74.8783 44.0529 74.7993 44.1273 75.0341C44.7275 76.934 45.3302 78.8141 46.7632 80.2688C46.9359 80.4437 46.6489 80.6975 46.4761 80.5226L46.4747 80.5204Z" fill="#E8F5F7"/>
<path d="M47.4972 77.1279C47.0301 76.4792 46.6564 75.7678 46.1297 75.1635C45.9684 74.9782 46.2541 74.7223 46.4167 74.9097C46.9435 75.514 47.3172 76.2255 47.7842 76.8741C47.9261 77.0719 47.6404 77.3278 47.4972 77.1279Z" fill="#E8F5F7"/>
<path d="M42.5831 67.3637C42.325 65.4573 41.283 63.892 39.8894 62.6126C39.7073 62.4467 39.9979 62.1938 40.1765 62.3588C41.6147 63.6795 42.6923 65.3193 42.9564 67.2826C42.9881 67.5265 42.6148 67.6077 42.5817 67.3615L42.5831 67.3637Z" fill="#E8F5F7"/>
<path d="M41.0938 69.2328C40.2669 67.8516 39.813 66.256 38.8075 64.9801C38.6556 64.7858 38.9427 64.532 39.0945 64.7264C40.1215 66.031 40.5871 67.6496 41.4333 69.0609C41.5606 69.274 41.2176 69.4451 41.0916 69.2342L41.0938 69.2328Z" fill="#E8F5F7"/>
<path d="M39.4014 55.8789C39.4524 54.8013 39.4245 53.7286 39.2752 52.6608C39.2414 52.4182 39.6168 52.3357 39.6499 52.5818C39.8028 53.6837 39.8379 54.7913 39.7834 55.9016C39.7718 56.149 39.389 56.1299 39.4006 55.8825L39.4014 55.8789Z" fill="#E8F5F7"/>
<path d="M35.8608 54.9591C36.0773 53.9881 36.1306 52.9758 36.5187 52.0498C36.6144 51.8245 36.9777 51.9411 36.8812 52.17C36.4931 53.096 36.4384 54.1061 36.2233 55.0793C36.1706 55.3196 35.8067 55.1972 35.8608 54.9591Z" fill="#E8F5F7"/>
<path d="M31.4512 54.2807C30.2982 52.9596 29.7063 51.1911 29.2151 49.5372C29.1449 49.2997 29.521 49.2228 29.5897 49.4583C30.0623 51.045 30.6326 52.7606 31.7383 54.0269C31.8995 54.2123 31.6138 54.4682 31.4512 54.2807Z" fill="#E8F5F7"/>
<path d="M32.8943 44.1982C32.6901 42.6795 32.7576 40.7833 33.4558 39.3883C33.567 39.1682 33.8831 39.3819 33.7741 39.6006C33.447 40.2566 33.3435 41.0246 33.2671 41.7449C33.1825 42.5281 33.1649 43.3353 33.2711 44.1178C33.3028 44.3618 32.9295 44.4429 32.8964 44.1968L32.8943 44.1982Z" fill="#E8F5F7"/>
<path d="M34.2487 30.8777C35.1496 29.5808 35.4894 28.0387 35.9706 26.561C36.048 26.3261 36.4106 26.4463 36.3332 26.6812C35.8406 28.1935 35.4868 29.7658 34.5648 31.0914C34.4242 31.2939 34.1059 31.0816 34.2466 30.8791L34.2487 30.8777Z" fill="#E8F5F7"/>
<path d="M31.7942 29.4615C32.275 28.6281 32.8203 27.8384 33.3915 27.0655C33.5384 26.8681 33.8588 27.079 33.7097 27.2778C33.1371 28.0486 32.5897 28.8396 32.1125 29.6739C31.9879 29.8873 31.6718 29.6736 31.7942 29.4615Z" fill="#E8F5F7"/>
<path d="M33.7644 19.2294C33.9963 17.884 34.3483 16.4464 35.2387 15.375C35.3947 15.187 35.7151 15.3979 35.5569 15.5873C34.7116 16.6057 34.3665 17.9688 34.1451 19.2498C34.1038 19.4889 33.7202 19.4734 33.7622 19.2308L33.7644 19.2294Z" fill="#E8F5F7"/>
<path d="M36.4625 19.0053C36.8973 18.2803 37.1146 17.4576 37.6078 16.762C37.7498 16.5617 38.0702 16.7726 37.926 16.9744C37.435 17.6685 37.2155 18.4926 36.7807 19.2176C36.6548 19.4289 36.3366 19.2166 36.4625 19.0053Z" fill="#E8F5F7"/>
<path d="M35.6783 10.3789C36.1538 9.48503 36.4806 8.53451 36.7997 7.57675C36.8771 7.34188 37.2396 7.46206 37.1622 7.69693C36.834 8.68788 36.4896 9.66788 35.9965 10.5912C35.8804 10.8084 35.5622 10.596 35.6783 10.3789Z" fill="#E8F5F7"/>
<path d="M33.1431 11.9584C33.713 10.8278 34.195 9.65945 34.5952 8.45837C34.6726 8.2235 35.0387 8.34446 34.9578 8.57856C34.5449 9.81205 34.0489 11.0107 33.4613 12.1707C33.3502 12.3908 33.0327 12.1749 33.1431 11.9584Z" fill="#E8F5F7"/>
<path d="M60.0863 95.6258C59.87 95.5061 60.0837 95.19 60.2987 95.3075C61.6994 96.0811 62.8532 97.2376 64.347 97.8483C64.5745 97.9426 64.4543 98.3051 64.2269 98.2108C62.6971 97.5867 61.5187 96.4156 60.0863 95.6258Z" fill="#E8F5F7"/>
<path d="M51.3822 90.8479C52.3549 90.9722 53.2784 91.1857 54.1446 91.6607C54.361 91.7803 54.1473 92.0964 53.9323 91.979C53.1272 91.5377 52.2657 91.3452 51.3631 91.2308C51.1182 91.1993 51.1373 90.8165 51.3822 90.8479Z" fill="#E8F5F7"/>
<path d="M27.77 41.0957C27.5691 39.5537 26.8411 38.1609 26.5168 36.6492C26.4645 36.4063 26.8392 36.3273 26.8915 36.5702C27.2158 38.0819 27.9416 39.4761 28.1447 41.0168C28.1764 41.2607 27.8031 41.3419 27.77 41.0957Z" fill="#E8F5F7"/>
<path d="M34.2524 72.0447C34.0826 71.8649 34.3697 71.6112 34.5395 71.791C35.5792 72.9021 36.3651 74.3521 37.8248 74.9664C38.0501 75.062 37.9335 75.4253 37.7046 75.3289C36.1618 74.6797 35.3514 73.2151 34.2511 72.0426L34.2524 72.0447Z" fill="#E8F5F7"/>
<path d="M33.7774 64.6272C33.0397 63.76 32.4162 62.8197 31.9564 61.7746C31.8576 61.5493 32.1993 61.376 32.2981 61.6013C32.7464 62.6143 33.3463 63.5272 34.0631 64.3713C34.2221 64.558 33.9364 64.8139 33.776 64.625L33.7774 64.6272Z" fill="#E8F5F7"/>
<path d="M27.6673 29.0005C26.8727 27.6413 27.1494 25.9391 26.2939 24.6128C26.1601 24.4039 26.5045 24.2349 26.6355 24.4396C27.4939 25.7702 27.2165 27.4667 28.009 28.8273C28.1342 29.0417 27.7912 29.2128 27.6673 29.0005Z" fill="#E8F5F7"/>
<path d="M29.9652 18.1951C29.3322 17.4675 28.9277 16.6178 28.6307 15.7084C28.4716 15.218 28.3545 14.7127 28.2467 14.2077C28.1355 13.6926 28.2122 12.9965 27.8907 12.5705C27.7432 12.3734 28.0303 12.1196 28.1778 12.3168C28.4098 12.6269 28.4723 12.9331 28.498 13.3146C28.5315 13.846 28.6653 14.3679 28.7927 14.8847C29.0675 15.9967 29.4891 17.0723 30.2502 17.9428C30.4114 18.1281 30.1257 18.384 29.9631 18.1965L29.9652 18.1951Z" fill="#E8F5F7"/>
<path d="M41.2752 82.8347C41.0901 82.6738 41.3785 82.4222 41.5622 82.581C42.864 83.7218 44.5279 84.3419 46.1187 84.9665C46.3469 85.0572 46.2281 85.4219 45.9985 85.329C44.3394 84.6784 42.6349 84.0234 41.2773 82.8333L41.2752 82.8347Z" fill="#E8F5F7"/>
</g>
<defs>
<linearGradient id="paint0_linear_559_21066" x1="27.9981" y1="7.70081" x2="25.7815" y2="4.02942" gradientUnits="userSpaceOnUse">
<stop stop-color="#F8E283"/>
<stop offset="1" stop-color="#FBB22C"/>
</linearGradient>
<linearGradient id="paint1_linear_559_21066" x1="40.6736" y1="11.9841" x2="46.5476" y2="10.937" gradientUnits="userSpaceOnUse">
<stop stop-color="#F8E283"/>
<stop offset="1" stop-color="#FBB22C"/>
</linearGradient>
<linearGradient id="paint2_linear_559_21066" x1="26.5641" y1="17.8426" x2="27.3159" y2="12.6368" gradientUnits="userSpaceOnUse">
<stop stop-color="#F8E283"/>
<stop offset="1" stop-color="#FBB22C"/>
</linearGradient>
<linearGradient id="paint3_linear_559_21066" x1="39.5943" y1="21.4962" x2="45.6072" y2="18.8786" gradientUnits="userSpaceOnUse">
<stop stop-color="#F8E283"/>
<stop offset="1" stop-color="#FBB22C"/>
</linearGradient>
<linearGradient id="paint4_linear_559_21066" x1="36.3505" y1="2.02503" x2="33.6376" y2="-3.63415" gradientUnits="userSpaceOnUse">
<stop stop-color="#F8E283"/>
<stop offset="1" stop-color="#FBB22C"/>
</linearGradient>
<linearGradient id="paint5_linear_559_21066" x1="66.4955" y1="89.2839" x2="64.5688" y2="87.8095" gradientUnits="userSpaceOnUse">
<stop stop-color="#F8E283"/>
<stop offset="1" stop-color="#FBB22C"/>
</linearGradient>
<linearGradient id="paint6_linear_559_21066" x1="51.6053" y1="77.6637" x2="49.8251" y2="74.4328" gradientUnits="userSpaceOnUse">
<stop stop-color="#F8E283"/>
<stop offset="1" stop-color="#FBB22C"/>
</linearGradient>
<linearGradient id="paint7_linear_559_21066" x1="44.9092" y1="68.6643" x2="44.5751" y2="63.5593" gradientUnits="userSpaceOnUse">
<stop stop-color="#F8E283"/>
<stop offset="1" stop-color="#FBB22C"/>
</linearGradient>
<linearGradient id="paint8_linear_559_21066" x1="38.8274" y1="79.1948" x2="37.972" y2="81.784" gradientUnits="userSpaceOnUse">
<stop stop-color="#F8E283"/>
<stop offset="1" stop-color="#FBB22C"/>
</linearGradient>
<linearGradient id="paint9_linear_559_21066" x1="45.6298" y1="90.0256" x2="45.4123" y2="90.6839" gradientUnits="userSpaceOnUse">
<stop stop-color="#F8E283"/>
<stop offset="1" stop-color="#FBB22C"/>
</linearGradient>
<linearGradient id="paint10_linear_559_21066" x1="30.7278" y1="65.8424" x2="27.7212" y2="59.8814" gradientUnits="userSpaceOnUse">
<stop stop-color="#F8E283"/>
<stop offset="1" stop-color="#FBB22C"/>
</linearGradient>
<linearGradient id="paint11_linear_559_21066" x1="30.637" y1="55.017" x2="29.6436" y2="58.024" gradientUnits="userSpaceOnUse">
<stop stop-color="#F8E283"/>
<stop offset="1" stop-color="#FBB22C"/>
</linearGradient>
<linearGradient id="paint12_linear_559_21066" x1="28.3132" y1="30.4868" x2="26.0756" y2="33.794" gradientUnits="userSpaceOnUse">
<stop stop-color="#F8E283"/>
<stop offset="1" stop-color="#FBB22C"/>
</linearGradient>
<linearGradient id="paint13_linear_559_21066" x1="29.7767" y1="44.2419" x2="28.9602" y2="48.7213" gradientUnits="userSpaceOnUse">
<stop stop-color="#F8E283"/>
<stop offset="1" stop-color="#FBB22C"/>
</linearGradient>
<linearGradient id="paint14_linear_559_21066" x1="38.0172" y1="32.7906" x2="42.8498" y2="27.1848" gradientUnits="userSpaceOnUse">
<stop stop-color="#F8E283"/>
<stop offset="1" stop-color="#FBB22C"/>
</linearGradient>
<linearGradient id="paint15_linear_559_21066" x1="40.6437" y1="45.201" x2="38.5423" y2="51.5623" gradientUnits="userSpaceOnUse">
<stop stop-color="#F8E283"/>
<stop offset="1" stop-color="#FBB22C"/>
</linearGradient>
<linearGradient id="paint16_linear_559_21066" x1="38.2806" y1="57.1851" x2="36.7497" y2="61.8194" gradientUnits="userSpaceOnUse">
<stop stop-color="#F8E283"/>
<stop offset="1" stop-color="#FBB22C"/>
</linearGradient>
<clipPath id="clip0_559_21066">
<rect width="105.978" height="44.8566" fill="white" transform="matrix(-0.539719 -0.842676 -0.842676 0.539719 95 89.3056)"/>
</clipPath>
</defs>
</svg>
