<svg width="137" height="11" viewBox="0 0 137 11" fill="none" xmlns="http://www.w3.org/2000/svg">
<path d="M0.0302063 8.7717C5.63875 9.27516 11.1567 9.52689 16.6343 9.49668C19.353 9.45641 22.0616 9.40606 24.6393 9.27516C25.9382 9.22481 27.1969 9.13418 28.4555 9.07376C29.7142 9.01335 30.9527 8.95294 32.161 8.89253C32.7752 8.85225 33.3693 8.82204 33.9734 8.79183C34.5675 8.75155 35.1717 8.71126 35.7557 8.68105C36.3397 8.64077 36.9338 8.61059 37.5178 8.58038C38.1018 8.55018 38.6858 8.50989 39.2497 8.47969C40.3976 8.4092 41.5354 8.32865 42.643 8.25816C43.7506 8.17761 44.8482 8.07691 45.9155 8.02656C48.0703 7.88559 50.1043 7.74462 52.0476 7.61372C52.5309 7.58351 53.0042 7.54324 53.4775 7.5231C53.9507 7.50296 54.4139 7.48285 54.8771 7.45264C55.8035 7.41236 56.7097 7.37206 57.6058 7.33178C58.502 7.29151 59.3881 7.24117 60.2943 7.18075C60.7373 7.15054 61.1904 7.12033 61.6436 7.08005C62.0967 7.04985 62.5498 7.01964 63.0029 6.98943C64.8254 6.84847 66.6379 6.66722 68.4503 6.42556C68.8934 6.36515 69.3465 6.31481 69.7996 6.24432C70.2527 6.18391 70.7058 6.13355 71.1489 6.07313C72.035 5.96237 72.9412 5.83148 73.8273 5.70058C74.7033 5.56968 75.6095 5.42873 76.4856 5.27769C76.9185 5.20721 77.3717 5.12664 77.8147 5.04609C78.2578 4.96553 78.6907 4.89504 79.1438 4.81449C80.9059 4.50234 82.6982 4.13986 84.4402 3.75723C86.1822 3.35447 87.894 2.99197 89.5151 2.64962C91.1362 2.30726 92.6668 2.01527 94.1369 1.75347C95.617 1.51181 97.0267 1.3104 98.376 1.12916C99.7252 0.957982 101.014 0.806961 102.243 0.706269C102.847 0.655923 103.451 0.61563 104.025 0.595492C104.599 0.575354 105.163 0.565286 105.706 0.565286C106.794 0.565286 107.801 0.625717 108.808 0.676063C109.825 0.726409 110.832 0.766671 111.869 0.786809C112.12 0.786809 112.382 0.786819 112.644 0.796888C112.906 0.796888 113.158 0.806946 113.419 0.817015C113.943 0.817015 114.456 0.837153 114.98 0.847222C115.504 0.847222 116.007 0.867359 116.521 0.877428C117.024 0.887497 117.528 0.907665 118.031 0.907665C119.028 0.937873 120.035 0.94794 121.022 0.968078C122.008 0.988216 122.995 0.978125 123.962 1.00833C124.928 1.03854 125.855 1.09898 126.701 1.21981C127.556 1.35071 128.352 1.52186 129.077 1.76352C129.449 1.87428 129.802 2.01527 130.144 2.15624C130.487 2.2972 130.809 2.4583 131.131 2.61941C131.453 2.78052 131.745 2.96176 132.037 3.15308C132.188 3.2437 132.319 3.3444 132.46 3.44509C132.591 3.54578 132.732 3.64647 132.853 3.75723C133.366 4.19021 133.799 4.69367 134.162 5.23741C134.534 5.79121 134.837 6.39535 135.149 6.98943C135.773 8.19774 136.417 9.3859 137.001 10.6043C136.448 9.35569 135.833 8.13732 135.239 6.91894C134.937 6.31479 134.645 5.70058 134.293 5.13671C133.94 4.57283 133.517 4.05929 133.014 3.61625C132.893 3.50549 132.762 3.39475 132.621 3.29406C132.49 3.19337 132.36 3.08259 132.208 2.99196C131.916 2.80065 131.635 2.60936 131.312 2.44825C131 2.27707 130.678 2.11597 130.336 1.975C129.993 1.82396 129.651 1.68299 129.288 1.56216C128.563 1.31043 127.778 1.11909 126.922 0.978126C126.076 0.837158 125.15 0.766673 124.193 0.726396C123.237 0.68612 122.27 0.676064 121.304 0.645856C120.337 0.615649 119.36 0.585435 118.394 0.545158C117.9 0.535089 117.417 0.504894 116.913 0.494825C116.41 0.484756 115.927 0.45453 115.413 0.44446C114.9 0.44446 114.416 0.404196 113.903 0.394127C113.651 0.394127 113.399 0.37399 113.147 0.36392C112.896 0.36392 112.634 0.343783 112.392 0.333714C111.395 0.303506 110.419 0.243088 109.442 0.172603C108.465 0.102119 107.479 0.0316309 106.401 0.0114925C105.334 -0.0187151 104.176 0.011479 102.947 0.0920325C101.729 0.172586 100.45 0.313581 99.111 0.464618C97.7718 0.625725 96.3621 0.817027 94.882 1.04862C94.5094 1.10903 94.1369 1.15937 93.7542 1.22986C93.3817 1.30034 92.999 1.37085 92.6063 1.44133C91.831 1.59237 91.0355 1.74341 90.2199 1.91458C89.4043 2.08576 88.5686 2.25693 87.7228 2.43817C86.877 2.61942 86.011 2.7906 85.1652 2.98192C83.4635 3.35448 81.7417 3.69681 80.0501 3.99888C79.6171 4.06937 79.1942 4.13987 78.7612 4.21036C78.3383 4.28084 77.8952 4.35132 77.4723 4.4218C76.6265 4.56277 75.7505 4.70373 74.8946 4.82456C74.0387 4.95546 73.1527 5.07631 72.2867 5.18707C71.4107 5.29783 70.5246 5.40859 69.6587 5.49921C67.9066 5.73081 66.1646 5.90196 64.4227 6.04293C63.5466 6.10334 62.6908 6.16377 61.8248 6.21412C60.9589 6.25439 60.0929 6.31479 59.2169 6.35507C57.4548 6.44569 55.592 6.53632 53.5983 6.64709C53.3466 6.66722 53.0948 6.6773 52.8431 6.68737C52.5914 6.70751 52.3396 6.72765 52.0879 6.74778C51.5844 6.78806 51.0608 6.81825 50.5473 6.85853C49.5102 6.93908 48.4328 7.00958 47.3453 7.09013C46.2579 7.17069 45.1402 7.23111 44.0124 7.32174C42.8947 7.40229 41.7267 7.50298 40.5687 7.57346C39.4108 7.64395 38.1924 7.73457 36.9841 7.79499C36.682 7.81513 36.3699 7.82518 36.0678 7.84532C35.7557 7.86546 35.4536 7.8856 35.1415 7.90573C34.5172 7.94601 33.9029 7.98628 33.2686 8.02656C32.0099 8.10711 30.711 8.17762 29.402 8.23804C28.7475 8.26824 28.083 8.29843 27.4184 8.3387C26.7538 8.37898 26.0893 8.41927 25.4247 8.44948C24.0855 8.51996 22.7463 8.57031 21.4071 8.61059C20.7425 8.63073 20.0679 8.64078 19.4033 8.65085C18.7388 8.66091 18.0742 8.68106 17.3996 8.69113C16.0704 8.71127 14.7312 8.71127 13.392 8.69113C12.7174 8.68106 12.0427 8.66094 11.3681 8.6408C11.0257 8.63073 10.6935 8.62065 10.3511 8.60051C10.0088 8.60051 9.67648 8.58037 9.33413 8.57031C6.62552 8.48975 3.88669 8.30851 1.08746 8.06685C0.724968 8.29844 0.362491 8.54011 0 8.7717H0.0302063Z" fill="#EDD744"/>
</svg>
