<svg width="150" height="40" viewBox="0 0 150 40" fill="none" xmlns="http://www.w3.org/2000/svg">
<g clip-path="url(#clip0_0_129)">
<path d="M11.0522 2.64526C11.3486 3.97211 11.8059 7.53856 9.77341 11.1811C8.70633 13.0995 6.623 15.4743 5.32727 17.2745C2.7104 20.917 0.457688 27.1878 2.27849 32.6643C-0.982014 23.858 -0.456946 14.3419 2.0837 7.10754C3.68431 2.53539 6.07253 -0.752166 8.95193 0.152123C9.45159 0.371857 9.94278 0.532432 10.5187 1.3015C10.832 1.72406 10.9252 2.07902 11.0522 2.65371V2.64526Z" fill="#6D9127"/>
<path d="M9.04333 34.4728C9.12801 32.791 9.3482 31.0501 10.5338 28.8274C13.2608 23.6974 19.2906 23.1735 18.1812 9.43165C18.7401 10.4627 21.6873 21.4325 19.1043 31.9459C18.7317 33.4756 18.2744 34.6588 17.3174 36.2054C16.733 37.1519 15.3357 38.6647 14.4126 39.2732C13.6165 39.8056 12.5664 40.0592 11.3892 39.5943C11.0758 39.4591 10.3983 39.045 9.94102 38.2928C9.55145 37.6421 8.95864 36.087 9.04333 34.4728Z" fill="#6D9127"/>
<path d="M3.32014 22.9537C3.07454 25.0919 3.32014 30.1289 8.14737 33.8475C8.12196 34.008 7.67312 37.4055 10.2476 40C10.2476 40 8.99425 39.8056 7.19886 38.8422C-0.202899 34.887 2.91363 24.813 3.32014 22.9537Z" fill="#6D9127"/>
<path d="M16.014 21.3142C16.4036 19.0323 16.5729 13.4967 11.3477 9.49081C11.4408 9.22037 12.6773 6.25396 11.7965 2.41707C12.0336 3.09318 12.618 5.14684 15.1248 6.76949C18.597 9.01754 17.4876 16.142 16.014 21.3142Z" fill="#6D9127"/>
<path d="M42.7581 31.067V9.24572H39.0995C38.7777 10.1669 38.3458 10.8599 37.8038 11.3247C36.7113 12.2628 35.4579 12.7277 34.0352 12.7277C34.0521 12.4826 34.069 12.2544 34.0944 12.0431C34.1114 11.8318 34.213 11.4938 34.4078 11.0289C34.5941 10.5726 34.8312 10.1838 35.1276 9.86267C35.4156 9.54152 35.8814 9.25417 36.5081 8.99218C37.1348 8.73019 37.8715 8.59497 38.7184 8.59497H52.8444C53.6659 8.59497 54.3858 8.71329 54.9955 8.95838C55.6053 9.20347 56.0626 9.47391 56.3759 9.7866C56.6893 10.0993 56.9349 10.4712 57.1212 10.9275C57.3075 11.3754 57.4176 11.722 57.46 11.9501C57.4938 12.1868 57.5277 12.4403 57.5446 12.7192C56.1219 12.7192 54.8516 12.2544 53.7421 11.3163C53.4965 11.1135 53.2679 10.8346 53.0562 10.4881C52.836 10.1416 52.6835 9.84576 52.5904 9.60068L52.4464 9.23727H48.8133V31.0501H42.7665L42.7581 31.067Z" fill="#095B89"/>
<path d="M75.3827 12.584C75.3827 12.584 73.5365 13.6742 74.3834 15.1447C75.1117 16.404 73.4688 17.359 73.4688 17.359C74.0023 17.3674 78.3214 15.9476 75.3912 12.584H75.3827Z" fill="#095B89"/>
<path d="M55.0553 15.6349H60.5431V26.2075C60.5431 29.0556 61.661 30.4754 63.8883 30.4754C64.6759 30.4754 65.6414 30.1035 66.7847 29.3514V15.6349H72.2725V31.067H66.7847V30.0528C65.2857 31.0839 63.702 31.5994 62.0252 31.5994C59.8318 31.5994 58.1211 31.1092 56.8931 30.1373C55.6651 29.1654 55.0469 27.5005 55.0469 25.1426V15.6349H55.0553Z" fill="#095B89"/>
<path d="M111.152 15.5419C112.075 15.5419 112.769 15.9138 113.252 16.6491C113.726 17.3928 113.972 18.2464 113.972 19.2183C113.972 19.9704 113.896 20.5198 113.743 20.8747C112.879 20.6127 112.092 20.1056 111.38 19.3619C110.669 18.6098 110.152 17.621 109.831 16.3871C109.305 16.573 108.755 16.9026 108.171 17.3843C107.586 17.866 107.129 18.2971 106.79 18.6943L106.316 19.2859V31.5318H100.828V16.0321H106.316V18.2548C107.891 16.4547 109.509 15.5588 111.16 15.5588L111.152 15.5419Z" fill="#095B89"/>
<path d="M114.946 16.0321H120.434V26.6638C120.434 29.5119 121.552 30.9318 123.779 30.9318C124.567 30.9318 125.532 30.5599 126.675 29.8077V16.0321H132.163V31.4726H126.675V30.5092C125.176 31.5402 123.593 32.0558 121.916 32.0558C119.722 32.0558 118.012 31.5656 116.784 30.5937C115.556 29.6218 114.938 27.9569 114.938 25.599V16.0321H114.946ZM121.111 14.5278C121.145 13.0657 121.687 11.8065 122.712 10.7332C123.745 9.66829 125.041 8.95838 126.599 8.59497V11.7135C124.16 11.9755 122.331 12.9136 121.111 14.5193V14.5278Z" fill="#095B89"/>
<path d="M149.661 18.128C149.568 18.0013 149.424 17.8407 149.22 17.6632C149.026 17.4857 148.585 17.2407 147.899 16.9364C147.213 16.6237 146.468 16.4716 145.664 16.4716C144.63 16.4716 143.716 16.6829 142.903 17.1054C142.098 17.528 141.455 18.0773 140.989 18.7619C140.523 19.4464 140.167 20.1817 139.93 20.9677C139.693 21.7536 139.574 22.5481 139.574 23.3509C139.574 24.4919 139.803 25.599 140.252 26.6638C140.701 27.7287 141.438 28.6499 142.445 29.419C143.462 30.188 144.639 30.5683 145.994 30.5683C146.654 30.5683 147.298 30.4247 147.933 30.1458C148.568 29.8669 149.034 29.6134 149.314 29.3852C149.593 29.157 149.822 28.9542 149.991 28.7682C148.399 30.9571 146.214 32.0558 143.436 32.0558C141.014 32.0558 138.838 31.2276 136.89 29.5711C134.95 27.9146 133.977 25.8441 133.977 23.3509C133.977 21.7959 134.451 20.3761 135.399 19.083C136.348 17.79 137.542 16.8012 138.973 16.1166C140.404 15.4321 141.886 15.094 143.402 15.094C146.045 15.094 148.128 16.1082 149.652 18.128H149.661Z" fill="#095B89"/>
<path d="M88.3557 31.4642V9.65138H84.6972C84.3754 10.5726 83.9435 11.2656 83.4014 11.7304C82.309 12.6685 81.0556 13.1333 79.6328 13.1333C79.6498 12.8882 79.6667 12.66 79.6921 12.4488C79.709 12.2375 79.8107 11.8994 80.0054 11.4346C80.1918 10.9782 80.4289 10.5895 80.7253 10.2683C81.0132 9.94718 81.479 9.65983 82.1057 9.39784C82.7324 9.13585 83.4692 9.00063 84.3161 9.00063H98.4421C99.2636 9.00063 99.9834 9.11895 100.593 9.36404C101.203 9.60913 101.66 9.87957 101.974 10.1923C102.287 10.505 102.533 10.8768 102.719 11.3332C102.905 11.7811 103.015 12.1276 103.058 12.3558C103.091 12.5924 103.125 12.846 103.142 13.1249C101.72 13.1249 100.449 12.66 99.3398 11.722C99.0942 11.5191 98.8655 11.2402 98.6538 10.8937C98.4336 10.5472 98.2812 10.2514 98.188 10.0063L98.0441 9.64293H94.4109V31.4557H88.3642L88.3557 31.4642Z" fill="#095B89"/>
</g>
<defs>
<clipPath id="clip0_0_129">
<rect width="150" height="40" fill="white"/>
</clipPath>
</defs>
</svg>
