<svg width="233" height="119" viewBox="0 0 233 119" fill="none" xmlns="http://www.w3.org/2000/svg">
<g style="mix-blend-mode:multiply" opacity="0.34">
<path d="M100.97 118.746H72.901C71.4364 110.781 69.8012 103.177 68.0055 95.934C64.9859 83.7755 61.545 72.6201 57.753 62.6686C53.961 52.717 49.8279 43.9693 45.434 36.6762C45.0126 35.974 44.5913 35.3018 44.1599 34.6297C50.189 32.4227 56.2382 30.3261 62.2773 28.3498C68.1961 35.974 73.9042 44.832 79.221 55.225C84.8789 66.28 90.1055 79.0605 94.5496 93.5865C95.7133 97.0977 96.6864 101.04 97.7297 104.782C98.2714 106.628 98.6927 108.694 99.1642 110.651C99.6156 112.647 100.117 114.563 100.529 116.62C100.679 117.322 100.819 118.034 100.96 118.736L100.97 118.746ZM34.8103 108.674C33.4058 98.773 31.7506 89.0923 29.8446 79.8329C27.9385 70.5736 25.7616 61.7055 23.2737 53.5697C22.2706 50.2994 21.2072 47.1494 20.0937 44.1599C13.3122 47.0591 6.60092 50.1288 0 53.3791C1.40445 57.7831 2.66846 62.5984 3.75189 67.7848C5.71812 77.1946 7.11253 87.728 7.87495 98.7028C8.33641 105.264 8.56715 111.975 8.58721 118.746H36.1445C35.7332 115.366 35.2918 112.005 34.8203 108.674H34.8103ZM217.409 23.1433C215.011 20.9765 212.614 18.7093 210.206 16.6327L202.923 10.7741L195.57 5.61781C194.346 4.70491 193.112 4.04282 191.868 3.30047L188.156 1.1035C187.484 0.722295 186.802 0.371176 186.13 0C175.316 1.56496 163.047 3.57132 149.785 6.0893C152.754 7.15267 155.703 8.3966 158.653 9.90137C167.962 14.5561 177.131 21.9094 186.05 31.3092C194.968 40.7491 203.605 52.4863 211.901 66.0091C219.185 77.9369 226.177 91.2692 232.998 105.033V39.8362C227.872 33.7269 222.666 28.1592 217.389 23.1233L217.409 23.1433ZM177.121 107.099C173.67 98.6325 169.959 90.8479 166.106 83.645C158.382 69.2494 150.076 57.0809 141.538 46.5475C132.981 36.0542 124.173 27.1059 115.195 19.7626C113.159 18.0973 111.112 16.5023 109.056 14.9775C102.876 16.5023 96.5961 18.1375 90.256 19.893C96.1346 24.939 101.943 30.8478 107.621 37.7597C115.727 47.641 123.582 59.5587 130.925 74.0848C134.627 81.2374 138.098 89.4033 141.468 98.0206C143.856 104.491 146.153 111.323 148.28 118.736H181.415C180.051 114.713 178.616 110.821 177.121 107.099Z" fill="#9CC24C"/>
</g>
</svg>
