<svg width="39" height="8" viewBox="0 0 39 8" fill="none" xmlns="http://www.w3.org/2000/svg">
<path d="M9.5064 7.85548C9.5064 7.85548 9.59846 7.85547 9.80303 7.87593C9.99737 7.87593 10.294 7.89639 10.6725 7.91685C11.4191 7.94754 12.5034 7.97822 13.8126 7.97822C16.4209 8.0089 19.9497 7.79409 23.5296 7.26221C27.1301 6.68942 30.7202 5.78932 33.5535 4.49031C34.965 3.85614 36.1925 3.16061 37.1232 2.41393C38.0643 1.66726 38.7189 0.838734 38.9951 0C39.0564 0.0102285 38.5552 0.388695 37.7165 0.941032C36.8778 1.48314 35.681 2.18889 34.3616 2.90488C33.0421 3.62087 31.5794 4.35732 30.219 4.8892C28.8586 5.42108 27.6005 5.78931 26.6698 5.82C26.2606 5.8916 25.6265 5.97343 24.8184 6.05526C24.4093 6.09618 23.9694 6.13708 23.4785 6.178C22.9977 6.20868 22.4761 6.23937 21.9238 6.27005C20.8191 6.33142 19.6019 6.39279 18.3131 6.45416C17.6687 6.48484 17.0039 6.51554 16.339 6.536C15.6742 6.54623 14.9889 6.56669 14.3138 6.57692C12.9534 6.59738 11.5725 6.61782 10.2428 6.62805C8.91315 6.62805 7.62436 6.59738 6.43786 6.57692C5.25136 6.54624 4.16716 6.51553 3.22614 6.48484C2.29535 6.44393 1.51798 6.37234 0.945183 6.31097C-0.179948 6.29052 -0.210621 6.39279 0.38263 6.55645C0.679255 6.63827 1.12932 6.74056 1.67143 6.84284C2.21353 6.94513 2.8579 7.06787 3.53298 7.15992C4.88314 7.35426 6.3765 7.55885 7.53231 7.69182C8.10511 7.76342 8.60632 7.81456 8.95408 7.84524C9.30185 7.87593 9.5064 7.88615 9.5064 7.86569V7.85548Z" fill="#959636"/>
</svg>
