<svg width="17" height="7" viewBox="0 0 17 7" fill="none" xmlns="http://www.w3.org/2000/svg">
<path d="M8.32789 2.76001C5.92072 3.78434 3.49305 4.88034 1.34196 5.96613C0.840036 6.23246 0.338133 6.4988 0.112781 6.72415C-0.491573 7.33875 1.48539 6.77536 2.42777 6.48855C3.81062 6.05833 5.16274 5.5974 6.49436 5.09548C7.16018 4.83939 7.81573 4.58331 8.46106 4.32723C8.78884 4.19407 9.1064 4.06089 9.43418 3.92772C9.76197 3.79456 10.0795 3.66142 10.4073 3.52825C11.0833 3.22095 12.6608 2.59611 14.0744 1.92005C14.7812 1.58202 15.4367 1.244 15.9386 0.936701C16.4303 0.629402 16.7684 0.383562 16.8093 0.199183C16.9015 -0.200306 15.7645 0.0557754 14.4329 0.485994C13.091 0.916212 11.5238 1.50008 10.7658 1.79713C9.96682 2.09419 9.15762 2.40147 8.3484 2.7395L8.32789 2.76001Z" fill="#EDD744"/>
</svg>
