<svg width="154" height="84" viewBox="0 0 154 84" fill="none" xmlns="http://www.w3.org/2000/svg">
<g clip-path="url(#clip0_341_202864)">
<path d="M22.8663 5.49693C23.481 8.24559 24.417 15.6609 20.2165 23.2396C18.0044 27.2296 13.6875 32.1623 11.0097 35.9096C5.59837 43.4789 0.932126 56.5083 4.70424 67.8856C-2.03899 49.5829 -0.953931 29.8103 4.30374 14.7696C7.62879 5.25893 12.5651 -1.56374 18.526 0.307592C19.5645 0.769592 20.5751 1.09159 21.7626 2.68759C22.4099 3.56026 22.6008 4.30226 22.8709 5.49693H22.8663Z" fill="white"/>
<path d="M18.714 71.6382C18.8863 68.1428 19.352 64.5262 21.7969 59.9015C27.4458 49.2335 39.9124 48.1555 37.6165 19.5908C38.7714 21.7375 44.8766 44.5342 39.5305 66.3788C38.7528 69.5662 37.8167 72.0162 35.8329 75.2362C34.6221 77.2008 31.7255 80.3508 29.8301 81.6155C28.1769 82.7122 26.0068 83.2442 23.5758 82.2875C22.9378 82.0122 21.5221 81.1395 20.5814 79.5762C19.7711 78.2322 18.551 74.9935 18.714 71.6428V71.6382Z" fill="white"/>
<path d="M6.87279 47.6982C6.36984 52.1316 6.8821 62.6176 16.8712 70.3456C16.82 70.6769 15.8839 77.7469 21.2115 83.1369C21.2115 83.1369 18.6222 82.7309 14.9013 80.7336C-0.415308 72.5062 6.02057 51.5669 6.87279 47.6982Z" fill="white"/>
<path d="M33.1343 44.2912C33.9446 39.5499 34.2845 28.0512 23.4805 19.7259C23.6714 19.1612 26.2234 13.0059 24.4072 5.02588C24.9008 6.43521 26.1116 10.7052 31.2948 14.0652C38.4898 18.7272 36.1753 33.5439 33.1389 44.2912H33.1343Z" fill="white"/>
<path d="M66.2403 32.116V0.924H61.0339C60.5775 2.23533 59.9675 3.22467 59.1898 3.89667C57.639 5.236 55.8507 5.90333 53.8203 5.90333C53.8483 5.558 53.8715 5.22667 53.8995 4.91867C53.9274 4.61067 54.0718 4.13 54.3419 3.472C54.6073 2.81867 54.9473 2.26333 55.3618 1.806C55.7762 1.35333 56.4282 0.938 57.327 0.56C58.2211 0.186667 59.2689 0 60.4704 0H80.5837C81.7619 0 82.7818 0.172667 83.6479 0.522667C84.5141 0.872667 85.1708 1.26467 85.6132 1.708C86.0556 2.15133 86.4095 2.69267 86.6749 3.332C86.9404 3.976 87.1034 4.46133 87.1546 4.79733C87.2058 5.13333 87.2478 5.502 87.2757 5.90333C85.2453 5.90333 83.443 5.236 81.8643 3.89667C81.5151 3.60267 81.1891 3.206 80.8817 2.71133C80.5744 2.21667 80.3555 1.79667 80.2204 1.44667L80.0202 0.924H74.851V32.116H66.2357H66.2403Z" fill="white"/>
<path d="M112.691 5.69336C112.691 5.69336 110.059 7.25203 111.261 9.35203C112.295 11.1534 109.957 12.5207 109.957 12.5207C110.721 12.5347 116.873 10.5047 112.691 5.69803V5.69336Z" fill="white"/>
<path d="M83.7461 10.0522H91.5604V25.1722C91.5604 29.2416 93.1484 31.2762 96.3291 31.2762C97.4514 31.2762 98.8252 30.7396 100.455 29.6709V10.0522H108.269V32.1162H100.455V30.6696C98.3176 32.1396 96.059 32.8769 93.684 32.8769C90.5592 32.8769 88.119 32.1816 86.3726 30.7909C84.6216 29.4002 83.7461 27.0156 83.7461 23.6462V10.0522Z" fill="white"/>
<path d="M98.6956 60.3867C100.004 60.3867 101.001 60.9141 101.681 61.9734C102.361 63.0327 102.701 64.2554 102.701 65.6461C102.701 66.7194 102.593 67.5081 102.379 68.0167C101.15 67.6434 100.027 66.9201 99.0123 65.8467C97.9971 64.7781 97.2613 63.3594 96.8096 61.5907C96.0598 61.8567 95.2728 62.3327 94.4438 63.0141C93.6149 63.6954 92.9629 64.3207 92.4786 64.8807L91.7987 65.7254V83.2347H83.9844V61.0681H91.7987V64.2414C94.0433 61.6701 96.3392 60.3867 98.691 60.3867H98.6956Z" fill="white"/>
<path d="M104.102 61.0913H111.916V76.2907C111.916 80.36 113.504 82.3947 116.685 82.3947C117.807 82.3947 119.181 81.858 120.811 80.7893V61.096H128.625V83.1693H120.811V81.7973C118.673 83.2673 116.414 84.0047 114.039 84.0047C110.915 84.0047 108.474 83.3093 106.728 81.9187C104.977 80.528 104.102 78.1433 104.102 74.774V61.1007V61.0913ZM112.875 58.94C112.926 56.854 113.69 55.0433 115.157 53.5173C116.624 51.9913 118.468 50.974 120.685 50.4653V54.922C117.211 55.2953 114.608 56.6347 112.871 58.9353L112.875 58.94Z" fill="white"/>
<path d="M153.514 64.0873C153.379 63.9006 153.175 63.6813 152.895 63.4246C152.616 63.1726 151.987 62.8226 151.014 62.3793C150.04 61.936 148.979 61.7166 147.828 61.7166C146.357 61.7166 145.048 62.02 143.903 62.622C142.752 63.224 141.844 64.0126 141.178 64.9926C140.512 65.968 140.009 67.018 139.674 68.1426C139.339 69.2673 139.171 70.406 139.171 71.554C139.171 73.1873 139.492 74.7646 140.135 76.2906C140.778 77.8166 141.816 79.128 143.26 80.2246C144.704 81.3213 146.385 81.872 148.308 81.872C149.244 81.872 150.166 81.6713 151.074 81.27C151.982 80.8686 152.639 80.5093 153.039 80.1873C153.44 79.8653 153.761 79.5713 154.003 79.3053C151.731 82.4366 148.62 84.0046 144.666 84.0046C141.22 84.0046 138.114 82.8193 135.352 80.4533C132.586 78.0826 131.203 75.1193 131.203 71.5586C131.203 69.3373 131.878 67.3026 133.229 65.4546C134.579 63.6066 136.275 62.1973 138.319 61.2173C140.363 60.242 142.468 59.752 144.629 59.752C148.397 59.752 151.358 61.1986 153.524 64.0873H153.514Z" fill="white"/>
<path d="M66.2403 83.1599V51.9679H61.0339C60.5775 53.2793 59.9675 54.2686 59.1898 54.9406C57.639 56.2799 55.8507 56.9473 53.8203 56.9473C53.8483 56.6019 53.8715 56.2706 53.8995 55.9626C53.9274 55.6546 54.0718 55.1739 54.3419 54.5159C54.6073 53.8626 54.9473 53.3073 55.3618 52.8499C55.7762 52.3973 56.4282 51.9819 57.327 51.6039C58.2211 51.2306 59.2689 51.0439 60.4704 51.0439H80.5837C81.7572 51.0439 82.7818 51.2166 83.6479 51.5666C84.5141 51.9166 85.1708 52.3086 85.6132 52.7519C86.0556 53.1953 86.4095 53.7366 86.6749 54.3759C86.9404 55.0199 87.1034 55.5053 87.1546 55.8413C87.2058 56.1773 87.2478 56.5459 87.2757 56.9473C85.2453 56.9473 83.443 56.2799 81.8643 54.9406C81.5151 54.6466 81.1891 54.2499 80.8817 53.7553C80.5744 53.2606 80.3555 52.8406 80.2204 52.4906L80.0202 51.9679H74.851V83.1599H66.2357H66.2403Z" fill="white"/>
</g>
<defs>
<clipPath id="clip0_341_202864">
<rect width="154" height="84" fill="white"/>
</clipPath>
</defs>
</svg>
