<svg width="406" height="222" viewBox="0 0 406 222" fill="none" xmlns="http://www.w3.org/2000/svg">
<mask id="mask0_390_19036" style="mask-type:luminance" maskUnits="userSpaceOnUse" x="0" y="-3" width="465" height="225">
<path d="M0 221.261H403.338L451.653 221.451C461.334 221.491 467.301 210.879 462.235 202.63C332.257 -9.11035 0 -2.44277 0 -2.44277V221.271V221.261Z" fill="white"/>
</mask>
<g mask="url(#mask0_390_19036)">
<g style="mix-blend-mode:screen" opacity="0.73">
<path d="M399.583 79.8206C398.492 81.5726 397.381 83.2845 396.319 85.0566C394.337 88.7307 392.215 92.2748 390.353 96.039C388.551 99.8534 386.618 103.558 384.916 107.432L379.971 119.165C377.047 127.224 373.974 135.173 371.581 143.513C368.878 151.672 366.836 160.162 364.653 168.551C363.482 172.706 362.721 177.051 361.78 181.306L359.067 194.1C357.605 202.75 356.104 211.38 354.722 220.03L351.378 246.19L341.097 244.017L345.812 217.597C347.654 208.867 349.606 200.177 351.528 191.497L354.932 178.653C356.104 174.388 357.095 170.063 358.496 165.888C361.139 157.499 363.632 149.049 366.796 140.93C369.639 132.651 373.163 124.772 376.527 116.843L382.133 105.31C384.045 101.505 386.198 97.8911 388.21 94.1769C390.283 90.5127 392.615 87.0789 394.798 83.5348C395.959 81.8229 397.17 80.171 398.362 78.4891C399.553 76.8172 400.724 75.1253 402.026 73.5835C402.967 72.3622 403.948 71.1808 404.929 69.9995C405.289 70.1597 405.65 70.3198 406 70.48C404.969 71.8616 403.958 73.2632 402.977 74.6948C401.766 76.3066 400.694 78.0786 399.593 79.8206H399.583ZM330.425 43.2992C330.054 43.189 329.674 43.0789 329.303 42.9788C326.72 45.2514 324.167 47.574 321.645 49.9567C313.836 57.4352 306.347 65.4543 299.209 73.944C284.953 90.9533 271.968 109.745 260.565 129.988C254.879 140.119 249.453 150.521 244.557 161.313C242.004 166.639 239.762 172.185 237.389 177.642C235.186 183.208 232.894 188.724 230.861 194.401C222.562 216.996 215.774 240.513 210.528 264.57L220.64 267.734C224.905 244.077 230.701 220.841 238.02 198.335C239.812 192.689 241.854 187.173 243.816 181.616C245.949 176.16 247.941 170.604 250.263 165.258C254.679 154.415 259.634 143.923 264.88 133.662C275.392 113.148 287.526 93.8966 301.051 76.2666C307.829 67.4666 314.967 59.0971 322.465 51.2282C325.078 48.5251 327.741 45.8821 330.435 43.2992H330.425ZM370.78 56.354C370.52 56.2639 370.26 56.1638 369.999 56.0737C366.435 59.3374 362.991 62.8113 359.628 66.3954C357.946 68.2375 356.224 70.0195 354.572 71.9216L349.726 77.7282C346.413 81.5125 343.499 85.7674 340.386 89.812C328.292 106.391 317.77 124.712 308.339 143.873L301.552 158.47C299.309 163.355 297.427 168.471 295.355 173.477C291.08 183.418 287.746 193.9 284.102 204.222C282.19 209.348 280.808 214.714 279.216 219.99L274.551 235.888C271.808 246.63 269.275 257.472 266.622 268.285L276.734 271.448C278.916 260.756 280.968 250.004 283.251 239.322L287.205 223.504C288.567 218.248 289.718 212.882 291.39 207.776C294.564 197.474 297.427 186.972 301.241 176.991C303.094 171.975 304.745 166.819 306.748 161.894L312.855 147.157C321.374 127.775 331.035 109.084 342.348 91.9744C345.261 87.7997 347.984 83.3947 351.118 79.4602L355.693 73.4133C357.245 71.4311 358.887 69.569 360.489 67.6368C363.802 63.7424 367.216 59.9481 370.77 56.374L370.78 56.354ZM298.308 34.6994C297.858 34.5893 297.407 34.4791 296.957 34.369C292.742 36.8018 288.597 39.4448 284.532 42.2079L280.228 45.0712L276.053 48.2247L267.693 54.5319C262.307 59.0971 256.901 63.6423 251.605 68.3876C230.521 87.5894 211.459 110.135 193.769 134.122C175.799 157.869 160.081 184.069 144.744 210.549C141.009 217.257 137.526 224.175 133.891 230.972C130.317 237.82 126.673 244.618 123.149 251.506L103.237 293.794L112.417 300.001L130.968 257.412C134.262 250.464 137.686 243.617 141.04 236.699C144.443 229.831 147.707 222.833 151.221 216.055C165.667 189.285 180.514 162.705 197.654 138.487C214.513 114.029 232.784 90.9132 253.177 70.9906C258.303 66.075 263.549 61.3396 268.775 56.5742L276.904 49.9667L280.968 46.663L285.173 43.6395C289.468 40.486 293.843 37.4725 298.308 34.6994ZM-32.4174 240.433L-25.0591 229.23C-19.9533 222.012 -14.7173 214.924 -9.56148 207.756C-4.34556 200.648 0.730191 193.36 6.05624 186.392C27.7509 159.011 49.886 131.97 74.2537 108.273L83.2739 99.2026C84.7556 97.6509 86.3274 96.2493 87.8992 94.8577L92.5945 90.6429L101.995 82.2133L106.7 77.9986C108.252 76.5669 109.834 75.1854 111.486 73.9339L131.018 58.4163C137.696 53.6109 144.473 48.9856 151.201 44.2602C158.059 39.8653 165.037 35.7406 171.995 31.5558L182.677 25.9795L188.023 23.1863L193.479 20.7636C197.103 19.1017 200.757 17.5199 204.451 16.0482C203.651 15.9181 202.85 15.7979 202.049 15.6678C199.035 16.7891 196.032 17.9704 193.059 19.2118L187.522 21.4544L182.096 24.0673L171.234 29.2933C164.156 33.2477 157.038 37.1522 150.03 41.3369C143.162 45.8521 136.234 50.2671 129.396 54.8723L109.374 69.7992C107.682 71.0006 106.06 72.3421 104.458 73.7237L99.6225 77.7983L89.9515 85.9576L85.116 90.0422C83.4942 91.3938 81.8823 92.7453 80.3606 94.257L71.0701 103.077C45.9515 126.113 23.0355 152.583 0.499942 179.464C-5.03634 186.312 -10.3123 193.47 -15.7385 200.458C-21.1146 207.506 -26.5508 214.484 -31.8768 221.602L-32.4174 222.382V240.423V240.433ZM140.809 7.4885C138.777 7.25824 136.765 7.03799 134.752 6.81774C129.066 8.62979 123.359 10.4318 117.703 12.4441C111.126 15.1372 104.498 17.7201 97.9406 20.5133L78.5586 29.954C76.9267 30.6948 75.3449 31.5959 73.7831 32.5169L69.0578 35.22L59.597 40.6361L54.8616 43.3492C53.2798 44.2302 51.7081 45.1513 50.1864 46.2125L40.9859 52.2994C16.2078 68.0473 -6.97856 87.2991 -29.8746 107.001C-30.7355 107.772 -31.5765 108.593 -32.4274 109.374V122.039C-30.0547 119.636 -27.672 117.243 -25.2493 114.91C-3.12417 94.5674 19.3513 74.5847 43.4587 58.0459L52.4189 51.6587C53.9006 50.5574 55.4223 49.5763 56.9741 48.6452L61.5893 45.782L70.8198 40.0455L75.435 37.1722C76.9668 36.2011 78.5085 35.25 80.1103 34.4491L99.0819 24.3276C105.509 21.3042 112.007 18.491 118.474 15.5577C125.021 12.9447 131.639 10.6221 138.246 8.21932L140.799 7.47849L140.809 7.4885ZM22.8453 302.183H34.3684L45.6812 278.126C49.7959 270.097 54.0407 262.158 58.2054 254.169C62.4302 246.23 66.4949 238.13 70.8598 230.301C88.7301 199.406 107.081 168.742 128.045 140.98C148.698 112.928 170.953 86.4982 195.611 63.9326C201.808 58.3763 208.126 53.0102 214.443 47.6441L224.224 40.2056L229.119 36.4814L234.165 33.1076C238.941 29.8339 243.806 26.7103 248.742 23.817C248.231 23.7169 247.721 23.6168 247.21 23.5167C242.595 26.0596 238.04 28.7827 233.565 31.6459L228.419 34.8596L223.423 38.4236L213.412 45.5517C206.944 50.7176 200.467 55.8834 194.1 61.2596C168.771 83.0843 145.745 108.904 124.28 136.455C102.486 163.726 83.2939 193.96 64.5326 224.535C59.9474 232.274 55.6626 240.293 51.2175 248.162C46.8225 256.081 42.3575 263.95 38.0125 271.919L22.8453 302.173V302.183ZM67.6061 0.790891C63.5916 0.510573 59.6771 0.240273 55.8428 0C37.6621 3.71422 19.6717 9.38065 2.26194 17.2396C-7.16877 21.4243 -16.4493 26.1597 -25.5096 31.5358C-27.8322 32.8673 -30.1348 34.2589 -32.4174 35.6805V45.5617C-29.1938 43.2591 -25.9401 40.9965 -22.6363 38.8741C-13.9565 33.1276 -5.01633 27.9818 4.10402 23.3565C22.3047 13.9959 41.3163 7.048 60.6983 2.33265C62.9909 1.78203 65.2935 1.27144 67.5961 0.790891H67.6061Z" fill="#2A3521"/>
</g>
</g>
</svg>
