<svg width="74" height="116" viewBox="0 0 74 116" fill="none" xmlns="http://www.w3.org/2000/svg">
<path d="M30.5759 4.76252C36.0688 3.96209 41.6918 3.2217 47.4348 2.55135C56.5496 1.48078 65.4143 0.640338 73.9988 0C70.8172 2.2712 67.4154 4.97263 63.9535 8.17432C57.0899 14.5177 52.7576 20.3407 50.1562 23.8426C47.1647 27.8947 44.9035 31.4366 43.3827 33.9779C42.7824 32.7873 41.4917 30.7562 39.0904 29.4656C38.0198 28.8953 36.1589 27.8947 34.468 28.6151C33.5775 28.9953 33.0672 29.7257 32.2368 30.9163C31.2363 32.3471 30.756 33.6478 30.5759 34.178C29.6754 36.8294 29.8155 39.1207 29.9356 40.7915C30.2357 44.8537 31.5464 47.7752 31.8866 48.4956C33.3874 51.6973 35.2984 53.6483 36.3189 54.5788C38.4601 56.5298 39.6907 56.6899 40.0409 56.73C42.182 56.9401 43.8529 55.5693 44.3532 55.1091C45.4338 57.6804 46.7645 60.4719 48.3953 63.4035C50.3363 66.8953 52.3574 69.9269 54.2684 72.5183C53.8882 77.4509 53.9483 81.1128 54.0983 83.6742C54.1884 85.235 54.4085 88.0965 52.9877 88.8669C52.5675 89.097 52.1173 89.087 51.7971 89.037C51.3569 88.8169 50.7266 88.5968 50.0962 88.7769C49.3958 88.977 49.0056 89.5673 48.9056 89.7174C48.1452 90.7979 43.973 94.71 36.8993 101.043C36.5891 101.724 36.2789 102.404 35.9588 103.084C31.7065 104.385 27.3342 105.826 22.8418 107.427C15.528 110.038 8.68436 112.79 2.321 115.601C1.79072 114.27 1.12037 112.319 0.630106 109.908C-0.370422 104.995 -0.200328 100.163 1.29046 93.2092C3.42158 83.294 7.0335 74.6894 10.1451 68.4261C11.9761 64.9343 14.3073 60.2318 16.6986 54.5488C21.0609 44.2033 23.3721 35.989 24.963 30.276C26.874 23.4224 28.925 14.8278 30.5559 4.78253L30.5759 4.76252Z" fill="#010101"/>
</svg>
