<svg width="37" height="7" viewBox="0 0 37 7" fill="none" xmlns="http://www.w3.org/2000/svg">
<path d="M2.43628 0.0100832C2.10386 0.312285 1.89232 0.624555 1.81173 0.886462C1.72107 1.15844 1.74122 1.39012 1.84195 1.60166C2.03335 2.01467 2.51688 2.31687 3.14143 2.53848C3.44363 2.64929 3.80627 2.73998 4.17898 2.82057C4.54163 2.90115 4.96471 2.93137 5.43816 2.94144C6.39513 2.97166 7.48305 2.9213 8.55083 2.881C9.61861 2.84071 10.6662 2.81048 11.6131 2.8407C12.0765 2.86085 12.5399 2.89105 12.9328 2.95149C13.3256 3.01193 13.6882 3.09252 14.0408 3.17311C14.7258 3.34436 15.3604 3.53577 16.0555 3.69694C16.7505 3.85812 17.506 3.96891 18.3824 3.99913C20.1654 4.03943 22.3715 3.7473 24.225 3.71708C25.1618 3.68686 26.0181 3.75739 26.7131 3.91856C27.4283 4.06966 28.0227 4.29126 28.617 4.5028C29.2113 4.72442 29.7956 4.94605 30.4604 5.11729C31.1152 5.29862 31.8707 5.38925 32.6564 5.46984C34.2077 5.62094 35.8396 5.68138 36.998 6.1649C35.8094 5.7116 34.1573 5.68138 32.5557 5.5605C31.7599 5.50005 30.9641 5.4094 30.2791 5.24822C29.584 5.08705 28.9696 4.87553 28.345 4.67406C27.7205 4.4726 27.0959 4.27113 26.3807 4.14018C25.6655 3.99915 24.8294 3.96892 23.8825 4.00922C22.9457 4.03944 21.9182 4.14017 20.8806 4.23083C19.8431 4.32149 18.7854 4.40206 17.8183 4.40206C16.8613 4.40206 16.0354 4.28118 15.2899 4.15023C14.5445 4.01927 13.8796 3.83796 13.1644 3.68686C12.8119 3.61635 12.4391 3.54583 12.0362 3.49546C11.6433 3.4451 11.2001 3.42496 10.7367 3.41489C9.79991 3.40482 8.74222 3.44511 7.63415 3.50555C7.08011 3.53577 6.52607 3.56597 5.96196 3.58612C5.40792 3.61634 4.85388 3.63651 4.31999 3.63651C3.79618 3.63651 3.28243 3.60627 2.86943 3.52568C2.45642 3.45517 2.05348 3.37457 1.70091 3.26377C0.985699 3.04215 0.401456 2.75003 0.139548 2.29673C0.00859385 2.06504 -0.0417792 1.80314 0.0388078 1.48079C0.129468 1.15844 0.361163 0.775659 0.864832 0.292137C1.39872 0.201476 1.92254 0.100734 2.44636 0L2.43628 0.0100832Z" fill="#EDD744"/>
</svg>
