<svg width="99" height="94" viewBox="0 0 99 94" fill="none" xmlns="http://www.w3.org/2000/svg">
<path d="M43.9312 0.0100933C41.1158 1.70541 37.2105 4.35939 33.1135 8.25459C29.3798 11.8067 27.079 14.8744 23.5773 19.587C20.9133 23.1794 17.4722 28.1039 13.7889 34.2697C13.244 33.1092 11.6697 30.1525 8.38002 28.8608C7.38099 28.4672 6.04894 27.9425 4.64627 28.4269C2.47667 29.1837 1.62902 31.8579 0.872178 34.2697C0.145613 36.5604 0.0346034 38.4474 0.014421 39.0831C-0.157129 43.4123 1.24554 46.6818 1.90147 48.1854C2.69867 50.0018 4.3839 53.7053 8.08737 56.0868C10.5092 57.6509 11.8917 57.4188 12.3862 57.2876C13.6173 56.9748 14.4145 56.0868 14.7879 55.5721C15.353 57.1968 16.1805 59.3967 17.3612 61.9296C18.1079 63.524 20.3078 68.0852 24.5763 73.9482C26.4836 76.5719 29.6926 80.9817 33.3355 84.2513C34.2639 85.0787 47.7053 96.7744 63.9118 93.3535C75.7689 90.8509 82.3585 81.6982 86.5867 75.8352C94.7605 64.4826 96.3045 52.9282 98.0906 39.5978C99.6446 28.0333 98.8172 20.6365 98.4337 17.7807C97.4952 10.7976 95.6889 5.11623 94.1349 1.12012C77.4037 0.746748 60.6725 0.373374 43.9413 0L43.9312 0.0100933Z" fill="#F2D4AF"/>
</svg>
