<svg width="42" height="42" viewBox="0 0 42 42" fill="none" xmlns="http://www.w3.org/2000/svg">
<g clip-path="url(#clip0_500_18670)">
<path d="M19.2362 25.9088C20.9953 24.7377 22.3308 23.0316 23.0452 21.0428C23.7597 19.054 23.8151 16.8881 23.2034 14.8653C22.5917 12.8425 21.3452 11.0703 19.6484 9.81074C17.9515 8.55117 15.8944 7.87109 13.7811 7.87109C11.6679 7.87109 9.61072 8.55117 7.91387 9.81074C6.21702 11.0703 4.97057 12.8425 4.35883 14.8653C3.74709 16.8881 3.80255 19.054 4.517 21.0428C5.23145 23.0316 6.56696 24.7377 8.32604 25.9088C5.14403 27.0816 2.42653 29.2518 0.579008 32.0956C0.481909 32.24 0.414464 32.4021 0.380593 32.5727C0.346722 32.7434 0.347102 32.919 0.381709 33.0895C0.416316 33.2599 0.484461 33.4218 0.582182 33.5657C0.679904 33.7096 0.805252 33.8326 0.950942 33.9276C1.09663 34.0227 1.25976 34.0878 1.43083 34.1192C1.60191 34.1506 1.77753 34.1478 1.94748 34.1107C2.11743 34.0737 2.27832 34.0032 2.4208 33.9034C2.56329 33.8037 2.68452 33.6766 2.77745 33.5295C3.96918 31.6966 5.59991 30.1904 7.52154 29.1477C9.44317 28.105 11.5948 27.5589 13.7811 27.5589C15.9674 27.5589 18.1191 28.105 20.0407 29.1477C21.9623 30.1904 23.5931 31.6966 24.7848 33.5295C24.9773 33.8157 25.2747 34.0145 25.6126 34.0831C25.9506 34.1517 26.3019 34.0846 26.5908 33.8962C26.8796 33.7078 27.0827 33.4133 27.1561 33.0764C27.2296 32.7394 27.1675 32.3871 26.9832 32.0956C25.1357 29.2518 22.4182 27.0816 19.2362 25.9088ZM6.56237 17.7188C6.56237 16.2911 6.98574 14.8954 7.77895 13.7083C8.57215 12.5212 9.69957 11.596 11.0186 11.0496C12.3377 10.5032 13.7891 10.3603 15.1894 10.6388C16.5897 10.9173 17.876 11.6049 18.8855 12.6144C19.8951 13.624 20.5826 14.9102 20.8612 16.3105C21.1397 17.7108 20.9967 19.1623 20.4504 20.4813C19.904 21.8004 18.9788 22.9278 17.7916 23.721C16.6045 24.5142 15.2089 24.9376 13.7811 24.9376C11.8673 24.9354 10.0324 24.1742 8.67909 22.8209C7.32578 21.4676 6.56454 19.6327 6.56237 17.7188ZM41.0385 33.9118C40.7469 34.1019 40.3918 34.1684 40.0512 34.0968C39.7106 34.0251 39.4125 33.821 39.2223 33.5295C38.032 31.6955 36.4015 30.1887 34.4794 29.1464C32.5574 28.1042 30.405 27.5597 28.2186 27.5626C27.8705 27.5626 27.5367 27.4243 27.2905 27.1782C27.0444 26.932 26.9061 26.5982 26.9061 26.2501C26.9061 25.902 27.0444 25.5682 27.2905 25.322C27.5367 25.0759 27.8705 24.9376 28.2186 24.9376C29.2817 24.9366 30.3314 24.7008 31.2928 24.2471C32.2542 23.7933 33.1035 23.1329 33.78 22.3129C34.4566 21.4929 34.9437 20.5335 35.2065 19.5035C35.4693 18.4734 35.5014 17.398 35.3004 16.3541C35.0994 15.3102 34.6703 14.3235 34.0438 13.4647C33.4174 12.6058 32.6089 11.8959 31.6763 11.3858C30.7436 10.8756 29.7098 10.5777 28.6487 10.5133C27.5875 10.449 26.5253 10.6198 25.5378 11.0136C25.3768 11.0832 25.2035 11.1198 25.0281 11.1213C24.8527 11.1228 24.6788 11.0891 24.5167 11.0222C24.3545 10.9554 24.2074 10.8567 24.084 10.732C23.9607 10.6073 23.8636 10.4592 23.7984 10.2963C23.7333 10.1335 23.7014 9.95919 23.7048 9.78382C23.7081 9.60845 23.7466 9.43553 23.8179 9.27528C23.8892 9.11503 23.9919 8.9707 24.1199 8.85081C24.248 8.73092 24.3987 8.63791 24.5633 8.57728C26.8232 7.676 29.3368 7.64357 31.6192 8.48623C33.9016 9.3289 35.7911 10.987 36.9231 13.1405C38.0552 15.2941 38.3495 17.7906 37.7495 20.1485C37.1494 22.5063 35.6975 24.5584 33.6737 25.9088C36.8557 27.0816 39.5732 29.2518 41.4207 32.0956C41.6108 32.3872 41.6774 32.7423 41.6057 33.0829C41.534 33.4235 41.33 33.7216 41.0385 33.9118Z" fill="#6D9127"/>
</g>
<defs>
<clipPath id="clip0_500_18670">
<rect width="42" height="42" fill="white"/>
</clipPath>
</defs>
</svg>
