<svg width="32" height="22" viewBox="0 0 32 22" fill="none" xmlns="http://www.w3.org/2000/svg">
<path d="M0.000140333 19.1286C0.000140333 19.1286 -0.010025 19.0573 0.142678 18.9962C0.295381 18.9352 0.621142 18.8639 1.28285 18.8435C1.94457 18.8435 2.95241 18.8435 4.46926 18.9657C5.23277 19.0268 6.11843 19.1184 7.15681 19.2406C8.19519 19.3627 9.37611 19.546 10.7301 19.7292C10.7301 19.7292 11.4121 19.8005 12.1655 19.8107C12.5421 19.8107 12.9392 19.8107 13.2751 19.7801C13.6111 19.7394 13.8961 19.6783 14.059 19.5663C14.3237 19.3729 15.5046 19.1591 16.5328 19.2813C17.225 19.3729 17.846 19.3016 18.3041 19.1489C19.3731 18.8537 20.9917 18.2429 22.6307 17.3063C23.4451 16.838 24.2697 16.2883 25.0332 15.6571C25.7967 15.0158 26.489 14.2828 27.0489 13.4684C28.1891 11.8396 28.7694 9.84427 28.4741 7.56391C28.3214 6.41354 27.9448 5.2021 27.3441 3.93976C27.0387 3.30859 26.6824 2.66721 26.2549 2.0055C25.8375 1.35397 25.3488 0.671893 24.8093 0C24.8296 0.0203604 25.0332 0.132359 25.359 0.366503C25.6949 0.600647 26.1531 0.946784 26.6926 1.39471C27.7717 2.30075 29.2173 3.70559 30.4491 5.66018C31.5791 7.57406 32.5462 10.0479 31.6402 12.6845C31.4162 13.3463 31.0497 13.9978 30.5509 14.6697C30.2964 14.9954 30.0113 15.3416 29.6754 15.6673C29.3394 15.9931 28.9628 16.3189 28.5352 16.6446C27.6801 17.2962 26.6417 17.9477 25.3692 18.5788C24.0967 19.1998 22.6002 19.7801 20.8492 20.3706C20.2791 20.5436 19.7904 20.7778 19.3934 21.0425C19.1185 21.2257 18.6401 21.4497 17.846 21.5617C17.052 21.6838 15.9423 21.6634 14.4153 21.4395C13.2751 21.2766 12.0942 21.1341 10.954 21.0425C10.3839 21.0017 9.83422 20.961 9.30485 20.9203C8.77548 20.8796 8.26646 20.8389 7.79817 20.8083C6.85141 20.7472 6.04719 20.7167 5.48728 20.6963C4.91719 20.6862 4.59141 20.676 4.58123 20.676C4.58123 20.676 4.3471 20.6658 3.99079 20.6251C3.6243 20.5844 3.13565 20.5131 2.61646 20.4113C2.09727 20.3095 1.54754 20.1466 1.08943 19.9328C0.621139 19.719 0.234274 19.4543 0.0204895 19.1184L0.000140333 19.1286Z" fill="#97AB3B"/>
</svg>
