<svg width="288" height="53" viewBox="0 0 288 53" fill="none" xmlns="http://www.w3.org/2000/svg">
<mask id="mask0_390_19206" style="mask-type:luminance" maskUnits="userSpaceOnUse" x="0" y="-2" width="288" height="55">
<path d="M288 13.1472C288 35.0094 223.724 52.7292 144 52.7292C64.2758 52.7292 0 35.0094 0 13.1472V-1.62102H287.99V13.1472H288Z" fill="white"/>
</mask>
<g mask="url(#mask0_390_19206)">
<path d="M22.6521 69.3687C23.7227 70.4092 22.9623 79.5543 22.9723 80.1146C22.9823 80.6849 25.1535 82.2458 25.6938 82.2458C26.2141 82.2458 29.9662 80.6549 29.686 79.7944C29.4059 78.944 29.1057 76.6527 29.1758 73.8011C32.2875 48.467 25.5337 0.810509 25.5337 0.810509L22.412 2.0212L10.5254 64.8761L22.0918 69.7389C22.0918 69.1685 22.2019 68.9184 22.6621 69.3687H22.6521Z" fill="#55391E"/>
<path d="M11.1026 5.08281C11.1026 4.8727 11.0826 4.67257 11.0726 4.47246C11.0726 5.2729 11.1226 5.94329 11.1026 5.08281Z" fill="#713D18"/>
<path d="M6.69202 77.8334C6.39185 76.3125 7.28236 73.9312 7.28236 73.9312C7.28236 73.9312 7.77262 74.6116 7.85267 75.9823L22.4108 2.0212L25.5325 0.810509C25.5325 0.810509 12.2751 1.63097 11.975 1.94114C11.4146 2.53147 11.2446 2.5615 11.1245 3.14182C11.0745 3.37195 11.0644 3.95227 11.0845 4.48256C11.0945 4.68268 11.1145 4.88277 11.1145 5.09289C11.1345 5.95337 11.0845 5.28301 11.0845 4.48256C10.9644 3.35194 10.6142 2.48146 10.274 2.24133C9.87379 1.96117 4.19063 2.5715 4.19063 2.5715C4.19063 2.5715 3.09002 3.08178 2.97996 4.22241C2.8699 5.36304 2.80987 5.42308 2.78985 4.28244C2.76984 3.14181 2.23955 3.1418 1.83933 3.15181C-0.401918 3.16181 -2.53311 4.20241 -2.65317 4.86278C-2.77324 5.53315 -0.481959 23.9134 -0.111753 29.8066C-0.381903 37.0407 1.33905 66.1669 1.44911 72.2602C1.55917 78.3436 5.97162 81.2953 5.97162 81.2953L6.74205 80.5049C6.74205 80.5049 6.9922 79.3642 6.70203 77.8434L6.69202 77.8334Z" fill="#713D18"/>
<path d="M-2.33316 6.94386C-2.21309 7.64425 -2.18308 8.36465 -2.08302 9.06504C-1.80287 11.0962 -1.57274 25.134 -1.35262 27.1651C-1.21254 28.4458 -1.11249 29.7165 -1.03245 30.9972C-1.3026 38.2313 0.42837 67.3575 0.538431 73.4508C0.648492 79.5442 2.38947 81.0551 2.38947 81.0551L6.09152 81.3152C6.09152 81.3152 6.07151 80.5548 5.78135 79.034C5.49119 77.5131 6.37168 75.1318 6.37168 75.1318C6.37168 75.1318 7.05206 76.0823 6.952 77.9834C6.85195 79.8844 6.74189 80.935 7.42226 81.5954C10.8642 82.2458 19.579 82.1857 21.0298 81.9856C20.3194 79.3241 20.7897 76.0923 21.1499 74.1813C21.29 73.4409 21.25 72.5604 21.2099 71.83C21.1499 70.6993 21.0899 69.9189 21.7502 70.5593C22.8308 71.5898 22.0704 80.7349 22.0704 81.3052C22.0704 81.8755 24.862 82.2357 25.3922 82.2357C25.9225 82.2357 26.833 81.8455 26.5629 80.9951C26.2827 80.1446 25.9726 77.8533 26.0526 75.0017C29.1644 49.6777 22.4106 2.01113 22.4106 2.01113C22.4106 2.01113 21.42 2.07117 20.0393 2.17122C19.8792 2.18123 19.7291 2.20125 19.559 2.21125C18.8286 2.26128 18.0082 2.32131 17.1777 2.39134C16.027 2.48139 14.8564 2.58143 13.8558 2.68148C12.9253 2.77153 12.1249 2.87161 11.6346 2.95165C11.2744 3.01169 11.0643 3.0717 11.0643 3.12173C11.0643 3.50194 11.0043 7.0239 10.8742 7.59422C10.7541 8.16454 10.2138 7.69429 10.1938 6.26349C10.1738 4.8327 9.75355 3.69206 9.35333 3.4119C9.1232 3.25181 7.27217 3.28182 5.71131 3.34185C4.54065 3.39188 3.64016 3.44192 3.64016 3.44192C3.64016 3.44192 2.75967 3.83213 2.63961 4.97277C2.52954 6.1134 1.87917 6.59368 1.85916 5.45304C1.83915 4.31241 1.66906 4.34242 1.30886 4.22235C1.04872 4.12229 0.608471 4.20234 0.258277 4.22235C0.258277 4.22235 -2.67336 4.55253 -2.67336 4.90272C-2.67336 5.26292 -2.34318 6.91385 -2.34318 6.91385L-2.33316 6.94386Z" fill="#A56428"/>
<path d="M2.76935 4.30244C2.76935 4.30244 2.76935 4.40248 2.75935 4.50253C2.75935 4.49253 2.76935 4.48255 2.76935 4.46253C2.76935 4.44252 2.76935 4.4325 2.76935 4.41249C2.76935 4.36246 2.76935 4.32244 2.76935 4.29243V4.30244Z" fill="#6B3717"/>
<path d="M6.37995 3.33178L6.31992 3.16167C6.31992 3.16167 6.31993 3.2217 6.33994 3.34176C6.34994 3.34176 6.36995 3.34176 6.37995 3.34176V3.33178Z" fill="#6B3717"/>
<g style="mix-blend-mode:multiply" opacity="0.42">
<path d="M8.21429 81.6854C8.21429 81.6854 7.80406 73.4108 7.37382 71.89C6.9736 70.4692 5.60283 49.1173 5.52279 44.3847C5.52279 44.0745 5.52279 43.8143 5.52279 43.6242C5.58282 42.6537 5.59284 41.1028 5.56282 39.3819C5.49278 35.5498 5.25265 30.8771 5.14259 29.8266C4.99251 28.3657 2.82128 6.39353 2.75124 4.47246C2.75124 4.48246 2.75125 4.49248 2.74124 4.51249C2.72123 4.86268 2.69122 5.6031 2.71123 6.58365C2.74125 8.20455 2.90134 10.4958 3.43163 12.7971C4.15203 15.8688 4.77237 31.5275 4.8324 34.9294C4.85241 36.2701 4.8024 37.5609 4.64231 38.7715C4.59228 39.1617 4.57226 39.7321 4.58226 40.4525C4.71234 47.6465 7.12368 73.721 7.1637 75.8822C7.20372 78.2635 8.19427 81.6854 8.19427 81.6854H8.21429Z" fill="#C97229"/>
<path d="M3.38066 69.8189C3.38066 69.8189 3.05047 63.1552 2.72029 61.9346C2.40011 60.7839 1.44959 42.8039 1.38956 39.0018C1.38956 38.7517 1.38956 38.5416 1.38956 38.3915C1.44959 37.611 1.44959 36.3604 1.41957 34.9796C1.36955 31.8979 1.17944 28.1458 1.08939 27.2953C0.969322 26.1046 -0.791657 5.95344 -0.801662 4.51264C-0.801662 4.47262 -0.801662 4.44261 -0.801662 4.42259C-0.801662 4.54266 -0.851689 5.23303 -0.831678 6.2536C-0.811667 7.56433 -0.691608 9.40535 -0.261368 11.2564C0.308949 13.7278 0.809222 28.6761 0.85925 31.4076C0.869255 32.4882 0.839245 33.5288 0.709173 34.4993C0.66915 34.8095 0.649136 35.2698 0.659142 35.8501C0.769203 41.6333 2.54019 63.4154 2.58021 65.1664C2.61022 67.0774 3.39067 69.829 3.39067 69.829L3.38066 69.8189Z" fill="#C97229"/>
<path d="M16.2872 82.1158C16.2572 81.8657 14.9765 76.7828 14.7063 75.0719C14.4061 73.2709 11.5245 53.4799 11.2244 51.1986C10.9142 48.9173 8.67296 34.2792 8.51287 32.2781C8.38279 30.7272 7.12209 9.30531 6.58179 5.143C6.93198 9.78558 7.99258 35.2497 8.51287 40.1725C9.14322 46.1658 11.0143 61.2042 11.6046 64.6261C12.1949 68.048 16.1371 81.7256 16.2772 82.1058C16.2772 82.1058 16.2772 82.1058 16.2772 82.1158H16.2872Z" fill="#C97229"/>
<path d="M25.5222 31.5976C24.6217 33.1285 23.0208 53.4198 23.0809 56.7516C23.1509 60.0835 24.0914 75.8723 24.1215 77.6833C24.1515 79.4943 24.9719 81.0051 25.102 80.9151C24.7018 80.6249 24.1415 64.0757 23.8813 56.8517C23.8613 56.5415 24.5617 52.099 24.5517 51.7589C24.4116 44.3247 25.5122 31.6076 25.5122 31.6076L25.5222 31.5976Z" fill="#C97229"/>
<path d="M21.0301 81.9857C21.0301 81.9857 20.75 81.4154 20.4798 80.9451C20.4798 80.9451 16.7678 65.8367 16.5677 61.9345C16.3675 58.0324 14.9868 47.8467 14.6866 46.4159C14.6666 46.3259 14.6566 46.2859 14.6566 46.3159C14.6566 46.6561 15.7772 62.1147 15.8172 64.596C15.8673 67.1575 18.5387 80.745 19.3392 82.0758C20.1296 82.0557 20.7099 82.0157 21.0101 81.9757L21.0301 81.9857Z" fill="#C97229"/>
<path d="M18.5403 11.5365C18.4603 7.38417 18.3402 2.93169 18.3202 2.31134C18.2902 3.43197 17.95 28.566 17.97 29.9367C18 31.3675 17.8499 44.875 17.8499 44.875C17.8499 44.875 13.6076 36.5304 12.9172 35.1096C12.2368 33.6888 9.90552 11.6165 9.62536 10.2858C9.3352 8.95504 7.25403 3.35193 7.25403 3.35193C7.25403 3.35193 8.13454 8.00452 8.84493 10.7661C9.55533 13.5176 9.94554 31.3175 12.547 36.0601C15.1384 40.8028 18.1601 47.1663 18.1601 47.1663C18.1601 47.1663 18.5803 33.6488 18.6304 29.3664C18.6504 27.9356 18.6004 13.7877 18.5503 11.5465L18.5403 11.5365Z" fill="#C97229"/>
<path d="M11.5153 8.95505C11.1651 8.02454 10.885 7.6043 10.885 7.6043C10.885 7.6043 11.1451 8.1446 11.5153 8.95505ZM15.1573 2.82164C15.1573 2.82164 14.477 8.91502 14.507 10.9161C14.537 12.9172 14.6571 30.0468 14.497 28.4259C14.3769 27.2552 12.5159 11.1263 11.5053 8.95505C11.6554 9.33526 11.8155 9.80552 11.9856 10.3558C12.5459 12.2569 15.2674 34.5093 15.3574 32.228C15.4475 29.9567 15.1573 3.00174 15.1573 2.82164Z" fill="#C97229"/>
</g>
<path d="M50.4864 70.6892C51.577 71.5797 50.8866 79.3341 50.8966 79.8143C50.9166 80.3046 53.1078 81.6253 53.6481 81.6253C54.1684 81.6253 57.9305 80.2846 57.6403 79.5542C57.3602 78.8338 57.03 76.8927 57.09 74.4713C60.0017 52.9794 53.3379 0.700341 53.3379 0.700341L50.2062 1.7209L38.2596 66.8371L49.926 70.9994C49.926 70.5092 50.0261 70.309 50.4964 70.6793L50.4864 70.6892Z" fill="#55391E"/>
<path d="M38.8702 4.28238C38.8702 4.10228 38.8502 3.93221 38.8302 3.77212C38.8502 4.4525 38.8902 5.01279 38.8702 4.28238Z" fill="#713D18"/>
<path d="M34.5056 77.8232C34.1955 76.5325 35.066 74.5114 35.066 74.5114C35.066 74.5114 35.5662 75.0917 35.6663 76.2524L50.2044 1.7209L53.3361 0.700341C53.3361 0.700341 40.0087 1.35069 39.7085 1.62084C39.1482 2.12111 38.9781 2.15114 38.8581 2.63141C38.818 2.82151 38.808 3.32181 38.818 3.77206C38.8381 3.94215 38.8481 4.11222 38.8581 4.28232C38.8781 5.01273 38.828 4.44243 38.818 3.77206C38.698 2.81152 38.3378 2.07109 37.9876 1.87097C37.5773 1.63084 31.8742 2.13113 31.8742 2.13113C31.8742 2.13113 30.7736 2.56138 30.6735 3.52192C30.5735 4.49246 30.5034 4.54247 30.4734 3.57193C30.4434 2.60139 29.9131 2.60139 29.5129 2.60139C27.2616 2.60139 25.1204 3.48188 25.0104 4.0422C24.8903 4.61251 27.3417 20.2212 27.7619 25.224C27.5518 31.3574 29.0126 67.8977 29.1727 73.0606C29.3228 78.2335 33.7852 80.7449 33.7852 80.7449L34.5657 80.0845C34.5657 80.0845 34.8058 79.1139 34.4956 77.8232H34.5056Z" fill="#713D18"/>
<path d="M25.3737 5.82322C25.4937 6.42355 25.5338 7.02387 25.6438 7.6242C25.944 9.34516 26.2942 21.2618 26.5343 22.9928C26.6744 24.0734 26.7945 25.154 26.8845 26.2446C26.6744 32.378 28.1452 68.9183 28.2953 74.0812C28.4554 79.244 30.2264 80.5348 30.2264 80.5348L33.9484 80.7649C33.9484 80.7649 33.9284 80.1245 33.6283 78.8238C33.3181 77.5331 34.1886 75.512 34.1886 75.512C34.1886 75.512 34.879 76.3224 34.7989 77.9333C34.7189 79.5542 34.6088 80.4347 35.2892 81.005C38.7511 81.5653 47.516 81.5453 48.9768 81.3852C48.2464 79.124 48.6866 76.3824 49.0368 74.7615C49.1669 74.1312 49.1169 73.3808 49.0668 72.7704C48.9968 71.8099 48.9368 71.1495 49.5971 71.6898C50.6877 72.5703 49.9974 80.3347 50.0174 80.8149C50.0274 81.2952 52.8289 81.6154 53.3592 81.6154C53.8895 81.6154 54.81 81.2852 54.5199 80.5648C54.2297 79.8444 53.9095 77.9033 53.9696 75.4819C56.8912 53.99 50.2175 1.72093 50.2175 1.72093C50.2175 1.72093 49.2269 1.77096 47.8362 1.851C47.6761 1.851 47.516 1.87101 47.3559 1.88102C46.6155 1.92104 45.795 1.97106 44.9546 2.0311C43.8039 2.11114 42.6233 2.19121 41.6227 2.27125C40.6822 2.34129 39.8917 2.42134 39.3815 2.49138C39.0313 2.5414 38.8111 2.59142 38.8211 2.63144C38.8211 2.95162 38.7911 5.94329 38.6711 6.42356C38.551 6.91383 38.0107 6.50359 37.9707 5.29292C37.9307 4.08225 37.5004 3.1117 37.1002 2.87156C36.8601 2.73148 34.999 2.76152 33.4382 2.80155C32.2575 2.83156 31.357 2.88158 31.357 2.88158C31.357 2.88158 30.4765 3.20176 30.3664 4.1723C30.2664 5.14284 29.616 5.54306 29.586 4.57252C29.566 3.60198 29.3859 3.63201 29.0257 3.52195C28.7556 3.4419 28.3153 3.50194 27.9651 3.52195C27.9651 3.52195 25.0235 3.79207 25.0335 4.09224C25.0335 4.39241 25.3737 5.80321 25.3737 5.80321V5.82322Z" fill="#A56428"/>
<path d="M34.1085 2.79168L34.0385 2.64161C34.0385 2.64161 34.0385 2.69163 34.0685 2.79168C34.0885 2.79168 34.0885 2.79168 34.1085 2.79168Z" fill="#6B3717"/>
<g style="mix-blend-mode:multiply" opacity="0.4">
<path d="M36.0663 81.0951C36.0663 81.0951 35.586 74.0712 35.1458 72.7805C34.7356 71.5698 33.695 41.6431 33.5649 37.6309C33.5649 37.3608 33.5649 37.1506 33.5649 36.9806C33.6249 36.1601 33.6149 34.8394 33.5649 33.3785C33.4649 30.1267 33.1847 26.1645 33.0646 25.264C32.9045 24.0233 30.5432 5.37298 30.4632 3.74207C30.4632 3.74207 30.4632 3.76208 30.4632 3.77209C30.4432 4.06225 30.4232 4.6926 30.4432 5.52306C30.4932 6.90383 30.6633 8.84491 31.2236 10.806C31.974 13.4174 32.7244 26.7048 32.8145 29.5964C32.8445 30.7271 32.8045 31.8277 32.6444 32.8483C32.5944 33.1784 32.5844 33.6687 32.5944 34.279C32.7845 40.3824 34.9157 74.3313 34.9757 76.1623C35.0357 78.1834 36.0563 81.0851 36.0563 81.0851L36.0663 81.0951Z" fill="#C97229"/>
</g>
<g style="mix-blend-mode:multiply" opacity="0.4">
<path d="M26.8822 3.66195C26.8822 3.66195 26.8822 3.66194 26.8822 3.68195C26.8822 3.67194 26.8822 3.66195 26.8822 3.66195ZM31.1145 71.0094C31.1145 71.0094 30.7243 65.3563 30.3841 64.3157C30.054 63.3351 29.4736 36.2701 29.3736 33.0383C29.3736 32.8282 29.3736 32.6481 29.3736 32.518C29.4236 31.8476 29.4136 30.797 29.3736 29.6164C29.2935 27.0049 29.0734 23.8131 28.9834 23.1028C28.8533 22.0922 26.9222 4.98269 26.8922 3.76201C26.8922 3.73199 26.8922 3.70196 26.8922 3.68195C26.8922 3.782 26.8422 4.37235 26.8722 5.23283C26.9022 6.34345 27.0523 7.90432 27.4825 9.48519C28.0829 11.5864 28.7032 24.2634 28.7733 26.5947C28.8033 27.5052 28.7732 28.3957 28.6432 29.2162C28.6032 29.4863 28.6032 29.8765 28.6132 30.3668C28.7632 35.2795 30.214 65.5764 30.2641 67.0572C30.3041 68.6781 31.1245 71.0194 31.1245 71.0194L31.1145 71.0094Z" fill="#C97229"/>
</g>
<g style="mix-blend-mode:multiply" opacity="0.4">
<path d="M44.1936 81.4854C44.1636 81.2753 42.8329 76.9529 42.5427 75.5021C42.2225 73.9712 39.6811 45.3553 39.3509 43.4142C39.0308 41.4831 36.6595 29.0462 36.4693 27.3553C36.3293 26.0345 34.8985 7.85444 34.3081 4.32247C34.6984 8.26466 35.9691 29.8867 36.5394 34.059C37.2298 39.1418 38.7106 63.7255 39.3409 66.6271C39.9613 69.5387 44.0335 81.1552 44.1836 81.4854H44.1936Z" fill="#C97229"/>
</g>
<g style="mix-blend-mode:multiply" opacity="0.4">
<path d="M53.5797 26.835C52.6892 28.1257 50.7381 57.1619 50.8282 59.9834C50.9182 62.805 51.9988 76.2125 52.0388 77.7533C52.0889 79.2842 52.9193 80.5749 53.0494 80.4948C52.6492 80.2547 51.9488 66.1969 51.6286 60.0635C51.6086 59.7933 52.7892 44.2247 52.7792 43.9345C52.5891 37.631 53.5797 26.835 53.5797 26.835Z" fill="#C97229"/>
</g>
<g style="mix-blend-mode:multiply" opacity="0.4">
<path d="M48.955 81.3952C48.955 81.3952 48.6749 80.9049 48.3947 80.5047C48.3947 80.5047 44.5526 67.6675 44.3125 64.3557C44.0823 61.0439 43.1118 40.5825 42.8116 39.3718C42.7916 39.2918 42.7816 39.2617 42.7816 39.2818C42.7816 39.5719 43.522 64.5058 43.5921 66.617C43.6521 68.7882 46.4536 80.3246 47.2741 81.4652C48.0645 81.4452 48.6549 81.4152 48.955 81.3852V81.3952Z" fill="#C97229"/>
</g>
<g style="mix-blend-mode:multiply" opacity="0.4">
<path d="M46.395 9.78538C46.285 6.26342 46.1149 2.49134 46.0948 1.95104C46.0748 2.90156 45.9348 24.2334 45.9748 25.3941C46.0048 26.6047 45.9648 38.0711 45.9648 38.0711C45.9648 38.0711 41.6324 30.9772 40.932 29.7665C40.2316 28.5558 37.7102 9.81539 37.41 8.68476C37.1099 7.55413 34.9687 2.7915 34.9687 2.7915C34.9687 2.7915 35.8892 6.75371 36.6296 9.08501C37.36 11.4263 37.9103 26.5347 40.5518 30.567C43.2032 34.5992 46.285 40.0022 46.285 40.0022C46.285 40.0022 46.5951 28.5358 46.6151 24.8938C46.6151 23.6831 46.4551 11.6664 46.395 9.76538V9.78538Z" fill="#C97229"/>
</g>
<g style="mix-blend-mode:multiply" opacity="0.4">
<path d="M39.3086 7.57434C38.9384 6.7839 38.6582 6.42371 38.6582 6.42371C38.6582 6.42371 38.9184 6.88396 39.3086 7.57434ZM42.9206 2.38145C42.9206 2.38145 42.2902 7.55434 42.3403 9.24528C42.3903 10.9462 42.6504 25.4843 42.4703 24.1135C42.3403 23.113 40.3291 9.42537 39.3086 7.57434C39.4587 7.89452 39.6288 8.29474 39.7989 8.76501C40.3792 10.3759 43.2908 29.2764 43.3708 27.3353C43.4409 25.4043 42.9206 2.53152 42.9206 2.37144V2.38145Z" fill="#C97229"/>
</g>
<path d="M79.0705 68.6181C80.1911 69.6687 79.1206 78.7138 79.1206 79.2841C79.1206 79.8444 81.3918 81.4253 81.9621 81.4353C82.5225 81.4353 86.5647 79.9244 86.2846 79.0739C86.0144 78.2235 85.7442 75.9522 85.9143 73.1306C89.9266 48.0767 84.0433 0.730387 84.0433 0.730387L80.6714 1.88102L66.2634 63.9755L78.4602 68.9883C78.4802 68.428 78.6003 68.1879 79.0805 68.6281L79.0705 68.6181Z" fill="#55391E"/>
<path d="M68.5367 4.72275C68.5367 4.51263 68.5367 4.31252 68.5167 4.12241C68.5067 4.91285 68.5367 5.57322 68.5367 4.72275Z" fill="#713D18"/>
<path d="M61.823 76.7427C61.5628 75.2318 62.5634 72.8905 62.5634 72.8905C62.5634 72.8905 63.0636 73.5809 63.1137 74.9317L80.6634 1.88102L84.0353 0.730387C84.0353 0.730387 69.8774 1.31069 69.5473 1.62087C68.9269 2.19118 68.7468 2.23122 68.6067 2.79153C68.5467 3.02166 68.5267 3.60197 68.5167 4.12226C68.5367 4.31236 68.5367 4.52249 68.5367 4.7226C68.5367 5.57307 68.4967 4.9127 68.5167 4.12226C68.4266 3.00163 68.0764 2.13117 67.7162 1.89104C67.296 1.60087 61.2226 2.12114 61.2226 2.12114C61.2226 2.12114 60.032 2.60143 59.8819 3.73206C59.7318 4.86268 59.6618 4.92272 59.6718 3.79209C59.6818 2.66146 59.1215 2.65144 58.6912 2.65144C56.2999 2.63143 53.9986 3.622 53.8585 4.27236C53.7084 4.93273 55.6495 23.1929 55.8697 29.0361C55.3894 36.2001 56.42 65.0862 56.3699 71.1295C56.3099 77.1729 60.9325 80.1645 60.9325 80.1645L61.7929 79.3941C61.7929 79.3941 62.0831 78.2635 61.813 76.7527L61.823 76.7427Z" fill="#713D18"/>
<path d="M54.1465 6.33363C54.2466 7.03402 54.2766 7.73439 54.3566 8.43477C54.6068 10.4559 54.4567 24.3636 54.6368 26.3948C54.7468 27.6655 54.8169 28.9262 54.8769 30.1969C54.3967 37.3609 55.4272 66.2569 55.3772 72.2903C55.3272 78.3236 57.1382 79.8545 57.1382 79.8545L61.0804 80.1747C61.0804 80.1747 61.0804 79.4243 60.8202 77.9134C60.5501 76.4026 61.5506 74.0513 61.5506 74.0513C61.5506 74.0513 62.241 75.0018 62.0909 76.8929C61.9309 78.7739 61.7808 79.8145 62.4812 80.4748C66.1332 81.1752 75.4283 81.2653 76.9792 81.0952C76.2988 78.4437 76.8892 75.2419 77.3294 73.3609C77.4995 72.6205 77.4795 71.76 77.4495 71.0296C77.4195 69.909 77.3794 69.1386 78.0598 69.7789C79.1805 70.8295 78.1098 79.8745 78.1098 80.4348C78.1098 81.0052 81.0615 81.4054 81.6218 81.4154C82.1921 81.4154 83.1727 81.0552 82.9025 80.2047C82.6224 79.3542 82.3622 77.083 82.5323 74.2514C86.5445 49.1975 80.6612 1.86114 80.6612 1.86114C80.6612 1.86114 79.6107 1.91117 78.1298 1.9812C77.9698 1.9812 77.7997 2.00121 77.6196 2.01122C76.8291 2.05124 75.9586 2.10125 75.0782 2.15128C73.8475 2.22132 72.5968 2.30138 71.5262 2.38142C70.5256 2.46147 69.6852 2.54152 69.1549 2.61156C68.7747 2.66159 68.5445 2.72162 68.5445 2.77165C68.5445 3.15186 68.3744 6.63379 68.2143 7.20411C68.0743 7.76442 67.5139 7.29414 67.534 5.87335C67.544 4.46257 67.1237 3.32194 66.7135 3.03178C66.4634 2.87169 64.4923 2.87168 62.8313 2.9017C61.5806 2.92171 60.6201 2.97175 60.6201 2.97175C60.6201 2.97175 59.6696 3.34195 59.5195 4.47258C59.3694 5.60321 58.659 6.06346 58.669 4.93283C58.679 3.8022 58.4889 3.83223 58.1087 3.70216C57.8386 3.60211 57.3683 3.67215 56.9781 3.70216C56.9781 3.70216 53.8464 3.97232 53.8464 4.33252C53.8464 4.68271 54.1365 6.33363 54.1365 6.33363H54.1465Z" fill="#A56428"/>
<path d="M59.6604 3.80216C59.6604 3.80216 59.6504 3.9022 59.6504 4.00226C59.6504 3.99225 59.6504 3.98225 59.6504 3.97224C59.6504 3.95223 59.6504 3.94224 59.6504 3.92223C59.6504 3.8822 59.6504 3.83218 59.6504 3.80216H59.6604Z" fill="#6B3717"/>
<path d="M63.5446 2.91159L63.4845 2.7315C63.4845 2.7315 63.4845 2.79153 63.5045 2.91159C63.5145 2.91159 63.5345 2.91159 63.5446 2.91159Z" fill="#6B3717"/>
<g style="mix-blend-mode:multiply" opacity="0.4">
<path d="M63.3349 80.5848C63.3349 80.5848 63.1248 72.3702 62.7146 70.8594C62.3344 69.4386 61.4539 48.2668 61.4939 43.5742C61.4939 43.264 61.5039 43.0039 61.5239 42.8138C61.624 41.8533 61.664 40.3124 61.684 38.6114C61.714 34.8093 61.5939 30.1767 61.4939 29.1362C61.3738 27.6854 59.6729 5.87324 59.6529 3.97218C59.6529 3.97218 59.6529 3.99219 59.6529 4.0022C59.6228 4.35239 59.5728 5.08281 59.5628 6.05335C59.5428 7.66425 59.6429 9.9355 60.1631 12.2268C60.8435 15.2785 61.0737 30.8171 61.0436 34.189C61.0336 35.5197 60.9436 36.8004 60.7335 37.9911C60.6634 38.3813 60.6234 38.9416 60.6234 39.652C60.5634 46.786 62.4144 72.6704 62.4044 74.8116C62.3844 77.1729 63.3449 80.5848 63.3449 80.5848H63.3349Z" fill="#C97229"/>
</g>
<g style="mix-blend-mode:multiply" opacity="0.4">
<path d="M55.848 3.84222C55.848 3.84222 55.848 3.84224 55.848 3.86226C55.848 3.85225 55.848 3.84222 55.848 3.84222ZM58.5095 68.7383C58.5095 68.7383 58.3494 62.1347 58.0192 60.914C57.7191 59.7733 57.2088 41.9334 57.2388 38.1613C57.2388 37.9112 57.2388 37.7111 57.2688 37.551C57.3489 36.7805 57.3789 35.5398 57.3889 34.1691C57.4189 31.1174 57.3188 27.3853 57.2488 26.5449C57.1487 25.3642 55.838 5.36308 55.848 3.94229C55.848 3.90226 55.848 3.87224 55.848 3.84222C55.848 3.96229 55.778 4.64267 55.768 5.65323C55.748 6.95395 55.838 8.77499 56.2382 10.616C56.7785 13.0774 56.8986 27.8956 56.8686 30.6071C56.8686 31.6777 56.7886 32.7083 56.6185 33.6688C56.5684 33.979 56.5384 34.4293 56.5284 35.0096C56.4784 40.7528 57.7791 62.3648 57.7591 64.0857C57.7391 65.9868 58.4995 68.7283 58.4995 68.7283L58.5095 68.7383Z" fill="#C97229"/>
</g>
<g style="mix-blend-mode:multiply" opacity="0.4">
<path d="M71.938 81.1451C71.9079 80.8949 70.6873 75.8321 70.4371 74.1412C70.167 72.3502 67.6456 52.6893 67.3854 50.418C67.1253 48.1567 65.1342 33.6086 65.0041 31.6275C64.9141 30.0867 64.1737 8.84487 63.7034 4.70257C63.9535 9.30513 64.3738 34.5592 64.804 39.4519C65.3143 45.3952 66.8852 60.3435 67.4255 63.7354C67.9558 67.1373 71.7879 80.7548 71.918 81.1351L71.938 81.1451Z" fill="#C97229"/>
</g>
<g style="mix-blend-mode:multiply" opacity="0.4">
<path d="M83.1733 31.2373C82.1728 32.7382 79.9015 52.8193 79.8815 56.1212C79.8515 59.423 80.4218 75.0817 80.4118 76.8827C80.4018 78.6737 81.2223 80.1946 81.3724 80.0945C80.9521 79.8044 80.812 63.3952 80.732 56.2212C80.732 55.9111 81.5925 51.5186 81.5925 51.1884C81.6525 43.8143 83.1834 31.2373 83.1834 31.2373H83.1733Z" fill="#C97229"/>
</g>
<g style="mix-blend-mode:multiply" opacity="0.4">
<path d="M76.9891 81.095C76.9891 81.095 76.7089 80.5247 76.4387 80.0544C76.4387 80.0544 72.9068 65.0161 72.7967 61.1439C72.6867 57.2818 71.496 47.1562 71.2259 45.7354C71.2058 45.6453 71.1958 45.6153 71.1958 45.6353C71.1958 45.9755 71.9463 61.314 71.9263 63.7754C71.9062 66.3168 74.3876 79.8243 75.1981 81.165C76.0385 81.165 76.6689 81.125 76.9891 81.095Z" fill="#C97229"/>
</g>
<g style="mix-blend-mode:multiply" opacity="0.4">
<path d="M76.2899 11.2364C76.3199 7.12406 76.2999 2.7116 76.2999 2.09125C76.2299 3.20187 75.1793 28.1057 75.1693 29.4665C75.1593 30.8773 74.619 44.2647 74.619 44.2647C74.619 44.2647 70.3266 35.9201 69.6362 34.4993C68.9458 33.0785 67.0748 11.1663 66.8047 9.84556C66.5345 8.52483 64.4734 2.93171 64.4734 2.93171C64.4734 2.93171 65.2838 7.56432 65.9642 10.3058C66.6446 13.0474 66.5745 30.6872 69.206 35.4398C71.8375 40.1824 74.8791 46.536 74.8791 46.536C74.8791 46.536 75.6996 33.1485 75.8697 28.9062C75.9297 27.4954 76.2599 13.4676 76.2899 11.2464V11.2364Z" fill="#C97229"/>
</g>
<g style="mix-blend-mode:multiply" opacity="0.4">
<path d="M68.8658 8.56479C68.5156 7.64428 68.2254 7.21406 68.2254 7.21406C68.2254 7.21406 68.4856 7.75434 68.8658 8.56479ZM72.9181 2.55147C72.9181 2.55147 72.0176 8.58482 71.9976 10.5559C71.9876 12.537 71.6373 29.5164 71.5173 27.9155C71.4272 26.7549 69.8764 10.736 68.8658 8.57481C69.0159 8.95502 69.176 9.41529 69.3361 9.96559C69.8864 11.8566 72.1676 33.9589 72.3277 31.6977C72.4878 29.4464 72.908 2.73157 72.9181 2.55147Z" fill="#C97229"/>
</g>
<g style="mix-blend-mode:multiply" opacity="0.36">
<path d="M77.5922 4.69273C78.8129 6.6138 81.8846 54.8506 81.3843 61.1641C80.884 67.4776 80.9541 71.5599 78.973 67.8779C76.9919 64.1958 76.4116 74.9918 76.0314 79.0641C75.9313 80.0647 75.7612 80.725 75.5611 81.1653C76.2215 81.1552 76.7317 81.1352 77.0019 81.1052C76.3215 78.4537 76.9118 75.252 77.3521 73.3709C77.5222 72.6305 77.5021 71.77 77.4721 71.0396C77.4421 69.919 77.4021 69.1486 78.0825 69.7889C79.2031 70.8395 78.1325 79.8845 78.1325 80.4449C78.1325 81.0152 81.0842 81.4154 81.6445 81.4254C82.2148 81.4254 83.1953 81.0652 82.9252 80.2147C82.645 79.3643 82.3849 77.093 82.555 74.2614C86.5672 49.2075 80.6839 1.87116 80.6839 1.87116C80.6839 1.87116 79.6334 1.92121 78.1525 1.99125C77.9924 1.99125 77.8223 2.01126 77.6422 2.02127C76.8518 2.06129 75.9813 2.1113 75.1008 2.16133C75.0108 2.16133 74.9207 2.17132 74.8307 2.18133C76.6117 2.60156 76.7417 3.31197 77.6122 4.69273H77.5922Z" fill="#DA8C37"/>
</g>
<g style="mix-blend-mode:screen" opacity="0.42">
<path d="M63.7118 78.2934C63.0515 74.3713 62.5612 60.7737 61.1504 65.0061C59.7296 69.2384 58.4689 53.7998 58.4789 44.4446C58.4889 35.0894 59.0392 11.9766 59.8297 15.7387C60.6201 19.5008 60.5801 16.9393 60.9603 12.0666C61.3305 7.19391 62.3311 4.95268 63.2016 3.52189C63.3516 3.28175 63.4417 3.09163 63.5217 2.91153C63.2916 2.91153 63.0615 2.91153 62.8313 2.91153C61.5806 2.93154 60.6201 2.98158 60.6201 2.98158C60.6201 2.98158 59.6696 3.35178 59.5195 4.48241C59.3694 5.61304 58.659 6.07329 58.669 4.94266C58.679 3.81203 58.4889 3.84207 58.1087 3.71199C57.8386 3.61194 57.3683 3.68198 56.9781 3.71199C56.9781 3.71199 53.8464 3.98212 53.8464 4.34232C53.8464 4.69251 54.1365 6.34343 54.1365 6.34343C54.2366 7.04382 54.2666 7.74422 54.3466 8.44461C54.5968 10.4657 54.4467 24.3735 54.6268 26.4046C54.7368 27.6753 54.8069 28.936 54.8669 30.2067C54.3867 37.3707 55.4172 66.2668 55.3672 72.3001C55.3172 78.3335 57.1282 79.8643 57.1282 79.8643L61.0704 80.1845C61.0704 80.1845 61.0704 79.4341 60.8102 77.9232C60.5401 76.4124 61.5406 74.0611 61.5406 74.0611C61.5406 74.0611 62.231 75.0116 62.0809 76.9027C61.9208 78.7837 61.7708 79.8243 62.4711 80.4847C63.4217 80.6648 64.7524 80.8048 66.2232 80.9149C64.9425 80.4246 63.9019 79.6242 63.6918 78.3035L63.7118 78.2934Z" fill="#DA8C37"/>
</g>
<path d="M107.626 69.0585C108.677 70.1291 107.386 79.2841 107.376 79.8545C107.356 80.4248 109.507 82.0357 110.058 82.0457C110.598 82.0457 114.55 80.5349 114.3 79.6744C114.07 78.8139 113.87 76.5126 114.11 73.651C118.702 48.2969 114.35 0.330262 114.35 0.330262L111.058 1.47088L95.3694 64.2858L107.016 69.4187C107.046 68.8484 107.176 68.6082 107.626 69.0585Z" fill="#55391E"/>
<path d="M99.2538 4.30235C99.2538 4.09223 99.2538 3.89211 99.2538 3.69199C99.2238 4.49244 99.2338 5.16283 99.2538 4.30235Z" fill="#713D18"/>
<path d="M90.727 77.213C90.5169 75.6822 91.5475 73.3109 91.5475 73.3109C91.5475 73.3109 92.0078 74.0112 92.0278 75.382L111.068 1.48093L114.36 0.340277C114.36 0.340277 100.663 0.870568 100.332 1.18074C99.722 1.75106 99.5419 1.7911 99.3919 2.36142C99.3218 2.59155 99.2818 3.18188 99.2618 3.71218C99.2718 3.91229 99.2718 4.11239 99.2618 4.3225C99.2318 5.18298 99.2218 4.51262 99.2618 3.71218C99.2118 2.57154 98.8916 1.69104 98.5514 1.45091C98.1512 1.16075 92.2679 1.651 92.2679 1.651C92.2679 1.651 91.1073 2.13128 90.9272 3.28192C90.7471 4.43256 90.677 4.48258 90.7171 3.34195C90.7571 2.19131 90.2168 2.1813 89.8065 2.1813C87.4953 2.15128 85.244 3.14186 85.0839 3.80222C84.9238 4.4726 86.2746 22.9629 86.3346 28.8862C85.6642 36.1402 85.8443 65.3965 85.6342 71.5099C85.4141 77.6233 89.7865 80.675 89.7865 80.675L90.637 79.8945C90.637 79.8945 90.9472 78.7539 90.727 77.223V77.213Z" fill="#713D18"/>
<path d="M85.3056 5.88322C85.3856 6.59361 85.3856 7.30401 85.4456 8.01441C85.6257 10.0555 85.0955 24.1534 85.2155 26.1945C85.2756 27.4752 85.3156 28.7559 85.3356 30.0466C84.6652 37.3007 84.8453 66.557 84.6252 72.6704C84.4051 78.7838 86.116 80.3346 86.116 80.3346L89.9181 80.6748C89.9181 80.6748 89.9481 79.9144 89.728 78.3835C89.5079 76.8527 90.5485 74.4713 90.5485 74.4713C90.5485 74.4713 91.1888 75.4319 90.9887 77.343C90.7786 79.254 90.6085 80.2946 91.2689 80.975C94.7808 81.6954 103.766 81.8354 105.267 81.6653C104.686 78.9738 105.347 75.7421 105.827 73.831C106.007 73.0806 106.017 72.2101 106.007 71.4797C106.007 70.3491 105.987 69.5686 106.637 70.219C107.688 71.2796 106.397 80.4347 106.377 81.015C106.367 81.5853 109.199 82.0156 109.749 82.0256C110.299 82.0256 111.26 81.6654 111.02 80.8049C110.78 79.9344 110.59 77.6431 110.83 74.7815C115.422 49.4274 111.07 1.46077 111.07 1.46077C111.07 1.46077 110.059 1.50078 108.619 1.57082C108.458 1.57082 108.298 1.59082 108.128 1.59082C107.368 1.63084 106.527 1.67087 105.667 1.7209C104.476 1.79094 103.266 1.86098 102.235 1.94102C101.274 2.01106 100.444 2.09111 99.9337 2.16114C99.5635 2.21117 99.3434 2.27121 99.3434 2.32124C99.3334 2.70145 99.0632 6.23342 98.9031 6.80374C98.753 7.37406 98.2227 6.89378 98.2728 5.45298C98.3228 4.02219 97.9526 2.87154 97.5624 2.57138C97.3223 2.41129 95.4212 2.40127 93.8103 2.43128C92.5996 2.45129 91.6691 2.49135 91.6691 2.49135C91.6691 2.49135 90.7386 2.86153 90.5585 4.00216C90.3784 5.1428 89.678 5.61306 89.728 4.47243C89.768 3.32179 89.5879 3.3518 89.2277 3.22173C88.9676 3.12168 88.5073 3.19173 88.1371 3.20173C88.1371 3.20173 85.1055 3.47188 85.0854 3.82207C85.0754 4.18227 85.3156 5.8532 85.3156 5.8532L85.3056 5.88322Z" fill="#A56428"/>
<path d="M90.7071 3.34195C90.7071 3.34195 90.6871 3.44201 90.6871 3.54207C90.6871 3.53206 90.6871 3.52206 90.6871 3.51205C90.6871 3.49204 90.6871 3.48205 90.6871 3.46204C90.6871 3.41201 90.6871 3.37196 90.6971 3.34195H90.7071Z" fill="#6B3717"/>
<path d="M94.4814 2.45138L94.4314 2.27128C94.4314 2.27128 94.4314 2.33131 94.4514 2.45138C94.4514 2.45138 94.4814 2.45138 94.4915 2.45138H94.4814Z" fill="#6B3717"/>
<path d="M106.839 1.68102C106.839 1.63099 106.839 1.60099 106.839 1.60099C106.839 1.60099 106.839 1.63099 106.829 1.68102H106.839Z" fill="#6B3717"/>
<g style="mix-blend-mode:multiply" opacity="0.4">
<path d="M92.0811 81.1051C92.0811 81.1051 92.1112 72.7905 91.761 71.2596C91.4308 69.8188 91.1806 48.3769 91.3607 43.6243C91.3707 43.3141 91.3908 43.054 91.4108 42.8538C91.5308 41.8833 91.6209 40.3224 91.6809 38.6015C91.821 34.7593 91.831 30.0667 91.771 29.0062C91.7009 27.5353 90.6703 5.44305 90.7004 3.52198C90.7004 3.52198 90.7004 3.54199 90.7004 3.55199C90.6603 3.90219 90.5903 4.64259 90.5503 5.63314C90.4903 7.26404 90.5203 9.56532 90.9505 11.8866C91.5308 14.9883 91.3107 30.7071 91.1806 34.129C91.1306 35.4697 91.0005 36.7705 90.7704 37.9811C90.6904 38.3714 90.6403 38.9417 90.6203 39.6621C90.3602 46.8861 91.4208 73.1007 91.3407 75.2719C91.2507 77.6632 92.0811 81.1151 92.0811 81.1151V81.1051Z" fill="#C97229"/>
</g>
<g style="mix-blend-mode:multiply" opacity="0.4">
<path d="M87.7561 69.0985C87.7561 69.0985 87.7861 62.4148 87.496 61.1741C87.2358 60.0235 87.2458 41.9534 87.3859 38.1313C87.3859 37.8812 87.4059 37.6711 87.4259 37.511C87.516 36.7305 87.586 35.4798 87.6461 34.0891C87.7561 30.9973 87.7661 27.2152 87.7261 26.3748C87.6661 25.1841 86.9657 4.91282 87.0157 3.47202C87.0157 3.432 87.0157 3.40198 87.0157 3.37196C87.0057 3.49203 86.9156 4.18243 86.8856 5.203C86.8356 6.51373 86.8656 8.36475 87.2058 10.2358C87.6561 12.7272 87.3559 27.7355 87.2559 30.487C87.2158 31.5676 87.1158 32.6182 86.9257 33.5888C86.8656 33.8989 86.8356 34.3592 86.8056 34.9395C86.5955 40.7528 87.2358 62.6449 87.1758 64.3859C87.1058 66.307 87.7661 69.0885 87.7661 69.0885L87.7561 69.0985Z" fill="#C97229"/>
</g>
<g style="mix-blend-mode:multiply" opacity="0.4">
<path d="M100.375 81.7155C100.355 81.4653 99.3143 76.3325 99.1241 74.6215C98.914 72.8005 97.033 52.8794 96.8429 50.5781C96.6528 48.2869 95.1419 33.5487 95.0719 31.5376C95.0219 29.9867 94.9118 8.46473 94.5816 4.2724C94.6917 8.93499 94.3815 34.5092 94.6617 39.472C94.9818 45.4953 96.0825 60.6337 96.5127 64.0756C96.9329 67.5176 100.245 81.3352 100.365 81.7155H100.375Z" fill="#C97229"/>
</g>
<g style="mix-blend-mode:multiply" opacity="0.4">
<path d="M112.661 31.2273C111.65 32.7382 108.889 53.0695 108.769 56.4213C108.649 59.7632 108.759 75.632 108.689 77.443C108.629 79.254 109.389 80.7949 109.519 80.7048C109.129 80.4147 109.449 63.7854 109.579 56.5314C109.579 56.2212 110.54 51.7687 110.56 51.4385C110.83 43.9744 112.661 31.2373 112.661 31.2373V31.2273Z" fill="#C97229"/>
</g>
<g style="mix-blend-mode:multiply" opacity="0.4">
<path d="M105.266 81.6855C105.266 81.6855 105.016 81.1052 104.755 80.6249C104.755 80.6249 101.764 65.3864 101.774 61.4642C101.774 57.542 100.913 47.2864 100.693 45.8556C100.673 45.7655 100.663 45.7255 100.673 45.7555C100.653 46.1057 100.953 61.6343 100.863 64.1357C100.773 66.7072 102.784 80.3948 103.535 81.7555C104.355 81.7555 104.966 81.7255 105.266 81.6955V81.6855Z" fill="#C97229"/>
</g>
<g style="mix-blend-mode:multiply" opacity="0.4">
<path d="M106.569 10.936C106.719 6.76366 106.829 2.3012 106.849 1.67085C106.759 2.79147 105.028 28.0055 104.988 29.3862C104.928 30.817 104.038 44.3746 104.038 44.3746C104.038 44.3746 100.126 35.9099 99.4952 34.4691C98.8648 33.0283 97.6842 10.8259 97.4641 9.48519C97.2339 8.14445 95.3929 2.4813 95.3929 2.4813C95.3929 2.4813 96.0433 7.17391 96.6236 9.95546C97.2039 12.737 96.6336 30.6069 99.0549 35.4196C101.466 40.2323 104.228 46.6859 104.228 46.6859C104.228 46.6859 105.398 33.1283 105.689 28.836C105.789 27.4052 106.509 13.1973 106.589 10.956L106.569 10.936Z" fill="#C97229"/>
</g>
<g style="mix-blend-mode:multiply" opacity="0.4">
<path d="M99.4752 8.2047C99.155 7.27418 98.8948 6.83394 98.8948 6.83394C98.8948 6.83394 99.135 7.37424 99.4752 8.2047ZM103.557 2.13131C103.557 2.13131 102.517 8.23471 102.447 10.2358C102.377 12.2369 101.566 29.4365 101.486 27.8056C101.436 26.6249 100.386 10.4059 99.4752 8.2047C99.6053 8.58491 99.7453 9.06518 99.8854 9.61549C100.366 11.5366 101.947 33.929 102.167 31.6377C102.387 29.3664 103.547 2.3014 103.557 2.1213V2.13131Z" fill="#C97229"/>
</g>
<g style="mix-blend-mode:multiply" opacity="0.36">
<path d="M108.009 4.31237C109.129 6.26345 110.73 55.1206 110.08 61.5142C109.419 67.9077 109.359 72.04 107.548 68.298C105.737 64.5559 104.877 75.492 104.387 79.6143C104.267 80.6248 104.076 81.2952 103.866 81.7454C104.507 81.7354 105.007 81.7154 105.267 81.6854C104.687 78.9939 105.347 75.7621 105.827 73.851C106.008 73.1006 106.018 72.2302 106.008 71.4998C106.008 70.3691 105.988 69.5887 106.638 70.239C107.688 71.2996 106.398 80.4547 106.378 81.0351C106.368 81.6054 109.199 82.0356 109.75 82.0456C110.3 82.0456 111.26 81.6854 111.02 80.8249C110.78 79.9544 110.59 77.6632 110.83 74.8016C115.423 49.4475 111.07 1.4808 111.07 1.4808C111.07 1.4808 110.06 1.52081 108.619 1.59085C108.459 1.59085 108.299 1.61088 108.129 1.61088C107.368 1.6509 106.528 1.69093 105.667 1.74096C105.577 1.74096 105.487 1.75095 105.397 1.76096C107.108 2.1912 107.208 2.92159 108.019 4.31237H108.009Z" fill="#DA8C37"/>
</g>
<g style="mix-blend-mode:screen" opacity="0.42">
<path d="M92.5213 78.7938C92.001 74.8215 91.911 61.0539 90.4201 65.3263C88.9293 69.6087 88.1489 53.97 88.419 44.4947C88.6992 35.0194 89.8799 11.6164 90.5402 15.4285C91.2006 19.2407 91.2306 16.6492 91.7409 11.7165C92.2312 6.78373 93.2717 4.52245 94.1522 3.06164C94.3023 2.82151 94.4023 2.63141 94.4824 2.45131C94.2623 2.45131 94.0422 2.45131 93.812 2.45131C92.6014 2.47133 91.6708 2.51135 91.6708 2.51135C91.6708 2.51135 90.7403 2.88156 90.5602 4.0222C90.3801 5.16283 89.6797 5.63309 89.7298 4.49246C89.7698 3.34182 89.5897 3.37183 89.2295 3.24176C88.9693 3.14171 88.5091 3.21173 88.1389 3.22173C88.1389 3.22173 85.1072 3.49188 85.0872 3.84207C85.0772 4.20227 85.3173 5.8732 85.3173 5.8732C85.3974 6.5836 85.3974 7.294 85.4574 8.00439C85.6375 10.0455 85.1072 24.1434 85.2272 26.1845C85.2873 27.4652 85.3273 28.7459 85.3473 30.0367C84.677 37.2907 84.857 66.5469 84.6369 72.6603C84.4168 78.7737 86.1278 80.3246 86.1278 80.3246L89.9299 80.6648C89.9299 80.6648 89.9599 79.9044 89.7398 78.3735C89.5196 76.8427 90.5602 74.4614 90.5602 74.4614C90.5602 74.4614 91.2006 75.4219 91.0005 77.333C90.7904 79.244 90.6203 80.2846 91.2806 80.965C92.1911 81.1551 93.4718 81.2951 94.9026 81.4152C93.682 80.9149 92.6914 80.1045 92.5213 78.7637V78.7938Z" fill="#DA8C37"/>
</g>
<path d="M137.435 14.308C138.525 13.2674 137.295 4.16233 137.285 3.59201C137.275 3.02169 139.486 1.46083 140.056 1.47084C140.616 1.47084 144.649 3.05172 144.389 3.9122C144.138 4.76267 143.918 7.04394 144.128 9.88552C148.571 35.1296 143.608 82.636 143.608 82.636L140.246 81.4353L124.808 18.8005L136.804 13.9378C136.844 14.5081 136.964 14.7482 137.435 14.308Z" fill="#55391E"/>
<path d="M136.145 2.92161C135.524 5.57309 136.165 8.80488 136.635 10.7059C136.815 11.4464 136.815 12.3168 136.805 13.0472C136.805 13.3874 136.795 13.6976 136.805 13.9377L124.808 18.8004L121.486 7.73429C121.496 7.48415 121.486 7.22398 121.456 6.93382C121.266 5.04277 134.093 2.46136 134.774 1.80099C135.604 1.70094 135.404 2.23123 136.134 2.92161H136.145Z" fill="#713D18"/>
<path d="M120.177 5.88322C119.947 7.39406 120.977 9.77539 120.977 9.77539C120.977 9.77539 121.468 9.09501 121.488 7.73425L140.248 81.4352L143.61 82.6359C143.61 82.6359 129.562 81.8355 129.222 81.5253C128.591 80.945 128.421 80.9049 128.261 80.3346C128.201 80.1145 128.171 79.5242 128.151 78.9939C128.151 78.8038 128.171 78.5936 128.151 78.3935C128.131 77.5431 128.121 78.2034 128.151 78.9939C128.081 80.1245 127.751 80.985 127.401 81.2251C126.991 81.5053 120.967 80.9049 120.967 80.9049C120.967 80.9049 119.777 80.4047 119.616 79.264C119.436 78.1234 119.366 78.0634 119.406 79.204C119.436 80.3446 118.876 80.3346 118.456 80.3346C116.085 80.3346 113.783 79.294 113.633 78.6337C113.473 77.9633 115.054 59.6431 115.174 53.7699C114.574 46.5559 115.054 17.5297 114.894 11.4563C114.734 5.39295 119.256 2.4413 119.256 2.4413L120.117 3.23175C120.117 3.23175 120.427 4.37238 120.187 5.88322H120.177Z" fill="#713D18"/>
<path d="M113.872 76.5525C113.952 75.8522 113.962 75.1417 114.042 74.4414C114.253 72.4202 113.852 58.4225 113.982 56.3913C114.062 55.1206 114.123 53.8499 114.143 52.5792C113.522 45.3652 114.022 16.3391 113.852 10.2757C113.692 4.20233 115.463 2.69147 115.463 2.69147L119.365 2.43131C119.365 2.43131 119.385 3.19176 119.145 4.7026C118.905 6.22344 119.946 8.59475 119.946 8.59475C119.946 8.59475 120.616 7.65423 120.426 5.75317C120.236 3.85211 120.066 2.81153 120.746 2.15116C124.368 1.5108 133.573 1.55085 135.114 1.74096C134.484 4.39243 135.124 7.61421 135.604 9.51527C135.785 10.2557 135.785 11.1262 135.775 11.8566C135.765 12.9872 135.735 13.7576 136.395 13.1273C137.486 12.0867 136.265 2.98163 136.245 2.41131C136.245 1.841 139.156 1.4808 139.717 1.4808C140.277 1.4808 141.258 1.87101 141.007 2.72148C140.757 3.57196 140.537 5.84322 140.757 8.69481C145.2 33.9288 140.237 81.4353 140.237 81.4353C140.237 81.4353 139.196 81.3752 137.736 81.2752C137.566 81.2752 137.395 81.2552 137.225 81.2452C136.455 81.1951 135.584 81.1351 134.694 81.0651C133.483 80.975 132.243 80.875 131.182 80.7849C130.181 80.6949 129.341 80.6048 128.811 80.5147C128.43 80.4547 128.21 80.4047 128.2 80.3447C128.2 79.9645 127.96 76.4625 127.8 75.8922C127.65 75.3219 127.1 75.7921 127.14 77.2129C127.18 78.6337 126.8 79.7743 126.379 80.0545C126.139 80.2146 124.178 80.1846 122.547 80.1345C121.307 80.0945 120.356 80.0345 120.356 80.0345C120.356 80.0345 119.395 79.6543 119.225 78.5036C119.045 77.373 118.345 76.8927 118.365 78.0234C118.405 79.164 118.215 79.124 117.855 79.2541C117.564 79.3441 117.104 79.2741 116.734 79.2541C116.734 79.2541 113.612 78.9339 113.602 78.5737C113.602 78.2235 113.862 76.5626 113.862 76.5626L113.872 76.5525Z" fill="#A56428"/>
<g style="mix-blend-mode:multiply" opacity="0.42">
<path d="M121.608 2.05119C121.608 2.05119 121.558 10.2958 121.177 11.8166C120.817 13.2374 120.347 34.5092 120.487 39.2319C120.487 39.542 120.507 39.8022 120.527 39.9923C120.637 40.9628 120.717 42.5037 120.757 44.2246C120.857 48.0368 120.817 52.6993 120.757 53.7499C120.657 55.2107 119.376 77.1129 119.396 79.024C119.386 79.014 119.386 79.004 119.386 78.994C119.346 78.6438 119.276 77.9134 119.256 76.9328C119.216 75.3119 119.276 73.0307 119.737 70.7394C120.357 67.6777 120.287 52.069 120.207 48.6771C120.167 47.3464 120.057 46.0557 119.827 44.855C119.757 44.4648 119.707 43.8944 119.687 43.174C119.496 36 120.857 10.0056 120.797 7.8544C120.737 5.48309 121.618 2.07119 121.618 2.07119L121.608 2.05119Z" fill="#C97229"/>
<path d="M115.602 79.0841C115.602 79.0841 115.602 79.0841 115.602 79.0641C115.602 79.0641 115.602 79.0741 115.602 79.0841ZM117.043 13.8778C117.043 13.8778 116.343 16.6194 116.393 18.5304C116.433 20.2614 115.562 41.9735 115.712 47.7467C115.732 48.327 115.763 48.7772 115.823 49.0874C116.003 50.058 116.103 51.0986 116.133 52.1691C116.203 54.9007 116.363 69.7889 115.873 72.2603C115.502 74.1113 115.452 75.9424 115.502 77.2431C115.522 78.2537 115.602 78.954 115.622 79.0641C115.622 79.0341 115.612 79.0041 115.612 78.964C115.572 77.5333 116.503 57.4421 116.573 56.2614C116.633 55.4109 116.653 51.6689 116.573 48.5972C116.543 47.2164 116.473 45.9757 116.383 45.1953C116.363 45.0352 116.353 44.8351 116.353 44.5849C116.253 40.8028 116.423 22.8728 116.703 21.7322C117.003 20.5115 117.053 13.8778 117.053 13.8778H117.043Z" fill="#C97229"/>
<path d="M130.111 1.60099C130.091 1.85113 128.97 6.92394 128.76 8.62488C128.52 10.4259 126.379 30.1569 126.169 32.4281C125.949 34.6994 124.248 49.2975 124.168 51.2886C124.108 52.8295 123.757 74.1814 123.377 78.3337C123.537 73.7011 123.487 48.327 123.827 43.4142C124.218 37.4409 125.498 22.4526 125.979 19.0407C126.439 15.6288 129.991 1.99121 130.121 1.611L130.111 1.60099Z" fill="#C97229"/>
<path d="M142.199 51.9389C141.168 50.4181 138.557 30.1869 138.467 26.875C138.387 23.5532 138.657 7.81442 138.607 6.01342C138.557 4.21241 139.357 2.69157 139.507 2.79162C139.087 3.07178 139.257 19.571 139.317 26.785C139.317 27.0951 140.248 31.5276 140.268 31.8578C140.458 39.2619 142.219 51.9389 142.219 51.9389H142.199Z" fill="#C97229"/>
<path d="M135.142 1.7311C135.142 1.7311 134.882 2.30142 134.602 2.77168C134.602 2.77168 131.38 17.8301 131.34 21.7222C131.31 25.6144 130.319 35.77 130.069 37.1908C130.049 37.2909 130.049 37.3209 130.049 37.2909C130.039 36.9507 130.509 21.5421 130.439 19.0607C130.369 16.5093 132.58 2.96177 133.371 1.63103C134.191 1.65105 134.822 1.68107 135.142 1.7311Z" fill="#C97229"/>
<path d="M135.735 71.9502C135.845 76.0925 135.905 80.515 135.925 81.1453C135.835 80.0347 134.334 54.9708 134.294 53.61C134.254 52.1892 133.474 38.7217 133.474 38.7217C133.474 38.7217 129.371 47.0463 128.711 48.4671C128.061 49.8879 126.62 71.8802 126.38 73.2109C126.129 74.5417 124.178 80.1248 124.178 80.1248C124.178 80.1248 124.889 75.4822 125.519 72.7306C126.14 69.9891 125.749 52.2493 128.271 47.5166C130.792 42.784 133.694 36.4504 133.694 36.4504C133.694 36.4504 134.754 49.9179 135.004 54.1903C135.094 55.6111 135.675 69.719 135.745 71.9502H135.735Z" fill="#C97229"/>
<path d="M128.431 74.5216C128.071 75.332 127.821 75.8723 127.821 75.8723C127.821 75.8723 128.091 75.4421 128.431 74.5216ZM132.554 80.6349C132.554 80.4548 131.623 53.5899 131.423 51.3187C131.233 49.0474 129.362 71.2297 128.862 73.1208C128.712 73.6711 128.561 74.1413 128.421 74.5115C129.382 72.3503 130.613 56.2714 130.683 55.1008C130.783 53.4899 131.443 70.5694 131.493 72.5605C131.543 74.5516 132.544 80.625 132.544 80.625L132.554 80.6349Z" fill="#C97229"/>
</g>
<path d="M167.42 70.9795C168.56 71.87 167.51 79.5342 167.5 80.0145C167.5 80.4948 169.801 81.8255 170.391 81.8255C170.951 81.8255 175.054 80.5248 174.774 79.8044C174.493 79.084 174.223 77.1629 174.383 74.7716C178.376 53.5298 173.263 1.771 173.263 1.771L169.851 2.75153L154.402 67.0873L166.799 71.2896C166.819 70.8094 166.939 70.5993 167.42 70.9795Z" fill="#55391E"/>
<path d="M157.545 5.20284C157.545 5.02274 157.545 4.85264 157.515 4.69255C157.505 5.36292 157.535 5.92325 157.545 5.20284Z" fill="#713D18"/>
<path d="M149.94 77.9334C149.66 76.6526 150.68 74.6615 150.68 74.6615C150.68 74.6615 151.191 75.2318 151.251 76.3825L169.861 2.75153L173.273 1.771C173.273 1.771 158.895 2.32131 158.565 2.58145C157.934 3.07173 157.764 3.09173 157.604 3.57199C157.544 3.7621 157.524 4.25238 157.524 4.70263C157.544 4.86272 157.544 5.03282 157.554 5.21292C157.554 5.93332 157.514 5.373 157.524 4.70263C157.434 3.7521 157.074 3.02168 156.704 2.81156C156.273 2.57143 150.11 3.03168 150.11 3.03168C150.11 3.03168 148.909 3.44191 148.759 4.40244C148.609 5.36298 148.539 5.41302 148.539 4.45249C148.539 3.50196 147.969 3.49196 147.549 3.49196C145.127 3.48196 142.786 4.33241 142.646 4.88272C142.496 5.44303 144.517 20.9016 144.767 25.8544C144.297 31.9278 144.427 68.0779 144.397 73.1907C144.357 78.3035 149.059 80.8249 149.059 80.8249L149.92 80.1746C149.92 80.1746 150.21 79.2141 149.93 77.9334H149.94Z" fill="#713D18"/>
<path d="M142.949 6.63372C143.059 7.23406 143.079 7.8244 143.169 8.42473C143.43 10.1357 143.33 21.9222 143.52 23.6332C143.63 24.7038 143.71 25.7844 143.77 26.855C143.3 32.9283 143.43 69.0784 143.4 74.1913C143.37 79.3041 145.221 80.5949 145.221 80.5949L149.223 80.855C149.223 80.855 149.223 80.2147 148.953 78.9339C148.673 77.6532 149.693 75.6621 149.693 75.6621C149.693 75.6621 150.404 76.4626 150.253 78.0635C150.103 79.6643 149.953 80.5348 150.664 81.1051C154.376 81.6754 163.811 81.7255 165.382 81.5754C164.681 79.3341 165.262 76.6226 165.712 75.0218C165.872 74.4014 165.852 73.661 165.822 73.0507C165.782 72.1001 165.742 71.4498 166.432 71.9901C167.563 72.8706 166.522 80.5448 166.522 81.0251C166.522 81.5054 169.514 81.8356 170.084 81.8456C170.655 81.8456 171.655 81.5354 171.375 80.815C171.105 80.0946 170.825 78.1735 170.985 75.7822C174.977 54.5404 169.864 2.78158 169.864 2.78158C169.864 2.78158 168.794 2.82161 167.293 2.89165C167.123 2.89165 166.953 2.91165 166.783 2.91165C165.982 2.95168 165.102 2.9917 164.201 3.04173C162.95 3.11177 161.69 3.1818 160.599 3.25184C159.579 3.32188 158.718 3.39194 158.178 3.46198C157.788 3.51201 157.567 3.56202 157.567 3.60204C157.567 3.92222 157.397 6.87386 157.257 7.35413C157.117 7.83439 156.537 7.43418 156.547 6.23351C156.557 5.03284 156.127 4.07231 155.706 3.83218C155.456 3.6921 153.455 3.70211 151.774 3.74213C150.504 3.77215 149.533 3.81215 149.533 3.81215C149.533 3.81215 148.562 4.12234 148.412 5.08287C148.262 6.04341 147.552 6.43362 147.552 5.48309C147.562 4.52256 147.372 4.55256 146.992 4.4425C146.711 4.36246 146.231 4.42249 145.851 4.4425C145.851 4.4425 142.669 4.68265 142.669 4.98281C142.669 5.28298 142.969 6.67376 142.969 6.67376L142.949 6.63372Z" fill="#A56428"/>
<path d="M148.54 4.46244C148.54 4.46244 148.54 4.55248 148.52 4.63252C148.52 4.62251 148.52 4.61251 148.53 4.6025C148.53 4.58249 148.53 4.5725 148.53 4.55249C148.53 4.51247 148.53 4.48244 148.53 4.45243L148.54 4.46244Z" fill="#6B3717"/>
<path d="M152.471 3.69209L152.401 3.54201C152.401 3.54201 152.401 3.59203 152.421 3.69209C152.441 3.69209 152.451 3.69209 152.471 3.69209Z" fill="#6B3717"/>
<g style="mix-blend-mode:multiply" opacity="0.4">
<path d="M151.494 81.1752C151.494 81.1752 151.253 74.2214 150.833 72.9406C150.433 71.74 150.503 42.1235 150.523 38.1513C150.523 37.8912 150.533 37.6711 150.553 37.511C150.643 36.6905 150.693 35.3898 150.703 33.949C150.723 30.7372 150.573 26.805 150.483 25.9245C150.353 24.7038 148.552 6.22357 148.532 4.61267C148.532 4.61267 148.522 4.62268 148.522 4.64269C148.492 4.93285 148.442 5.56319 148.442 6.38365C148.442 7.7444 148.542 9.67548 149.072 11.6066C149.773 14.188 150.053 27.3453 150.043 30.2069C150.033 31.3275 149.943 32.4181 149.733 33.4287C149.653 33.7589 149.633 34.2391 149.623 34.8395C149.583 40.8828 150.533 74.4715 150.523 76.2925C150.523 78.2936 151.494 81.1752 151.494 81.1752Z" fill="#C97229"/>
</g>
<g style="mix-blend-mode:multiply" opacity="0.4">
<path d="M144.658 4.51252C144.658 4.51252 144.658 4.51251 144.658 4.53252C144.658 4.52251 144.658 4.51252 144.658 4.51252ZM146.549 71.1596C146.549 71.1596 146.359 65.5665 146.029 64.5359C145.709 63.5653 146.159 36.7805 146.179 33.5887C146.179 33.3786 146.179 33.1985 146.199 33.0684C146.269 32.408 146.309 31.3574 146.309 30.1968C146.329 27.6053 146.219 24.4536 146.149 23.7432C146.039 22.7427 144.648 5.79322 144.668 4.59255C144.668 4.56253 144.668 4.53253 144.668 4.51252C144.658 4.61257 144.588 5.1929 144.588 6.04337C144.588 7.14398 144.668 8.69486 145.078 10.2457C145.639 12.3269 145.809 24.8738 145.799 27.1751C145.799 28.0756 145.719 28.9561 145.549 29.7666C145.499 30.0267 145.479 30.4169 145.469 30.8972C145.439 35.7599 145.809 65.7466 145.799 67.2074C145.779 68.8183 146.559 71.1396 146.559 71.1396L146.549 71.1596Z" fill="#C97229"/>
</g>
<g style="mix-blend-mode:multiply" opacity="0.4">
<path d="M160.218 81.6153C160.188 81.4052 158.937 77.1228 158.677 75.692C158.397 74.1712 156.796 45.8454 156.516 43.9244C156.245 42.0033 154.184 29.6965 154.054 28.0155C153.944 26.7148 153.134 8.71481 152.643 5.21286C152.914 9.11503 153.424 30.5069 153.864 34.6492C154.404 39.692 155.035 64.0155 155.585 66.8871C156.135 69.7687 160.068 81.2952 160.208 81.6153H160.218Z" fill="#C97229"/>
</g>
<g style="mix-blend-mode:multiply" opacity="0.4">
<path d="M172.485 27.6155C171.475 28.8862 168.223 57.5921 168.203 60.3937C168.193 63.1852 168.813 76.4626 168.803 77.9734C168.803 79.4943 169.644 80.775 169.784 80.695C169.364 80.4548 169.164 66.5471 169.063 60.4737C169.053 60.2036 170.935 44.815 170.945 44.5249C170.985 38.2814 172.485 27.6155 172.485 27.6155Z" fill="#C97229"/>
</g>
<g style="mix-blend-mode:multiply" opacity="0.4">
<path d="M165.348 81.5553C165.348 81.5553 165.068 81.0751 164.778 80.6748C164.778 80.6748 161.146 67.9478 161.026 64.676C160.906 61.3941 160.676 41.1529 160.396 39.9522C160.376 39.8721 160.366 39.8522 160.376 39.8722C160.376 40.1623 160.176 64.826 160.156 66.9172C160.136 69.0584 162.697 80.5048 163.537 81.6254C164.388 81.6254 165.028 81.5854 165.348 81.5654V81.5553Z" fill="#C97229"/>
</g>
<g style="mix-blend-mode:multiply" opacity="0.4">
<path d="M165.428 10.6959C165.448 7.20395 165.428 3.47187 165.408 2.94158C165.348 3.8821 164.348 24.9838 164.348 26.1345C164.338 27.3351 163.838 38.6815 163.838 38.6815C163.838 38.6815 159.445 31.6275 158.745 30.4269C158.044 29.2262 156.073 10.6659 155.793 9.54526C155.523 8.42463 153.402 3.70201 153.402 3.70201C153.402 3.70201 154.232 7.62418 154.943 9.94547C155.633 12.2668 155.623 27.2151 158.314 31.2173C161.006 35.2295 164.118 40.5925 164.118 40.5925C164.118 40.5925 164.898 29.2462 165.068 25.6542C165.118 24.4536 165.418 12.5669 165.428 10.6859V10.6959Z" fill="#C97229"/>
</g>
<g style="mix-blend-mode:multiply" opacity="0.4">
<path d="M157.886 8.46482C157.526 7.68439 157.236 7.32417 157.236 7.32417C157.236 7.32417 157.496 7.78444 157.886 8.46482ZM161.979 3.35196C161.979 3.35196 161.088 8.4648 161.078 10.1357C161.068 11.8167 160.768 26.2047 160.638 24.8439C160.538 23.8534 158.917 10.2958 157.886 8.46482C158.036 8.785 158.206 9.17521 158.367 9.64547C158.927 11.2464 161.328 29.9668 161.478 28.0457C161.638 26.1446 161.979 3.50205 161.989 3.35196H161.979Z" fill="#C97229"/>
</g>
<path d="M195.335 68.5481C196.366 69.5987 195.195 78.7338 195.175 79.2941C195.165 79.8744 197.257 81.4353 197.797 81.4353C198.317 81.4353 202.139 79.8544 201.899 79.004C201.659 78.1435 201.459 75.8622 201.659 73.0106C205.911 47.6965 201.289 0.0100153 201.289 0.0100153L198.107 1.2107L183.399 64.0156L194.745 68.9283C194.775 68.358 194.895 68.1079 195.335 68.5581V68.5481Z" fill="#55391E"/>
<path d="M186.674 4.22244C186.674 4.01232 186.674 3.81223 186.674 3.61212C186.644 4.41256 186.654 5.08292 186.674 4.22244Z" fill="#713D18"/>
<path d="M178.996 76.9528C178.766 75.432 179.756 73.0506 179.756 73.0506C179.756 73.0506 180.207 73.731 180.237 75.1018L198.107 1.20068L201.288 0C201.288 0 187.991 0.76043 187.681 1.0706C187.09 1.66093 186.92 1.69095 186.77 2.26127C186.71 2.4914 186.68 3.07171 186.67 3.60201C186.67 3.80212 186.68 4.00225 186.67 4.21236C186.65 5.07284 186.64 4.40245 186.67 3.60201C186.6 2.47138 186.29 1.60091 185.96 1.36077C185.58 1.08062 179.866 1.67094 179.866 1.67094C179.866 1.67094 178.746 2.17121 178.576 3.31184C178.416 4.45247 178.346 4.5125 178.376 3.37187C178.406 2.23124 177.875 2.23125 177.475 2.23125C175.234 2.23125 173.053 3.26181 172.903 3.93218C172.762 4.60255 174.213 22.9928 174.323 28.8861C173.733 36.1201 174.153 65.2463 173.983 71.3397C173.823 77.4231 178.105 80.3947 178.105 80.3947L178.916 79.6043C178.916 79.6043 179.216 78.4636 178.986 76.9428L178.996 76.9528Z" fill="#713D18"/>
<path d="M173.144 6.02331C173.224 6.7337 173.234 7.44409 173.305 8.14448C173.495 10.1756 173.094 24.2134 173.224 26.2445C173.304 27.5253 173.355 28.7959 173.375 30.0767C172.784 37.3107 173.204 66.4369 173.044 72.5303C172.884 78.6237 174.555 80.1345 174.555 80.1345L178.247 80.4147C178.247 80.4147 178.267 79.6542 178.037 78.1334C177.817 76.6125 178.808 74.2312 178.808 74.2312C178.808 74.2312 179.438 75.1818 179.258 77.0828C179.078 78.9839 178.918 80.0344 179.558 80.6948C182.97 81.3552 191.685 81.3352 193.146 81.1451C192.555 78.4836 193.166 75.2418 193.616 73.3407C193.796 72.6003 193.796 71.7198 193.786 70.9894C193.776 69.8588 193.746 69.0783 194.386 69.7187C195.417 70.7593 194.246 79.8944 194.226 80.4647C194.216 81.035 196.978 81.4152 197.508 81.4152C198.038 81.4152 198.969 81.035 198.729 80.1745C198.488 79.314 198.278 77.0328 198.488 74.1812C202.741 48.8671 198.118 1.1906 198.118 1.1906C198.118 1.1906 197.128 1.25063 195.737 1.34068C195.577 1.35069 195.427 1.36069 195.257 1.3707C194.516 1.42072 193.706 1.48077 192.865 1.5408C191.715 1.63085 190.544 1.7209 189.533 1.82096C188.593 1.91101 187.803 2.00107 187.302 2.08111C186.942 2.14115 186.732 2.19116 186.732 2.25119C186.722 2.6314 186.492 6.15336 186.352 6.72368C186.212 7.294 185.691 6.82375 185.731 5.39295C185.771 3.96216 185.401 2.82152 185.021 2.54136C184.801 2.38127 182.94 2.4013 181.389 2.46133C180.218 2.50135 179.308 2.55138 179.308 2.55138C179.308 2.55138 178.407 2.93159 178.237 4.08223C178.077 5.22286 177.407 5.70311 177.437 4.56247C177.467 3.42184 177.297 3.45188 176.936 3.33181C176.676 3.23175 176.236 3.3118 175.886 3.33181C175.886 3.33181 172.934 3.65197 172.924 4.00216C172.924 4.36237 173.164 6.01329 173.164 6.01329L173.144 6.02331Z" fill="#A56428"/>
<path d="M178.369 3.40201C178.369 3.40201 178.369 3.50208 178.349 3.60213C178.349 3.59213 178.349 3.57211 178.359 3.5621C178.359 3.54209 178.359 3.5321 178.359 3.51208C178.359 3.46206 178.359 3.42204 178.359 3.39202L178.369 3.40201Z" fill="#6B3717"/>
<path d="M182.03 2.46142L181.98 2.29131C181.98 2.29131 181.98 2.35134 181.99 2.47141C182 2.47141 182.02 2.47141 182.03 2.47141V2.46142Z" fill="#6B3717"/>
<g style="mix-blend-mode:multiply" opacity="0.42">
<path d="M180.349 80.805C180.349 80.805 180.299 72.5304 179.948 71.0096C179.618 69.5788 179.198 48.2269 179.328 43.5043C179.328 43.1941 179.348 42.934 179.368 42.7338C179.478 41.7633 179.548 40.2124 179.598 38.4915C179.698 34.6593 179.668 29.9867 179.608 28.9362C179.518 27.4754 178.348 5.49313 178.358 3.58207C178.358 3.58207 178.358 3.60206 178.348 3.62207C178.318 3.97227 178.257 4.71268 178.227 5.69323C178.187 7.31413 178.237 9.60541 178.668 11.9167C179.248 14.9884 179.168 30.6471 179.078 34.059C179.038 35.3998 178.928 36.6905 178.708 37.9011C178.638 38.2914 178.588 38.8617 178.578 39.5821C178.388 46.7761 179.628 72.8606 179.568 75.0218C179.508 77.4031 180.339 80.825 180.339 80.825L180.349 80.805Z" fill="#C97229"/>
<path d="M176.047 68.9183C176.047 68.9183 176.017 62.2646 175.737 61.0339C175.467 59.8833 175.326 41.9033 175.437 38.1012C175.437 37.851 175.447 37.6409 175.467 37.4908C175.557 36.7004 175.607 35.4597 175.647 34.0689C175.737 30.9872 175.707 27.2351 175.657 26.3846C175.587 25.194 174.736 5.03277 174.786 3.60198C174.786 3.56196 174.786 3.53193 174.786 3.50192C174.776 3.62198 174.696 4.31238 174.676 5.33295C174.636 6.64368 174.676 8.4847 175.026 10.3357C175.487 12.8071 175.316 27.7554 175.236 30.4869C175.206 31.5675 175.116 32.6081 174.946 33.5786C174.886 33.8888 174.856 34.3491 174.836 34.9294C174.686 40.7126 175.487 62.5047 175.437 64.2457C175.386 66.1568 176.037 68.9083 176.037 68.9083L176.047 68.9183Z" fill="#C97229"/>
<path d="M188.404 81.2652C188.384 81.0151 187.333 75.9222 187.133 74.2113C186.913 72.4103 184.922 52.6093 184.722 50.318C184.522 48.0367 182.931 33.3886 182.851 31.3874C182.791 29.8366 182.491 8.41468 182.14 4.25236C182.28 8.89495 182.2 34.3591 182.501 39.2919C182.871 45.2852 184.061 60.3336 184.502 63.7555C184.932 67.1774 188.264 80.875 188.394 81.2552C188.394 81.2552 188.394 81.2552 188.394 81.2652H188.404Z" fill="#C97229"/>
<path d="M199.909 30.7972C198.939 32.318 196.427 52.6093 196.337 55.9411C196.257 59.273 196.487 75.0618 196.437 76.8728C196.387 78.6838 197.138 80.2046 197.278 80.1046C196.887 79.8144 197.068 63.2652 197.138 56.0412C197.138 55.731 198.028 51.2886 198.038 50.9484C198.228 43.5142 199.909 30.8072 199.909 30.8072V30.7972Z" fill="#C97229"/>
<path d="M193.155 81.1552C193.155 81.1552 192.905 80.5848 192.654 80.1046C192.654 80.1046 189.623 64.9862 189.593 61.084C189.563 57.1818 188.642 46.9861 188.412 45.5554C188.392 45.4653 188.382 45.4253 188.382 45.4553C188.382 45.7955 188.792 61.2541 188.732 63.7455C188.662 66.3069 190.723 79.9045 191.474 81.2452C192.264 81.2252 192.855 81.1952 193.155 81.1552Z" fill="#C97229"/>
<path d="M193.817 10.7059C193.927 6.55363 193.997 2.10115 194.007 1.4808C193.927 2.60143 192.456 27.7354 192.416 29.0962C192.386 30.527 191.626 44.0345 191.626 44.0345C191.626 44.0345 187.753 35.6698 187.133 34.249C186.513 32.8282 185.172 10.7459 184.952 9.41521C184.722 8.08447 182.891 2.47135 182.891 2.47135C182.891 2.47135 183.561 7.13395 184.151 9.89549C184.732 12.647 184.332 30.4469 186.723 35.1995C189.094 39.9522 191.836 46.3257 191.836 46.3257C191.836 46.3257 192.856 32.8082 193.106 28.5258C193.186 27.095 193.777 12.9472 193.837 10.7059H193.817Z" fill="#C97229"/>
<path d="M186.912 8.09447C186.602 7.16395 186.342 6.74374 186.342 6.74374C186.342 6.74374 186.572 7.28402 186.912 8.09447ZM190.824 1.98108C190.824 1.98108 189.874 8.07447 189.814 10.0756C189.764 12.0667 189.113 29.2062 189.023 27.5853C188.953 26.4147 187.813 10.2757 186.912 8.10448C187.042 8.48469 187.182 8.95495 187.322 9.50526C187.803 11.4063 189.524 33.6787 189.714 31.3874C189.904 29.1162 190.814 2.16118 190.824 1.98108Z" fill="#C97229"/>
</g>
<path d="M224.531 69.4187C225.572 70.4693 224.561 79.6044 224.551 80.1647C224.551 80.745 226.672 82.3059 227.213 82.3059C227.753 82.3059 231.535 80.735 231.275 79.8746C231.025 79.0141 230.785 76.7328 230.935 73.8812C234.757 48.5671 229.324 0.870601 229.324 0.870601L226.162 2.06127L212.524 64.8362L223.951 69.7689C223.971 69.1986 224.091 68.9585 224.531 69.3987V69.4187Z" fill="#55391E"/>
<path d="M214.777 5.07277C214.777 4.86265 214.777 4.66255 214.757 4.46244C214.737 5.26289 214.757 5.93325 214.777 5.07277Z" fill="#713D18"/>
<path d="M208.335 77.7934C208.085 76.2725 209.025 73.8912 209.025 73.8912C209.025 73.8912 209.496 74.5816 209.546 75.9423L226.165 2.0813L229.327 0.890632C229.327 0.890632 216.049 1.62103 215.729 1.9412C215.149 2.52153 214.979 2.55155 214.839 3.13187C214.779 3.362 214.759 3.94232 214.759 4.47261C214.759 4.67272 214.779 4.87285 214.779 5.08297C214.779 5.94344 214.749 5.27306 214.759 4.47261C214.679 3.34198 214.338 2.47151 214.008 2.23137C213.618 1.94121 207.925 2.53153 207.925 2.53153C207.925 2.53153 206.814 3.03182 206.664 4.17246C206.524 5.31309 206.464 5.37312 206.474 4.23249C206.474 3.09185 205.954 3.09184 205.563 3.09184C203.322 3.09184 201.161 4.11241 201.021 4.78278C200.891 5.45315 202.662 23.8434 202.872 29.7467C202.402 36.9807 203.312 66.1069 203.252 72.2003C203.192 78.2837 207.525 81.2653 207.525 81.2653L208.325 80.4749C208.325 80.4749 208.605 79.3343 208.355 77.8134L208.335 77.7934Z" fill="#713D18"/>
<path d="M201.289 6.84383C201.389 7.54422 201.399 8.26465 201.479 8.96504C201.709 10.9962 201.549 25.0339 201.699 27.0751C201.799 28.3558 201.869 29.6265 201.919 30.9072C201.449 38.1413 202.369 67.2774 202.299 73.3608C202.239 79.4542 203.94 80.9751 203.94 80.9751L207.642 81.2552C207.642 81.2552 207.642 80.4948 207.392 78.9739C207.142 77.4531 208.092 75.0718 208.092 75.0718C208.092 75.0718 208.743 76.0223 208.593 77.9234C208.443 79.8244 208.303 80.875 208.963 81.5354C212.385 82.2058 221.1 82.2057 222.56 82.0156C221.92 79.3542 222.48 76.1224 222.901 74.2113C223.071 73.4709 223.051 72.5904 223.031 71.86C223.001 70.7294 222.961 69.9489 223.601 70.5893C224.652 71.6299 223.631 80.765 223.621 81.3353C223.621 81.9056 226.393 82.2858 226.913 82.2858C227.433 82.2858 228.364 81.9056 228.114 81.0451C227.853 80.1846 227.613 77.9034 227.773 75.0518C231.595 49.7477 226.162 2.05119 226.162 2.05119C226.162 2.05119 225.172 2.11121 223.791 2.19125C223.631 2.20126 223.471 2.21126 223.311 2.22127C222.57 2.27129 221.76 2.33134 220.92 2.39138C219.769 2.47142 218.598 2.56146 217.588 2.66151C216.657 2.75156 215.857 2.83162 215.356 2.92167C214.996 2.9817 214.786 3.03171 214.786 3.09175C214.786 3.47196 214.616 6.99392 214.476 7.56423C214.346 8.13455 213.816 7.6543 213.836 6.23351C213.846 4.80271 213.465 3.66207 213.065 3.38192C212.845 3.22183 210.984 3.24184 209.433 3.29187C208.263 3.33189 207.362 3.38192 207.362 3.38192C207.362 3.38192 206.472 3.76212 206.321 4.90275C206.181 6.04338 205.521 6.51365 205.521 5.37301C205.531 4.23238 205.361 4.26242 205.001 4.14235C204.741 4.04229 204.3 4.11233 203.95 4.14235C203.95 4.14235 201.008 4.45252 200.998 4.80272C200.998 5.16292 201.269 6.82383 201.269 6.82383L201.289 6.84383Z" fill="#A56428"/>
<path d="M206.463 4.23233C206.463 4.23233 206.463 4.33237 206.443 4.43243C206.443 4.42242 206.443 4.41242 206.443 4.40241C206.443 4.3824 206.443 4.37241 206.443 4.3524C206.443 4.30237 206.443 4.26235 206.443 4.23233H206.463Z" fill="#6B3717"/>
<path d="M210.107 3.29193L210.046 3.11184C210.046 3.11184 210.047 3.17186 210.057 3.29193H210.097H210.107Z" fill="#6B3717"/>
<g style="mix-blend-mode:multiply" opacity="0.42">
<path d="M209.757 81.6456C209.757 81.6456 209.577 73.3709 209.187 71.8501C208.826 70.4193 208.056 49.0674 208.106 44.3348C208.106 44.0246 208.116 43.7645 208.136 43.5744C208.226 42.6039 208.276 41.053 208.296 39.332C208.336 35.4999 208.226 30.8273 208.146 29.7767C208.036 28.3159 206.485 6.33368 206.465 4.41261C206.465 4.41261 206.465 4.43262 206.465 4.44263C206.435 4.79282 206.385 5.53324 206.375 6.51378C206.355 8.13469 206.455 10.426 206.925 12.7372C207.556 15.809 207.746 31.4777 207.706 34.8796C207.696 36.2203 207.596 37.511 207.406 38.7217C207.335 39.1119 207.305 39.6822 207.305 40.4026C207.235 47.5966 208.926 73.6911 208.896 75.8523C208.876 78.2337 209.767 81.6556 209.767 81.6556L209.757 81.6456Z" fill="#C97229"/>
<path d="M202.882 4.31246C202.882 4.31246 202.882 4.32248 202.882 4.33249C202.882 4.31248 202.882 4.31246 202.882 4.31246ZM205.243 69.7489C205.243 69.7489 205.103 63.0852 204.803 61.8645C204.513 60.7138 204.072 42.7238 204.112 38.9217C204.112 38.6716 204.112 38.4615 204.132 38.3114C204.212 37.5309 204.242 36.2802 204.252 34.8995C204.282 31.8178 204.202 28.0657 204.132 27.2152C204.042 26.0245 202.852 5.86334 202.872 4.42253C202.872 4.38251 202.872 4.3525 202.872 4.33249C202.862 4.44255 202.792 5.14291 202.792 6.15348C202.772 7.46421 202.842 9.30523 203.222 11.1563C203.722 13.6276 203.802 28.576 203.782 31.3175C203.772 32.3981 203.702 33.4387 203.542 34.4092C203.492 34.7194 203.462 35.1796 203.452 35.76C203.402 41.5432 204.573 63.3353 204.553 65.0763C204.533 66.9873 205.233 69.7489 205.233 69.7489H205.243Z" fill="#C97229"/>
<path d="M217.808 82.1258C217.788 81.8756 216.648 76.7828 216.418 75.0718C216.167 73.2708 213.836 53.4598 213.596 51.1785C213.356 48.8973 211.515 34.2391 211.405 32.248C211.315 30.6972 210.664 9.27526 210.234 5.10294C210.454 9.74552 210.804 35.2197 211.195 40.1424C211.665 46.1357 213.116 61.1841 213.606 64.616C214.096 68.0379 217.658 81.7456 217.788 82.1258C217.788 82.1258 217.788 82.1258 217.788 82.1358L217.808 82.1258Z" fill="#C97229"/>
<path d="M228.454 31.6677C227.514 33.1886 225.342 53.4699 225.302 56.8017C225.272 60.1336 225.783 75.9324 225.763 77.7334C225.743 79.5344 226.523 81.0652 226.653 80.9652C226.253 80.675 226.163 64.1258 226.103 56.8918C226.103 56.5816 226.913 52.1391 226.923 51.7989C226.993 44.3648 228.454 31.6577 228.454 31.6577V31.6677Z" fill="#C97229"/>
<path d="M222.563 82.0258C222.563 82.0258 222.303 81.4554 222.043 80.9752C222.043 80.9752 218.751 65.8468 218.661 61.9446C218.571 58.0424 217.47 47.8468 217.21 46.416C217.2 46.3159 217.18 46.2859 217.19 46.3159C217.19 46.6561 217.87 62.1247 217.84 64.6061C217.82 67.1675 220.112 80.7751 220.872 82.1058C221.662 82.0858 222.253 82.0558 222.553 82.0158L222.563 82.0258Z" fill="#C97229"/>
<path d="M222.033 11.5665C222.073 7.41421 222.073 2.96173 222.073 2.34139C222.013 3.46201 220.972 28.596 220.952 29.9568C220.952 31.3875 220.412 44.8951 220.412 44.8951C220.412 44.8951 216.4 36.5204 215.759 35.0996C215.119 33.6688 213.408 11.5965 213.158 10.2558C212.908 8.92505 210.977 3.31193 210.977 3.31193C210.977 3.31193 211.727 7.97454 212.357 10.7361C212.988 13.4976 212.888 31.2975 215.359 36.0501C217.821 40.8028 220.662 47.1863 220.662 47.1863C220.662 47.1863 221.453 33.6688 221.633 29.3964C221.693 27.9656 222.033 13.8178 222.053 11.5765L222.033 11.5665Z" fill="#C97229"/>
<path d="M215.077 8.94504C214.757 8.01452 214.486 7.59428 214.486 7.59428C214.486 7.59428 214.737 8.13459 215.077 8.94504ZM218.899 2.83165C218.899 2.83165 218.048 8.92503 218.028 10.9161C218.008 12.9072 217.648 30.0468 217.528 28.4259C217.438 27.2552 216.027 11.1162 215.077 8.93502C215.217 9.31523 215.367 9.78552 215.517 10.3358C216.027 12.2369 218.128 34.5093 218.279 32.228C218.439 29.9567 218.889 3.00174 218.889 2.82164L218.899 2.83165Z" fill="#C97229"/>
</g>
<path d="M251.788 70.7694C252.838 71.6699 251.788 79.4142 251.778 79.8945C251.778 80.3848 253.899 81.7255 254.439 81.7355C254.959 81.7355 258.782 80.4348 258.521 79.7144C258.271 78.984 258.031 77.0429 258.211 74.6216C262.113 53.1696 257.861 0.83054 257.861 0.83054L254.679 1.82108L239.731 66.7972L251.197 71.0796C251.217 70.5893 251.337 70.3892 251.778 70.7694H251.788Z" fill="#55391E"/>
<path d="M243.222 4.26238C243.222 4.08228 243.222 3.91218 243.202 3.75209C243.182 4.43246 243.202 4.99279 243.222 4.26238Z" fill="#713D18"/>
<path d="M235.479 77.7433C235.229 76.4526 236.189 74.4415 236.189 74.4415C236.189 74.4415 236.66 75.0218 236.71 76.1824L254.68 1.81107L257.861 0.820525C257.861 0.820525 244.504 1.34081 244.194 1.60096C243.614 2.09123 243.443 2.12125 243.293 2.60151C243.243 2.79162 243.213 3.29191 243.203 3.74216C243.213 3.91226 243.223 4.08233 243.223 4.25243C243.213 4.98283 243.193 4.41254 243.203 3.74216C243.123 2.78163 242.803 2.04121 242.463 1.8311C242.063 1.58096 236.34 2.03119 236.34 2.03119C236.34 2.03119 235.219 2.45143 235.079 3.41196C234.929 4.3825 234.869 4.43255 234.879 3.46201C234.899 2.49147 234.358 2.49146 233.958 2.48145C231.707 2.46144 229.526 3.31191 229.386 3.88222C229.246 4.44254 230.967 20.0812 231.157 25.084C230.666 31.2174 230.446 67.7577 230.366 72.9206C230.276 78.0935 234.629 80.6449 234.629 80.6449L235.439 79.9845C235.439 79.9845 235.719 79.014 235.479 77.7233V77.7433Z" fill="#713D18"/>
<path d="M229.657 5.66318C229.747 6.26352 229.757 6.86387 229.847 7.4642C230.067 9.19517 229.867 21.1118 230.027 22.8327C230.117 23.9133 230.188 25.0039 230.228 26.0845C229.737 32.218 229.517 68.7583 229.437 73.9312C229.357 79.104 231.068 80.4048 231.068 80.4048L234.78 80.6749C234.78 80.6749 234.79 80.0345 234.55 78.7338C234.3 77.4431 235.26 75.422 235.26 75.422C235.26 75.422 235.921 76.2424 235.751 77.8533C235.591 79.4642 235.45 80.3547 236.101 80.925C239.543 81.5154 248.298 81.5854 249.768 81.4353C249.138 79.1641 249.708 76.4326 250.139 74.8117C250.299 74.1813 250.289 73.4309 250.259 72.8205C250.239 71.86 250.199 71.1996 250.839 71.75C251.89 72.6505 250.839 80.3948 250.839 80.875C250.839 81.3553 253.611 81.7055 254.141 81.7055C254.671 81.7055 255.602 81.3953 255.352 80.6649C255.101 79.9345 254.871 78.0034 255.041 75.5721C258.954 54.1201 254.691 1.79104 254.691 1.79104C254.691 1.79104 253.701 1.83106 252.3 1.8911C252.14 1.8911 251.98 1.9111 251.82 1.9111C251.079 1.95112 250.259 1.99114 249.418 2.03116C248.258 2.09119 247.077 2.16124 246.076 2.23128C245.136 2.29132 244.335 2.36134 243.835 2.43138C243.475 2.4814 243.265 2.52144 243.265 2.57147C243.265 2.89165 243.075 5.88332 242.935 6.36359C242.795 6.85386 242.274 6.44362 242.284 5.23295C242.304 4.02228 241.914 3.05175 241.524 2.80161C241.294 2.66153 239.433 2.67152 237.872 2.69153C236.691 2.71154 235.781 2.75156 235.781 2.75156C235.781 2.75156 234.89 3.06173 234.73 4.03227C234.58 5.00281 233.92 5.39304 233.93 4.4225C233.95 3.45196 233.78 3.48196 233.419 3.3719C233.159 3.29186 232.709 3.34188 232.359 3.3719C232.359 3.3719 229.407 3.61204 229.397 3.91221C229.397 4.21238 229.657 5.62315 229.657 5.62315V5.66318Z" fill="#A56428"/>
<path d="M234.877 3.49193C234.877 3.49193 234.877 3.58197 234.857 3.66201C234.857 3.652 234.857 3.642 234.857 3.63199C234.857 3.62199 234.857 3.60197 234.857 3.59196C234.857 3.55194 234.857 3.52195 234.857 3.49193H234.877Z" fill="#6B3717"/>
<path d="M238.54 2.72158L238.48 2.5715C238.48 2.5715 238.48 2.63153 238.5 2.72158C238.52 2.72158 238.53 2.72158 238.55 2.72158H238.54Z" fill="#6B3717"/>
<g style="mix-blend-mode:multiply" opacity="0.4">
<path d="M236.889 81.0252C236.889 81.0252 236.729 74.0013 236.349 72.7006C235.999 71.4899 236.329 41.5533 236.389 37.541C236.389 37.2809 236.409 37.0607 236.419 36.8906C236.509 36.0702 236.569 34.7494 236.589 33.2986C236.639 30.0468 236.539 26.0746 236.469 25.1841C236.359 23.9435 234.868 5.26306 234.858 3.64216C234.858 3.64216 234.858 3.66217 234.858 3.67218C234.828 3.96234 234.778 4.59269 234.758 5.42315C234.738 6.80392 234.818 8.745 235.299 10.7061C235.919 13.3175 236.059 26.6149 236.019 29.5066C235.999 30.6372 235.899 31.7378 235.699 32.7584C235.629 33.0885 235.599 33.5788 235.589 34.1891C235.499 40.2925 236.069 74.2514 236.039 76.0925C236.009 78.1136 236.9 81.0252 236.9 81.0252H236.889Z" fill="#C97229"/>
</g>
<g style="mix-blend-mode:multiply" opacity="0.4">
<path d="M231.279 3.52198C231.279 3.52198 231.279 3.52197 231.279 3.54198C231.279 3.53197 231.279 3.52198 231.279 3.52198ZM232.399 70.8994C232.399 70.8994 232.269 65.2463 231.979 64.2057C231.689 63.2252 232.359 36.1501 232.409 32.9283C232.409 32.7182 232.419 32.5381 232.429 32.408C232.509 31.7377 232.549 30.6871 232.559 29.5064C232.599 26.895 232.529 23.7032 232.469 22.9828C232.379 21.9722 231.249 4.84269 231.269 3.62201C231.269 3.59199 231.269 3.56199 231.269 3.54198C231.259 3.64203 231.189 4.23235 231.179 5.09283C231.159 6.20345 231.229 7.76431 231.599 9.34519C232.099 11.4464 232.139 24.1334 232.109 26.4647C232.089 27.3752 232.019 28.2557 231.859 29.0862C231.809 29.3563 231.789 29.7365 231.769 30.2368C231.699 35.1495 231.749 65.4564 231.729 66.9372C231.699 68.5581 232.399 70.9094 232.399 70.9094V70.8994Z" fill="#C97229"/>
</g>
<g style="mix-blend-mode:multiply" opacity="0.4">
<path d="M244.995 81.5053C244.975 81.2952 243.845 76.9528 243.615 75.512C243.364 73.9711 242.144 45.3452 241.904 43.3941C241.673 41.453 239.872 29.0061 239.762 27.3052C239.682 25.9845 239.092 7.79433 238.672 4.25236C238.882 8.19456 239.162 29.8166 239.532 34.0089C239.983 39.1018 240.333 63.6954 240.823 66.597C241.303 69.5087 244.845 81.1752 244.985 81.4953L244.995 81.5053Z" fill="#C97229"/>
</g>
<g style="mix-blend-mode:multiply" opacity="0.4">
<path d="M256.89 26.9649C255.95 28.2457 252.648 57.2518 252.608 60.0834C252.568 62.9049 253.028 76.3224 252.998 77.8532C252.978 79.3941 253.748 80.6848 253.879 80.6048C253.488 80.3546 253.438 66.2968 253.398 60.1634C253.398 59.8932 255.289 44.3346 255.289 44.0445C255.389 37.7409 256.88 26.9549 256.88 26.9549L256.89 26.9649Z" fill="#C97229"/>
</g>
<g style="mix-blend-mode:multiply" opacity="0.4">
<path d="M249.759 81.4552C249.759 81.4552 249.508 80.965 249.238 80.5647C249.238 80.5647 245.987 67.6976 245.906 64.3857C245.826 61.0739 245.796 40.6125 245.556 39.3918C245.536 39.3118 245.526 39.2818 245.536 39.3018C245.536 39.5919 245.116 64.5258 245.086 66.637C245.046 68.8082 247.317 80.3746 248.088 81.5153C248.878 81.5153 249.468 81.4852 249.769 81.4552H249.759Z" fill="#C97229"/>
</g>
<g style="mix-blend-mode:multiply" opacity="0.4">
<path d="M250.497 9.84547C250.547 6.32351 250.557 2.55143 250.547 2.01113C250.487 2.96166 249.356 24.2835 249.346 25.4441C249.316 26.6548 248.746 38.1212 248.746 38.1212C248.746 38.1212 244.744 30.9772 244.104 29.7666C243.453 28.5459 241.802 9.78544 241.552 8.65481C241.302 7.52418 239.391 2.74155 239.391 2.74155C239.391 2.74155 240.121 6.70375 240.762 9.05505C241.382 11.4064 241.232 26.5148 243.693 30.567C246.155 34.6293 248.996 40.0623 248.996 40.0623C248.996 40.0623 249.837 28.5959 250.027 24.9639C250.087 23.7532 250.477 11.7365 250.507 9.83549L250.497 9.84547Z" fill="#C97229"/>
</g>
<g style="mix-blend-mode:multiply" opacity="0.4">
<path d="M243.522 7.56411C243.192 6.77367 242.932 6.40346 242.932 6.40346C242.932 6.40346 243.172 6.86372 243.522 7.56411ZM247.364 2.40124C247.364 2.40124 246.494 7.56411 246.464 9.25506C246.434 10.956 246.024 25.4941 245.914 24.1233C245.824 23.1228 244.453 9.41516 243.512 7.55413C243.652 7.88431 243.802 8.27453 243.943 8.74479C244.453 10.3657 246.494 29.2862 246.654 27.3551C246.814 25.434 247.354 2.55132 247.354 2.40124H247.364Z" fill="#C97229"/>
</g>
<path d="M280.725 68.6783C281.806 69.7389 280.405 78.7739 280.385 79.3342C280.355 79.9045 282.576 81.4954 283.147 81.5054C283.707 81.5054 287.799 80.0346 287.559 79.1741C287.319 78.3236 287.139 76.0524 287.409 73.2308C292.342 48.2169 288.189 0.83054 288.189 0.83054L284.778 1.95116L268.098 63.9156L280.105 69.0285C280.145 68.4682 280.275 68.228 280.735 68.6683L280.725 68.6783Z" fill="#55391E"/>
<path d="M272.521 4.71273C272.521 4.50262 272.521 4.3025 272.521 4.11239C272.481 4.90283 272.481 5.56321 272.521 4.71273Z" fill="#713D18"/>
<path d="M263.175 76.6627C262.965 75.1518 264.056 72.8106 264.056 72.8106C264.056 72.8106 264.526 73.5009 264.536 74.8517L284.757 1.95116L288.169 0.83054C288.169 0.83054 273.991 1.30079 273.651 1.60096C273.011 2.16127 272.831 2.20129 272.671 2.76161C272.601 2.99173 272.56 3.57204 272.53 4.09233C272.53 4.28244 272.53 4.49256 272.53 4.69267C272.49 5.54315 272.49 4.87277 272.53 4.09233C272.48 2.97171 272.16 2.10124 271.81 1.8511C271.4 1.56094 265.306 2.0212 265.306 2.0212C265.306 2.0212 264.096 2.49144 263.916 3.62207C263.716 4.7527 263.646 4.81273 263.696 3.6821C263.756 2.55147 263.185 2.54147 262.755 2.53147C260.374 2.49145 258.032 3.462 257.862 4.11236C257.692 4.77273 258.953 23.0429 258.973 28.8861C258.223 36.0501 258.202 64.9362 257.942 70.9795C257.662 77.0129 262.175 80.0546 262.175 80.0546L263.065 79.2942C263.065 79.2942 263.395 78.1735 263.185 76.6527L263.175 76.6627Z" fill="#713D18"/>
<path d="M258.082 6.21345C258.162 6.91384 258.152 7.62422 258.212 8.32461C258.382 10.3457 257.732 24.2535 257.842 26.2746C257.902 27.5453 257.932 28.806 257.942 30.0767C257.202 37.2407 257.172 66.1368 256.901 72.1701C256.631 78.2035 258.392 79.7543 258.392 79.7543L262.324 80.1045C262.324 80.1045 262.355 79.3541 262.144 77.8333C261.924 76.3124 263.015 73.9811 263.015 73.9811C263.015 73.9811 263.675 74.9416 263.455 76.8227C263.235 78.7037 263.035 79.7443 263.715 80.4147C267.337 81.1451 276.632 81.3152 278.183 81.1551C277.603 78.5036 278.303 75.3019 278.814 73.4308C279.014 72.6904 279.024 71.8299 279.024 71.0995C279.034 69.9789 279.024 69.2085 279.684 69.8588C280.765 70.9194 279.364 79.9544 279.344 80.5147C279.324 81.0851 282.256 81.5153 282.816 81.5253C283.376 81.5253 284.377 81.1751 284.137 80.3246C283.897 79.4642 283.716 77.2029 283.977 74.3713C288.909 49.3574 284.747 1.97107 284.747 1.97107C284.747 1.97107 283.696 2.0111 282.216 2.07113C282.045 2.07113 281.885 2.08112 281.705 2.09113C280.915 2.13115 280.044 2.1712 279.154 2.21122C277.923 2.27125 276.672 2.34128 275.592 2.42133C274.591 2.49137 273.741 2.5614 273.211 2.63144C272.83 2.68147 272.6 2.73149 272.6 2.78152C272.58 3.16173 272.28 6.64368 272.11 7.20399C271.95 7.7643 271.41 7.28402 271.47 5.87323C271.53 4.46245 271.159 3.32182 270.749 3.03165C270.509 2.87157 268.538 2.85155 266.877 2.87156C265.626 2.89157 264.666 2.92161 264.666 2.92161C264.666 2.92161 263.695 3.2818 263.505 4.41243C263.315 5.54306 262.585 5.99332 262.645 4.86269C262.695 3.73206 262.505 3.76206 262.134 3.62198C261.864 3.52192 261.394 3.58197 261.004 3.60198C261.004 3.60198 257.862 3.85212 257.842 4.20232C257.832 4.55251 258.062 6.20343 258.062 6.20343L258.082 6.21345Z" fill="#A56428"/>
<path d="M263.686 3.72204C263.686 3.72204 263.666 3.82211 263.666 3.92216C263.666 3.92216 263.666 3.90215 263.666 3.89215C263.666 3.87214 263.666 3.86211 263.666 3.8421C263.666 3.80208 263.666 3.75206 263.666 3.72204H263.686Z" fill="#6B3717"/>
<path d="M267.596 2.86155L267.535 2.68142C267.535 2.68142 267.535 2.74148 267.545 2.86155C267.555 2.86155 267.576 2.86155 267.586 2.86155H267.596Z" fill="#6B3717"/>
<path d="M280.385 2.14127V2.07122C280.385 2.07122 280.385 2.10122 280.375 2.15125L280.385 2.14127Z" fill="#6B3717"/>
<g style="mix-blend-mode:multiply" opacity="0.4">
<path d="M264.547 80.5147C264.547 80.5147 264.637 72.3001 264.287 70.7892C263.956 69.3685 263.856 48.1867 264.066 43.4941C264.076 43.1839 264.097 42.9238 264.127 42.7337C264.257 41.7731 264.357 40.2323 264.437 38.5313C264.607 34.7392 264.657 30.0966 264.597 29.056C264.527 27.6052 263.626 5.7831 263.666 3.88204C263.666 3.88204 263.666 3.90205 263.666 3.91206C263.626 4.26225 263.546 4.99268 263.506 5.96322C263.426 7.57411 263.446 9.84536 263.876 12.1366C264.447 15.1983 264.106 30.727 263.956 34.0989C263.896 35.4296 263.756 36.7103 263.506 37.901C263.426 38.2912 263.366 38.8515 263.336 39.5619C263.016 46.6959 263.926 72.5902 263.826 74.7214C263.716 77.0827 264.557 80.4947 264.557 80.4947L264.547 80.5147Z" fill="#C97229"/>
</g>
<g style="mix-blend-mode:multiply" opacity="0.4">
<path d="M260.155 68.6381C260.155 68.6381 260.235 62.0345 259.944 60.8138C259.684 59.6732 259.824 41.8332 259.994 38.0611C260.004 37.811 260.014 37.6109 260.044 37.4508C260.155 36.6804 260.225 35.4397 260.295 34.0689C260.435 31.0172 260.475 27.2851 260.435 26.4447C260.375 25.264 259.804 5.25291 259.864 3.83212C259.864 3.7921 259.864 3.76207 259.864 3.73206C259.854 3.85212 259.764 4.5325 259.724 5.54306C259.654 6.84378 259.674 8.6648 260.014 10.5158C260.465 12.9772 260.044 27.7954 259.914 30.507C259.874 31.5776 259.754 32.6081 259.554 33.5687C259.484 33.8788 259.444 34.3291 259.414 34.9094C259.154 40.6426 259.664 62.2746 259.584 63.9956C259.494 65.8966 260.155 68.6381 260.155 68.6381Z" fill="#C97229"/>
</g>
<g style="mix-blend-mode:multiply" opacity="0.4">
<path d="M273.129 81.1551C273.109 80.9149 272.068 75.8421 271.888 74.1411C271.688 72.3401 269.877 52.6692 269.707 50.3879C269.527 48.1167 268.066 33.5586 268.016 31.5775C267.976 30.0366 268.016 8.78479 267.706 4.65249C267.786 9.25505 267.286 34.5091 267.536 39.4018C267.826 45.3551 268.857 60.3035 269.267 63.7053C269.677 67.1072 272.999 80.7648 273.129 81.145V81.1551Z" fill="#C97229"/>
</g>
<g style="mix-blend-mode:multiply" opacity="0.4">
<path d="M286.189 31.3475C285.128 32.8383 282.136 52.9095 281.986 56.2013C281.836 59.5032 281.836 75.1719 281.756 76.9629C281.676 78.7539 282.447 80.2747 282.597 80.1847C282.186 79.8945 282.647 63.4854 282.827 56.3114C282.827 56.0012 283.857 51.6188 283.877 51.2786C284.208 43.9145 286.199 31.3375 286.199 31.3375L286.189 31.3475Z" fill="#C97229"/>
</g>
<g style="mix-blend-mode:multiply" opacity="0.4">
<path d="M278.184 81.1451C278.184 81.1451 277.934 80.5748 277.674 80.0945C277.674 80.0945 274.692 65.0361 274.722 61.164C274.762 57.2918 273.931 47.1662 273.711 45.7454C273.691 45.6553 273.681 45.6253 273.691 45.6453C273.671 45.9855 273.871 61.324 273.751 63.7854C273.641 66.3268 275.622 79.8543 276.393 81.1951C277.233 81.1951 277.864 81.1751 278.184 81.1451Z" fill="#C97229"/>
</g>
<g style="mix-blend-mode:multiply" opacity="0.4">
<path d="M280.035 11.2864C280.225 7.17411 280.365 2.76167 280.385 2.14133C280.275 3.25195 278.314 28.1458 278.254 29.4965C278.194 30.9073 277.163 44.2948 277.163 44.2948C277.163 44.2948 273.171 35.9201 272.53 34.4893C271.89 33.0585 270.83 11.1363 270.609 9.81558C270.379 8.49484 268.528 2.89174 268.528 2.89174C268.528 2.89174 269.169 7.52433 269.749 10.2759C270.329 13.0274 269.619 30.6672 272.08 35.4298C274.542 40.1925 277.353 46.566 277.353 46.566C277.353 46.566 278.664 33.1886 278.994 28.9462C279.104 27.5354 279.955 13.5076 280.055 11.2864H280.035Z" fill="#C97229"/>
</g>
<g style="mix-blend-mode:multiply" opacity="0.4">
<path d="M272.71 8.56482C272.39 7.64431 272.12 7.20408 272.12 7.20408C272.12 7.20408 272.36 7.74437 272.71 8.56482ZM276.983 2.5715C276.983 2.5715 275.862 8.59484 275.772 10.5659C275.682 12.547 274.722 29.5265 274.651 27.9156C274.611 26.7549 273.641 10.726 272.71 8.55484C272.85 8.93505 272.991 9.4053 273.131 9.95561C273.611 11.8467 275.082 33.969 275.332 31.7077C275.572 29.4564 276.973 2.7516 276.983 2.5715Z" fill="#C97229"/>
</g>
<g style="mix-blend-mode:multiply" opacity="0.36">
<path d="M281.576 4.75258C282.727 6.68366 284.038 54.9405 283.307 61.254C282.577 67.5675 282.497 71.6398 280.646 67.9377C278.805 64.2357 277.824 75.0317 277.294 79.0939C277.164 80.0945 276.964 80.7548 276.744 81.1951C277.404 81.1951 277.924 81.1751 278.185 81.1451C277.604 78.4936 278.305 75.2918 278.815 73.4208C279.015 72.6804 279.025 71.8199 279.025 71.0895C279.035 69.9689 279.025 69.1984 279.685 69.8488C280.766 70.9094 279.365 79.9444 279.345 80.5047C279.325 81.075 282.257 81.5053 282.817 81.5153C283.377 81.5153 284.378 81.1651 284.138 80.3146C283.898 79.4541 283.718 77.1929 283.978 74.3613C288.911 49.3474 284.748 1.96105 284.748 1.96105C284.748 1.96105 283.698 2.00105 282.217 2.06108C282.047 2.06108 281.887 2.07111 281.707 2.08111C280.916 2.12114 280.046 2.16115 279.155 2.20118C279.065 2.20118 278.965 2.21117 278.875 2.22118C280.646 2.65141 280.746 3.37181 281.566 4.75258H281.576Z" fill="#DA8C37"/>
</g>
<g style="mix-blend-mode:screen" opacity="0.42">
<path d="M265.016 78.2336C264.506 74.3114 264.506 60.7139 262.945 64.9262C261.374 69.1486 260.664 53.7 261.024 44.3448C261.374 34.9896 262.765 11.8867 263.425 15.6588C264.085 19.4309 264.136 16.8695 264.696 11.9968C265.246 7.12407 266.327 4.90284 267.247 3.46204C267.397 3.23191 267.507 3.03179 267.587 2.8617C267.357 2.8617 267.127 2.8617 266.897 2.8617C265.646 2.88171 264.686 2.91171 264.686 2.91171C264.686 2.91171 263.715 3.2719 263.525 4.40253C263.335 5.53316 262.605 5.98343 262.665 4.8528C262.715 3.72217 262.525 3.75219 262.154 3.61212C261.884 3.51206 261.414 3.57207 261.024 3.59209C261.024 3.59209 257.882 3.84223 257.862 4.19243C257.852 4.54262 258.082 6.19354 258.082 6.19354C258.162 6.89393 258.152 7.60434 258.212 8.30473C258.382 10.3259 257.732 24.2336 257.842 26.2547C257.902 27.5254 257.932 28.7861 257.942 30.0568C257.202 37.2208 257.172 66.1169 256.901 72.1502C256.631 78.1836 258.392 79.7344 258.392 79.7344L262.324 80.0846C262.324 80.0846 262.355 79.3342 262.144 77.8134C261.924 76.2925 263.015 73.9612 263.015 73.9612C263.015 73.9612 263.675 74.9218 263.455 76.8028C263.235 78.6839 263.035 79.7244 263.715 80.3948C264.656 80.5849 265.977 80.735 267.457 80.8551C266.197 80.3548 265.186 79.5443 265.016 78.2236V78.2336Z" fill="#DA8C37"/>
</g>
</g>
</svg>
