<svg width="11" height="7" viewBox="0 0 11 7" fill="none" xmlns="http://www.w3.org/2000/svg">
<path d="M0 7.00003C0 6.93762 0.0312125 6.86481 0.0416138 6.80241C0.0416138 6.7712 0.0624149 6.74 0.0728162 6.7088L0.104019 6.61516L0.145632 6.52155C0.145632 6.52155 0.156022 6.49036 0.166423 6.46956L0.187214 6.42795L0.228828 6.33434C0.228828 6.33434 0.260041 6.27194 0.270442 6.24073C0.395256 6.0015 0.540877 5.76226 0.696896 5.54384L0.821705 5.37744L0.852908 5.33583L0.88411 5.29422L0.946515 5.21102L1.00892 5.12779L1.04012 5.08618L1.07132 5.0446L1.20655 4.88859C1.24815 4.83658 1.30016 4.78455 1.34177 4.73254L1.48737 4.58694C1.58098 4.49333 1.68499 4.39972 1.7786 4.29571C2.17385 3.92126 2.6003 3.578 3.04755 3.26597C3.09956 3.22436 3.16197 3.18277 3.21397 3.15157L3.3804 3.03717L3.54682 2.92274L3.63002 2.87075L3.71324 2.81872L4.05647 2.6003L4.09808 2.5691L4.1397 2.54831L4.22289 2.49629L4.39973 2.39227L4.57653 2.28828C4.63894 2.25708 4.70136 2.22585 4.75336 2.19464L5.11741 2.00743C5.17982 1.97622 5.24221 1.94502 5.29422 1.91382L5.48143 1.82021L5.66868 1.72661C5.73108 1.6954 5.79348 1.66418 5.85589 1.64338C6.35515 1.41455 6.84401 1.19614 7.35367 1.00892C8.36259 0.613673 9.40271 0.280833 10.4428 0C9.42351 0.353641 8.40418 0.728086 7.40566 1.15454L7.21845 1.22734C7.15604 1.25854 7.09364 1.27934 7.03123 1.31055L6.65677 1.47699C6.59437 1.50819 6.53197 1.52898 6.46956 1.56018L6.28235 1.64338L5.9183 1.82021C5.85589 1.85142 5.79347 1.88262 5.74146 1.91382L5.56466 2.00743L5.38782 2.10103C5.32542 2.13224 5.26303 2.16344 5.21102 2.19464L4.85738 2.38189C4.79498 2.41309 4.74296 2.44429 4.68055 2.4755L4.50375 2.57951C4.03569 2.83954 3.57803 3.13075 3.13078 3.43239L2.96435 3.54682L2.88113 3.60922C2.88113 3.60922 2.82913 3.65083 2.79793 3.67163C2.69392 3.75484 2.57951 3.82766 2.4755 3.91087L2.16347 4.16049L1.86183 4.42052C1.76822 4.51413 1.66421 4.59735 1.57059 4.69096L1.42496 4.83656C1.42496 4.83656 1.33137 4.93019 1.27936 4.98219L1.14414 5.12779L1.11294 5.16941L1.08174 5.21102L1.01933 5.28381L0.956926 5.35662L0.925724 5.39824L0.894521 5.43985L0.76968 5.59586C0.603261 5.80389 0.457651 6.0327 0.322435 6.26152C0.301633 6.29273 0.291244 6.32395 0.270442 6.34475L0.228828 6.43836C0.197624 6.50076 0.166435 6.56315 0.145632 6.61516L0.104019 6.7088C0.104019 6.7088 0.0832072 6.7712 0.0624048 6.80241C0.0416023 6.86481 0.0208024 6.92722 0 7.00003Z" fill="#D9692A"/>
</svg>
