<svg width="44" height="50" viewBox="0 0 44 50" fill="none" xmlns="http://www.w3.org/2000/svg">
<path d="M3.35692 0C3.32659 3.07381 3.29626 6.13751 3.26592 9.21133C2.96259 10.8392 2.82104 12.1941 2.75026 13.1648C2.64914 14.6208 2.67947 15.45 2.06268 16.0061C1.46612 16.542 0.596563 16.5218 0 16.4409C0.273003 17.7351 0.738119 19.5753 1.54702 21.6886C2.48736 24.1456 4.70172 29.0395 11.274 35.632C18.0789 42.4571 25.5106 47.0374 31.4055 50C32.3357 49.1406 33.5592 47.907 34.8433 46.2993C38.2205 42.0931 39.7473 38.1699 40.6067 35.8848C42.8919 29.8686 43.4884 24.2872 43.5288 20.1416C42.5986 20.2427 41.3347 20.3539 39.8281 20.4045C34.0344 20.5662 29.6461 19.5652 28.4732 19.2821C21.8706 17.6947 17.2902 14.7826 15.905 13.8625C8.98888 9.26189 5.18705 3.41759 3.33669 0.0101057L3.35692 0Z" fill="#F2D4AF"/>
</svg>
