<svg width="50" height="6" viewBox="0 0 50 6" fill="none" xmlns="http://www.w3.org/2000/svg">
<path d="M5.56476 2.58402C5.56476 2.58402 5.60545 2.58402 5.68683 2.58402C5.76822 2.58402 5.9005 2.584 6.06327 2.59417C6.38882 2.60434 6.86693 2.6247 7.46716 2.63487C8.06738 2.65522 8.78971 2.67558 9.5934 2.68576C10.0003 2.68576 10.4276 2.70609 10.8651 2.70609C11.3127 2.70609 11.7705 2.70609 12.2588 2.70609C14.1815 2.69592 16.3281 2.62471 18.495 2.49246C19.5734 2.39073 20.6619 2.27882 21.7199 2.13639C22.7779 1.99397 23.7953 1.7905 24.7821 1.56669C25.2704 1.45479 25.7689 1.36323 26.2775 1.28184C26.7964 1.19028 27.3254 1.10889 27.8748 1.05803C28.9633 0.935949 30.0925 0.854552 31.2624 0.824032C32.4222 0.783339 33.6023 0.793523 34.8027 0.803697C36.0032 0.803697 37.2138 0.844366 38.4041 0.874886C39.5943 0.905406 40.7744 0.946126 41.9037 0.966472C43.0431 0.986819 44.152 0.966474 45.1896 0.935954C46.2171 0.885088 47.2039 0.824038 48.0585 0.671439C48.2823 0.640919 48.4756 0.600231 48.6689 0.549365C48.8723 0.508672 49.0555 0.457791 49.2284 0.406924C49.4115 0.356058 49.554 0.295026 49.7066 0.223813C49.7778 0.193293 49.8185 0.152594 49.8795 0.122074C49.91 0.101728 49.9202 0.0813836 49.9304 0.0610371C49.9304 0.0610371 49.9304 0.0406918 49.9405 0.0305185C49.9507 0.0305185 49.9202 0.0203565 49.91 0.0101832C49.8897 0.0101832 49.8795 0.0101733 49.8592 0C49.8592 0 49.8795 0.0203341 49.9304 0.0508539C49.9406 0.0508539 49.9507 0.061047 49.9609 0.0712203C49.9711 0.0712203 49.9914 0.0915556 49.9914 0.0915556C49.9914 0.101729 49.9914 0.122094 49.9914 0.142441C50.0219 0.223827 49.9812 0.325536 49.9202 0.467961C49.7676 0.722293 49.4827 1.07838 48.9944 1.44462C48.0585 2.19744 46.4104 3.03165 44.3859 3.7336C43.3788 4.08967 42.2597 4.40503 41.1203 4.67971C40.8355 4.75092 40.5506 4.81194 40.2658 4.88315C39.9809 4.94419 39.6961 5.00525 39.4112 5.05611C38.8415 5.16802 38.2718 5.26976 37.7021 5.35115C37.1426 5.43253 36.583 5.5139 36.054 5.58511C35.525 5.64615 35.0062 5.69703 34.5179 5.72755C34.0296 5.76825 33.5819 5.79877 33.1546 5.79877C32.7375 5.79877 32.351 5.79875 32.0254 5.77841C31.5066 5.75806 30.8962 5.71738 30.1943 5.66652C29.4821 5.60548 28.6784 5.53425 27.7832 5.46304C26.8879 5.39182 25.8808 5.29008 24.7821 5.19852C24.2327 5.13748 23.663 5.09681 23.0628 5.02559C22.4626 4.96456 21.842 4.90352 21.1909 4.84248C15.9619 4.41521 9.12542 3.77429 0 3.7336C0.96646 3.53014 1.91257 3.33684 2.83833 3.15372C3.3063 3.06216 3.76412 2.9706 4.22191 2.86887C4.67971 2.76714 5.12732 2.67557 5.57494 2.57383L5.56476 2.58402Z" fill="#959636"/>
</svg>
