<svg width="34" height="8" viewBox="0 0 34 8" fill="none" xmlns="http://www.w3.org/2000/svg">
<path d="M1.06971 3.55322C1.37245 3.29084 1.80639 3.01836 2.30088 2.75598C2.79537 2.4936 3.33025 2.25141 3.8752 2.03948C4.97518 1.62573 6.07514 1.32298 7.09439 1.09087C7.60906 0.969771 8.11366 0.878938 8.59806 0.798206C8.71916 0.778023 8.84026 0.757852 8.95127 0.74776C9.06228 0.737668 9.18336 0.717477 9.28428 0.707385C9.50629 0.687202 9.71823 0.667031 9.93016 0.656939C10.7678 0.626665 11.5448 0.68721 12.3118 0.74776C13.0787 0.80831 13.8558 0.889025 14.6732 0.9193C14.875 0.929391 15.0869 0.91932 15.2989 0.939503C15.5108 0.939503 15.7328 0.939493 15.9548 0.929401C16.3887 0.909218 16.8328 0.889049 17.2768 0.848682C18.1548 0.778041 19.0227 0.697285 19.83 0.66701C20.2337 0.656918 20.6272 0.646827 21.0006 0.66701C21.374 0.687193 21.7272 0.727585 22.0501 0.788135C23.352 1.06061 24.2198 1.75693 25.2492 2.33215C25.7538 2.6248 26.329 2.87708 26.9647 3.03854C27.6005 3.2101 28.2666 3.33121 28.9225 3.4624C29.5684 3.59359 30.2041 3.74495 30.7491 3.98715C31.0216 4.10825 31.2739 4.24953 31.4959 4.42108C31.7179 4.59264 31.9096 4.79448 32.0913 4.99631C32.7977 5.83391 33.2013 6.95409 33.9986 7.72106C33.2417 6.90364 32.8784 5.77336 32.2023 4.89539C32.0307 4.67338 31.8491 4.47154 31.6271 4.28989C31.4051 4.10824 31.173 3.94678 30.8904 3.82568C30.3454 3.5633 29.7198 3.40183 29.084 3.25046C28.4482 3.09908 27.7923 2.9679 27.1868 2.78625C26.5712 2.6046 26.0464 2.35233 25.562 2.04958C25.0675 1.74684 24.6235 1.42389 24.129 1.12114C23.8868 0.96977 23.6244 0.828484 23.3419 0.707385C23.0593 0.576194 22.7565 0.475281 22.4235 0.394548C21.0712 0.0817087 19.3153 0.243166 17.6199 0.354173C17.1961 0.384448 16.7722 0.404629 16.3686 0.41472C16.1667 0.41472 15.975 0.41472 15.7732 0.41472C15.5814 0.404629 15.3796 0.40463 15.1979 0.384447C14.431 0.333989 13.7044 0.243184 12.9576 0.15236C12.2109 0.0615353 11.454 -0.00913047 10.5659 0.000961125C10.3439 0.000961125 10.1118 0.0211529 9.85951 0.0413361C9.73841 0.0413361 9.60722 0.0716195 9.48612 0.0817111C9.35493 0.0918027 9.23383 0.111974 9.10264 0.132157C8.59806 0.21289 8.0733 0.303722 7.52835 0.424822C6.43846 0.656928 5.24763 0.969757 3.94582 1.45415C3.28986 1.69635 2.62383 1.99911 1.9376 2.35232C1.25137 2.70553 0.555038 3.13948 0 3.5936C0.353206 3.5936 0.70643 3.57339 1.05964 3.57339L1.06971 3.55322Z" fill="#EDD744"/>
</svg>
