<svg width="226" height="228" viewBox="0 0 226 228" fill="none" xmlns="http://www.w3.org/2000/svg">
<path fill-rule="evenodd" clip-rule="evenodd" d="M45.81 173.81C48.03 175.55 50.3 177.42 52.47 179.34C53.59 183.25 54.66 187.04 55.77 190.95C56.02 191.59 56.21 192.43 56.46 193.07C52.54 187.27 48.96 180.97 45.81 173.81ZM62.2 181.77C60.19 179.91 58.18 178.06 56.27 176.46C54.63 172.21 53.2 168.16 51.77 164.1C53.44 166.77 55.17 169.56 56.93 172.81C58.7 175.74 60.37 178.72 62.19 181.77H62.2ZM199.5 69.96L200.04 71.69C174.69 39.78 148.78 16.15 128.98 18.83C155.85 26.46 176.78 49.57 194.21 75.7C184.75 63.9 174.82 54.56 166.6 52.38C182.8 61.85 197.06 93.19 208.04 120.71C197.3 100.87 186.84 84.47 177.28 77.1C184.69 88.62 194.55 112.55 203.85 137.72C187.78 111.77 175.19 98.89 166.85 68.81C167.39 79.29 171.14 92.38 176.58 106.87C159.17 70.72 138.11 31.12 117.83 16.09C139.54 41.58 159.83 85.2 175.89 122.56C159.83 96.29 145.05 71.34 135.86 48.14C143.98 85.37 158.82 109.82 174.15 138.21C160.26 115.9 131.51 69.77 110.12 57.23C105.68 40.31 96.78 24.92 98.31 0C91.14 40.54 108.92 78.99 119.99 111.46C118.8 110.4 117.57 109.21 116.44 107.95C102.4 94 89.95 75.42 79.43 34.99C88.7 81.59 101.12 101.43 115.17 117.09C115.75 134.74 126.79 166.45 133.77 182.9C122.91 165.78 111.29 149.71 100.65 139.2C97.73 118.16 93.45 96.3 83.5 69.77C89.59 95 92.18 112.16 93.86 130.3C90.13 120.95 76.13 96.67 60.77 94.08C61.49 94.93 76.92 103.11 94.18 134.5C94.92 143.15 95.47 151.29 95.86 159.36C91.65 148.41 88.76 138.91 88.38 132.87C87.03 136.75 88.93 147.41 92.36 160.36C81.95 140.03 62.44 101.13 44.75 90.45C72.29 123.34 89.35 172.03 94.42 182.19C95.02 183.42 96.02 185.68 97.58 188.72C97.81 192.34 98.15 195.91 98.43 199.66C77.45 165.33 54.52 126.92 46.72 102.96C52.64 130.78 72.6 168.18 87.02 199.26C86.1 198.21 85.13 197.03 84.2 195.97C83.08 194.4 82.07 192.78 80.94 191.21C78.52 184.58 76.15 177.76 72.94 171.1C67.03 158.43 60.29 144.97 49.37 130.7C57.14 147.18 64.12 161.29 69.23 174.56L69.83 176.11C64.98 169.89 60.21 164.56 55.57 160.25C52.97 156.85 50.41 153.57 47.81 150.17C46.51 145.11 45.27 139.54 44.01 132.9C42.24 123.25 41.03 112.05 40.43 101.75C39.93 91.71 44.94 62.06 48.92 49.54C33.15 77.81 34.75 116.93 42.85 144.01C30.77 129.76 14.16 115.2 0 122.42L0.739998 124.35C5.17 124.09 10.04 124.98 12.75 125.98C18.33 128.05 24.76 132.3 29.96 137.08C36.45 143.18 41.06 148.44 45.34 154.19C45.96 156.81 46.64 159.25 47.27 161.56C48.19 164.96 49.17 168.17 50.09 171.57C47.71 169.76 45.28 168.14 42.94 166.78C40.87 160.74 39.08 154.07 37.68 146.72C38.01 152.95 39.07 159.08 40.61 165.42C31.47 160.17 22.83 158.23 15.15 160.45C24.96 161.74 33.97 165.66 42.26 171.38C47.04 187.17 54.93 203.28 63.55 219.29C63.79 220.25 64.03 221.21 64.27 222.17C64.81 223.9 65.29 225.83 65.72 227.62L78.2 220.71C75.38 217.42 72.52 214.01 69.65 210.6C66.48 202.36 63.49 194.94 60.56 187.66C67.64 195.3 74.06 204.25 80.06 213.44C80.86 215.18 81.51 216.86 82.15 218.53L114.46 200.64C111.44 194.81 108.58 188.73 105.73 182.66C104.09 169.66 102.96 157.31 101.41 144.89C110.34 159.01 118.25 176.2 125.55 194.5L147.73 182.22C141.95 170.57 137.04 160.16 133.86 152.24C135.44 158.71 137.48 166.02 140.04 173.67C132.2 160.35 122.15 137.94 118.09 120.34C120.71 123.11 123.33 125.56 125.95 128.33C133.88 149.26 142.08 167.54 148.58 181.75L159.78 175.55C155.49 167.77 150.38 158.87 145.2 148.77C148.93 153.42 152.91 158.72 156.71 164.9C158.21 168.13 159.87 171.43 161.37 174.66L172.89 168.28C168.59 161.13 164.26 154.93 159.86 149.55C145.67 128.49 132.32 107.91 125.32 94.44C128.82 104.54 133.71 115.89 139.41 128.36C137.09 126.36 134.82 124.5 132.65 122.57C124.76 104.75 117.04 83.7 110.23 57.94C131.9 80.95 160.71 135.64 173.1 168.16L226 138.87L199.47 69.95L199.5 69.96Z" fill="#8FBD3F"/>
</svg>
