<svg width="23" height="36" viewBox="0 0 23 36" fill="none" xmlns="http://www.w3.org/2000/svg">
<path d="M22.7405 35.557C22.7405 35.557 22.6401 35.5269 22.5999 35.5068C22.5597 35.4967 22.5095 35.4767 22.4693 35.4666C22.4593 35.4666 22.4492 35.4666 22.4392 35.4566C22.399 35.4465 22.3588 35.4264 22.3186 35.4164C22.2684 35.3963 22.2283 35.3863 22.178 35.3662C22.1379 35.3561 22.0977 35.336 22.0675 35.326C22.0374 35.3159 21.9973 35.3059 21.9671 35.2858C21.9069 35.2657 21.8466 35.2456 21.7863 35.2255C21.6859 35.1854 21.5854 35.1552 21.485 35.1151C21.4448 35.105 21.4046 35.0849 21.3645 35.0749C21.264 35.0347 21.1635 35.0046 21.0631 34.9644C21.0229 34.9443 20.9828 34.9343 20.9326 34.9142C20.9326 34.9142 20.9225 34.9142 20.9124 34.9142C20.8723 34.8941 20.822 34.884 20.7819 34.864C20.6613 34.8137 20.5408 34.7735 20.4102 34.7233C20.3801 34.7133 20.3399 34.6932 20.3098 34.6832C20.2696 34.6731 20.2395 34.653 20.1993 34.643C20.1792 34.643 20.1692 34.6329 20.1491 34.6229C20.129 34.6229 20.1089 34.6028 20.0888 34.5928C20.0386 34.5727 19.9984 34.5526 19.9482 34.5325C19.9281 34.5325 19.908 34.5224 19.898 34.5124C19.8879 34.5124 19.8678 34.5024 19.8578 34.4923C19.8176 34.4722 19.7774 34.4622 19.7473 34.4421C19.7172 34.432 19.6971 34.422 19.667 34.4119C19.667 34.4119 19.6469 34.412 19.6368 34.4019C19.5565 34.3718 19.4761 34.3316 19.3958 34.3015C19.3355 34.2713 19.2652 34.2412 19.2049 34.2211C19.2049 34.2211 19.1848 34.2211 19.1748 34.2111C19.1447 34.201 19.1246 34.191 19.0944 34.1709C19.0743 34.1709 19.0643 34.1609 19.0442 34.1508C19.004 34.1307 18.9739 34.1207 18.9337 34.1006C18.9237 34.1006 18.9036 34.0905 18.8935 34.0805C18.8433 34.0604 18.8031 34.0403 18.7529 34.0202C18.7328 34.0102 18.7027 34.0001 18.6826 33.9901C18.6726 33.9901 18.6525 33.98 18.6424 33.97L18.6123 33.9499C18.6123 33.9499 18.5721 33.9298 18.552 33.9198C18.5018 33.8997 18.4616 33.8796 18.4114 33.8595C18.4114 33.8595 18.4014 33.8595 18.3913 33.8595C18.311 33.8193 18.2407 33.7892 18.1603 33.749C18.1603 33.749 18.1503 33.749 18.1402 33.749C18.1201 33.739 18.1 33.7289 18.0799 33.7189C18.0699 33.7189 18.0498 33.7089 18.0398 33.6988C18.0096 33.6888 17.9795 33.6687 17.9494 33.6586C17.9393 33.6586 17.9192 33.6486 17.9092 33.6385C17.8791 33.6285 17.859 33.6084 17.8288 33.5984C17.7886 33.5783 17.7485 33.5582 17.7083 33.5381C17.6882 33.5381 17.6782 33.518 17.6581 33.518C17.6581 33.518 17.648 33.518 17.638 33.518C17.638 33.518 17.6179 33.518 17.6078 33.508C17.5878 33.4979 17.5576 33.4879 17.5376 33.4678C17.4974 33.4477 17.4672 33.4377 17.4271 33.4176C17.417 33.4176 17.3969 33.4075 17.3869 33.3975C17.3166 33.3674 17.2563 33.3272 17.186 33.297C17.176 33.297 17.1659 33.287 17.1559 33.2769C17.0755 33.2368 17.0052 33.1966 16.9248 33.1564C16.8746 33.1263 16.8244 33.1062 16.7742 33.0761C16.744 33.056 16.7139 33.0459 16.6838 33.0258C16.6737 33.0258 16.6536 33.0158 16.6436 33.0057C16.5934 32.9756 16.5331 32.9455 16.4829 32.9254C16.4527 32.9154 16.4327 32.8953 16.4025 32.8852C16.3724 32.8651 16.3423 32.8551 16.3121 32.835C16.2921 32.825 16.272 32.8149 16.2418 32.7948C16.2217 32.7848 16.2017 32.7747 16.1816 32.7647C16.1514 32.7446 16.1213 32.7345 16.0912 32.7145C16.051 32.6944 16.0108 32.6743 15.9706 32.6542C15.9606 32.6542 15.9506 32.6442 15.9405 32.6341C15.9305 32.6341 15.9204 32.6241 15.9104 32.614C15.8501 32.5839 15.7898 32.5437 15.7296 32.5136C15.6793 32.4835 15.6291 32.4533 15.5789 32.4332C15.5488 32.4232 15.5287 32.4031 15.4986 32.3931C15.4785 32.383 15.4584 32.3629 15.4282 32.3529C15.378 32.3227 15.3378 32.3026 15.2876 32.2725C15.2675 32.2625 15.2474 32.2524 15.2273 32.2424C15.157 32.2022 15.0968 32.162 15.0265 32.1218C14.9461 32.0817 14.8758 32.0314 14.7954 31.9913C14.7251 31.9511 14.6448 31.9009 14.5745 31.8607C14.5745 31.8607 14.5745 31.8607 14.5644 31.8607C14.5443 31.8507 14.5242 31.8306 14.5041 31.8205C14.474 31.8004 14.4439 31.7803 14.4137 31.7603C14.3937 31.7502 14.3736 31.7301 14.3535 31.7201C14.3535 31.7201 14.3334 31.71 14.3234 31.7C14.2631 31.6598 14.1928 31.6196 14.1325 31.5795C14.0823 31.5493 14.0321 31.5192 13.9818 31.489C13.9618 31.479 13.9417 31.469 13.9216 31.4489C13.8914 31.4288 13.8513 31.4087 13.8211 31.3886C13.7709 31.3585 13.7308 31.3283 13.6805 31.2982C13.6805 31.2982 13.6805 31.2982 13.6705 31.2982C13.6705 31.2982 13.6504 31.2882 13.6504 31.2781C13.6102 31.248 13.57 31.2279 13.5298 31.1978C13.5198 31.1978 13.4997 31.1777 13.4897 31.1676C13.4897 31.1676 13.4796 31.1676 13.4696 31.1576C13.3993 31.1074 13.3189 31.0571 13.2486 31.017C13.2285 31.0069 13.2084 30.9868 13.1783 30.9768C13.1281 30.9467 13.0879 30.9165 13.0377 30.8864C13.0377 30.8864 13.0276 30.8864 13.0176 30.8763C12.9674 30.8462 12.9272 30.8161 12.877 30.786C12.8468 30.7659 12.8268 30.7458 12.7966 30.7257C12.7765 30.7056 12.7464 30.6955 12.7263 30.6754C12.6962 30.6554 12.656 30.6253 12.6259 30.6052C12.5957 30.5851 12.5756 30.565 12.5455 30.5449C12.5455 30.5449 12.5254 30.5348 12.5154 30.5248C12.5053 30.5248 12.4953 30.5148 12.4852 30.5047C12.4652 30.4947 12.4451 30.4746 12.425 30.4645C12.425 30.4645 12.4049 30.4545 12.3949 30.4444C12.3547 30.4143 12.3145 30.3942 12.2843 30.3641C12.2843 30.3641 12.2843 30.3641 12.2743 30.3641C12.2341 30.344 12.204 30.3139 12.1638 30.2837C12.1638 30.2837 12.1538 30.2837 12.1437 30.2737C12.1337 30.2636 12.1136 30.2536 12.1036 30.2435C12.0935 30.2435 12.0734 30.2235 12.0634 30.2134C12.0433 30.2034 12.0333 30.1933 12.0132 30.1732C12.0031 30.1732 11.9931 30.1531 11.973 30.1431C11.973 30.1431 11.9629 30.1331 11.9529 30.123C11.8926 30.0828 11.8323 30.0326 11.7721 29.9924C11.7721 29.9924 11.762 29.9824 11.752 29.9724C11.7319 29.9623 11.7118 29.9422 11.6917 29.9322C11.6415 29.892 11.5913 29.8619 11.5411 29.8217C11.5109 29.7916 11.4708 29.7715 11.4406 29.7413C11.4306 29.7413 11.4105 29.7212 11.4004 29.7112C11.3703 29.6811 11.3301 29.661 11.3 29.6309C11.2899 29.6208 11.2699 29.6108 11.2598 29.6007C11.2598 29.6007 11.2498 29.6007 11.2397 29.5907C11.2096 29.5706 11.1795 29.5404 11.1493 29.5204C11.1192 29.4902 11.079 29.4701 11.0489 29.44C11.0187 29.4099 10.9786 29.3898 10.9485 29.3596C10.9284 29.3496 10.9183 29.3295 10.8982 29.3195C10.8982 29.3195 10.8781 29.3094 10.8681 29.2994C10.8681 29.2994 10.848 29.2893 10.848 29.2793C10.848 29.2793 10.8279 29.2592 10.8179 29.2592C10.8179 29.2592 10.8078 29.2492 10.7978 29.2391C10.7676 29.219 10.7375 29.1889 10.7074 29.1688L10.6572 29.1286C10.6572 29.1286 10.5969 29.0784 10.5668 29.0583C10.5166 29.0181 10.4764 28.988 10.4261 28.9478C10.406 28.9277 10.386 28.9077 10.3558 28.8976C10.3257 28.8775 10.3056 28.8574 10.2755 28.8373C10.2755 28.8373 10.2554 28.8273 10.2554 28.8173C10.2152 28.7871 10.175 28.757 10.1349 28.7168C10.0947 28.6867 10.0645 28.6566 10.0244 28.6264C9.97415 28.5862 9.92394 28.546 9.88376 28.5059L9.86366 28.4858C9.86366 28.4858 9.85362 28.4858 9.84358 28.4757C9.84358 28.4757 9.82347 28.4657 9.82347 28.4557C9.79334 28.4255 9.75318 28.3954 9.72305 28.3753C9.69292 28.3552 9.67281 28.3351 9.64268 28.305C9.64268 28.305 9.62259 28.2949 9.61255 28.2849C9.6025 28.2748 9.58241 28.2648 9.57236 28.2447C9.53218 28.2146 9.49201 28.1744 9.45183 28.1443C9.43174 28.1242 9.40164 28.1041 9.38155 28.084C9.32128 28.0238 9.25097 27.9735 9.1907 27.9133C9.15052 27.8831 9.11032 27.843 9.07014 27.8128C9.0601 27.8028 9.04003 27.7927 9.02999 27.7726C9.02999 27.7726 9.01992 27.7626 9.00988 27.7525C8.97975 27.7224 8.94962 27.6923 8.91948 27.6722C8.88935 27.6421 8.85922 27.622 8.82909 27.5919C8.81904 27.5919 8.809 27.5718 8.79896 27.5617C8.75878 27.5215 8.71861 27.4914 8.67843 27.4512C8.66838 27.4412 8.65834 27.4311 8.6483 27.4211C8.62821 27.401 8.59807 27.3809 8.57798 27.3608C8.52776 27.3106 8.47754 27.2704 8.42732 27.2202C8.41728 27.2101 8.39718 27.1901 8.38713 27.18C8.38713 27.18 8.3771 27.17 8.36706 27.1599C8.34697 27.1398 8.32688 27.1198 8.30679 27.0997C8.30679 27.0997 8.28668 27.0896 8.28668 27.0796C8.28668 27.0796 8.27665 27.0696 8.26661 27.0595C8.26661 27.0595 8.24652 27.0394 8.23648 27.0394C8.20634 27.0093 8.18627 26.9892 8.15613 26.9591C8.13604 26.939 8.12598 26.9289 8.10589 26.9088C8.0858 26.8887 8.06572 26.8686 8.04563 26.8486C8.04563 26.8486 8.0356 26.8385 8.02555 26.8285C8.02555 26.8285 8.02554 26.8285 8.0155 26.8184C7.98536 26.7883 7.95524 26.7582 7.9251 26.728C7.91506 26.718 7.89496 26.6979 7.88492 26.6878C7.83469 26.6376 7.78448 26.5874 7.73426 26.5372C7.70412 26.5171 7.68405 26.487 7.65392 26.4669C7.62378 26.4367 7.59363 26.4066 7.57354 26.3865C7.54341 26.3564 7.51329 26.3263 7.4932 26.3062C7.4932 26.3062 7.48314 26.2961 7.47309 26.2861C7.44296 26.2559 7.42289 26.2258 7.39275 26.2057C7.37266 26.1856 7.34252 26.1555 7.32244 26.1354C7.32244 26.1354 7.3124 26.1254 7.30236 26.1153C7.28227 26.0952 7.26216 26.0751 7.25212 26.0651C7.25212 26.0651 7.25214 26.0651 7.24209 26.0551C7.22201 26.035 7.21194 26.0149 7.19185 26.0048C7.18181 25.9948 7.17177 25.9847 7.16172 25.9747C7.14163 25.9446 7.11152 25.9245 7.09143 25.8944C7.09143 25.8944 7.09143 25.8943 7.08138 25.8843C7.07134 25.8743 7.06128 25.8542 7.04119 25.8441C7.04119 25.8441 7.04118 25.8441 7.03114 25.8341C7.0211 25.824 7.00103 25.804 6.99098 25.7939C6.96085 25.7638 6.9307 25.7336 6.91061 25.7035C6.85035 25.6432 6.80014 25.583 6.73988 25.5227C6.71979 25.5026 6.6997 25.4825 6.67961 25.4624C6.67961 25.4624 6.66955 25.4524 6.6595 25.4423C6.5691 25.3419 6.47872 25.2415 6.38832 25.141C6.36823 25.1209 6.34814 25.0908 6.32805 25.0707C6.32805 25.0707 6.30795 25.0506 6.30795 25.0406C6.25772 24.9904 6.21756 24.9301 6.16734 24.8799C6.16734 24.8799 6.15731 24.8698 6.14726 24.8598C6.12717 24.8397 6.10709 24.8096 6.087 24.7895C6.05687 24.7593 6.03676 24.7292 6.00663 24.6991C6.00663 24.6991 5.99659 24.689 5.98655 24.679C5.96646 24.6589 5.94637 24.6288 5.92629 24.6087C5.89615 24.5785 5.87605 24.5484 5.84591 24.5183C5.83587 24.5082 5.82583 24.4881 5.81578 24.4781C5.79569 24.458 5.78566 24.4379 5.76557 24.4279C5.76557 24.4279 5.75551 24.4178 5.74546 24.4078C5.72538 24.3877 5.7053 24.3676 5.69525 24.3475C5.68521 24.3375 5.67517 24.3274 5.66512 24.3073C5.64503 24.2872 5.635 24.2672 5.61491 24.2471C5.59482 24.2169 5.56468 24.1868 5.5446 24.1567C5.52451 24.1366 5.50442 24.1165 5.48433 24.0864C5.48433 24.0864 5.46422 24.0663 5.46422 24.0562C5.46422 24.0462 5.44414 24.0361 5.43409 24.016C5.43409 24.006 5.414 23.996 5.40396 23.9759C5.39392 23.9658 5.38387 23.9457 5.37383 23.9357C5.35374 23.9156 5.33365 23.8855 5.31356 23.8654C5.28343 23.8352 5.26336 23.8051 5.23322 23.7649C5.20309 23.7248 5.17296 23.6946 5.14283 23.6545C5.12274 23.6344 5.11268 23.6143 5.09259 23.5942C4.97206 23.4335 4.84148 23.2728 4.72095 23.1121C4.70086 23.092 4.68079 23.0619 4.67074 23.0418C4.67074 23.0418 4.66068 23.0217 4.65063 23.0217C4.63054 22.9915 4.60043 22.9614 4.58035 22.9212C4.58035 22.9212 4.58034 22.9212 4.57029 22.9112C4.5502 22.881 4.53012 22.8609 4.51003 22.8308C4.4799 22.7906 4.44976 22.7404 4.40958 22.7002C4.40958 22.7002 4.39955 22.6801 4.3895 22.6701C4.3895 22.6601 4.36939 22.65 4.36939 22.64C4.35935 22.6199 4.34933 22.6098 4.32924 22.5898C4.32924 22.5898 4.32923 22.5897 4.31918 22.5797C4.31918 22.5697 4.29907 22.5596 4.29907 22.5496C4.27899 22.5194 4.2589 22.4994 4.23881 22.4692C4.23881 22.4692 4.23883 22.4592 4.22879 22.4491C4.22879 22.4391 4.21872 22.429 4.20868 22.419C4.20868 22.4089 4.18859 22.3889 4.17855 22.3788C4.17855 22.3788 4.16851 22.3587 4.15847 22.3587C4.13838 22.3286 4.11829 22.2985 4.09821 22.2683C4.08816 22.2482 4.07812 22.2382 4.06807 22.2181C4.05803 22.198 4.03793 22.1779 4.02789 22.1679C3.98771 22.1076 3.93748 22.0373 3.89731 21.977C3.89731 21.977 3.88727 21.9569 3.87723 21.9469C3.80692 21.8364 3.73662 21.736 3.66631 21.6255C3.66631 21.6155 3.6462 21.6054 3.6462 21.5954C3.6462 21.5954 3.6462 21.5954 3.6462 21.5853C3.60602 21.5251 3.56585 21.4648 3.52567 21.3945C3.52567 21.3844 3.50559 21.3744 3.50559 21.3543V21.3342C3.50559 21.3342 3.47545 21.3041 3.46541 21.284C3.44532 21.2639 3.43529 21.2338 3.4152 21.2137C3.4152 21.2137 3.41519 21.2036 3.40514 21.1936C3.3951 21.1735 3.375 21.1434 3.36496 21.1233C3.36496 21.1233 3.35492 21.1032 3.34488 21.0932C3.34488 21.0932 3.33485 21.0731 3.3248 21.063C3.3248 21.063 3.31474 21.0429 3.30469 21.0329C3.30469 21.0228 3.28461 21.0028 3.27456 20.9927C3.27456 20.9927 3.27455 20.9826 3.26451 20.9726C3.25446 20.9525 3.2344 20.9324 3.22435 20.9023C3.22435 20.9023 3.22435 20.9023 3.22435 20.8923C3.20426 20.8621 3.18418 20.832 3.16409 20.8019C3.15404 20.7818 3.13395 20.7617 3.1239 20.7416C3.02346 20.5708 2.92303 20.4001 2.82258 20.2293C2.82258 20.2193 2.81252 20.2092 2.80248 20.1992C2.80248 20.1992 2.80247 20.1791 2.79242 20.1791C2.79242 20.1691 2.78239 20.159 2.77234 20.149C2.77234 20.1289 2.75226 20.1188 2.74221 20.0987C2.74221 20.0987 2.73218 20.0787 2.72213 20.0686C2.70205 20.0385 2.69198 20.0184 2.67189 19.9883C2.67189 19.9883 2.67192 19.9682 2.66187 19.9682C2.66187 19.9481 2.64178 19.938 2.63174 19.918C2.62169 19.8979 2.61165 19.8778 2.60161 19.8677C2.60161 19.8677 2.6016 19.8577 2.59155 19.8476C2.57146 19.8175 2.5614 19.7874 2.54131 19.7572C2.52122 19.7271 2.50114 19.6869 2.48105 19.6568C2.46096 19.6166 2.44087 19.5764 2.42079 19.5363C2.42079 19.5262 2.41075 19.5162 2.40071 19.5061C2.37058 19.4459 2.34045 19.3856 2.31031 19.3253C2.31031 19.3053 2.2902 19.2952 2.2902 19.2751C2.23998 19.1847 2.18978 19.0843 2.1496 18.9939C2.12951 18.9637 2.11948 18.9336 2.09939 18.9035C2.09939 18.8834 2.08933 18.8733 2.07928 18.8533C2.06924 18.8332 2.05919 18.8131 2.04915 18.793C2.02906 18.7629 2.01903 18.7227 1.99894 18.6925C1.9889 18.6725 1.97884 18.6423 1.95875 18.6222C1.95875 18.6021 1.93867 18.5821 1.92862 18.572C1.90853 18.5318 1.8985 18.5017 1.87841 18.4615C1.87841 18.4414 1.85833 18.4213 1.84828 18.4012C1.84828 18.4012 1.84827 18.3812 1.83823 18.3711C1.82818 18.341 1.80808 18.3109 1.79804 18.2807C1.788 18.2506 1.7679 18.2205 1.75785 18.2004C1.74781 18.1702 1.72774 18.1401 1.7177 18.11C1.68757 18.0497 1.65742 17.9894 1.63733 17.9191C1.63733 17.9191 1.63733 17.9091 1.63733 17.899C1.63733 17.889 1.62729 17.8689 1.61725 17.8589C1.61725 17.8388 1.59716 17.8187 1.58712 17.7986C1.56703 17.7584 1.55697 17.7182 1.53688 17.6781C1.52683 17.6479 1.51681 17.6178 1.49672 17.5877C1.47663 17.5475 1.45653 17.4973 1.44648 17.4571C1.43644 17.4269 1.41637 17.3968 1.40633 17.3667C1.39628 17.3365 1.38623 17.3064 1.36614 17.2763C1.36614 17.2562 1.35611 17.2462 1.34606 17.2261C1.34606 17.2261 1.34606 17.216 1.34606 17.206C1.34606 17.1959 1.336 17.1859 1.32595 17.1658C1.32595 17.1457 1.30588 17.1256 1.30588 17.1055C1.30588 17.0955 1.29581 17.0754 1.28577 17.0654C1.27572 17.0352 1.26568 17.0051 1.25564 16.985C1.25564 16.985 1.25564 16.975 1.25564 16.9649C1.24559 16.9348 1.23557 16.9047 1.21548 16.8745C1.21548 16.8544 1.19537 16.8343 1.19537 16.8143C1.19537 16.8143 1.19537 16.8042 1.19537 16.7942C1.19537 16.7942 1.19537 16.7942 1.19537 16.7841C1.19537 16.7741 1.19539 16.764 1.18535 16.754C1.17531 16.7239 1.16525 16.6937 1.14516 16.6535C1.14516 16.6335 1.12509 16.6134 1.12509 16.5933C1.12509 16.5832 1.12508 16.5631 1.11503 16.5531C1.11503 16.533 1.09495 16.5129 1.09495 16.4928C1.09495 16.4928 1.09495 16.4727 1.09495 16.4627C1.09495 16.4426 1.07485 16.4225 1.07485 16.4024L1.05477 16.3522C1.05477 16.3522 1.03468 16.292 1.02464 16.2618C1.02464 16.2518 1.02463 16.2417 1.01458 16.2317C1.01458 16.2317 1.01457 16.2116 1.00453 16.2015C1.00453 16.1814 0.994495 16.1714 0.984451 16.1513C0.984451 16.1212 0.964363 16.0911 0.954319 16.0609C0.954319 16.0609 0.954319 16.0509 0.954319 16.0408C0.954319 16.0208 0.944285 16.0006 0.934241 15.9806C0.934241 15.9605 0.924177 15.9504 0.914133 15.9303C0.914133 15.9203 0.914154 15.9002 0.904109 15.8902C0.894065 15.86 0.884022 15.8299 0.873977 15.7998C0.873977 15.7897 0.873968 15.7797 0.863923 15.7696C0.863923 15.7696 0.863923 15.7495 0.863923 15.7395C0.863923 15.7395 0.863923 15.7295 0.863923 15.7194C0.843835 15.6592 0.823748 15.5888 0.80366 15.5286C0.80366 15.5185 0.80365 15.4984 0.793605 15.4884C0.793605 15.4884 0.793605 15.4784 0.793605 15.4683C0.793605 15.4583 0.793596 15.4382 0.783551 15.4281C0.783551 15.398 0.763464 15.3679 0.753419 15.3377C0.753419 15.3277 0.75344 15.3076 0.743396 15.2975C0.743396 15.2775 0.733332 15.2473 0.723288 15.2272C0.723288 15.2272 0.723288 15.2172 0.723288 15.2072C0.723288 15.1971 0.723308 15.177 0.713264 15.167C0.713264 15.1469 0.7032 15.1268 0.693156 15.1168C0.693156 15.0866 0.673078 15.0665 0.673078 15.0364C0.673078 15.0063 0.652991 14.9661 0.642946 14.936V14.9159C0.642946 14.9159 0.642946 14.9058 0.642946 14.8958C0.642946 14.8757 0.642936 14.8657 0.632892 14.8456C0.632892 14.8255 0.632913 14.8154 0.622869 14.7953C0.622869 14.7652 0.60276 14.7451 0.60276 14.715C0.592716 14.6748 0.582673 14.6447 0.572628 14.6045C0.572628 14.5844 0.562595 14.5543 0.552551 14.5342C0.552551 14.5041 0.532442 14.4739 0.532442 14.4438C0.532442 14.4337 0.532442 14.4237 0.532442 14.4136C0.532442 14.4036 0.532442 14.3936 0.532442 14.3835C0.532442 14.3534 0.512365 14.3232 0.512365 14.2931C0.512365 14.263 0.502331 14.2328 0.492287 14.2027C0.492287 14.1826 0.492277 14.1726 0.482233 14.1525C0.482233 14.1123 0.462145 14.0822 0.452101 14.042C0.452101 14.0119 0.442068 13.9918 0.432023 13.9617C0.432023 13.9617 0.432023 13.9617 0.432023 13.9516C0.432023 13.9516 0.432023 13.9315 0.432023 13.9215C0.432023 13.9014 0.432014 13.8813 0.421969 13.8713C0.421969 13.8311 0.401882 13.7909 0.391837 13.7507C0.391837 13.7206 0.381804 13.7005 0.37176 13.6704C0.37176 13.6503 0.37175 13.6402 0.361706 13.6202C0.361706 13.6001 0.361696 13.59 0.351651 13.5699C0.351651 13.5599 0.351651 13.5398 0.351651 13.5298C0.351651 13.4896 0.331574 13.4494 0.331574 13.4193C0.331574 13.3992 0.331564 13.3791 0.32152 13.369C0.32152 13.3289 0.301442 13.2987 0.301442 13.2585C0.301442 13.2284 0.291378 13.1983 0.281334 13.1681C0.281334 13.138 0.2713 13.1179 0.261256 13.0878C0.261256 13.0476 0.241178 13.0074 0.241178 12.9672C0.241178 12.917 0.221091 12.8668 0.211046 12.8166C0.190958 12.7262 0.180905 12.6358 0.17086 12.5555C0.17086 12.5253 0.170851 12.4952 0.160806 12.465C-0.190746 10.0745 0.140717 8.11584 0.160806 8.08571C0.160806 8.08571 0.160806 8.0857 0.160806 8.07565C0.160806 8.07565 0.17087 8.06562 0.180915 8.05558C0.201003 8.02544 0.231123 7.9953 0.261256 7.95513C0.2713 7.93504 0.281353 7.92501 0.301442 7.90492C0.321531 7.88483 0.341607 7.85469 0.351651 7.8346C0.663026 7.41274 1.20542 6.54893 1.63733 5.20298C1.80808 5.05232 1.99894 4.89162 2.18979 4.74095C2.20987 4.72086 2.22994 4.7108 2.26007 4.69071C2.28016 4.67062 2.30026 4.66059 2.33039 4.6405C2.37057 4.61037 2.42079 4.57019 2.46097 4.54005C2.48106 4.51996 2.5112 4.50993 2.53129 4.48984C2.56142 4.46975 2.5815 4.44964 2.61163 4.42955C2.65181 4.39941 2.69198 4.3693 2.73216 4.34921C2.85269 4.26885 2.96319 4.18851 3.09377 4.10815C3.11386 4.08806 3.144 4.078 3.16409 4.05791C3.18418 4.03782 3.21429 4.02779 3.23438 4.0077C3.25446 3.99766 3.27455 3.97756 3.29464 3.96752C3.32477 3.94743 3.35492 3.9374 3.37501 3.91731C3.3951 3.89722 3.42524 3.88716 3.44533 3.86707C3.52568 3.81685 3.60603 3.76664 3.68638 3.72646C3.70647 3.71642 3.72656 3.70636 3.74665 3.68628C3.79687 3.65614 3.84709 3.62601 3.89731 3.59588C3.94753 3.56575 3.99774 3.53562 4.04797 3.50548C4.12832 3.45526 4.21872 3.41507 4.29907 3.36485C4.3493 3.34476 4.38949 3.31465 4.43971 3.29456C4.49998 3.26443 4.56024 3.23429 4.6205 3.19411C4.65063 3.18407 4.67074 3.16397 4.70087 3.15393C4.73101 3.14388 4.76113 3.12378 4.78121 3.11374C4.81135 3.1037 4.8415 3.08363 4.86159 3.07359C4.94194 3.03341 5.01223 2.99321 5.09259 2.96308C5.24325 2.88273 5.40396 2.81244 5.56467 2.73208C5.65507 2.6919 5.74549 2.65172 5.83589 2.6015C5.89616 2.57137 5.94636 2.55126 6.00663 2.52113C6.0468 2.50104 6.07695 2.49101 6.11713 2.47092C6.14726 2.46087 6.17739 2.44078 6.20753 2.43073C6.26779 2.4006 6.33811 2.38052 6.39837 2.35039C6.42851 2.34035 6.45861 2.32025 6.49879 2.3102C6.52892 2.30016 6.55906 2.28006 6.59924 2.27002C6.65951 2.23989 6.72982 2.21981 6.79009 2.18968C6.82022 2.17963 6.85036 2.15954 6.89054 2.14949C6.92067 2.13945 6.96085 2.11935 6.99098 2.10931C7.19187 2.02895 7.39274 1.94861 7.60368 1.86825C7.73425 1.81803 7.86482 1.76781 8.00544 1.71759C8.03558 1.70755 8.07576 1.68745 8.10589 1.67741L8.20634 1.63723C8.27665 1.6071 8.34696 1.58701 8.41727 1.55688C8.48758 1.52674 8.55791 1.50665 8.62822 1.47652C8.69853 1.44639 8.76883 1.4263 8.83914 1.39616C8.87932 1.38612 8.90944 1.37608 8.94962 1.35599C9.01993 1.33591 9.09026 1.30576 9.16057 1.28568C9.27106 1.2455 9.38153 1.21536 9.49202 1.17519C9.75317 1.09483 10.0143 1.00443 10.2855 0.924079C10.7877 0.773413 11.3 0.622751 11.8223 0.472086C11.8625 0.462041 11.9027 0.451998 11.9428 0.441954C11.9529 0.441954 11.9629 0.441954 11.973 0.441954C12.0835 0.411821 12.1939 0.381692 12.3044 0.351559C12.3446 0.341514 12.3848 0.331471 12.425 0.321427C12.5857 0.281249 12.7564 0.231023 12.9272 0.190845C13.1783 0.130579 13.4294 0.0602661 13.6906 0C8.48758 1.31581 4.4598 3.07356 2.17973 5.09248C1.55698 7.09131 0.653 8.04552 0.653 8.04552C0.653 8.04552 0.652991 8.07567 0.642946 8.12589C0.612813 8.36696 0.512375 9.14037 0.522419 10.195C0.522419 10.9383 0.582686 11.8222 0.743396 12.7664C2.25005 21.6858 9.89378 30.3038 20.5006 34.7936C21.3142 35.1351 22.1479 35.4566 23.0017 35.7579L22.7405 35.557Z" fill="#85201A"/>
</svg>
