<svg width="16" height="9" viewBox="0 0 16 9" fill="none" xmlns="http://www.w3.org/2000/svg">
<path d="M0.262444 8.58144C0.262444 8.58144 0.292881 8.60173 0.363956 8.56112C0.424879 8.5205 0.526434 8.42912 0.668586 8.2159C0.952889 7.77929 1.39963 6.8553 2.11039 4.91594C2.11039 4.91594 2.21193 4.68243 2.36424 4.42859C2.44546 4.30674 2.5267 4.17474 2.62824 4.0732C2.71962 3.97167 2.82117 3.90058 2.92271 3.87012C3.08517 3.8295 3.47099 3.50459 3.63345 3.14921C3.74514 2.90552 3.91775 2.72277 4.11067 2.62123C4.91281 2.08309 6.98418 1.16925 9.32968 1.35202C10.4974 1.43325 11.7361 1.78861 12.8936 2.47906C14.0512 3.16952 15.1173 4.19503 16.0007 5.51501C16.0007 5.4947 15.9499 5.16978 15.7367 4.62148C15.5234 4.07318 15.1376 3.29137 14.4167 2.42831C13.6856 1.59571 12.5992 0.651389 10.9238 0.21478C10.4974 0.103089 10.0506 0.0421856 9.55307 0.0117245C9.30938 0.00157078 9.04537 -0.00858291 8.78138 0.0117245C8.51738 0.0320319 8.24322 0.0523355 7.94877 0.103104C6.79125 0.275717 5.4916 0.712308 4.00916 1.54491C3.77562 1.68706 3.53192 1.77846 3.29839 1.84954C3.12578 1.89016 2.90239 1.99169 2.6587 2.22522C2.41501 2.45876 2.16116 2.81413 1.94793 3.36243C1.78547 3.76858 1.60272 4.18489 1.41995 4.58089C1.23718 4.97688 1.04426 5.34242 0.881805 5.66734C0.719346 5.99226 0.567036 6.26641 0.4655 6.45933C0.363963 6.65225 0.292904 6.76392 0.292904 6.76392C0.292904 6.76392 0.252293 6.84515 0.201525 6.97714C0.150756 7.10914 0.0898091 7.28175 0.0491944 7.48483C-0.0320352 7.88082 -0.0421765 8.33773 0.252281 8.62204L0.262444 8.58144Z" fill="#B4B549"/>
</svg>
