<svg width="116" height="120" viewBox="0 0 116 120" fill="none" xmlns="http://www.w3.org/2000/svg">
<g clip-path="url(#clip0_559_21149)">
<path d="M81.734 9.90858C82.3453 10.3398 82.3443 11.7604 82.488 12.4075C82.8741 14.1523 84.3674 23.1636 84.5974 26.0711C85.1101 32.4993 85.1594 39.1888 84.296 45.4036C83.7831 49.0949 82.814 52.6556 81.8249 56.1761C80.7783 59.9007 77.3455 67.227 75.7741 70.0756C71.6331 77.5887 66.5042 84.5728 59.9378 90.0537C56.95 92.5472 53.6748 94.7132 50.1461 96.4608C49.8813 96.5931 49.3553 96.8906 48.6456 97.3083C46.6558 98.4769 43.2281 100.567 40.1315 102.411C42.3215 99.7298 44.9665 97.0716 48.0772 94.91C48.0835 94.9049 48.0934 94.899 48.0997 94.8939C49.2713 94.1742 50.4049 93.4424 51.5019 92.6963C51.5068 92.6934 51.5096 92.689 51.5145 92.6861C97.7259 61.2732 79.7287 8.48702 81.734 9.90858Z" fill="#5BBF13"/>
<path d="M86.2779 11.2894C86.7117 9.77389 87.4059 8.35196 87.9444 6.87303C88.0699 6.52948 87.5572 6.26815 87.4325 6.61526C86.8784 8.1422 86.1658 9.60723 85.7186 11.1721C85.6161 11.5274 86.1775 11.646 86.28 11.2908L86.2779 11.2894Z" fill="url(#paint0_linear_559_21149)"/>
<path d="M78.423 14.408C77.1675 12.8872 75.7887 11.4733 74.5332 9.95252C74.3 9.66897 73.8193 9.98628 74.0546 10.2712C75.3101 11.792 76.6889 13.2058 77.9443 14.7267C78.1775 15.0102 78.6583 14.6929 78.423 14.408Z" fill="url(#paint1_linear_559_21149)"/>
<path d="M89.1048 22.9221C89.3145 21.2661 89.1827 19.5957 90.0422 18.0966C90.2265 17.7755 89.6953 17.5573 89.5138 17.8741C88.6309 19.4192 88.7529 21.1382 88.5356 22.8442C88.4896 23.2112 89.0574 23.2913 89.1034 22.9242L89.1048 22.9221Z" fill="url(#paint2_linear_559_21149)"/>
<path d="M79.9367 24.9382C78.8714 23.1396 77.6589 21.4328 76.412 19.7558C76.1928 19.4598 75.712 19.7772 75.9333 20.0745C77.1802 21.7514 78.3942 23.4561 79.4581 25.2569C79.6471 25.5761 80.1235 25.2561 79.9367 24.9382Z" fill="url(#paint3_linear_559_21149)"/>
<path d="M79.6205 6.60777C78.7681 4.8815 78.4081 2.92463 77.2761 1.33957C77.0619 1.04071 76.5825 1.35586 76.7975 1.65826C77.9244 3.237 78.2925 5.20512 79.1419 6.92646C79.3055 7.25688 79.7819 6.9368 79.6205 6.60777Z" fill="url(#paint4_linear_559_21149)"/>
<path d="M46.7575 91.8432C47.9814 90.5562 49.3911 89.498 50.8854 88.5459C51.1967 88.3457 50.8801 87.8684 50.5667 88.0673C49.0337 89.0465 47.5855 90.141 46.328 91.4614C46.0729 91.7311 46.503 92.1072 46.7589 91.8411L46.7575 91.8432Z" fill="url(#paint5_linear_559_21149)"/>
<path d="M62.1012 81.3893C62.9634 79.9194 63.9726 78.5437 64.9256 77.132C65.1315 76.8247 64.6168 76.5712 64.4136 76.8742C63.4606 78.2859 62.4528 79.6595 61.5893 81.1315C61.4028 81.4513 61.9161 81.7069 62.1012 81.3893Z" fill="url(#paint6_linear_559_21149)"/>
<path d="M70.1381 74.0387C70.6662 72.2999 71.2588 70.5842 71.2921 68.7512C71.2981 68.3799 70.7252 68.4125 70.7184 68.7803C70.6848 70.5613 70.0886 72.235 69.5767 73.9201C69.4685 74.2747 70.0313 74.3912 70.1381 74.0387Z" fill="url(#paint7_linear_559_21149)"/>
<path d="M73.9429 83.3436C75.0679 82.53 76.1367 81.6469 77.2464 80.8144C78.2465 80.0672 79.3319 79.2344 80.5534 78.9035C80.9114 78.8065 80.729 78.2627 80.3745 78.3589C79.1673 78.6867 78.1011 79.48 77.1042 80.2079C75.9245 81.0688 74.8069 82.009 73.6229 82.8672C73.3226 83.0835 73.6413 83.5622 73.9416 83.3458L73.9429 83.3436Z" fill="url(#paint8_linear_559_21149)"/>
<path d="M72.9029 90.0439C73.2527 89.9264 73.0739 89.3818 72.7241 89.4993C70.818 90.142 68.9887 91.0077 67.003 91.389C66.6409 91.459 66.8233 92.0028 67.1818 91.9336C69.1675 91.5523 70.9968 90.6866 72.9029 90.0439Z" fill="url(#paint9_linear_559_21149)"/>
<path d="M81.5248 70.7688C82.9775 69.6863 84.4252 68.5975 85.7635 67.3746C86.036 67.1253 85.6038 66.7478 85.3326 66.995C84.0314 68.1837 82.6174 69.2391 81.2047 70.2924C80.9088 70.5115 81.2261 70.9923 81.5234 70.771L81.5248 70.7688Z" fill="url(#paint10_linear_559_21149)"/>
<path d="M83.924 58.9148C84.969 57.5499 86.2915 56.4327 87.3365 55.0678C87.5605 54.7751 87.1311 54.3933 86.9056 54.6881C85.8606 56.0531 84.5382 57.1702 83.4931 58.5352C83.2691 58.8278 83.6986 59.2096 83.924 58.9148Z" fill="url(#paint11_linear_559_21149)"/>
<path d="M87.2216 9.54628C86.9849 8.56818 86.7511 7.94267 86.5723 8.05994C84.5689 9.37837 82.6579 13.5954 83.3183 16.7024C84.0318 20.0598 87.1328 20.0086 87.8687 17.2501C88.5073 14.8531 87.8169 12.0168 87.2216 9.54628Z" fill="#F9BD29"/>
<path d="M78.6099 13.3534C77.8349 12.6588 77.0479 12.2066 76.3645 12.1593C76.5928 14.2361 77.2846 18.2323 78.5575 20.2828C80.3634 23.1871 82.8593 23.157 82.3128 19.7387C81.9722 17.5991 80.318 14.8866 78.6078 13.352L78.6099 13.3534Z" fill="#F9BD29"/>
<path d="M82.6109 34.7779C84.1473 34.8409 84.7002 31.6205 83.6162 29.1939C82.3755 26.4168 80.3335 24.2336 78.2756 22.3848C77.8272 25.2086 78.7152 30.6602 80.5963 33.2375C81.3754 34.3068 82.0576 34.756 82.6109 34.7779Z" fill="#F9BD29"/>
<path d="M87.9586 20.7319C86.04 23.1417 83.4008 28.2862 86.7808 29.4232C91.2439 30.9215 90.5401 22.73 88.9629 19.6733C88.6911 19.8835 88.3409 20.254 87.9586 20.7319Z" fill="#F9BD29"/>
<path d="M80.4349 6.31187C79.4687 4.82991 78.4578 3.47489 77.9445 2.6764C77.5879 4.7141 77.1915 7.64735 77.8737 10.0393C78.5126 12.2846 81.0713 14.0515 82.2971 12.9853C83.6428 11.8129 82.1033 8.86882 80.4384 6.31109L80.4349 6.31187Z" fill="#F9BD29"/>
<path d="M69.8126 72.5283C67.6977 75.6114 64.7409 81.623 68.3308 81.3847C73.0699 81.0712 72.5237 73.4382 70.9129 71.1103C70.6166 71.4207 70.231 71.9179 69.8126 72.5283Z" fill="#F9BD29"/>
<path d="M79.5335 75.3448C81.409 73.7736 82.5287 71.1969 83.1507 69.0638C80.39 69.6075 76.5088 71.172 74.6521 73.2614C72.6244 75.5464 75.1794 77.9666 77.7062 76.593C78.3657 76.2347 78.9707 75.8139 79.5348 75.3426L79.5335 75.3448Z" fill="#F9BD29"/>
<path d="M84.5549 61.0339C84.8942 59.3755 85.0947 57.7625 85.2829 56.8734C83.3491 57.8308 80.6702 59.2991 79.3566 61.2881C78.1256 63.1531 78.9451 66.2307 80.8602 66.5454C82.9639 66.8894 83.9698 63.8951 84.5557 61.0374L84.5549 61.0339Z" fill="#F9BD29"/>
<path d="M75.861 82.7403C76.526 81.9402 76.9487 81.1373 76.9696 80.4523C74.9042 80.7581 70.9357 81.6017 68.9336 82.9515C66.0998 84.8665 66.2239 87.3585 69.6198 86.6849C71.7451 86.2619 74.3931 84.5085 75.861 82.7403Z" fill="#F9BD29"/>
<path d="M55.6696 89.6213C56.4886 90.9236 59.4572 89.5554 60.8419 87.2886C62.4279 84.6933 63.0711 81.7748 63.4289 79.0303C60.8483 80.2596 56.8553 84.0796 55.797 87.0891C55.3582 88.3361 55.3718 89.153 55.6683 89.6235L55.6696 89.6213Z" fill="#F9BD29"/>
<path d="M55.0328 97.049C56.3526 95.8692 57.5407 94.5715 58.3568 93.6973C56.6743 93.3242 52.9134 93.8342 50.9539 94.4793C48.9477 95.1402 46.6479 97.7358 48.1849 99.1503C49.9923 100.814 52.7161 99.1184 55.0341 97.0469L55.0328 97.049Z" fill="#F9BD29"/>
<path d="M68.0556 90.793C65.1102 89.8916 59.3547 89.3254 59.5383 92.8864C59.7806 97.589 67.1434 93.9266 69.4078 91.3388C69.1111 91.164 68.6395 90.9718 68.0556 90.793Z" fill="#F9BD29"/>
<path d="M48.2583 91.4191C48.4478 90.5614 48.4737 89.9924 48.2153 90.0434C45.3186 90.6281 41.1748 93.6073 40.4714 96.3103C39.71 99.2325 43.2612 99.9546 45.3903 97.8779C47.2395 96.0764 47.7808 93.5837 48.2583 91.4191Z" fill="#F9BD29"/>
<path d="M88.3227 34.4729C88.1486 32.9401 88.4972 31.4768 88.8834 30.0071C88.978 29.6498 88.4132 29.5412 88.3186 29.8984C87.919 31.4176 87.5671 32.9337 87.7492 34.5112C87.7909 34.8795 88.3644 34.8412 88.3227 34.4729Z" fill="url(#paint12_linear_559_21149)"/>
<path d="M84.8762 49.0772C85.607 47.4744 86.2704 45.6576 87.7438 44.5762C88.0419 44.3584 87.6677 43.9236 87.3697 44.1413C85.8196 45.2805 85.1081 47.1914 84.3369 48.8812C84.182 49.2182 84.7228 49.4121 84.8762 49.0772Z" fill="url(#paint13_linear_559_21149)"/>
<path d="M81.0926 38.591C80.5743 36.3193 80.0589 33.9335 78.694 31.998C78.4833 31.6983 77.9753 31.9677 78.1881 32.2687C79.5246 34.1678 80.0246 36.4918 80.5328 38.7174C80.6157 39.0785 81.1733 38.9507 81.0926 38.591Z" fill="url(#paint14_linear_559_21149)"/>
<path d="M77.2694 51.4349C76.623 49.4441 76.191 47.371 75.0271 45.5977C74.8255 45.2887 74.3469 45.6074 74.5485 45.9164C75.6824 47.6461 76.0936 49.6754 76.7234 51.6159C76.8374 51.9665 77.382 51.7876 77.268 51.4371L77.2694 51.4349Z" fill="url(#paint15_linear_559_21149)"/>
<path d="M82.422 39.0608C81.6123 37.4869 80.6526 36.0091 80.015 34.9999C79.2302 36.5347 78.7786 40.3018 78.9104 42.3626C79.0453 44.471 80.9775 47.3495 82.7336 46.2172C84.798 44.8891 83.842 41.8247 82.422 39.0608Z" fill="#F9BD29"/>
<path d="M89.3633 39.9904C89.6766 37.4156 88.8769 34.2164 88.0063 31.7282C86.4805 33.7247 84.8157 37.343 84.8276 40.4341C84.8411 43.8129 88.0177 44.9294 88.8876 42.2141C89.1154 41.506 89.2685 40.7623 89.3612 39.989L89.3633 39.9904Z" fill="#F9BD29"/>
<path d="M86.6148 46.9716C86.5289 46.0962 86.377 45.5475 86.1472 45.6778C83.5749 47.1321 80.5577 51.2476 80.7264 54.0366C80.9093 57.0511 84.5087 56.636 85.8874 54.0024C87.0872 51.7149 86.8291 49.1798 86.6126 46.9702L86.6148 46.9716Z" fill="#F9BD29"/>
<path d="M78.0998 50.1039C77.4567 49.1888 76.6775 48.5007 75.8354 48.2297C75.1048 50.2657 74.0241 54.2674 74.638 56.6278C75.5066 59.9717 78.691 60.776 79.6729 57.3668C80.2878 55.2353 79.5218 52.1218 78.0998 50.1039Z" fill="#F9BD29"/>
<path d="M76.7712 62.6898C77.6494 60.7757 79.0732 59.1623 79.7803 57.163C79.9022 56.8202 79.3909 56.5568 79.2683 56.9053C78.5612 58.9045 77.1396 60.5193 76.2592 62.432C76.1058 62.7668 76.6164 63.0267 76.7712 62.6898Z" fill="url(#paint16_linear_559_21149)"/>
<path d="M77.8896 64.6616C77.9543 62.8701 77.8713 61.1425 77.9135 60.1814C75.9696 61.4403 73.2999 63.3324 72.2294 65.599C71.2246 67.7249 72.6971 70.8639 74.8574 70.9482C77.2329 71.0393 77.7789 67.7535 77.8882 64.6638L77.8896 64.6616Z" fill="#F9BD29"/>
<path d="M80.4628 10.3062C80.3003 8.13126 79.3303 6.20766 78.6461 4.17125C78.567 3.9376 78.2008 4.05688 78.2821 4.29192C78.955 6.29363 79.9202 8.18668 80.0806 10.3267C80.0994 10.5736 80.4837 10.5545 80.4649 10.3076L80.4628 10.3062Z" fill="#D26E28"/>
<path d="M85.6884 14.9438C86.6949 13.3437 86.7532 11.3955 86.6953 9.56208C86.6872 9.31288 86.3036 9.33559 86.311 9.58125C86.3671 11.3556 86.3173 13.2238 85.344 14.772C85.2096 14.9818 85.5576 15.1528 85.687 14.9459L85.6884 14.9438Z" fill="#D26E28"/>
<path d="M79.9222 17.2619C79.3204 16.0348 78.8614 14.7038 77.8316 13.7545C77.6497 13.5861 77.395 13.8744 77.5769 14.0427C78.5762 14.9634 79.0179 16.2833 79.6026 17.4751C79.7107 17.6968 80.0316 17.4815 79.9222 17.2619Z" fill="#D26E28"/>
<path d="M87.5639 25.6783C87.6221 24.8921 87.8791 24.1052 88.1169 23.3577C88.368 22.5609 88.6488 21.7129 89.1053 21.005C89.2397 20.7952 88.8961 20.6269 88.7623 20.831C88.3064 21.5333 88.0388 22.3653 87.7804 23.1545C87.5098 23.9723 87.2463 24.8314 87.1809 25.6953C87.1626 25.9429 87.5462 25.9202 87.5653 25.6762L87.5639 25.6783Z" fill="#D26E28"/>
<path d="M81.0185 41.1002C81.0083 39.8066 81.3296 38.4478 80.5711 37.2941C80.4348 37.0878 80.1153 37.301 80.2516 37.5072C80.9595 38.5829 80.6263 39.9127 80.6342 41.1194C80.6366 41.368 81.0188 41.3474 81.0185 41.1002Z" fill="#D26E28"/>
<path d="M86.7659 38.6404C87.1716 36.9879 87.6174 35.3489 87.6644 33.6375C87.6712 33.3888 87.2876 33.4115 87.28 33.6567C87.2331 35.3346 86.7874 36.9401 86.3897 38.5611C86.3293 38.803 86.7069 38.8801 86.7659 38.6404Z" fill="#D26E28"/>
<path d="M82.9808 31.6923C81.9192 29.402 81.2965 26.7981 79.6017 24.8586C79.4423 24.6741 79.1184 24.8846 79.2821 25.0718C80.9552 26.9882 81.5672 29.5517 82.6168 31.8129C82.7192 32.034 83.0861 31.9183 82.9808 31.6923Z" fill="#D26E28"/>
<path d="M78.123 55.6218C77.9571 53.6856 77.7566 51.7699 77.1548 49.9144C77.0771 49.6786 76.7131 49.7993 76.7908 50.0351C77.3821 51.8595 77.5769 53.741 77.7386 55.6409C77.7609 55.887 78.1439 55.87 78.123 55.6218Z" fill="#D26E28"/>
<path d="M82.7428 52.3041C84.2928 50.5459 85.0192 48.1594 86.7697 46.5692C86.9526 46.4027 86.6629 46.1501 86.4814 46.3145C84.7274 47.9055 84.006 50.289 82.4545 52.0494C82.2905 52.2341 82.5787 52.4888 82.7428 52.3041Z" fill="#D26E28"/>
<path d="M81.4404 62.6035C82.7574 61.2663 83.5663 59.5701 84.6448 58.0528C84.7872 57.8543 84.5004 57.5973 84.3566 57.798C83.2794 59.3132 82.47 61.0151 81.1522 62.3488C80.9788 62.5243 81.267 62.7791 81.4404 62.6035Z" fill="#D26E28"/>
<path d="M75.213 65.6942C76.0205 64.3143 76.7395 62.887 77.4586 61.4596C77.5699 61.2381 77.2269 61.0642 77.1155 61.2856C76.3965 62.713 75.6775 64.1404 74.87 65.5202C74.7443 65.7356 75.0887 65.9074 75.213 65.6942Z" fill="#D26E28"/>
<path d="M44.6121 94.0575C45.58 92.9939 46.4354 91.6965 47.7718 91.0671C47.9943 90.9626 47.875 90.5964 47.6511 90.7031C46.237 91.3681 45.3477 92.6804 44.3225 93.8049C44.1563 93.9882 44.4445 94.2429 44.6107 94.0596L44.6121 94.0575Z" fill="#D26E28"/>
<path d="M50.8566 96.5689C52.5217 95.7262 54.2419 95.0071 56.0143 94.416C56.2501 94.3383 56.1273 93.973 55.8936 94.0521C54.0901 94.6537 52.3403 95.3904 50.6434 96.2494C50.4224 96.361 50.6392 96.6798 50.8566 96.5689Z" fill="#D26E28"/>
<path d="M68.9005 90.9763C67.0908 91.1256 65.3613 91.6831 63.6483 92.2482C63.4125 92.3259 63.5331 92.6899 63.7689 92.6121C65.4508 92.0576 67.1441 91.5044 68.9189 91.3571C69.1672 91.3361 69.1466 90.9539 68.8998 90.9727L68.9005 90.9763Z" fill="#D26E28"/>
<path d="M59.2468 85.3918C60.1609 83.6074 61.4705 82.1008 62.7889 80.609C62.953 80.4243 62.6648 80.1696 62.5007 80.3543C61.1613 81.8693 59.8324 83.4061 58.9038 85.2178C58.7903 85.4379 59.1333 85.6118 59.2468 85.3918Z" fill="#D26E28"/>
<path d="M75.2893 81.518C75.5244 81.4368 75.4037 81.0728 75.1687 81.154C73.2337 81.8179 71.6306 83.2067 69.6462 83.7382C69.4073 83.8017 69.528 84.1657 69.7669 84.1022C71.7548 83.5699 73.3566 82.1833 75.2893 81.518Z" fill="#D26E28"/>
<path d="M70.0061 76.0271C70.3869 74.804 70.7584 73.5811 71.064 72.3372C71.1244 72.0953 70.7468 72.0182 70.6878 72.2579C70.38 73.5004 70.0093 74.7269 69.6299 75.9478C69.5573 76.185 69.9313 76.2629 70.0061 76.0271Z" fill="#D26E28"/>
<path d="M77.5655 73.2672C78.045 72.4947 78.8402 71.9579 79.5894 71.4739C80.3435 70.987 81.135 70.5607 81.8861 70.0689C82.0924 69.9326 81.8792 69.6131 81.673 69.7494C80.1693 70.7352 78.2057 71.5057 77.2225 73.0933C77.0903 73.3044 77.4361 73.4741 77.5655 73.2672Z" fill="#D26E28"/>
<path d="M44.0955 98.2904C45.9242 97.04 46.1912 94.3899 47.0323 92.51C47.1336 92.2851 46.7906 92.1112 46.6893 92.336C46.2683 93.2742 45.9932 94.2752 45.6332 95.2372C45.2612 96.2372 44.7942 97.3472 43.8824 97.9709C43.6769 98.1107 43.8901 98.4303 44.0955 98.2904Z" fill="#E8F5F7"/>
<path d="M42.2094 96.4423C42.2746 95.3739 43.094 94.5659 43.8636 93.912C44.0502 93.754 43.8384 93.4323 43.6504 93.5925C42.7616 94.3469 41.8988 95.2369 41.8251 96.4615C41.8104 96.7083 42.1939 96.6856 42.2094 96.4423Z" fill="#E8F5F7"/>
<path d="M58.0179 88.8097C59.6199 87.1609 61.3125 85.5611 62.3759 83.4912C62.4894 83.2711 62.1464 83.0972 62.0329 83.3172C60.9853 85.3577 59.3072 86.9302 57.7297 88.555C57.557 88.7341 57.8466 88.9867 58.0179 88.8097Z" fill="#E8F5F7"/>
<path d="M57.3538 86.0616C57.6405 85.3759 58.1221 84.8335 58.6688 84.3418C58.8538 84.1767 58.5642 83.9241 58.3806 84.0871C57.81 84.597 57.3084 85.1754 57.0108 85.8876C56.916 86.1166 57.259 86.2906 57.3538 86.0616Z" fill="#E8F5F7"/>
<path d="M68.9521 80.8441C70.4349 79.3386 71.0623 77.3828 71.6852 75.415C71.7599 75.1793 71.3837 75.1 71.309 75.3357C70.7063 77.2433 70.1012 79.1309 68.6625 80.5915C68.4891 80.7671 68.7773 81.0218 68.9508 80.8462L68.9521 80.8441Z" fill="#E8F5F7"/>
<path d="M67.9256 77.4379C68.3945 76.7867 68.7697 76.0723 69.2986 75.4656C69.4605 75.2795 69.1736 75.0226 69.0104 75.2108C68.4815 75.8176 68.1063 76.5319 67.6373 77.1831C67.4949 77.3817 67.7818 77.6386 67.9256 77.4379Z" fill="#E8F5F7"/>
<path d="M72.8594 67.6345C73.1185 65.7204 74.1647 64.1488 75.5639 62.8642C75.7468 62.6977 75.455 62.4438 75.2757 62.6095C73.8317 63.9355 72.7498 65.5818 72.4846 67.553C72.4527 67.798 72.8275 67.8794 72.8608 67.6323L72.8594 67.6345Z" fill="#E8F5F7"/>
<path d="M74.3547 69.5111C75.1849 68.1244 75.6407 66.5223 76.6502 65.2413C76.8027 65.0462 76.5144 64.7914 76.362 64.9866C75.3309 66.2964 74.8634 67.9215 74.0139 69.3385C73.886 69.5524 74.2304 69.7242 74.3569 69.5124L74.3547 69.5111Z" fill="#E8F5F7"/>
<path d="M76.0539 56.1035C76.0027 55.0216 76.0307 53.9446 76.1806 52.8725C76.2146 52.6289 75.8376 52.546 75.8044 52.7932C75.6508 53.8995 75.6157 55.0116 75.6703 56.1263C75.682 56.3747 76.0664 56.3555 76.0547 56.1071L76.0539 56.1035Z" fill="#E8F5F7"/>
<path d="M79.6087 55.18C79.3914 54.2051 79.3378 53.1887 78.9481 52.259C78.8521 52.0328 78.4873 52.1499 78.5842 52.3797C78.9738 53.3094 79.0288 54.3236 79.2448 55.3007C79.2976 55.5419 79.663 55.4191 79.6087 55.18Z" fill="#E8F5F7"/>
<path d="M84.036 54.4989C85.1936 53.1724 85.788 51.3968 86.2812 49.7364C86.3516 49.4978 85.974 49.4207 85.905 49.6571C85.4305 51.2502 84.858 52.9727 83.7478 54.2441C83.5859 54.4302 83.8728 54.6871 84.036 54.4989Z" fill="#E8F5F7"/>
<path d="M82.5872 44.3758C82.7921 42.851 82.7244 40.9472 82.0233 39.5466C81.9117 39.3257 81.5943 39.5402 81.7038 39.7598C82.0322 40.4185 82.1361 41.1895 82.2128 41.9127C82.2978 42.6991 82.3155 43.5095 82.2088 44.2952C82.177 44.5401 82.5518 44.6216 82.585 44.3745L82.5872 44.3758Z" fill="#E8F5F7"/>
<path d="M81.2273 31.0018C80.3228 29.6997 79.9816 28.1514 79.4984 26.6677C79.4207 26.4319 79.0567 26.5526 79.1345 26.7884C79.629 28.3068 79.9842 29.8855 80.9099 31.2164C81.0511 31.4197 81.3706 31.2065 81.2294 31.0032L81.2273 31.0018Z" fill="#E8F5F7"/>
<path d="M83.6916 29.58C83.2089 28.7432 82.6615 27.9503 82.088 27.1743C81.9404 26.9761 81.6187 27.1879 81.7684 27.3875C82.3433 28.1613 82.8929 28.9556 83.3721 29.7932C83.4971 30.0074 83.8145 29.7929 83.6916 29.58Z" fill="#E8F5F7"/>
<path d="M81.7136 19.3067C81.4807 17.9559 81.1273 16.5126 80.2334 15.4368C80.0767 15.248 79.755 15.4598 79.9138 15.65C80.7626 16.6724 81.109 18.0411 81.3314 19.3272C81.3728 19.5673 81.7579 19.5516 81.7157 19.3081L81.7136 19.3067Z" fill="#E8F5F7"/>
<path d="M79.0046 19.0817C78.5681 18.3537 78.3499 17.5278 77.8547 16.8294C77.7121 16.6283 77.3904 16.8401 77.5352 17.0426C78.0282 17.7396 78.2485 18.5669 78.6851 19.2949C78.8115 19.507 79.131 19.2938 79.0046 19.0817Z" fill="#E8F5F7"/>
<path d="M79.792 10.4206C79.3146 9.52316 78.9865 8.56881 78.666 7.6072C78.5883 7.37139 78.2243 7.49206 78.302 7.72787C78.6316 8.7228 78.9774 9.70674 79.4725 10.6338C79.589 10.8518 79.9086 10.6386 79.792 10.4206Z" fill="#E8F5F7"/>
<path d="M82.3374 12.0064C81.7651 10.8713 81.2812 9.69828 80.8794 8.49237C80.8016 8.25656 80.4341 8.37801 80.5154 8.61304C80.9299 9.85149 81.4279 11.0549 82.0178 12.2196C82.1295 12.4406 82.4482 12.2238 82.3374 12.0064Z" fill="#E8F5F7"/>
<path d="M55.2858 96.0101C55.503 95.89 55.2885 95.5726 55.0726 95.6906C53.6663 96.4673 52.5078 97.6285 51.008 98.2416C50.7796 98.3363 50.9003 98.7003 51.1286 98.6056C52.6645 97.979 53.8477 96.8031 55.2858 96.0101Z" fill="#E8F5F7"/>
<path d="M64.0249 91.2131C63.0483 91.3379 62.1211 91.5522 61.2514 92.0292C61.0342 92.1493 61.2487 92.4666 61.4646 92.3487C62.2729 91.9057 63.1378 91.7124 64.0441 91.5975C64.29 91.5659 64.2708 91.1815 64.0249 91.2131Z" fill="#E8F5F7"/>
<path d="M87.7321 41.2609C87.9338 39.7127 88.6647 38.3143 88.9902 36.7965C89.0427 36.5526 88.6666 36.4733 88.614 36.7172C88.2885 38.235 87.5597 39.6348 87.3559 41.1816C87.324 41.4266 87.6988 41.508 87.7321 41.2609Z" fill="#E8F5F7"/>
<path d="M81.2236 72.3343C81.3941 72.1538 81.1058 71.8991 80.9353 72.0796C79.8914 73.1952 79.1024 74.6509 77.6368 75.2677C77.4106 75.3638 77.5277 75.7285 77.7575 75.6317C79.3065 74.9799 80.1202 73.5094 81.2249 72.3322L81.2236 72.3343Z" fill="#E8F5F7"/>
<path d="M81.7005 64.887C82.4412 64.0163 83.0672 63.0722 83.5288 62.0229C83.628 61.7967 83.2849 61.6227 83.1858 61.849C82.7357 62.866 82.1334 63.7826 81.4137 64.6301C81.254 64.8175 81.5408 65.0744 81.7019 64.8848L81.7005 64.887Z" fill="#E8F5F7"/>
<path d="M87.8351 29.1171C88.6329 27.7524 88.3551 26.0434 89.2141 24.7117C89.3484 24.502 89.0026 24.3323 88.8711 24.5378C88.0093 25.8738 88.2878 27.5771 87.4921 28.9432C87.3664 29.1585 87.7108 29.3303 87.8351 29.1171Z" fill="#E8F5F7"/>
<path d="M85.528 18.2683C86.1636 17.5378 86.5697 16.6846 86.8679 15.7715C87.0277 15.2791 87.1452 14.7719 87.2534 14.2648C87.365 13.7476 87.2881 13.0487 87.6108 12.621C87.7589 12.4231 87.4707 12.1684 87.3226 12.3663C87.0896 12.6776 87.0269 12.9851 87.0012 13.3682C86.9675 13.9017 86.8332 14.4257 86.7052 14.9445C86.4293 16.061 86.006 17.141 85.2419 18.0149C85.08 18.201 85.3669 18.4579 85.5301 18.2696L85.528 18.2683Z" fill="#E8F5F7"/>
<path d="M74.1726 83.1677C74.3584 83.0061 74.0688 82.7535 73.8844 82.9129C72.5774 84.0583 70.9068 84.681 69.3096 85.308C69.0804 85.3991 69.1997 85.7653 69.4302 85.672C71.096 85.0187 72.8074 84.3611 74.1704 83.1663L74.1726 83.1677Z" fill="#E8F5F7"/>
</g>
<defs>
<linearGradient id="paint0_linear_559_21149" x1="87.503" y1="7.73176" x2="89.7285" y2="4.04562" gradientUnits="userSpaceOnUse">
<stop stop-color="#F8E283"/>
<stop offset="1" stop-color="#FBB22C"/>
</linearGradient>
<linearGradient id="paint1_linear_559_21149" x1="74.7765" y1="12.0323" x2="68.879" y2="10.981" gradientUnits="userSpaceOnUse">
<stop stop-color="#F8E283"/>
<stop offset="1" stop-color="#FBB22C"/>
</linearGradient>
<linearGradient id="paint2_linear_559_21149" x1="88.9428" y1="17.9144" x2="88.188" y2="12.6876" gradientUnits="userSpaceOnUse">
<stop stop-color="#F8E283"/>
<stop offset="1" stop-color="#FBB22C"/>
</linearGradient>
<linearGradient id="paint3_linear_559_21149" x1="75.8602" y1="21.5826" x2="69.8231" y2="18.9545" gradientUnits="userSpaceOnUse">
<stop stop-color="#F8E283"/>
<stop offset="1" stop-color="#FBB22C"/>
</linearGradient>
<linearGradient id="paint4_linear_559_21149" x1="79.1171" y1="2.03317" x2="81.8409" y2="-3.64876" gradientUnits="userSpaceOnUse">
<stop stop-color="#F8E283"/>
<stop offset="1" stop-color="#FBB22C"/>
</linearGradient>
<linearGradient id="paint5_linear_559_21149" x1="48.8508" y1="89.6428" x2="50.7853" y2="88.1625" gradientUnits="userSpaceOnUse">
<stop stop-color="#F8E283"/>
<stop offset="1" stop-color="#FBB22C"/>
</linearGradient>
<linearGradient id="paint6_linear_559_21149" x1="63.801" y1="77.9758" x2="65.5883" y2="74.732" gradientUnits="userSpaceOnUse">
<stop stop-color="#F8E283"/>
<stop offset="1" stop-color="#FBB22C"/>
</linearGradient>
<linearGradient id="paint7_linear_559_21149" x1="70.524" y1="68.9403" x2="70.8593" y2="63.8148" gradientUnits="userSpaceOnUse">
<stop stop-color="#F8E283"/>
<stop offset="1" stop-color="#FBB22C"/>
</linearGradient>
<linearGradient id="paint8_linear_559_21149" x1="76.6302" y1="79.5131" x2="77.489" y2="82.1127" gradientUnits="userSpaceOnUse">
<stop stop-color="#F8E283"/>
<stop offset="1" stop-color="#FBB22C"/>
</linearGradient>
<linearGradient id="paint9_linear_559_21149" x1="69.8005" y1="90.3875" x2="70.0188" y2="91.0484" gradientUnits="userSpaceOnUse">
<stop stop-color="#F8E283"/>
<stop offset="1" stop-color="#FBB22C"/>
</linearGradient>
<linearGradient id="paint10_linear_559_21149" x1="84.7624" y1="66.107" x2="87.781" y2="60.1221" gradientUnits="userSpaceOnUse">
<stop stop-color="#F8E283"/>
<stop offset="1" stop-color="#FBB22C"/>
</linearGradient>
<linearGradient id="paint11_linear_559_21149" x1="84.8535" y1="55.2382" x2="85.8509" y2="58.2572" gradientUnits="userSpaceOnUse">
<stop stop-color="#F8E283"/>
<stop offset="1" stop-color="#FBB22C"/>
</linearGradient>
<linearGradient id="paint12_linear_559_21149" x1="87.1867" y1="30.6093" x2="89.4333" y2="33.9298" gradientUnits="userSpaceOnUse">
<stop stop-color="#F8E283"/>
<stop offset="1" stop-color="#FBB22C"/>
</linearGradient>
<linearGradient id="paint13_linear_559_21149" x1="85.7172" y1="44.4197" x2="86.5371" y2="48.9172" gradientUnits="userSpaceOnUse">
<stop stop-color="#F8E283"/>
<stop offset="1" stop-color="#FBB22C"/>
</linearGradient>
<linearGradient id="paint14_linear_559_21149" x1="77.4437" y1="32.9224" x2="72.5917" y2="27.2941" gradientUnits="userSpaceOnUse">
<stop stop-color="#F8E283"/>
<stop offset="1" stop-color="#FBB22C"/>
</linearGradient>
<linearGradient id="paint15_linear_559_21149" x1="74.8066" y1="45.3827" x2="76.9165" y2="51.7695" gradientUnits="userSpaceOnUse">
<stop stop-color="#F8E283"/>
<stop offset="1" stop-color="#FBB22C"/>
</linearGradient>
<linearGradient id="paint16_linear_559_21149" x1="77.1792" y1="57.415" x2="78.7163" y2="62.0679" gradientUnits="userSpaceOnUse">
<stop stop-color="#F8E283"/>
<stop offset="1" stop-color="#FBB22C"/>
</linearGradient>
<clipPath id="clip0_559_21149">
<rect width="105.978" height="44.8566" fill="white" transform="translate(20.2318 89.6646) scale(1.00472) rotate(-57.3611)"/>
</clipPath>
</defs>
</svg>
