<svg width="20" height="6" viewBox="0 0 20 6" fill="none" xmlns="http://www.w3.org/2000/svg">
<path d="M0 4.9334C1.71065 4.39002 3.19991 4.08814 4.35711 3.90702C4.94075 3.81645 7.40609 3.44414 10.7368 3.59508C12.4475 3.66551 13.5141 3.71582 14.9531 4.07808C16.9354 4.58121 18.4448 5.38623 19.4209 6.00005C19.1693 5.46673 18.7668 4.73215 18.1429 3.96739C17.1166 2.70956 16.0298 2.04543 15.4361 1.68317C14.8223 1.31085 13.5745 0.636658 11.8538 0.254278C11.4614 0.163714 9.51924 -0.238795 6.98345 0.203962C5.68537 0.42534 4.22629 0.676907 2.7169 1.75361C1.19744 2.82025 0.392422 4.16864 0.0100418 4.9334H0Z" fill="#010101"/>
</svg>
