<svg width="11" height="7" viewBox="0 0 11 7" fill="none" xmlns="http://www.w3.org/2000/svg">
<path d="M0 0C0.535565 0.149958 1.06043 0.321346 1.58528 0.492727C2.11014 0.674819 2.63498 0.867615 3.14912 1.07113C3.66327 1.27464 4.1774 1.48886 4.68083 1.7138C4.9379 1.83162 5.18428 1.94946 5.43064 2.06729C5.677 2.18511 5.93408 2.31366 6.18044 2.44219C6.4268 2.57073 6.67315 2.70997 6.9088 2.8385C7.15516 2.97775 7.39079 3.11699 7.62644 3.26695C8.09774 3.56687 8.55834 3.87749 8.98679 4.23096C9.41525 4.58443 9.83298 4.95932 10.1865 5.39849C10.3578 5.61271 10.5292 5.83767 10.6578 6.08403C10.6792 6.11616 10.6899 6.14829 10.7113 6.18042L10.7649 6.27682C10.7649 6.27682 10.797 6.34108 10.8077 6.37322L10.8505 6.46962V6.49106L10.872 6.51247L10.8934 6.56601L10.9362 6.66241C10.9576 6.72668 10.9791 6.79097 11.0005 6.85524C10.9791 6.79097 10.947 6.72668 10.9255 6.66241L10.8827 6.56601L10.8613 6.52319V6.50175L10.8398 6.48034L10.797 6.38394C10.797 6.38394 10.7649 6.31968 10.7434 6.28754L10.6899 6.20183C10.6899 6.20183 10.6577 6.13758 10.6363 6.11616C10.4864 5.88051 10.3257 5.66629 10.1436 5.45206C9.96151 5.24855 9.76869 5.04501 9.56518 4.86292C9.36167 4.68083 9.14744 4.49874 8.93322 4.32736L8.77255 4.19883C8.719 4.15598 8.66544 4.11315 8.60117 4.08102L8.51549 4.01672L8.42979 3.95245C8.37623 3.90961 8.32267 3.87749 8.2584 3.83465C8.03346 3.67398 7.79782 3.53472 7.56217 3.38476C7.32652 3.2348 7.09089 3.09557 6.84453 2.96703C6.60889 2.82779 6.3625 2.69926 6.11614 2.57072C5.86978 2.44219 5.62345 2.31364 5.37709 2.19582C5.24856 2.13155 5.13073 2.07798 5.00219 2.01371L4.62729 1.84233C4.12386 1.60668 3.62041 1.39248 3.10627 1.17825C2.8492 1.07114 2.59213 0.964014 2.33505 0.867612C2.07798 0.760499 1.82091 0.664099 1.56384 0.567697C1.0497 0.374894 0.524854 0.182092 0 0Z" fill="#D9692A"/>
</svg>
