<svg width="49" height="122" viewBox="0 0 49 122" fill="none" xmlns="http://www.w3.org/2000/svg">
<path d="M29.5471 0.010059C30.1203 1.61916 30.9249 4.07304 31.6792 7.10016C34.3744 17.9214 34.0928 26.8217 33.8615 32.524C33.5799 39.5638 32.6949 44.8437 32.4536 46.2617C31.2367 53.2613 30.1103 59.7882 26.1579 67.4415C22.4067 74.7327 18.1426 79.0873 13.8282 83.4923C10.7408 86.6501 8.16619 88.0882 6.50681 89.0135C3.96241 90.4416 1.65939 91.2863 0 91.7992C2.21251 95.1482 4.425 98.4971 6.63752 101.846C9.08134 102.872 11.5654 103.978 14.0796 105.185C24.7802 110.314 33.942 116.167 41.6858 122C43.0334 120.019 44.4011 117.625 45.5376 114.809C49.319 105.456 48.4641 96.7774 47.5892 92.0808C47.1265 86.6099 46.1209 82.3558 45.2761 79.4997C44.2101 75.849 43.2848 74.0086 42.0679 69.6138C40.9416 65.5608 40.3381 62.1717 40.0163 59.9893C39.6442 58.0684 39.1917 55.2324 38.9905 51.7728C38.8698 49.671 38.719 45.3163 40.0163 35.2092C40.7605 29.4667 41.7159 23.8248 42.1987 20.9585C43.1038 15.6083 43.7877 12.1889 43.3552 7.35158C43.1138 4.63623 42.611 2.42371 42.1987 0.935291C37.9748 0.623527 33.761 0.311763 29.5371 0L29.5471 0.010059Z" fill="#010101"/>
</svg>
