<svg width="52" height="36" viewBox="0 0 52 36" fill="none" xmlns="http://www.w3.org/2000/svg">
<path d="M50.9444 4.42374C49.1708 2.76229 47.1322 1.39643 44.9713 0.285402C44.7777 0.183472 44.584 0.0917366 44.3903 0L25.4314 14.6575C25.4314 14.6575 17.6134 29.4169 0 31.7511C0.886787 32.2403 1.79396 32.7092 2.71133 33.1271C4.33201 33.8814 6.00365 34.5236 7.70587 35.0536C10.2745 35.5429 12.8941 35.7875 15.5137 35.7875C18.5206 35.7875 21.5275 35.4919 24.4733 34.8905C34.0037 32.9233 42.9327 27.4292 48.2127 19.1424C50.1086 16.166 51.5967 12.7616 51.9127 9.20424C52.0554 7.58356 52.1777 5.58575 50.9444 4.43394V4.42374Z" fill="#743418"/>
</svg>
