<svg width="38" height="9" viewBox="0 0 38 9" fill="none" xmlns="http://www.w3.org/2000/svg">
<path d="M7.17445 0.628993C7.17445 0.628993 7.51096 0.690169 8.10239 0.781943C8.69382 0.873716 9.55037 0.996086 10.6109 1.16944C12.7319 1.53653 15.6788 1.9954 19.0642 2.63782C19.9106 2.79077 20.7773 2.97431 21.6747 3.13746C22.5618 3.30062 23.4796 3.47398 24.4075 3.65752C25.3252 3.84107 26.2837 4.03482 27.2117 4.23876C28.0478 4.43251 28.8636 4.65685 29.6692 4.88118C31.2803 5.31966 32.8303 5.81931 34.2477 6.41074C34.9512 6.70646 35.6243 7.02256 36.2565 7.35906C36.5726 7.52221 36.8785 7.70577 37.164 7.87912C37.4597 8.05247 37.7351 8.23602 38.0002 8.41957C37.99 8.41957 37.7861 8.36856 37.4292 8.26658C37.0825 8.17481 36.5828 8.01167 35.971 7.82812C34.7677 7.45083 33.1566 6.95118 31.4639 6.43113C30.6175 6.1762 29.761 5.92127 28.9146 5.66635C28.4965 5.54398 28.0785 5.4114 27.6808 5.29923C27.6298 5.28904 27.5788 5.26867 27.5278 5.25847C27.4666 5.24827 27.4156 5.22787 27.3545 5.21767C27.2423 5.18708 27.1301 5.15649 27.0179 5.1259C26.7936 5.06472 26.5693 5.01373 26.3551 4.96275C25.9269 4.85058 25.5088 4.7588 25.1213 4.66702C24.7338 4.57525 24.3769 4.49369 24.0404 4.43251C23.3674 4.29995 22.8065 4.21836 22.3987 4.19797C21.9602 4.19797 21.3076 4.17757 20.4918 4.09599C19.6761 4.02461 18.7175 3.92266 17.6672 3.8003C16.6169 3.67793 15.4749 3.52497 14.3022 3.35162C13.721 3.25985 13.1296 3.18846 12.5381 3.08649C11.9467 2.98452 11.3655 2.88255 10.7842 2.77038C8.45929 2.34211 6.24652 1.89343 4.46203 1.48554C2.68774 1.05727 1.33154 0.690184 0.597351 0.414863C-0.871026 -0.084793 0.587145 -0.0644075 2.59597 0.11914C3.09562 0.170125 3.63608 0.221114 4.15613 0.282296C4.42126 0.312888 4.67618 0.343475 4.92091 0.374066C5.16564 0.404657 5.41037 0.425059 5.6347 0.445453C6.08337 0.496439 6.47086 0.537222 6.74618 0.567813C6.88894 0.588207 6.99091 0.598403 7.06229 0.598403C7.13367 0.598403 7.17445 0.6086 7.17445 0.598403V0.628993Z" fill="#999C37"/>
</svg>
