<svg width="24" height="31" viewBox="0 0 24 31" fill="none" xmlns="http://www.w3.org/2000/svg">
<path d="M11 11C11 10.7033 11.088 10.4133 11.2528 10.1666C11.4176 9.91997 11.6519 9.72771 11.926 9.61418C12.2001 9.50065 12.5017 9.47094 12.7926 9.52882C13.0836 9.5867 13.3509 9.72956 13.5607 9.93934C13.7704 10.1491 13.9133 10.4164 13.9712 10.7074C14.0291 10.9983 13.9994 11.2999 13.8858 11.574C13.7723 11.8481 13.58 12.0824 13.3334 12.2472C13.0867 12.412 12.7967 12.5 12.5 12.5C12.1022 12.5 11.7206 12.342 11.4393 12.0607C11.158 11.7794 11 11.3978 11 11ZM6.5 11C6.5 9.4087 7.13214 7.88258 8.25736 6.75736C9.38258 5.63214 10.9087 5 12.5 5C14.0913 5 15.6174 5.63214 16.7426 6.75736C17.8679 7.88258 18.5 9.4087 18.5 11C18.5 16.6203 13.1019 19.7694 12.875 19.9016C12.7617 19.9663 12.6334 20.0004 12.5028 20.0004C12.3723 20.0004 12.244 19.9663 12.1306 19.9016C11.8981 19.7694 6.5 16.625 6.5 11ZM8 11C8 14.9563 11.36 17.5822 12.5 18.3594C13.6391 17.5831 17 14.9563 17 11C17 9.80653 16.5259 8.66193 15.682 7.81802C14.8381 6.97411 13.6935 6.5 12.5 6.5C11.3065 6.5 10.1619 6.97411 9.31802 7.81802C8.47411 8.66193 8 9.80653 8 11ZM19.5097 17.3403C19.3251 17.2793 19.124 17.2924 18.9489 17.3768C18.7738 17.4612 18.6382 17.6102 18.5709 17.7926C18.5035 17.975 18.5096 18.1764 18.5879 18.3543C18.6661 18.5323 18.8104 18.6729 18.9903 18.7466C20.5381 19.3194 21.5 20.0863 21.5 20.75C21.5 22.0025 18.0763 23.75 12.5 23.75C6.92375 23.75 3.5 22.0025 3.5 20.75C3.5 20.0863 4.46187 19.3194 6.00969 18.7475C6.1896 18.6739 6.3339 18.5332 6.41215 18.3553C6.49039 18.1773 6.49648 17.9759 6.42913 17.7935C6.36178 17.6112 6.22624 17.4621 6.0511 17.3777C5.87596 17.2933 5.67491 17.2803 5.49031 17.3412C3.23937 18.1709 2 19.3822 2 20.75C2 23.6731 7.41031 25.25 12.5 25.25C17.5897 25.25 23 23.6731 23 20.75C23 19.3822 21.7606 18.1709 19.5097 17.3403Z" fill="#FBFFF2"/>
</svg>
