<svg width="42" height="42" viewBox="0 0 42 42" fill="none" xmlns="http://www.w3.org/2000/svg">
<path d="M35.0333 33.5833H33.1V16.6667C33.3564 16.6667 33.6023 16.5394 33.7835 16.3128C33.9648 16.0861 34.0667 15.7788 34.0667 15.4583C34.0667 15.1379 33.9648 14.8305 33.7835 14.6039C33.6023 14.3773 33.3564 14.25 33.1 14.25H27.3V9.41667C27.5564 9.41667 27.8023 9.28936 27.9835 9.06275C28.1648 8.83615 28.2667 8.5288 28.2667 8.20833C28.2667 7.88786 28.1648 7.58052 27.9835 7.35391C27.8023 7.12731 27.5564 7 27.3 7H9.9C9.64362 7 9.39775 7.12731 9.21646 7.35391C9.03518 7.58052 8.93333 7.88786 8.93333 8.20833C8.93333 8.5288 9.03518 8.83615 9.21646 9.06275C9.39775 9.28936 9.64362 9.41667 9.9 9.41667V33.5833H7.96667C7.71029 33.5833 7.46442 33.7106 7.28313 33.9372C7.10184 34.1639 7 34.4712 7 34.7917C7 35.1121 7.10184 35.4195 7.28313 35.6461C7.46442 35.8727 7.71029 36 7.96667 36H35.0333C35.2897 36 35.5356 35.8727 35.7169 35.6461C35.8982 35.4195 36 35.1121 36 34.7917C36 34.4712 35.8982 34.1639 35.7169 33.9372C35.5356 33.7106 35.2897 33.5833 35.0333 33.5833ZM31.1667 16.6667V33.5833H27.3V16.6667H31.1667ZM11.8333 9.41667H25.3667V33.5833H22.4667V26.3333C22.4667 26.0129 22.3648 25.7055 22.1835 25.4789C22.0023 25.2523 21.7564 25.125 21.5 25.125H15.7C15.4436 25.125 15.1977 25.2523 15.0165 25.4789C14.8352 25.7055 14.7333 26.0129 14.7333 26.3333V33.5833H11.8333V9.41667ZM20.5333 33.5833H16.6667V27.5417H20.5333V33.5833ZM13.7667 14.25C13.7667 13.9295 13.8685 13.6222 14.0498 13.3956C14.2311 13.169 14.477 13.0417 14.7333 13.0417H16.6667C16.923 13.0417 17.1689 13.169 17.3502 13.3956C17.5315 13.6222 17.6333 13.9295 17.6333 14.25C17.6333 14.5705 17.5315 14.8778 17.3502 15.1044C17.1689 15.331 16.923 15.4583 16.6667 15.4583H14.7333C14.477 15.4583 14.2311 15.331 14.0498 15.1044C13.8685 14.8778 13.7667 14.5705 13.7667 14.25ZM19.5667 14.25C19.5667 13.9295 19.6685 13.6222 19.8498 13.3956C20.0311 13.169 20.277 13.0417 20.5333 13.0417H22.4667C22.723 13.0417 22.9689 13.169 23.1502 13.3956C23.3315 13.6222 23.4333 13.9295 23.4333 14.25C23.4333 14.5705 23.3315 14.8778 23.1502 15.1044C22.9689 15.331 22.723 15.4583 22.4667 15.4583H20.5333C20.277 15.4583 20.0311 15.331 19.8498 15.1044C19.6685 14.8778 19.5667 14.5705 19.5667 14.25ZM13.7667 20.2917C13.7667 19.9712 13.8685 19.6639 14.0498 19.4372C14.2311 19.2106 14.477 19.0833 14.7333 19.0833H16.6667C16.923 19.0833 17.1689 19.2106 17.3502 19.4372C17.5315 19.6639 17.6333 19.9712 17.6333 20.2917C17.6333 20.6121 17.5315 20.9195 17.3502 21.1461C17.1689 21.3727 16.923 21.5 16.6667 21.5H14.7333C14.477 21.5 14.2311 21.3727 14.0498 21.1461C13.8685 20.9195 13.7667 20.6121 13.7667 20.2917ZM19.5667 20.2917C19.5667 19.9712 19.6685 19.6639 19.8498 19.4372C20.0311 19.2106 20.277 19.0833 20.5333 19.0833H22.4667C22.723 19.0833 22.9689 19.2106 23.1502 19.4372C23.3315 19.6639 23.4333 19.9712 23.4333 20.2917C23.4333 20.6121 23.3315 20.9195 23.1502 21.1461C22.9689 21.3727 22.723 21.5 22.4667 21.5H20.5333C20.277 21.5 20.0311 21.3727 19.8498 21.1461C19.6685 20.9195 19.5667 20.6121 19.5667 20.2917Z" fill="#6D9127"/>
</svg>
