<svg width="13" height="3" viewBox="0 0 13 3" fill="none" xmlns="http://www.w3.org/2000/svg">
<path d="M7.55081 0.67899C6.69536 0.833589 5.80901 1.0088 4.89172 1.19432C4.42792 1.28708 3.96414 1.39014 3.49004 1.4829C3.25299 1.53444 3.01592 1.58596 2.76856 1.6375C2.53151 1.69934 2.28416 1.75085 2.0368 1.81269C1.58331 1.92606 1.08859 2.03946 0.645408 2.22498C-0.60169 2.70939 0.243455 2.8846 0.810317 2.8949C1.61423 2.91552 2.54182 2.85366 3.54156 2.75059C4.5413 2.64753 5.62348 2.49293 6.7469 2.26618C7.93215 2.06005 12.2403 1.06032 12.9103 0.338855C13.2504 -0.0218758 12.5804 -0.0424664 11.6941 0.0399864C10.8077 0.112133 9.71522 0.328546 9.2205 0.400692C8.68456 0.483145 8.12799 0.575924 7.56113 0.67899H7.55081Z" fill="#EDD744"/>
</svg>
