<svg width="16" height="7" viewBox="0 0 16 7" fill="none" xmlns="http://www.w3.org/2000/svg">
<path d="M7.99149 2.1567C6.8114 2.64501 5.6415 3.24521 4.5021 3.8556C3.36271 4.47616 2.25385 5.1171 1.23653 5.75801C0.768567 6.05303 0.280251 6.36839 0.0869614 6.64306C-0.167367 7.0093 0.168333 7.04999 0.67699 6.95843C1.19582 6.87704 1.87743 6.67359 2.3047 6.55151C3.57634 6.14458 4.77676 5.70713 5.94667 5.23916C6.52654 5.00518 7.10642 4.76103 7.67612 4.5067C8.24582 4.25237 8.82569 4.0082 9.39539 3.73353C9.9956 3.42833 11.4097 2.80779 12.7118 2.12618C13.3629 1.79047 13.9936 1.44457 14.4718 1.1292C14.9601 0.813837 15.3162 0.549346 15.4281 0.345883C15.5603 0.111901 15.3874 0.0101731 15.0517 0C14.7058 0 14.1767 0.0712033 13.6071 0.213627C12.4473 0.488302 11.0231 0.935931 10.2906 1.24113C9.54799 1.50563 8.77482 1.8108 7.99149 2.13634V2.1567Z" fill="#EDD744"/>
</svg>
