<svg width="9" height="8" viewBox="0 0 9 8" fill="none" xmlns="http://www.w3.org/2000/svg">
<path d="M3.10854 4.0268C1.87156 5.17327 0.855824 6.27953 0.212192 7.27514C0.061341 7.50645 -0.0593326 7.7478 0.0311781 7.88859C0.171973 8.06961 0.55411 7.95898 0.98655 7.75785C1.41899 7.55671 1.87155 7.25503 2.15314 7.05389C3.77227 5.87725 5.18023 4.64027 6.40715 3.37312C6.558 3.20216 6.82951 2.92057 7.14127 2.5887C7.46309 2.25682 7.83519 1.88473 8.14695 1.52268C8.79058 0.788542 9.23308 0.104683 8.87103 0.0141726C8.45871 -0.0964516 7.56367 0.456666 6.6485 1.11035C5.72328 1.75399 4.81816 2.52834 4.40584 2.89039C3.95328 3.27254 3.52087 3.65471 3.10854 4.03687V4.0268Z" fill="#F0BB46"/>
</svg>
