<svg width="40" height="6" viewBox="0 0 40 6" fill="none" xmlns="http://www.w3.org/2000/svg">
<path d="M7.26717 3.15656C7.26717 3.15656 7.16565 3.1261 7.12506 3.1058C7.08446 3.09565 7.03373 3.07537 6.99314 3.06522C6.98299 3.06522 6.97284 3.06521 6.96269 3.05506C6.92209 3.04491 6.88146 3.0246 6.84087 3.01445C6.79012 2.99415 6.74954 2.98402 6.69879 2.96372C6.65819 2.95357 6.61757 2.93326 6.58712 2.92311C6.55668 2.91296 6.5161 2.9028 6.48565 2.8825C6.42475 2.8622 6.36383 2.84191 6.30294 2.82161C6.20144 2.78101 6.09995 2.75057 5.99846 2.70997C5.95786 2.69983 5.91727 2.67952 5.87667 2.66937C5.77517 2.62877 5.67365 2.59833 5.57216 2.55774C5.53156 2.53744 5.49099 2.52727 5.44024 2.50697C5.44024 2.50697 5.43007 2.50697 5.41992 2.50697C5.37932 2.48667 5.32857 2.47653 5.28797 2.45623C5.16617 2.40548 5.04438 2.36487 4.91244 2.31412C4.90229 2.31412 4.89214 2.31414 4.88199 2.30399C4.86169 2.30399 4.84138 2.2837 4.81093 2.27355C4.77033 2.2634 4.7399 2.24309 4.6993 2.23294C4.679 2.23294 4.66886 2.2228 4.64857 2.21265C4.62827 2.21265 4.60794 2.19235 4.58764 2.1822C4.53689 2.1619 4.49631 2.14158 4.44556 2.12128C4.42526 2.12128 4.40497 2.11114 4.39482 2.10099C4.38467 2.10099 4.36437 2.09085 4.35422 2.0807C4.31362 2.0604 4.273 2.05023 4.24255 2.02993C4.2121 2.01978 4.19182 2.00964 4.16137 1.99949C4.16137 1.99949 4.14107 1.99951 4.13092 1.98936C4.04973 1.95891 3.96854 1.9183 3.88734 1.88785C3.82644 1.85741 3.75539 1.82694 3.69449 1.80664C3.69449 1.80664 3.6742 1.80666 3.66405 1.79651C3.6336 1.78636 3.61328 1.7762 3.58283 1.7559C3.56253 1.7559 3.55239 1.74577 3.5321 1.73562C3.4915 1.71532 3.46103 1.70515 3.42043 1.68485C3.41028 1.68485 3.39001 1.67471 3.37986 1.66456C3.32911 1.64426 3.28849 1.62396 3.23775 1.60366C3.21745 1.59352 3.18699 1.58337 3.16669 1.57322C3.15654 1.57322 3.13626 1.56305 3.12612 1.5529L3.09564 1.53261C3.09564 1.53261 3.05504 1.51231 3.03474 1.50216C2.98399 1.48186 2.94341 1.46157 2.89266 1.44127C2.89266 1.44127 2.88252 1.44127 2.87237 1.44127C2.79118 1.40067 2.72012 1.3702 2.63892 1.3296C2.63892 1.3296 2.62878 1.3296 2.61863 1.3296C2.61863 1.3296 2.61862 1.3296 2.60847 1.3296C2.58817 1.3296 2.578 1.30932 2.55771 1.30932C2.54756 1.30932 2.52728 1.29918 2.51713 1.28903C2.48668 1.27888 2.45623 1.25857 2.42579 1.24842C2.41564 1.24842 2.39533 1.23828 2.38518 1.22813C2.35473 1.21798 2.33441 1.19767 2.30396 1.18752C2.26336 1.16723 2.22277 1.14693 2.18217 1.12663C2.16187 1.12663 2.15174 1.10631 2.13144 1.10631C2.13144 1.10631 2.1213 1.10631 2.11115 1.10631C2.11115 1.10631 2.09082 1.10633 2.08067 1.09618C2.06037 1.08603 2.02994 1.07587 2.00965 1.05557C1.96905 1.03527 1.93858 1.02514 1.89798 1.00484C1.88783 1.00484 1.86756 0.994669 1.85741 0.984519C1.78636 0.95407 1.72545 0.913465 1.6544 0.883016C1.64425 0.883016 1.6341 0.872878 1.62395 0.862728C1.54276 0.822129 1.4717 0.781536 1.3905 0.740937C1.33975 0.710488 1.28901 0.690202 1.23826 0.659753C1.21796 0.659753 1.19766 0.639424 1.17737 0.629274C1.16722 0.629274 1.15707 0.619136 1.14692 0.608986C1.14692 0.608986 1.12662 0.608976 1.11647 0.598827C1.11647 0.598827 1.11646 0.598827 1.10631 0.598827C1.05556 0.568378 0.99466 0.537942 0.943912 0.517643C0.913463 0.507493 0.893177 0.487185 0.862728 0.477036C0.832279 0.456736 0.801834 0.446599 0.771385 0.4263C0.751085 0.41615 0.730779 0.405992 0.70033 0.385692C0.68003 0.375543 0.659733 0.365394 0.639434 0.355245C0.608985 0.334945 0.57854 0.324808 0.548091 0.304509C0.507492 0.284209 0.466898 0.263912 0.4263 0.243613C0.41615 0.243613 0.406002 0.233444 0.395852 0.223294C0.385702 0.223294 0.375554 0.213155 0.365404 0.203006C0.304506 0.172557 0.243585 0.131952 0.182687 0.101503C0.131938 0.0710539 0.0811961 0.0406185 0.0304478 0.0203192C0.0202981 0.0203192 0.0101497 0.0101497 0 0C1.30931 3.187 9.81473 5.65337 20.1065 5.65337C30.3983 5.65337 38.1628 3.40016 39.9998 0.406011C34.6307 3.32912 28.0131 5.23724 20.2283 5.24739C15.6609 5.24739 11.2966 4.50648 7.27733 3.19717L7.26717 3.15656Z" fill="#442113"/>
</svg>
