<svg width="96" height="20" viewBox="0 0 96 20" fill="none" xmlns="http://www.w3.org/2000/svg">
<path d="M6.01589 17.8572C6.01589 17.8572 6.05614 17.8572 6.14668 17.8572C6.22716 17.8572 6.34789 17.8371 6.50885 17.827C6.82072 17.7968 7.26334 17.7465 7.80658 17.6862C8.89306 17.5755 10.3719 17.3542 11.9513 17.1127C13.5308 16.8814 15.2007 16.5896 16.6997 16.3079C17.4441 16.1671 18.1584 16.0061 18.7821 15.8653C19.4058 15.7144 19.9591 15.5836 20.4119 15.4629C20.4119 15.4629 20.4118 15.483 20.4923 15.5233C20.5728 15.5534 20.7438 15.5937 21.0959 15.6138C21.448 15.6339 21.9812 15.644 22.7961 15.6037C23.1985 15.5836 23.6814 15.5534 24.2347 15.5031C24.788 15.4528 25.4217 15.3824 26.1461 15.2818C26.9006 15.1812 27.9468 15.0705 29.2748 14.9398C29.9387 14.8693 30.663 14.7989 31.4578 14.7184C31.8602 14.6782 32.2726 14.638 32.7052 14.6078C33.1378 14.5676 33.5905 14.5172 34.0533 14.4669C35.9043 14.2657 38.027 14.0344 40.4213 13.7929C42.8055 13.5213 45.4412 13.1793 48.3385 12.8171C49.7872 12.626 51.2962 12.3845 52.8656 12.1431C53.6502 12.0223 54.4551 11.8916 55.2699 11.7709C56.0848 11.6401 56.9198 11.5093 57.7749 11.3483C61.1752 10.7246 64.8471 10.0606 68.7806 9.13512C70.7523 8.68242 72.7845 8.2096 74.887 7.62612C75.9433 7.34444 77.0097 7.04262 78.0962 6.73076C78.6394 6.5698 79.1827 6.40886 79.746 6.2479C80.2993 6.08693 80.8526 5.9159 81.416 5.73482C81.6977 5.64428 81.9793 5.55375 82.261 5.46321C82.5427 5.37267 82.8244 5.27206 83.1161 5.17146C83.6896 4.98032 84.263 4.7791 84.8465 4.58796C85.4299 4.38676 86.0134 4.1755 86.607 3.96424C87.2005 3.75298 87.7941 3.54173 88.3977 3.31035C89.0013 3.07897 89.6049 2.82746 90.2085 2.58602C90.8221 2.33452 91.4358 2.06289 92.0595 1.79127C92.6732 1.52971 93.317 1.22793 93.9508 0.93619C94.5846 0.654508 95.2385 0.322503 95.8823 0.000581553C95.8823 -0.0094785 95.6811 0.111238 95.2888 0.34262C94.8965 0.584061 94.3331 0.916063 93.5887 1.33859C92.8543 1.75105 91.9589 2.25403 90.9227 2.79727C89.8866 3.34052 88.7095 3.93408 87.4017 4.51757C86.0939 5.11111 84.6654 5.72475 83.1262 6.34847C82.3616 6.66033 81.5669 6.97222 80.752 7.28408C79.9372 7.58588 79.0921 7.87761 78.2269 8.17941C76.5067 8.77295 74.6959 9.35644 72.8247 9.91981C70.9535 10.453 69.022 10.9761 67.0603 11.4691C66.5674 11.5898 66.0643 11.7205 65.5714 11.8513C65.3199 11.9117 65.0684 11.9721 64.8169 12.0324C64.5654 12.0928 64.3139 12.1431 64.0624 12.2034C63.0564 12.4247 62.0403 12.6461 61.0243 12.8573C58.9821 13.2698 56.9298 13.6923 54.8776 14.0243C52.8153 14.3563 50.763 14.6883 48.7107 14.98C47.6846 15.1108 46.6686 15.2516 45.6525 15.3723C44.6365 15.4931 43.6304 15.6138 42.6244 15.7345C34.5965 16.6399 27.0112 17.1832 20.5124 17.817C20.0798 17.8673 19.6473 17.8773 19.2348 17.8471C19.2348 17.8471 19.2147 17.8471 19.2046 17.8471C18.0779 17.7667 16.8908 17.827 15.7641 17.988C14.7279 18.159 13.41 18.3501 11.9715 18.5413C10.5329 18.7324 8.97356 18.9537 7.44443 19.1046C5.9153 19.2757 4.42642 19.4467 3.13873 19.5976C1.84098 19.7485 0.744444 19.8994 0 20C0.261561 19.9195 0.533191 19.839 0.794753 19.7485C1.05631 19.6579 1.31787 19.5774 1.57944 19.4869C2.0925 19.3159 2.60555 19.1348 3.10855 18.9537C4.11456 18.5916 5.08032 18.2194 6.02596 17.8471L6.01589 17.8572Z" fill="#999C37"/>
</svg>
