<svg width="52" height="18" viewBox="0 0 52 18" fill="none" xmlns="http://www.w3.org/2000/svg">
<path d="M0.393532 17.0437C1.89709 16.8418 3.38047 16.64 4.72256 16.5391C5.38857 16.4887 6.01421 16.4584 6.61967 16.4079C7.22513 16.3575 7.85076 16.2868 8.4764 16.1859C9.74787 15.974 11.0496 15.6814 12.3312 15.3181C12.9669 15.1364 13.6026 14.9346 14.2282 14.7025C14.8539 14.4705 15.4795 14.2081 16.1153 13.9356C16.751 13.6632 17.4069 13.3907 18.0426 13.1385C18.6884 12.8862 19.3242 12.6743 19.9297 12.4623C21.1507 12.0587 22.3313 11.6752 23.4514 11.3826C24.0064 11.2413 24.5513 11.1303 25.066 11.0294C25.5806 10.9285 26.075 10.8276 26.5796 10.7065C27.5887 10.4543 28.6382 10.0809 29.6775 9.67723C30.1922 9.47541 30.7169 9.24332 31.2214 9.01122C31.7462 8.76904 32.2608 8.51679 32.7754 8.24433C33.2901 7.97188 33.8047 7.67924 34.3294 7.39669C34.8441 7.11415 35.3688 6.85178 35.8734 6.6096C36.1256 6.48851 36.3779 6.37751 36.6302 6.26651C36.8825 6.15551 37.1247 6.05457 37.3668 5.95366C37.8512 5.75184 38.3356 5.56012 38.8098 5.38857C39.2841 5.21702 39.7483 5.06566 40.2024 4.94457C40.6565 4.82347 41.0904 4.73266 41.5142 4.63175C41.9481 4.53084 42.372 4.41984 42.816 4.28866C43.2499 4.15748 43.6939 3.99603 44.1379 3.82448C45.0259 3.48139 45.9038 3.09793 46.7918 2.65393C47.2358 2.43193 47.6798 2.18975 48.1137 1.93748C48.5476 1.6852 48.9916 1.42282 49.4255 1.19073C50.2933 0.716451 51.1612 0.333002 51.9987 0C51.1511 0.343093 50.2934 0.746733 49.4356 1.2311C49.0017 1.47328 48.5678 1.73566 48.1339 1.99802C47.6899 2.26039 47.2459 2.51265 46.8019 2.74474C45.9038 3.20893 45.0158 3.62266 44.1177 3.97584C43.6636 4.15748 43.2196 4.32902 42.7655 4.47029C42.3114 4.62165 41.8674 4.74277 41.4335 4.84368C40.9996 4.95468 40.5657 5.05559 40.1116 5.18677C39.6676 5.31795 39.2034 5.4794 38.7392 5.65095C38.275 5.83258 37.7907 6.0243 37.3063 6.23621C37.0641 6.33712 36.8219 6.44813 36.5797 6.55913C36.3376 6.67013 36.0853 6.78112 35.8431 6.90222C35.3486 7.1444 34.8542 7.39667 34.3496 7.68931C33.8451 7.97186 33.3305 8.27461 32.7956 8.56725C32.2608 8.85989 31.7159 9.13232 31.1912 9.39469C30.6564 9.64696 30.1215 9.88915 29.5867 10.1011C28.517 10.535 27.4171 10.9386 26.3374 11.2312C25.8026 11.3725 25.2678 11.4936 24.7531 11.5945C24.2385 11.7055 23.7138 11.8165 23.1789 11.9578C22.1093 12.2504 20.9488 12.6339 19.7581 13.0375C19.1627 13.2494 18.5674 13.4614 17.972 13.7035C17.3766 13.9457 16.7712 14.2081 16.1455 14.4805C15.5199 14.753 14.8539 15.0355 14.1778 15.2878C13.5017 15.5401 12.8256 15.7621 12.1394 15.9639C10.7771 16.3575 9.41486 16.6804 8.0324 16.9125C7.34621 17.0235 6.67012 17.1143 6.01421 17.1748C5.35829 17.2354 4.72256 17.2657 4.08683 17.3262C2.82546 17.4271 1.4531 17.6087 0 17.8105C0.141273 17.5583 0.27246 17.2959 0.413733 17.0336L0.393532 17.0437Z" fill="#F0BB46"/>
</svg>
