<svg width="72" height="40" viewBox="0 0 72 40" fill="none" xmlns="http://www.w3.org/2000/svg">
<path d="M71.4485 13.9075C71.1484 17.3891 69.6777 20.7407 67.8168 23.6621C62.6343 31.796 53.8701 37.1886 44.5157 39.1195C41.6243 39.7198 38.6729 39.9999 35.7214 39.9999C29.8186 39.9999 23.9058 38.7193 18.5532 36.2381C16.112 35.1076 13.7809 33.7269 11.6199 32.1162C8.31832 29.645 5.39691 26.6035 3.26589 23.0618C2.2554 21.391 1.42499 19.6002 0.844715 17.7293C0.614605 16.9789 0.424537 16.2185 0.274465 15.4482C0.0043359 13.9975 -0.125742 11.8265 0.164397 10.3758C0.294459 9.74546 0.944789 9.22522 1.21492 8.62493C1.62511 7.71449 1.92524 7.22425 2.72562 6.67398C4.87665 5.17326 7.38788 4.2028 9.87907 3.41242C15.3917 1.65158 21.2045 0.80117 26.9672 0.360959C34.0706 -0.189305 41.3041 -0.139275 48.3775 0.711133C53.7401 1.35144 59.1727 2.51199 64.055 4.89313C64.2451 4.98317 64.4352 5.08322 64.6253 5.17326C66.7463 6.26378 68.7473 7.60442 70.4881 9.23521C71.6987 10.3758 71.5786 12.3267 71.4386 13.9174L71.4485 13.9075Z" fill="#B04A26"/>
</svg>
