<svg width="34" height="14" viewBox="0 0 34 14" fill="none" xmlns="http://www.w3.org/2000/svg">
<path d="M0 9.89434C0.326911 9.85348 0.766215 9.73088 1.10334 9.40396C1.61414 8.88295 1.39958 8.29042 1.84909 7.7694C2.07384 7.50379 2.50292 7.20754 3.42235 7.14625C3.453 6.96236 3.68798 5.87946 4.74022 5.28693C5.29188 4.98045 5.8333 4.93959 6.11935 4.93959C6.32367 4.60247 6.906 3.75455 8.05018 3.25397C8.8266 2.90662 9.5417 2.86575 9.95034 2.86575C10.3794 2.36517 11.1558 1.58874 12.3511 0.996216C12.8415 0.751033 15.6406 -0.658755 17.9699 0.373057C19.3184 0.965583 19.6964 2.01783 21.0245 2.00762C21.7089 2.00762 21.7191 1.72157 22.516 1.61941C24.4775 1.35379 26.2039 2.81468 26.725 3.25397C27.1438 3.61152 27.7568 4.21425 28.2982 5.12347C28.6558 5.15412 29.187 5.24607 29.7898 5.51169C30.1167 5.65471 31.0361 6.07356 31.6899 7.07473C32.1598 7.78984 32.2824 8.49474 32.3131 8.89317C32.405 8.89317 33.0895 8.84208 33.5901 9.33245C33.9579 9.70022 33.9987 10.1497 33.9987 10.2723C33.7535 10.4869 33.396 10.7933 32.9261 11.1305C30.5049 12.857 27.8691 13.4291 22.1891 13.7764C21.3514 13.8275 14.8847 14.2055 8.06041 13.4597C6.64039 13.3065 4.65849 13.0408 2.56422 11.8456C1.38938 11.1815 0.561867 10.4358 0.0204207 9.89434H0Z" fill="#FEFACF"/>
</svg>
