<svg width="78" height="19" viewBox="0 0 78 19" fill="none" xmlns="http://www.w3.org/2000/svg">
<path d="M8.70993 0.354069C8.70993 0.354069 9.60014 0.354069 11.0164 0.354069C11.7245 0.354069 12.5642 0.354069 13.4847 0.354069C13.7174 0.354069 13.9501 0.354069 14.1929 0.354069C14.4356 0.354069 14.6784 0.354059 14.9313 0.343943C15.427 0.343943 15.9429 0.323722 16.469 0.323722C17.521 0.30349 18.6136 0.293355 19.696 0.273123C20.2423 0.273123 20.7784 0.263008 21.3146 0.242776C21.8507 0.222544 22.3768 0.202324 22.8927 0.192208C24.9564 0.121395 26.8177 0.0606965 28.1126 0C28.1126 0 28.0721 0.0202297 28.1126 0.060694C28.1632 0.101158 28.3048 0.151742 28.6588 0.222555C29.3771 0.354064 30.9653 0.536143 34.4756 0.718233C34.9005 0.748581 35.4164 0.778936 36.0132 0.8194C36.6101 0.859864 37.2879 0.900322 38.0365 0.971135C38.7851 1.03183 39.6044 1.10265 40.4744 1.20382C41.3545 1.29486 42.2852 1.40612 43.2665 1.50729C45.229 1.71972 47.3837 2.03333 49.6396 2.42785C51.8955 2.79203 54.2525 3.25737 56.6298 3.85422C58.9868 4.41061 61.3641 5.0985 63.6503 5.96848C64.227 6.19103 64.7834 6.40347 65.3397 6.63614C65.8961 6.86881 66.4424 7.10148 66.9785 7.35438C68.0508 7.86018 69.0928 8.40646 70.0741 9.01343C71.0553 9.62039 71.9759 10.2779 72.8256 10.986C73.6754 11.6841 74.4442 12.4428 75.1321 13.2622C76.4978 14.901 77.4993 16.8028 77.9747 18.998C77.8938 19.0587 77.1756 17.7436 75.2636 15.953C74.7882 15.5079 74.2318 15.0224 73.6046 14.5368C72.9774 14.0411 72.2592 13.5151 71.4499 12.989C69.8414 11.937 67.8789 10.8748 65.5117 9.89352C64.9452 9.65074 64.3484 9.38772 63.7313 9.13482C63.1142 8.88192 62.4668 8.63912 61.8092 8.39633C60.484 7.91076 59.0678 7.45553 57.5807 7.03066C56.0936 6.59566 54.5257 6.15056 52.897 5.76615C51.2683 5.37162 49.589 5.02768 47.849 4.6635C46.1091 4.30943 44.3185 3.99584 42.4976 3.72271C40.6666 3.41923 38.8053 3.15621 36.9034 2.93366C35.9525 2.8325 35.0016 2.73134 34.0406 2.62006C33.0796 2.5189 32.1084 2.42785 31.1373 2.35703C30.1661 2.2761 29.1849 2.21541 28.2036 2.17495C27.2224 2.11425 26.231 2.05355 25.2497 2.01309C24.7439 1.99286 24.2583 1.94228 23.8537 1.86135C23.8537 1.86135 23.8335 1.86135 23.8234 1.86135C22.7106 1.6388 21.355 1.54774 19.9084 1.52751C18.563 1.52751 16.8837 1.53764 15.0628 1.54776C14.1524 1.56799 13.2015 1.54776 12.2405 1.54776C11.2794 1.54776 10.3083 1.54776 9.34725 1.54776C7.43531 1.56799 5.56384 1.52753 3.94526 1.54776C3.13598 1.54776 2.38738 1.55787 1.71971 1.57811C1.05205 1.58822 0.475456 1.61857 0 1.6388C0.364179 1.59834 0.728344 1.54776 1.09252 1.48706C1.4567 1.43648 1.82089 1.3859 2.17495 1.3252C2.90331 1.22404 3.62154 1.11277 4.3499 1.01161C5.7965 0.79917 7.24311 0.60695 8.68971 0.364164L8.70993 0.354069Z" fill="#97AB3B"/>
</svg>
