<svg width="53" height="36" viewBox="0 0 53 36" fill="none" xmlns="http://www.w3.org/2000/svg">
<path d="M38.3825 34.8912C32.4755 34.8912 26.5585 33.6096 21.2022 31.1267C18.7593 29.9954 16.4266 28.6137 14.264 27.0018C10.9601 24.5289 8.0367 21.4854 5.90419 17.9412C4.893 16.2692 4.062 14.4771 3.48132 12.6049C3.25105 11.854 3.06081 11.0931 2.91064 10.3222C2.64032 8.87046 2.51018 6.69792 2.80052 5.24621C2.93068 4.61546 3.58143 4.09485 3.85175 3.49414C4.26223 2.58307 4.5626 2.09248 5.36354 1.54183C6.21455 0.95113 7.1156 0.440519 8.0467 0C6.1845 0.680803 4.35234 1.5118 2.73043 2.64313C1.92949 3.20379 1.62912 3.68434 1.21864 4.59542C0.948321 5.20614 0.297566 5.71674 0.167412 6.34748C-0.12293 7.79919 -0.00280305 9.98177 0.277528 11.4235C0.417693 12.1944 0.617936 12.9553 0.848208 13.7062C1.42889 15.5784 2.25989 17.3605 3.27108 19.0425C5.40359 22.5867 8.32705 25.6302 11.6309 28.1031C13.7935 29.7251 16.1162 31.0967 18.5691 32.228C23.9254 34.7109 29.8424 35.9925 35.7494 35.9925C38.7029 35.9925 41.6563 35.7021 44.5497 35.1114C47.4532 34.5107 50.2965 33.5796 52.9997 32.3281C51.1075 33.039 49.1552 33.5996 47.1828 34.0101C44.2894 34.6108 41.3359 34.8912 38.3825 34.8912Z" fill="#963F21"/>
</svg>
