<svg width="84" height="16" viewBox="0 0 84 16" fill="none" xmlns="http://www.w3.org/2000/svg">
<path d="M13.66 15.2447C21.43 15.2047 29.02 14.3647 36.15 12.8247C37.18 12.5947 38.22 12.3947 39.24 12.2147C40.26 12.0347 41.26 11.8947 42.24 11.7447C43.5 11.5747 44.96 11.3447 46.29 11.1547C46.96 11.0547 47.59 10.9647 48.15 10.8847C48.71 10.7947 49.2 10.7247 49.57 10.6847C50.29 10.6847 52 10.2547 54.36 9.5947C55.54 9.2547 56.87 8.83468 58.33 8.38468C59.06 8.16468 59.81 7.92471 60.6 7.69471C60.8 7.63471 60.99 7.57468 61.19 7.51468C61.39 7.45468 61.59 7.38468 61.79 7.32468C62.19 7.19468 62.6 7.0647 63.01 6.9347C64.66 6.4047 66.38 5.87468 68.14 5.32468C69.9 4.76468 71.7 4.20471 73.5 3.69471C73.72 3.63471 73.95 3.5647 74.17 3.5047C74.39 3.4347 74.62 3.37469 74.84 3.30469C75.29 3.17469 75.74 3.04471 76.18 2.91471C77.07 2.65471 77.96 2.41471 78.85 2.19471C80.61 1.75471 82.34 1.31471 84 0.974706C84.03 0.974706 83.7 0.624701 82.87 0.344701C82.04 0.0547009 80.71 -0.12532 78.71 0.10468C77.68 0.20468 76.51 0.424683 75.12 0.794683C74.77 0.884683 74.41 0.984701 74.04 1.0947C73.67 1.2047 73.28 1.3047 72.87 1.4347C72.06 1.6747 71.19 1.95469 70.25 2.27469C69.31 2.58469 68.29 2.95469 67.2 3.33469C66.11 3.70469 64.93 4.12468 63.67 4.57468C61.14 5.50468 58.25 6.4947 54.92 7.6847C53.84 8.0447 52.75 8.3047 51.72 8.5047C50.65 8.7047 49.57 8.8947 48.49 9.0647C47.95 9.1547 47.41 9.22469 46.87 9.30469C46.33 9.37469 45.78 9.44468 45.24 9.51468C44.37 9.62468 43.45 9.7747 42.51 9.9647C42.04 10.0547 41.57 10.1647 41.09 10.2747C40.61 10.3747 40.14 10.4847 39.66 10.6047C31.02 12.8147 21.6 13.9547 11.95 13.8247C10.96 13.8047 9.97 13.7747 8.97 13.7447C8.47 13.7247 7.98001 13.7047 7.48001 13.6847C6.98001 13.6547 6.48999 13.6147 5.98999 13.5847C4.98999 13.5147 4 13.4247 3 13.3347C2.5 13.2847 2 13.2347 1.5 13.1947C1 13.1447 0.5 13.0947 0 13.0247C0.56 13.1647 1.11999 13.2747 1.67999 13.3947C2.23999 13.5047 2.81 13.6147 3.37 13.7347C4.5 13.9547 5.63999 14.1647 6.76999 14.3547C7.33999 14.4547 7.91001 14.5347 8.48001 14.6147C9.05001 14.6947 9.63001 14.7747 10.2 14.8547C11.35 15.0047 12.5 15.1447 13.65 15.2747L13.66 15.2447Z" fill="#97AB3B"/>
</svg>
