<svg width="63" height="9" viewBox="0 0 63 9" fill="none" xmlns="http://www.w3.org/2000/svg">
<g style="mix-blend-mode:multiply" opacity="0.6">
<path d="M62.3986 0C62.3785 0.0703227 62.3484 0.140667 62.3182 0.21099C62.0269 0.783617 61.3036 1.13523 60.6204 1.43661C57.245 2.90334 53.6183 4.0084 49.8812 4.72168C46.6564 5.33449 43.3512 5.64591 40.0561 5.90711C33.1645 6.45964 26.2126 6.79117 19.3109 6.25873C14.5892 5.89707 9.88765 5.12351 5.44728 3.76729C4.07096 3.34535 1.03706 2.71245 0.00231384 1.63752C-0.0177783 2.08959 0.092725 2.53163 0.343877 2.93347C1.09733 4.16914 4.51301 4.87237 5.99983 5.32445C10.4402 6.68067 15.1317 7.4542 19.8634 7.81586C26.7551 8.3483 33.717 8.01681 40.6086 7.46427C43.9037 7.20307 47.2089 6.89162 50.4337 6.27881C54.1708 5.56554 57.7975 4.46048 61.173 2.99375C61.8561 2.69236 62.5794 2.34075 62.8708 1.76812C63.1721 1.1754 62.921 0.502305 62.4086 0H62.3986Z" fill="#EAEAEA"/>
</g>
</svg>
