<svg width="40" height="17" viewBox="0 0 40 17" fill="none" xmlns="http://www.w3.org/2000/svg">
<path d="M1.18149 15.3395C1.26159 15.5497 1.47187 15.7 1.75222 15.7901C2.03258 15.8802 2.38303 15.9102 2.7535 15.9102C3.51446 15.9002 4.39559 15.73 5.29673 15.4897C5.7473 15.3695 6.20788 15.2193 6.66847 15.0691C7.11904 14.919 7.56961 14.7287 8.04021 14.5084C8.5108 14.2882 8.97139 14.0478 9.452 13.7975C9.93261 13.5572 10.4132 13.2969 10.8838 13.0466C11.835 12.5359 12.7862 12.0453 13.7174 11.6148C14.178 11.4045 14.6486 11.1942 15.0992 11.024C15.5497 10.8538 15.9903 10.7036 16.4208 10.5734C17.2819 10.3031 18.103 10.0628 18.934 9.79243C19.7551 9.52209 20.5861 9.21171 21.3972 8.8112C22.2182 8.4107 23.0292 7.93009 23.8302 7.43947C24.6513 6.94885 25.4623 6.44821 26.2733 5.99763C27.0844 5.54706 27.9054 5.15656 28.7064 4.86619C29.5074 4.56581 30.2784 4.34553 31.0494 4.11524C31.8204 3.88495 32.5814 3.65466 33.3423 3.36429C34.1033 3.07392 34.8643 2.70345 35.6052 2.30294C37.0871 1.50193 38.5089 0.59075 40.0008 0C38.5189 0.620788 37.1071 1.54195 35.6252 2.37301C34.8843 2.79354 34.1233 3.18406 33.3423 3.49446C32.5713 3.80485 31.7904 4.05517 31.0194 4.30548C30.2484 4.5558 29.4674 4.79609 28.6864 5.10649C27.9054 5.40687 27.1144 5.79736 26.3134 6.25794C25.5224 6.71853 24.7114 7.22918 23.9003 7.72981C23.0893 8.24046 22.2583 8.75113 21.3972 9.19169C20.5361 9.63225 19.665 9.97267 18.8139 10.2731C17.9628 10.5734 17.1117 10.8338 16.2606 11.1241C15.8301 11.2643 15.4096 11.4245 14.969 11.5947C14.5385 11.765 14.0979 11.9652 13.6473 12.1755C12.7462 12.606 11.825 13.1067 10.8738 13.6273C9.91257 14.148 8.96138 14.6987 7.9501 15.1793C7.44946 15.4196 6.91879 15.6499 6.41815 15.8301C5.92753 16.0103 5.42688 16.1705 4.93626 16.3107C3.95501 16.5911 2.97378 16.8013 2.07264 16.8414C1.63208 16.8614 1.20151 16.8414 0.831042 16.7413C0.470584 16.6411 0.150191 16.4709 0 16.1505C0.400508 15.8902 0.790997 15.6298 1.18149 15.3695V15.3395Z" fill="#F0BB46"/>
</svg>
