<svg width="37" height="5" viewBox="0 0 37 5" fill="none" xmlns="http://www.w3.org/2000/svg">
<path d="M0 0.256242C0 0.256242 0.111554 0.489517 0.30426 0.763362C0.496966 1.03721 0.780962 1.34147 1.10552 1.51389C1.28808 1.62546 2.26175 1.57475 3.79325 1.5849C3.98596 1.5849 4.1888 1.5849 4.39165 1.5849C4.60464 1.5849 4.82778 1.59503 5.05092 1.60517C5.49718 1.60517 5.99416 1.64575 6.49114 1.67617C7.50538 1.75731 8.62104 1.84858 9.76713 1.98043C10.9132 2.12243 12.0796 2.305 13.1851 2.49771C13.459 2.54842 13.7328 2.59912 14.0067 2.64984C14.2602 2.70055 14.5138 2.75129 14.7674 2.802C15.0108 2.85271 15.2745 2.90342 15.528 2.95413C15.7816 3.00484 16.0149 3.05555 16.2786 3.10626C18.2969 3.49167 20.224 3.85679 21.2889 4.01907C21.8569 4.12049 22.3944 4.1712 22.9624 4.1712C23.9564 4.18134 25.64 4.15093 27.2425 4.1205C28.916 4.09007 30.5489 4.03937 31.2995 3.96837C31.7762 3.9278 32.2529 3.89736 32.7194 3.85679C33.186 3.82636 33.6627 3.78578 34.1292 3.75536C35.0725 3.6945 36.0157 3.63366 36.9995 3.54237C36.9995 3.54237 36.9589 3.54237 36.8778 3.54237C36.7967 3.54237 36.6749 3.53224 36.5228 3.5221C36.2084 3.50182 35.7621 3.48151 35.2043 3.44094C34.0886 3.36995 32.5369 3.26854 30.8025 3.07583C29.0783 2.90341 27.1614 2.69042 25.3155 2.47743C24.3925 2.37601 23.4898 2.24415 22.6277 2.12244C21.7656 2.00073 20.9441 1.87902 20.1834 1.76745C19.4227 1.66603 18.52 1.53418 17.5362 1.39219C17.0494 1.32119 16.5321 1.25018 16.0149 1.1589C15.4976 1.07776 14.96 0.986479 14.4225 0.90534C14.1588 0.86477 13.8951 0.824206 13.6213 0.783636C13.3576 0.743066 13.0837 0.702502 12.7997 0.661932C12.5157 0.621362 12.2317 0.580798 11.9478 0.540228C11.6638 0.509801 11.3696 0.469225 11.0857 0.438798C9.92942 0.306946 8.7529 0.195382 7.64737 0.124385C5.42618 -0.0480357 3.4687 -0.0175961 2.1299 0.0736856C1.78506 0.0838281 1.50106 0.124374 1.23736 0.144659C0.9838 0.175086 0.740394 0.185226 0.567973 0.205511C0.212988 0.246081 0.0101424 0.266384 0 0.256242Z" fill="#D5D23F"/>
</svg>
