<svg width="8" height="6" viewBox="0 0 8 6" fill="none" xmlns="http://www.w3.org/2000/svg">
<path d="M3.25883 2.32896C2.79629 2.72111 2.33376 3.13336 1.88127 3.56573C1.43884 3.99811 0.996412 4.4506 0.564037 4.92319C0.362932 5.14441 0.151762 5.38574 0.0512098 5.61701C-0.220282 6.2706 0.654542 5.93877 1.10703 5.7075C1.74051 5.36562 2.38405 4.97346 2.99742 4.53102C3.30913 4.30981 3.61078 4.07857 3.90238 3.83724C4.20404 3.59592 4.49564 3.34451 4.77718 3.09313C5.40061 2.55015 7.48204 0.569289 7.03961 0.0966931C6.60724 -0.396013 4.80734 1.13238 4.20403 1.57481C3.89231 1.81614 3.58061 2.06752 3.2689 2.32896H3.25883Z" fill="#F0BB46"/>
</svg>
