<svg width="72" height="24" viewBox="0 0 72 24" fill="none" xmlns="http://www.w3.org/2000/svg">
<path d="M71.9298 10.8644C71.707 9.79113 71.0286 8.74821 69.9553 7.77618C65.0041 3.24007 51.6793 0 36.0054 0C20.3315 0 7.00667 3.2502 2.05542 7.77618C0.840394 8.88996 0.131617 10.0847 0.0202394 11.3302C0.0101141 11.4415 0 11.563 0 11.6744C0 12.292 0.141736 12.8894 0.425243 13.4767C0.51637 13.6691 0.627755 13.8716 0.749258 14.064C0.860636 14.2361 0.97202 14.3981 1.10365 14.5601C2.35918 16.17 4.64748 17.6382 7.71543 18.9039C14.307 21.6174 24.5233 23.359 35.9952 23.359C52.4893 23.359 66.3912 19.7645 70.654 14.8538C70.735 14.7626 70.816 14.6614 70.897 14.5702C71.0691 14.3475 71.221 14.1247 71.3526 13.902C71.383 13.8513 71.4032 13.8108 71.4336 13.7602C71.8082 13.0818 72.0006 12.3933 72.0006 11.6845C72.0006 11.4112 71.9703 11.1479 71.9196 10.8846L71.9298 10.8644ZM68.7504 12.5553C68.5985 13.1527 68.2948 13.7298 67.8493 14.2968C64.2346 18.9038 51.2236 21.9617 35.8839 21.9617C23.5108 21.9617 12.8186 19.9771 7.24968 16.7877C5.91315 16.0182 4.87024 15.1879 4.1716 14.2968C4.06022 14.1551 3.95898 14.0134 3.86785 13.8716C3.66535 13.5577 3.50334 13.2438 3.39196 12.9299C3.24009 12.5148 3.15907 12.0997 3.15907 11.6643C3.15907 10.4189 3.81722 9.22411 5.03225 8.11033C9.54811 3.97923 21.7085 1.01252 36.0054 1.01252C50.3022 1.01252 62.4626 3.97923 66.9785 8.11033C68.1935 9.22411 68.8517 10.4189 68.8517 11.6643C68.8517 11.968 68.8112 12.2617 68.7403 12.5553H68.7504Z" fill="#C35328"/>
</svg>
