<svg width="55" height="13" viewBox="0 0 55 13" fill="none" xmlns="http://www.w3.org/2000/svg">
<path d="M1.50614 12.2721C1.9307 11.9588 2.5372 11.5949 3.21447 11.2411C3.89173 10.8772 4.63976 10.5234 5.39789 10.1696C5.58995 10.0786 5.78201 9.99775 5.97407 9.90677C6.16613 9.8259 6.36829 9.74505 6.56035 9.66418C6.95457 9.50244 7.34882 9.34071 7.74304 9.18908C8.5315 8.87572 9.33006 8.57245 10.1084 8.28942C10.8868 8.00638 11.6651 7.73346 12.4232 7.47064C13.1712 7.20782 13.8687 7.00566 14.5864 6.8136C16.0016 6.43959 17.3561 6.13634 18.6904 5.83308C20.0247 5.52983 21.349 5.21647 22.7136 4.88289C23.3909 4.71105 24.0883 4.5291 24.7757 4.31682C25.4631 4.10455 26.1504 3.88217 26.8277 3.65978C27.505 3.4374 28.1721 3.20489 28.819 2.98251C29.4761 2.77023 30.123 2.56806 30.7498 2.376C32.0032 2.00198 33.2061 1.67854 34.2877 1.48648C35.3693 1.29442 36.3397 1.22365 37.2697 1.19333C38.2098 1.163 39.1195 1.19333 40.0495 1.16301C40.9795 1.14279 41.96 1.08213 42.9809 0.930501C43.9918 0.788983 45.0127 0.596943 45.9933 0.445317C46.9738 0.283583 47.9341 0.172382 48.8034 0.152165C49.6828 0.131948 50.4409 0.243129 51.1283 0.425081C52.5031 0.778875 53.6049 1.40561 54.9998 1.73919C53.6352 1.37529 52.5839 0.718218 51.2294 0.32399C50.5521 0.121822 49.8041 -0.00956353 48.9146 0.000544878C48.0452 0.000544878 47.0748 0.0915107 46.1044 0.243137C45.134 0.384654 44.1232 0.55649 43.1528 0.677791C42.1723 0.8092 41.2423 0.859756 40.3427 0.849647C39.443 0.849647 38.5636 0.819323 37.6336 0.819323C36.7036 0.819323 35.7332 0.869846 34.6112 1.0518C33.4891 1.23375 32.2559 1.55723 30.9721 1.92114C30.3353 2.1132 29.6783 2.30525 29.0212 2.51753C28.3642 2.7298 27.7071 2.95217 27.0501 3.16445C26.3829 3.37673 25.7259 3.57891 25.079 3.78108C24.4219 3.97314 23.7952 4.13488 23.1381 4.29662C22.4912 4.45835 21.8544 4.59986 21.1973 4.73127C20.5504 4.87279 19.9135 5.01429 19.2565 5.15581C17.9424 5.43884 16.598 5.732 15.0918 6.11612C14.3438 6.31829 13.525 6.54067 12.7062 6.8136C11.9077 7.08653 11.0889 7.36957 10.2499 7.67282C9.41091 7.97607 8.55169 8.29953 7.68236 8.64322C7.2477 8.81506 6.80295 8.98689 6.36828 9.16885C6.1459 9.25982 5.92351 9.35082 5.70113 9.44179C5.47874 9.54288 5.25635 9.63383 5.03397 9.73491C4.15454 10.1393 3.2549 10.5537 2.39569 11.0086C1.53647 11.4534 0.687372 11.9386 0 12.4339C0.50542 12.3833 1.00071 12.3227 1.49602 12.2721H1.50614Z" fill="#EDD744"/>
</svg>
