<svg width="13" height="2" viewBox="0 0 13 2" fill="none" xmlns="http://www.w3.org/2000/svg">
<path d="M5.37008 1.86537C4.56173 1.92676 3.78408 1.96768 3.01666 1.98815C2.24923 2.00861 1.51249 1.99838 0.796229 1.98815C0.468795 1.98815 0.120896 1.96769 0.0288049 1.86537C-0.247468 1.59932 1.53296 1.13888 2.40271 0.9854C4.88917 0.504481 7.24258 0.16681 9.12533 0.0542546C10.1895 -0.027604 13.6378 -0.119707 12.3894 0.61702C12.0927 0.79097 11.663 0.944457 11.1923 1.06724C10.7114 1.19003 10.1793 1.29237 9.64718 1.37423C8.59326 1.54818 7.53934 1.64026 7.00726 1.71189C6.45471 1.77328 5.90216 1.82444 5.37008 1.86537Z" fill="#EDD744"/>
</svg>
