<svg width="64" height="26" viewBox="0 0 64 26" fill="none" xmlns="http://www.w3.org/2000/svg">
<path d="M0 25.5129C0 25.5129 0.101213 25.6849 1.91266 25.1688C2.81333 24.9158 4.13903 24.4807 6.0618 23.7521C7.02318 23.3776 8.12623 22.9121 9.40133 22.3555C10.0389 22.0823 10.7169 21.7787 11.4354 21.4548C12.1539 21.131 12.923 20.7869 13.7326 20.3821C13.7326 20.3821 13.935 20.2911 14.269 20.1393C14.5928 19.9875 15.0482 19.7851 15.5339 19.5726C16.5054 19.1577 17.6287 18.7124 18.246 18.6112C18.5092 18.5707 19.086 18.4088 19.7438 18.1355C20.4016 17.8724 21.1504 17.5486 21.7678 17.2045C22.5976 16.7491 23.4578 16.3646 24.2168 16.1015C24.6216 15.9598 25.1073 15.7979 25.6538 15.6056C26.1901 15.4032 26.7973 15.1907 27.4551 14.9478C28.7606 14.4722 30.2785 13.9156 31.9584 13.3084C33.608 12.6709 35.4093 11.9827 37.2916 11.2642C38.2327 10.9201 39.184 10.5254 40.1454 10.1409C41.1068 9.75633 42.0783 9.3718 43.0599 8.98724C43.5456 8.79497 44.0415 8.61281 44.5272 8.42054C45.013 8.22826 45.4988 8.02585 45.9946 7.83357C46.9661 7.44902 47.9376 7.06446 48.899 6.69002C50.8319 5.97152 52.6939 5.22266 54.4953 4.61547C55.3959 4.31188 56.2662 4.0285 57.1163 3.77551C57.9563 3.51239 58.776 3.27964 59.5653 3.08737C61.144 2.70281 62.6013 2.48017 63.8764 2.44981C63.927 2.50041 64.1395 1.76169 63.846 1.08366C63.7043 0.739588 63.4311 0.425867 62.9555 0.22347C62.4798 0.0210736 61.7816 -0.0700085 60.7999 0.0615493C59.8082 0.172867 58.523 0.506809 56.833 1.12412C56.4079 1.27592 55.9627 1.44797 55.4769 1.62001C55.0013 1.80217 54.4953 2.00456 53.9589 2.21708C52.8862 2.65223 51.7022 3.16834 50.3765 3.76541C49.0407 4.34224 47.5733 4.98991 45.944 5.72866C45.5392 5.91082 45.1142 6.10309 44.6892 6.29537C44.4766 6.39656 44.2641 6.49777 44.0415 6.58885C43.8189 6.69005 43.5962 6.7811 43.3736 6.8823C42.4729 7.27698 41.5216 7.6919 40.54 8.12705C40.0442 8.34969 39.5382 8.57231 39.0221 8.80506C38.5059 9.0277 37.9797 9.2807 37.4333 9.50333C36.3403 9.95873 35.1968 10.4445 34.0128 10.9505C31.6346 11.9827 29.0338 12.9846 26.2002 14.1281C25.2895 14.4924 24.4293 14.7353 23.6501 14.9174C23.1036 15.0389 22.294 15.2818 21.1909 15.7271C20.6343 15.9497 20.017 16.2229 19.3086 16.5569C18.6104 16.8908 17.821 17.2653 16.9608 17.7207C15.6655 18.4088 14.269 19.0868 12.9028 19.7041C11.5366 20.3113 10.2008 20.8477 9.01677 21.3132C7.84287 21.7787 6.83088 22.1632 6.10225 22.4162C5.73794 22.5377 5.45459 22.6389 5.25219 22.6996C5.05992 22.7603 4.94861 22.8008 4.94861 22.8008C4.94861 22.8008 4.87776 22.8312 4.7462 22.8716C4.61464 22.9222 4.43249 22.9829 4.20985 23.074C3.76458 23.2461 3.17763 23.4788 2.57044 23.7419C1.36619 24.2783 0.121438 24.9462 0 25.4825V25.5129Z" fill="#959636"/>
</svg>
