<svg width="28" height="26" viewBox="0 0 28 26" fill="none" xmlns="http://www.w3.org/2000/svg">
<path d="M12.3036 20.0403C12.3036 20.2954 12.202 20.5399 12.0211 20.7202C11.8403 20.9006 11.595 21.0019 11.3393 21.0019H7.96429C7.70854 21.0019 7.46327 20.9006 7.28243 20.7202C7.10159 20.5399 7 20.2954 7 20.0403C7 19.7853 7.10159 19.5408 7.28243 19.3604C7.46327 19.1801 7.70854 19.0788 7.96429 19.0788H11.3393C11.595 19.0788 11.8403 19.1801 12.0211 19.3604C12.202 19.5408 12.3036 19.7853 12.3036 20.0403ZM19.5357 19.0788H16.1607C15.905 19.0788 15.6597 19.1801 15.4789 19.3604C15.298 19.5408 15.1964 19.7853 15.1964 20.0403C15.1964 20.2954 15.298 20.5399 15.4789 20.7202C15.6597 20.9006 15.905 21.0019 16.1607 21.0019H19.5357C19.7915 21.0019 20.0367 20.9006 20.2176 20.7202C20.3984 20.5399 20.5 20.2954 20.5 20.0403C20.5 19.7853 20.3984 19.5408 20.2176 19.3604C20.0367 19.1801 19.7915 19.0788 19.5357 19.0788ZM27.25 24.848C27.25 25.103 27.1484 25.3476 26.9676 25.5279C26.7867 25.7083 26.5415 25.8096 26.2857 25.8096H1.21429C0.958541 25.8096 0.713271 25.7083 0.532433 25.5279C0.351594 25.3476 0.25 25.103 0.25 24.848C0.25 24.593 0.351594 24.3484 0.532433 24.1681C0.713271 23.9878 0.958541 23.8865 1.21429 23.8865H2.17857V9.46342C2.17857 9.28485 2.22844 9.10981 2.32259 8.95791C2.41673 8.80601 2.55144 8.68325 2.71162 8.60339C2.87179 8.52353 3.0511 8.48973 3.22946 8.50576C3.40781 8.5218 3.57817 8.58704 3.72143 8.69419L9.89286 13.3096V9.46342C9.89286 9.28485 9.94273 9.10981 10.0369 8.95791C10.131 8.80601 10.2657 8.68325 10.4259 8.60339C10.5861 8.52353 10.7654 8.48973 10.9437 8.50576C11.1221 8.5218 11.2925 8.58704 11.4357 8.69419L16.1053 12.1858L17.4987 2.46101C17.5661 2.00351 17.7959 1.58529 18.1462 1.28228C18.4965 0.979268 18.9442 0.81155 19.4079 0.80957H21.5921C22.0558 0.81155 22.5035 0.979268 22.8538 1.28228C23.2041 1.58529 23.4339 2.00351 23.5013 2.46101L25.3094 15.0968C25.3094 15.0968 25.319 15.1906 25.319 15.2326V23.8865H26.2833C26.4101 23.8862 26.5358 23.9108 26.6531 23.959C26.7703 24.0072 26.8769 24.078 26.9667 24.1673C27.0565 24.2566 27.1278 24.3627 27.1764 24.4795C27.225 24.5963 27.25 24.7216 27.25 24.848ZM17.8651 13.5019L18.8933 14.2711H23.2458L21.5921 2.73265H19.4079L17.8651 13.5019ZM4.10714 23.8865H23.3929V16.1942H18.5714C18.3628 16.1942 18.1598 16.1267 17.9929 16.0019L16.2571 14.7038L11.8214 11.3865V15.2326C11.8214 15.4112 11.7716 15.5863 11.6774 15.7382C11.5833 15.8901 11.4486 16.0128 11.2884 16.0927C11.1282 16.1725 10.9489 16.2063 10.7705 16.1903C10.5922 16.1743 10.4218 16.109 10.2786 16.0019L4.10714 11.3865V23.8865Z" fill="#6D9127"/>
</svg>
