<svg width="41" height="9" viewBox="0 0 41 9" fill="none" xmlns="http://www.w3.org/2000/svg">
<path d="M9.27685 0.701117C9.27685 0.701117 9.29689 0.701117 9.34697 0.701117C9.39705 0.701117 9.46716 0.711132 9.56733 0.731165C9.75763 0.751197 10.0381 0.781242 10.4087 0.821307C11.1399 0.901437 12.1816 1.01163 13.4536 1.18191C15.9977 1.53247 19.4533 1.94314 23.0692 2.5942C24.8821 2.87465 26.7351 3.21521 28.548 3.60585C28.9988 3.70601 29.4495 3.80616 29.9002 3.90632C30.351 4.00648 30.7917 4.09662 31.2224 4.2068C32.0938 4.41714 32.9452 4.6375 33.7565 4.86787C34.5678 5.10826 35.3491 5.35867 36.0702 5.62911C36.8014 5.89955 37.4825 6.15996 38.1035 6.46045C39.3455 7.04139 40.3472 7.70247 40.9982 8.44367C41.0083 8.44367 40.848 8.37356 40.5475 8.26338C40.247 8.14319 39.8063 7.98292 39.2654 7.78259C38.7245 7.58227 38.0735 7.36193 37.3724 7.11152C37.0218 6.99133 36.6512 6.86111 36.2706 6.7309C35.89 6.60069 35.4993 6.46046 35.0987 6.32023C33.4961 5.76934 31.7933 5.20843 30.2608 4.78775C29.4896 4.58743 28.7784 4.37707 28.1274 4.23684C27.4863 4.09662 26.9154 4.00647 26.4647 3.98644C26.034 3.94637 25.3729 3.89629 24.5516 3.82617C24.1409 3.78611 23.6802 3.74605 23.1894 3.70598C22.6986 3.66592 22.1677 3.59582 21.6168 3.53573C20.505 3.41553 19.273 3.2753 17.9809 3.12506C17.3399 3.04493 16.6788 2.9748 16.0077 2.89467C15.3367 2.80453 14.6656 2.70437 13.9845 2.61422C12.6323 2.42391 11.2701 2.2236 9.94795 2.03329C9.28688 1.94315 8.64582 1.82294 8.02482 1.71277C7.40381 1.60259 6.79283 1.50242 6.21188 1.39224C5.05 1.19191 3.98828 0.991593 3.0768 0.831333C2.17534 0.661057 1.42412 0.49079 0.883246 0.370595C-0.18849 0.110174 -0.198496 0.0100162 0.392461 0C0.682932 0 1.13365 0.0200202 1.66451 0.0500689C2.19537 0.0901338 2.8264 0.14023 3.48747 0.190311C4.80961 0.290473 6.26198 0.42067 7.3838 0.520833C8.50561 0.631011 9.2969 0.711143 9.2969 0.711143L9.27685 0.701117Z" fill="#959636"/>
</svg>
