<svg width="117" height="45" viewBox="0 0 117 45" fill="none" xmlns="http://www.w3.org/2000/svg">
<path d="M0 43.1067C0.250795 43.1268 0.501612 43.1368 0.742375 43.1569C0.993171 43.1769 1.25398 43.197 1.50477 43.2171C2.0164 43.2572 2.52802 43.2873 3.03964 43.3174C4.06289 43.3776 5.07612 43.4177 6.09936 43.4478C7.11258 43.4779 8.12579 43.4879 9.139 43.4979C9.64059 43.4979 10.1422 43.4979 10.6538 43.4979C11.1654 43.4979 11.6771 43.4979 12.1887 43.4979C14.2251 43.4879 16.2014 43.4277 18.0874 43.2772C19.0404 43.207 19.9433 43.0967 20.8863 43.0064C21.8192 42.9061 22.7321 42.7857 23.645 42.6352C24.0964 42.565 24.5479 42.4847 24.9893 42.3944C25.4407 42.3142 25.8821 42.2239 26.3235 42.1236C27.2063 41.923 28.0791 41.7223 28.9318 41.4916C29.7745 41.2508 30.6573 41.0301 31.4999 40.7793C32.3526 40.5386 33.1953 40.2677 34.0079 39.9768C35.6531 39.415 37.2381 38.773 38.763 38.0908C40.3279 37.4187 41.8227 36.6863 43.2973 35.9039C44.0297 35.5126 44.772 35.1114 45.5043 34.7001C46.2367 34.2988 46.9489 33.8774 47.7013 33.4762C49.176 32.6736 50.6206 31.8711 52.015 31.0786C52.7172 30.6773 53.4094 30.286 54.0815 29.8948C54.7637 29.5036 55.4258 29.1123 56.108 28.7311C56.7801 28.3399 57.4522 27.9687 58.1143 27.5875C58.4454 27.3969 58.7764 27.2163 59.0974 27.0257C59.4185 26.8451 59.7395 26.6545 60.0705 26.474C61.3546 25.7416 62.6086 25.0595 63.8124 24.4074C65.0062 23.7553 66.2 23.1434 67.3436 22.5114C69.6309 21.2474 71.8078 19.8931 73.8844 18.5288C74.9176 17.8466 75.9609 17.1745 76.9641 16.4923C77.9673 15.8101 78.9404 15.128 79.8934 14.4358C80.8464 13.7436 81.7694 13.0413 82.6923 12.3592C83.6152 11.687 84.5382 11.045 85.4811 10.4632C85.7119 10.3127 85.9426 10.1723 86.1834 10.0318C86.4141 9.89137 86.6448 9.75092 86.8756 9.62051C87.337 9.35968 87.7985 9.0888 88.2599 8.84804C88.7214 8.59725 89.1728 8.35651 89.6343 8.12578C90.0857 7.89505 90.5472 7.67434 90.9986 7.46368C91.9015 7.04234 92.8044 6.66112 93.7072 6.33007C94.6101 5.99902 95.5029 5.72816 96.3857 5.47736C97.2685 5.22657 98.1413 4.99583 99.0141 4.74503C99.8868 4.49424 100.76 4.23341 101.622 3.96255C102.054 3.83214 102.485 3.70173 102.916 3.56128C103.348 3.43087 103.779 3.30047 104.211 3.17006C104.642 3.03964 105.063 2.90922 105.495 2.7788C105.705 2.71861 105.926 2.64838 106.137 2.57815C106.347 2.51796 106.558 2.44777 106.779 2.38758C107.631 2.12675 108.474 1.85587 109.307 1.58501C110.139 1.31415 110.982 1.05333 111.825 0.832627C113.52 0.391227 115.256 0.140445 117.001 0C115.256 0.160509 113.52 0.431373 111.845 0.882805C111.002 1.1035 110.169 1.38438 109.337 1.65524C108.504 1.93613 107.661 2.21701 106.809 2.48787C106.598 2.55809 106.387 2.62833 106.167 2.68852C105.956 2.75874 105.735 2.82898 105.525 2.88917C105.093 3.01958 104.672 3.16 104.241 3.30045C103.809 3.43086 103.378 3.58134 102.947 3.71175C102.515 3.8522 102.084 3.99266 101.642 4.1331C100.77 4.414 99.8969 4.68486 99.0141 4.95572C98.1313 5.22658 97.2485 5.47737 96.3657 5.7382C95.4829 5.99903 94.6 6.27992 93.7072 6.62101C92.8244 6.96209 91.9316 7.34329 91.0287 7.77466C90.5773 7.98533 90.1259 8.21604 89.6744 8.44677C89.223 8.67751 88.7716 8.92831 88.3201 9.17911C87.8687 9.4299 87.4073 9.70076 86.9558 9.96159C86.7251 10.092 86.4943 10.2425 86.2736 10.3829C86.0429 10.5234 85.8122 10.6638 85.5815 10.8143C84.6585 11.3961 83.7757 12.0382 82.8528 12.7103C81.9399 13.3925 81.017 14.1047 80.0539 14.817C79.0909 15.5292 78.0977 16.2415 77.0845 16.9337C76.5729 17.2848 76.0613 17.6359 75.5396 17.977C75.028 18.3281 74.5063 18.6692 73.9847 19.0203C71.888 20.4147 69.681 21.8192 67.3336 23.1334C66.7517 23.4644 66.1498 23.7854 65.5579 24.1065C64.9761 24.4275 64.3842 24.7485 63.7823 25.0795C62.5885 25.7316 61.3747 26.4037 60.1207 27.126C59.8097 27.3066 59.4887 27.4872 59.1777 27.6677C58.8567 27.8483 58.5357 28.0289 58.2146 28.2195C57.5726 28.6007 56.9105 28.9618 56.2585 29.3531C55.6064 29.7443 54.9543 30.1255 54.2922 30.5168C53.6301 30.908 52.948 31.2892 52.2758 31.6905C50.9115 32.473 49.5271 33.2555 48.1026 34.038C46.7082 34.8305 45.3238 35.643 43.8692 36.4355C42.4246 37.2281 40.8897 37.9905 39.3147 38.7027C37.7698 39.425 36.1647 40.0871 34.4994 40.669C33.6668 40.9699 32.8342 41.2408 31.9714 41.5016C31.5401 41.632 31.1087 41.7625 30.6773 41.8828C30.256 42.0133 29.8246 42.1336 29.3932 42.254C28.5405 42.4948 27.6577 42.7155 26.7649 42.9161C26.3235 43.0164 25.8721 43.1168 25.4106 43.197C24.9592 43.2873 24.4977 43.3776 24.0363 43.4478C23.1133 43.6083 22.1703 43.7387 21.2173 43.8491C20.2844 43.9795 19.3414 44.0798 18.3883 44.15C16.4823 44.3105 14.5562 44.3707 12.62 44.3908C11.647 44.3908 10.6939 44.4109 9.75093 44.4209C8.79791 44.4209 7.83487 44.4209 6.88184 44.4008C5.91879 44.3807 4.95572 44.3507 3.98263 44.3005C3.01958 44.2604 2.02644 44.1801 1.08345 44.14C0.722308 43.7789 0.361145 43.4177 0 43.0565V43.1067Z" fill="#F0BB46"/>
</svg>
