<svg width="443" height="69" viewBox="0 0 443 69" fill="none" xmlns="http://www.w3.org/2000/svg">
<path d="M217.915 8.40258C217.781 8.48806 217.902 8.6856 218.046 8.60203C222.352 6.15551 227.187 6.59239 231.298 9.0655C231.514 9.19466 231.768 8.90214 231.576 8.74829C227.81 5.71673 221.91 5.8117 217.915 8.40258Z" fill="#8AA74F"/>
<path d="M348.424 0.333737C338.631 -1.13756 328.015 2.30622 322.382 9.66839C322.32 9.75003 322.462 9.84495 322.537 9.77281C328.301 4.29389 335.524 0.614707 344.24 0.844419C353.115 1.07793 365.57 5.96453 363.38 15.4587C363.314 15.7472 363.798 15.975 363.956 15.6732C368.321 7.32571 355.97 1.46901 348.424 0.333737Z" fill="#8AA74F"/>
<path d="M349.24 14.1652C346.978 14.3816 344.786 14.9891 342.713 15.8036C340.821 16.5477 338.628 18.3835 337.008 17.6621C335.969 17.1989 335.583 16.0997 334.232 15.6934C332.832 15.272 331.698 15.4485 330.418 16.0503C330.33 16.0921 330.392 16.206 330.485 16.187C333.075 15.6688 335.842 16.8458 336.717 19.1163C336.799 19.3252 337.105 19.4922 337.344 19.3404C341.537 16.6882 346.708 14.6341 351.974 14.9303C359.266 15.3384 363.168 19.8909 363.313 25.983C363.315 26.114 363.55 26.1956 363.619 26.0552C367.307 18.4728 356.318 13.4875 349.24 14.1652Z" fill="#8AA74F"/>
<path d="M337.863 54.6376C335.622 53.0827 332.647 52.9612 330.154 54.0889C330.063 54.1307 330.126 54.2712 330.225 54.237C332.625 53.4093 335.586 53.6466 337.473 55.3172C339.124 56.7771 339.456 58.7401 339.706 60.6917C339.719 60.798 339.897 60.874 339.962 60.7525C341.139 58.592 339.9 56.05 337.863 54.6376Z" fill="#8AA74F"/>
<path d="M442.982 41.1219C443.033 41.0725 442.969 41.0023 442.902 41.0308C438.015 43.193 435.724 47.8592 435.897 52.4608C433.832 50.8396 431.021 50.2131 428.271 50.4675C429.439 46.8227 428.047 42.9025 424.582 40.503C422.649 39.1647 420.221 38.4946 417.769 38.504C416.551 38.5097 415.323 38.6863 414.166 39.0166C413.563 39.1894 411.262 40.5182 410.93 40.4632C410.514 40.3948 408.488 36.2298 407.915 35.6015C406.375 33.9119 404.336 32.5793 402.031 31.8142C397.28 30.2367 392.184 31.2011 388.335 33.9992C388.262 34.0524 388.357 34.1606 388.436 34.115C397.071 29.1546 407.452 32.8204 409.775 41.6249C409.867 41.9761 410.367 42.0483 410.643 41.8262C413.987 39.1305 419.198 38.4965 423.104 40.6853C426.883 42.8019 428.187 46.8094 427.743 50.5472C423.761 51.0807 420.096 53.4118 419.312 57.0662C412.49 51.7413 398.131 53.1556 398.387 62.822C398.391 62.9777 398.656 62.9777 398.663 62.822C398.863 58.1539 403.586 54.8242 408.725 54.7958C413.285 54.7692 416.547 57.2105 420.486 58.7462C420.667 58.8165 420.956 58.6513 420.801 58.4691C420.441 58.0495 420.04 57.6585 419.607 57.2959C421.316 54.5964 423.307 52.2235 427.028 51.5211C430.434 50.8775 433.324 52.0431 436 53.6681C436.457 57.1004 438.288 60.3712 441.501 62.3835C441.736 62.5316 441.943 62.2259 441.788 62.057C439.629 59.7087 437.84 57.1402 437.177 54.2395C437.321 54.1712 437.422 54.0098 437.321 53.8732C437.246 53.7725 437.149 53.6928 437.069 53.596C436.946 52.8689 436.873 52.1286 436.907 51.3578C437.103 47.0106 439.808 44.146 442.982 41.1219Z" fill="#8AA74F"/>
<path d="M134.597 56.5684C136.547 60.2628 142.025 61.5993 146.028 59.4275C150.499 57.0013 151.057 51.7483 147.692 48.3748C147.569 48.2514 147.315 48.4184 147.431 48.5513C150.264 51.809 150.021 56.6785 145.675 58.8921C141.637 60.9481 137.588 59.5034 135.084 56.5343C135.207 56.4887 135.198 56.314 135.041 56.3102C134.992 56.3084 134.942 56.3084 134.892 56.3065C134.707 56.0729 134.528 55.8318 134.362 55.5831C134.311 55.5053 134.164 55.5566 134.194 55.6458C134.27 55.8717 134.365 56.0862 134.464 56.2989C115.556 55.7996 96.5511 56.4564 77.6389 56.6444C58.5048 56.8342 39.3665 56.9823 20.2367 57.4265C20.1548 57.4284 20.1548 57.5366 20.2367 57.5385C39.3708 57.6335 58.5048 57.4303 77.6389 57.2709C96.5963 57.1076 115.659 57.4189 134.597 56.5684Z" fill="#8AA74F"/>
<path d="M32.3772 23.5204C40.7979 15.881 54.8468 21.1169 53.61 31.9609C53.5884 32.1545 53.8729 32.2817 54.0474 32.183C60.9447 28.2589 68.3182 32.2608 69.8761 38.8029C69.9192 38.9813 70.2467 38.9414 70.2359 38.7592C70.0162 34.7573 66.7108 31.2679 62.2505 30.3662C59.932 29.8973 57.9108 30.2807 55.6979 30.8408C53.7651 31.3287 54.7175 31.4331 54.3706 30.2067C54.0819 29.1891 54.153 28.1526 53.7824 27.1103C50.8541 18.909 38.4643 16.5834 32.3363 23.4843C32.3147 23.509 32.3513 23.5432 32.3772 23.5204Z" fill="#8AA74F"/>
<path d="M74.7441 37.5257C76.9031 36.5859 78.4826 37.0928 79.4824 39.0501C79.6052 39.2286 79.9025 39.1868 79.9736 38.9932C82.5981 31.7677 88.9093 25.1402 98.1316 24.9523C107.789 24.7548 114.469 32.8593 110.435 40.7435C110.338 40.9315 110.614 41.0795 110.752 40.9068C111.241 40.2936 111.614 39.6424 111.903 38.9704C114.081 38.6268 115.658 39.6842 116.781 41.2029C116.927 41.4004 117.268 41.2751 117.21 41.0435C116.729 39.0729 113.874 38.249 111.933 38.9039C113.396 35.4032 112.26 31.3064 109.498 28.4093C105.55 24.2688 98.6768 23.4392 93.0788 25.0757C87.2567 26.7767 82.9364 31.1773 80.5964 36.0468C79.9607 37.3681 80.2064 37.9908 79.0126 37.668C78.0258 37.4004 77.4289 36.5537 76.2201 36.3942C74.0955 36.1132 72.4859 37.0605 71.3181 38.5451C71.3073 38.5584 71.3331 38.5774 71.3461 38.5641C72.0291 37.5124 73.1625 37.1668 74.7441 37.5257Z" fill="#8AA74F"/>
<path d="M117.311 42.3274C120.638 40.8922 124.43 39.5841 128.145 40.6264C132.69 41.9002 133.541 45.8471 130.778 48.9492C130.69 49.0479 130.765 49.2358 130.933 49.1846C132.595 48.691 133.381 47.5139 133.541 46.1812C134.737 43.8063 137.829 42.4641 140.61 43.4418C140.576 43.5101 140.606 43.605 140.718 43.6069C140.822 43.6088 140.927 43.6069 141.031 43.6088C141.156 43.6639 141.283 43.7152 141.408 43.7816C144.747 45.5585 144.394 49.1523 142.134 51.5007C142.02 51.6184 142.168 51.831 142.334 51.7304C145.549 49.7845 145.334 45.6079 142.33 43.6183C147.042 43.6924 151.791 43.662 156.491 43.4987C156.573 43.4949 156.573 43.3905 156.491 43.3867C151.649 43.2462 146.758 43.2443 141.91 43.3582C138.684 41.587 134.907 42.9501 133.564 45.811C133.623 44.1518 132.778 42.3331 131.455 41.3136C127.225 38.0578 121.412 40.0341 117.214 42.1774C117.102 42.2344 117.199 42.3748 117.311 42.3274Z" fill="#8AA74F"/>
<path d="M71.5863 52.4082C71.7415 52.4044 71.7415 52.1932 71.5863 52.1912C47.7506 51.8812 23.8977 52.4412 0.0662582 52.7144C-0.0220861 52.7144 -0.0220861 52.8384 0.0662582 52.8384C23.8998 52.7938 47.7592 53.0341 71.5863 52.4082Z" fill="#8AA74F"/>
<path d="M106.08 68.1694C106 68.1732 105.998 68.2837 106.08 68.2818C123.548 67.7424 141.094 67.5022 158.528 66.3738C158.66 66.3661 158.662 66.1908 158.528 66.1908C141.047 66.3528 123.539 67.4145 106.08 68.1694Z" fill="#8AA74F"/>
<path d="M180.157 51.7464C181.439 51.0895 182.571 50.1365 183.101 48.931C184.055 46.7611 182.935 45.4967 181.2 44.1526C180.524 43.6267 179.918 44.7563 180.698 44.912C181.299 45.734 181.903 46.5541 182.504 47.3761C182.275 48.0007 182.047 48.6253 181.821 49.248C181.314 49.9903 180.341 50.6491 179.496 51.0648C179.056 51.2812 178.597 51.4483 178.128 51.585C177.065 51.585 176.001 51.716 174.98 51.9552C174.717 51.9476 174.456 51.9514 174.193 51.9286C171.26 51.6628 168.907 50.3643 166.973 48.4886C167.113 48.4545 167.108 48.2646 166.945 48.257C166.871 48.2532 166.798 48.2551 166.725 48.2513C166.712 48.238 166.697 48.2266 166.684 48.2134C166.649 48.1792 166.611 48.2115 166.608 48.2475C161.105 48.0045 155.578 48.221 150.073 48.3235C149.948 48.3254 149.948 48.4924 150.073 48.4943C155.624 48.5779 161.198 48.7772 166.744 48.5038C167.968 50.6661 170.315 52.0786 172.926 52.6139C175.447 52.9348 177.839 52.7336 180.157 51.7464Z" fill="#8AA74F"/>
<path d="M18.706 32.4345C18.7663 32.6015 19.0184 32.6813 19.1649 32.5408C24.7543 27.2498 32.6773 30.1962 34.7911 36.5142C34.8557 36.7079 35.2285 36.6813 35.2069 36.4649C34.9268 33.5052 32.8001 30.9992 29.6714 29.8298C26.2885 28.5635 23.4011 29.4957 20.3586 30.8815C18.5702 31.6979 19.1218 31.3865 18.0208 29.9C17.1071 28.6679 15.8014 27.6542 14.2909 27.022C11.1321 25.6988 7.70602 26.2189 4.87039 27.8554C4.80359 27.8934 4.86392 27.9883 4.93503 27.9522C10.324 25.0685 16.7861 27.1511 18.706 32.4345Z" fill="#8AA74F"/>
<path d="M91.9768 2.69904C96.5793 5.15373 97.6976 9.80113 94.5861 13.636C94.487 13.7575 94.696 13.8809 94.8102 13.7898C98.5013 10.8073 97.1524 5.68909 93.4894 3.19264C88.4473 -0.245445 81.8387 1.21446 76.7298 3.66725C76.7169 3.67295 76.7277 3.69003 76.7406 3.68434C81.341 1.57896 87.1846 0.141838 91.9768 2.69904Z" fill="#8AA74F"/>
<path d="M93.2118 15.2208C95.526 13.8577 98.5663 13.6811 100.926 15.0974C103.33 16.5402 103.751 19.0119 103.738 21.3736C103.738 21.516 103.983 21.59 104.059 21.4495C105.324 19.0594 103.925 16.1358 101.546 14.6892C98.9585 13.1173 95.5174 13.4343 93.117 15.1106C93.0437 15.16 93.1364 15.2663 93.2118 15.2208Z" fill="#8AA74F"/>
<path d="M130.108 31.3067C134.482 28.3357 139.916 29.6152 142.146 34.0272C142.247 34.2246 142.583 34.2341 142.739 34.0936C147.981 29.3931 154.034 32.3186 156.482 37.4007C155.91 37.5849 155.35 37.8184 154.827 38.1392C154.79 38.162 154.822 38.2095 154.861 38.1924C155.462 37.9323 156.042 37.7557 156.6 37.6456C156.63 37.714 156.669 37.7766 156.697 37.845C156.794 38.0709 157.186 38.05 157.193 37.7861C157.195 37.7045 157.18 37.6304 157.177 37.5507C160.457 37.1748 162.87 39.2992 163.885 42.2968C163.952 42.4923 164.264 42.536 164.383 42.3538C166.089 39.7358 170.403 38.8454 173.088 40.7989C175.383 42.4696 175.622 45.0097 175.017 47.4378C174.956 47.6808 175.31 47.8099 175.467 47.6049C179.018 42.9973 172.827 37.6209 167.365 39.5099C167.382 39.5042 164.523 41.0856 164.424 41.4216C164.305 41.1445 163.495 39.2346 163.213 38.9328C161.629 37.2299 159.33 36.7249 157.158 37.2071C156.775 32.1306 149.673 29.6228 144.777 31.8459C143.038 32.6356 143.185 33.3381 141.711 31.9598C140.642 30.9593 139.642 30.1392 138.162 29.6285C135.223 28.6147 132.236 29.3551 129.866 31.0295C129.689 31.1529 129.927 31.4282 130.108 31.3067Z" fill="#8AA74F"/>
<path d="M52.5165 47.4809C52.4282 47.4829 52.4282 47.6058 52.5165 47.6058C64.2491 47.6605 75.9989 47.883 87.7271 47.4926C87.8456 47.4887 87.8456 47.3287 87.7271 47.3267C75.9946 47.0262 64.2469 47.3384 52.5165 47.4809Z" fill="#8AA74F"/>
<path d="M116.514 61.3396C98.4246 61.1875 80.3076 61.7112 62.2315 62.2387C62.2099 62.2387 62.2099 62.2695 62.2315 62.2695C80.3183 62.2348 98.444 62.1963 116.514 61.484C116.615 61.4782 116.617 61.3396 116.514 61.3396Z" fill="#8AA74F"/>
<path d="M155.031 58.7875C154.914 58.7952 154.91 58.9517 155.031 58.9517C161.667 58.9961 168.405 58.8995 175.014 58.3257C175.158 58.3141 175.165 58.1228 175.014 58.1209C168.377 57.9721 161.648 58.3161 155.031 58.7875Z" fill="#8AA74F"/>
<path d="M286.743 7.67934C288.777 9.12026 289.154 11.1307 289.083 13.2949C289.077 13.4772 289.37 13.5 289.432 13.3367C291.309 8.28874 283.414 3.81411 278.978 7.38128C278.967 7.39077 278.98 7.40406 278.993 7.40027C281.568 6.36372 284.375 6.00111 286.743 7.67934Z" fill="#8AA74F"/>
<path d="M388.769 31.4136C388.773 31.556 389.008 31.5882 389.053 31.4478C390.652 26.4416 384.462 21.8663 379.09 22.9067C379.023 22.9199 379.012 23.0073 379.071 23.0358C379.504 23.237 379.928 23.4515 380.342 23.6812C380.348 23.685 380.355 23.6755 380.348 23.6717C378.472 22.5289 381.878 23.0794 382.428 23.1952C383.889 23.5066 385.257 24.1691 386.33 25.0994C388.312 26.8232 388.681 29.0899 388.769 31.4136Z" fill="#8AA74F"/>
</svg>
