<svg width="21" height="23" viewBox="0 0 21 23" fill="none" xmlns="http://www.w3.org/2000/svg">
<path d="M0.76542 22.2976C0.76542 22.2976 0.725128 22.3278 0.694914 22.348C0.463277 22.5192 0.241708 22.6904 0 22.8515C0.221566 22.8314 0.453227 22.7911 0.684864 22.7508C0.81579 22.7307 0.946709 22.7005 1.08771 22.6703C1.7524 22.5192 2.40703 22.3077 3.04152 22.0559C3.42422 21.9049 3.78676 21.7336 4.14932 21.5524C4.52196 21.3711 4.87447 21.1596 5.20682 20.9481C5.86144 20.515 6.44557 20.0517 6.99949 19.5784C7.22105 19.387 7.4426 19.2058 7.67424 19.0144C7.7246 18.9741 7.77498 18.9238 7.82533 18.8835C8.10733 18.6518 8.37923 18.4101 8.66123 18.1684C8.94322 17.9368 9.21514 17.7052 9.5072 17.4735C9.79927 17.2419 10.1014 17.0203 10.4036 16.7887C11.0078 16.3355 11.6221 15.8621 12.2063 15.3586C12.7904 14.8449 13.3544 14.3112 13.8278 13.717C14.2507 13.1933 14.5931 12.6696 14.9154 12.1458C14.9557 12.0754 14.996 12.0149 15.0363 11.9444C15.3787 11.3502 15.6909 10.7762 16.0233 10.192C16.3556 9.60791 16.7081 9.03387 17.1311 8.44974C17.544 7.87568 17.9871 7.29156 18.4101 6.69736C18.4504 6.63694 18.4907 6.58657 18.531 6.52614C18.6115 6.40529 18.7022 6.28442 18.7828 6.16356C19.0648 5.75064 19.3367 5.32765 19.5683 4.90466C19.5885 4.86438 19.6086 4.83418 19.6288 4.7939C19.7295 4.60254 19.8201 4.41118 19.9108 4.21983C19.9712 4.0889 20.0215 3.96805 20.0719 3.83712C20.1625 3.60548 20.233 3.37386 20.2934 3.16237C20.374 2.90052 20.4344 2.64873 20.4848 2.39695C20.515 2.27609 20.5352 2.15523 20.5553 2.04445C20.6862 1.35961 20.7869 0.694912 20.9984 0C20.7769 0.704983 20.656 1.37977 20.4949 2.06461C20.4747 2.17539 20.4445 2.29625 20.4143 2.40703C20.3841 2.53795 20.3539 2.67894 20.3136 2.80987C20.2834 2.93072 20.2431 3.05157 20.2028 3.1825C20.0316 3.73641 19.7899 4.31046 19.4475 4.90466C19.1151 5.48879 18.7022 6.08299 18.2691 6.66712C17.8361 7.25125 17.3829 7.8354 16.9599 8.41953C16.829 8.60081 16.6981 8.7821 16.5772 8.96338C16.4966 9.07416 16.4261 9.18493 16.3556 9.29572C16.1542 9.59785 15.9729 9.8899 15.7916 10.192C15.0867 11.3603 14.4824 12.5386 13.5659 13.6465C13.1026 14.1903 12.5688 14.704 11.9948 15.1874C11.6121 15.5096 11.2092 15.8219 10.7963 16.1341C10.746 16.1743 10.6855 16.2146 10.6251 16.265C10.4841 16.3657 10.333 16.4765 10.192 16.5872C9.87983 16.8189 9.57771 17.0405 9.2655 17.2721C8.9533 17.5037 8.65117 17.7454 8.3591 17.9872C7.77498 18.4706 7.20091 18.9338 6.64699 19.387C6.37507 19.5985 6.10315 19.8201 5.83123 20.0215C5.74059 20.092 5.63988 20.1625 5.54923 20.233C5.33774 20.3942 5.11618 20.5352 4.89461 20.6862C4.59248 20.8776 4.28027 21.0589 3.94792 21.22C3.6055 21.3811 3.26308 21.5423 2.91059 21.6833C2.57824 21.8142 2.24587 21.925 1.91352 22.0257C1.54089 22.1365 1.16828 22.2271 0.805713 22.2976C0.805713 22.2976 0.785572 22.2976 0.775501 22.2976H0.76542Z" fill="#EAE65D"/>
</svg>
