<svg width="25" height="14" viewBox="0 0 25 14" fill="none" xmlns="http://www.w3.org/2000/svg">
<path d="M0.690456 13.1505C0.669714 12.9742 0.711203 12.7461 0.825285 12.5075C0.939367 12.269 1.10532 12.0097 1.292 11.7608C1.67573 11.2526 2.15278 10.7756 2.64023 10.3296C2.88913 10.1014 3.14843 9.89402 3.40771 9.68659C3.46993 9.63474 3.53215 9.58287 3.59438 9.54138C3.65661 9.4999 3.71883 9.44807 3.78105 9.40659C3.90551 9.31325 4.04033 9.23028 4.17516 9.14731C4.71446 8.81543 5.27448 8.52502 5.84489 8.245C6.4153 7.95461 6.97534 7.6746 7.53538 7.3531C7.67021 7.27013 7.81539 7.18717 7.95022 7.1042C8.08504 7.02123 8.23026 6.92788 8.36509 6.83454C8.63474 6.64787 8.89399 6.46118 9.15327 6.2745C9.66145 5.89077 10.1593 5.50703 10.6571 5.16478C10.906 4.98847 11.1549 4.82256 11.4142 4.66699C11.6734 4.51142 11.9327 4.36623 12.192 4.24177C13.2498 3.74396 14.3596 3.5158 15.4589 3.17355C16.0086 3.00761 16.5686 2.80018 17.0975 2.5409C17.6265 2.29199 18.1346 2.0016 18.6325 1.73195C19.1303 1.46231 19.6385 1.20304 20.157 0.995616C20.4163 0.891905 20.6755 0.808926 20.9452 0.725957C21.2148 0.65336 21.4845 0.591141 21.7541 0.539285C22.8327 0.342235 23.9321 0.280019 25.0003 0C23.9217 0.259277 22.8328 0.290372 21.7438 0.46668C21.4741 0.508164 21.1941 0.560024 20.9245 0.632621C20.6548 0.705219 20.3852 0.788188 20.1155 0.891899C19.5866 1.08895 19.068 1.34823 18.5599 1.60751C18.0517 1.86678 17.5435 2.13645 17.0249 2.37499C16.5064 2.61352 15.9775 2.8002 15.4278 2.95577C14.8885 3.11133 14.3388 3.24614 13.7891 3.39134C13.5091 3.46393 13.2395 3.54692 12.9595 3.64026C12.6795 3.7336 12.3994 3.83731 12.1194 3.96176C11.5594 4.22104 11.0201 4.54253 10.5015 4.88477C9.98298 5.23739 9.48516 5.61077 8.97698 5.97376C8.72807 6.16044 8.46877 6.33673 8.2095 6.50266C8.08504 6.58563 7.95022 6.66861 7.82577 6.74121C7.69095 6.81381 7.55614 6.89678 7.42132 6.96937C6.88202 7.27014 6.33235 7.52941 5.77232 7.80943C5.21228 8.07908 4.63149 8.35909 4.05071 8.71171C3.90552 8.80505 3.76031 8.88801 3.61511 8.99172C3.54251 9.04357 3.46992 9.09545 3.39733 9.14731C3.32473 9.19917 3.25212 9.25101 3.18989 9.30287C2.90987 9.52066 2.64025 9.73845 2.3706 9.97698C1.8313 10.4541 1.30237 10.9726 0.835667 11.5638C0.607503 11.8645 0.389713 12.186 0.223776 12.5179C0.0682096 12.8498 -0.025153 13.2128 0.00596031 13.5239C0.234124 13.3995 0.462292 13.275 0.690456 13.1402V13.1505Z" fill="#F0BB46"/>
</svg>
