<svg width="86" height="13" viewBox="0 0 86 13" fill="none" xmlns="http://www.w3.org/2000/svg">
<path d="M13.6448 8.99704C21.2987 9.78848 28.9426 10.3595 36.5664 10.7402C37.6684 10.7903 38.7704 10.8103 39.8424 10.7903C40.3834 10.7803 40.9143 10.7703 41.4353 10.7402C41.9562 10.7001 42.4772 10.6601 42.9781 10.61C44.2704 10.4798 45.7832 10.3094 47.1557 10.1491C47.4963 10.1091 47.8369 10.069 48.1575 10.0189C48.4781 9.9688 48.7887 9.91872 49.0692 9.87865C49.6402 9.78848 50.1411 9.69831 50.5118 9.61816C50.8323 9.53802 51.4435 9.44788 52.305 9.35771C52.7358 9.31764 53.2267 9.26752 53.7677 9.20741C54.3087 9.15732 54.9098 9.09721 55.5509 9.01707C58.1256 8.7065 61.4516 8.33583 65.0381 7.61452C72.2212 6.25205 80.4662 3.79758 85.9361 0.000684675C85.9462 -0.0193517 86.1165 0.401438 85.866 1.12275C85.6256 1.83404 84.9644 2.83585 83.3314 3.95789C82.9206 4.2384 82.4498 4.52892 81.9088 4.82947C81.3678 5.13001 80.7567 5.42055 80.0655 5.7211C78.6829 6.32219 76.9899 6.94331 74.9161 7.55442C73.8742 7.84494 72.7422 8.12546 71.5099 8.40597C70.8888 8.54623 70.2476 8.68649 69.5764 8.82675C68.9052 8.967 68.2039 9.10724 67.4826 9.21744C66.03 9.45788 64.4571 9.6883 62.7741 9.9087C62.3533 9.95879 61.9225 10.0189 61.4917 10.069C61.0509 10.1091 60.6101 10.1592 60.1593 10.1992C59.2576 10.2894 58.316 10.3695 57.3542 10.4397C56.1119 10.5398 54.9298 10.7102 53.8278 10.8805C52.6958 11.0608 51.5537 11.2511 50.4216 11.4315C49.2895 11.6118 48.1475 11.8121 47.0154 11.9624C45.1921 12.2229 43.0883 12.3431 40.9544 12.273C31.3269 11.9324 21.6493 11.2511 11.9417 10.2293C10.9499 10.1191 9.95809 10.0189 8.95627 9.91873C8.45536 9.86864 7.96448 9.81854 7.46357 9.75843C6.96266 9.69832 6.47175 9.63822 5.97084 9.57811C4.97904 9.4579 3.97724 9.33765 2.98544 9.20741C2.48453 9.14731 1.99361 9.0872 1.4927 9.02709C0.991792 8.96698 0.490892 8.90687 0 8.83675C0.571037 8.85678 1.13207 8.86681 1.70311 8.87683C2.27414 8.87683 2.83515 8.89686 3.40618 8.90688C4.53824 8.92692 5.67029 8.94695 6.81236 8.96699C7.37338 8.98702 7.94443 8.97702 8.51547 8.97702C9.08651 8.97702 9.64754 8.97702 10.2186 8.97702C11.3506 8.97702 12.4827 8.97702 13.6147 8.97702L13.6448 8.99704Z" fill="#97AB3B"/>
</svg>
