<svg width="63" height="21" viewBox="0 0 63 21" fill="none" xmlns="http://www.w3.org/2000/svg">
<path d="M2.97609 8.72951C3.45827 8.45829 3.58888 7.82542 3.77975 7.3131C3.97061 6.79074 4.14139 6.13779 4.63362 5.7862C5.25644 5.33415 6.14041 5.70583 6.77328 5.24374C7.24541 4.89214 7.36598 4.17892 7.88834 3.89765C8.4107 3.60633 9.07369 3.88761 9.66638 3.77711C10.249 3.66661 10.6709 3.20451 11.0326 2.7826C11.6253 2.09951 12.2882 1.81824 13.2124 1.82828C13.8654 1.82828 14.4782 2.05933 15.101 1.82828C15.4124 1.71778 15.6233 1.48674 15.8845 1.29587C16.6982 0.693146 17.6525 0.532409 18.647 0.642909C19.742 0.763455 20.837 1.21551 21.9319 0.934237C22.605 0.763464 23.1876 0.3315 23.8506 0.140636C24.3528 -6.13726e-07 24.8853 0 25.4076 0C26.8642 0 28.3309 9.81025e-06 29.7875 0.0100553C32.3189 0.0100553 34.8805 0.0301425 37.3417 0.602734C38.4065 0.843826 39.4713 1.19541 40.5562 1.09495C41.3397 1.01459 42.0831 0.713231 42.8667 0.69314C43.7406 0.673049 44.5643 1.0146 45.368 1.32601C46.9049 1.92874 48.472 2.46115 50.0492 2.94333C50.8026 3.17438 51.5962 3.3552 52.3998 3.41547C53.2034 3.48579 53.9066 3.56613 54.65 3.94786C54.9513 4.09854 55.8655 4.95243 56.0463 5.28393C56.1568 5.49488 56.2874 5.70584 56.4381 5.88666C56.8499 6.41907 57.4627 6.7807 58.0152 7.16242C58.2764 7.34324 58.5276 7.5743 58.7184 7.83548C59.3513 8.69939 60.2353 9.35233 61.2197 9.79433C61.4508 9.89479 61.6818 10.0254 61.8827 10.1761C62.7266 10.7687 63.259 11.8838 62.8672 12.8281C62.5759 13.5312 61.8526 13.9632 61.1695 14.3248C57.7942 16.123 54.1678 17.4791 50.4309 18.343C47.2063 19.0864 43.9014 19.4782 40.6064 19.7996C33.7152 20.4727 26.7638 20.8745 19.8625 20.2215C15.1412 19.7795 10.4399 18.8252 5.99979 17.1677C4.5231 16.6152 1.10764 15.7513 0.344184 14.2344C-0.509681 12.5267 0.173406 10.2665 2.97609 8.71946V8.72951Z" fill="#E87D34"/>
</svg>
