<svg width="31" height="7" viewBox="0 0 31 7" fill="none" xmlns="http://www.w3.org/2000/svg">
<path d="M30.0545 6.69342C28.2925 5.87787 26.0271 4.93143 23.3287 4.06554C23.3287 4.06554 20.5398 3.16944 17.4789 2.52506C10.9243 1.14567 4.5409 0.984582 0 1.11547C2.24528 0.652321 4.86309 0.259645 7.77289 0.08848C11.468 -0.122959 14.7504 0.0683504 17.4789 0.41068C21.9896 2.19281 26.4902 3.96485 31.0009 5.74698C30.8197 5.82753 30.6083 5.89801 30.3767 5.96849C30.0948 6.04903 29.833 6.09938 29.6014 6.12959C29.6719 6.21013 29.7525 6.30076 29.833 6.40144C29.9135 6.50213 29.9941 6.60281 30.0545 6.7035V6.69342Z" fill="#C0863C"/>
</svg>
