<svg width="55" height="11" viewBox="0 0 55 11" fill="none" xmlns="http://www.w3.org/2000/svg">
<path d="M0.0624852 0.997548C0.0624852 0.997548 -0.258261 0.255799 0.553642 0.0152347C0.724041 -0.0348828 2.77885 0.0352915 5.79592 0.275855C7.29945 0.406161 9.05357 0.526445 10.928 0.716891C12.8024 0.887291 14.8071 1.13787 16.8318 1.33834C17.8442 1.45862 18.8666 1.57891 19.8789 1.71924C20.3901 1.77938 20.8913 1.84956 21.3925 1.91972C21.6431 1.94979 21.8936 1.98986 22.1442 2.01993C22.3948 2.05 22.6454 2.0801 22.886 2.11017C24.8706 2.36076 26.7751 2.6414 28.5092 2.91204C29.3812 3.06239 30.2132 3.17266 30.995 3.30297C31.7768 3.42325 32.5085 3.54351 33.1701 3.65377C34.5032 3.87428 35.5958 4.07477 36.3475 4.20508C37.1394 4.33538 37.9212 4.5158 38.6329 4.72629C39.2443 4.91674 40.0663 5.16732 40.9884 5.44798C41.4495 5.58831 41.9306 5.73867 42.4218 5.89905C42.6623 5.97924 42.9129 6.05942 43.1635 6.1396C43.4141 6.21979 43.6647 6.28997 43.9052 6.37016C45.8899 6.98159 47.7342 7.65314 48.5762 7.97389C49.6387 8.4049 50.7012 8.77578 51.7637 9.14665C52.8262 9.51752 53.8987 9.89841 55.0012 10.3294C55.0012 10.3394 54.8008 10.2993 54.45 10.1991C54.0891 10.1089 53.5679 9.96857 52.9164 9.79817C52.2648 9.62777 51.483 9.42731 50.6009 9.20679C49.7189 8.9963 48.7366 8.74571 47.6941 8.4851C46.6417 8.23451 45.529 7.97389 44.3763 7.7233C43.795 7.593 43.2136 7.47274 42.6222 7.34244C42.0308 7.20211 41.4395 7.07179 40.838 6.95151C38.4525 6.43028 36.0468 5.99928 33.9118 5.51815C29.6017 4.8967 21.5027 3.21273 14.0653 2.37076C12.211 2.1302 10.4168 1.92973 8.75285 1.77938C8.34189 1.73929 7.93093 1.69921 7.54002 1.66914C7.13908 1.62904 6.75818 1.58893 6.38731 1.55886C5.63554 1.4887 4.9339 1.42855 4.2924 1.36841C1.71636 1.15792 0.0624895 1.0577 0.0825365 0.977512L0.0624852 0.997548Z" fill="#D5D23F"/>
</svg>
