<svg width="14" height="21" viewBox="0 0 14 21" fill="none" xmlns="http://www.w3.org/2000/svg">
<path d="M0.850493 20.6684C0.829999 20.5044 0.860758 20.3097 0.932488 20.115C1.0657 19.7154 1.32187 19.285 1.62928 18.8546C1.78299 18.6395 1.94695 18.414 2.12115 18.1988C2.29535 17.9836 2.4798 17.7787 2.69499 17.5635C3.12536 17.1331 3.60696 16.7027 4.05783 16.2519C4.51895 15.8113 4.95957 15.3604 5.32846 14.889C5.51291 14.6636 5.69736 14.4176 5.84081 14.1819C5.98427 13.9463 6.11749 13.7106 6.23021 13.4852C6.46589 13.024 6.66059 12.5732 6.87578 12.1325C7.09097 11.6817 7.32664 11.2308 7.63405 10.7902C8.23863 9.89867 9.06866 9.01744 9.70398 8.08496C10.0216 7.62384 10.2983 7.15246 10.4725 6.69134C10.657 6.23022 10.7902 5.77937 10.9131 5.33875C11.0361 4.89812 11.1591 4.45748 11.323 4.00661C11.487 3.56599 11.7227 3.11513 11.9788 2.6745C12.4912 1.78301 13.106 0.901743 13.4237 0C13.0753 0.901743 12.4502 1.78301 11.9174 2.6745C11.6509 3.11513 11.3947 3.57625 11.2205 4.02712C11.0361 4.478 10.9029 4.92886 10.7697 5.36949C10.6262 5.82036 10.493 6.26096 10.2983 6.72208C10.1036 7.17295 9.83719 7.62383 9.50928 8.0747C9.18138 8.52557 8.81247 8.96619 8.44358 9.41706C8.06444 9.86794 7.6853 10.3188 7.35739 10.7799C7.02949 11.2513 6.76306 11.7022 6.52738 12.1633C6.2917 12.6244 6.07652 13.0753 5.83059 13.5262C5.70762 13.7516 5.5744 13.977 5.43094 14.1922C5.28748 14.4176 5.11329 14.6328 4.92884 14.848C4.5497 15.2887 4.11932 15.719 3.64796 16.1597C3.17659 16.59 2.67448 17.0306 2.20311 17.4918C1.96743 17.7172 1.73176 17.9631 1.53706 18.1886C1.34237 18.4242 1.14766 18.6497 0.98371 18.8751C0.63531 19.3362 0.32789 19.7974 0.143443 20.2585C0.0512191 20.4839 0 20.7094 0 20.9245C0 21.1397 0.891502 20.8426 0.871008 20.6786L0.850493 20.6684Z" fill="#EAE65D"/>
</svg>
