<svg width="50" height="38" viewBox="0 0 50 38" fill="none" xmlns="http://www.w3.org/2000/svg">
<path d="M1.09461 38C1.6871 37.6686 2.29967 37.3573 2.87208 37.0059C3.44449 36.6644 3.99681 36.3029 4.49893 35.9313C5.00104 35.5598 5.463 35.1982 5.92495 34.8367C6.38689 34.4752 6.87896 34.1237 7.39111 33.7622C8.42547 33.0391 9.63056 32.3261 10.8256 31.6031C11.4281 31.2416 12.0306 30.8901 12.6533 30.5386C13.2759 30.1871 13.9086 29.8457 14.5613 29.4842C15.2141 29.1226 15.8568 28.731 16.5095 28.3394C17.1522 27.9477 17.7648 27.536 18.3573 27.1142C19.5222 26.2807 20.6469 25.407 21.6713 24.4931C22.1834 24.0312 22.6453 23.5592 23.1073 23.1073C23.5692 22.6554 24.0211 22.2135 24.4931 21.7717C25.4371 20.888 26.4715 20.0042 27.4958 19.1306C28.0079 18.6987 28.5301 18.2669 29.0523 17.8451C29.5745 17.4234 30.1168 17.0317 30.6591 16.6401C31.2014 16.2484 31.7537 15.8668 32.296 15.4651C32.8383 15.0634 33.3705 14.6517 33.8827 14.2299C34.1337 14.019 34.3848 13.7981 34.6359 13.5872C34.8769 13.3663 35.1179 13.1554 35.3589 12.9345C35.8309 12.5027 36.3029 12.0608 36.7548 11.6189C37.2167 11.1771 37.6586 10.7251 38.0804 10.2732C38.4921 9.8113 38.8938 9.35941 39.2854 8.90751C39.6771 8.45561 40.0687 8.01374 40.4704 7.58192C40.8721 7.1501 41.2939 6.72831 41.7157 6.31658C42.5492 5.49311 43.4429 4.70982 44.3166 3.99681C44.7585 3.64533 45.2003 3.30392 45.6422 2.98256C46.0841 2.66121 46.5259 2.35994 46.9577 2.03858C47.8214 1.39588 48.6449 0.70296 49.4282 0C48.6348 0.692918 47.8113 1.36574 46.9377 1.99841C46.5058 2.30972 46.064 2.611 45.6121 2.92231C45.1602 3.23362 44.7183 3.56502 44.2664 3.92654C43.3726 4.63954 42.4689 5.41279 41.6153 6.23625C41.1834 6.64799 40.7516 7.06975 40.3298 7.51162C39.908 7.95348 39.4963 8.40541 39.0946 8.85731C38.6929 9.30921 38.2913 9.76111 37.8795 10.203C37.4678 10.6448 37.0159 11.0766 36.564 11.5085C36.102 11.9403 35.6501 12.3721 35.1681 12.7939C34.9271 13.0048 34.6861 13.2157 34.4451 13.4265C34.204 13.6374 33.953 13.8383 33.7019 14.0492C33.1998 14.4609 32.6876 14.8525 32.1554 15.2341C31.6232 15.6157 31.0708 15.9974 30.5085 16.389C29.9461 16.7907 29.3737 17.2024 28.8214 17.6242C28.2791 18.056 27.7268 18.4979 27.1945 18.9397C26.12 19.8335 25.0354 20.7373 24.0111 21.6713C23.4989 22.1332 23.0169 22.6052 22.5349 23.047C22.073 23.4989 21.611 23.9408 21.1189 24.3726C20.1348 25.2363 19.0201 26.0698 17.8552 26.8732C17.2727 27.2748 16.6802 27.6565 16.0677 28.028C15.445 28.3896 14.8325 28.7511 14.1797 29.1025C13.527 29.454 12.8441 29.8156 12.1612 30.1871C11.4783 30.5587 10.8155 30.9403 10.1527 31.3119C8.84724 32.065 7.58191 32.7881 6.41701 33.5613C5.83456 33.9429 5.27219 34.3245 4.76004 34.6961C4.23784 35.0677 3.76585 35.4292 3.28382 35.7606C2.80179 36.092 2.27959 36.4134 1.71722 36.7247C1.43604 36.8753 1.15485 37.0259 0.863622 37.1766C0.582438 37.3272 0.291226 37.4879 0 37.6285C0.35148 37.749 0.713 37.8594 1.06448 37.9699L1.09461 38Z" fill="#F0BB46"/>
</svg>
