<svg width="19" height="7" viewBox="0 0 19 7" fill="none" xmlns="http://www.w3.org/2000/svg">
<path d="M0.0200426 0.0100366C0.381007 0.230626 0.731953 0.45121 1.09292 0.661772C1.45388 0.872335 1.81484 1.08289 2.18583 1.28343C2.27608 1.33356 2.36632 1.38372 2.46658 1.43386C2.55682 1.48399 2.64707 1.53412 2.74733 1.58425L3.02808 1.72461L3.30886 1.865C3.30886 1.865 3.39909 1.91514 3.44922 1.9352L3.58961 2.00536L3.87036 2.13571L4.15111 2.26607L4.29147 2.33626L4.43186 2.39642C5.96596 3.07824 7.55018 3.62971 9.15447 4.08091C9.35501 4.14108 9.55555 4.19122 9.75609 4.25138L10.0569 4.33158L10.3577 4.41182C10.7588 4.51208 11.1699 4.61233 11.581 4.70257L12.1926 4.84296L12.343 4.87304L12.4934 4.90312L12.8042 4.97331L13.1151 5.04348C13.2153 5.06353 13.3156 5.08358 13.4259 5.10364L14.0375 5.23399L14.6492 5.36434L14.96 5.4245L15.2708 5.48466L15.8925 5.60498L16.2033 5.66517L16.5141 5.72532L16.825 5.78548C16.9252 5.80554 17.0355 5.82559 17.1358 5.84564L17.7575 5.95592C17.968 5.99603 18.1686 6.02612 18.3791 6.06623L18.69 6.12639L19.0008 6.18655V6.21663L18.6799 6.18655L18.3691 6.15647L18.0583 6.12639L17.8978 6.10632L17.7374 6.08627C17.3163 6.03614 16.9052 5.99604 16.4841 5.93588C15.6518 5.82558 14.8196 5.68521 13.9874 5.53481C13.1652 5.37438 12.333 5.20392 11.5208 4.99336C11.1097 4.88306 10.7086 4.78279 10.2975 4.67249L9.99672 4.59229L9.69593 4.50205C9.49539 4.44189 9.29485 4.38171 9.09431 4.32155C7.48 3.83023 5.89577 3.24868 4.3717 2.53678L4.23131 2.46661L4.09095 2.39642L3.8102 2.25603L3.52942 2.11567L3.38906 2.04548C3.38906 2.04548 3.29881 1.99533 3.24867 1.97528L2.96792 1.82488L2.68717 1.67449C2.59693 1.62435 2.5067 1.57423 2.41646 1.52409C2.32622 1.47396 2.23599 1.42382 2.14575 1.36366C1.78478 1.1531 1.4238 0.932514 1.06284 0.711925C0.7119 0.491335 0.350938 0.260696 0 0.0300792L0.0200426 0V0.0100366Z" fill="#D9692A"/>
</svg>
