<svg width="20" height="39" viewBox="0 0 20 39" fill="none" xmlns="http://www.w3.org/2000/svg">
<path d="M4.4302 35.8877C4.4302 35.8877 4.46063 35.8674 4.51132 35.8168C4.56201 35.7661 4.63297 35.6951 4.72421 35.6039C4.90669 35.4113 5.16014 35.1375 5.49469 34.7827C5.8191 34.4279 6.21446 33.992 6.65038 33.4952C7.0863 32.9883 7.58308 32.4206 8.10011 31.8124C9.1443 30.5755 10.3304 29.136 11.5266 27.595C12.7229 26.0237 13.9395 24.3611 15.0648 22.6884C15.673 21.8469 16.2002 20.9649 16.6564 20.0525C17.1126 19.13 17.4978 18.177 17.8222 17.2038C18.471 15.2675 18.8664 13.2501 19.0793 11.2428C19.5051 7.23837 19.201 3.2745 18.6637 0C18.6637 0 18.6637 0.010131 18.6637 0.0405443C18.6637 0.0709576 18.6637 0.111519 18.6637 0.162208C18.6637 0.273724 18.6637 0.425776 18.6434 0.638669C18.6231 1.04418 18.5927 1.64232 18.5319 2.3621C18.4102 3.81181 18.1771 5.78866 17.7006 7.90745C17.2748 10.0262 16.5753 12.2769 15.8758 14.2334C15.1763 16.1799 14.4666 17.8222 14.0712 18.7549C13.7468 19.4949 13.3717 20.5087 12.8446 21.7861C12.581 22.4248 12.2667 23.1243 11.9018 23.8745C11.5368 24.6348 11.1212 25.456 10.6244 26.3177C9.6309 28.0411 8.3434 29.9875 6.63012 32.1367C5.7684 33.2215 4.79516 34.2961 3.70028 35.4417C2.6054 36.5872 1.3686 37.7734 0 39C1.55108 37.9964 3.04134 36.9623 4.47076 35.908L4.4302 35.8877Z" fill="#959636"/>
</svg>
