<svg width="8" height="17" viewBox="0 0 8 17" fill="none" xmlns="http://www.w3.org/2000/svg">
<path d="M0.211422 16.5242C0.370004 16.5242 0.560322 16.4608 0.761192 16.3656C0.962061 16.2705 1.16293 16.1436 1.35323 16.0062C1.74439 15.7207 2.09327 15.3718 2.41043 15.0018C2.56902 14.8221 2.71702 14.6318 2.86503 14.4415C2.89674 14.3886 2.93904 14.3463 2.97075 14.304C3.00247 14.2617 3.03418 14.2089 3.0659 14.1666C3.12933 14.0714 3.1822 13.9763 3.23506 13.8917C3.4465 13.5111 3.60508 13.1305 3.76366 12.7499C3.92224 12.3693 4.0808 11.9782 4.2711 11.587C4.31339 11.4919 4.37684 11.3862 4.41913 11.291C4.47199 11.1853 4.52485 11.0901 4.58828 10.995C4.70458 10.7941 4.83145 10.5932 4.95831 10.4029C5.21204 10.0118 5.48689 9.62062 5.71947 9.24003C5.83576 9.04973 5.95209 8.85942 6.04724 8.66913C6.14238 8.47883 6.22695 8.28853 6.30096 8.10881C6.56526 7.37933 6.55467 6.71329 6.64982 6.0261C6.69211 5.67722 6.77669 5.31778 6.91412 4.94776C7.05156 4.57774 7.22072 4.20771 7.3793 3.84826C7.53788 3.4888 7.68589 3.11877 7.78104 2.78046C7.8339 2.61131 7.85506 2.44215 7.86564 2.27299C7.87621 2.11441 7.86564 1.95585 7.86564 1.79727C7.81278 1.18409 7.61188 0.634325 7.6436 0C7.6436 0.623753 7.86563 1.16294 7.92907 1.76555C7.95021 1.91356 7.96077 2.07212 7.9502 2.24128C7.9502 2.41043 7.91847 2.5796 7.87619 2.74875C7.79161 3.09763 7.65417 3.46764 7.50616 3.82709C7.35815 4.18654 7.19959 4.55656 7.07273 4.91601C6.94586 5.27547 6.88243 5.61378 6.84014 5.95209C6.80843 6.2904 6.79785 6.61812 6.76613 6.967C6.75556 7.13616 6.73442 7.31588 6.7027 7.49561C6.67098 7.67533 6.62868 7.86563 6.55468 8.05593C6.29037 8.82769 5.74063 9.64175 5.24375 10.4135C5.11688 10.6038 5.00057 10.7941 4.89485 10.9844C4.84199 11.0796 4.78915 11.1747 4.74686 11.2698C4.70457 11.365 4.6517 11.4602 4.60941 11.5553C4.42969 11.9359 4.29225 12.3165 4.14424 12.6971C3.99623 13.0777 3.84823 13.4688 3.62622 13.8812C3.57336 13.9869 3.50991 14.0926 3.44648 14.1983C3.41476 14.2512 3.38304 14.3041 3.34075 14.3569C3.30904 14.4098 3.26677 14.4626 3.23506 14.5155C3.08705 14.7164 2.93904 14.9172 2.76988 15.1181C2.43158 15.5198 2.05096 15.9216 1.59636 16.2705C1.36378 16.4396 1.12063 16.6087 0.845754 16.7462C0.57088 16.8836 0.274874 16.9788 0 16.9999C0.0740046 16.8519 0.148 16.7039 0.222005 16.5665L0.211422 16.5242Z" fill="#EAE65D"/>
</svg>
