<svg width="64" height="15" viewBox="0 0 64 15" fill="none" xmlns="http://www.w3.org/2000/svg">
<path d="M3.95031 9.27529C4.43267 9.00396 4.56332 8.37087 4.75425 7.85836C4.94519 7.33581 5.11603 6.68263 5.60843 6.33092C6.23147 5.87871 7.11576 6.25051 7.74886 5.78826C8.22116 5.43654 8.34177 4.72306 8.86432 4.44169C9.38687 4.15026 10.0501 4.43164 10.643 4.3211C11.2258 4.21056 11.6479 3.7483 12.0097 3.32624C12.6026 2.6429 13.2658 2.36153 14.1903 2.37158C14.8435 2.37158 15.4565 2.60271 16.0795 2.37158C16.3911 2.26104 16.6021 2.02991 16.8634 1.83898C17.6773 1.23604 18.632 1.07524 19.6269 1.18578C20.7222 1.30637 21.8176 1.75859 22.9129 1.47721C23.5862 1.30638 24.169 0.874262 24.8323 0.683329C25.3347 0.542642 25.8673 0.542643 26.3899 0.542643C27.847 0.542643 29.3142 0.542653 30.7713 0.552702C33.3036 0.552702 35.8662 0.572796 38.3282 1.14559C39.3934 1.38677 40.4586 1.73848 41.5439 1.63799C42.3277 1.5576 43.0714 1.25613 43.8552 1.23603C44.7294 1.21593 45.5535 1.55761 46.3574 1.86913C47.8949 2.47207 49.4626 3.00467 51.0403 3.48703C51.7939 3.71816 52.5878 3.89904 53.3917 3.95934C54.1957 4.02968 54.8991 4.11005 55.6427 4.49192C55.9442 4.64266 56.8587 5.49684 57.0396 5.82846C57.1501 6.03949 57.2807 6.25053 57.4315 6.43141C57.8435 6.96401 58.4565 7.32577 59.0092 7.70763C59.2704 7.88852 59.5217 8.11966 59.7126 8.38093C60.3457 9.24515 61.23 9.89833 62.2148 10.3405C62.4459 10.441 62.6771 10.5716 62.8781 10.7224C63.4408 11.1243 63.8729 11.7675 63.9734 12.4206C64.104 11.5765 63.7322 10.1998 63.0087 9.6873C62.7977 9.53657 62.4359 9.21499 62.2048 9.1145C61.2199 8.67234 60.3457 8.69244 59.7126 7.82822C59.5217 7.56694 59.2704 7.33583 59.0092 7.15495C58.4565 6.77308 57.8435 6.4113 57.4315 5.8787C57.2908 5.69781 57.1501 5.48678 57.0396 5.27575C56.8687 4.94413 55.9542 4.10002 55.6427 3.93923C54.8991 3.55737 54.1957 3.47698 53.3917 3.40663C52.5979 3.33629 51.804 3.15541 51.0403 2.93433C49.4525 2.46202 47.8949 1.92941 46.3574 1.32647C45.5535 1.01495 44.7194 0.67329 43.8552 0.693388C43.0714 0.713486 42.3277 1.01495 41.5439 1.09534C40.4586 1.19584 39.3833 0.854162 38.3282 0.602935C35.8662 0.030138 33.3036 0.0200926 30.7713 0.0100435C29.3142 0.0100435 27.847 0.0100491 26.3899 0C25.8673 0 25.3347 -6.13945e-07 24.8323 0.140686C24.159 0.331619 23.5862 0.763722 22.9129 0.934556C21.8075 1.21593 20.7122 0.763729 19.6269 0.64314C18.632 0.5326 17.6773 0.693379 16.8634 1.29632C16.6121 1.48726 16.3911 1.70834 16.0795 1.81888C15.4565 2.05001 14.8435 1.81888 14.1903 1.81888C13.2758 1.80883 12.6126 2.09021 12.0097 2.76349C11.6379 3.18555 11.2258 3.6478 10.643 3.75834C10.0501 3.86888 9.38687 3.59757 8.86432 3.87894C8.34177 4.16031 8.23121 4.87379 7.74886 5.22551C7.11576 5.68777 6.23147 5.31596 5.60843 5.76817C5.11603 6.11989 4.95523 6.77307 4.75425 7.29562C4.56332 7.79807 3.43782 8.15984 2.95546 8.43117C0.754716 9.6471 -1.33549 11.7172 1.07629 14.0988C1.19688 12.7723 2.041 10.3304 3.96037 9.26523L3.95031 9.27529Z" fill="#B67976"/>
</svg>
