<svg width="72" height="16" viewBox="0 0 72 16" fill="none" xmlns="http://www.w3.org/2000/svg">
<mask id="mask0_390_19156" style="mask-type:luminance" maskUnits="userSpaceOnUse" x="-27" y="0" width="99" height="94">
<path d="M17.0472 0.0100721C14.2377 1.70182 10.3406 4.35021 6.25224 8.2372C2.52637 11.7818 0.230427 14.8431 -3.26384 19.5457C-5.9223 23.1306 -9.35616 28.0448 -13.0317 34.1975C-13.5755 33.0394 -15.1464 30.089 -18.4291 28.8C-19.4261 28.4073 -20.7553 27.8836 -22.155 28.367C-24.3201 29.1222 -25.1659 31.7908 -25.9212 34.1975C-26.6462 36.4834 -26.757 38.3664 -26.7771 39.0008C-26.9483 43.3208 -25.5486 46.5835 -24.8941 48.0839C-24.0985 49.8965 -22.4169 53.5922 -18.7212 55.9687C-16.3044 57.5295 -14.9248 57.2979 -14.4314 57.167C-13.2029 56.8548 -12.4073 55.9687 -12.0348 55.4551C-11.4708 57.0764 -10.6451 59.2716 -9.46692 61.7992C-8.72174 63.3902 -6.52651 67.9418 -2.26693 73.7924C-0.363709 76.4106 2.83854 80.8112 6.47378 84.0738C7.40021 84.8996 20.8134 96.5706 36.9857 93.1569C48.8178 90.6596 55.3935 81.5261 59.6128 75.6755C67.7694 64.3468 69.3101 52.8168 71.0925 39.5144C72.6433 27.9743 71.8176 20.593 71.4349 17.7432C70.4984 10.7748 68.6959 5.10546 67.1451 1.11776C50.4491 0.745175 33.7532 0.372587 17.0573 0L17.0472 0.0100721Z" fill="white"/>
</mask>
<g mask="url(#mask0_390_19156)">
<path d="M16.9678 -0.0704815L0 14.4504C10.362 12.7485 22.9897 11.4797 37.3695 11.7516C51.1251 12.0134 63.2089 13.6146 73.1882 15.5782L64.9611 -4.01789L16.9678 -0.0805498V-0.0704815Z" fill="#C0863C"/>
</g>
</svg>
