<svg width="66" height="24" viewBox="0 0 66 24" fill="none" xmlns="http://www.w3.org/2000/svg">
<path d="M0 22.7114C0 22.7114 -9.84357e-06 22.661 0.242039 22.5904C0.474002 22.5198 0.937946 22.4088 1.83554 22.2979C2.72305 22.187 4.05431 22.076 6.01086 21.9954C6.50505 21.9752 7.0295 21.955 7.60437 21.9348C8.17923 21.9146 8.79444 21.8844 9.46007 21.8541C10.7913 21.8037 12.3041 21.7634 14.0287 21.7331C14.0287 21.7331 14.0792 21.7331 14.18 21.7331C14.2809 21.7331 14.4221 21.7331 14.5935 21.7129C14.9364 21.6827 15.4104 21.6423 15.9248 21.5919C16.9434 21.481 18.1133 21.2994 18.7083 21.0574C18.9605 20.9465 19.5454 20.7952 20.2312 20.6741C20.5741 20.6136 20.9473 20.5531 21.3204 20.5027C21.6936 20.4523 22.0567 20.4019 22.3996 20.3817C23.3173 20.3212 24.2351 20.1598 25.0218 19.948C25.8689 19.7059 27.0086 19.3933 28.3802 18.9798C29.7417 18.5562 31.3251 18.0419 33.0598 17.467C34.7945 16.9022 36.6704 16.1963 38.637 15.46C39.6153 15.0869 40.6238 14.7137 41.6324 14.3002C42.6409 13.8766 43.6696 13.453 44.6882 13.0093C45.7169 12.5655 46.7355 12.1117 47.7642 11.6377C48.7829 11.1536 49.7914 10.6493 50.7898 10.1451C51.7883 9.64079 52.7666 9.11634 53.7247 8.5919C54.6828 8.06746 55.6107 7.50268 56.5083 6.94798C57.4059 6.39329 58.2732 5.82849 59.0901 5.26371C59.5036 4.98132 59.907 4.69896 60.2903 4.40648C60.6735 4.11401 61.0567 3.82151 61.4198 3.52903C62.8721 2.35913 64.1328 1.17915 65.1212 0.00925224C65.101 -0.0613453 65.7263 0.271481 65.9381 1.02788C66.1398 1.78429 65.9381 2.97435 64.1832 4.61827C63.7495 5.03177 63.2251 5.48561 62.5998 5.9697C62.2872 6.21175 61.9443 6.47398 61.5711 6.7362C61.1979 6.99842 60.8046 7.28081 60.3709 7.55311C59.5036 8.10781 58.5253 8.69276 57.3958 9.31805C56.831 9.6307 56.236 9.95343 55.6006 10.2963C55.2879 10.4678 54.9551 10.6392 54.6223 10.8006C54.2794 10.962 53.9365 11.1334 53.5835 11.3049C52.1514 11.9806 50.568 12.7067 48.803 13.4631C48.3593 13.6547 47.9055 13.8363 47.4415 14.0279C46.9776 14.2094 46.4935 14.4011 46.0094 14.5927C45.0311 14.9759 44.0125 15.3592 42.9434 15.7626C42.4089 15.9643 41.8643 16.1761 41.2995 16.3576C40.7347 16.5492 40.1599 16.7409 39.5749 16.9426C38.405 17.3359 37.1746 17.7393 35.9039 18.1629C35.5811 18.2638 35.2584 18.3747 34.9357 18.4755C34.6129 18.5764 34.2801 18.6672 33.9473 18.768C33.2817 18.9596 32.5959 19.1614 31.9 19.3732C31.2041 19.5749 30.4981 19.7766 29.772 19.9883C29.0458 20.1901 28.3096 20.4119 27.5633 20.6036C26.6052 20.8658 25.7277 21.1482 24.9512 21.4709C24.4066 21.6928 23.5796 21.9651 22.4097 22.2071C22.1172 22.2676 21.8046 22.3281 21.4717 22.3786C21.1389 22.429 20.7758 22.4693 20.4027 22.5097C19.6463 22.5904 18.789 22.6509 17.8511 22.6711C17.135 22.6912 16.4089 22.7215 15.6827 22.7618C15.3196 22.782 14.9465 22.8022 14.5834 22.8223C14.2203 22.8425 13.8573 22.8526 13.4942 22.8728C12.052 22.9535 10.6501 23.0442 9.43988 23.1451C8.83476 23.1955 8.26997 23.2459 7.76571 23.2863C7.26144 23.3266 6.8177 23.3568 6.45462 23.3871C5.71839 23.4476 5.29481 23.4779 5.29481 23.4779C5.29481 23.4779 4.11482 23.5586 2.86424 23.4981C2.23895 23.4678 1.59349 23.4073 1.07914 23.2963C0.564787 23.1753 0.161364 22.9837 0.0302548 22.7215L0 22.7114Z" fill="#959636"/>
</svg>
