<svg width="34" height="12" viewBox="0 0 34 12" fill="none" xmlns="http://www.w3.org/2000/svg">
<path d="M0.922983 9.80152C0.983176 10.0022 1.13366 10.1527 1.36441 10.2329C1.58512 10.3132 1.87603 10.3433 2.18703 10.3232C2.81906 10.2931 3.54139 10.1225 4.26372 9.89181C4.62488 9.78145 4.99608 9.65106 5.36727 9.51061C5.45756 9.48051 5.54784 9.44037 5.63813 9.41028C5.72842 9.37015 5.80869 9.34004 5.89898 9.29991C6.07956 9.21965 6.26014 9.13939 6.43069 9.0491C7.15301 8.67791 7.87535 8.24653 8.60771 7.8352C9.3501 7.42388 10.0925 7.02259 10.8449 6.6815C11.0355 6.59121 11.2261 6.52099 11.4067 6.44073C11.5973 6.37051 11.7879 6.29023 11.9785 6.23003C12.3598 6.09961 12.7309 5.9993 13.0921 5.89898C13.8245 5.70837 14.5368 5.55787 15.239 5.38733C15.5902 5.29704 15.9413 5.20675 16.2924 5.10642C16.6435 5.0061 16.9947 4.88571 17.3358 4.75529C18.7202 4.22358 20.0646 3.43103 21.459 2.84916C22.1513 2.55823 22.8736 2.31747 23.5959 2.17702C24.3082 2.02653 25.0105 1.94625 25.7127 1.86599C26.415 1.78573 27.1072 1.71552 27.8095 1.59513C28.1606 1.53493 28.5017 1.46471 28.8528 1.37442C29.1939 1.28413 29.5451 1.18379 29.8861 1.08347C31.2505 0.672149 32.5848 0.180581 33.9994 0C32.5848 0.200645 31.2706 0.712285 29.9062 1.15371C29.5651 1.26406 29.224 1.37441 28.8729 1.4647C28.5218 1.55499 28.1706 1.64531 27.8195 1.7055C27.1072 1.84595 26.4049 1.92619 25.7027 2.02651C25.0004 2.1168 24.2982 2.21713 23.6059 2.37764C22.9137 2.52813 22.2215 2.77895 21.5393 3.07992C20.8571 3.38088 20.1849 3.73201 19.5027 4.08314C19.1616 4.25369 18.8105 4.43426 18.4594 4.60481C18.1082 4.77536 17.7471 4.93589 17.3859 5.08637C15.9212 5.67827 14.4565 5.95918 13.0219 6.3705C12.6607 6.47082 12.3096 6.58117 11.9484 6.71159C11.7679 6.77179 11.5973 6.842 11.4167 6.92226C11.2362 7.00252 11.0556 7.07274 10.875 7.16303C10.1527 7.50412 9.44037 7.90542 8.71805 8.32677C7.99572 8.74813 7.26336 9.20962 6.48084 9.62095C6.29023 9.72127 6.08958 9.82158 5.88894 9.9219C5.78862 9.97206 5.68831 10.0122 5.58798 10.0624C5.48766 10.1125 5.38732 10.1527 5.287 10.1828C4.89574 10.3433 4.5045 10.4938 4.11324 10.6242C3.33072 10.885 2.52812 11.1157 1.7757 11.1759C1.39447 11.206 1.0233 11.196 0.702271 11.0957C0.381239 10.9954 0.110355 10.7947 0 10.4436C0.300968 10.243 0.60193 10.0323 0.902898 9.83162L0.922983 9.80152Z" fill="#F0BB46"/>
</svg>
