<svg width="72" height="12" viewBox="0 0 72 12" fill="none" xmlns="http://www.w3.org/2000/svg">
<path d="M0.020236 11.5308C0.131595 10.2856 0.840256 9.09098 2.05509 7.97739C7.00552 3.44202 20.3281 0.202468 35.9994 0.202468C51.6707 0.202468 64.9934 3.45215 69.9438 7.97739C71.0068 8.95937 71.685 9.99197 71.9179 11.0651C71.9685 11.2979 71.9989 11.5308 71.9989 11.7636C71.9989 11.7332 71.9989 11.7028 71.9989 11.6624C71.9989 11.389 71.9685 11.1258 71.9179 10.8626C71.6952 9.78951 71.0169 8.74676 69.9438 7.7749C64.9934 3.23954 51.6707 0 35.9994 0C20.3281 0 7.00552 3.24966 2.05509 7.7749C0.840256 8.8885 0.131595 10.0831 0.020236 11.3283C0.0101125 11.4396 3.58914e-10 11.5611 3.58914e-10 11.6725C3.58914e-10 11.7029 3.58914e-10 11.7434 3.58914e-10 11.7737C3.58914e-10 11.6927 -2.10082e-05 11.6118 0.0101026 11.5308H0.020236Z" fill="#743418"/>
</svg>
