<svg width="25" height="30" viewBox="0 0 25 30" fill="none" xmlns="http://www.w3.org/2000/svg">
<path d="M23.1591 5.67619C21.6731 5.67617 20.2001 5.94942 18.8159 6.48187C16.8632 2.49374 12.9182 0.51176 12.7382 0.423135C12.5866 0.348453 12.4195 0.30957 12.25 0.30957C12.0805 0.30957 11.9134 0.348453 11.7618 0.423135C11.5805 0.51176 7.63682 2.49374 5.68409 6.48187C4.29992 5.94942 2.82695 5.67617 1.34091 5.67619C1.05158 5.67619 0.774105 5.78937 0.56952 5.99083C0.364935 6.19229 0.25 6.46553 0.25 6.75044V17.4929C0.25 20.6269 1.51428 23.6325 3.76472 25.8485C6.01516 28.0646 9.0674 29.3096 12.25 29.3096C15.4326 29.3096 18.4848 28.0646 20.7353 25.8485C22.9857 23.6325 24.25 20.6269 24.25 17.4929V6.75044C24.25 6.46553 24.1351 6.19229 23.9305 5.99083C23.7259 5.78937 23.4484 5.67619 23.1591 5.67619ZM11.1591 27.102C8.76003 26.8349 6.54465 25.7079 4.93516 23.9358C3.32567 22.1637 2.43462 19.8703 2.43182 17.4929V15.4035C4.83087 15.6706 7.04626 16.7976 8.65575 18.5697C10.2652 20.3418 11.1563 22.6351 11.1591 25.0126V27.102ZM11.1591 18.2261C10.1587 16.8219 8.85977 15.6491 7.35268 14.789C5.84559 13.9289 4.16642 13.4023 2.43182 13.2456V7.88376C4.83087 8.15086 7.04626 9.27786 8.65575 11.05C10.2652 12.8221 11.1563 15.1154 11.1591 17.4929V18.2261ZM7.63409 7.43661C8.89136 4.85708 11.2355 3.2296 12.25 2.61594C13.2645 3.23094 15.6086 4.85842 16.8645 7.43661C14.8478 8.66563 13.243 10.4519 12.25 12.5728C11.257 10.4516 9.65155 8.66518 7.63409 7.43661ZM22.0682 17.4929C22.0654 19.8703 21.1743 22.1637 19.5648 23.9358C17.9554 25.7079 15.74 26.8349 13.3409 27.102V25.0126C13.3437 22.6351 14.2348 20.3418 15.8443 18.5697C17.4537 16.7976 19.6691 15.6706 22.0682 15.4035V17.4929ZM22.0682 13.2456C20.3336 13.4023 18.6544 13.9289 17.1473 14.789C15.6402 15.6491 14.3413 16.8219 13.3409 18.2261V17.4929C13.3437 15.1154 14.2348 12.8221 15.8443 11.05C17.4537 9.27786 19.6691 8.15086 22.0682 7.88376V13.2456Z" fill="#6D9127"/>
</svg>
