<svg width="37" height="20" viewBox="0 0 37 20" fill="none" xmlns="http://www.w3.org/2000/svg">
<path d="M0.210904 18.8717C1.25543 18.6507 2.30999 18.4699 3.31433 18.3293C3.81651 18.259 4.28854 18.2088 4.75054 18.1486C5.21254 18.0883 5.67456 18.018 6.1466 17.9377C6.61864 17.8473 7.10071 17.7569 7.57276 17.6564C8.0448 17.556 8.52689 17.4455 8.98889 17.315C9.45089 17.1844 9.91291 17.0538 10.3548 16.9132C10.7967 16.7626 11.2286 16.6119 11.6705 16.4412C12.1124 16.2704 12.5644 16.1097 13.0163 15.949C13.4683 15.7883 13.9202 15.6477 14.3622 15.5071C15.246 15.2159 16.1198 14.9346 17.0036 14.6936C17.4455 14.5731 17.8774 14.4626 18.2992 14.3622C18.721 14.2618 19.1328 14.1513 19.5345 14.0307C20.3481 13.7796 21.1415 13.4382 21.9048 13.0766C22.2865 12.8958 22.6581 12.6949 23.0196 12.484C23.3711 12.2731 23.7126 12.0522 24.0441 11.8212C24.3755 11.5902 24.6869 11.3391 25.0183 11.0981C25.3397 10.847 25.6812 10.5959 26.0226 10.3448C26.1934 10.2243 26.3641 10.0937 26.5348 9.97316C26.7056 9.85264 26.8763 9.73213 27.0471 9.61161C27.3885 9.37057 27.7401 9.12952 28.0815 8.88848C28.4331 8.64744 28.7846 8.4064 29.1461 8.1754C29.5077 7.9444 29.8693 7.72342 30.2208 7.49242C30.5723 7.26142 30.9238 7.01035 31.2653 6.74922C31.6068 6.48808 31.9282 6.20688 32.2496 5.91562C32.8823 5.3331 33.4849 4.7104 34.0172 4.05757C34.2884 3.73618 34.5395 3.40476 34.7705 3.06328C35.0015 2.7218 35.2325 2.39036 35.4635 2.04888C35.9355 1.36592 36.4578 0.682956 37.0002 0C36.4679 0.682956 35.9556 1.37597 35.4936 2.05893C35.2626 2.40041 35.0417 2.73182 34.8207 3.0733C34.5897 3.41478 34.3487 3.74621 34.0775 4.07765C33.5452 4.74052 32.9526 5.37327 32.3098 5.97588C31.9884 6.27718 31.6671 6.56843 31.3256 6.8396C30.9841 7.11078 30.6326 7.37193 30.271 7.61297C29.9094 7.84397 29.5579 8.07497 29.2064 8.30597C28.8549 8.53697 28.5134 8.778 28.1719 9.009C27.8305 9.25004 27.499 9.49109 27.1575 9.73213C26.9868 9.85265 26.8161 9.97319 26.6554 10.0937C26.4846 10.2142 26.3239 10.3347 26.1632 10.4553C25.8318 10.6963 25.5205 10.9474 25.1991 11.1985C24.8877 11.4496 24.5764 11.7007 24.2349 11.9417C23.9034 12.1827 23.5419 12.4238 23.1803 12.6447C22.8087 12.8657 22.4271 13.0766 22.0354 13.2674C21.252 13.6591 20.4284 14.0107 19.5647 14.2919C19.1328 14.4224 18.7009 14.543 18.2791 14.6434C17.8573 14.7539 17.4355 14.8543 17.0237 14.9748C16.1901 15.2159 15.3364 15.4971 14.4626 15.7783C14.0307 15.9289 13.5989 16.0595 13.177 16.2102C12.7552 16.3608 12.3334 16.5215 11.8915 16.6922C11.4596 16.863 10.9976 17.0337 10.5155 17.1944C10.0334 17.3551 9.5413 17.5058 9.03913 17.6464C8.78804 17.7167 8.53695 17.787 8.28587 17.8473C8.03478 17.9075 7.78368 17.9678 7.52255 18.028C7.01033 18.1385 6.49811 18.249 5.97585 18.3494C5.45359 18.4398 4.93135 18.5302 4.42918 18.6005C3.91696 18.6708 3.44489 18.7311 2.96281 18.8014C2.72176 18.8315 2.49076 18.8717 2.23968 18.9119C1.99863 18.9521 1.75761 18.9922 1.50652 19.0324C1.01439 19.1228 0.512217 19.2232 0 19.3337C0.0602608 19.183 0.120514 19.0324 0.180775 18.8817L0.210904 18.8717Z" fill="#EAE65D"/>
</svg>
