<svg width="43" height="27" viewBox="0 0 43 27" fill="none" xmlns="http://www.w3.org/2000/svg">
<path d="M42.5695 0C40.6258 1.63148 37.5542 4.06862 33.546 6.68704C24.9858 12.2764 20.2122 13.4345 11.6923 18.6411C8.81199 20.4035 4.69301 23.1227 0 27C2.08467 24.6333 4.65273 22.0652 7.75455 19.5475C13.5956 14.7941 19.3461 11.803 23.8881 9.90971C21.5214 9.809 19.5274 9.7788 18.047 9.7788C13.0317 9.7788 11.4707 10.0406 10.1816 10.3931C8.56022 10.8362 7.2913 11.4203 6.48563 11.8332C7.57328 10.7456 9.0839 9.53709 11.0578 8.62064C17.7448 5.53896 24.4117 8.32859 25.9224 9.00334C28.0372 7.67399 30.283 6.33456 32.6597 5.01528C36.0939 3.11189 39.4072 1.4502 42.5695 0Z" fill="#70BB5E"/>
</svg>
