<svg width="60" height="11" viewBox="0 0 60 11" fill="none" xmlns="http://www.w3.org/2000/svg">
<path d="M0.199227 1.08024C0.199227 1.08024 -0.368095 0.360943 0.41196 0.077286C0.57405 0.0266331 2.77239 -0.0442588 6.04457 0.0367859C6.44979 0.0469165 6.87528 0.0570248 7.32103 0.077286C7.75665 0.0874166 8.21252 0.0975558 8.67852 0.117817C9.61054 0.138078 10.5932 0.178596 11.6164 0.239379C12.6396 0.290032 13.6932 0.360959 14.767 0.442003C15.8408 0.512917 16.9451 0.583833 18.0493 0.664877C20.2679 0.847228 22.5068 1.10049 24.6747 1.32336C25.7587 1.44493 26.8224 1.5665 27.8557 1.70833C28.8891 1.84002 29.8818 1.99198 30.8442 2.11354C32.7589 2.37694 34.5014 2.65046 35.9703 2.90373C36.335 2.96451 36.6896 3.02529 37.0239 3.08607C37.3582 3.13673 37.6723 3.18737 37.966 3.23802C38.5536 3.3292 39.0703 3.42038 39.4958 3.49129C40.367 3.64325 41.2281 3.84588 42.0183 4.07888C42.3627 4.18019 42.7578 4.30174 43.1934 4.44357C43.4163 4.51448 43.6493 4.58542 43.8823 4.65633C44.1255 4.72725 44.3686 4.79816 44.6219 4.87921C45.645 5.17299 46.7594 5.52755 47.8434 5.88212C48.9273 6.2367 49.9809 6.61153 50.8826 6.92557C51.7842 7.23962 52.5237 7.50301 52.9897 7.67523C54.1649 8.1311 55.3198 8.56673 56.4747 9.01247C56.7684 9.12391 57.0521 9.23533 57.3459 9.34677C57.6397 9.45821 57.9334 9.55952 58.2272 9.67096C58.8148 9.89383 59.4024 10.1167 60.0001 10.3598C60.0001 10.3598 59.9495 10.3599 59.838 10.3193C59.7367 10.2889 59.5848 10.2484 59.3923 10.1876C58.9972 10.0762 58.4298 9.90396 57.7207 9.70135C57.5383 9.65069 57.356 9.60004 57.1635 9.53925C56.971 9.47847 56.7684 9.41769 56.5557 9.35691C56.1403 9.23534 55.6845 9.09353 55.1982 8.96183C54.2358 8.67818 53.1721 8.38438 52.0172 8.10073C51.4398 7.94877 50.8522 7.80694 50.2443 7.65498C49.6365 7.49289 49.0185 7.34093 48.3904 7.17884C47.1342 6.86479 45.8274 6.571 44.5205 6.28734C44.1964 6.21643 43.8621 6.14552 43.5379 6.07461C43.2137 6.00369 42.8895 5.92265 42.5653 5.85173C41.917 5.70991 41.2686 5.56807 40.6304 5.43638C39.3539 5.17298 38.1079 4.92985 36.9429 4.70697C35.7677 4.51449 34.3393 4.2511 32.7184 3.98771C31.908 3.85601 31.057 3.7243 30.1655 3.5926C29.7198 3.53182 29.2639 3.46091 28.808 3.37987C28.3521 3.30895 27.876 3.23805 27.3999 3.16713C26.4476 3.02531 25.4649 2.89358 24.4721 2.76189C23.4793 2.63019 22.4561 2.5289 21.4431 2.3972C19.4068 2.14393 17.3402 1.95145 15.3242 1.78936C13.3183 1.61714 11.3631 1.47532 9.57002 1.38414C8.6684 1.33349 7.8073 1.31321 7.00698 1.27269C6.19654 1.23217 5.43674 1.20178 4.73773 1.18152C3.33971 1.13086 2.20508 1.12075 1.41489 1.10049C1.0198 1.10049 0.71589 1.09037 0.503147 1.08024C0.290405 1.08024 0.189086 1.07009 0.189086 1.05995L0.199227 1.08024Z" fill="#D5D23F"/>
</svg>
