<svg width="20" height="20" viewBox="0 0 20 20" fill="none" xmlns="http://www.w3.org/2000/svg">
<path d="M1.11313 19.4582C1.43879 19.2038 1.72375 18.9698 2.0087 18.7357C2.29366 18.5016 2.58879 18.2879 2.90428 18.0538C3.54542 17.606 4.22728 17.1583 4.91931 16.7206C5.26533 16.5069 5.61132 16.2932 5.97769 16.0795C6.33388 15.876 6.71043 15.6724 7.09716 15.4587C7.4737 15.2552 7.85026 15.0313 8.19628 14.8176C8.54229 14.5937 8.84759 14.3698 9.14272 14.1561C9.71263 13.7083 10.2316 13.2605 10.6489 12.8127C10.8524 12.5888 11.0254 12.3548 11.1781 12.1309C11.3308 11.907 11.4732 11.6933 11.636 11.4795C11.9617 11.0521 12.3688 10.6145 12.7759 10.1871C12.9794 9.97338 13.2033 9.75966 13.417 9.55613C13.6409 9.35259 13.875 9.14904 14.1192 8.94551C14.3635 8.74197 14.6179 8.53842 14.8621 8.33489C15.1064 8.13135 15.3201 7.90745 15.5236 7.69374C15.6254 7.58179 15.717 7.48001 15.8086 7.36807C15.9002 7.25612 15.9816 7.15438 16.063 7.04243C16.2258 6.82872 16.3785 6.6048 16.5108 6.38091C16.6431 6.15702 16.7551 5.94331 16.8466 5.71941C16.9382 5.49552 16.9993 5.28182 17.0604 5.06811C17.1214 4.85439 17.1927 4.64067 17.2842 4.42696C17.3758 4.21324 17.4776 3.99952 17.5895 3.78581C17.8134 3.35838 18.0679 2.93095 18.3528 2.5137C18.4953 2.29998 18.6581 2.09643 18.8209 1.89289C18.9838 1.68935 19.1568 1.48583 19.3094 1.27211C19.6147 0.85486 19.8285 0.42743 20.0015 0C19.8183 0.42743 19.5842 0.844673 19.2789 1.26193C19.1263 1.46546 18.9533 1.66902 18.7803 1.88273C18.6072 2.08627 18.4444 2.29997 18.2917 2.50351C17.9864 2.92076 17.7219 3.35838 17.4776 3.78581C17.3555 3.99952 17.2435 4.2234 17.1418 4.43711C17.04 4.65083 16.9586 4.87474 16.8873 5.08845C16.8161 5.30217 16.7449 5.51589 16.6533 5.7296C16.5617 5.94332 16.4396 6.15704 16.3073 6.37075C16.1648 6.58447 16.0121 6.79819 15.8391 7.0119C15.7577 7.11367 15.6661 7.22561 15.5745 7.32738C15.4829 7.42915 15.3913 7.5411 15.2896 7.64286C15.086 7.85658 14.8723 8.06009 14.6281 8.25345C14.3838 8.45699 14.1294 8.65038 13.875 8.85392C13.6206 9.05746 13.3661 9.27117 13.1321 9.48488C12.898 9.6986 12.6639 9.91229 12.4502 10.1362C12.0126 10.5738 11.575 11.0114 11.2086 11.4694C11.0254 11.6933 10.8626 11.9273 10.6998 12.141C10.537 12.3649 10.364 12.5787 10.1604 12.7924C9.75334 13.2198 9.23431 13.6472 8.66441 14.0746C8.36928 14.2884 8.07414 14.5021 7.73831 14.7056C7.41264 14.9092 7.05644 15.1127 6.6799 15.3162C6.30335 15.5198 5.89628 15.7335 5.50956 15.9472C5.11266 16.1711 4.73611 16.395 4.35957 16.6291C3.61665 17.0768 2.88392 17.545 2.17154 18.0233C1.82552 18.2675 1.47952 18.5118 1.16403 18.756C0.84855 19.0003 0.54323 19.2445 0.227746 19.4786C-0.423576 19.9467 0.461829 19.9569 1.1335 19.4582H1.11313Z" fill="#EAE65D"/>
</svg>
