<svg width="64" height="83" viewBox="0 0 64 83" fill="none" xmlns="http://www.w3.org/2000/svg">
<path d="M0.341427 53.7995C-0.0298512 56.2781 -0.310822 60.2317 0.682598 64.8977C1.22446 67.4365 2.13761 71.5105 5.2985 75.6548C8.44934 79.8091 12.2625 81.9665 14.5202 83.0001C16.1157 80.953 17.7112 78.8959 19.3067 76.8489C19.5174 76.1264 19.8486 75.133 20.3302 73.989C20.5911 73.3669 21.5545 71.1392 22.8891 69.3731C24.4846 67.2759 25.7991 66.9046 28.3579 65.0181C28.3579 65.0181 31.3281 62.8206 34.2482 59.3787C35.944 57.3718 38.6433 53.4583 39.7973 46.7352C40.018 46.2937 40.3793 45.6816 40.9914 45.1096C42.3962 43.8051 44.1121 43.6646 45.6876 43.484C50.2633 42.9723 52.5412 42.7214 53.8858 41.8584C54.9896 41.156 56.4044 39.701 57.1269 36.3093C57.3979 36.1788 58.2006 35.7173 58.5819 34.774C59.0235 33.6602 58.6823 32.3156 57.729 31.3623C58.1103 31.3322 59.2041 31.2017 60.1172 30.3387C61.201 29.3152 61.4418 27.7398 61.2311 26.5858C61.0103 25.4017 60.4183 25.2312 59.4349 22.6422C59.1439 21.8796 58.9432 21.2374 59.2342 20.9665C59.4851 20.7257 60.0069 20.8762 60.2979 20.9865C62.0138 20.816 63.4086 19.8326 63.8401 18.4679C64.0809 17.6952 63.9605 16.9828 63.8401 16.5613C60.8698 14.3437 57.8896 12.1361 54.9193 9.91843C55.2705 9.54716 56.1636 8.50358 55.9428 7.35964C55.8124 6.69736 55.3508 6.21569 53.8055 5.22227C51.4173 3.68699 50.5142 3.53647 48.6778 2.40257C46.2194 0.88735 46.5605 0.355516 45.3464 0.0946179C42.8979 -0.437213 39.6969 1.33891 38.9443 3.76727C38.8239 4.14858 38.7838 4.47972 38.7737 4.71052C37.9308 4.65031 36.7568 4.61017 35.362 4.71052C33.3451 4.86103 29.5721 5.1721 25.7991 7.53022C22.3071 9.70772 20.5309 12.5575 19.4773 14.2734C17.9119 16.8523 17.2797 19.0198 16.4469 21.9298C15.3431 25.763 15.9351 26.6862 14.7009 31.0913C14.2493 32.7069 13.7977 33.9311 12.9047 36.3896C12.1721 38.4065 10.9078 41.738 10.1753 43.3034C9.12165 45.5612 6.66319 49.5951 0.351456 53.7694L0.341427 53.7995Z" fill="#F2D4AF"/>
</svg>
