<svg width="7" height="4" viewBox="0 0 7 4" fill="none" xmlns="http://www.w3.org/2000/svg">
<path d="M0.100006 3.59003C1.25001 3.02003 2.40002 2.45 3.55002 1.88C4.13002 1.6 4.7 1.32001 5.28 1.04001C5.57 0.900009 5.85001 0.770005 6.14001 0.630005C6.43001 0.500005 6.72 0.370021 7 0.240021C6.94 0.160021 6.87 0.08 6.81 0C6.52 0.14 6.23 0.280023 5.94 0.430023C5.65 0.580023 5.37002 0.730005 5.08002 0.880005C4.51002 1.18 3.94 1.48 3.37 1.78C2.24 2.38 1.11 2.97001 0 3.57001C0.03 3.58001 0.0599963 3.59001 0.0899963 3.60001L0.100006 3.59003Z" fill="#EDD744"/>
</svg>
