<svg width="53" height="53" viewBox="0 0 53 53" fill="none" xmlns="http://www.w3.org/2000/svg">
<g filter="url(#filter0_d_568_21674)">
<rect x="4" width="45" height="45" rx="22.5" fill="#E9F2DA" shape-rendering="crispEdges"/>
<path d="M26.4997 10.688C19.8685 10.688 14.7266 15.5633 14.7266 22.1453C14.7266 25.5884 16.1334 28.5649 18.4233 30.6202C18.6146 30.7914 18.7324 31.0336 18.7383 31.2934L18.803 33.3959C18.8077 33.5506 18.8502 33.7018 18.9268 33.8361C19.0034 33.9705 19.1117 34.0839 19.2422 34.1664C19.3727 34.2489 19.5214 34.298 19.6753 34.3094C19.8291 34.3208 19.9834 34.294 20.1245 34.2316L22.4615 33.1981C22.6587 33.1095 22.8824 33.0947 23.0914 33.1508C24.1657 33.4461 25.3077 33.6056 26.4997 33.6056C33.1309 33.6056 38.2728 28.7303 38.2728 22.1483C38.2728 15.5663 33.1309 10.688 26.4997 10.688Z" fill="#6D9127"/>
<path d="M19.431 25.4968L22.8894 19.9926C23.0195 19.7854 23.191 19.6075 23.3931 19.4701C23.5952 19.3327 23.8235 19.2389 24.0635 19.1945C24.3036 19.1501 24.5502 19.1561 24.7879 19.2121C25.0255 19.2682 25.249 19.3731 25.4442 19.5201L28.1961 21.5901C28.319 21.6824 28.4685 21.732 28.6219 21.7315C28.7754 21.731 28.9245 21.6803 29.0467 21.5872L32.7612 18.7583C33.2556 18.3803 33.9031 18.9768 33.5735 19.5054L30.1122 25.0066C29.9821 25.2139 29.8106 25.3918 29.6085 25.5292C29.4064 25.6665 29.1781 25.7604 28.9381 25.8048C28.698 25.8492 28.4514 25.8432 28.2137 25.7871C27.9761 25.7311 27.7526 25.6262 27.5574 25.4791L24.8055 23.4091C24.6826 23.3168 24.5331 23.2672 24.3797 23.2677C24.2262 23.2683 24.0771 23.3189 23.9549 23.4121L20.2404 26.241C19.746 26.6189 19.0985 26.0254 19.431 25.4968Z" fill="#E9F2DA"/>
</g>
<defs>
<filter id="filter0_d_568_21674" x="0" y="0" width="53" height="53" filterUnits="userSpaceOnUse" color-interpolation-filters="sRGB">
<feFlood flood-opacity="0" result="BackgroundImageFix"/>
<feColorMatrix in="SourceAlpha" type="matrix" values="0 0 0 0 0 0 0 0 0 0 0 0 0 0 0 0 0 0 127 0" result="hardAlpha"/>
<feOffset dy="4"/>
<feGaussianBlur stdDeviation="2"/>
<feComposite in2="hardAlpha" operator="out"/>
<feColorMatrix type="matrix" values="0 0 0 0 0 0 0 0 0 0 0 0 0 0 0 0 0 0 0.12 0"/>
<feBlend mode="normal" in2="BackgroundImageFix" result="effect1_dropShadow_568_21674"/>
<feBlend mode="normal" in="SourceGraphic" in2="effect1_dropShadow_568_21674" result="shape"/>
</filter>
</defs>
</svg>
