<svg width="13" height="27" viewBox="0 0 13 27" fill="none" xmlns="http://www.w3.org/2000/svg">
<path d="M8.91965 0C8.46764 1.01451 7.90513 2.43081 7.47322 4.17857C6.59933 7.67411 6.68976 10.5569 6.8103 12.0837C6.93083 13.5603 7.21206 15.519 7.94531 17.7589C8.1663 18.3214 8.46763 19.1451 8.75893 20.1596C9.14062 21.4554 9.13059 21.7868 9.08036 22.048C8.84934 23.2935 7.48326 24.0368 7.1317 24.2277C4.25893 25.8047 0.190848 23.615 0 23.5045C0.190848 23.9866 0.582615 24.76 1.37614 25.4732C3.11386 27.0201 5.39397 27 5.99665 27C6.54911 27 9.53238 26.9799 11.1897 24.9609C12.3047 23.5949 12.2243 22.0379 12.1641 20.9632C12.0837 19.4464 11.6016 18.5424 11.029 17.106C10.6674 16.2121 9.6027 13.4397 9.16074 10.6975C8.89958 9.06027 9.11051 9 9.00002 3.13393C8.96989 1.80804 8.93974 0.723214 8.91965 0Z" fill="#DB8536"/>
</svg>
