<svg width="78" height="22" viewBox="0 0 78 22" fill="none" xmlns="http://www.w3.org/2000/svg">
<path d="M0 21.9124C2.25599 21.4774 4.5423 20.9412 6.74771 20.2937C7.85041 19.9903 8.91266 19.6868 9.92431 19.3833C10.9461 19.0798 11.9476 18.7864 12.9593 18.5031C13.4651 18.3615 13.9709 18.2199 14.4767 18.0782C14.9826 17.9467 15.4985 17.8152 16.0044 17.6837C17.016 17.4206 18.0277 17.1576 19.009 16.9047C19.9903 16.6518 20.9513 16.409 21.8821 16.1965C22.8128 15.9841 23.7233 15.802 24.6641 15.5997C25.5948 15.4075 26.5559 15.1849 27.5169 14.9421C28.478 14.6993 29.4391 14.416 30.3901 14.1429C32.3021 13.5966 34.1736 13.0098 36.0553 12.3219C36.5206 12.1499 36.986 11.9679 37.4514 11.7959C37.9167 11.6239 38.372 11.4418 38.8272 11.2698C39.7276 10.9157 40.5976 10.5616 41.4474 10.2379C42.2972 9.90407 43.147 9.60059 43.9765 9.29709C44.3913 9.14534 44.8061 9.0037 45.2209 8.87218C45.6356 8.74067 46.0403 8.60917 46.445 8.47765C47.2543 8.21462 48.0434 7.98192 48.8122 7.75936C49.571 7.5368 50.3095 7.34459 51.0176 7.17261C51.3717 7.09168 51.7258 7.01076 52.0698 6.92983C52.4238 6.85901 52.7779 6.77807 53.132 6.69714C53.8401 6.54539 54.5786 6.35316 55.307 6.15083C55.6712 6.04967 56.0354 5.94851 56.3996 5.83722C56.7638 5.73606 57.128 5.61467 57.4922 5.50339C58.2105 5.27071 58.9389 5.03801 59.6572 4.7851C60.3855 4.5423 61.1139 4.2894 61.8423 4.00614C62.5606 3.72287 63.289 3.42949 63.987 3.14622C64.6851 2.86296 65.3629 2.58981 66.0306 2.34701C66.3644 2.22561 66.6881 2.11433 67.022 2.00305C67.3457 1.90189 67.6796 1.80074 67.9932 1.7097C69.278 1.33538 70.5021 1.03186 71.625 0.829532C72.1915 0.728366 72.7277 0.657559 73.2436 0.617093C73.7596 0.576627 74.2553 0.536156 74.7813 0.485574C75.0444 0.455224 75.2973 0.424878 75.5603 0.394528C75.8234 0.364179 76.0965 0.323728 76.3696 0.283262C76.9058 0.202329 77.4521 0.111282 77.9984 0C77.4623 0.0910487 76.916 0.182097 76.3899 0.252913C76.1269 0.293379 75.8638 0.323725 75.6008 0.343958C75.3378 0.374308 75.0849 0.404644 74.8319 0.424877C74.3261 0.465343 73.8304 0.495699 73.3246 0.526048C72.8188 0.556398 72.2826 0.61709 71.716 0.708138C70.583 0.890236 69.369 1.17351 68.0842 1.5377C67.7605 1.62875 67.4368 1.7198 67.1029 1.82096C66.7691 1.92213 66.4453 2.03343 66.1014 2.15483C65.4236 2.39762 64.7255 2.66065 64.0275 2.94391C63.3295 3.22718 62.6112 3.51042 61.9131 3.78357C61.205 4.0466 60.4968 4.28941 59.7887 4.52209C59.0805 4.75477 58.3825 4.97732 57.6743 5.19988C57.3203 5.31116 56.9662 5.42245 56.6121 5.52361C56.258 5.62478 55.9039 5.72595 55.5499 5.817C54.8518 5.9991 54.1538 6.17107 53.4658 6.3127C53.1219 6.38352 52.7779 6.45433 52.4339 6.52514C52.09 6.59596 51.7359 6.66677 51.3717 6.74771C50.6534 6.90957 49.8947 7.11192 49.1056 7.33448C48.3165 7.55705 47.5173 7.79984 46.6878 8.06287C45.8582 8.3259 45.0084 8.58893 44.1485 8.88231C43.2886 9.18581 42.4085 9.50952 41.498 9.85349C40.5976 10.1974 39.677 10.5515 38.7868 10.9056C38.3416 11.0776 37.8864 11.2496 37.4413 11.4114C36.9961 11.5733 36.5611 11.7453 36.1059 11.9071C34.3355 12.5546 32.5145 13.111 30.6632 13.627C29.7426 13.8698 28.8321 14.1429 27.9418 14.3654C27.0415 14.588 26.1613 14.7904 25.2508 14.9826C24.3404 15.1748 23.3793 15.367 22.3778 15.5794C21.3762 15.802 20.3544 16.065 19.3124 16.3281C18.2704 16.5911 17.2183 16.8643 16.146 17.1374C15.6098 17.279 15.0736 17.4105 14.5273 17.5522C13.981 17.6938 13.4449 17.8455 12.8884 17.9973C11.7857 18.3109 10.6729 18.6245 9.57023 18.9381C8.46752 19.2518 7.41541 19.5552 6.38353 19.8385C4.32987 20.4253 2.22562 20.9007 0.0505703 21.3155C0.0404538 21.5077 0.0303595 21.7101 0.0101264 21.9023L0 21.9124Z" fill="#EDD744"/>
</svg>
