<svg width="63" height="27" viewBox="0 0 63 27" fill="none" xmlns="http://www.w3.org/2000/svg">
<path d="M0 20.002C0.503311 19.4987 1.18779 18.7135 1.74144 17.6062C2.4662 16.1667 2.42594 15.3816 3.13058 14.5461C3.54329 14.0529 4.3486 13.4992 6.06993 13.3784C6.14039 13.0362 6.56316 11.0128 8.54621 9.90556C9.58303 9.33179 10.5896 9.25126 11.1232 9.25126C11.5157 8.61709 12.5928 7.04676 14.7269 6.09047C16.1865 5.43617 17.5253 5.35564 18.2803 5.3657C19.0856 4.42955 20.5351 2.98 22.7597 1.86265C23.6757 1.3996 28.9102 -1.22767 33.2688 0.694979C35.7854 1.80226 36.5001 3.77524 38.9864 3.7551C40.2649 3.7551 40.285 3.22159 41.7647 3.03033C45.4288 2.53709 48.6601 5.26504 49.6466 6.09047C50.4318 6.75484 51.5793 7.88226 52.5859 9.59351C53.2503 9.66398 54.2569 9.8351 55.3642 10.3183C55.9682 10.5901 57.6996 11.3752 58.9176 13.2375C59.8034 14.5864 60.0249 15.895 60.0853 16.6399C60.2966 16.6197 61.7059 16.5191 62.4709 17.4653C62.5817 17.6062 62.6924 17.7874 62.783 18.0189C62.4206 18.6531 61.8368 19.5691 60.961 20.5456C59.5115 22.1562 56.24 25.0351 41.201 26.4745C38.7449 26.7061 31.0744 27.3704 21.9041 26.7262C21.2095 26.6759 18.3004 26.4645 14.5155 25.8404C7.8919 24.7532 4.99285 23.4748 3.9057 22.9614C2.27497 22.1964 1.00662 21.4112 0.150987 20.8475C0.100656 20.5657 0.0503311 20.2939 0 20.0121V20.002Z" fill="white"/>
</svg>
