<svg width="227" height="74" viewBox="0 0 227 74" fill="none" xmlns="http://www.w3.org/2000/svg">
<path d="M0 73.1992C0.180136 72.7989 0.460348 72.2785 0.890674 71.7481C1.35102 71.1677 1.82138 70.7674 2.20166 70.4872C58.4543 32.7486 99.5153 5.36787 104.259 2.27553C105.18 1.67507 107.381 0.264005 110.434 0.0338302C113.936 -0.236374 116.688 1.1847 117.729 1.7151C123.003 4.43716 165.746 31.3075 223.769 68.4556C224.28 68.7659 225.14 69.3863 225.861 70.4371C226.682 71.638 226.922 72.7989 227.002 73.4194C223.749 71.9083 218.986 69.8067 213.111 67.635C205.536 64.8429 185.611 58.7883 142.978 55.8561C128.838 54.8854 101.997 53.8145 68.9222 57.8176C39.3598 61.4003 22.3369 65.5234 10.8582 69.3163C6.32479 70.8174 2.59197 72.1985 0.0100174 73.1992H0Z" fill="#F8BF34"/>
</svg>
