<svg width="78" height="18" viewBox="0 0 78 18" fill="none" xmlns="http://www.w3.org/2000/svg">
<path d="M12.0545 13.0419C15.5643 9.50084 17.1337 5.14599 15.5599 3.31511C13.9861 1.48422 9.86495 2.87062 6.35512 6.41171C2.84528 9.9528 1.27584 14.3077 2.84967 16.1385C4.4235 17.9694 8.54462 16.583 12.0545 13.0419Z" fill="#F9BE29"/>
<path opacity="0.6" d="M32.0545 13.0419C35.5643 9.50084 37.1337 5.14599 35.5599 3.31511C33.9861 1.48422 29.865 2.87062 26.3551 6.41171C22.8453 9.9528 21.2758 14.3077 22.8497 16.1385C24.4235 17.9694 28.5446 16.583 32.0545 13.0419Z" fill="white"/>
<path opacity="0.6" d="M52.0545 13.0419C55.5643 9.50084 57.1337 5.14599 55.5599 3.31511C53.9861 1.48422 49.865 2.87062 46.3551 6.41171C42.8453 9.9528 41.2758 14.3077 42.8497 16.1385C44.4235 17.9694 48.5446 16.583 52.0545 13.0419Z" fill="white"/>
<path opacity="0.6" d="M72.0545 13.0419C75.5643 9.50084 77.1337 5.14599 75.5599 3.31511C73.9861 1.48422 69.865 2.87062 66.3551 6.41171C62.8453 9.9528 61.2758 14.3077 62.8497 16.1385C64.4235 17.9694 68.5446 16.583 72.0545 13.0419Z" fill="white"/>
</svg>
