<svg width="51" height="12" viewBox="0 0 51 12" fill="none" xmlns="http://www.w3.org/2000/svg">
<path d="M6.10936 0C6.10936 0 6.14995 1.98217e-05 6.23114 0.0203168C6.31233 0.0304652 6.44429 0.0609081 6.60666 0.0812051C6.93141 0.131947 7.40837 0.213115 8.01728 0.3146C8.61604 0.416085 9.34672 0.537892 10.1688 0.690119C10.9908 0.832198 11.9042 0.96412 12.8886 1.1265C13.873 1.28887 14.9183 1.47153 15.994 1.6542C17.0799 1.83688 18.1962 2.03986 19.3328 2.21239C20.4694 2.37476 21.6162 2.53712 22.7427 2.6995C23.8793 2.85172 24.9957 2.9735 26.0816 3.07498C27.1573 3.16632 28.2736 3.30842 29.4103 3.54184C30.5469 3.77525 31.7038 4.0594 32.8607 4.42475C33.155 4.51608 33.4392 4.59725 33.7335 4.68859C34.0278 4.77992 34.312 4.87128 34.6063 4.96261C35.1847 5.15544 35.7733 5.34825 36.3518 5.56137C37.5087 5.98761 38.6555 6.44427 39.782 6.9111C40.8983 7.38808 42.0045 7.83464 43.0701 8.30147C44.1357 8.75815 45.1708 9.20467 46.1451 9.62076C46.6322 9.82372 47.1092 10.0166 47.576 10.1992C48.0428 10.3717 48.4894 10.5341 48.9257 10.6559C49.149 10.7269 49.352 10.7878 49.5549 10.8386C49.7579 10.8995 49.9609 10.9401 50.1436 10.9806C50.3364 11.0314 50.5089 11.0415 50.6713 11.072C50.7525 11.072 50.8133 11.072 50.8844 11.072C50.925 11.072 50.9351 11.072 50.9554 11.0517C50.9554 11.0517 50.9757 11.0517 50.9859 11.0415C50.996 11.0415 50.9757 11.0212 50.9656 11.0212C50.9554 11.0111 50.9351 11.001 50.925 10.9908C50.925 10.9908 50.9351 11.0212 50.9656 11.0517C50.9656 11.0517 50.9757 11.072 50.9859 11.0821C50.9859 11.0923 51.0062 11.1024 50.996 11.1126C50.996 11.1227 50.9859 11.1329 50.9757 11.1532C50.9555 11.2242 50.8641 11.275 50.7423 11.3358C50.4683 11.4475 50.0218 11.549 49.3824 11.5997C48.7532 11.6505 47.9616 11.6505 47.0483 11.5997C46.1349 11.5287 45.1099 11.417 44.0037 11.2546C42.8975 11.0923 41.7203 10.8893 40.533 10.666C39.9342 10.5544 39.3456 10.4225 38.7468 10.2906C38.1582 10.1586 37.5696 10.0267 36.9912 9.89475C36.4127 9.76282 35.8545 9.62076 35.3166 9.49898C34.7788 9.36705 34.2612 9.22496 33.7842 9.10317C33.2971 8.97124 32.8506 8.84946 32.4446 8.71753C32.0387 8.5856 31.6734 8.45369 31.3689 8.33191C30.8716 8.14924 30.2932 7.93612 29.6234 7.69255C28.9536 7.43884 28.1924 7.15469 27.34 6.84009C26.9137 6.68786 26.457 6.52547 25.9902 6.35295C25.5132 6.18042 25.016 5.99775 24.4883 5.81508C23.9605 5.63241 23.4125 5.43959 22.834 5.24677C22.2556 5.05395 21.6568 4.85096 21.0175 4.65814C18.4905 3.89701 15.5271 3.01411 12.0462 2.26312C10.3108 1.89777 8.44352 1.50199 6.43412 1.18738C4.42473 0.852485 2.2834 0.608914 0 0.355202C2.11088 0.223272 4.15072 0.091356 6.14997 0.0203168L6.10936 0Z" fill="#959636"/>
</svg>
