<svg width="16" height="6" viewBox="0 0 16 6" fill="none" xmlns="http://www.w3.org/2000/svg">
<path d="M7.29852 2.55217C5.0389 3.42045 2.87342 4.32011 1.04271 5.19886C0.613797 5.40808 0.195368 5.62778 0.0489112 5.80562C-0.327692 6.27638 1.56578 5.77423 2.46545 5.53362C3.7731 5.15702 5.04937 4.74903 6.29426 4.32012C6.92193 4.10043 7.52867 3.88076 8.14588 3.65062C8.44925 3.53554 8.75262 3.42047 9.056 3.29494C9.35937 3.17987 9.66277 3.06478 9.95568 2.9497C11.2215 2.45803 15.8872 0.627312 15.7616 0.104251C15.6466 -0.42927 11.0436 1.23408 9.58953 1.72576C9.20247 1.86175 8.81539 1.98727 8.43879 2.13373C8.06219 2.28019 7.6856 2.41619 7.30899 2.56264L7.29852 2.55217Z" fill="#EDD744"/>
</svg>
