<svg width="443" height="70" viewBox="0 0 443 70" fill="none" xmlns="http://www.w3.org/2000/svg">
<path d="M217.667 8.75589C217.534 8.84212 217.654 9.0414 217.798 8.95709C222.099 6.48905 226.928 6.92977 231.035 9.42464C231.25 9.55494 231.504 9.25985 231.313 9.10464C227.55 6.04641 221.657 6.14222 217.667 8.75589Z" fill="#8AA74F"/>
<path d="M348.028 0.616092C338.246 -0.868146 327.642 2.60593 322.015 10.0329C321.953 10.1152 322.095 10.211 322.17 10.1382C327.928 4.61109 335.142 0.899534 343.848 1.13127C352.713 1.36683 365.154 6.29641 362.967 15.8741C362.9 16.1652 363.385 16.395 363.542 16.0905C367.902 7.66957 355.565 1.76135 348.028 0.616092Z" fill="#8AA74F"/>
<path d="M348.843 14.5693C346.583 14.7876 344.394 15.4004 342.323 16.222C340.434 16.9728 338.243 18.8247 336.624 18.0969C335.587 17.6297 335.202 16.5208 333.852 16.1109C332.453 15.6858 331.321 15.8639 330.043 16.471C329.954 16.5131 330.017 16.628 330.109 16.6089C332.696 16.086 335.46 17.2734 336.334 19.5639C336.415 19.7746 336.721 19.9431 336.96 19.7899C341.148 17.1145 346.314 15.0423 351.574 15.3411C358.857 15.7528 362.755 20.3453 362.899 26.491C362.901 26.6232 363.136 26.7055 363.205 26.5638C366.89 18.9147 355.913 13.8855 348.843 14.5693Z" fill="#8AA74F"/>
<path d="M337.479 55.3976C335.241 53.8291 332.268 53.7065 329.778 54.8441C329.688 54.8863 329.75 55.028 329.849 54.9935C332.247 54.1585 335.204 54.3979 337.089 56.0832C338.738 57.556 339.07 59.5362 339.319 61.505C339.332 61.6123 339.511 61.6889 339.575 61.5663C340.75 59.3869 339.513 56.8225 337.479 55.3976Z" fill="#8AA74F"/>
<path d="M442.478 41.7631C442.529 41.7133 442.465 41.6425 442.398 41.6712C437.517 43.8524 435.229 48.5596 435.401 53.2017C433.339 51.5663 430.53 50.9343 427.784 51.1909C428.95 47.514 427.56 43.5594 424.099 41.1388C422.169 39.7887 419.743 39.1127 417.294 39.1222C416.078 39.128 414.851 39.3061 413.695 39.6393C413.092 39.8136 410.794 41.1541 410.462 41.0986C410.047 41.0296 408.024 36.828 407.451 36.1941C405.912 34.4897 403.876 33.1454 401.573 32.3736C396.828 30.7822 391.737 31.755 387.893 34.5778C387.82 34.6314 387.915 34.7406 387.995 34.6946C396.619 29.6906 406.989 33.3886 409.309 42.2706C409.401 42.6249 409.901 42.6977 410.176 42.4736C413.516 39.7542 418.721 39.1146 422.623 41.3226C426.398 43.4579 427.7 47.5006 427.257 51.2714C423.279 51.8095 419.618 54.1612 418.835 57.8477C412.021 52.4759 397.678 53.9027 397.934 63.6541C397.938 63.8112 398.203 63.8112 398.209 63.6541C398.41 58.945 403.127 55.586 408.261 55.5573C412.815 55.5305 416.073 57.9932 420.008 59.5425C420.189 59.6134 420.477 59.4467 420.322 59.2629C419.963 58.8397 419.562 58.4452 419.13 58.0794C420.836 55.3562 422.825 52.9624 426.542 52.2538C429.945 51.6046 432.831 52.7804 435.504 54.4197C435.96 57.8821 437.79 61.1818 440.999 63.2118C441.234 63.3611 441.44 63.0528 441.285 62.8824C439.129 60.5134 437.342 57.9224 436.679 54.9962C436.824 54.9272 436.925 54.7644 436.824 54.6266C436.748 54.5251 436.651 54.4446 436.572 54.3469C436.449 53.6135 436.376 52.8666 436.41 52.0891C436.606 47.7036 439.307 44.8138 442.478 41.7631Z" fill="#8AA74F"/>
<path d="M134.444 57.3454C136.392 61.0723 141.863 62.4206 145.862 60.2297C150.328 57.7821 150.885 52.4829 147.524 49.0797C147.401 48.9552 147.147 49.1237 147.263 49.2578C150.093 52.5442 149.85 57.4565 145.509 59.6896C141.476 61.7637 137.432 60.3063 134.931 57.311C135.053 57.265 135.045 57.0888 134.888 57.085C134.838 57.0831 134.789 57.0831 134.739 57.0812C134.554 56.8456 134.375 56.6024 134.21 56.3515C134.158 56.273 134.012 56.3247 134.042 56.4147C134.117 56.6426 134.212 56.859 134.311 57.0735C115.424 56.5698 96.4412 57.2325 77.5506 57.422C58.4383 57.6136 39.3217 57.7629 20.2137 58.2111C20.1319 58.213 20.1319 58.3222 20.2137 58.3241C39.326 58.4198 58.4383 58.2149 77.5506 58.054C96.4864 57.8893 115.528 58.2034 134.444 57.3454Z" fill="#8AA74F"/>
<path d="M32.3404 24.0068C40.7515 16.3002 54.7844 21.5822 53.549 32.5215C53.5275 32.7169 53.8116 32.8452 53.9859 32.7456C60.8754 28.787 68.2405 32.8241 69.7966 39.4237C69.8397 39.6037 70.1668 39.5635 70.1561 39.3797C69.9365 35.3425 66.6349 31.8225 62.1797 30.9128C59.8638 30.4398 57.845 30.8266 55.6346 31.3916C53.704 31.8838 54.6553 31.9891 54.3088 30.7519C54.0204 29.7254 54.0914 28.6797 53.7212 27.6283C50.7962 19.3549 38.4206 17.0088 32.2995 23.9704C32.278 23.9953 32.3145 24.0298 32.3404 24.0068Z" fill="#8AA74F"/>
<path d="M74.6591 38.1351C76.8157 37.1871 78.3933 37.6984 79.392 39.6729C79.5146 39.853 79.8116 39.8108 79.8827 39.6155C82.5042 32.3265 88.8082 25.6407 98.02 25.4511C107.667 25.2519 114.339 33.4277 110.31 41.3813C110.213 41.5709 110.488 41.7202 110.626 41.546C111.115 40.9274 111.487 40.2705 111.775 39.5925C113.951 39.2459 115.527 40.3126 116.648 41.8447C116.794 42.0439 117.134 41.9175 117.076 41.6838C116.596 39.6959 113.745 38.8648 111.805 39.5255C113.267 35.994 112.133 31.8611 109.373 28.9386C105.43 24.7617 98.5645 23.9247 92.9729 25.5756C87.1574 27.2916 82.8421 31.7309 80.5047 36.6432C79.8698 37.9761 80.1151 38.6043 78.9228 38.2787C77.937 38.0087 77.3408 37.1545 76.1334 36.9937C74.0112 36.7102 72.4035 37.6659 71.2369 39.1635C71.2262 39.1769 71.252 39.1961 71.2649 39.1827C71.9472 38.1217 73.0793 37.7731 74.6591 38.1351Z" fill="#8AA74F"/>
<path d="M117.178 42.9792C120.501 41.5313 124.289 40.2118 127.999 41.2632C132.539 42.5483 133.389 46.5298 130.63 49.6592C130.541 49.7588 130.617 49.9484 130.785 49.8967C132.444 49.3987 133.23 48.2113 133.389 46.8669C134.583 44.4711 137.672 43.117 140.45 44.1033C140.416 44.1723 140.446 44.268 140.558 44.27C140.661 44.2719 140.767 44.27 140.87 44.2719C140.995 44.3274 141.122 44.3791 141.247 44.4462C144.583 46.2387 144.23 49.8641 141.972 52.2331C141.858 52.3519 142.007 52.5664 142.172 52.4649C145.383 50.5018 145.168 46.2885 142.168 44.2815C146.875 44.3561 151.619 44.3255 156.313 44.1608C156.395 44.157 156.395 44.0516 156.313 44.0478C151.477 43.9061 146.591 43.9042 141.748 44.0191C138.526 42.2323 134.753 43.6073 133.412 46.4935C133.471 44.8196 132.627 42.9849 131.305 41.9565C127.08 38.672 121.274 40.6657 117.081 42.8279C116.969 42.8853 117.066 43.027 117.178 42.9792Z" fill="#8AA74F"/>
<path d="M71.5049 53.1487C71.6599 53.1448 71.6599 52.9317 71.5049 52.9298C47.6963 52.617 23.8705 53.1819 0.0661828 53.4575C-0.0220609 53.4575 -0.0220609 53.5826 0.0661828 53.5826C23.8726 53.5376 47.7049 53.78 71.5049 53.1487Z" fill="#8AA74F"/>
<path d="M105.959 69.0485C105.879 69.0523 105.877 69.1639 105.959 69.162C123.408 68.6178 140.934 68.3755 158.348 67.2371C158.479 67.2294 158.481 67.0525 158.348 67.0525C140.886 67.2159 123.399 68.287 105.959 69.0485Z" fill="#8AA74F"/>
<path d="M179.952 52.481C181.233 51.8184 182.363 50.8569 182.892 49.6408C183.846 47.4518 182.727 46.1763 180.994 44.8204C180.318 44.2899 179.714 45.4294 180.493 45.5865C181.093 46.4157 181.696 47.2431 182.296 48.0723C182.068 48.7024 181.84 49.3325 181.614 49.9607C181.108 50.7095 180.135 51.374 179.292 51.7935C178.853 52.0118 178.394 52.1803 177.925 52.3182C176.864 52.3182 175.801 52.4503 174.781 52.6917C174.518 52.684 174.257 52.6878 173.995 52.6648C171.066 52.3967 168.715 51.0868 166.783 49.1946C166.923 49.1601 166.918 48.9686 166.755 48.961C166.681 48.9571 166.608 48.959 166.535 48.9552C166.522 48.9418 166.507 48.9303 166.494 48.9169C166.46 48.8824 166.421 48.915 166.419 48.9514C160.922 48.7062 155.401 48.9246 149.902 49.028C149.777 49.0299 149.777 49.1984 149.902 49.2004C155.447 49.2846 161.014 49.4857 166.554 49.2099C167.777 51.3913 170.121 52.8161 172.729 53.3562C175.248 53.6799 177.637 53.4769 179.952 52.481Z" fill="#8AA74F"/>
<path d="M18.6847 32.9992C18.7449 33.1677 18.9968 33.2482 19.1431 33.1064C24.7262 27.7689 32.6401 30.7412 34.7515 37.1148C34.8161 37.3102 35.1884 37.2834 35.1669 37.065C34.8871 34.0793 32.7628 31.5513 29.6377 30.3716C26.2586 29.0942 23.3745 30.0345 20.3355 31.4326C18.5491 32.2561 19.1001 31.942 18.0003 30.4425C17.0877 29.1995 15.7834 28.1769 14.2746 27.5391C11.1194 26.2043 7.69726 26.729 4.86485 28.3799C4.79813 28.4182 4.85839 28.5139 4.92942 28.4775C10.3123 25.5684 16.767 27.6693 18.6847 32.9992Z" fill="#8AA74F"/>
<path d="M91.8721 3.00225C96.4694 5.47853 97.5865 10.1668 94.4785 14.0354C94.3795 14.158 94.5883 14.2825 94.7024 14.1905C98.3893 11.1818 97.0419 6.0186 93.383 3.50018C88.3467 0.0318549 81.7456 1.5046 76.6425 3.97897C76.6296 3.98471 76.6404 4.00195 76.6533 3.99621C81.2484 1.87231 87.0854 0.422545 91.8721 3.00225Z" fill="#8AA74F"/>
<path d="M93.1058 15.634C95.4173 14.259 98.4542 14.0809 100.811 15.5096C103.213 16.9651 103.633 19.4586 103.62 21.841C103.62 21.9847 103.865 22.0594 103.94 21.9176C105.204 19.5065 103.807 16.5571 101.431 15.0978C98.8459 13.5121 95.4087 13.8319 93.0111 15.523C92.9379 15.5728 93.0304 15.68 93.1058 15.634Z" fill="#8AA74F"/>
<path d="M129.96 31.8616C134.329 28.8644 139.757 30.1552 141.984 34.606C142.086 34.8052 142.421 34.8147 142.576 34.673C147.813 29.9311 153.859 32.8823 156.304 38.0092C155.733 38.195 155.174 38.4305 154.651 38.7542C154.614 38.7772 154.646 38.825 154.685 38.8078C155.285 38.5454 155.864 38.3673 156.422 38.2562C156.452 38.3252 156.491 38.3884 156.519 38.4573C156.616 38.6852 157.007 38.6642 157.014 38.398C157.016 38.3156 157.001 38.2409 156.999 38.1605C160.274 37.7813 162.685 39.9243 163.699 42.9483C163.765 43.1456 164.078 43.1897 164.196 43.0058C165.901 40.3648 170.209 39.4666 172.891 41.4373C175.183 43.1226 175.422 45.6851 174.817 48.1346C174.757 48.3797 175.11 48.5099 175.267 48.3031C178.814 43.655 172.631 38.2313 167.175 40.1369C167.192 40.1312 164.336 41.7265 164.237 42.0655C164.118 41.7859 163.309 39.8592 163.027 39.5547C161.445 37.8368 159.149 37.3274 156.979 37.8138C156.596 32.6928 149.502 30.1628 144.612 32.4055C142.875 33.2022 143.022 33.9108 141.55 32.5204C140.482 31.5111 139.483 30.6838 138.005 30.1686C135.069 29.1459 132.086 29.8928 129.718 31.582C129.542 31.7065 129.779 31.9841 129.96 31.8616Z" fill="#8AA74F"/>
<path d="M52.4568 48.178C52.3686 48.18 52.3686 48.304 52.4568 48.304C64.176 48.3591 75.9124 48.5836 87.6273 48.1898C87.7457 48.1859 87.7457 48.0244 87.6273 48.0225C75.9081 47.7192 64.1739 48.0343 52.4568 48.178Z" fill="#8AA74F"/>
<path d="M116.381 62.1587C98.3126 62.0052 80.2162 62.5335 62.1607 63.0656C62.1392 63.0656 62.1392 63.0967 62.1607 63.0967C80.227 63.0617 98.332 63.0229 116.381 62.3043C116.482 62.2985 116.484 62.1587 116.381 62.1587Z" fill="#8AA74F"/>
<path d="M154.854 59.584C154.738 59.5918 154.734 59.7497 154.854 59.7497C161.483 59.7945 168.214 59.6971 174.815 59.1182C174.959 59.1065 174.965 58.9135 174.815 58.9116C168.186 58.7615 161.464 59.1085 154.854 59.584Z" fill="#8AA74F"/>
<path d="M286.417 8.02629C288.449 9.47988 288.825 11.508 288.754 13.6913C288.748 13.8751 289.041 13.8981 289.103 13.7334C290.978 8.64105 283.092 4.12705 278.66 7.72561C278.649 7.73518 278.662 7.74859 278.675 7.74476C281.247 6.69909 284.052 6.3333 286.417 8.02629Z" fill="#8AA74F"/>
<path d="M388.327 31.9693C388.331 32.113 388.566 32.1455 388.611 32.0038C390.208 26.9536 384.024 22.3381 378.659 23.3876C378.592 23.401 378.581 23.4891 378.639 23.5178C379.072 23.7208 379.496 23.9372 379.909 24.169C379.916 24.1728 379.922 24.1632 379.916 24.1594C378.041 23.0065 381.444 23.5619 381.993 23.6787C383.452 23.9928 384.819 24.6611 385.89 25.5996C387.871 27.3385 388.239 29.6252 388.327 31.9693Z" fill="#8AA74F"/>
</svg>
