<svg width="150" height="40" viewBox="0 0 150 40" fill="none" xmlns="http://www.w3.org/2000/svg">
<g clip-path="url(#clip0_795_8800)">
<path d="M11.0518 2.64526C11.3482 3.97211 11.8056 7.53856 9.77304 11.1811C8.70597 13.0995 6.62263 15.4743 5.3269 17.2745C2.71003 20.917 0.457322 27.1878 2.27812 32.6643C-0.98238 23.858 -0.457312 14.3419 2.08334 7.10754C3.68395 2.53539 6.07216 -0.752165 8.95156 0.152124C9.45122 0.371858 9.94242 0.532433 10.5183 1.3015C10.8316 1.72407 10.9248 2.07902 11.0518 2.65371V2.64526Z" fill="#6D9127"/>
<path d="M9.04473 34.4728C9.12942 32.791 9.34961 31.0501 10.5352 28.8274C13.2622 23.6974 19.292 23.1735 18.1826 9.43165C18.7415 10.4627 21.6887 21.4325 19.1057 31.9459C18.7331 33.4756 18.2758 34.6588 17.3188 36.2054C16.7344 37.1519 15.3371 38.6647 14.414 39.2732C13.6179 39.8056 12.5678 40.0592 11.3906 39.5943C11.0772 39.4591 10.3997 39.045 9.94243 38.2928C9.55286 37.6421 8.96004 36.087 9.04473 34.4728Z" fill="#6D9127"/>
<path d="M3.31977 22.9537C3.07417 25.0919 3.31977 30.1289 8.14701 33.8475C8.1216 34.008 7.67275 37.4055 10.2473 40C10.2473 40 8.99389 39.8056 7.1985 38.8422C-0.203266 34.887 2.91327 24.813 3.31977 22.9537Z" fill="#6D9127"/>
<path d="M16.0146 21.3142C16.4041 19.0323 16.5735 13.4967 11.3482 9.49081C11.4414 9.22037 12.6778 6.25396 11.7971 2.41707C12.0342 3.09318 12.6186 5.14684 15.1253 6.76949C18.5976 9.01754 17.4881 16.142 16.0146 21.3142Z" fill="#6D9127"/>
<path d="M42.7592 31.067V9.24572H39.1006C38.7788 10.1669 38.3469 10.8599 37.8049 11.3247C36.7124 12.2628 35.459 12.7277 34.0363 12.7277C34.0532 12.4826 34.0701 12.2544 34.0955 12.0431C34.1125 11.8318 34.2141 11.4938 34.4089 11.0289C34.5952 10.5726 34.8323 10.1838 35.1287 9.86267C35.4167 9.54152 35.8825 9.25417 36.5092 8.99218C37.1359 8.73019 37.8726 8.59497 38.7195 8.59497H52.8455C53.667 8.59497 54.3869 8.71329 54.9966 8.95838C55.6064 9.20346 56.0637 9.47391 56.377 9.7866C56.6904 10.0993 56.936 10.4712 57.1223 10.9275C57.3086 11.3754 57.4187 11.722 57.4611 11.9501C57.4949 12.1868 57.5288 12.4403 57.5457 12.7192C56.123 12.7192 54.8527 12.2544 53.7432 11.3163C53.4976 11.1135 53.269 10.8346 53.0573 10.4881C52.8371 10.1416 52.6846 9.84576 52.5915 9.60067L52.4475 9.23727H48.8144V31.0501H42.7676L42.7592 31.067Z" fill="#095B89"/>
<path d="M75.3811 12.584C75.3811 12.584 73.5349 13.6742 74.3818 15.1447C75.1101 16.404 73.4671 17.359 73.4671 17.359C74.0007 17.3674 78.3198 15.9476 75.3896 12.584H75.3811Z" fill="#095B89"/>
<path d="M55.0559 15.6349H60.5437V26.2075C60.5437 29.0556 61.6616 30.4754 63.8889 30.4754C64.6765 30.4754 65.6419 30.1035 66.7852 29.3514V15.6349H72.273V31.067H66.7852V30.0528C65.2862 31.0839 63.7026 31.5994 62.0257 31.5994C59.8323 31.5994 58.1216 31.1092 56.8936 30.1373C55.6656 29.1654 55.0474 27.5005 55.0474 25.1426V15.6349H55.0559Z" fill="#095B89"/>
<path d="M111.153 15.5419C112.077 15.5419 112.771 15.9138 113.254 16.6491C113.728 17.3928 113.974 18.2464 113.974 19.2183C113.974 19.9704 113.897 20.5198 113.745 20.8747C112.881 20.6127 112.094 20.1056 111.382 19.3619C110.671 18.6098 110.154 17.621 109.832 16.3871C109.307 16.573 108.757 16.9026 108.172 17.3843C107.588 17.866 107.131 18.2971 106.792 18.6943L106.318 19.2859V31.5318H100.83V16.0321H106.318V18.2548C107.893 16.4547 109.511 15.5588 111.162 15.5588L111.153 15.5419Z" fill="#095B89"/>
<path d="M114.947 16.0321H120.435V26.6638C120.435 29.5119 121.553 30.9318 123.78 30.9318C124.568 30.9318 125.534 30.5599 126.677 29.8077V16.0321H132.165V31.4726H126.677V30.5092C125.178 31.5402 123.594 32.0558 121.917 32.0558C119.724 32.0558 118.013 31.5656 116.785 30.5937C115.557 29.6218 114.939 27.9569 114.939 25.599V16.0321H114.947ZM121.113 14.5278C121.147 13.0657 121.689 11.8065 122.713 10.7331C123.747 9.66829 125.042 8.95838 126.601 8.59497V11.7135C124.162 11.9755 122.332 12.9136 121.113 14.5193V14.5278Z" fill="#095B89"/>
<path d="M149.661 18.128C149.568 18.0013 149.424 17.8407 149.221 17.6632C149.026 17.4857 148.586 17.2407 147.9 16.9364C147.214 16.6237 146.468 16.4716 145.664 16.4716C144.631 16.4716 143.716 16.6829 142.903 17.1054C142.099 17.528 141.455 18.0773 140.989 18.7619C140.523 19.4464 140.168 20.1817 139.931 20.9677C139.693 21.7536 139.575 22.5481 139.575 23.3509C139.575 24.4919 139.804 25.599 140.252 26.6638C140.701 27.7287 141.438 28.6499 142.446 29.419C143.462 30.188 144.639 30.5683 145.994 30.5683C146.655 30.5683 147.298 30.4247 147.934 30.1458C148.569 29.8669 149.035 29.6134 149.314 29.3852C149.593 29.157 149.822 28.9542 149.992 28.7682C148.399 30.9571 146.214 32.0558 143.437 32.0558C141.015 32.0558 138.838 31.2276 136.89 29.5711C134.951 27.9146 133.977 25.8441 133.977 23.3509C133.977 21.7959 134.451 20.3761 135.4 19.083C136.348 17.79 137.542 16.8012 138.974 16.1166C140.405 15.4321 141.887 15.094 143.403 15.094C146.045 15.094 148.128 16.1082 149.653 18.128H149.661Z" fill="#095B89"/>
<path d="M88.3553 31.4642V9.65138H84.6968C84.375 10.5726 83.9431 11.2656 83.4011 11.7304C82.3086 12.6685 81.0552 13.1333 79.6324 13.1333C79.6494 12.8882 79.6663 12.66 79.6917 12.4488C79.7087 12.2375 79.8103 11.8994 80.0051 11.4346C80.1914 10.9782 80.4285 10.5895 80.7249 10.2683C81.0129 9.94718 81.4787 9.65983 82.1053 9.39784C82.732 9.13585 83.4688 9.00063 84.3157 9.00063H98.4417C99.2632 9.00063 99.9831 9.11895 100.593 9.36404C101.203 9.60913 101.66 9.87957 101.973 10.1923C102.287 10.505 102.532 10.8768 102.718 11.3332C102.905 11.7811 103.015 12.1276 103.057 12.3558C103.091 12.5924 103.125 12.846 103.142 13.1249C101.719 13.1249 100.449 12.66 99.3394 11.722C99.0938 11.5191 98.8652 11.2402 98.6534 10.8937C98.4333 10.5472 98.2808 10.2514 98.1877 10.0063L98.0437 9.64293H94.4106V31.4557H88.3638L88.3553 31.4642Z" fill="#095B89"/>
</g>
<defs>
<clipPath id="clip0_795_8800">
<rect width="150" height="40" fill="white"/>
</clipPath>
</defs>
</svg>
