<svg width="155" height="84" viewBox="0 0 155 84" fill="none" xmlns="http://www.w3.org/2000/svg">
<g clip-path="url(#clip0_795_8151)">
<path d="M23.6163 5.49693C24.231 8.24559 25.167 15.6609 20.9665 23.2396C18.7544 27.2296 14.4375 32.1623 11.7597 35.9096C6.34837 43.4789 1.68213 56.5083 5.45424 67.8856C-1.28899 49.5829 -0.203931 29.8103 5.05374 14.7696C8.37879 5.25893 13.3151 -1.56374 19.276 0.307592C20.3145 0.769592 21.3251 1.09159 22.5126 2.68759C23.1599 3.56026 23.3508 4.30226 23.6209 5.49693H23.6163Z" fill="white"/>
<path d="M19.464 71.6382C19.6363 68.1428 20.102 64.5262 22.5469 59.9015C28.1958 49.2335 40.6624 48.1555 38.3665 19.5908C39.5214 21.7375 45.6266 44.5342 40.2805 66.3788C39.5028 69.5662 38.5667 72.0162 36.5829 75.2362C35.3721 77.2008 32.4755 80.3508 30.5801 81.6155C28.9269 82.7122 26.7568 83.2442 24.3258 82.2875C23.6878 82.0122 22.2721 81.1395 21.3314 79.5762C20.5211 78.2322 19.301 74.9935 19.464 71.6428V71.6382Z" fill="white"/>
<path d="M7.62279 47.6982C7.11984 52.1316 7.6321 62.6176 17.6212 70.3456C17.57 70.6769 16.6339 77.7469 21.9615 83.1369C21.9615 83.1369 19.3722 82.7309 15.6513 80.7336C0.334692 72.5062 6.77057 51.5669 7.62279 47.6982Z" fill="white"/>
<path d="M33.8843 44.2912C34.6946 39.5499 35.0345 28.0512 24.2305 19.7259C24.4214 19.1612 26.9734 13.0059 25.1572 5.02588C25.6508 6.43521 26.8616 10.7052 32.0448 14.0652C39.2398 18.7272 36.9253 33.5439 33.8889 44.2912H33.8843Z" fill="white"/>
<path d="M66.9903 32.116V0.924H61.7839C61.3275 2.23533 60.7175 3.22467 59.9398 3.89667C58.389 5.236 56.6007 5.90333 54.5703 5.90333C54.5983 5.558 54.6215 5.22667 54.6495 4.91867C54.6774 4.61067 54.8218 4.13 55.0919 3.472C55.3573 2.81867 55.6973 2.26333 56.1118 1.806C56.5262 1.35333 57.1782 0.938 58.077 0.56C58.9711 0.186667 60.0189 0 61.2204 0H81.3337C82.5119 0 83.5318 0.172667 84.3979 0.522667C85.2641 0.872667 85.9208 1.26467 86.3632 1.708C86.8056 2.15133 87.1595 2.69267 87.4249 3.332C87.6904 3.976 87.8534 4.46133 87.9046 4.79733C87.9558 5.13333 87.9978 5.502 88.0257 5.90333C85.9953 5.90333 84.193 5.236 82.6143 3.89667C82.2651 3.60267 81.9391 3.206 81.6317 2.71133C81.3244 2.21667 81.1055 1.79667 80.9704 1.44667L80.7702 0.924H75.601V32.116H66.9857H66.9903Z" fill="white"/>
<path d="M113.441 5.69336C113.441 5.69336 110.809 7.25203 112.011 9.35203C113.045 11.1534 110.707 12.5207 110.707 12.5207C111.471 12.5347 117.623 10.5047 113.441 5.69803V5.69336Z" fill="white"/>
<path d="M84.4961 10.0522H92.3104V25.1722C92.3104 29.2416 93.8984 31.2762 97.0791 31.2762C98.2014 31.2762 99.5752 30.7396 101.205 29.6709V10.0522H109.019V32.1162H101.205V30.6696C99.0676 32.1396 96.809 32.8769 94.434 32.8769C91.3092 32.8769 88.869 32.1816 87.1226 30.7909C85.3716 29.4002 84.4961 27.0156 84.4961 23.6462V10.0522Z" fill="white"/>
<path d="M99.4456 60.3867C100.754 60.3867 101.751 60.9141 102.431 61.9734C103.111 63.0327 103.451 64.2554 103.451 65.6461C103.451 66.7194 103.343 67.5081 103.129 68.0167C101.9 67.6434 100.777 66.9201 99.7623 65.8467C98.7471 64.7781 98.0113 63.3594 97.5596 61.5907C96.8098 61.8567 96.0228 62.3327 95.1938 63.0141C94.3649 63.6954 93.7129 64.3207 93.2286 64.8807L92.5487 65.7254V83.2347H84.7344V61.0681H92.5487V64.2414C94.7933 61.6701 97.0892 60.3867 99.441 60.3867H99.4456Z" fill="white"/>
<path d="M104.852 61.0913H112.666V76.2907C112.666 80.36 114.254 82.3947 117.435 82.3947C118.557 82.3947 119.931 81.858 121.561 80.7893V61.096H129.375V83.1693H121.561V81.7973C119.423 83.2673 117.164 84.0047 114.789 84.0047C111.665 84.0047 109.224 83.3093 107.478 81.9187C105.727 80.528 104.852 78.1433 104.852 74.774V61.1007V61.0913ZM113.625 58.94C113.676 56.854 114.44 55.0433 115.907 53.5173C117.374 51.9913 119.218 50.974 121.435 50.4653V54.922C117.961 55.2953 115.358 56.6347 113.621 58.9353L113.625 58.94Z" fill="white"/>
<path d="M154.264 64.0873C154.129 63.9006 153.925 63.6813 153.645 63.4246C153.366 63.1726 152.737 62.8226 151.764 62.3793C150.79 61.936 149.729 61.7166 148.578 61.7166C147.107 61.7166 145.798 62.02 144.653 62.622C143.502 63.224 142.594 64.0126 141.928 64.9926C141.262 65.968 140.759 67.018 140.424 68.1426C140.089 69.2673 139.921 70.406 139.921 71.554C139.921 73.1873 140.242 74.7646 140.885 76.2906C141.528 77.8166 142.566 79.128 144.01 80.2246C145.454 81.3213 147.135 81.872 149.058 81.872C149.994 81.872 150.916 81.6713 151.824 81.27C152.732 80.8686 153.389 80.5093 153.789 80.1873C154.19 79.8653 154.511 79.5713 154.753 79.3053C152.481 82.4366 149.37 84.0046 145.416 84.0046C141.97 84.0046 138.864 82.8193 136.102 80.4533C133.336 78.0826 131.953 75.1193 131.953 71.5586C131.953 69.3373 132.628 67.3026 133.979 65.4546C135.329 63.6066 137.025 62.1973 139.069 61.2173C141.113 60.242 143.218 59.752 145.379 59.752C149.147 59.752 152.108 61.1986 154.274 64.0873H154.264Z" fill="white"/>
<path d="M66.9903 83.1599V51.9679H61.7839C61.3275 53.2793 60.7175 54.2686 59.9398 54.9406C58.389 56.2799 56.6007 56.9473 54.5703 56.9473C54.5983 56.6019 54.6215 56.2706 54.6495 55.9626C54.6774 55.6546 54.8218 55.1739 55.0919 54.5159C55.3573 53.8626 55.6973 53.3073 56.1118 52.8499C56.5262 52.3973 57.1782 51.9819 58.077 51.6039C58.9711 51.2306 60.0189 51.0439 61.2204 51.0439H81.3337C82.5072 51.0439 83.5318 51.2166 84.3979 51.5666C85.2641 51.9166 85.9208 52.3086 86.3632 52.7519C86.8056 53.1953 87.1595 53.7366 87.4249 54.3759C87.6904 55.0199 87.8534 55.5053 87.9046 55.8413C87.9558 56.1773 87.9978 56.5459 88.0257 56.9473C85.9953 56.9473 84.193 56.2799 82.6143 54.9406C82.2651 54.6466 81.9391 54.2499 81.6317 53.7553C81.3244 53.2606 81.1055 52.8406 80.9704 52.4906L80.7702 51.9679H75.601V83.1599H66.9857H66.9903Z" fill="white"/>
</g>
<defs>
<clipPath id="clip0_795_8151">
<rect width="154" height="84" fill="white" transform="translate(0.75)"/>
</clipPath>
</defs>
</svg>
