<svg width="22" height="21" viewBox="0 0 22 21" fill="none" xmlns="http://www.w3.org/2000/svg">
<path d="M9.75 6C9.75 5.70333 9.83797 5.41332 10.0028 5.16665C10.1676 4.91997 10.4019 4.72771 10.676 4.61418C10.9501 4.50065 11.2517 4.47094 11.5426 4.52882C11.8336 4.5867 12.1009 4.72956 12.3107 4.93934C12.5204 5.14912 12.6633 5.41639 12.7212 5.70736C12.7791 5.99834 12.7494 6.29994 12.6358 6.57403C12.5223 6.84811 12.33 7.08238 12.0834 7.2472C11.8367 7.41203 11.5467 7.5 11.25 7.5C10.8522 7.5 10.4706 7.34196 10.1893 7.06066C9.90804 6.77936 9.75 6.39782 9.75 6ZM5.25 6C5.25 4.4087 5.88214 2.88258 7.00736 1.75736C8.13258 0.632141 9.6587 0 11.25 0C12.8413 0 14.3674 0.632141 15.4926 1.75736C16.6179 2.88258 17.25 4.4087 17.25 6C17.25 11.6203 11.8519 14.7694 11.625 14.9016C11.5117 14.9663 11.3834 15.0004 11.2528 15.0004C11.1223 15.0004 10.994 14.9663 10.8806 14.9016C10.6481 14.7694 5.25 11.625 5.25 6ZM6.75 6C6.75 9.95625 10.11 12.5822 11.25 13.3594C12.3891 12.5831 15.75 9.95625 15.75 6C15.75 4.80653 15.2759 3.66193 14.432 2.81802C13.5881 1.97411 12.4435 1.5 11.25 1.5C10.0565 1.5 8.91193 1.97411 8.06802 2.81802C7.22411 3.66193 6.75 4.80653 6.75 6ZM18.2597 12.3403C18.0751 12.2793 17.874 12.2924 17.6989 12.3768C17.5238 12.4612 17.3882 12.6102 17.3209 12.7926C17.2535 12.975 17.2596 13.1764 17.3379 13.3543C17.4161 13.5323 17.5604 13.6729 17.7403 13.7466C19.2881 14.3194 20.25 15.0863 20.25 15.75C20.25 17.0025 16.8263 18.75 11.25 18.75C5.67375 18.75 2.25 17.0025 2.25 15.75C2.25 15.0863 3.21187 14.3194 4.75969 13.7475C4.9396 13.6739 5.0839 13.5332 5.16215 13.3553C5.24039 13.1773 5.24648 12.9759 5.17913 12.7935C5.11178 12.6112 4.97624 12.4621 4.8011 12.3777C4.62596 12.2933 4.42491 12.2803 4.24031 12.3412C1.98937 13.1709 0.75 14.3822 0.75 15.75C0.75 18.6731 6.16031 20.25 11.25 20.25C16.3397 20.25 21.75 18.6731 21.75 15.75C21.75 14.3822 20.5106 13.1709 18.2597 12.3403Z" fill="#FBFFF2"/>
</svg>
