<svg width="23" height="24" viewBox="0 0 23 24" fill="none" xmlns="http://www.w3.org/2000/svg">
<path d="M21.5972 14.8554L17.1806 12.8764L17.1684 12.8707C16.9391 12.7727 16.689 12.7333 16.4407 12.7562C16.1924 12.7792 15.9537 12.8636 15.7462 13.002C15.7218 13.0181 15.6983 13.0357 15.6759 13.0545L13.3941 14.9998C11.9484 14.2976 10.4559 12.8164 9.75374 11.3895L11.7019 9.07294C11.7206 9.0495 11.7384 9.02606 11.7553 9.00075C11.8907 8.79384 11.9729 8.55667 11.9944 8.31035C12.016 8.06402 11.9764 7.81618 11.8791 7.58887V7.57762L9.89437 3.15356C9.76569 2.85662 9.54442 2.60926 9.26361 2.44841C8.98279 2.28756 8.65748 2.22184 8.33624 2.26106C7.0659 2.42822 5.89985 3.05209 5.05587 4.01615C4.21189 4.98021 3.7477 6.21852 3.74999 7.49981C3.74999 14.9436 9.80624 20.9998 17.25 20.9998C18.5313 21.0021 19.7696 20.5379 20.7337 19.6939C21.6977 18.85 22.3216 17.6839 22.4887 16.4136C22.528 16.0924 22.4625 15.7672 22.3018 15.4864C22.1411 15.2056 21.8939 14.9843 21.5972 14.8554ZM17.25 19.4998C14.0685 19.4963 11.0182 18.2309 8.76855 15.9813C6.51886 13.7316 5.25347 10.6813 5.24999 7.49981C5.24647 6.58433 5.57629 5.69887 6.17787 5.00879C6.77945 4.3187 7.61165 3.87118 8.51906 3.74981C8.51869 3.75355 8.51869 3.75732 8.51906 3.76106L10.4878 8.16731L8.54999 10.4867C8.53032 10.5093 8.51246 10.5335 8.49656 10.5589C8.35548 10.7754 8.27271 11.0246 8.25629 11.2825C8.23986 11.5404 8.29033 11.7981 8.40281 12.0307C9.25218 13.7679 11.0025 15.5051 12.7584 16.3536C12.9928 16.465 13.252 16.5137 13.5108 16.495C13.7696 16.4762 14.0191 16.3907 14.235 16.2467C14.2591 16.2305 14.2822 16.2129 14.3044 16.1942L16.5834 14.2498L20.9897 16.2232C20.9897 16.2232 20.9972 16.2232 21 16.2232C20.8801 17.1319 20.4333 17.9658 19.743 18.5689C19.0528 19.172 18.1665 19.5029 17.25 19.4998Z" fill="#FBFFF2"/>
</svg>
