<svg width="19" height="19" viewBox="0 0 19 19" fill="none" xmlns="http://www.w3.org/2000/svg">
<path d="M11.2753 1.30575C11.3008 1.21057 11.3447 1.12133 11.4047 1.04315C11.4646 0.96496 11.5394 0.899354 11.6247 0.850077C11.7101 0.8008 11.8043 0.768817 11.9019 0.755956C11.9996 0.743095 12.0989 0.749608 12.1941 0.775123C13.5844 1.13789 14.853 1.86473 15.869 2.88078C16.8851 3.89684 17.6119 5.16538 17.9747 6.55575C18.0002 6.65092 18.0067 6.75018 17.9938 6.84786C17.981 6.94555 17.949 7.03974 17.8997 7.12506C17.8505 7.21039 17.7848 7.28516 17.7067 7.34512C17.6285 7.40508 17.5392 7.44904 17.4441 7.4745C17.3807 7.49114 17.3155 7.49964 17.25 7.49981C17.0847 7.49981 16.9241 7.44521 16.793 7.34451C16.662 7.2438 16.5679 7.10263 16.5253 6.94293C16.2294 5.80792 15.6362 4.77235 14.8068 3.94296C13.9775 3.11356 12.9419 2.52036 11.8069 2.2245C11.7116 2.19914 11.6223 2.15525 11.544 2.09533C11.4657 2.03542 11.4 1.96066 11.3506 1.87533C11.3012 1.79 11.2692 1.69577 11.2563 1.59803C11.2433 1.5003 11.2498 1.40098 11.2753 1.30575ZM11.0569 5.2245C12.3497 5.5695 13.1803 6.40012 13.5253 7.69293C13.5679 7.85263 13.662 7.9938 13.793 8.09451C13.9241 8.19521 14.0847 8.24981 14.25 8.24981C14.3155 8.24964 14.3807 8.24114 14.4441 8.2245C14.5392 8.19904 14.6285 8.15508 14.7067 8.09512C14.7848 8.03516 14.8505 7.96039 14.8997 7.87506C14.949 7.78974 14.981 7.69555 14.9938 7.59786C15.0067 7.50018 15.0002 7.40092 14.9747 7.30575C14.4947 5.5095 13.2403 4.25512 11.4441 3.77512C11.2519 3.72378 11.0471 3.75089 10.8749 3.85049C10.7027 3.95009 10.5771 4.11402 10.5258 4.30622C10.4744 4.49842 10.5015 4.70314 10.6011 4.87535C10.7007 5.04756 10.8647 5.17315 11.0569 5.2245ZM18.7387 14.1636C18.5716 15.4339 17.9477 16.6 16.9837 17.4439C16.0196 18.2879 14.7813 18.7521 13.5 18.7498C6.05624 18.7498 -6.77569e-06 12.6936 -6.77569e-06 5.24981C-0.00230363 3.96852 0.461887 2.73021 1.30587 1.76615C2.14985 0.802093 3.3159 0.178223 4.58624 0.0110603C4.90748 -0.0281639 5.23279 0.037556 5.51361 0.198409C5.79442 0.359262 6.01569 0.606621 6.14437 0.90356L8.12437 5.32387V5.33512C8.22289 5.56242 8.26358 5.81059 8.2428 6.05744C8.22202 6.3043 8.14043 6.54217 8.00531 6.74981C7.98843 6.77512 7.97062 6.79856 7.95187 6.822L5.99999 9.13575C6.70218 10.5626 8.19468 12.042 9.64031 12.7461L11.9222 10.8045C11.9446 10.7857 11.9681 10.7681 11.9925 10.752C12.2 10.6136 12.4386 10.5292 12.687 10.5062C12.9353 10.4833 13.1854 10.5227 13.4147 10.6207L13.4269 10.6264L17.8434 12.6054C18.1409 12.7337 18.3889 12.9547 18.5502 13.2356C18.7116 13.5164 18.7778 13.842 18.7387 14.1636ZM17.25 13.9761C17.25 13.9761 17.2434 13.9761 17.2397 13.9761L12.8334 12.0026L10.5506 13.9442C10.5285 13.9629 10.5053 13.9805 10.4812 13.9967C10.2654 14.1407 10.0159 14.2262 9.75707 14.245C9.49826 14.2637 9.23902 14.215 9.00468 14.1036C7.24874 13.2551 5.49843 11.5179 4.64906 9.78075C4.53658 9.54811 4.48611 9.29037 4.50254 9.03249C4.51896 8.77462 4.60173 8.52536 4.74281 8.30887C4.75871 8.28345 4.77658 8.25932 4.79624 8.23669L6.74999 5.92012L4.78124 1.51387C4.78087 1.51013 4.78087 1.50636 4.78124 1.50262C3.87211 1.62122 3.03738 2.06715 2.43338 2.75692C1.82938 3.44669 1.49754 4.33297 1.49999 5.24981C1.50347 8.43134 2.76886 11.4816 5.01855 13.7313C7.26823 15.9809 10.3185 17.2463 13.5 17.2498C14.4163 17.253 15.3023 16.9223 15.9925 16.3196C16.6827 15.7169 17.1297 14.8835 17.25 13.9751V13.9761Z" fill="#FBFFF2"/>
</svg>
